<svg width="24" height="24" viewBox="0 0 24 24" fill="none" xmlns="http://www.w3.org/2000/svg">
<g clip-path="url(#clip0_9550_35618)">
<path d="M9.82874 10.064C9.14474 10.064 8.60474 10.6654 8.60474 11.3991C8.60474 12.1328 9.15674 12.7342 9.82874 12.7342C10.5127 12.7342 11.0527 12.1328 11.0527 11.3991C11.0647 10.6654 10.5127 10.064 9.82874 10.064ZM14.2087 10.064C13.5247 10.064 12.9847 10.6654 12.9847 11.3991C12.9847 12.1328 13.5367 12.7342 14.2087 12.7342C14.8927 12.7342 15.4327 12.1328 15.4327 11.3991C15.4327 10.6654 14.8927 10.064 14.2087 10.064Z" fill="#CDD8D3"/>
<path d="M20.04 -0.0283203H3.96C2.604 -0.0283203 1.5 1.07825 1.5 2.44943V18.7111C1.5 20.0823 2.604 21.1889 3.96 21.1889H17.568L16.932 18.9637L18.468 20.3951L19.92 21.7422L22.5 24.0275V2.44943C22.5 1.07825 21.396 -0.0283203 20.04 -0.0283203ZM15.408 15.6801C15.408 15.6801 14.976 15.1629 14.616 14.7059C16.188 14.2608 16.788 13.2745 16.788 13.2745C16.296 13.5993 15.828 13.8278 15.408 13.9842C14.808 14.2368 14.232 14.4052 13.668 14.5014C12.6403 14.691 11.5862 14.687 10.56 14.4894C9.95751 14.3712 9.36705 14.1981 8.796 13.9722C8.49499 13.8561 8.2023 13.7195 7.92 13.5632C7.884 13.5392 7.848 13.5271 7.812 13.5031C7.788 13.491 7.776 13.479 7.764 13.467C7.548 13.3467 7.428 13.2625 7.428 13.2625C7.428 13.2625 8.004 14.2247 9.528 14.6818C9.168 15.1389 8.724 15.6801 8.724 15.6801C6.072 15.5959 5.064 13.8519 5.064 13.8519C5.064 9.97889 6.792 6.83961 6.792 6.83961C8.52 5.5406 10.164 5.57668 10.164 5.57668L10.284 5.72102C8.124 6.34647 7.128 7.29667 7.128 7.29667C7.128 7.29667 7.392 7.15234 7.836 6.94786C9.12 6.38255 10.14 6.22619 10.56 6.1901C10.632 6.17808 10.692 6.16605 10.764 6.16605C12.8449 5.88374 14.9612 6.28016 16.8 7.29667C16.8 7.29667 15.852 6.39458 13.812 5.76913L13.98 5.57668C13.98 5.57668 15.624 5.5406 17.352 6.83961C17.352 6.83961 19.08 9.97889 19.08 13.8519C19.08 13.8519 18.06 15.5959 15.408 15.6801Z" fill="#CDD8D3"/>
</g>
<defs>
<clipPath id="clip0_9550_35618">
<rect width="24" height="24" fill="white"/>
</clipPath>
</defs>
</svg>
