<svg width="24" height="24" viewBox="0 0 24 24" fill="none" xmlns="http://www.w3.org/2000/svg">
<g clip-path="url(#clip0_9550_35592)">
<path d="M19.5974 0.993652H4.11807V4.11834H0L0.923077 7.2426H1.70414V19.8817C1.31199 19.8817 0.994083 20.1996 0.994083 20.5917V21.4438H0.852071C0.459916 21.4438 0.142012 21.7617 0.142012 22.1538V23.0059H8.09468V22.1538C8.09468 21.7617 7.77677 21.4438 7.38462 21.4438H7.2426V20.5917C7.2426 20.1996 6.9247 19.8817 6.53254 19.8817H6.39026V12.9226C6.39026 9.89205 9.00567 7.95223 11.8577 7.95223C14.7098 7.95223 17.3252 9.89205 17.3252 12.9226V19.8959C17.0012 19.9618 16.7574 20.2483 16.7574 20.5917V21.4438H16.6154C16.2232 21.4438 15.9053 21.7617 15.9053 22.1538V23.0059H23.858V22.1538C23.858 21.7617 23.5401 21.4438 23.1479 21.4438H23.0059V20.5917C23.0059 20.1996 22.688 19.8817 22.2959 19.8817V7.2426H23.0769L24 4.11834H19.5974V0.993652Z" fill="#CDD8D3"/>
</g>
<defs>
<clipPath id="clip0_9550_35592">
<rect width="24" height="24" fill="white"/>
</clipPath>
</defs>
</svg>
