<svg width="24" height="24" viewBox="0 0 24 24" fill="none" xmlns="http://www.w3.org/2000/svg">
<g clip-path="url(#clip0_9550_35581)">
<path d="M12 0.295898C5.38538 0.295898 0.027832 5.6659 0.027832 12.2959C0.027832 17.6059 3.45486 22.0909 8.2138 23.6809C8.81241 23.7859 9.03689 23.4259 9.03689 23.1109C9.03689 22.8259 9.02192 21.8809 9.02192 20.8759C6.01392 21.4309 5.23572 20.1409 4.99628 19.4659C4.86159 19.1209 4.27795 18.0559 3.76913 17.7709C3.35011 17.5459 2.7515 16.9909 3.75417 16.9759C4.69698 16.9609 5.37041 17.8459 5.59489 18.2059C6.67238 20.0209 8.39338 19.5109 9.08178 19.1959C9.18654 18.4159 9.50081 17.8909 9.84501 17.5909C7.1812 17.2909 4.39767 16.2559 4.39767 11.6659C4.39767 10.3609 4.86159 9.2809 5.62482 8.4409C5.5051 8.1409 5.08607 6.9109 5.74454 5.2609C5.74454 5.2609 6.74721 4.9459 9.03689 6.4909C9.99466 6.2209 11.0123 6.0859 12.0299 6.0859C13.0476 6.0859 14.0652 6.2209 15.023 6.4909C17.3126 4.9309 18.3153 5.2609 18.3153 5.2609C18.9738 6.9109 18.5548 8.1409 18.435 8.4409C19.1983 9.2809 19.6622 10.3459 19.6622 11.6659C19.6622 16.2709 16.8637 17.2909 14.1999 17.5909C14.6339 17.9659 15.008 18.6859 15.008 19.8109C15.008 21.4159 14.993 22.7059 14.993 23.1109C14.993 23.4259 15.2175 23.8009 15.8161 23.6809C18.1929 22.8769 20.2583 21.3459 21.7214 19.3035C23.1846 17.2612 23.9717 14.8103 23.9722 12.2959C23.9722 5.6659 18.6146 0.295898 12 0.295898Z" fill="#CDD8D3"/>
</g>
<defs>
<clipPath id="clip0_9550_35581">
<rect width="24" height="24" fill="white"/>
</clipPath>
</defs>
</svg>
