<svg width="24" height="24" viewBox="0 0 24 24" fill="none" xmlns="http://www.w3.org/2000/svg">
<path fill-rule="evenodd" clip-rule="evenodd" d="M11.7061 2.89559C10.6642 1.8954 9.25112 1.3335 7.7777 1.3335H1.11103C0.497381 1.3335 -8.01086e-05 1.81106 -8.01086e-05 2.40016V18.4002C-8.01086e-05 18.9893 0.497381 19.4668 1.11103 19.4668H8.44436C9.03373 19.4668 9.59897 19.6916 10.0157 20.0917C10.4325 20.4917 10.6136 20.7677 10.6136 21.3335C10.6136 22.0002 11.111 22.6668 11.9999 22.6668C12.8888 22.6668 13.3333 22.0002 13.3333 21.3335V6.66683C13.3333 5.25234 12.7479 3.89579 11.7061 2.89559ZM10.6666 17.9051C9.99669 17.5338 9.45351 17.3335 8.66659 17.3335H2.22214V3.46683H7.33325C8.21731 3.46683 9.06515 3.80397 9.69027 4.40409C10.3154 5.0042 10.6666 5.81814 10.6666 6.66683V17.9051Z" fill="url(#paint0_linear_9550_35553)"/>
<path fill-rule="evenodd" clip-rule="evenodd" d="M12.2939 2.89559C13.3358 1.8954 14.7489 1.3335 16.2223 1.3335H22.889C23.5026 1.3335 24.0001 1.81106 24.0001 2.40016V18.4002C24.0001 18.9893 23.5026 19.4668 22.889 19.4668H15.5556C14.9663 19.4668 14.401 19.6916 13.9843 20.0917C13.5675 20.4917 13.3864 20.7677 13.3864 21.3335C13.3864 22.0002 12.889 22.6668 12.0001 22.6668C11.1112 22.6668 10.6667 22.0002 10.6667 21.3335V6.66683C10.6667 5.25234 11.2521 3.89579 12.2939 2.89559ZM13.3334 17.9051C14.0033 17.5338 14.5465 17.3335 15.3334 17.3335H21.7779V3.46683H16.6667C15.7827 3.46683 14.9348 3.80397 14.3097 4.40409C13.6846 5.0042 13.3334 5.81814 13.3334 6.66683V17.9051Z" fill="url(#paint1_linear_9550_35553)"/>
<defs>
<linearGradient id="paint0_linear_9550_35553" x1="6.66659" y1="1.3335" x2="6.66659" y2="22.6668" gradientUnits="userSpaceOnUse">
<stop stop-color="#10808C"/>
<stop offset="1" stop-color="#1DF7EF"/>
</linearGradient>
<linearGradient id="paint1_linear_9550_35553" x1="17.3334" y1="1.3335" x2="32.4307" y2="14.5993" gradientUnits="userSpaceOnUse">
<stop stop-color="#FE5468"/>
<stop offset="1" stop-color="#FFDF27"/>
</linearGradient>
</defs>
</svg>
