<svg width="219" height="58" viewBox="0 0 219 58" fill="none" xmlns="http://www.w3.org/2000/svg">
<path d="M91.0093 22.6465C90.4277 20.3201 88.9373 18.648 85.993 18.648C81.6674 18.648 79.8863 22.4647 79.8863 26.3178C79.8863 30.1708 81.7038 33.9876 85.993 33.9876C89.1191 33.9876 90.8275 31.6612 91.1183 28.7169H94.5715C94.2808 33.5514 90.8639 36.8592 85.993 36.8592C79.959 36.8592 76.3604 32.061 76.3604 26.3178C76.3604 20.5745 79.959 15.7764 85.993 15.7764C90.5367 15.8127 94.099 18.3209 94.5352 22.6465H91.0093ZM96.6798 29.0804C96.6798 24.6093 99.3697 21.4106 104.022 21.4106C108.675 21.4106 111.365 24.6093 111.365 29.0804C111.365 33.5514 108.675 36.7865 104.022 36.7865C99.3697 36.7865 96.6798 33.5514 96.6798 29.0804ZM108.166 29.0804C108.166 26.5722 106.894 23.955 104.022 23.955C101.151 23.955 99.8786 26.5722 99.8786 29.0804C99.8786 31.5885 101.151 34.242 104.022 34.242C106.894 34.242 108.166 31.6248 108.166 29.0804ZM114.128 16.2489H117.326V19.3023H114.128V16.2489ZM114.128 21.8104H117.326V36.3866H114.128V21.8104ZM120.852 21.8104H123.906V23.955L123.978 24.0278C124.924 22.4284 126.632 21.4106 128.522 21.4469C131.685 21.4469 133.684 23.1554 133.684 26.3905V36.3866H130.485V27.2265C130.412 24.9365 129.54 23.955 127.65 23.955C125.505 23.955 124.124 25.6271 124.124 27.7718V36.3866H120.925V21.8104H120.852ZM155.057 36.3866H152.804L152.259 34.0239C150.368 36.1686 148.66 36.8592 146.188 36.8592C140.154 36.8592 136.555 32.061 136.555 26.3178C136.555 20.5745 140.154 15.7764 146.188 15.7764C150.586 15.7764 154.294 18.1028 154.803 22.6465H151.35C151.023 19.9929 148.696 18.648 146.152 18.648C141.826 18.648 140.045 22.4647 140.045 26.3178C140.045 30.1708 141.862 33.9876 146.152 33.9876C149.75 34.0603 151.75 31.8793 151.786 28.4624H146.443V25.7725H155.021L155.057 36.3866ZM160.946 29.9164C160.946 32.2064 162.182 34.242 164.872 34.242C166.726 34.242 167.853 33.4423 168.434 31.8066H171.488C170.797 35.0054 168.071 36.7865 164.872 36.7865C160.292 36.7865 157.747 33.5877 157.747 29.1167C157.747 24.9728 160.474 21.4106 164.799 21.4106C169.379 21.4106 172.214 25.5544 171.669 29.9164H160.946ZM168.434 27.8081C168.325 25.7725 166.944 23.955 164.763 23.955C162.545 23.955 161.019 25.6271 160.91 27.8081H168.434ZM183.955 26.6813C183.701 24.9001 182.392 23.955 180.611 23.955C178.939 23.955 176.613 24.8274 176.613 29.2621C176.613 31.6975 177.667 34.242 180.466 34.242C182.32 34.242 183.628 33.0061 183.919 30.8978H187.118C186.536 34.6782 184.21 36.7501 180.43 36.7501C175.849 36.7501 173.341 33.515 173.341 29.2258C173.341 24.8274 175.74 21.3742 180.539 21.3742C183.919 21.3742 186.791 23.0827 187.118 26.6449H183.955V26.6813ZM189.844 16.2489H193.079V27.6991L198.895 21.8104H202.857L197.259 27.1538L203.366 36.3866H199.44L194.969 29.2985L193.043 31.1523V36.3866H189.844V16.2489ZM204.239 29.0804C204.239 24.6093 206.928 21.4106 211.581 21.4106C216.27 21.4106 218.924 24.6093 218.924 29.0804C218.924 33.5514 216.234 36.7865 211.581 36.7865C206.928 36.7865 204.239 33.5514 204.239 29.0804ZM215.761 29.0804C215.761 26.5722 214.489 23.955 211.618 23.955C208.746 23.955 207.474 26.5722 207.474 29.0804C207.474 31.5885 208.746 34.242 211.618 34.242C214.489 34.242 215.761 31.6248 215.761 29.0804Z" fill="#CDD8D3"/>
<path d="M58.5128 28.7163C58.5491 40.3846 51.6064 50.926 40.8468 55.4334C30.0873 59.9407 17.6921 57.5416 9.40436 49.3266C1.11663 41.1116 -1.3915 28.7163 3.00681 17.9205C7.40513 7.12462 17.9102 0.0727764 29.5421 7.70396e-05C45.4996 -0.0362727 58.4401 12.7952 58.5128 28.7163ZM56.3682 28.7163C56.2955 13.9947 44.3001 2.14471 29.5421 2.21741C18.7826 2.29011 9.07721 8.79671 5.00605 18.7929C0.93488 28.7527 3.26126 40.2028 10.931 47.7999C18.6008 55.3607 30.051 57.6143 40.0108 53.4341C49.9706 49.2539 56.4045 39.5122 56.3682 28.7163Z" fill="#CDD8D3"/>
<path d="M29.7964 14.6124C31.1413 14.7215 36.0122 16.2845 37.2481 17.1569C36.1939 14.1399 32.7044 13.74 29.7964 14.6124Z" fill="#CDD8D3"/>
<path d="M29.5421 22.3188C29.5421 23.7728 28.6697 25.1177 27.2884 25.6629C25.9435 26.2082 24.3804 25.9174 23.3263 24.8632C22.2721 23.8091 21.9814 22.2824 22.5266 20.9011C23.0718 19.5562 24.4168 18.6475 25.8708 18.6475C27.9063 18.6838 29.5421 20.3195 29.5421 22.3188Z" fill="#CDD8D3"/>
<path fill-rule="evenodd" clip-rule="evenodd" d="M34.4078 55.0713C34.4096 55.083 34.4111 55.095 34.4129 55.1066C24.0169 57.6511 12.5667 51.7261 7.76855 44.0199C10.0993 38.8365 10.4326 34.2855 10.935 28.2638C11.2658 22.2287 12.6441 17.204 22.8173 14.3949C25.071 13.8497 27.4337 14.0678 29.7965 14.613C31.9411 14.1041 34.4492 14.0678 35.7578 15.231C36.6666 16.0307 37.1391 16.6486 37.2482 17.1575C39.2837 17.9572 41.283 18.7569 43.2095 19.3021C53.406 22.0854 52.4303 27.6669 47.449 32.3324C46.1887 33.629 44.8282 34.8551 43.9365 35.7685C40.1289 39.6489 33.3184 47.255 34.4049 55.051C34.4103 55.0637 34.4129 55.0702 34.4129 55.0702L34.4078 55.0713ZM49.2755 30.0787C47.9593 31.0645 46.4912 31.7741 44.9906 32.388C43.3913 33.0423 41.7192 33.5512 40.0471 33.9147C38.375 34.2419 36.6666 34.3509 34.9581 34.3146C33.286 34.2419 31.5776 33.9147 30.1236 32.9696L30.0509 33.0423C31.2505 34.3873 33.0679 35.0052 34.8854 35.1506C36.6666 35.296 38.4477 34.9689 40.1561 34.5327C41.8646 34.0601 43.5003 33.4785 45.0997 32.7152C46.5751 31.9947 48.0178 31.1769 49.2755 30.0787ZM49.2755 30.0787C49.3628 30.0137 49.4489 29.9475 49.5344 29.8799H49.498C49.4246 29.9472 49.3504 30.0133 49.2755 30.0787ZM45.4995 27.4081C45.4995 26.7902 44.9906 26.3176 44.3727 26.2813C43.3913 26.3176 42.9187 27.5172 43.6094 28.2078C44.3 28.8985 45.4995 28.3896 45.4995 27.4081ZM31.0687 22.2828C31.0687 20.9015 30.5235 19.5929 29.5057 18.5751C28.5606 17.6301 27.252 17.0848 25.8707 17.0848C23.7988 17.0848 21.9086 18.3571 21.1089 20.2836C20.3092 22.2101 20.7454 24.4275 22.2357 25.9178C23.7261 27.4081 25.9434 27.8443 27.8699 27.0446C29.7965 26.2449 31.0687 24.3548 31.0687 22.2828Z" fill="#CDD8D3"/>
</svg>
