<svg width="185" height="61" viewBox="0 0 185 61" fill="none" xmlns="http://www.w3.org/2000/svg">
<path fill-rule="evenodd" clip-rule="evenodd" d="M10.1885 0.678711H27.914C32.6885 0.678711 37.2018 1.76898 41.4527 3.94586C42.3376 4.40108 43.1951 4.8958 44.0257 5.43191C48.2938 8.18465 51.6417 11.79 54.0699 16.2502C56.4988 20.7102 57.7105 25.4798 57.7054 30.5587C57.7054 33.2952 57.3372 35.9813 56.5994 38.6172C55.8613 41.2528 54.7825 43.7393 53.3616 46.0781C51.9412 48.4154 50.2311 50.5202 48.2332 52.3879C46.2347 54.2553 44.0214 55.8187 41.5942 57.0781L40.6846 30.1395V29.8534C40.7535 29.8212 40.8189 29.7833 40.8801 29.7401C41.9301 29.1087 42.6574 27.6712 42.6574 26.0123C42.6582 25.8145 42.6476 25.6184 42.6258 25.4221C42.4436 23.7022 41.4844 22.3385 40.253 22.002C40.0761 20.7949 39.6684 19.6704 39.0303 18.6304C39.6797 18.5567 40.1731 18.2419 40.5125 17.6841C41.7394 15.8706 43.3981 13.9886 44.6709 11.0327L44.7257 10.9067C44.9148 10.5001 44.8705 10.1224 44.5935 9.76964C44.5261 9.67246 44.4432 9.5898 44.3434 9.52506C43.8233 9.15983 43.3426 9.20665 42.9026 9.66527C41.003 11.4753 38.835 11.8567 37.6036 13.5425C37.5038 13.3211 37.3781 13.1143 37.2263 12.9236C36.8679 12.4703 36.4138 12.1554 35.8628 11.979C35.2205 11.7649 34.5908 11.7937 33.9715 12.0689C33.5738 10.7269 32.6749 10.0557 31.2743 10.0557C29.8744 10.0557 28.9748 10.7269 28.5771 12.0689C27.2726 11.5184 26.1883 11.8027 25.3232 12.9236C25.1699 13.1143 25.044 13.3194 24.9456 13.5425C23.6322 11.7469 21.2554 11.1874 19.2783 9.31443C18.8504 8.85568 18.4456 8.87549 18.0647 9.37387C17.6894 9.87754 17.6317 10.4157 17.8918 10.9876C19.1687 14.0012 20.8371 15.8653 22.0735 17.6841C22.4065 18.2346 22.8927 18.5494 23.5323 18.6304C22.8901 19.6704 22.4754 20.7949 22.2871 22.002C20.9187 22.3762 19.8828 24.0262 19.8828 26.0123C19.8828 27.7756 20.705 29.285 21.8548 29.8534L21.2055 49.1097L20.823 60.4335H10.1885C8.70004 60.4335 7.43005 59.9083 6.37802 58.8539C5.32662 57.8012 4.80099 56.5313 4.80225 55.0414V6.06532C4.80225 4.57738 5.32801 3.30715 6.38004 2.2565C7.43157 1.20397 8.70067 0.678711 10.1885 0.678711ZM12.2216 44.081C12.4092 44.4051 12.6465 44.5676 12.934 44.5676H12.9344C13.0778 44.5676 13.2335 44.5272 13.4016 44.4463L17.1876 42.7408C17.5474 42.5805 17.7884 42.3108 17.91 41.9366H17.9059C18.0218 41.5623 17.9838 41.2042 17.792 40.8642C17.5945 40.5225 17.3036 40.3101 16.9176 40.2273C16.5326 40.1464 16.1797 40.2201 15.8599 40.4504L12.4922 42.8774C12.0313 43.1959 11.9413 43.5972 12.2216 44.081ZM11.0881 32.1618C11.2764 32.2259 11.4597 32.2581 11.6384 32.2581C11.9606 32.2581 12.2674 32.1536 12.559 31.9442C13.0116 31.6202 13.2379 31.1795 13.2379 30.6217C13.2379 30.064 13.0116 29.6232 12.559 29.2995C12.1056 28.9738 11.6158 28.9018 11.0881 29.0818L9.64315 29.5765C9.14415 29.7456 8.89464 30.0946 8.89464 30.6217C8.89464 31.149 9.14415 31.4961 9.64315 31.6671L11.0881 32.1618ZM49.9811 31.9404C50.2728 32.1493 50.5802 32.254 50.9032 32.254C51.0815 32.254 51.2645 32.2221 51.4522 32.1581L52.902 31.6634C53.4002 31.4925 53.6497 31.1434 53.6497 30.6164C53.6497 30.0891 53.4002 29.7418 52.902 29.5709L51.4522 29.0761C50.9244 28.8963 50.4337 28.9702 49.9811 29.2939C49.5278 29.6197 49.3015 30.0604 49.3015 30.6164C49.3015 31.174 49.5278 31.6148 49.9811 31.9404ZM48.6838 44.4407C48.8439 44.5122 48.9922 44.5479 49.129 44.5479C49.4195 44.5479 49.6573 44.3866 49.8426 44.0649C50.116 43.5899 50.031 43.1942 49.5883 42.8739L46.2204 40.445C45.9015 40.2148 45.55 40.1409 45.1648 40.2236C44.7806 40.3066 44.4894 40.5187 44.2934 40.8588C44.0939 41.1989 44.0551 41.557 44.176 41.9328C44.2969 42.3073 44.5374 42.577 44.8979 42.7371L48.6838 44.4407ZM45.1705 21.4803C45.2717 21.5016 45.3706 21.5124 45.4674 21.5124C45.7374 21.5124 45.99 21.4289 46.2256 21.2607L49.5933 18.8302C50.0354 18.5081 50.1188 18.1105 49.8441 17.6373C49.5695 17.1641 49.1828 17.04 48.6838 17.2668L44.8979 18.9668C44.538 19.127 44.2969 19.395 44.1753 19.7711C44.0551 20.1489 44.0961 20.5069 44.2983 20.8488C44.4965 21.187 44.7876 21.3956 45.1705 21.4803ZM15.865 21.2572C16.0991 21.4254 16.3501 21.5092 16.6189 21.5092C16.7181 21.5092 16.82 21.4977 16.924 21.4749C17.305 21.3903 17.596 21.1799 17.7961 20.8435C17.988 20.5034 18.0261 20.1452 17.91 19.7711C17.7905 19.395 17.5509 19.1251 17.1918 18.9615L13.4059 17.2613C12.9075 17.0364 12.5211 17.1605 12.2456 17.6336C11.9707 18.107 12.0545 18.5027 12.4972 18.8247L15.865 21.2572Z" fill="#CDD8D3"/>
<path fill-rule="evenodd" clip-rule="evenodd" d="M36.2218 26.1753L36.2667 26.179C36.2689 27.1307 36.496 28.0248 36.9485 28.8614C37.1129 29.1547 37.1881 29.4715 37.1741 29.8059C37.1601 30.1443 37.0595 30.4501 36.8713 30.7307C35.5759 32.6199 33.7627 34.0573 31.4541 34.0573H30.9629C28.9676 33.8847 26.8817 32.5802 25.5773 31.0114C25.3376 30.72 25.2027 30.3853 25.1726 30.0094C25.1416 29.6315 25.2204 29.2788 25.4094 28.9533C25.9154 28.0967 26.1669 27.1703 26.1635 26.1753C26.1669 25.2254 25.9463 24.3312 25.5 23.4929C25.337 23.196 25.2647 22.8793 25.2822 22.5393C25.3004 22.201 25.4065 21.8934 25.5999 21.6162C25.6982 21.7495 25.8122 21.87 25.9408 21.9744C26.4157 22.3486 26.9548 22.5375 27.5586 22.5428C28.1629 22.5465 28.7049 22.3666 29.1862 22.003C29.1862 23.034 30.227 23.8707 31.504 23.8707C31.6207 23.8778 31.7373 23.8778 31.854 23.8707C32.9722 23.7339 33.8268 22.9603 33.8268 22.0247C34.3075 22.3898 34.8499 22.5698 35.4537 22.5645C36.0573 22.5591 36.5963 22.3701 37.0715 21.9977L37.1763 21.9023C37.3568 22.4259 37.3083 22.9278 37.0306 23.4064C36.5056 24.2539 36.2365 25.1768 36.2218 26.1753ZM33.9714 26.6845H33.9489C34.1128 26.5333 34.149 26.3583 34.0536 26.1574C33.9627 25.9662 33.8099 25.8802 33.599 25.9018L31.504 26.1879L31.3269 26.2113H31.2039L28.9318 25.9018C28.7132 25.8748 28.5568 25.961 28.4637 26.1592C28.3698 26.3586 28.4032 26.5333 28.5635 26.6845L30.0767 28.0752C30.2122 28.1994 30.3015 28.3505 30.3451 28.5304L30.8266 30.4609C30.8855 30.7002 31.0367 30.8153 31.2812 30.8081C31.5259 30.8153 31.6767 30.7002 31.736 30.4609C31.8946 29.7161 32.0908 28.9301 32.1907 28.5304C32.2353 28.3523 32.3241 28.2012 32.4584 28.0752L33.9714 26.6845Z" fill="#CDD8D3"/>
<path d="M113.229 24.4884C113.229 25.0603 113.002 25.6088 112.597 26.0132C112.193 26.4175 111.644 26.6447 111.072 26.6447C110.5 26.6447 109.952 26.4175 109.548 26.0132C109.143 25.6088 108.916 25.0603 108.916 24.4884C108.916 23.9165 109.143 23.368 109.548 22.9636C109.952 22.5592 110.5 22.332 111.072 22.332C111.644 22.332 112.193 22.5592 112.597 22.9636C113.002 23.368 113.229 23.9165 113.229 24.4884Z" fill="#CDD8D3"/>
<path d="M102.392 32.1332L102.288 39.7327C102.287 39.8001 102.265 39.8656 102.225 39.92C102.185 39.9745 102.129 40.0153 102.065 40.0368C101.218 40.3062 100.33 40.3092 99.4006 40.0459C98.8286 39.8825 98.529 39.5042 98.5018 38.911C98.3202 34.9766 98.3217 31.0044 98.5063 26.9943C98.756 21.6238 109.61 21.751 106.955 26.2679C106.921 26.3256 106.869 26.3708 106.807 26.3969C106.745 26.4231 106.676 26.4288 106.61 26.4132C105.057 26.0364 101.611 25.6052 102.279 28.506C102.294 28.5729 102.33 28.6327 102.381 28.6756C102.433 28.7184 102.496 28.7419 102.56 28.7421L106.065 28.7966C106.184 28.7979 106.299 28.833 106.395 28.8972C106.49 28.9614 106.56 29.0515 106.596 29.1552C106.902 30.0177 106.887 30.738 106.551 31.3161C106.516 31.375 106.468 31.4274 106.409 31.4703C106.35 31.5131 106.281 31.5456 106.206 31.5658C105.037 31.8714 103.842 31.9895 102.619 31.9199C102.591 31.918 102.562 31.9222 102.535 31.932C102.507 31.9418 102.482 31.9572 102.461 31.9771C102.44 31.9971 102.423 32.0212 102.411 32.048C102.399 32.0748 102.393 32.1038 102.392 32.1332Z" fill="#CDD8D3"/>
<path d="M129.099 23.6843C130.192 23.1789 131.188 23.197 132.087 23.7388C132.55 24.0172 132.781 24.4258 132.781 24.9645L132.754 39.6776C132.754 39.7456 132.734 39.8117 132.697 39.8669C132.659 39.9221 132.606 39.9638 132.545 39.9863C131.683 40.3041 130.765 40.3222 129.794 40.0408C129.228 39.8743 128.934 39.496 128.913 38.9058C128.747 34.0151 128.738 29.0502 128.886 24.0111C128.889 23.9412 128.91 23.8737 128.948 23.8161C128.986 23.7584 129.038 23.7128 129.099 23.6843Z" fill="#CDD8D3"/>
<path d="M77.7373 24.9512C82.3723 26.3267 83.2984 31.965 81.9229 35.8101C80.1933 40.654 73.7015 41.2532 69.5295 39.6689C68.8728 39.4177 68.5444 38.941 68.5444 38.2389C68.5444 34.6041 68.5444 30.9723 68.5444 27.3436C68.5444 26.1088 68.3311 25.2735 69.8065 24.8831C72.5121 24.1628 75.1557 24.1855 77.7373 24.9512ZM72.7709 36.9859C80.8697 38.0618 79.6984 26.1951 72.8072 27.7749C72.7249 27.7928 72.6514 27.8383 72.5992 27.9037C72.5471 27.9691 72.5195 28.0504 72.5212 28.1335L72.5439 36.7226C72.5442 36.787 72.5674 36.849 72.609 36.8974C72.6507 36.9457 72.7082 36.9772 72.7709 36.9859Z" fill="#CDD8D3"/>
<path d="M120.551 36.8407L125.999 36.9451C126.07 36.9466 126.138 36.9662 126.199 37.002C126.259 37.0378 126.309 37.0886 126.344 37.1494C127.47 39.1468 126.285 40.0185 124.387 40.0956C123.08 40.1501 117.982 40.6313 116.833 39.5145C115.671 38.3932 116.22 27.1802 116.289 25.0329C116.291 24.9664 116.314 24.9022 116.353 24.8494C116.393 24.7965 116.448 24.7576 116.511 24.7379C117.389 24.4503 118.179 24.3883 118.881 24.5517C119.822 24.7727 120.294 25.3704 120.297 26.3449L120.324 36.6182C120.324 36.6764 120.348 36.7323 120.391 36.7739C120.433 36.8155 120.491 36.8395 120.551 36.8407Z" fill="#CDD8D3"/>
<path d="M88.3921 36.1053C89.7767 37.9302 92.4188 37.6351 94.2256 36.7817C95.2031 36.3217 95.6843 36.6319 95.6692 37.7123C95.648 39.0894 94.9322 39.9232 93.5219 40.2137C89.8584 40.9673 85.641 40.0321 84.5424 35.9827C81.7914 25.8456 96.6134 24.7288 96.2366 33.1272C96.2003 33.9656 95.7721 34.4468 94.9519 34.5709L88.6281 35.5378C88.5663 35.5469 88.5079 35.5718 88.4585 35.6101C88.4092 35.6484 88.3707 35.6987 88.3468 35.756C88.323 35.8134 88.3146 35.8758 88.3225 35.937C88.3305 35.9983 88.3544 36.0563 88.3921 36.1053ZM92.337 31.9605C92.0919 29.5545 88.4783 30.2355 88.0697 32.587C88.0651 32.6133 88.0668 32.6403 88.0747 32.6657C88.0825 32.6912 88.0964 32.7145 88.115 32.7335C88.1336 32.7526 88.1565 32.767 88.1818 32.7754C88.2071 32.7839 88.234 32.7862 88.2604 32.7822L92.1237 32.2193C92.1869 32.2111 92.2446 32.1795 92.2844 32.1312C92.3243 32.0829 92.3432 32.0217 92.337 31.9605Z" fill="#CDD8D3"/>
<path d="M135.973 28.9324C136.209 28.4481 136.588 28.141 137.112 28.0108C139.613 27.3889 143.672 27.0756 145.374 29.1957C146.89 31.0796 146.35 33.9941 146.4 36.6408C146.427 38.1025 145.899 39.0786 144.816 39.5689C142.21 40.7401 136.958 41.1759 135.387 38.1025C134.447 36.2594 135.155 33.7127 137.321 33.009C138.211 32.7185 139.827 32.4521 142.169 32.21C142.24 32.2019 142.306 32.1731 142.357 32.128C142.407 32.0829 142.44 32.0241 142.451 31.9603C142.859 29.7087 138.043 30.6983 136.989 31.1296C136.86 31.1812 136.717 31.1911 136.582 31.1577C136.447 31.1243 136.326 31.0493 136.236 30.9435C135.706 30.317 135.618 29.6466 135.973 28.9324ZM139.128 35.8826C138.297 37.9028 141.416 37.5169 142.301 37.1583C142.368 37.1314 142.425 37.0867 142.465 37.0301C142.506 36.9735 142.528 36.9075 142.528 36.8405V35.1971C142.528 35.1659 142.522 35.135 142.509 35.1064C142.496 35.0778 142.478 35.0522 142.455 35.0312C142.432 35.0103 142.404 34.9944 142.375 34.9846C142.345 34.9749 142.314 34.9715 142.283 34.9747L139.922 35.238C139.754 35.2574 139.592 35.3275 139.452 35.4409C139.313 35.5543 139.2 35.7068 139.128 35.8826Z" fill="#CDD8D3"/>
<path d="M153.01 31.3382L152.983 39.7367C152.983 39.8029 152.961 39.8673 152.92 39.9199C152.879 39.9724 152.821 40.0102 152.756 40.0272C151.863 40.2421 151.057 40.2905 150.336 40.1725C149.486 40.0302 149.053 39.5263 149.038 38.6608C149.014 37.0356 149.003 35.4103 149.006 33.7851C149.006 31.2475 148.666 29.4588 150.768 28.392C153.078 27.2253 155.852 27.2707 158.213 28.4601C158.288 28.4984 158.37 28.5192 158.455 28.5207C158.539 28.5223 158.622 28.5047 158.698 28.4692C162.153 26.9121 167.533 27.0301 167.451 32.2144C167.415 34.6749 167.397 37.1884 167.397 39.7548C167.397 39.8351 167.371 39.9123 167.323 39.97C167.276 40.0276 167.211 40.0612 167.142 40.0635L164.668 40.1589C163.924 40.1861 163.545 39.7821 163.533 38.9468L163.442 32.11C163.433 31.4623 163.149 31.0174 162.589 30.7753C161.89 30.4757 161.18 30.5786 160.46 31.084C160.402 31.1247 160.356 31.1789 160.323 31.2421C160.291 31.3053 160.274 31.3756 160.274 31.4472L160.246 39.7367C160.247 39.8029 160.225 39.8671 160.184 39.919C160.144 39.9709 160.087 40.0074 160.024 40.0227C157.532 40.6355 156.274 40.3904 156.274 37.5531C156.274 35.7977 156.274 33.9516 156.274 32.0147C156.274 31.4941 156.043 31.1188 155.58 30.8888C154.838 30.5166 154.048 30.5529 153.21 30.9978C153.15 31.0295 153.099 31.0779 153.064 31.1379C153.029 31.198 153.01 31.2672 153.01 31.3382Z" fill="#CDD8D3"/>
<path d="M170.379 29.1688C170.555 28.6301 170.912 28.2744 171.45 28.1019C174.95 26.9761 181.002 27.0669 180.934 32.3284C180.913 33.9566 180.894 35.5833 180.879 37.2086C180.843 41.3034 173.825 40.6723 171.509 39.6781C169.507 38.8201 168.954 35.9238 170.134 34.3077C171.378 32.6099 174.41 32.3647 176.449 32.3057C176.526 32.3029 176.601 32.286 176.666 32.2562C176.731 32.2263 176.785 32.1843 176.825 32.1332C177.083 31.7972 177.067 31.4719 176.78 31.1572C175.718 30.0041 172.794 30.5806 171.459 31.1435C171.321 31.2012 171.167 31.2047 171.027 31.1533C170.887 31.1019 170.772 30.9994 170.706 30.8666C170.355 30.1554 170.246 29.5894 170.379 29.1688ZM174.324 35.3427C171.291 37.0996 177.316 38.9019 177.089 36.0736C177.048 35.5833 177.302 34.6436 176.344 34.9705C176.199 35.0189 176.054 35.0371 175.908 35.025C175.312 34.9705 174.784 35.0764 174.324 35.3427Z" fill="#CDD8D3"/>
<path d="M111.962 27.9793C112.676 28.2608 113.034 28.7829 113.034 29.5455L113.006 39.6736C113.006 39.7426 112.985 39.8095 112.947 39.8649C112.909 39.9203 112.855 39.9613 112.793 39.9823C111.331 40.5134 109.039 40.4907 109.039 38.3434C109.039 35.0234 109.055 31.7049 109.089 28.3879C109.088 28.3183 109.108 28.2507 109.145 28.194C109.183 28.1373 109.236 28.0941 109.297 28.0701C110.266 27.6918 111.154 27.6615 111.962 27.9793Z" fill="#CDD8D3"/>
</svg>
