<svg width="165" height="41" viewBox="0 0 165 41" fill="none" xmlns="http://www.w3.org/2000/svg">
<g clip-path="url(#clip0_2011_12707)">
<path d="M45.8572 40.8085C56.8957 40.8085 65.8442 31.8612 65.8442 20.8242C65.8442 9.78712 56.8957 0.839844 45.8572 0.839844C34.8186 0.839844 25.8701 9.78712 25.8701 20.8242C25.8701 31.8612 34.8186 40.8085 45.8572 40.8085Z" fill="#CDD8D3"/>
<path d="M57.5163 4.59356C54.3057 2.28756 50.4834 0.98526 46.5326 0.851324C42.5818 0.71739 38.68 1.75784 35.3206 3.84111C31.9612 5.92438 29.2951 8.9569 27.6594 12.5552C26.0237 16.1534 25.492 20.1559 26.1313 24.0564C26.7707 27.9568 28.5525 31.5802 31.2514 34.4681C33.9503 37.3561 37.4451 39.379 41.2939 40.281C45.1426 41.1831 49.1724 40.9237 52.8738 39.5358C56.5751 38.1479 59.7817 35.6937 62.088 32.4836C63.6194 30.3522 64.7159 27.94 65.3149 25.3849C65.9139 22.8298 66.0037 20.1817 65.5792 17.5918C65.1547 15.002 64.2241 12.5211 62.8407 10.2909C61.4573 8.06066 59.648 6.1247 57.5163 4.59356Z" fill="#CDD8D3"/>
<path d="M29.3477 32.0969C29.3477 32.0969 42.5553 27.7707 65.8333 20.1807C65.8333 20.1807 67.1083 32.6104 54.2223 39.0938C54.2223 39.0938 47.8679 42.1393 40.8966 40.1857C40.8966 40.1857 33.9548 38.8754 29.3477 32.0969Z" fill="#5A6462"/>
<path d="M77.8682 10.8398H84.7988C86.0358 10.8398 87.1545 11.0464 88.155 11.4595C89.1737 11.8727 90.0377 12.4924 90.7472 13.3187C91.4748 14.1262 92.0296 15.1497 92.4116 16.3891C92.8118 17.6098 93.0119 19.037 93.0119 20.6708C93.0119 22.3046 92.8118 23.7412 92.4116 24.9806C92.0296 26.2013 91.4748 27.2248 90.7472 28.0511C90.0377 28.8586 89.1737 29.4689 88.155 29.8821C87.1545 30.2952 86.0358 30.5018 84.7988 30.5018H77.8682V10.8398ZM84.7988 27.206C86.1449 27.206 87.2091 26.8022 87.9913 25.9947C88.7917 25.1684 89.1919 23.9102 89.1919 22.2201V19.1215C89.1919 17.4313 88.7917 16.1825 87.9913 15.375C87.2091 14.5487 86.1449 14.1356 84.7988 14.1356H81.4699V27.206H84.7988Z" fill="#CDD8D3"/>
<path d="M104.703 28.0515H104.566C104.439 28.4271 104.266 28.7839 104.048 29.1219C103.848 29.4411 103.584 29.7322 103.257 29.9951C102.947 30.258 102.565 30.4646 102.111 30.6148C101.674 30.7651 101.165 30.8402 100.583 30.8402C99.1092 30.8402 97.9814 30.3425 97.1992 29.3472C96.417 28.3519 96.0259 26.9341 96.0259 25.0937V15.7979H99.5185V24.7275C99.5185 25.7416 99.7095 26.521 100.091 27.0656C100.473 27.5914 101.083 27.8543 101.92 27.8543C102.265 27.8543 102.602 27.8073 102.929 27.7134C103.275 27.6195 103.575 27.4787 103.83 27.2909C104.084 27.0843 104.293 26.8402 104.457 26.5585C104.621 26.258 104.703 25.9106 104.703 25.5163V15.7979H108.195V30.5022H104.703V28.0515Z" fill="#CDD8D3"/>
<path d="M111.958 30.5023V15.798H115.45V18.2488H115.587C115.878 17.46 116.332 16.8027 116.951 16.2769C117.588 15.7323 118.461 15.46 119.57 15.46C121.044 15.46 122.172 15.9577 122.954 16.953C123.736 17.9483 124.127 19.3661 124.127 21.2065V30.5023H120.634V21.5727C120.634 20.5211 120.453 19.7323 120.089 19.2065C119.725 18.6807 119.125 18.4178 118.288 18.4178C117.924 18.4178 117.569 18.4741 117.224 18.5868C116.896 18.6807 116.596 18.8309 116.323 19.0375C116.069 19.2253 115.859 19.4694 115.696 19.7699C115.532 20.0516 115.45 20.3896 115.45 20.784V30.5023H111.958Z" fill="#CDD8D3"/>
<path d="M133.483 30.8403C132.428 30.8403 131.482 30.6619 130.645 30.3051C129.827 29.9295 129.126 29.4131 128.544 28.7558C127.98 28.0797 127.544 27.2722 127.235 26.3333C126.925 25.3755 126.771 24.3051 126.771 23.122C126.771 21.9577 126.916 20.906 127.207 19.9671C127.517 19.0281 127.953 18.23 128.517 17.5727C129.081 16.8966 129.772 16.3802 130.591 16.0234C131.409 15.6478 132.337 15.46 133.374 15.46C134.484 15.46 135.448 15.6572 136.266 16.0516C137.085 16.4459 137.758 16.9811 138.285 17.6572C138.813 18.3333 139.204 19.122 139.459 20.0234C139.732 20.906 139.868 21.8544 139.868 22.8685V24.0516H130.4V24.4178C130.4 25.4882 130.691 26.352 131.273 27.0093C131.855 27.6478 132.719 27.9671 133.865 27.9671C134.738 27.9671 135.448 27.7793 135.993 27.4037C136.557 27.0281 137.058 26.5492 137.494 25.9671L139.377 28.1361C138.795 28.9811 137.994 29.6478 136.976 30.1361C135.975 30.6056 134.811 30.8403 133.483 30.8403ZM133.429 18.1642C132.501 18.1642 131.764 18.4835 131.218 19.122C130.673 19.7605 130.4 20.5868 130.4 21.6009V21.8262H136.239V21.5727C136.239 20.5586 135.993 19.7417 135.502 19.122C135.029 18.4835 134.338 18.1642 133.429 18.1642Z" fill="#CDD8D3"/>
</g>
<defs>
<clipPath id="clip0_2011_12707">
<rect width="114" height="40" fill="white" transform="translate(25.8682 0.839844)"/>
</clipPath>
</defs>
</svg>
