<svg width="207" height="53" viewBox="0 0 207 53" fill="none" xmlns="http://www.w3.org/2000/svg">
<path d="M70.895 16.0176H66.7915V37.3608H70.895V16.0176Z" fill="#CDD8D3"/>
<path d="M92.457 21.8213C90.4174 21.8213 88.5477 22.6711 87.4308 24.4437C86.6052 22.7197 84.9298 21.8213 82.7688 21.8213C80.9477 21.8213 79.248 22.6226 78.2039 24.2737V22.1127H74.2461V37.3613H78.2039V28.8871C78.2039 26.7504 79.6608 25.1721 81.4819 25.1721H81.7247C83.3516 25.1721 84.1043 26.1919 84.1043 28.2315V37.3856H88.0621V28.9114C88.0621 26.7747 89.4947 25.1964 91.3158 25.1964H91.5586C93.1855 25.1964 93.9139 26.2162 93.9139 28.2558V37.4098H97.8717V27.8188C97.8717 26.0219 97.4347 24.5651 96.5848 23.4967C95.6864 22.3555 94.3267 21.8213 92.457 21.8213Z" fill="#CDD8D3"/>
<path d="M118.778 21.8213C116.738 21.8213 114.869 22.6711 113.752 24.4437C112.926 22.7197 111.251 21.8213 109.09 21.8213C107.269 21.8213 105.569 22.6226 104.525 24.2737V22.1127H100.591V37.3613H104.549V28.8871C104.549 26.7504 106.006 25.1721 107.827 25.1721H108.07C109.697 25.1721 110.449 26.1919 110.449 28.2315V37.3856H114.407V28.9114C114.407 26.7747 115.84 25.1964 117.661 25.1964H117.904C119.531 25.1964 120.259 26.2162 120.259 28.2558V37.4098H124.217V27.8188C124.217 26.0219 123.78 24.5651 122.93 23.4967C122.032 22.3555 120.672 21.8213 118.778 21.8213Z" fill="#CDD8D3"/>
<path d="M148.789 32.3349V25.3177H152.189V22.1126H148.789V17.1592H144.831V22.1126H140.339H136.503H136.382V30.5867C136.382 32.7234 134.973 34.4474 133.249 34.4474H133.007C131.574 34.4474 130.748 33.379 130.748 31.4123V22.1126H126.791V31.8736C126.791 33.6461 127.228 35.0545 128.077 36.0743C128.927 37.1184 130.214 37.6525 131.938 37.6525C133.832 37.6525 135.459 36.6813 136.382 35.1273V37.3612H140.339V25.3177H144.831V33.4033C144.831 35.9771 146.216 37.3612 148.789 37.3612H152.65V34.0104H150.465C149.081 34.0346 148.789 33.7433 148.789 32.3349Z" fill="#CDD8D3"/>
<path d="M166.806 27.3088C166.806 23.7881 164.232 21.8213 160.396 21.8213C156.657 21.8213 154.156 23.958 153.84 26.8475H157.822C157.919 25.9248 158.842 25.0264 160.275 25.0264H160.517C161.974 25.0264 162.97 26.0705 162.97 27.4545V27.8188L159.133 28.1587C157.482 28.2801 156.147 28.7657 155.103 29.6156C154.059 30.4411 153.549 31.6309 153.549 33.1849C153.5 35.8558 155.807 37.7012 158.551 37.6769C160.493 37.6769 162.12 36.8514 163.067 35.5159C163.091 36.3172 163.164 36.9485 163.237 37.3856H166.952C166.855 36.6814 166.806 35.5645 166.806 34.0347V27.3088ZM162.945 31.1453C162.945 33.0635 161.343 34.4718 159.546 34.4718H159.303C158.211 34.4718 157.409 33.8648 157.409 32.9178C157.409 32.3351 157.628 31.898 158.089 31.5823C158.526 31.2667 159.06 31.0967 159.643 31.0482L162.945 30.7082V31.1453Z" fill="#CDD8D3"/>
<path d="M177.878 21.8208C175.839 21.8208 174.139 22.9863 173.483 24.1032V16.0176H169.525V37.3608H173.483V35.3697C174.139 36.4867 175.839 37.6522 177.878 37.6522C182.152 37.725 184.701 33.8886 184.653 29.7365C184.701 25.5844 182.152 21.7479 177.878 21.8208ZM177.223 34.4713H176.98C175.159 34.5199 173.459 32.5531 173.508 29.7608C173.483 26.9684 175.183 25.0016 176.98 25.0502H177.223C179.214 25.0502 180.695 26.8713 180.695 29.7365C180.695 32.5774 179.189 34.4713 177.223 34.4713Z" fill="#CDD8D3"/>
<path d="M190.601 16.0176H186.644V37.3608H190.601V16.0176Z" fill="#CDD8D3"/>
<path d="M199.877 21.8208C195.409 21.7723 192.568 25.1959 192.617 29.7365C192.544 34.5927 196.041 37.725 199.877 37.6522C203.616 37.6522 206.02 35.564 206.773 32.5288H202.839C202.548 33.6458 201.577 34.4471 200.168 34.4471H199.925C198.274 34.4471 196.623 33.0145 196.478 30.9749H206.773C206.821 30.3193 206.821 29.8336 206.821 29.5423C206.87 25.1231 204.345 21.7965 199.877 21.8208ZM196.478 27.9397C196.575 26.1429 197.959 25.0259 199.61 25.0259H199.853C201.528 25.0259 202.912 26.1429 202.985 27.9397H196.478Z" fill="#CDD8D3"/>
<path d="M26.9219 0.501953C12.5232 0.501953 0.868164 12.1569 0.868164 26.5557C0.868164 40.9545 12.5232 52.6095 26.9219 52.6095C41.3207 52.6095 52.9757 40.9545 52.9757 26.5557C52.9757 12.1569 41.3207 0.501953 26.9219 0.501953ZM25.805 11.04C26.5334 10.6758 27.2861 10.7001 27.9903 11.1128C30.4184 12.4969 32.8466 13.9052 35.2747 15.3135C36.0517 15.7748 36.4402 16.5033 36.4402 17.4017C36.4645 20.5582 36.4402 23.6905 36.4402 26.8471C36.4402 26.9685 36.3673 27.1385 36.2702 27.187C35.3475 27.7455 34.3763 28.2797 33.3565 28.8867C33.3565 28.6925 33.3565 28.5468 33.3565 28.4011C33.3565 25.1717 33.3565 21.918 33.3565 18.6886C33.3565 18.0573 33.1379 17.6688 32.6037 17.3531C29.7871 15.7506 26.9705 14.1237 24.1539 12.4969C24.0325 12.424 23.9111 12.3512 23.7168 12.2298C24.4695 11.7684 25.1008 11.3799 25.805 11.04ZM25.2708 43.2369C25.1008 43.1641 25.0037 43.0912 24.8823 43.0427C21.1673 40.9059 17.428 38.7206 13.6887 36.6082C12.6446 36.0011 12.1589 35.1513 12.1832 33.9615C12.2075 31.412 12.2075 28.8624 12.1832 26.3129C12.1832 25.1717 12.6446 24.3218 13.6644 23.7634C16.2868 22.2579 18.9091 20.7525 21.5072 19.2471C21.7257 19.1257 21.8957 19.1014 22.1385 19.2471C23.0369 19.7812 23.9596 20.3154 24.9066 20.8496C24.7123 20.971 24.5909 21.0439 24.4453 21.1167C21.6286 22.7436 18.7877 24.3947 15.9711 25.9972C15.5098 26.2643 15.2912 26.6043 15.2912 27.1385C15.3155 29.1538 15.3155 31.1449 15.2912 33.1602C15.2912 33.7187 15.5098 34.0586 15.9711 34.3257C18.9577 36.0254 21.9443 37.7736 24.9309 39.4733C25.1737 39.619 25.2951 39.7647 25.2951 40.0804C25.2708 41.1245 25.2708 42.1443 25.2708 43.2369ZM25.2708 37.5065C25.0037 37.3609 24.8337 37.2637 24.6395 37.1423C22.2599 35.7826 19.9047 34.3986 17.5251 33.0388C17.258 32.8931 17.1609 32.7474 17.1852 32.4318C17.2094 30.9021 17.1852 29.3481 17.1852 27.8183C17.1852 27.5998 17.2094 27.4541 17.428 27.357C18.3021 26.8714 19.1762 26.3615 20.0261 25.8516C20.0989 25.803 20.1475 25.7787 20.2689 25.7301C20.2689 26.3372 20.2689 26.8957 20.2689 27.4541C20.2689 28.4011 20.2932 29.3238 20.2689 30.2707C20.2689 30.8049 20.4631 31.1691 20.9245 31.4362C22.2599 32.189 23.5954 32.9902 24.9309 33.743C25.198 33.8886 25.2708 34.0586 25.2708 34.35C25.2708 35.3698 25.2708 36.3896 25.2708 37.5065ZM22.5513 17.256C22.0414 16.9646 21.6286 16.9646 21.1187 17.256C18.3021 18.9071 15.4855 20.534 12.6446 22.1608C12.5232 22.2337 12.4018 22.2822 12.1832 22.4036C12.2561 21.3353 12.0375 20.3154 12.4017 19.3442C12.596 18.81 12.9845 18.3972 13.4701 18.1301C15.8254 16.7704 18.1807 15.4106 20.536 14.0509C21.3858 13.5653 22.2842 13.5653 23.1341 14.0752C25.805 15.6292 28.5002 17.1589 31.1711 18.7129C31.2925 18.7857 31.4382 18.9314 31.4382 19.0285C31.4625 20.1212 31.4382 21.2381 31.4382 22.4279C30.467 21.8694 29.5686 21.3353 28.6702 20.8253C26.6306 19.6356 24.5909 18.4701 22.5513 17.256ZM41.3935 34.5928C41.3207 35.4669 40.8108 36.074 40.0581 36.511C37.1929 38.1621 34.3034 39.8133 31.4382 41.4887C30.5398 41.9986 29.6414 42.5328 28.743 43.0427C28.6216 43.1155 28.5245 43.1641 28.3788 43.2369C28.3788 43.0912 28.3545 42.9698 28.3545 42.8727C28.3545 41.9257 28.3545 40.9788 28.3545 40.0075C28.3545 39.789 28.4031 39.6676 28.5973 39.5462C32.7737 37.1423 36.9744 34.7142 41.1507 32.3104C41.2236 32.2618 41.2721 32.2375 41.3935 32.189C41.4178 33.0388 41.4664 33.8158 41.3935 34.5928ZM41.4178 28.6196C41.4178 29.6151 40.8836 30.295 40.0338 30.7807C36.7558 32.6746 33.4779 34.5442 30.2242 36.4382C29.6172 36.7781 29.0344 37.118 28.3788 37.4823C28.3788 37.3123 28.3545 37.2152 28.3545 37.0938C28.3545 36.1468 28.3545 35.2241 28.3545 34.2771C28.3545 34.01 28.4274 33.8644 28.6702 33.743C31.6325 32.0433 34.6191 30.3193 37.5814 28.6196C38.1156 28.3282 38.3341 27.9397 38.3341 27.3327C38.3098 24.1033 38.3341 20.8496 38.3341 17.6202C38.3341 17.4745 38.3341 17.3046 38.3341 17.0618C39.1111 17.5231 39.8395 17.9116 40.4951 18.3972C41.1022 18.8343 41.4178 19.4899 41.4178 20.2183C41.4421 23.0107 41.4421 25.803 41.4178 28.6196Z" fill="#CDD8D3"/>
</svg>
