<svg width="126" height="52" viewBox="0 0 126 52" fill="none" xmlns="http://www.w3.org/2000/svg">
  <path
    d="M27.0758 5.78325C27.0713 5.81792 27.0242 5.89126 26.9344 6.00327C25.6161 7.64167 24.936 9.56677 24.8942 11.7786C24.8809 12.5075 24.9858 13.2187 25.2089 13.9121C25.3725 14.418 25.6921 14.8096 26.1677 15.0869C26.4966 15.2798 26.838 15.3732 27.1918 15.3669C27.3732 15.3634 27.5243 15.3069 27.6452 15.1976C27.7723 15.0829 27.8701 14.9429 27.9385 14.7776C28.1555 14.2513 28.3124 13.7072 28.4093 13.1454C28.5231 12.4813 28.744 11.6603 29.072 10.6824C29.5841 9.15517 30.4419 7.91459 31.6456 6.96071C32.2821 6.45666 33.0542 6.02283 33.9619 5.65923C36.1834 4.77025 38.4632 4.61468 40.8013 5.19252C41.7418 5.42454 42.5699 5.74058 43.2855 6.14062C44.5799 6.86425 45.628 7.88303 46.4299 9.19695C46.9988 10.1295 47.4233 11.1238 47.7033 12.1799C47.9069 12.9454 47.9754 13.7228 47.9087 14.5122C47.8278 15.4865 47.6727 16.4466 47.4433 17.3925C47.2593 18.1561 47.0308 18.814 46.7579 19.366C46.4628 19.9643 46.0943 20.5604 45.6525 21.1542C44.5563 22.63 43.6442 23.7856 42.9162 24.6213C36.8142 31.6185 30.7033 38.6081 24.5835 45.5902C23.7176 46.5788 23.4727 47.7033 23.8488 48.9639C23.8505 48.971 23.8674 49.0088 23.8994 49.0773C23.9306 49.1413 23.9114 49.1893 23.8421 49.2213C22.6695 47.7811 21.497 46.341 20.3244 44.9008C20.2097 44.7603 20.0599 44.6968 19.875 44.7101C19.7381 44.639 19.7714 44.6065 19.975 44.6128C20.9751 44.6421 21.8948 44.3959 22.734 43.874C23.118 43.6349 23.2874 43.3251 23.242 42.9446C23.2056 42.6477 23.0416 42.3885 22.75 42.1672C22.4353 41.928 22.0735 41.7747 21.6645 41.7071C21.2174 41.6342 20.8209 41.6036 20.4751 41.6151C18.2864 41.6898 16.0204 41.7467 13.677 41.7858C13.6325 41.7866 13.5894 41.77 13.5569 41.7397C13.5243 41.7093 13.5047 41.6676 13.5023 41.6231C13.4765 41.1733 13.4592 40.6928 13.4503 40.1816C13.397 37.0373 13.357 33.8925 13.3303 30.7473C13.3063 27.9976 13.1841 25.2525 12.9636 22.5117C12.7929 20.3897 12.6373 18.2673 12.4969 16.1444C12.4631 15.6332 12.4 15.2225 12.3075 14.9122C12.1653 14.434 11.871 14.0166 11.4248 13.6601C10.9314 13.2663 10.3895 13.0303 9.79926 12.952C9.15652 12.8667 8.59024 12.9209 8.10041 13.1147C7.6808 13.2809 7.35988 13.5659 7.13764 13.9695C6.99362 14.2299 6.89494 14.6278 6.8416 15.1629C6.64781 17.0947 6.5918 18.8447 6.67359 20.4128C6.83449 23.4763 6.88205 26.093 6.81627 28.263C6.81584 28.2735 6.81373 28.2832 6.81018 28.291C6.80664 28.2988 6.79627 28.307 6.79627 28.307L6.7736 28.319C6.01351 27.4309 5.08853 26.2428 3.99863 24.7546C2.70249 22.9855 1.71616 21.1049 1.03964 19.1127C0.892962 18.6815 0.769393 18.2081 0.668938 17.6925C0.58004 17.2347 0.5267 16.7507 0.508921 16.2404C0.423578 13.8312 0.78095 11.5132 1.58104 9.28629C2.23977 7.45321 3.27189 5.81836 4.67737 4.38177C6.14953 2.87671 7.89016 1.80638 9.89927 1.17075C11.319 0.720928 12.7667 0.46712 14.2424 0.409336C15.1438 0.374665 16.0319 0.40089 16.9067 0.488011C19.6883 0.765374 22.2584 1.77037 24.6169 3.503C25.6392 4.25331 26.4588 5.01339 27.0758 5.78325Z"
    fill="#5A6462" />
  <path
    d="M23.8423 49.2211C23.9117 49.1891 23.9308 49.1411 23.8997 49.0771C23.8677 49.0086 23.8508 48.9708 23.849 48.9637C23.473 47.7031 23.7179 46.5786 24.5838 45.59C30.7035 38.6079 36.8144 31.6183 42.9164 24.6211C43.6445 23.7854 44.5566 22.6298 45.6527 21.154C46.0945 20.5602 46.463 19.9641 46.7582 19.3659C47.0311 18.8138 47.2595 18.1559 47.4436 17.3923C47.6729 16.4464 47.828 15.4863 47.9089 14.512C47.9756 13.7226 47.9072 12.9452 47.7036 12.1798C47.4236 11.1236 46.9991 10.1293 46.4301 9.19676C45.6283 7.88284 44.5801 6.86407 43.2858 6.14043C42.5701 5.74039 41.7421 5.42435 40.8015 5.19233C38.4635 4.61449 36.1837 4.77006 33.9621 5.65905C33.0545 6.02264 32.2824 6.45647 31.6459 6.96052C30.4422 7.9144 29.5843 9.15498 29.0722 10.6823C28.7442 11.6601 28.5233 12.4811 28.4095 13.1452C28.3126 13.707 28.1557 14.2511 27.9388 14.7774C27.8703 14.9427 27.7726 15.0827 27.6454 15.1974C27.5245 15.3068 27.3734 15.3632 27.192 15.3668C26.8382 15.373 26.4969 15.2796 26.1679 15.0867C25.6923 14.8094 25.3727 14.4178 25.2092 13.9119C24.986 13.2185 24.8811 12.5073 24.8945 11.7784C24.9362 9.56658 25.6163 7.64148 26.9347 6.00308C27.0245 5.89107 27.0716 5.81773 27.076 5.78306C28.4984 4.21134 30.0679 2.98987 31.7845 2.11867C34.2755 0.855419 36.9411 0.292692 39.7814 0.430484C40.6944 0.474044 41.5776 0.575834 42.431 0.735851C46.1168 1.42659 48.9882 3.3188 51.0453 6.41246C51.5298 7.14054 51.9449 7.92462 52.2908 8.76471C52.8313 10.076 53.194 11.4139 53.3789 12.7785C53.4891 13.5955 53.5669 14.5845 53.6122 15.7455C53.6478 16.6576 53.466 17.7341 53.0668 18.9751C52.5717 20.5122 51.892 21.9626 51.0279 23.3263C50.035 24.8936 48.9353 26.3804 47.7289 27.7868C47.1902 28.4135 46.9182 28.7309 46.9182 28.7309C43.7143 32.5295 40.5437 36.3557 37.4065 40.2094C36.4162 41.4265 35.8201 42.2088 35.6183 42.5563C35.452 42.8435 35.42 43.0946 35.5223 43.3098C35.5925 43.4547 35.7076 43.5333 35.8676 43.5458C37.7603 43.688 39.6414 43.7858 41.5109 43.8392C44.9664 43.9378 47.5889 44.0521 49.3784 44.1819C49.9074 44.2201 50.4168 44.3788 50.9066 44.6579C51.3138 44.8908 51.712 45.2295 52.1014 45.674C52.8659 46.547 53.3695 47.5164 53.6122 48.5823C53.8247 49.5167 53.5869 50.1669 52.8988 50.5332C52.6001 50.6932 52.1054 50.7906 51.4147 50.8252C50.5586 50.8688 49.702 50.8972 48.845 50.9106C43.1671 51.0013 37.4887 51.083 31.8099 51.1559C30.4755 51.1728 29.142 51.2128 27.8094 51.276C27.429 51.2946 27.0507 51.2777 26.6747 51.2253C25.5199 51.067 24.6531 50.4874 24.0744 49.4864C24.0148 49.3833 23.9375 49.2948 23.8423 49.2211Z"
    fill="#CDD8D3" />
  <path
    d="M90.628 44.7387C90.2777 44.4347 90.0848 44.0382 90.0493 43.5492C90.0252 43.2176 90.0252 42.9038 90.0493 42.6078C90.0813 42.2229 90.0973 42.0268 90.0973 42.0197C90.1533 40.985 90.2342 39.9524 90.3399 38.9221C90.5124 37.2348 90.5991 36.3849 90.6 36.3724C90.7209 35.1252 90.8458 34.0255 90.9747 33.0734C91.6654 27.9609 92.3535 22.8479 93.0389 17.7344C93.1651 16.7957 93.3141 15.92 93.4856 15.1075C93.7025 14.0834 93.931 13.0619 94.171 12.0432C94.275 11.6013 94.4648 11.2533 94.7404 10.9991C94.8507 10.8968 94.9809 10.8457 95.1311 10.8457H97.6261C97.779 10.8457 97.9123 10.8973 98.0261 11.0004C98.4635 11.3969 98.7786 11.8885 98.9715 12.4752C99.0613 12.7481 99.1227 12.9259 99.1556 13.0086C99.2018 13.1259 99.2471 13.2437 99.2916 13.362C99.3369 13.4784 99.3871 13.5931 99.4423 13.706C100.139 15.1293 100.719 16.5988 101.181 18.1145C102.237 21.5842 103.314 25.0477 104.412 28.5049C105.726 32.644 106.862 36.8321 107.819 41.069C107.935 41.5828 108.012 42.0317 108.051 42.4158C108.082 42.7234 108.037 43.0141 107.914 43.2879C107.804 43.5297 107.619 43.7421 107.356 43.9253C106.991 44.1804 106.591 44.348 106.155 44.428C105.815 44.4902 105.389 44.5133 104.878 44.4973C104.229 44.476 103.59 44.3462 102.959 44.108C102.771 44.0368 102.627 43.9279 102.528 43.7812C102.466 43.6897 102.413 43.5279 102.371 43.2959C101.832 40.3942 101.308 37.517 100.798 34.6643C100.788 34.6039 100.756 34.5493 100.709 34.5098C100.662 34.4703 100.603 34.4486 100.542 34.4482C98.7946 34.4394 97.0749 34.4465 95.3832 34.4696C95.1636 34.4722 95.0098 34.5051 94.9218 34.5683C94.7973 34.6572 94.7373 34.7927 94.7418 34.975C94.7444 35.1083 94.7453 35.179 94.7444 35.187C94.6129 37.8193 94.3115 40.4311 93.8403 43.0225C93.7372 43.5906 93.5999 44.0124 93.4283 44.288C93.1927 44.6649 92.8727 44.9898 92.4682 45.2627C92.404 45.3052 92.3284 45.3262 92.2522 45.3227C91.5845 45.2943 91.0431 45.0996 90.628 44.7387ZM95.2138 31.0892L99.697 31.1146C99.8765 31.1154 99.9539 31.0257 99.929 30.8452C99.7414 29.5082 99.496 28.1636 99.1929 26.8114C99.0276 26.0771 98.7991 25.2184 98.5075 24.2351C97.9768 22.4438 97.4389 20.6934 96.894 18.9839C96.8122 18.7279 96.7535 18.7332 96.718 18.9999L95.1458 31.0105C95.1445 31.0203 95.1452 31.0302 95.148 31.0396C95.1508 31.0491 95.1556 31.0578 95.162 31.0652C95.1685 31.0727 95.1764 31.0786 95.1854 31.0828C95.1943 31.0869 95.204 31.0891 95.2138 31.0892Z"
    fill="#CDD8D3" />
  <path
    d="M69.1454 30.6092C69.0182 30.6759 69.0178 30.7435 69.144 30.8119C71.6492 32.1703 73.0427 34.2816 73.3245 37.1459C73.3645 37.5531 73.3912 37.9607 73.4045 38.3687C73.4196 38.839 73.392 39.2444 73.3218 39.5849C73.0978 40.6774 72.572 41.6197 71.7443 42.4118C70.8767 43.2421 69.8966 43.8707 68.804 44.2974C68.1915 44.5374 67.4483 44.6987 66.5744 44.7814C64.8462 44.9441 63.1176 44.9334 61.3885 44.7494C61.1583 44.7245 60.9583 44.633 60.7885 44.4747C60.1546 43.8809 59.4101 43.5013 58.5549 43.3359C57.8775 43.2044 57.5663 42.7888 57.6215 42.0891C57.7921 39.9449 57.889 38.2198 57.9122 36.9139C57.9219 36.345 57.8788 35.5449 57.7828 34.5136C57.7019 33.6504 57.6623 32.7855 57.6641 31.9187C57.6659 31.2431 57.6668 30.8999 57.6668 30.8893C57.6428 27.5387 57.6352 24.1885 57.6441 20.8388C57.6441 20.8317 57.6423 20.4584 57.6388 19.7187C57.6335 18.4475 57.6904 17.1784 57.8095 15.9116C57.8895 15.0573 57.9344 14.235 57.9442 13.4447C57.9468 13.2651 58.0139 13.114 58.1455 12.9913C58.8771 12.3086 59.7075 11.8663 60.6364 11.6645C61.5841 11.4574 62.5424 11.3325 63.5114 11.2898C65.2147 11.2151 66.834 11.5383 68.3693 12.2592C69.204 12.6513 69.9326 13.1882 70.5548 13.8701C71.1229 14.4915 71.6367 15.2871 72.0963 16.257C73.188 18.5577 73.7161 21.0651 73.6805 23.7792C73.6725 24.4157 73.5996 24.9375 73.4618 25.3447C73.052 26.5617 72.6111 27.5373 72.139 28.2716C71.7159 28.9286 71.1678 29.4562 70.4948 29.8545C70.0432 30.1212 69.5934 30.3728 69.1454 30.6092ZM65.2169 14.3408C64.9236 14.0626 64.5773 13.8896 64.1782 13.8221C63.0812 13.6372 62.0815 13.7461 61.1792 14.1488C60.9916 14.2332 60.9071 14.3773 60.9258 14.5808C61.012 15.548 61.1543 16.4273 61.3525 17.2184C61.4628 17.6549 61.5392 18.0972 61.5819 18.5453C61.9126 21.9785 62.2406 25.4118 62.566 28.845C62.5695 28.8815 62.5695 28.9722 62.566 29.1171C62.5607 29.3064 62.6309 29.3802 62.7767 29.3384C62.7811 29.3375 62.8722 29.2989 63.05 29.2224C65.012 28.3734 66.2744 26.9759 66.8371 25.03C67.0042 24.4512 67.1011 23.6747 67.1278 22.7004C67.1474 21.9927 67.1536 21.2078 67.1465 20.3455C67.1349 18.9453 66.9251 17.6278 66.5171 16.393C66.2539 15.5983 65.8206 14.9142 65.2169 14.3408ZM62.8687 41.5877L64.2368 42.2211C64.3746 42.2843 64.5426 42.2985 64.7409 42.2638C65.533 42.1269 66.2077 41.794 66.7651 41.265C67.1003 40.9477 67.3052 40.6196 67.3798 40.2809C67.5594 39.464 67.6399 38.4887 67.6212 37.3553C67.6096 36.6699 67.5092 36.0445 67.3198 35.4791C67.118 34.8763 66.7776 34.3621 66.2984 33.9362C65.4076 33.1442 64.2866 32.7357 62.9354 32.7108C62.88 32.7097 62.8265 32.7304 62.7861 32.7686C62.7457 32.8067 62.7218 32.8592 62.7193 32.9148C62.61 35.324 62.5607 37.6904 62.5713 40.0142C62.574 40.4747 62.6207 40.9272 62.7113 41.3717C62.7212 41.4208 62.7407 41.466 62.768 41.5036C62.7954 41.5412 62.8299 41.57 62.8687 41.5877Z"
    fill="#CDD8D3" />
  <path
    d="M76.973 42.8892C76.8112 42.7959 76.6797 42.6701 76.5783 42.5118C76.4974 42.3865 76.457 42.2176 76.457 42.0051C76.4641 40.0147 76.377 38.0282 76.1956 36.0458C75.9574 33.4322 75.7858 31.7325 75.6809 30.9466C75.5902 30.2665 75.5191 29.7042 75.4675 29.2597C75.4098 28.7575 75.3809 28.1921 75.3809 27.5636C75.3826 25.3127 75.3911 23.0622 75.4062 20.8122C75.4151 19.5294 75.4982 18.0096 75.6556 16.253C75.772 14.9551 76.4054 14.055 77.5558 13.5527C78.5452 13.1216 79.672 12.8384 80.9361 12.7033C82.7141 12.5139 84.6516 12.4944 86.7488 12.6446C87.227 12.6793 87.6182 12.8126 87.9222 13.0447C87.956 13.0716 87.9807 13.1084 87.9929 13.15C88.1013 13.5483 88.0204 13.8447 87.7502 14.0394C87.6106 14.1399 87.3524 14.2137 86.9754 14.2608C85.1824 14.4839 83.5204 14.748 81.9896 15.0529C81.7051 15.1098 81.4531 15.2378 81.2335 15.4369C81.1028 15.5543 81.0272 15.6987 81.0068 15.8703C80.9908 16.0063 80.9824 16.1757 80.9815 16.3784C80.9726 18.6524 81.0206 20.6984 81.1255 22.5164C81.1726 23.3467 81.217 24.2339 81.2588 25.178C81.3042 26.2234 81.3762 27.2546 81.4749 28.2716C81.4802 28.33 81.5076 28.3841 81.5515 28.423C81.5953 28.4619 81.6523 28.4826 81.7109 28.481C83.3475 28.4348 84.9712 28.3788 86.5821 28.313C87.159 28.289 87.6666 28.4165 88.1049 28.6957C88.6321 29.0308 88.7663 29.4895 88.5076 30.0718C88.4623 30.1732 88.336 30.287 88.1289 30.4132C88 30.4923 87.8467 30.5617 87.6689 30.6212C87.1577 30.7928 86.6367 30.9217 86.106 31.0079C85.3086 31.1377 84.9006 31.204 84.8819 31.2066C83.8933 31.38 82.9177 31.4524 81.9549 31.424C81.9339 31.4234 81.9131 31.427 81.8936 31.4345C81.874 31.442 81.8562 31.4533 81.841 31.4677C81.8259 31.4821 81.8138 31.4993 81.8054 31.5183C81.797 31.5374 81.7926 31.5579 81.7922 31.5787L81.6469 40.1889C81.6467 40.2064 81.65 40.2237 81.6567 40.2398C81.6634 40.2559 81.6732 40.2705 81.6857 40.2827C81.6981 40.2949 81.7129 40.3045 81.7292 40.3108C81.7454 40.3172 81.7628 40.3201 81.7802 40.3196C83.0924 40.2814 84.3485 40.2365 85.5486 40.1849C86.5754 40.1405 87.5533 40.2614 88.4823 40.5476C88.6832 40.6099 88.8699 40.7085 89.0423 40.8437C89.2139 40.9779 89.3375 41.1419 89.413 41.3357C89.6059 41.8246 89.4819 42.2371 89.041 42.5732C88.1894 43.2195 87.1586 43.5342 85.9487 43.5173C84.8045 43.5013 83.66 43.5026 82.515 43.5213C81.2233 43.5417 79.9338 43.5008 78.6465 43.3986C78.0314 43.3497 77.4735 43.1799 76.973 42.8892Z"
    fill="#CDD8D3" />
  <path
    d="M114.377 15.3865C113.101 15.3767 111.826 15.3745 110.551 15.3799C109.672 15.3834 109.116 15.3385 108.884 15.2452C108.427 15.0612 108.226 14.7576 108.279 14.3344C108.312 14.0713 108.44 13.8686 108.663 13.7263C108.882 13.5868 109.133 13.5179 109.418 13.5197C110.084 13.5232 110.751 13.5077 111.418 13.473C113.009 13.3894 115.02 13.2356 117.452 13.0116C118.805 12.8871 120.35 12.8018 122.088 12.7556C122.096 12.7556 122.404 12.7307 123.012 12.6809C123.88 12.6098 124.673 12.832 125.391 13.3476C125.427 13.3736 125.452 13.4098 125.463 13.4503C125.54 13.7392 125.505 13.9926 125.359 14.2104C125.253 14.3686 125.057 14.4935 124.771 14.5851C123.991 14.834 123.193 14.9887 122.378 15.0492C122.011 15.0767 121.505 15.1034 120.862 15.1292C120.357 15.1496 119.849 15.1434 119.34 15.1105C119.312 15.1089 119.284 15.113 119.257 15.1225C119.23 15.1321 119.206 15.1469 119.186 15.1662C119.165 15.1854 119.149 15.2086 119.137 15.2343C119.126 15.26 119.12 15.2878 119.12 15.3159C119.097 18.3588 119.119 21.3689 119.185 24.3462C119.199 24.9471 119.233 25.8352 119.288 27.0104C119.349 28.3324 119.388 29.6552 119.407 30.9789C119.418 31.7718 119.439 32.6608 119.468 33.6458C119.544 36.1688 119.517 38.6913 119.388 41.2133C119.343 42.0961 119.258 42.9397 119.135 43.7442C119.1 43.9709 118.988 44.1483 118.797 44.2763C118.276 44.6266 117.727 44.8186 117.152 44.8524C115.856 44.9279 115.011 44.9266 114.618 44.8484C113.882 44.7026 113.515 44.2247 113.518 43.4149C113.536 38.6561 113.576 35.1447 113.638 32.8804C113.745 29.0347 113.876 25.1898 114.031 21.3458C114.096 19.7332 114.206 18.3246 114.36 17.12C114.44 16.4871 114.469 15.9315 114.446 15.4532C114.446 15.4353 114.438 15.4183 114.425 15.4059C114.412 15.3935 114.395 15.3865 114.377 15.3865Z"
    fill="#CDD8D3" />
  <path
    d="M19.8745 44.7093C17.8903 44.6889 15.9066 44.7062 13.9232 44.7613C13.6708 44.7684 13.2187 44.8125 12.5671 44.8934C12.2515 44.9325 11.9346 44.9538 11.6163 44.9574C11.2741 44.96 10.9571 44.9711 10.6656 44.9907C9.83791 45.0467 9.0156 44.9987 8.19863 44.8467C7.94171 44.7996 7.72968 44.7378 7.56256 44.6613C7.33942 44.56 7.15229 44.436 7.00116 44.2893C6.89359 44.1853 6.83981 44.059 6.83981 43.9106C6.83981 38.8016 6.83981 33.7579 6.83981 28.7796C6.83981 28.584 6.81759 28.4302 6.77314 28.3182L6.79581 28.3062C6.80135 28.3036 6.80618 28.2981 6.80973 28.2903C6.81327 28.2825 6.81538 28.2727 6.81581 28.2622C6.88159 26.0922 6.83403 23.4755 6.67313 20.4121C6.59134 18.8439 6.64735 17.0939 6.84115 15.1622C6.89448 14.627 6.99316 14.2292 7.13718 13.9687C7.35942 13.5651 7.68035 13.2802 8.09995 13.1139C8.58978 12.9201 9.15606 12.8659 9.7988 12.9512C10.3891 13.0295 10.9309 13.2655 11.4243 13.6593C11.8706 14.0158 12.1648 14.4332 12.3071 14.9115C12.3995 15.2217 12.4626 15.6324 12.4964 16.1436C12.6369 18.2665 12.7925 20.3889 12.9631 22.5109C13.1836 25.2517 13.3058 27.9969 13.3298 30.7465C13.3565 33.8917 13.3965 37.0365 13.4499 40.1808C13.4587 40.692 13.4761 41.1725 13.5019 41.6223C13.5043 41.6668 13.5238 41.7086 13.5564 41.7389C13.589 41.7692 13.632 41.7858 13.6765 41.785C16.0199 41.7459 18.2859 41.689 20.4746 41.6143C20.8204 41.6028 21.2169 41.6334 21.6641 41.7063C22.073 41.7739 22.4348 41.9273 22.7495 42.1664C23.0411 42.3878 23.2051 42.6469 23.2416 42.9438C23.2869 43.3243 23.1176 43.6341 22.7335 43.8732C21.8943 44.3951 20.9747 44.6413 19.9746 44.612C19.771 44.6058 19.7376 44.6382 19.8745 44.7093Z"
    fill="#CDD8D3" />
</svg>
  