<svg width="194" height="46" viewBox="0 0 194 46" fill="none" xmlns="http://www.w3.org/2000/svg">
  <path
    d="M13.8419 14.2957C13.7569 13.1097 14.0799 12.0207 14.7729 10.9647C15.2369 10.2627 15.8949 9.50469 16.6209 8.66969C18.4939 6.51269 20.8139 3.84269 21.3819 0.304688C22.6169 3.01669 22.0179 5.65369 20.6509 8.07869C20.0359 9.16869 19.3549 9.95169 18.7049 10.6987C17.9399 11.5777 17.2189 12.4067 16.7009 13.6257C16.4159 14.2887 16.2539 14.9237 16.1779 15.5447L13.8419 14.2957Z"
    fill="#CDD8D3" />
  <path
    d="M17.8501 16.4413C18.1351 15.3953 18.6281 14.4173 19.2831 13.4683C19.8251 12.6763 20.3331 12.0893 20.7891 11.5623C22.3231 9.78733 23.2751 8.68533 22.9961 2.73633C23.1751 3.11833 23.3521 3.48633 23.5241 3.84133L23.5251 3.84333C25.0211 6.94933 26.0711 9.12733 24.3071 12.1183C23.4351 13.5963 22.7991 14.3313 22.2371 14.9813C21.6041 15.7123 21.0641 16.3373 20.3851 17.7913L17.8501 16.4413Z"
    fill="#CDD8D3" />
  <path
    d="M24.4191 15.5043C23.7311 16.3193 22.6081 17.4433 22.5571 17.5173L28.9121 13.9643C28.7791 12.7803 27.9061 11.3853 26.8331 9.40234C27.0501 12.0163 26.0301 13.5953 24.4191 15.5043Z"
    fill="#CDD8D3" />
  <path
    d="M28.8652 15.1445C28.6942 15.9025 27.7582 17.4795 27.0702 18.2985C24.8962 20.8845 23.7642 21.9875 21.9042 25.8785C21.7992 25.4575 21.6892 25.0605 21.5842 24.6815C21.0652 22.8095 20.7462 21.2505 21.3682 19.9065L28.8652 15.1445Z"
    fill="#CDD8D3" />
  <path
    d="M20.4702 23.911C19.9382 22.354 19.5562 21.052 19.8342 19.405L17.6122 17.957C17.4892 20.38 18.5242 23.209 21.3822 26.851C21.2302 25.949 20.7742 24.801 20.4702 23.911Z"
    fill="#CDD8D3" />
  <path
    d="M16.1311 16.993C16.1691 17.781 16.6561 19.864 17.0921 20.966C15.8481 19.379 14.4881 16.944 14.0991 15.668L16.1311 16.993Z"
    fill="#CDD8D3" />
  <path
    d="M42.3021 28.8356C42.3021 25.2306 35.5981 22.1986 26.5381 21.3496C25.6741 22.3196 24.8101 23.5236 23.9841 25.2986L22.7401 27.6616C22.5031 28.0976 22.0661 28.3836 21.5811 28.4216C21.0881 28.4596 20.6131 28.2436 20.3191 27.8486L19.5211 26.7766C17.8591 24.6546 16.6431 22.9736 15.6841 21.4006C6.89108 22.3156 0.434082 25.2996 0.434082 28.8356C0.434082 33.0986 9.81608 36.5596 21.3731 36.5596C21.9311 36.5596 22.4851 36.5516 23.0331 36.5356L24.7291 31.7346L24.7431 31.7006C25.1171 30.7656 26.0171 30.1536 27.0181 30.1396H27.0251L41.9981 30.1796C42.1521 29.8026 42.3021 29.2286 42.3021 28.8356Z"
    fill="#CDD8D3" />
  <path
    d="M27.6359 36.6637H39.3669L38.8539 37.9647H27.1849L24.5869 45.3757V37.5057L26.4039 32.3647C26.5069 32.1047 26.7589 31.9317 27.0419 31.9277L41.2619 31.9317L40.7359 33.2137H28.8649L28.5009 34.2957H40.3299L39.7679 35.5817H28.0469L27.6359 36.6637Z"
    fill="#CDD8D3" />
  <path
    d="M1.1543 32.2422C2.5053 36.0622 5.8113 40.5492 6.5143 41.2052C8.9423 43.4922 16.7653 45.3752 22.9263 45.3752V38.9362C12.2463 38.9362 3.9083 35.4772 1.1543 32.2422Z"
    fill="#CDD8D3" />
  <path
    d="M55.9652 39.0822C54.9862 39.0822 54.0832 38.8942 53.2542 38.5172C52.4452 38.1222 51.7392 37.5762 51.1372 36.8802C50.5532 36.1832 50.1022 35.3832 49.7822 34.4802C49.4622 33.5762 49.3022 32.6162 49.3022 31.6002C49.3022 30.5272 49.4712 29.5292 49.8102 28.6072C50.1492 27.6852 50.6192 26.8762 51.2222 26.1792C51.8432 25.4642 52.5672 24.9182 53.3962 24.5422C54.2432 24.1462 55.1742 23.9492 56.1912 23.9492C57.3392 23.9492 58.3462 24.2122 59.2122 24.7392C60.0782 25.2472 60.7932 25.9342 61.3572 26.8002V24.2032H64.6612V38.2912C64.6612 39.7602 64.3032 41.0112 63.5882 42.0472C62.8922 43.1002 61.9222 43.9012 60.6802 44.4462C59.4382 45.0112 58.0262 45.2932 56.4452 45.2932C54.8452 45.2932 53.4902 45.0202 52.3792 44.4752C51.2692 43.9482 50.3182 43.1952 49.5282 42.2162L51.5892 40.2112C52.1532 40.9082 52.8592 41.4542 53.7062 41.8492C54.5722 42.2442 55.4852 42.4422 56.4452 42.4422C57.2542 42.4422 57.9882 42.2912 58.6472 41.9902C59.3252 41.7082 59.8612 41.2562 60.2562 40.6352C60.6712 40.0322 60.8782 39.2512 60.8782 38.2912V36.4282C60.3882 37.2752 59.6922 37.9342 58.7882 38.4042C57.9042 38.8562 56.9632 39.0822 55.9652 39.0822ZM57.2352 36.0612C57.6502 36.0612 58.0452 35.9952 58.4212 35.8632C58.7982 35.7322 59.1462 35.5532 59.4662 35.3272C59.7862 35.1012 60.0682 34.8372 60.3132 34.5362C60.5582 34.2162 60.7462 33.8962 60.8782 33.5762V30.0472C60.6522 29.4642 60.3322 28.9552 59.9182 28.5222C59.5222 28.0902 59.0712 27.7602 58.5622 27.5342C58.0732 27.2902 57.5552 27.1672 57.0102 27.1672C56.4262 27.1672 55.8992 27.2902 55.4282 27.5342C54.9582 27.7792 54.5532 28.1272 54.2142 28.5792C53.8762 29.0122 53.6122 29.5012 53.4242 30.0472C53.2542 30.5742 53.1702 31.1292 53.1702 31.7132C53.1702 32.3152 53.2732 32.8802 53.4802 33.4072C53.6872 33.9342 53.9702 34.3952 54.3272 34.7902C54.7042 35.1862 55.1372 35.4962 55.6262 35.7222C56.1342 35.9482 56.6712 36.0612 57.2352 36.0612Z"
    fill="#CDD8D3" />
  <path
    d="M75.7509 27.4789C74.6029 27.4789 73.5769 27.7049 72.6729 28.1559C71.7699 28.5889 71.1209 29.2199 70.7249 30.0479V38.9979H66.9419V24.2039H70.4149V27.3659C70.9419 26.3489 71.6099 25.5499 72.4189 24.9659C73.2289 24.3829 74.0849 24.0629 74.9889 24.0059H75.4679C75.5809 24.0059 75.6759 24.0149 75.7509 24.0339V27.4789Z"
    fill="#CDD8D3" />
  <path
    d="M83.371 39.2802C82.166 39.2802 81.084 39.0822 80.124 38.6872C79.164 38.2732 78.345 37.7082 77.667 36.9932C77.009 36.2772 76.5 35.4592 76.143 34.5362C75.785 33.6142 75.606 32.6452 75.606 31.6282C75.606 30.5932 75.785 29.6142 76.143 28.6922C76.5 27.7702 77.009 26.9512 77.667 26.2352C78.345 25.5202 79.164 24.9652 80.124 24.5702C81.084 24.1562 82.166 23.9492 83.371 23.9492C84.575 23.9492 85.648 24.1562 86.589 24.5702C87.549 24.9652 88.368 25.5202 89.046 26.2352C89.723 26.9512 90.232 27.7702 90.57 28.6922C90.928 29.6142 91.107 30.5932 91.107 31.6282C91.107 32.6452 90.928 33.6142 90.57 34.5362C90.232 35.4592 89.723 36.2772 89.046 36.9932C88.387 37.7082 87.578 38.2732 86.618 38.6872C85.658 39.0822 84.575 39.2802 83.371 39.2802ZM79.503 31.6282C79.503 32.4942 79.672 33.2662 80.011 33.9432C80.35 34.6022 80.811 35.1202 81.394 35.4962C81.978 35.8732 82.637 36.0612 83.371 36.0612C84.086 36.0612 84.735 35.8732 85.319 35.4962C85.902 35.1012 86.364 34.5742 86.702 33.9152C87.06 33.2382 87.239 32.4662 87.239 31.6002C87.239 30.7532 87.06 29.9912 86.702 29.3132C86.364 28.6352 85.902 28.1082 85.319 27.7322C84.735 27.3552 84.086 27.1672 83.371 27.1672C82.637 27.1672 81.978 27.3652 81.394 27.7602C80.811 28.1372 80.35 28.6642 80.011 29.3412C79.672 30.0002 79.503 30.7622 79.503 31.6282Z"
    fill="#CDD8D3" />
  <path
    d="M110.387 24.2031H113.972L107.789 38.9971H104.627L102.142 32.6451L99.7141 38.9971H96.5241L90.3691 24.2031H93.9261L98.3311 35.3831L100.053 30.5551L97.4841 24.2311H100.618L102.142 28.7481L103.695 24.2311H106.829L104.26 30.5551L106.01 35.3831L110.387 24.2031Z"
    fill="#CDD8D3" />
  <path
    d="M125.238 37.5401C124.931 37.6671 124.56 37.8121 124.125 37.9751C123.691 38.1381 123.22 38.2641 122.714 38.3551C122.225 38.4631 121.727 38.5181 121.221 38.5181C120.551 38.5181 119.936 38.4001 119.374 38.1651C118.813 37.9301 118.361 37.5591 118.017 37.0521C117.691 36.5271 117.528 35.8481 117.528 35.0161V26.8441H115.655V24.0481H117.528V19.4331H121.166V24.0481H124.832V26.8441H121.166V33.7941C121.184 34.2831 121.32 34.6361 121.573 34.8531C121.827 35.0701 122.144 35.1791 122.524 35.1791C122.904 35.1791 123.275 35.1151 123.637 34.9891C123.999 34.8621 124.288 34.7531 124.505 34.6631L125.238 37.5401ZM138.454 38.2731H134.816V30.2921C134.816 29.1881 134.599 28.3641 134.164 27.8211C133.748 27.2791 133.169 27.0071 132.427 27.0071C131.993 27.0071 131.531 27.1341 131.042 27.3871C130.554 27.6401 130.11 27.9931 129.712 28.4461C129.332 28.8801 129.051 29.3871 128.871 29.9661V38.2731H125.233V18.4551H128.871V26.1951C129.483 25.5661 130.11 25.0701 131.015 24.5641C131.92 24.0571 132.907 23.8041 133.974 23.8041C134.897 23.8041 135.648 23.9661 136.228 24.2921C136.807 24.6001 137.259 25.0251 137.585 25.5681C137.911 26.0931 138.137 26.6901 138.264 27.3601C138.39 28.0111 138.454 28.6901 138.454 29.3961V38.2731ZM146.313 38.5451C145.173 38.5451 144.142 38.3551 143.219 37.9751C142.296 37.5771 141.508 37.0431 140.857 36.3731C140.205 35.6851 139.698 34.9071 139.336 34.0381C138.993 33.1521 138.821 32.2191 138.821 31.2421C138.821 29.8851 139.119 28.6451 139.717 27.5231C140.332 26.4011 141.201 25.5051 142.323 24.8351C143.463 24.1471 144.802 23.8041 146.341 23.8041C147.897 23.8041 149.227 24.1471 150.331 24.8351C151.435 25.5051 152.277 26.4011 152.856 27.5231C153.453 28.6271 153.752 29.8211 153.752 31.1061C153.752 31.3241 153.743 31.5501 153.725 31.7851C153.707 32.0021 153.689 32.1831 153.671 32.3281H142.676C142.748 33.0521 142.956 33.6851 143.3 34.2281C143.662 34.7711 144.114 35.1881 144.657 35.4771C145.219 35.7491 145.816 35.8841 146.449 35.8841C147.173 35.8841 147.852 35.7121 148.485 35.3691C149.137 35.0071 149.58 34.5361 149.816 33.9571L152.938 34.8261C152.594 35.5501 152.096 36.1921 151.444 36.7531C150.811 37.3141 150.06 37.7581 149.191 38.0831C148.322 38.3911 147.363 38.5451 146.313 38.5451ZM142.594 29.7061H150.033C149.96 28.9821 149.752 28.6721 149.408 28.1471C149.083 27.6041 148.648 27.1881 148.105 26.8981C147.562 26.5911 146.956 26.4371 146.286 26.4371C145.635 26.4371 145.038 26.5911 144.495 26.8981C143.97 27.1881 143.535 27.6041 143.191 28.1471C142.866 28.6721 142.667 28.9821 142.594 29.7061Z"
    stroke="#CDD8D3" />
  <path
    d="M164.738 39.2802C163.59 39.2802 162.574 39.0262 161.689 38.5182C160.823 37.9912 160.146 37.2852 159.656 36.4002V45.0122H155.873V24.2032H159.176V26.7442C159.741 25.8782 160.456 25.2012 161.322 24.7112C162.188 24.2032 163.176 23.9492 164.287 23.9492C165.284 23.9492 166.197 24.1472 167.025 24.5422C167.872 24.9372 168.606 25.4932 169.228 26.2082C169.849 26.9042 170.329 27.7142 170.668 28.6362C171.025 29.5392 171.204 30.5182 171.204 31.5722C171.204 33.0032 170.922 34.3022 170.357 35.4692C169.811 36.6362 169.049 37.5672 168.07 38.2642C167.11 38.9412 166 39.2802 164.738 39.2802ZM163.468 36.0612C164.051 36.0612 164.578 35.9392 165.049 35.6942C165.52 35.4502 165.924 35.1202 166.263 34.7062C166.621 34.2732 166.884 33.7932 167.054 33.2662C167.242 32.7202 167.336 32.1562 167.336 31.5722C167.336 30.9512 167.232 30.3772 167.025 29.8502C166.837 29.3232 166.555 28.8622 166.178 28.4672C165.802 28.0522 165.36 27.7322 164.851 27.5072C164.362 27.2812 163.825 27.1682 163.242 27.1682C162.884 27.1682 162.517 27.2342 162.141 27.3652C161.783 27.4782 161.435 27.6482 161.096 27.8742C160.757 28.1002 160.456 28.3632 160.193 28.6642C159.948 28.9652 159.769 29.2952 159.656 29.6522V33.1252C159.882 33.6712 160.183 34.1702 160.56 34.6222C160.955 35.0732 161.407 35.4312 161.915 35.6942C162.423 35.9392 162.941 36.0612 163.468 36.0612Z"
    fill="#CDD8D3" />
  <path
    d="M172.638 38.9977V24.2027H176.421V38.9977H172.638ZM172.638 22.1417V18.3867H176.421V22.1417H172.638Z"
    fill="#CDD8D3" />
  <path
    d="M185.566 39.2802C184.38 39.2802 183.307 39.0822 182.347 38.6872C181.387 38.2732 180.568 37.7182 179.891 37.0212C179.213 36.3062 178.686 35.4972 178.31 34.5932C177.952 33.6712 177.773 32.7022 177.773 31.6852C177.773 30.2742 178.084 28.9842 178.705 27.8172C179.345 26.6502 180.248 25.7182 181.415 25.0222C182.601 24.3072 183.994 23.9492 185.594 23.9492C187.213 23.9492 188.596 24.3072 189.744 25.0222C190.892 25.7182 191.768 26.6502 192.37 27.8172C192.991 28.9652 193.302 30.2082 193.302 31.5442C193.302 31.7702 193.292 32.0052 193.274 32.2502C193.255 32.4762 193.236 32.6642 193.217 32.8152H181.782C181.858 33.5672 182.074 34.2262 182.432 34.7912C182.808 35.3562 183.279 35.7892 183.843 36.0902C184.427 36.3722 185.048 36.5132 185.707 36.5132C186.46 36.5132 187.166 36.3342 187.824 35.9772C188.502 35.6002 188.963 35.1112 189.208 34.5092L192.455 35.4122C192.097 36.1652 191.58 36.8332 190.902 37.4172C190.243 38.0002 189.462 38.4612 188.559 38.8002C187.655 39.1202 186.657 39.2802 185.566 39.2802ZM181.698 30.4152H189.434C189.358 29.6622 189.142 29.0122 188.784 28.4672C188.446 27.9022 187.994 27.4692 187.429 27.1682C186.864 26.8482 186.234 26.6882 185.537 26.6882C184.86 26.6882 184.239 26.8482 183.674 27.1682C183.128 27.4692 182.676 27.9022 182.319 28.4672C181.98 29.0122 181.773 29.6622 181.698 30.4152Z"
    fill="#CDD8D3" />
</svg>
  