<svg xmlns="http://www.w3.org/2000/svg" fill="none" viewBox="4 3 66 66">
  <path
    fill="#CDD8D3"
    d="M21.4 4.15a.82.82 0 1 1 0 1.64.82.82 0 0 1 0-1.64Zm3.9 0a.82.82 0 1 1 0 1.64.82.82 0 0 1 0-1.64Zm7.78 0a.82.82 0 1 1 0 1.64.82.82 0 0 1 0-1.64Zm3.9 0a.82.82 0 1 1 0 1.64.82.82 0 0 1 0-1.64Zm3.89 0a.82.82 0 1 1 0 1.64.82.82 0 0 1 0-1.64Zm4.75 0H44.6a.82.82 0 0 0 0 1.64h1.12V4.15h-.11Zm1.24 0h-1.13v1.64h1.13a.82.82 0 0 0 0-1.64Zm4.59 0h-1.01a.82.82 0 0 0 0 1.64h1.13V4.15h-.12Z"
  />
  <path
    fill="#CDD8D3"
    d="M52.7 4.15h-1.14v1.64h1.12a.82.82 0 0 0 0-1.64ZM22.27 6.1h-1.02a.82.82 0 1 0 0 1.64h1.14V6.09h-.11Z"
  />
  <path fill="#CDD8D3" d="M23.35 6.1h-.97v1.64h1.95V6.09h-.98Z" />
  <path
    fill="#CDD8D3"
    d="M25.45 6.1h-1.12v1.64h1.12a.82.82 0 0 0 0-1.65Zm7.63 0a.82.82 0 1 1 0 1.64.82.82 0 0 1 0-1.65Zm9.73 0a.82.82 0 1 1 0 1.64.82.82 0 0 1 0-1.65Zm4.75 0h-1.01a.82.82 0 1 0 0 1.64h1.13V6.09h-.12Z"
  />
  <path
    fill="#CDD8D3"
    d="M48.8 6.1h-1.12v1.64h1.12a.82.82 0 0 0 0-1.65Zm3.74 0a.82.82 0 1 1 0 1.64.82.82 0 0 1 0-1.65ZM21.4 8.04a.82.82 0 1 1 0 1.65.82.82 0 0 1 0-1.65Zm5.85 0a.82.82 0 1 1 0 1.65.82.82 0 0 1 0-1.65Zm4.75 0h-1.02a.82.82 0 1 0 0 1.65h1.13V8.04H32Zm1.08 0h-.97v1.65h1.95V8.04h-.98Zm1.95 0h-.97v1.65H36V8.04h-.97Zm1.94 0H36v1.65h1.95V8.04h-.98Zm2.1 0h-1.12v1.65h1.12a.82.82 0 0 0 0-1.65Zm8.49 0h-1.01a.82.82 0 1 0 0 1.65h1.13V8.04h-.12Z"
  />
  <path
    fill="#CDD8D3"
    d="M48.65 8.04h-.97v1.65h1.94V8.04h-.97Zm1.95 0h-.98v1.65h1.95V8.04h-.97Z"
  />
  <path
    fill="#CDD8D3"
    d="M52.7 8.04h-1.14v1.65h1.12a.82.82 0 0 0 0-1.65ZM23.35 9.98a.82.82 0 1 1 0 1.65.82.82 0 0 1 0-1.65Zm6.7 0h-1.01a.82.82 0 1 0 0 1.65h1.13V9.98h-.12Z"
  />
  <path
    fill="#CDD8D3"
    d="M31.14 9.98h-.98v1.65h1.95V9.98h-.97Zm1.94 0h-.97v1.65h1.95V9.98h-.98Zm2.1 0h-1.12v1.65h1.12a.82.82 0 0 0 0-1.65Zm4.6 0h-1.01a.82.82 0 1 0 0 1.65h1.13V9.98h-.12Z"
  />
  <path
    fill="#CDD8D3"
    d="M40.87 9.98h-.98v1.65h1.95V9.98h-.97Zm2.09 0h-1.12v1.65h1.12a.82.82 0 0 0 0-1.65Zm6.54 0h-1a.82.82 0 1 0 0 1.65h1.12V9.98h-.11Zm1.1 0h-.98v1.65h1.95V9.98h-.97Z"
  />
  <path
    fill="#CDD8D3"
    d="M52.7 9.98h-1.14v1.65h1.12a.82.82 0 1 0 0-1.65Zm-26.54 1.95h-1.01a.82.82 0 0 0 0 1.65h1.12v-1.65h-.11Zm1.24 0h-1.13v1.65h1.13a.82.82 0 0 0 0-1.65Zm5.68 0a.82.82 0 1 1 0 1.65.82.82 0 0 1 0-1.65Zm8.64 0h-1.01a.82.82 0 1 0 0 1.65h1.13v-1.65h-.12Zm1.24 0h-1.12v1.65h1.12a.82.82 0 0 0 0-1.65Zm4.6 0h-1.01a.82.82 0 1 0 0 1.65h1.13v-1.65h-.12Z"
  />
  <path
    fill="#CDD8D3"
    d="M48.8 11.93h-1.12v1.65h1.12a.82.82 0 0 0 0-1.65Zm-26.53 1.95h-1.02a.82.82 0 1 0 0 1.64h1.14v-1.64h-.11Z"
  />
  <path
    fill="#CDD8D3"
    d="M23.5 13.88h-1.12v1.64h1.12a.82.82 0 0 0 0-1.64Zm10.44 0h-1.01a.82.82 0 1 0 0 1.64h1.13v-1.64h-.12Zm1.24 0h-1.12v1.64h1.12a.82.82 0 0 0 0-1.64Zm3.74 0a.82.82 0 1 1 0 1.64.82.82 0 0 1 0-1.64Zm4.75 0h-1.01a.82.82 0 1 0 0 1.64h1.13v-1.64h-.12Z"
  />
  <path
    fill="#CDD8D3"
    d="M44.91 13.88h-1.12v1.64h1.12a.82.82 0 1 0 0-1.64Zm4.59 0h-1a.82.82 0 1 0 0 1.64h1.12v-1.64h-.11Zm1.1 0h-.98v1.64h1.95v-1.64h-.97Z"
  />
  <path
    fill="#CDD8D3"
    d="M52.7 13.88h-1.14v1.64h1.12a.82.82 0 1 0 0-1.64Zm-31.3 1.94a.82.82 0 1 1 0 1.65.82.82 0 0 1 0-1.65Zm3.9 0a.82.82 0 1 1 0 1.65.82.82 0 0 1 0-1.65Zm3.9 0a.82.82 0 1 1 0 1.65.82.82 0 0 1 0-1.65Zm3.88 0a.82.82 0 1 1 0 1.65.82.82 0 0 1 0-1.65Zm3.9 0a.82.82 0 1 1 0 1.65.82.82 0 0 1 0-1.65Zm3.89 0a.82.82 0 1 1 0 1.65.82.82 0 0 1 0-1.65Zm3.89 0a.82.82 0 1 1 0 1.65.82.82 0 0 1 0-1.65Zm3.89 0a.82.82 0 1 1 0 1.65.82.82 0 0 1 0-1.65Zm3.89 0a.82.82 0 1 1 0 1.65.82.82 0 0 1 0-1.65ZM21.4 17.77a.82.82 0 1 1 0 1.65.82.82 0 0 1 0-1.65Zm3.9 0a.82.82 0 1 1 0 1.65.82.82 0 0 1 0-1.65Zm5.84 0a.82.82 0 1 1 0 1.65.82.82 0 0 1 0-1.65Zm3.89 0a.82.82 0 1 1 0 1.65.82.82 0 0 1 0-1.65Zm6.69 0h-1.01a.82.82 0 1 0 0 1.65h1.13v-1.65h-.12Zm1.09 0h-.97v1.65h1.95v-1.65h-.98Zm1.95 0h-.97v1.65h1.94v-1.65h-.97Zm1.94 0h-.97v1.65h1.95v-1.65h-.97Zm1.95 0h-.97v1.65h1.94v-1.65h-.97Zm2.1 0h-1.13v1.65h1.13a.82.82 0 0 0 0-1.65Zm-40.16 1.94H9.58a.82.82 0 0 0 0 1.65h1.12v-1.65h-.11Zm1.09 0h-.97v1.65h1.94v-1.65h-.97Zm2.09 0h-1.12v1.65h1.12a.82.82 0 1 0 0-1.65Zm3.75 0a.82.82 0 1 1 0 1.65.82.82 0 0 1 0-1.65Zm4.75 0h-1.02a.82.82 0 1 0 0 1.65h1.14v-1.65h-.11Z"
  />
  <path
    fill="#CDD8D3"
    d="M23.35 19.71h-.97v1.65h1.95v-1.65h-.98Zm1.95 0h-.97v1.65h1.94v-1.65h-.97Z"
  />
  <path
    fill="#CDD8D3"
    d="M27.25 19.71h-.98v1.65h1.95v-1.65h-.97Zm2.09 0h-1.12v1.65h1.12a.82.82 0 0 0 0-1.65Zm4.6 0h-1.01a.82.82 0 1 0 0 1.65h1.13v-1.65h-.12Zm1.24 0h-1.12v1.65h1.12a.82.82 0 0 0 0-1.65Zm9.58 0a.82.82 0 1 1 0 1.65.82.82 0 0 1 0-1.65Zm4.74 0h-1a.82.82 0 1 0 0 1.65h1.12v-1.65h-.11Zm1.1 0h-.98v1.65h1.95v-1.65h-.97Z"
  />
  <path
    fill="#CDD8D3"
    d="M52.54 19.71h-.97v1.65h1.95v-1.65h-.98Zm1.95 0h-.97v1.65h1.94v-1.65h-.97Zm1.95 0h-.98v1.65h1.95v-1.65h-.97Z"
  />
  <path
    fill="#CDD8D3"
    d="M58.53 19.71h-1.12v1.65h1.12a.82.82 0 1 0 0-1.65Zm6.55 0h-1.02a.82.82 0 0 0 0 1.65h1.14v-1.65h-.11Z"
  />
  <path
    fill="#CDD8D3"
    d="M66.17 19.71h-.98v1.65h1.95v-1.65h-.97Zm2.09 0h-1.12v1.65h1.12a.82.82 0 1 0 0-1.65ZM8.64 21.66H7.63a.82.82 0 1 0 0 1.65h1.13v-1.65h-.12Zm1.09 0h-.97v1.65h1.94v-1.65h-.97Zm2.1 0H10.7v1.65h1.12a.82.82 0 0 0 0-1.65Zm3.74 0a.82.82 0 1 1 0 1.65.82.82 0 0 1 0-1.65Zm7.78 0a.82.82 0 1 1 0 1.65.82.82 0 0 1 0-1.65Zm7.79 0a.82.82 0 1 1 0 1.65.82.82 0 0 1 0-1.65Zm6.69 0h-1.01a.82.82 0 1 0 0 1.65h1.13v-1.65h-.12Zm1.09 0h-.97v1.65h1.95v-1.65h-.98Z"
  />
  <path
    fill="#CDD8D3"
    d="M41.02 21.66h-1.13v1.65h1.13a.82.82 0 1 0 0-1.65Zm5.68 0a.82.82 0 1 1 0 1.65.82.82 0 0 1 0-1.65Zm3.9 0a.82.82 0 1 1 0 1.65.82.82 0 0 1 0-1.65Zm4.74 0h-1.01a.82.82 0 1 0 0 1.65h1.13v-1.65h-.12Z"
  />
  <path
    fill="#CDD8D3"
    d="M56.59 21.66h-1.13v1.65h1.13a.82.82 0 1 0 0-1.65Zm6.54 0h-1.01a.82.82 0 1 0 0 1.65h1.13v-1.65h-.12Z"
  />
  <path
    fill="#CDD8D3"
    d="M64.22 21.66h-.97v1.65h1.94v-1.65h-.97Zm1.95 0h-.98v1.65h1.95v-1.65h-.97Zm2.09 0h-1.12v1.65h1.12a.82.82 0 1 0 0-1.65ZM5.84 23.6a.82.82 0 1 1 0 1.65.82.82 0 0 1 0-1.64Zm3.89 0a.82.82 0 1 1 0 1.65.82.82 0 0 1 0-1.64Zm7.79 0a.82.82 0 1 1 0 1.65.82.82 0 0 1 0-1.64Zm3.88 0a.82.82 0 1 1 0 1.65.82.82 0 0 1 0-1.64Zm7.8 0a.82.82 0 1 1 0 1.65.82.82 0 0 1 0-1.64Zm6.69 0h-1.01a.82.82 0 1 0 0 1.65H36v-1.64h-.11Zm1.23 0H36v1.65h1.12a.82.82 0 0 0 0-1.64Zm4.6 0h-1.01a.82.82 0 1 0 0 1.65h1.13v-1.64h-.12Zm1.24 0h-1.12v1.65h1.12a.82.82 0 0 0 0-1.64Zm3.74 0a.82.82 0 1 1 0 1.65.82.82 0 0 1 0-1.64Zm7.79 0a.82.82 0 1 1 0 1.65.82.82 0 0 1 0-1.64Zm3.89 0a.82.82 0 1 1 0 1.65.82.82 0 0 1 0-1.64Zm4.75 0h-1.01a.82.82 0 0 0 0 1.65h1.13v-1.64h-.12Z"
  />
  <path
    fill="#CDD8D3"
    d="M64.22 23.6h-.97v1.65h1.94v-1.64h-.97Zm2.1 0h-1.13v1.65h1.13a.82.82 0 0 0 0-1.64Zm-55.73 1.95H9.58a.82.82 0 0 0 0 1.65h1.12v-1.65h-.11Zm1.24 0H10.7v1.65h1.12a.82.82 0 0 0 0-1.65Zm3.74 0a.82.82 0 1 1 0 1.65.82.82 0 0 1 0-1.65Zm12.53 0h-1a.82.82 0 1 0 0 1.65h1.13v-1.65h-.12Z"
  />
  <path
    fill="#CDD8D3"
    d="M29.34 25.55h-1.12v1.65h1.12a.82.82 0 0 0 0-1.65Zm5.69 0a.82.82 0 1 1 0 1.65.82.82 0 0 1 0-1.65Zm3.89 0a.82.82 0 1 1 0 1.65.82.82 0 0 1 0-1.65Zm6.7 0H44.6a.82.82 0 0 0 0 1.65h1.12v-1.65h-.11Zm1.08 0h-.97v1.65h1.95v-1.65h-.97Z"
  />
  <path
    fill="#CDD8D3"
    d="M48.65 25.55h-.97v1.65h1.94v-1.65h-.97Zm2.1 0h-1.13v1.65h1.13a.82.82 0 0 0 0-1.65Zm4.59 0h-1.01a.82.82 0 1 0 0 1.65h1.13v-1.65h-.12Z"
  />
  <path
    fill="#CDD8D3"
    d="M56.59 25.55h-1.13v1.65h1.13a.82.82 0 0 0 0-1.65Zm8.49 0h-1.02a.82.82 0 0 0 0 1.65h1.14v-1.65h-.11Z"
  />
  <path
    fill="#CDD8D3"
    d="M66.17 25.55h-.98v1.65h1.95v-1.65h-.97Zm2.09 0h-1.12v1.65h1.12a.82.82 0 0 0 0-1.65ZM6.7 27.5H5.69a.82.82 0 0 0 0 1.64h1.12V27.5H6.7Z"
  />
  <path
    fill="#CDD8D3"
    d="M7.79 27.5H6.8v1.64h1.95V27.5h-.97Zm2.09 0H8.76v1.64h1.12a.82.82 0 1 0 0-1.64Zm4.6 0h-1.01a.82.82 0 0 0 0 1.64h1.13V27.5h-.12Zm1.09 0h-.97v1.64h1.94V27.5h-.97Zm2.1 0h-1.13v1.64h1.13a.82.82 0 0 0 0-1.64Zm6.54 0H23.2a.82.82 0 1 0 0 1.64h1.13V27.5h-.12Zm1.09 0h-.97v1.64h1.94V27.5h-.97Zm1.95 0h-.98v1.64h1.95V27.5h-.97Zm1.95 0h-.98v1.64h1.95V27.5h-.98Z"
  />
  <path
    fill="#CDD8D3"
    d="M31.14 27.5h-.98v1.64h1.95V27.5h-.97Zm2.09 0h-1.12v1.64h1.12a.82.82 0 1 0 0-1.64Zm4.6 0h-1.01a.82.82 0 0 0 0 1.64h1.13V27.5h-.12Zm1.24 0h-1.12v1.64h1.12a.82.82 0 1 0 0-1.64Zm3.74 0a.82.82 0 1 1 0 1.64.82.82 0 0 1 0-1.64Zm3.89 0a.82.82 0 1 1 0 1.64.82.82 0 0 1 0-1.64Zm4.75 0h-1.01a.82.82 0 0 0 0 1.64h1.13V27.5h-.12Z"
  />
  <path
    fill="#CDD8D3"
    d="M52.54 27.5h-.97v1.64h1.95V27.5h-.98Zm2.1 0h-1.12v1.64h1.12a.82.82 0 1 0 0-1.64Zm3.74 0a.82.82 0 1 1 0 1.64.82.82 0 0 1 0-1.64Zm7.78 0a.82.82 0 1 1 0 1.64.82.82 0 0 1 0-1.64ZM5.84 29.45a.82.82 0 1 1 0 1.64.82.82 0 0 1 0-1.64Zm3.89 0a.82.82 0 1 1 0 1.64.82.82 0 0 1 0-1.64Zm10.59 0H19.3a.82.82 0 1 0 0 1.64h1.13v-1.64h-.12Zm1.08 0h-.96v1.64h1.94v-1.64h-.97Zm2.1 0h-1.12v1.64h1.12a.82.82 0 0 0 0-1.64Zm6.55 0h-1.01a.82.82 0 1 0 0 1.64h1.12v-1.64h-.11Zm1.09 0h-.98v1.64h1.95v-1.64h-.97Zm1.94 0h-.97v1.64h1.95v-1.64h-.98Zm2.1 0h-1.12v1.64h1.12a.82.82 0 0 0 0-1.64Zm3.74 0a.82.82 0 1 1 0 1.64.82.82 0 0 1 0-1.64Zm3.89 0a.82.82 0 1 1 0 1.64.82.82 0 0 1 0-1.64Zm6.69 0h-1a.82.82 0 1 0 0 1.64h1.12v-1.64h-.11Zm1.25 0h-1.13v1.64h1.13a.82.82 0 0 0 0-1.64Zm4.59 0h-1.01a.82.82 0 1 0 0 1.64h1.13v-1.64h-.12Z"
  />
  <path
    fill="#CDD8D3"
    d="M56.44 29.45h-.98v1.64h1.95v-1.64h-.97Zm2.09 0h-1.12v1.64h1.12a.82.82 0 0 0 0-1.64Zm4.6 0h-1.01a.82.82 0 0 0 0 1.64h1.13v-1.64h-.12Zm1.24 0h-1.12v1.64h1.12a.82.82 0 0 0 0-1.64Zm3.74 0a.82.82 0 1 1 0 1.64.82.82 0 0 1 0-1.64ZM16.43 31.4H15.4a.82.82 0 0 0 0 1.64h1.15v-1.65h-.11Z"
  />
  <path
    fill="#CDD8D3"
    d="M17.67 31.4h-1.13v1.64h1.13a.82.82 0 0 0 0-1.65Zm7.63 0a.82.82 0 1 1 0 1.64.82.82 0 0 1 0-1.65Zm4.75 0h-1.01a.82.82 0 0 0 0 1.64h1.12v-1.65h-.11Zm1.24 0h-1.13v1.64h1.13a.82.82 0 0 0 0-1.65Zm4.6 0h-1.01a.82.82 0 1 0 0 1.64H36v-1.65h-.11Zm1.23 0H36v1.64h1.12a.82.82 0 0 0 0-1.65Zm3.75 0a.82.82 0 1 1 0 1.64.82.82 0 0 1 0-1.65Zm7.78 0a.82.82 0 1 1 0 1.64.82.82 0 0 1 0-1.65Zm3.89 0a.82.82 0 1 1 0 1.64.82.82 0 0 1 0-1.65Zm4.76 0h-1.02a.82.82 0 0 0 0 1.64h1.13v-1.65h-.12Zm1.23 0h-1.12v1.64h1.12a.82.82 0 0 0 0-1.65Zm4.6 0h-1.01a.82.82 0 0 0 0 1.64h1.13v-1.65h-.12Zm1.09 0h-.97v1.64h1.94v-1.65h-.97Zm2.1 0h-1.13v1.64h1.13a.82.82 0 0 0 0-1.65ZM7.79 33.34a.82.82 0 1 1 0 1.64.82.82 0 0 1 0-1.64Zm5.83 0a.82.82 0 1 1 0 1.64.82.82 0 0 1 0-1.64Zm6.7 0H19.3a.82.82 0 1 0 0 1.64h1.12v-1.64h-.11Zm1.08 0h-.96v1.64h1.94v-1.64h-.97Zm1.95 0h-.97v1.64h1.95v-1.64h-.98Zm1.95 0h-.97v1.64h1.94v-1.64h-.97Zm2.1 0h-1.13v1.64h1.13a.82.82 0 0 0 0-1.64Zm3.74 0a.82.82 0 1 1 0 1.64.82.82 0 0 1 0-1.64Zm6.69 0h-1.01a.82.82 0 1 0 0 1.64h1.13v-1.64h-.12Zm1.24 0h-1.12v1.64h1.12a.82.82 0 0 0 0-1.64Zm6.55 0H44.6a.82.82 0 1 0 0 1.64h1.12v-1.64h-.11Zm1.08 0h-.97v1.64h1.95v-1.64h-.97Zm2.1 0h-1.12v1.64h1.12a.82.82 0 0 0 0-1.64Zm4.6 0h-1.01a.82.82 0 1 0 0 1.64h1.13v-1.64h-.12Zm1.24 0h-1.12v1.64h1.12a.82.82 0 0 0 0-1.64Zm4.6 0h-1.01a.82.82 0 1 0 0 1.64h1.12v-1.64h-.11Zm1.09 0h-.98v1.64h1.95v-1.64h-.97Zm1.94 0h-.97v1.64h1.95v-1.64h-.98Z"
  />
  <path
    fill="#CDD8D3"
    d="M64.22 33.34h-.97v1.64h1.94v-1.64h-.97Zm2.1 0h-1.13v1.64h1.13a.82.82 0 0 0 0-1.64ZM8.64 35.28H7.63a.82.82 0 1 0 0 1.65h1.13v-1.65h-.12Zm1.24 0H8.76v1.65h1.12a.82.82 0 0 0 0-1.65Zm3.74 0a.82.82 0 1 1 0 1.65.82.82 0 0 1 0-1.65Zm3.9 0a.82.82 0 1 1 0 1.65.82.82 0 0 1 0-1.65Zm4.75 0h-1.02a.82.82 0 1 0 0 1.65h1.14v-1.65h-.11Z"
  />
  <path fill="#CDD8D3" d="M23.35 35.28h-.97v1.65h1.95v-1.65h-.98Z" />
  <path
    fill="#CDD8D3"
    d="M25.45 35.28h-1.12v1.65h1.12a.82.82 0 0 0 0-1.65Zm6.55 0h-1.02a.82.82 0 1 0 0 1.65h1.13v-1.65H32Zm1.23 0h-1.12v1.65h1.12a.82.82 0 0 0 0-1.65Zm4.6 0h-1.01a.82.82 0 1 0 0 1.65h1.13v-1.65h-.12Zm1.09 0h-.97v1.65h1.95v-1.65h-.98Z"
  />
  <path
    fill="#CDD8D3"
    d="M40.87 35.28h-.98v1.65h1.95v-1.65h-.97Zm1.94 0h-.97v1.65h1.95v-1.65h-.98Zm2.1 0h-1.12v1.65h1.12a.82.82 0 0 0 0-1.65Zm5.69 0a.82.82 0 1 1 0 1.65.82.82 0 0 1 0-1.65Zm3.89 0a.82.82 0 1 1 0 1.65.82.82 0 0 1 0-1.65Zm6.69 0h-1.01a.82.82 0 1 0 0 1.65h1.13v-1.65h-.12Zm1.24 0H61.3v1.65h1.12a.82.82 0 0 0 0-1.65Zm4.6 0h-1.01a.82.82 0 1 0 0 1.65h1.13v-1.65h-.12Zm1.24 0h-1.12v1.65h1.12a.82.82 0 0 0 0-1.65ZM6.7 37.23H5.69a.82.82 0 0 0 0 1.64h1.12v-1.64H6.7Z"
  />
  <path
    fill="#CDD8D3"
    d="M7.94 37.23H6.8v1.64h1.13a.82.82 0 0 0 0-1.64Zm4.59 0h-1.01a.82.82 0 0 0 0 1.64h1.13v-1.64h-.12Zm1.24 0h-1.12v1.64h1.12a.82.82 0 0 0 0-1.64Zm8.5 0h-1.02a.82.82 0 1 0 0 1.64h1.14v-1.64h-.11Z"
  />
  <path fill="#CDD8D3" d="M23.35 37.23h-.97v1.64h1.95v-1.64h-.98Z" />
  <path
    fill="#CDD8D3"
    d="M25.45 37.23h-1.12v1.64h1.12a.82.82 0 0 0 0-1.64Zm4.6 0h-1.01a.82.82 0 0 0 0 1.64h1.12v-1.64h-.11Zm1.09 0h-.98v1.64h1.95v-1.64h-.97Zm1.94 0h-.97v1.64h1.95v-1.64h-.98Zm1.95 0h-.97v1.64H36v-1.64h-.97Zm1.94 0H36v1.64h1.95v-1.64h-.98Zm1.95 0h-.97v1.64h1.95v-1.64h-.98Z"
  />
  <path
    fill="#CDD8D3"
    d="M41.02 37.23h-1.13v1.64h1.13a.82.82 0 0 0 0-1.64Zm4.6 0H44.6a.82.82 0 0 0 0 1.64h1.12v-1.64h-.11Zm1.24 0h-1.13v1.64h1.13a.82.82 0 0 0 0-1.64Zm4.59 0h-1.01a.82.82 0 0 0 0 1.64h1.13v-1.64h-.12Z"
  />
  <path
    fill="#CDD8D3"
    d="M52.54 37.23h-.97v1.64h1.95v-1.64h-.98Zm1.95 0h-.97v1.64h1.94v-1.64h-.97Zm2.1 0h-1.13v1.64h1.13a.82.82 0 0 0 0-1.64Zm11.52 0a.82.82 0 1 1 0 1.64.82.82 0 0 1 0-1.64ZM6.7 39.18H5.69a.82.82 0 1 0 0 1.64h1.12v-1.64H6.7Z"
  />
  <path
    fill="#CDD8D3"
    d="M7.79 39.18H6.8v1.64h1.95v-1.64h-.97Zm1.94 0h-.97v1.64h1.94v-1.64h-.97Zm1.95 0h-.97v1.64h1.94v-1.64h-.97Zm1.94 0h-.97v1.64h1.95v-1.64h-.98Zm1.95 0h-.97v1.64h1.94v-1.64h-.97Zm2.1 0h-1.13v1.64h1.13a.82.82 0 0 0 0-1.64Zm13.47 0a.82.82 0 1 1 0 1.64.82.82 0 0 1 0-1.64Zm4.75 0h-1.01a.82.82 0 1 0 0 1.64H36v-1.64h-.11Zm1.08 0H36v1.64h1.95v-1.64h-.98Zm2.1 0h-1.12v1.64h1.12a.82.82 0 0 0 0-1.64Zm3.74 0a.82.82 0 1 1 0 1.64.82.82 0 0 1 0-1.64Zm3.89 0a.82.82 0 1 1 0 1.64.82.82 0 0 1 0-1.64Zm8.64 0h-1.01a.82.82 0 1 0 0 1.64h1.13v-1.64h-.12Z"
  />
  <path
    fill="#CDD8D3"
    d="M56.44 39.18h-.98v1.64h1.95v-1.64h-.97Zm2.09 0h-1.12v1.64h1.12a.82.82 0 0 0 0-1.64Zm6.54 0h-1.01a.82.82 0 1 0 0 1.64h1.13v-1.64h-.12Zm1.25 0h-1.13v1.64h1.13a.82.82 0 0 0 0-1.64ZM5.84 41.12a.82.82 0 1 1 0 1.65.82.82 0 0 1 0-1.65Zm3.89 0a.82.82 0 1 1 0 1.65.82.82 0 0 1 0-1.65Zm16.43 0h-1.01a.82.82 0 1 0 0 1.65h1.12v-1.65h-.11Zm1.09 0h-.98v1.65h1.95v-1.65h-.97Zm1.95 0h-.98v1.65h1.94v-1.65h-.97Zm2.09 0h-1.13v1.65h1.13a.82.82 0 0 0 0-1.65Zm14.33 0H44.6a.82.82 0 1 0 0 1.65h1.12v-1.65h-.11Zm1.24 0h-1.13v1.65h1.13a.82.82 0 0 0 0-1.65Zm4.59 0h-1.01a.82.82 0 1 0 0 1.65h1.13v-1.65h-.12Z"
  />
  <path
    fill="#CDD8D3"
    d="M52.7 41.12h-1.14v1.65h1.12a.82.82 0 0 0 0-1.65Zm4.6 0h-1.02a.82.82 0 1 0 0 1.65h1.13v-1.65h-.12Zm1.08 0h-.97v1.65h1.94v-1.65h-.97Zm1.95 0h-.98v1.65h1.95v-1.65h-.97Zm1.94 0h-.97v1.65h1.95v-1.65h-.98Zm2.1 0h-1.12v1.65h1.12a.82.82 0 0 0 0-1.65Zm3.74 0a.82.82 0 1 1 0 1.65.82.82 0 0 1 0-1.65Zm-56.43 1.95a.82.82 0 1 1 0 1.64.82.82 0 0 1 0-1.64Zm4.75 0H15.4a.82.82 0 0 0 0 1.64h1.15v-1.64h-.11Z"
  />
  <path
    fill="#CDD8D3"
    d="M17.67 43.07h-1.13v1.64h1.13a.82.82 0 0 0 0-1.64Zm5.68 0a.82.82 0 1 1 0 1.64.82.82 0 0 1 0-1.64Zm5.85 0a.82.82 0 1 1 0 1.64.82.82 0 0 1 0-1.64Zm6.69 0h-1.01a.82.82 0 1 0 0 1.64H36v-1.64h-.11Zm1.08 0H36v1.64h1.95v-1.64h-.98Zm2.1 0h-1.12v1.64h1.12a.82.82 0 0 0 0-1.64Zm5.69 0a.82.82 0 1 1 0 1.64.82.82 0 0 1 0-1.64Zm3.89 0a.82.82 0 1 1 0 1.64.82.82 0 0 1 0-1.64Zm6.69 0h-1.01a.82.82 0 1 0 0 1.64h1.13v-1.64h-.12Zm1.25 0h-1.13v1.64h1.13a.82.82 0 0 0 0-1.64Zm4.59 0h-1.01a.82.82 0 1 0 0 1.64h1.13v-1.64h-.12Zm1.24 0H61.3v1.64h1.12a.82.82 0 0 0 0-1.64Zm3.74 0a.82.82 0 1 1 0 1.64.82.82 0 0 1 0-1.64ZM6.7 45.01H5.69a.82.82 0 1 0 0 1.65h1.12v-1.65H6.7Z"
  />
  <path
    fill="#CDD8D3"
    d="M7.79 45.01H6.8v1.65h1.95v-1.65h-.97Zm1.94 0h-.97v1.65h1.94v-1.65h-.97Zm2.1 0H10.7v1.65h1.12a.82.82 0 0 0 0-1.65Zm3.74 0a.82.82 0 1 1 0 1.65.82.82 0 0 1 0-1.65Zm7.78 0a.82.82 0 1 1 0 1.65.82.82 0 0 1 0-1.65Zm4.75 0h-1a.82.82 0 1 0 0 1.65h1.13v-1.65h-.12Z"
  />
  <path fill="#CDD8D3" d="M29.2 45.01h-.98v1.65h1.95v-1.65h-.98Z" />
  <path
    fill="#CDD8D3"
    d="M31.29 45.01h-1.13v1.65h1.13a.82.82 0 0 0 0-1.65Zm9.58 0a.82.82 0 1 1 0 1.65.82.82 0 0 1 0-1.65Zm3.89 0a.82.82 0 1 1 0 1.65.82.82 0 0 1 0-1.65Zm7.78 0a.82.82 0 1 1 0 1.65.82.82 0 0 1 0-1.65Zm11.68 0a.82.82 0 1 1 0 1.65.82.82 0 0 1 0-1.65Zm3.89 0a.82.82 0 1 1 0 1.65.82.82 0 0 1 0-1.65ZM5.84 46.96a.82.82 0 1 1 0 1.65.82.82 0 0 1 0-1.65Zm3.89 0a.82.82 0 1 1 0 1.65.82.82 0 0 1 0-1.65Zm3.89 0a.82.82 0 1 1 0 1.65.82.82 0 0 1 0-1.65Zm3.9 0a.82.82 0 1 1 0 1.65.82.82 0 0 1 0-1.65Zm3.88 0a.82.82 0 1 1 0 1.65.82.82 0 0 1 0-1.65Zm11.68 0a.82.82 0 1 1 0 1.65.82.82 0 0 1 0-1.65Zm3.9 0a.82.82 0 1 1 0 1.65.82.82 0 0 1 0-1.65Zm3.89 0a.82.82 0 1 1 0 1.65.82.82 0 0 1 0-1.65Zm4.75 0H44.6a.82.82 0 1 0 0 1.65h1.12v-1.65h-.11Zm1.24 0h-1.13v1.65h1.13a.82.82 0 0 0 0-1.65Zm13.47 0a.82.82 0 1 1 0 1.65.82.82 0 0 1 0-1.65Zm5.83 0a.82.82 0 1 1 0 1.65.82.82 0 0 1 0-1.65ZM5.84 48.9a.82.82 0 1 1 0 1.65.82.82 0 0 1 0-1.65Zm8.64 0h-1.01a.82.82 0 1 0 0 1.65h1.13V48.9h-.12Z"
  />
  <path
    fill="#CDD8D3"
    d="M15.72 48.9H14.6v1.65h1.12a.82.82 0 0 0 0-1.65Zm4.6 0H19.3a.82.82 0 1 0 0 1.65h1.12V48.9h-.11Zm1.24 0h-1.12v1.65h1.12a.82.82 0 0 0 0-1.65Zm5.69 0a.82.82 0 1 1 0 1.65.82.82 0 0 1 0-1.65Zm11.67 0a.82.82 0 1 1 0 1.65.82.82 0 0 1 0-1.65Zm6.7 0H44.6a.82.82 0 1 0 0 1.65h1.12V48.9h-.11Zm1.08 0h-.97v1.65h1.95V48.9h-.97Z"
  />
  <path
    fill="#CDD8D3"
    d="M48.8 48.9h-1.12v1.65h1.12a.82.82 0 0 0 0-1.65Zm3.74 0a.82.82 0 1 1 0 1.65.82.82 0 0 1 0-1.65Zm8.64 0h-1.01a.82.82 0 1 0 0 1.65h1.13V48.9h-.12Zm1.09 0h-.97v1.65h1.95V48.9h-.98Z"
  />
  <path
    fill="#CDD8D3"
    d="M64.22 48.9h-.97v1.65h1.94V48.9h-.97Zm2.1 0h-1.13v1.65h1.13a.82.82 0 0 0 0-1.65ZM5.84 50.85a.82.82 0 1 1 0 1.65.82.82 0 0 1 0-1.65Zm4.75 0H9.58a.82.82 0 1 0 0 1.65h1.12v-1.65h-.11Zm1.24 0H10.7v1.65h1.12a.82.82 0 0 0 0-1.65Zm4.6 0H15.4a.82.82 0 1 0 0 1.65h1.15v-1.65h-.11Z"
  />
  <path
    fill="#CDD8D3"
    d="M17.52 50.85h-.98v1.65h1.95v-1.65h-.97Zm1.94 0h-.97v1.65h1.94v-1.65h-.97Zm1.94 0h-.96v1.65h1.94v-1.65h-.97Zm1.95 0h-.97v1.65h1.95v-1.65h-.98Z"
  />
  <path
    fill="#CDD8D3"
    d="M25.45 50.85h-1.12v1.65h1.12a.82.82 0 0 0 0-1.65Zm5.69 0a.82.82 0 1 1 0 1.65.82.82 0 0 1 0-1.65Zm4.75 0h-1.01a.82.82 0 1 0 0 1.65H36v-1.65h-.11Zm1.23 0H36v1.65h1.12a.82.82 0 0 0 0-1.65Zm6.55 0h-1.01a.82.82 0 1 0 0 1.65h1.13v-1.65h-.12Zm1.24 0h-1.12v1.65h1.12a.82.82 0 1 0 0-1.65Zm3.74 0a.82.82 0 1 1 0 1.65.82.82 0 0 1 0-1.65Zm4.75 0h-1.01a.82.82 0 1 0 0 1.65h1.13v-1.65h-.12Zm1.09 0h-.97v1.65h1.94v-1.65h-.97Zm1.95 0h-.98v1.65h1.95v-1.65h-.97Zm1.94 0h-.97v1.65h1.94v-1.65h-.97Zm2.1 0h-1.13v1.65h1.13a.82.82 0 1 0 0-1.65Zm7.63 0a.82.82 0 1 1 0 1.65.82.82 0 0 1 0-1.65ZM21.4 52.8a.82.82 0 1 1 0 1.64.82.82 0 0 1 0-1.64Zm8.65 0h-1.01a.82.82 0 1 0 0 1.64h1.12V52.8h-.11Zm1.24 0h-1.13v1.64h1.13a.82.82 0 0 0 0-1.64Zm5.69 0a.82.82 0 1 1 0 1.64.82.82 0 0 1 0-1.64Zm7.78 0a.82.82 0 1 1 0 1.64.82.82 0 0 1 0-1.64Zm3.89 0a.82.82 0 1 1 0 1.64.82.82 0 0 1 0-1.64Zm3.89 0a.82.82 0 1 1 0 1.64.82.82 0 0 1 0-1.64Zm8.64 0h-1.01a.82.82 0 1 0 0 1.64h1.13V52.8h-.12Z"
  />
  <path
    fill="#CDD8D3"
    d="M62.42 52.8H61.3v1.64h1.12a.82.82 0 1 0 0-1.64Zm5.69 0a.82.82 0 1 1 0 1.64.82.82 0 0 1 0-1.64Zm-44.76 1.94a.82.82 0 1 1 0 1.65.82.82 0 0 1 0-1.65Zm9.73 0a.82.82 0 1 1 0 1.65.82.82 0 0 1 0-1.65Zm3.9 0a.82.82 0 1 1 0 1.65.82.82 0 0 1 0-1.65Zm5.83 0a.82.82 0 1 1 0 1.65.82.82 0 0 1 0-1.65Zm6.69 0h-1a.82.82 0 1 0 0 1.65h1.12v-1.65h-.11Zm1.1 0h-.98v1.65h1.95v-1.65h-.97Z"
  />
  <path
    fill="#CDD8D3"
    d="M52.7 54.74h-1.14v1.65h1.12a.82.82 0 0 0 0-1.65Zm3.73 0a.82.82 0 1 1 0 1.65.82.82 0 0 1 0-1.65Zm3.9 0a.82.82 0 1 1 0 1.65.82.82 0 0 1 0-1.65Zm5.83 0a.82.82 0 1 1 0 1.65.82.82 0 0 1 0-1.65Zm-41.95 1.95H23.2a.82.82 0 1 0 0 1.64h1.13V56.7h-.12Zm1.24 0h-1.12v1.64h1.12a.82.82 0 0 0 0-1.64Zm12.38 0h-1.01a.82.82 0 1 0 0 1.65h1.13v-1.65h-.12Zm1.24 0h-1.12v1.65h1.12a.82.82 0 1 0 0-1.65Zm13.47 0a.82.82 0 1 1 0 1.65.82.82 0 0 1 0-1.65Zm8.64 0h-1.01a.82.82 0 1 0 0 1.65h1.13v-1.65h-.12Zm1.09 0h-.97v1.64h1.95V56.7h-.98Zm1.95 0h-.97v1.64h1.94V56.7h-.97Zm1.95 0h-.98v1.65h1.95v-1.65h-.97Zm2.09 0h-1.12v1.64h1.12a.82.82 0 0 0 0-1.64Zm-45.99 1.94h-1.02a.82.82 0 1 0 0 1.65h1.14v-1.65h-.11Z"
  />
  <path
    fill="#CDD8D3"
    d="M23.5 58.63h-1.12v1.65h1.12a.82.82 0 0 0 0-1.65Zm3.75 0a.82.82 0 1 1 0 1.65.82.82 0 0 1 0-1.65Zm3.89 0a.82.82 0 1 1 0 1.65.82.82 0 0 1 0-1.65Zm3.89 0a.82.82 0 1 1 0 1.65.82.82 0 0 1 0-1.65Zm6.69 0h-1.01a.82.82 0 1 0 0 1.65h1.13v-1.65h-.12Zm1.24 0h-1.12v1.65h1.12a.82.82 0 0 0 0-1.65Zm4.6 0h-1.01a.82.82 0 1 0 0 1.65h1.13v-1.65h-.12Z"
  />
  <path
    fill="#CDD8D3"
    d="M48.8 58.63h-1.12v1.65h1.12a.82.82 0 1 0 0-1.65Zm4.6 0h-1.01a.82.82 0 1 0 0 1.65h1.13v-1.65h-.12Zm1.09 0h-.97v1.65h1.94v-1.65h-.97Zm1.95 0h-.98v1.65h1.95v-1.65h-.97Zm1.94 0h-.97v1.65h1.94v-1.65h-.97Zm1.95 0h-.98v1.65h1.95v-1.65h-.97Z"
  />
  <path
    fill="#CDD8D3"
    d="M62.42 58.63H61.3v1.65h1.12a.82.82 0 1 0 0-1.65Zm4.6 0h-1.01a.82.82 0 1 0 0 1.65h1.13v-1.65h-.12Zm1.24 0h-1.12v1.65h1.12a.82.82 0 1 0 0-1.65ZM21.4 60.58a.82.82 0 1 1 0 1.64.82.82 0 0 1 0-1.64Zm4.76 0h-1.01a.82.82 0 0 0 0 1.64h1.12v-1.64h-.11Zm1.09 0h-.98v1.64h1.95v-1.64h-.97Zm1.95 0h-.98v1.64h1.95v-1.64h-.98Z"
  />
  <path
    fill="#CDD8D3"
    d="M31.14 60.58h-.98v1.64h1.95v-1.64h-.97Zm1.94 0h-.97v1.64h1.95v-1.64h-.98Zm2.1 0h-1.12v1.64h1.12a.82.82 0 0 0 0-1.64Zm4.6 0h-1.01a.82.82 0 1 0 0 1.64h1.13v-1.64h-.12Z"
  />
  <path
    fill="#CDD8D3"
    d="M41.02 60.58h-1.13v1.64h1.13a.82.82 0 0 0 0-1.64Zm3.74 0a.82.82 0 1 1 0 1.64.82.82 0 0 1 0-1.64Zm9.73 0a.82.82 0 1 1 0 1.64.82.82 0 0 1 0-1.64Zm6.69 0h-1.01a.82.82 0 0 0 0 1.64h1.13v-1.64h-.12Zm1.09 0h-.97v1.64h1.95v-1.64h-.98Z"
  />
  <path
    fill="#CDD8D3"
    d="M64.22 60.58h-.97v1.64h1.94v-1.64h-.97Zm2.1 0h-1.13v1.64h1.13a.82.82 0 0 0 0-1.64Zm-44.05 1.95h-1.02a.82.82 0 1 0 0 1.64h1.14v-1.64h-.11Z"
  />
  <path
    fill="#CDD8D3"
    d="M23.35 62.53h-.97v1.64h1.95v-1.64h-.98Zm1.95 0h-.97v1.64h1.94v-1.64h-.97Z"
  />
  <path
    fill="#CDD8D3"
    d="M27.25 62.53h-.98v1.64h1.95v-1.64h-.97Zm1.95 0h-.98v1.64h1.94v-1.64h-.97Zm2.09 0h-1.13v1.64h1.13a.82.82 0 0 0 0-1.64Zm3.74 0a.82.82 0 1 1 0 1.64.82.82 0 0 1 0-1.64Zm5.84 0a.82.82 0 1 1 0 1.64.82.82 0 0 1 0-1.64Zm3.89 0a.82.82 0 1 1 0 1.64.82.82 0 0 1 0-1.64Zm10.58 0h-1.01a.82.82 0 1 0 0 1.64h1.13v-1.64h-.12Z"
  />
  <path
    fill="#CDD8D3"
    d="M56.59 62.53h-1.13v1.64h1.13a.82.82 0 0 0 0-1.64Zm7.63 0a.82.82 0 1 1 0 1.64.82.82 0 0 1 0-1.64Zm-40.87 1.94a.82.82 0 1 1 0 1.65.82.82 0 0 1 0-1.65Zm12.54 0h-1.01a.82.82 0 1 0 0 1.65H36v-1.65h-.11Zm1.23 0H36v1.65h1.12a.82.82 0 0 0 0-1.65Zm6.55 0h-1.01a.82.82 0 1 0 0 1.65h1.13v-1.65h-.12Zm1.24 0h-1.12v1.65h1.12a.82.82 0 0 0 0-1.65Zm9.58 0a.82.82 0 1 1 0 1.65.82.82 0 0 1 0-1.65Zm3.89 0a.82.82 0 1 1 0 1.65.82.82 0 0 1 0-1.65Zm4.75 0h-1.01a.82.82 0 1 0 0 1.65h1.13v-1.65h-.12Zm1.24 0h-1.12v1.65h1.12a.82.82 0 1 0 0-1.65Zm-41.02 1.95a.82.82 0 1 1 0 1.64.82.82 0 0 1 0-1.64Zm4.75 0h-1a.82.82 0 1 0 0 1.64h1.13v-1.64h-.12Z"
  />
  <path
    fill="#CDD8D3"
    d="M29.34 66.42h-1.12v1.64h1.12a.82.82 0 1 0 0-1.64Zm6.55 0h-1.01a.82.82 0 1 0 0 1.64H36v-1.64h-.11Zm1.23 0H36v1.64h1.12a.82.82 0 0 0 0-1.64Zm3.75 0a.82.82 0 1 1 0 1.64.82.82 0 0 1 0-1.64Zm4.75 0H44.6a.82.82 0 1 0 0 1.64h1.12v-1.64h-.11Zm1.08 0h-.97v1.64h1.95v-1.64h-.97Zm1.95 0h-.97v1.64h1.94v-1.64h-.97Zm1.95 0h-.98v1.64h1.95v-1.64h-.97Z"
  />
  <path
    fill="#CDD8D3"
    d="M52.7 66.42h-1.14v1.64h1.12a.82.82 0 1 0 0-1.64Zm13.46 0a.82.82 0 1 1 0 1.64.82.82 0 0 1 0-1.64ZM13.84 4H9.52a4.65 4.65 0 0 0-4.65 4.6v4.42c0 2.54 2.09 4.6 4.65 4.6h4.32a4.63 4.63 0 0 0 4.65-4.6V8.6c0-2.54-2.09-4.6-4.65-4.6Zm2.6 9.02c0 1.4-1.16 2.56-2.6 2.56H9.52a2.58 2.58 0 0 1-2.6-2.56V8.6a2.5 2.5 0 0 1 1.1-2.1c.43-.29.94-.46 1.5-.46h4.32c1.44 0 2.6 1.15 2.6 2.56v4.42ZM64.43 4h-4.32a4.65 4.65 0 0 0-4.65 4.6v4.42c0 2.54 2.09 4.6 4.65 4.6h4.32a4.63 4.63 0 0 0 4.65-4.6V8.6C69.08 6.06 67 4 64.43 4Zm2.61 9.02a2.6 2.6 0 0 1-2.6 2.56H60.1a2.58 2.58 0 0 1-2.6-2.56V8.6a2.5 2.5 0 0 1 1.1-2.1c.43-.29.95-.46 1.5-.46h4.32a2.59 2.59 0 0 1 2.61 2.56v4.42ZM13.84 54.6H9.52a4.65 4.65 0 0 0-4.65 4.6v4.41c0 2.54 2.09 4.6 4.65 4.6h4.32a4.63 4.63 0 0 0 4.65-4.6V59.2c0-2.53-2.09-4.6-4.65-4.6Zm2.6 9.01a2.58 2.58 0 0 1-2.6 2.56H9.52a2.58 2.58 0 0 1-2.6-2.56V59.2a2.5 2.5 0 0 1 1.1-2.09c.43-.3.94-.46 1.5-.46h4.32c1.44 0 2.6 1.14 2.6 2.55v4.42Z"
  />
  <path
    fill="#CDD8D3"
    d="M10.35 13.72c-.88 0-1.6-.7-1.6-1.56v-2.7a1.53 1.53 0 0 1 .69-1.29c.26-.18.57-.28.91-.28H13c.88 0 1.6.7 1.6 1.56v2.71c0 .86-.72 1.56-1.6 1.56h-2.65Zm50.6 0c-.88 0-1.6-.7-1.6-1.56v-2.7a1.53 1.53 0 0 1 .68-1.29c.26-.18.58-.28.92-.28h2.64c.88 0 1.6.7 1.6 1.56v2.71c0 .86-.72 1.56-1.6 1.56h-2.64Zm-50.6 50.6c-.88 0-1.6-.7-1.6-1.56v-2.7a1.53 1.53 0 0 1 .69-1.29c.26-.18.57-.28.91-.28H13c.88 0 1.6.7 1.6 1.56v2.7c0 .87-.72 1.57-1.6 1.57h-2.65Z"
  />
  <g clip-path="url(#a)">
    <path
      fill="#1F2726"
      d="M44.9 25.3H28.83a2.68 2.68 0 0 0-2.68 2.67v16.06c0 1.47 1.2 2.67 2.68 2.67H44.9c1.48 0 2.68-1.2 2.68-2.67V27.97c0-1.48-1.2-2.67-2.68-2.67Z"
    />
  </g>
  <defs>
    <clipPath id="a">
      <path
        fill="#fff"
        d="M0 0h21.41v21.41H0z"
        transform="translate(26.16 25.3)"
      />
    </clipPath>
  </defs>
</svg>