<svg width="173" height="42" fill="none" xmlns="http://www.w3.org/2000/svg"><path d="M59.028 25.485c-.043-.606.122-1.162.476-1.702.237-.359.574-.747.945-1.173.957-1.103 2.143-2.468 2.433-4.276.632 1.386.325 2.734-.373 3.974-.315.557-.663.957-.995 1.339-.391.45-.76.873-1.024 1.496a3.55 3.55 0 0 0-.268.98l-1.194-.638z" fill="url(#a)"/><path d="M61.077 26.581a4.98 4.98 0 0 1 .733-1.52c.277-.404.536-.704.77-.974.784-.907 1.27-1.47 1.128-4.51.091.194.181.382.27.564v.001c.765 1.588 1.301 2.7.4 4.23-.446.755-.771 1.13-1.059 1.463-.323.374-.599.693-.946 1.436l-1.296-.69z" fill="url(#b)"/><path d="M64.435 26.103c-.352.417-.926.991-.952 1.03l3.248-1.817c-.067-.605-.514-1.318-1.062-2.332.11 1.336-.41 2.144-1.234 3.12z" fill="url(#c)"/><path d="M66.707 25.92c-.087.387-.565 1.193-.917 1.612-1.111 1.322-1.69 1.886-2.64 3.875-.054-.216-.11-.419-.164-.612-.265-.957-.428-1.754-.11-2.441l3.831-2.434z" fill="url(#d)"/><path d="M62.416 30.4c-.271-.795-.467-1.46-.325-2.302l-1.135-.74c-.063 1.238.466 2.684 1.927 4.546-.078-.462-.311-1.048-.467-1.503z" fill="url(#e)"/><path d="M60.199 26.865c.019.403.268 1.467.49 2.03-.635-.81-1.33-2.055-1.53-2.707l1.04.677z" fill="url(#f)"/><path d="M73.576 32.918c0-1.842-3.427-3.392-8.058-3.826-.442.496-.883 1.111-1.305 2.018l-.636 1.208a.733.733 0 0 1-1.238.096l-.408-.548c-.85-1.085-1.47-1.944-1.961-2.748-4.495.468-7.795 1.993-7.795 3.8 0 2.18 4.796 3.948 10.703 3.948.285 0 .568-.004.848-.012l.867-2.454.007-.017a1.27 1.27 0 0 1 1.163-.798h.004l7.653.02a2.12 2.12 0 0 0 .156-.687z" fill="url(#g)"/><path d="M66.079 36.919h5.996l-.262.665h-5.965l-1.328 3.788v-4.023l.93-2.628a.356.356 0 0 1 .325-.223l7.269.002-.269.655h-6.068l-.186.553h6.046l-.287.658h-5.99l-.211.553z" fill="url(#h)"/><path d="M52.543 34.66c.69 1.953 2.38 4.246 2.74 4.582 1.241 1.169 5.24 2.131 8.389 2.131v-3.291c-5.46 0-9.721-1.768-11.129-3.422z" fill="url(#i)"/><path d="M142 32.44c0-2.073-1.443-3.575-3.517-3.575-2.1 0-3.573 1.528-3.573 3.641 0 2.285 1.496 3.56 4.147 3.56a5.322 5.322 0 0 0 2.493-.61l-.341-1.356c-.695.346-1.466.557-2.139.557-1.375 0-2.205-.599-2.297-1.62h5.184c.016-.146.043-.385.043-.597zm-5.262-.532c.091-.943.76-1.62 1.731-1.62.972 0 1.641.677 1.733 1.62h-3.464zM134.126 26.38h-1.759v1.768h1.759v-1.767zM134.126 28.984h-1.759v6.963h1.759v-6.963zM128.365 28.865c-1.037 0-1.851.506-2.376 1.316v-1.196h-1.535v9.527h1.758v-3.525c.459.697 1.278 1.095 2.232 1.095 1.745 0 3.136-1.53 3.136-3.629s-1.351-3.588-3.215-3.588zm-.367 5.7c-1.037 0-1.797-.863-1.797-2.046 0-1.235.76-2.139 1.797-2.139 1.038 0 1.785.904 1.785 2.14-.001 1.182-.749 2.046-1.786 2.046h.001zM120.489 28.865c-2.099 0-3.569 1.528-3.569 3.641 0 2.285 1.496 3.56 4.147 3.56a5.325 5.325 0 0 0 2.494-.61l-.345-1.356c-.695.346-1.466.557-2.138.557-1.375 0-2.205-.599-2.298-1.62h5.188c.012-.148.039-.387.039-.6 0-2.067-1.444-3.572-3.518-3.572zm-1.745 3.043c.091-.943.761-1.62 1.732-1.62.972 0 1.641.677 1.732 1.62h-3.464zM114.413 28.865a2.78 2.78 0 0 0-1.423.368c-.433.248-.702.608-.952 1.044v-3.896h-1.76v9.566h1.76v-3.165c0-1.37.63-2.353 1.628-2.353.721 0 1.154.532 1.154 1.608v3.906h1.759v-4.34c-.001-1.511-.487-2.738-2.166-2.738zM108.808 34.433c-.367 0-.656-.2-.656-.678v-3.402h1.443v-1.368h-1.443v-1.862h-1.759v1.862H103.9l-1.252 5.496-1.044-4.76h-1.466l-1.045 4.767-1.264-5.498h-1.79l1.81 6.962h2.074l.935-3.99.956 3.99h1.994l1.467-5.594h1.119v3.73c0 1.367.682 1.979 1.916 1.979a3.606 3.606 0 0 0 1.811-.478l-.356-1.41c-.21.095-.59.254-.957.254zM92.758 28.865c-2.1 0-3.61 1.515-3.61 3.618 0 2.103 1.51 3.602 3.61 3.602 2.087 0 3.596-1.515 3.596-3.602 0-2.086-1.51-3.618-3.596-3.618zm0 5.7c-1.037 0-1.798-.877-1.798-2.085 0-1.21.76-2.1 1.798-2.1 1.037 0 1.798.877 1.798 2.087 0 1.21-.761 2.099-1.798 2.099zM86.865 30.473V28.99H85.25v6.962h1.758v-4.215c.367-.784 1.273-1.206 2.074-1.206v-1.624l-.092-.013c-.84 0-1.64.624-2.126 1.58zM82.915 30.208c-.526-.811-1.34-1.343-2.398-1.343-1.868 0-3.206 1.515-3.206 3.602 0 1.912 1.351 3.387 3.228 3.387.415.005.827-.088 1.2-.273.374-.184.7-.455.952-.79v.691c0 1.316-.748 2.02-2.06 2.02-.958 0-1.667-.2-2.507-.624l-.512 1.315c.94.473 1.975.718 3.024.717 2.44 0 3.819-1.235 3.819-3.428V28.99h-1.54v1.219zm-2.009 4.225c-1.036 0-1.798-.864-1.798-1.914 0-1.235.762-2.139 1.798-2.139s1.785.904 1.785 2.14c0 1.05-.748 1.913-1.785 1.913zM88.078 7.978c.059-.032.132-.1.218-.205.087-.11.171-.214.253-.314.082-.105.144-.164.185-.178.027-.045.052-.084.075-.116a.336.336 0 0 1 .103-.089 1.07 1.07 0 0 1 .287-.335 3.16 3.16 0 0 0 .341-.308 3.347 3.347 0 0 0 .527-.28 1.09 1.09 0 0 1 .595-.184c.1.045.198.059.293.04a.328.328 0 0 1 .267.069c.05.087.091.139.123.157.032.018.06.043.082.075.037.114.064.19.082.226a.275.275 0 0 1 .041.116l.014.178c.005.045.009.084.014.116.004.06.004.116 0 .171a4.705 4.705 0 0 1-.137.697l-.028.082-.027.09a.707.707 0 0 1-.068.156 1.334 1.334 0 0 0-.144.212c-.04.073-.07.121-.089.144a4.622 4.622 0 0 1-.157.15 3.089 3.089 0 0 1-.13.123 1.781 1.781 0 0 0-.123.075 1.76 1.76 0 0 0-.123.076.819.819 0 0 1-.273.11l-.123.074a.29.29 0 0 1-.137.048c-.082.06-.173.107-.273.144a3.359 3.359 0 0 0-.287.116.818.818 0 0 0-.178.096c-.05.036-.114.072-.192.109-.04.014-.107.03-.198.048a.693.693 0 0 0-.184.048.66.66 0 0 1 .054.341.696.696 0 0 0 .069.342c.118.028.248.048.39.062.14.013.275.011.403-.007a.378.378 0 0 0 .068-.02l.082-.028.082-.027a.536.536 0 0 1 .082-.02c.1-.019.198-.042.294-.07a.986.986 0 0 0 .253-.108c.264-.092.52-.215.766-.37s.46-.323.642-.505c.11-.073.23-.174.362-.301.132-.128.235-.246.308-.356.137-.146.258-.26.362-.342.105-.082.203-.118.294-.109.073 0 .144.043.212.13.069.087.062.18-.02.28a1.596 1.596 0 0 0-.287.246.906.906 0 0 1-.315.233c-.077.05-.18.15-.308.3a4.838 4.838 0 0 1-.369.39.651.651 0 0 1-.082.069.712.712 0 0 0-.143.143 3.592 3.592 0 0 1-.41.3c-.05-.017-.092-.008-.123.028a.61.61 0 0 1-.11.11l-.04.027a.425.425 0 0 1-.049.027.444.444 0 0 0-.048.028l-.04.027a3.68 3.68 0 0 1-.24.191 1.823 1.823 0 0 1-.266.164 4.03 4.03 0 0 1-.274.15c-.091.051-.182.094-.273.13a2.49 2.49 0 0 0-.534.295l-.15.02a.353.353 0 0 1-.068.007l-.069.014a.42.42 0 0 1-.143.027.689.689 0 0 1-.171-.027 1.513 1.513 0 0 1-.738-.438.697.697 0 0 0-.09-.075.705.705 0 0 0-.088-.075.578.578 0 0 1-.15-.15 1.396 1.396 0 0 1-.123-.322 4.88 4.88 0 0 1-.117-.444 1.913 1.913 0 0 1-.048-.356c.028-.054.057-.148.09-.28a7.05 7.05 0 0 0 .081-.403c.023-.137.034-.233.034-.287.019-.019.055-.078.11-.178.05-.105.098-.21.143-.315a.762.762 0 0 0 .076-.205zm2.2-.875c-.063.082-.127.16-.19.233a1.573 1.573 0 0 1-.22.205c-.054.1-.118.191-.19.273-.074.082-.147.16-.22.233a.57.57 0 0 1-.123.17 5.266 5.266 0 0 1-.15.13c-.06.1-.132.196-.219.288a.27.27 0 0 0-.054.314c.1.018.2.005.3-.041.1-.046.187-.087.26-.123.037-.023.073-.043.11-.062.04-.018.08-.036.116-.054l.11-.055a.767.767 0 0 0 .102-.061l.355-.356a1.577 1.577 0 0 0 .233-.273l.082-.11c.022-.1.059-.193.109-.28a.451.451 0 0 0 .068-.28.44.44 0 0 0-.048-.144.463.463 0 0 1-.047-.13.373.373 0 0 0-.212.048.354.354 0 0 1-.082.048c-.028.01-.057.018-.09.027z" fill="#CDD8D3"/><path d="M82.158 9.96c.205-.177.398-.375.58-.594l.281-.321c.096-.11.196-.219.3-.328.046-.046.092-.1.138-.164.045-.064.09-.133.136-.206a.871.871 0 0 1 .137-.157c.06-.054.105-.102.137-.143a.338.338 0 0 1 .102-.11.713.713 0 0 0 .062-.04l.068-.055a2.625 2.625 0 0 1 .246-.22 2.64 2.64 0 0 0 .116-.095l.117-.102a.951.951 0 0 1 .26-.171.198.198 0 0 0 .122-.062 1.41 1.41 0 0 1 .096-.102c.055.009.096.004.123-.014.018-.01.037-.018.055-.027l.068-.028a.63.63 0 0 1 .308.15c.077.074.153.147.225.22a1.145 1.145 0 0 1 .26.15c.037.073.069.141.096.205a.552.552 0 0 1 .04.219c0 .036-.004.09-.013.164l-.013.082-.014.082c-.037.11-.05.168-.041.178.009.009.013.022.013.04a.285.285 0 0 1-.075.226.243.243 0 0 0-.047.24c.009.036-.003.104-.035.204-.032.1-.043.17-.034.206.018.05.028.12.028.211 0 .092.022.153.068.185.096.036.16.055.191.055h.096c.11-.055.246-.148.41-.28.164-.133.287-.244.37-.336.045-.036.088-.072.13-.109l.115-.102c.087-.078.187-.144.301-.199.119-.082.192-.139.219-.17l.178-.199a.67.67 0 0 1 .102-.082.755.755 0 0 0 .116-.096.63.63 0 0 1 .22-.15h.156c.064 0 .107.018.13.055a.34.34 0 0 1 0 .191.75.75 0 0 1-.068.15.894.894 0 0 1-.123.15.878.878 0 0 1-.123.179l-.075.075c-.023.023-.048.05-.076.082a.53.53 0 0 1-.191.143 1.122 1.122 0 0 1-.068.076.823.823 0 0 1-.062.068l-.13.13c-.05.05-.091.1-.123.15a.894.894 0 0 1-.123.15l-.15.124c-.046.04-.094.08-.144.116a1.474 1.474 0 0 0-.266.266.63.63 0 0 0-.11.062c-.018.014-.05.034-.096.062a.944.944 0 0 0-.348.198 4.17 4.17 0 0 1-.356.28.577.577 0 0 1-.376.11c-.1.045-.186.047-.26.006a5.454 5.454 0 0 1-.218-.13 2.169 2.169 0 0 1-.287-.218.53.53 0 0 1-.164-.342c-.018-.237.009-.46.082-.67.077-.214.132-.424.164-.629 0-.023.013-.105.04-.246.033-.146.037-.242.014-.287a.249.249 0 0 1-.034-.096c-.004-.045-.043-.091-.116-.137-.04-.022-.06-.027-.055-.013.005.018-.031.027-.109.027a.557.557 0 0 0-.191.11 1.487 1.487 0 0 1-.09.068 1.523 1.523 0 0 1-.088.068 1.661 1.661 0 0 1-.308.274c-.11.077-.207.173-.294.287a4.891 4.891 0 0 0-.205.246 2.369 2.369 0 0 1-.218.246c-.256.292-.506.56-.752.807l-.096.109-.082.11a1.853 1.853 0 0 1-.089.109 1.932 1.932 0 0 1-.089.11c-.11.136-.228.268-.355.396a1.014 1.014 0 0 1-.233.26c-.1.081-.2.14-.3.177-.028-.018-.058-.018-.09 0a.18.18 0 0 1-.088.027 14.1 14.1 0 0 1-.13-.054.458.458 0 0 1-.062-.02c-.018-.01-.032-.03-.04-.062-.092-.055-.126-.144-.103-.267l.061-.321c.046-.205.1-.41.164-.616.064-.204.135-.407.212-.608.078-.2.148-.4.212-.601.064-.2.119-.4.164-.595.046-.155.091-.299.137-.43.046-.133.1-.272.164-.418.068-.146.112-.276.13-.39.018-.113.061-.243.13-.39a1.33 1.33 0 0 0 .095-.204c.028-.078.055-.146.082-.205.105-.187.201-.413.288-.677.09-.269.186-.508.287-.718.11-.291.223-.574.341-.847.119-.274.251-.543.397-.807.087-.351.228-.68.424-.984.09-.119.152-.215.184-.288a.985.985 0 0 1 .117-.205c.109-.132.232-.234.369-.307.132-.073.25-.176.355-.308a1.424 1.424 0 0 1 .315-.11l.095-.04c.028.027.041.082.041.164.019 0 .023.027.014.082-.01.055-.01.1 0 .137a.78.78 0 0 1-.034.273l-.062.15a1.49 1.49 0 0 0-.013.144.61.61 0 0 1-.014.116.46.46 0 0 0-.034.144c.004.009.007.025.007.048 0 .018-.005.059-.014.123-.01.063-.014.109-.014.136-.004.091-.03.196-.075.315-.036.1-.07.2-.102.3a.432.432 0 0 0-.096.15c-.01.037-.028.06-.055.07l-.082.232-.068.218a1.57 1.57 0 0 1-.205.41 1.34 1.34 0 0 1-.144.295 1.508 1.508 0 0 0-.089.143l-.068.137-.062.13a2.66 2.66 0 0 0-.061.13l-.198.362a1.782 1.782 0 0 1-.24.335c-.164.346-.337.695-.52 1.046-.181.35-.36.69-.532 1.018a1.613 1.613 0 0 0-.137.26.624.624 0 0 0-.048.171.26.26 0 0 1-.075.144l-.041.123a.998.998 0 0 0-.034.109.542.542 0 0 1-.103.205 1.884 1.884 0 0 1-.17.513 2.501 2.501 0 0 0-.185.499z" fill="#CDD8D3"/><path d="M81.515 3.453c.2.032.374.052.52.061.15.01.314-.002.492-.034l.54-.075c.146-.018.321-.039.526-.061.055-.005.112-.005.171 0l.089.013h.082c.118 0 .235-.004.349-.013l.32-.028a.658.658 0 0 0 .049-.013.648.648 0 0 0 .048-.014.127.127 0 0 1 .082 0h.123c.04 0 .082-.002.123-.007a.278.278 0 0 1 .219.089c.027.091.036.141.027.15a.108.108 0 0 0-.028.041c-.009.119-.025.178-.047.178-.023 0-.035.01-.035.027a9.2 9.2 0 0 0-.184.048.19.19 0 0 0-.116.09 1.272 1.272 0 0 1-.431.02.669.669 0 0 0-.403.061 2.714 2.714 0 0 0-.199.103c-.063.04-.148.043-.252.007-.092 0-.196.004-.315.013a53.993 53.993 0 0 0-.868.075c-.192.014-.34.023-.444.028l-.431.02c-.187.01-.353.014-.5.014a.413.413 0 0 0-.143.232.38.38 0 0 1-.143.22 2.451 2.451 0 0 1-.178.348.61.61 0 0 0-.096.212 4.833 4.833 0 0 0-.348.512c-.096.164-.217.33-.363.5a.723.723 0 0 1-.102.266.865.865 0 0 0-.103.308 1.386 1.386 0 0 0-.218.45c-.023.083-.05.167-.082.254a3.86 3.86 0 0 1-.096.266 2.904 2.904 0 0 1-.062.212 5.795 5.795 0 0 1-.075.212 1.48 1.48 0 0 1-.13.253 7.59 7.59 0 0 0-.075.123 3.387 3.387 0 0 0-.068.13.102.102 0 0 0-.028.075.24.24 0 0 1-.013.075l-.041.096a1.47 1.47 0 0 0-.11.219.6.6 0 0 0-.034.143.6.6 0 0 1-.034.144l-.014.04a.265.265 0 0 1-.013.035.265.265 0 0 0-.014.034l-.014.041c-.027.128-.027.214 0 .26a.958.958 0 0 1 .096.212l.027.068a.333.333 0 0 1 .041.13l.069.028.061.027c.037.018.08.027.13.027.06.01.119-.016.178-.075.064-.064.118-.098.164-.103a.583.583 0 0 1 .184-.027.3.3 0 0 0 .158-.04 1.137 1.137 0 0 0 .136-.138c.028-.04.078-.072.15-.095.147-.037.224-.066.233-.09.005-.017.037-.052.096-.102.032-.022.061-.045.089-.068a1.93 1.93 0 0 0 .082-.062c.036-.031.098-.075.184-.13a2.61 2.61 0 0 0 .158-.081 2.01 2.01 0 0 0 .116-.096 1.139 1.139 0 0 0 .232-.15 1.27 1.27 0 0 1 .219-.15c.11-.047.169-.074.178-.083a.102.102 0 0 0 .027-.048c.005-.018.055-.057.15-.116a.62.62 0 0 1 .124-.178l.075-.075.089-.103c.059-.068.116-.123.17-.164.064-.05.117-.095.158-.136a.692.692 0 0 0 .068-.062.16.16 0 0 1 .096-.048c.027-.022.05-.043.068-.061a.737.737 0 0 0 .062-.055l.061-.061.096-.082.068-.069a.24.24 0 0 1 .069-.054c.04 0 .07.013.088.04a.11.11 0 0 0 .09.042 3.02 3.02 0 0 1-.014.143v.082c0 .037-.01.07-.028.103-.054.086-.116.132-.184.136-.069.01-.121.06-.157.15-.028-.017-.062-.022-.103-.013a.18.18 0 0 0-.089.041.192.192 0 0 1 .027.096c0 .018.005.05.014.096-.168.168-.278.3-.328.396a1.686 1.686 0 0 0-.178.198l-.013.02-.11.11c-.127.1-.223.196-.287.287a.878.878 0 0 1-.287.246c-.1.073-.169.128-.205.164l-.068.069-.096.082a1.965 1.965 0 0 0-.103.116.687.687 0 0 1-.116.116c-.06.046-.12.087-.184.123a.589.589 0 0 0-.158.137.72.72 0 0 0-.294.219c-.059.077-.148.155-.266.232a6.65 6.65 0 0 1-.335.205 2.356 2.356 0 0 1-.472.219l-.04.014a8.499 8.499 0 0 1-.213-.137.537.537 0 0 1-.17-.191 2.805 2.805 0 0 0-.199-.137.7.7 0 0 1-.144-.11 6.444 6.444 0 0 0-.143-.232 3.656 3.656 0 0 0-.164-.232 1.755 1.755 0 0 1-.267-.52.355.355 0 0 1-.034-.116l-.02-.13a2.945 2.945 0 0 0-.055-.191.46.46 0 0 1-.014-.206c0-.063.01-.123.028-.177l.027-.096.027-.11a7.056 7.056 0 0 1 .13-.342c.055-.122.094-.24.116-.355.055-.191.114-.373.178-.546a.586.586 0 0 0 .034-.13c.005-.041.03-.071.076-.09.036-.181.095-.357.177-.526.082-.168.164-.33.246-.485.05-.096.098-.191.144-.287l.137-.3a17.395 17.395 0 0 1 .28-.589.45.45 0 0 1 .11-.273.602.602 0 0 1 .109-.294.988.988 0 0 0 .136-.294.748.748 0 0 0-.335-.007c-.123.023-.23.043-.32.062a9.863 9.863 0 0 1-.52 0l-.096-.014a.506.506 0 0 0-.089-.02.76.76 0 0 0-.17-.021.418.418 0 0 1-.186-.02.146.146 0 0 0-.13-.007 3.166 3.166 0 0 0-.389-.287.571.571 0 0 1-.267-.315c0-.027.014-.05.041-.068a.833.833 0 0 0 .069-.055.63.63 0 0 1 .246-.02.372.372 0 0 0 .219-.048c.132.018.266.009.403-.028.123-.036.253-.05.39-.04.018 0 .045.004.082.013.036.01.063.014.082.014a.491.491 0 0 0 .116 0l.055-.014a.58.58 0 0 1 .24-.014c.063.01.126.01.19 0 .132-.009.276.003.43.034a.844.844 0 0 0 .445-.02l.069-.191c.027-.069.056-.135.088-.199a2.03 2.03 0 0 0 .144-.39c.036-.054.073-.116.11-.184.036-.068.063-.134.081-.198l.13-.219.055-.082a.973.973 0 0 1 .061-.082c.064-.132.112-.257.144-.376l.055-.191c.022-.069.047-.14.075-.212.06-.064.118-.135.178-.212a4.01 4.01 0 0 0 .177-.253c.069.009.121-.01.158-.055.04-.045.102-.04.184.014 0 .027.011.052.034.075.023.023.025.057.007.103.091.09.15.173.178.246a.453.453 0 0 1-.02.253.319.319 0 0 0 .02.266.211.211 0 0 1 .014.13c-.01.05-.005.089.013.116.023.05.048.096.075.137a.303.303 0 0 1 .048.178.337.337 0 0 1-.02.102c-.014.041-.03.085-.048.13a2.07 2.07 0 0 1-.082.287c-.01.028-.018.057-.027.09-.01.027-.019.056-.028.088-.064.078-.096.125-.096.144a.218.218 0 0 1-.013.061 1.98 1.98 0 0 1-.089.198l-.048.103a.686.686 0 0 1-.04.082zM68.525 11.683l.014-.136a1.26 1.26 0 0 0 .355-.315.6.6 0 0 1-.253-.095.396.396 0 0 1-.17-.26 1.127 1.127 0 0 1 .02-.404c.032-.15.084-.253.157-.307a.582.582 0 0 1 .082-.103l.096-.089a.389.389 0 0 1 .41-.109c.064.01.105.014.123.014a.15.15 0 0 0 .096-.028.45.45 0 0 1 .048.028l.048.027.082.055c.022.073.05.141.082.205a.433.433 0 0 1 .054.219.692.692 0 0 1-.068.3 1.287 1.287 0 0 0-.096.301c-.054.027-.09.078-.11.15a1.688 1.688 0 0 1-.081.22 4.222 4.222 0 0 0-.205.19 1.916 1.916 0 0 0-.178.206.61.61 0 0 0-.205.095c-.032.032-.05.06-.055.083-.004.027-.022.04-.054.04-.037 0-.082-.027-.137-.082 0-.068-.01-.113-.028-.136a.11.11 0 0 1-.027-.069zM62.645 7.978c.059-.032.132-.1.218-.205.087-.11.171-.214.253-.314.082-.105.144-.164.185-.178.027-.045.052-.084.075-.116a.335.335 0 0 1 .103-.089 1.07 1.07 0 0 1 .287-.335 3.15 3.15 0 0 0 .342-.308 3.347 3.347 0 0 0 .526-.28c.178-.118.376-.18.595-.184.1.045.198.059.294.04a.328.328 0 0 1 .266.069c.05.087.091.139.123.157.032.018.06.043.082.075.037.114.064.19.082.226a.274.274 0 0 1 .041.116 7.017 7.017 0 0 0 .028.294c.004.06.004.116 0 .171a4.705 4.705 0 0 1-.137.697 788.977 788.977 0 0 0-.055.171.711.711 0 0 1-.068.157 1.336 1.336 0 0 0-.144.212c-.04.073-.07.121-.089.144a4.53 4.53 0 0 1-.157.15 3.089 3.089 0 0 1-.13.123 1.781 1.781 0 0 0-.123.075 1.807 1.807 0 0 0-.123.076.818.818 0 0 1-.273.11l-.123.074a.29.29 0 0 1-.137.048c-.082.06-.173.107-.273.144a3.414 3.414 0 0 0-.287.116.814.814 0 0 0-.178.096c-.05.036-.114.072-.192.109a1.82 1.82 0 0 1-.198.048.693.693 0 0 0-.184.048.66.66 0 0 1 .054.341.698.698 0 0 0 .069.342c.118.028.248.048.39.062.14.013.275.011.403-.007a78.82 78.82 0 0 0 .15-.048l.082-.027a.535.535 0 0 1 .082-.02c.1-.019.198-.042.294-.07a.986.986 0 0 0 .253-.108c.264-.092.52-.215.766-.37s.46-.323.642-.505c.11-.073.23-.174.362-.301.133-.128.235-.246.308-.356.137-.146.257-.26.362-.342.105-.082.203-.118.294-.109.073 0 .144.043.212.13.069.087.062.18-.02.28a1.596 1.596 0 0 0-.287.246.906.906 0 0 1-.315.233c-.077.05-.18.15-.308.3-.123.142-.225.251-.307.329l-.062.061a.644.644 0 0 1-.082.069.712.712 0 0 0-.143.143 3.584 3.584 0 0 1-.41.3c-.05-.017-.091-.008-.123.028a.613.613 0 0 1-.11.11l-.04.027a.437.437 0 0 1-.049.027.442.442 0 0 0-.047.028l-.042.027a3.654 3.654 0 0 1-.239.191 1.823 1.823 0 0 1-.266.164 4.03 4.03 0 0 1-.274.15c-.091.051-.182.094-.273.13a2.488 2.488 0 0 0-.533.295l-.15.02a.352.352 0 0 1-.07.007l-.068.014a.42.42 0 0 1-.143.027.69.69 0 0 1-.171-.027 1.513 1.513 0 0 1-.738-.438.705.705 0 0 0-.09-.075.698.698 0 0 0-.088-.075.58.58 0 0 1-.15-.15 1.396 1.396 0 0 1-.123-.322 4.879 4.879 0 0 1-.117-.444 1.915 1.915 0 0 1-.048-.356c.028-.054.057-.148.09-.28a7.05 7.05 0 0 0 .081-.403c.023-.137.035-.233.035-.287.018-.019.054-.078.109-.178.05-.105.098-.21.143-.315a.758.758 0 0 0 .076-.205zm2.2-.875c-.063.082-.127.16-.19.233a1.567 1.567 0 0 1-.22.205 1.46 1.46 0 0 1-.19.273c-.074.082-.147.16-.22.233a.57.57 0 0 1-.123.17 5.255 5.255 0 0 1-.15.13 1.6 1.6 0 0 1-.219.288.27.27 0 0 0-.054.314c.1.018.2.005.3-.041.1-.046.187-.087.26-.123.037-.023.073-.043.11-.062.04-.018.08-.036.116-.054l.11-.055a.762.762 0 0 0 .102-.061l.355-.356c.055-.05.11-.11.164-.178l.069-.095.082-.11c.022-.1.059-.193.109-.28a.452.452 0 0 0 .068-.28.44.44 0 0 0-.047-.144.464.464 0 0 1-.048-.13.374.374 0 0 0-.212.048.353.353 0 0 1-.082.048c-.028.01-.057.018-.09.027z" fill="#CDD8D3"/><path d="M61.182 9.92a.96.96 0 0 1 .082-.103.386.386 0 0 1 .082-.061c.114-.242.262-.433.444-.575.187-.14.385-.3.595-.478a.158.158 0 0 0 .116-.048.34.34 0 0 1 .116-.075c.055-.05.107-.091.158-.123a.339.339 0 0 0 .102-.11c.105-.05.203-.118.294-.205.096-.086.19-.164.28-.232a.352.352 0 0 1 .233.027c.036.073.05.15.04.233-.008.082-.054.127-.136.136a1.594 1.594 0 0 1-.089.082.25.25 0 0 1-.116.055c-.091.018-.15.055-.178.11-.004.086-.016.139-.034.157a.136.136 0 0 0-.034.048c-.1.168-.212.314-.335.437-.123.119-.24.264-.349.438a.344.344 0 0 0-.123.15 6.81 6.81 0 0 0-.362.212c-.078.05-.148.112-.212.185-.055.031-.082.059-.082.082 0 .018-.01.036-.027.054-.092.078-.144.135-.158.171a.208.208 0 0 1-.061.089 1.448 1.448 0 0 0-.205.17.48.48 0 0 1-.178.117 2.602 2.602 0 0 1-.342.226c-.15.09-.305.16-.465.205-.16.05-.291.052-.396.007l-.096-.076a1.229 1.229 0 0 0-.096-.061.945.945 0 0 0-.198-.185.782.782 0 0 1-.184-.198.729.729 0 0 1-.13-.294 1.112 1.112 0 0 0-.103-.307 1.308 1.308 0 0 1 .055-.588c.05-.155.105-.299.164-.431a2.66 2.66 0 0 1 .198-.376 2.12 2.12 0 0 0 .294-.78c-.1-.1-.157-.193-.17-.28a1.295 1.295 0 0 0-.028-.157l-.048-.205c-.237.155-.456.351-.656.588s-.378.479-.533.725l-.164.3c-.046.087-.1.169-.164.246-.046.046-.069.076-.069.09 0 .013-.009.029-.027.047a2.731 2.731 0 0 0-.089.116.614.614 0 0 0-.048.076l-.027.054-.028.041a.798.798 0 0 1-.068.082.784.784 0 0 0-.068.082 21.18 21.18 0 0 0-.349.513l-.321.485c-.05.078-.091.155-.123.233a.68.68 0 0 1-.137.219c-.091.009-.143-.005-.157-.041-.014-.037-.012-.069.007-.096-.11-.073-.171-.214-.185-.424-.014-.21.007-.378.062-.506-.028-.082-.037-.127-.028-.136.01-.01.014-.023.014-.042.118-.164.24-.328.362-.492.123-.164.253-.319.39-.465l.068-.095c.023-.032.044-.064.062-.096.045-.068.093-.128.143-.178a3.88 3.88 0 0 1 .28-.41c.11-.137.199-.278.267-.424.05-.05.084-.1.103-.15a.304.304 0 0 1 .116-.137c.032-.055.06-.107.082-.157a1.48 1.48 0 0 0 .068-.157.766.766 0 0 1 .15-.26.462.462 0 0 1 .07-.15c.026-.037.063-.078.108-.123.005-.041.03-.08.076-.117a.4.4 0 0 0 .102-.116c.023-.064.046-.105.069-.123a.118.118 0 0 0 .04-.096c.046-.045.092-.093.137-.143a.817.817 0 0 0 .123-.185c.128-.073.217-.11.267-.11.05 0 .089-.022.116-.068h.116c.046 0 .094-.002.144-.006.105-.01.16.025.164.102a.17.17 0 0 1 0 .069l-.014.04-.013.042a.491.491 0 0 1 0 .13c-.01.009-.014.015-.014.02a.237.237 0 0 0-.007.096.742.742 0 0 1 .007.123 2.416 2.416 0 0 1-.027.17c-.01.046.009.099.054.158.023.032.05.057.082.075a.34.34 0 0 1 .096.089c.023.023.039.05.048.082.009.032.025.06.048.082a.325.325 0 0 0 .082.068.211.211 0 0 1 .082.096c.05.037.066.06.048.068-.014.01.007.028.061.055.105.132.182.274.233.424.059.114.109.205.15.273a.192.192 0 0 1 0 .22.587.587 0 0 0-.096.163.795.795 0 0 0-.11.137.403.403 0 0 0-.04.102.177.177 0 0 1-.041.09c-.082.131-.166.25-.253.355a1.929 1.929 0 0 0-.226.342c.005.26.055.45.15.574.11.127.178.191.206.191.059.01.123-.009.191-.054l.178-.11a.444.444 0 0 0 .048-.027.445.445 0 0 0 .048-.028.305.305 0 0 1 .095-.04c.096-.032.142-.044.137-.035-.005.014 0 .02.014.02z" fill="#CDD8D3"/><path d="M58.79 7.049c.045.004.074.022.088.054.014.028.039.041.075.041.018.087 0 .148-.055.185-.054.032-.072.084-.054.157a.673.673 0 0 1-.3.103.368.368 0 0 0-.274.143c-.16.078-.326.126-.5.144-.086.009-.177.023-.273.04a7.23 7.23 0 0 0-.28.049.881.881 0 0 1-.185.109.268.268 0 0 0-.102.041.801.801 0 0 0-.287-.055c-.096 0-.196-.013-.301-.04a.456.456 0 0 1-.157.027.457.457 0 0 0-.158.027.602.602 0 0 0-.054.246.733.733 0 0 1-.041.246l-.082.164-.02.13a.58.58 0 0 1-.035.13l-.062.096a.227.227 0 0 0-.034.123.81.81 0 0 0-.136.253.451.451 0 0 1-.15.239.432.432 0 0 1-.13.219c-.06.054-.117.118-.172.191-.1.137-.189.255-.266.356-.078.1-.18.186-.308.26a.368.368 0 0 1-.164.15.716.716 0 0 0-.11.136l-.273.165c-.109.068-.214.113-.314.136a.841.841 0 0 1-.451-.013 1.686 1.686 0 0 1-.41-.192c-.087.01-.153-.007-.199-.048a.537.537 0 0 0-.184-.088c-.1-.092-.21-.174-.328-.247a.636.636 0 0 1-.26-.3l-.062-.301a5.845 5.845 0 0 0-.061-.274.7.7 0 0 1-.007-.26 1.08 1.08 0 0 0 .007-.273v-.137a.848.848 0 0 0-.007-.116.547.547 0 0 1 .062-.253 2.144 2.144 0 0 0 .109-.294 3.196 3.196 0 0 1 .055-.198 23.3 23.3 0 0 1 .04-.068l.042-.082c.013-.028.027-.053.04-.075.019-.028.037-.053.055-.076.055-.082.119-.164.192-.246.073-.082.146-.16.218-.232.05-.069.1-.128.15-.178.083-.082.16-.15.233-.205a2.37 2.37 0 0 0 .246-.219.246.246 0 0 1 .069-.068l.082-.055c.09-.054.175-.1.253-.136.077-.037.166-.078.266-.124a.857.857 0 0 1 .212-.075.918.918 0 0 1 .11-.02 6.32 6.32 0 0 1 .13-.028h.163c.05 0 .096-.009.137-.027-.027-.073.005-.123.096-.15.091-.028.16-.037.205-.028.091 0 .164.02.219.062a.893.893 0 0 1 .15.143 1.7 1.7 0 0 1 .3.288.138.138 0 0 0 .07.04.137.137 0 0 1 .068.042.573.573 0 0 1 .075.15.323.323 0 0 0 .089.15.538.538 0 0 1 .082.069.207.207 0 0 1 .054.11c.096.036.183.063.26.081a.248.248 0 0 0 .144.014.535.535 0 0 1 .294.034c.036.014.077.02.123.02a.77.77 0 0 0 .225-.054.516.516 0 0 1 .267-.014c.137.032.28.018.43-.04.151-.065.304-.106.459-.124a.453.453 0 0 0 .095-.007.452.452 0 0 1 .096-.007.46.46 0 0 1 .178-.082 9.12 9.12 0 0 1 .232-.054zm-3.911.41a1.15 1.15 0 0 1-.157-.157c-.019-.028-.034-.044-.048-.048a.219.219 0 0 0-.137-.069l-.082-.013-.068-.014a.496.496 0 0 0-.362.048 1.521 1.521 0 0 1-.144.089l-.137.082a1.518 1.518 0 0 0-.383.342l-.088.15a.77.77 0 0 0-.076.178 6.875 6.875 0 0 0-.095.198c-.028.06-.05.13-.069.212a.721.721 0 0 0-.082.225l-.013.09-.014.068a1.792 1.792 0 0 1-.02.143c-.01.046-.019.094-.028.144-.023.114-.034.2-.034.26l.04.109a.293.293 0 0 0 .056.096l.061.15a.763.763 0 0 0 .062.123c.05.064.109.105.177.123.037.01.076.02.117.034.04.01.084.02.13.034.1.055.168.078.205.069a.676.676 0 0 1 .082-.014.635.635 0 0 0 .314-.15 1.22 1.22 0 0 1 .273-.192c.037-.054.073-.111.11-.17.04-.06.084-.119.13-.178a4.34 4.34 0 0 0 .24-.376.489.489 0 0 0 .067-.123.856.856 0 0 1 .028-.062.817.817 0 0 1 .027-.061c.064-.078.093-.119.089-.123-.005-.005-.002-.019.007-.041a.756.756 0 0 0 .082-.315 1.735 1.735 0 0 1 0-.219 1.626 1.626 0 0 1-.062-.157 7.746 7.746 0 0 1-.054-.17 1.114 1.114 0 0 0-.144-.315z" fill="#CDD8D3"/><path d="M43.34 9.263a.15.15 0 0 0 .11-.061.642.642 0 0 1 .184-.144.442.442 0 0 0 .048-.027l.04-.027c.12-.087.222-.178.308-.274.087-.09.185-.177.294-.26.06-.068.119-.132.178-.19l.185-.185c.114-.11.225-.24.335-.39.145-.11.282-.228.41-.356.086-.054.157-.107.212-.157.054-.05.13-.102.225-.157l.15-.178a.83.83 0 0 1 .192-.164.705.705 0 0 1 .24-.164.705.705 0 0 0 .239-.164c.136-.073.26-.084.369-.034.11.05.196.112.26.184a.934.934 0 0 0 .163.26l.028.041c.009.014.018.025.027.034.018.019.028.053.028.103 0 .105-.014.21-.041.314l-.041.15-.028.151c-.009.064-.016.128-.02.192l-.014.184a1.662 1.662 0 0 1-.062.376c.05.073.094.15.13.233.037.086.08.154.13.205.032-.005.073-.041.123-.11a1.54 1.54 0 0 1 .157-.103.74.74 0 0 0 .158-.115l.102-.103c.032-.032.064-.062.096-.089.068-.06.13-.123.185-.191.032-.032.063-.062.095-.09.032-.031.064-.06.096-.088l.096-.082.109-.096a2.235 2.235 0 0 0 .198-.225l.096-.11c.032-.04.066-.08.102-.116a.21.21 0 0 1 .09-.075c.031-.014.056-.043.075-.089a.519.519 0 0 0 .184-.15.41.41 0 0 1 .212-.137.54.54 0 0 1 .178 0c.027.009.068.04.123.096.045.031.08.077.102.136.023.06.057.105.103.137.082.164.146.264.191.3a.331.331 0 0 1 .02.22l-.06.218-.014.137a.786.786 0 0 1-.014.075l-.014.055-.013.061a5.368 5.368 0 0 1-.247.93c.005.064.023.13.055.198.028.055.037.135.028.24.054.009.107.009.157 0 .05-.01.093-.019.13-.028.191-.077.373-.177.547-.3.118-.092.241-.18.369-.267.132-.091.255-.18.369-.267a.786.786 0 0 0 .11-.102.786.786 0 0 1 .109-.103 1.69 1.69 0 0 1 .266-.178l.267-.136a.57.57 0 0 0 .11-.082c.026-.028.058-.06.095-.096.045-.046.11-.093.191-.144.082-.05.16-.093.233-.13.127-.004.193.017.198.062l.02.13c-.118.082-.23.166-.334.253l-.322.267a.763.763 0 0 1-.178.096.288.288 0 0 0-.075.074.26.26 0 0 1-.089.076l-.082.068a.964.964 0 0 0-.082.062 1.402 1.402 0 0 0-.15.13 3.019 3.019 0 0 0-.328.273c-.05.05-.091.1-.123.15a.657.657 0 0 1-.137.15.412.412 0 0 0-.116.069l-.103.082a1.479 1.479 0 0 0-.04.144c-.005.036-.033.08-.083.13a.794.794 0 0 0-.13.13.405.405 0 0 1-.061.075.454.454 0 0 1-.096.047.264.264 0 0 0-.054.02c-.019.01-.037.02-.055.028a.565.565 0 0 0-.123.096.738.738 0 0 1-.062.055.738.738 0 0 1-.061.054c-.037.023-.071.044-.103.062a.64.64 0 0 0-.082.055.578.578 0 0 1-.198.075c-.096.063-.164.093-.205.089a.507.507 0 0 0-.137.006c-.023.01-.043 0-.062-.027a.086.086 0 0 0-.075-.041c-.059-.055-.105-.077-.136-.068a.115.115 0 0 1-.096-.014c-.091-.105-.137-.182-.137-.232a.503.503 0 0 0-.007-.082.67.67 0 0 0-.007-.096l-.054-.417a6.432 6.432 0 0 1-.041-.444c0-.064.007-.124.02-.178.019-.069.03-.128.035-.178a.568.568 0 0 0-.014-.102.598.598 0 0 1-.014-.09c.01-.077.023-.145.041-.204a.434.434 0 0 0 .014-.192l-.157.178-.117.116-.095.096a2.026 2.026 0 0 0-.082.102c-.142.082-.26.162-.356.24-.1.082-.223.148-.369.198a7.164 7.164 0 0 1-.37.342 5.413 5.413 0 0 0-.368.341c-.15.196-.315.342-.492.438a1.05 1.05 0 0 1-.15.034.149.149 0 0 1-.11-.034c-.192-.11-.306-.25-.342-.424a1.368 1.368 0 0 1 .014-.574c-.041-.087-.037-.21.013-.37.055-.163.064-.282.028-.355.013-.068.03-.136.048-.205a3.89 3.89 0 0 1 .061-.219 2.08 2.08 0 0 0 .055-.211c.018-.073.032-.144.04-.212.046-.064.053-.114.021-.15a2.01 2.01 0 0 0-.088-.096 2.965 2.965 0 0 0-.445.32 229.221 229.221 0 0 0-.643.561 2.088 2.088 0 0 1-.102.096 1.871 1.871 0 0 0-.11.089l-.218.185c-.078.063-.141.13-.192.198a.812.812 0 0 1-.143.164l-.089.068a.489.489 0 0 0-.11.082.804.804 0 0 1-.081.069.406.406 0 0 1-.11.061l-.123.048a1.145 1.145 0 0 0-.17.144l-.158.157a1.508 1.508 0 0 1-.123.11.61.61 0 0 0-.11.108 2.76 2.76 0 0 1-.198.247l-.102.116a2.583 2.583 0 0 0-.096.116c-.004.041-.03.084-.075.13l-.13.13a.757.757 0 0 0-.055.061l-.061.062a.385.385 0 0 1-.13.096l-.096.02a.343.343 0 0 0-.11.034c-.026.01-.054.018-.081.027l-.096.042c-.059.027-.127.036-.205.027l-.164-.02a.299.299 0 0 1-.137-.062c0-.073-.022-.123-.068-.15.023-.124.052-.233.089-.329.036-.1.066-.205.089-.314.068-.096.12-.198.157-.308.036-.11.084-.22.143-.335.041-.114.09-.232.144-.355l.144-.328c.018-.055.034-.107.047-.157.019-.05.035-.098.048-.144a.875.875 0 0 1 .11-.246.616.616 0 0 0 .095-.205c.1-.119.15-.242.15-.37a.503.503 0 0 0 .11-.232c.023-.095.05-.182.082-.26l.048-.095a.46.46 0 0 0 .041-.24.222.222 0 0 1 .034-.13.766.766 0 0 1 .055-.06c.018-.02.036-.037.055-.056l.054-.054a.746.746 0 0 0 .055-.062c.041-.004.073-.027.096-.068a.235.235 0 0 1 .082-.082.65.65 0 0 0 .17-.069c.019-.018.03-.027.035-.027l.205-.102a.172.172 0 0 1 .04-.021l.056-.027a.377.377 0 0 1 .047-.02.263.263 0 0 0 .035-.014c.009-.005.02-.01.034-.014a.372.372 0 0 0 .048-.02.672.672 0 0 1 .109-.083.668.668 0 0 0 .11-.082.573.573 0 0 1 .232.171c.064.078.082.18.054.308a.617.617 0 0 1-.04.13 2.83 2.83 0 0 1-.055.116.58.58 0 0 0-.034.13.355.355 0 0 1-.035.116 1.683 1.683 0 0 0-.123.253 1.326 1.326 0 0 1-.068.17c-.036.06-.068.12-.096.179a1.888 1.888 0 0 1-.075.177.533.533 0 0 1-.102.137 1.308 1.308 0 0 1-.082.096.491.491 0 0 0-.083.11 3.207 3.207 0 0 0-.19.273c-.06.095-.128.186-.206.273l-.144.273a8.485 8.485 0 0 0-.143.287zM34.727 8.922l.082.068c.023.037.016.087-.02.15a1.886 1.886 0 0 0-.049.09 1.37 1.37 0 0 1-.027.075l.014.054c.004.014.009.025.013.034.01.028.005.057-.013.09.064.05.105.102.123.156a.545.545 0 0 0 .095.185c.055.06.103.105.144.137.05.032.098.073.144.123a.274.274 0 0 1 .109-.041c.032 0 .068-.01.11-.028.077-.1.14-.227.19-.382.01-.037.019-.078.028-.123a.635.635 0 0 0 .014-.123.852.852 0 0 0-.11-.37 1.972 1.972 0 0 1-.15-.369.415.415 0 0 1-.034-.246.621.621 0 0 0-.007-.246.197.197 0 0 0-.041-.11c-.01-.013-.018-.027-.027-.04l-.028-.055a.87.87 0 0 1-.02-.246.312.312 0 0 0-.062-.233c-.054.055-.141.16-.26.315l-.355.451a3.37 3.37 0 0 1-.246.3 1.363 1.363 0 0 1-.075.097.59.59 0 0 1-.075.075.697.697 0 0 0-.083.082 2600.359 2600.359 0 0 0-.93 1.196c-.05.073-.134.192-.252.356-.123.164-.24.323-.349.478-.114.15-.182.25-.205.3a.88.88 0 0 1-.212.24.481.481 0 0 1-.307.103c0-.005-.01-.041-.028-.11a2.258 2.258 0 0 1-.048-.205.617.617 0 0 0-.034-.11.803.803 0 0 0 .062-.163c.013-.05.052-.1.116-.15.018-.06.07-.158.157-.295.087-.14.187-.291.3-.45.115-.165.222-.315.322-.452.096-.137.16-.23.192-.28.059-.06.145-.162.26-.308l.328-.437.246-.322c.04-.123.125-.275.252-.458.133-.186.272-.376.417-.567.15-.196.274-.365.37-.506a7.383 7.383 0 0 0 .218-.369.632.632 0 0 0 .096-.123c.018-.068.01-.12-.027-.157a.187.187 0 0 1-.041-.144c.082-.155.162-.253.239-.294a.782.782 0 0 0 .24-.225c.054-.037.097-.064.13-.082a.505.505 0 0 0 .13-.096c.063-.064.156-.08.28-.048.127.027.202.066.225.116a.428.428 0 0 1-.014.178l-.013.068-.028.117-.027.109c-.01.032-.018.068-.028.11l-.027.116c-.018.1-.034.196-.048.287a.311.311 0 0 0 .09.26.41.41 0 0 0 .006.163c.014.064.03.124.048.178.018.292.07.581.157.868.087.287.18.55.28.787 0 .045.007.09.02.136.015.046.03.091.049.137.027.292 0 .581-.082.868l-.123.424-.11.417a1.42 1.42 0 0 0-.136.314.705.705 0 0 1-.137.26 1.547 1.547 0 0 0-.123.246.426.426 0 0 1-.219.219.319.319 0 0 1-.184 0 .274.274 0 0 0-.171 0 .417.417 0 0 0-.123.034.275.275 0 0 1-.11.02.413.413 0 0 1-.294-.034 1.014 1.014 0 0 0-.28-.088c0-.028-.014-.048-.041-.062a.259.259 0 0 1-.068-.048 1.235 1.235 0 0 0-.11-.314 1.372 1.372 0 0 1-.082-.205 1.165 1.165 0 0 1-.04-.294c0-.1-.024-.198-.07-.294-.036-.082-.052-.132-.047-.15a.369.369 0 0 0 .007-.083 4.06 4.06 0 0 0-.02-.39.357.357 0 0 1 .17-.348.272.272 0 0 0 .103-.143.422.422 0 0 1 .116-.158c.018-.018.048-.027.089-.027a.28.28 0 0 1 .089.014z" fill="#CDD8D3"/><path d="M28.944 7.978a.85.85 0 0 0 .218-.205c.087-.11.171-.214.253-.314.082-.105.144-.164.185-.178.027-.045.052-.084.075-.116a.336.336 0 0 1 .102-.089c.073-.132.17-.244.288-.335.123-.096.236-.198.341-.308a3.347 3.347 0 0 0 .527-.28c.177-.118.376-.18.594-.184.1.045.199.059.294.04a.328.328 0 0 1 .267.069c.05.087.091.139.123.157.032.018.06.043.082.075.037.114.064.19.082.226a.273.273 0 0 1 .041.116 7.516 7.516 0 0 0 .028.294c.004.06.004.116 0 .171a4.718 4.718 0 0 1-.137.697l-.028.082-.027.09a.716.716 0 0 1-.068.156 1.336 1.336 0 0 0-.144.212c-.04.073-.07.121-.089.144a4.53 4.53 0 0 1-.157.15 3.03 3.03 0 0 1-.13.123 1.76 1.76 0 0 0-.123.075 1.781 1.781 0 0 0-.123.076.82.82 0 0 1-.273.11l-.123.074a.29.29 0 0 1-.137.048c-.082.06-.173.107-.274.144a3.36 3.36 0 0 0-.287.116.817.817 0 0 0-.177.096 1.19 1.19 0 0 1-.192.109c-.04.014-.107.03-.198.048a.69.69 0 0 0-.185.048.661.661 0 0 1 .055.341.697.697 0 0 0 .068.342c.119.028.249.048.39.062.141.013.276.011.403-.007a.375.375 0 0 0 .069-.02l.082-.028.082-.027a.535.535 0 0 1 .082-.02c.1-.019.198-.042.294-.07a.986.986 0 0 0 .253-.108c.264-.092.52-.215.765-.37.246-.155.46-.323.643-.505.11-.073.23-.174.362-.301.132-.128.235-.246.308-.356.137-.146.257-.26.362-.342.105-.082.203-.118.294-.109.073 0 .144.043.212.13.068.087.062.18-.02.28a1.596 1.596 0 0 0-.288.246.906.906 0 0 1-.314.233c-.078.05-.18.15-.308.3a4.84 4.84 0 0 1-.369.39.653.653 0 0 1-.082.069.712.712 0 0 0-.143.143 3.584 3.584 0 0 1-.41.3c-.05-.017-.092-.008-.124.028a.61.61 0 0 1-.109.11l-.041.027a.427.427 0 0 1-.048.027.452.452 0 0 0-.048.028l-.04.027a3.657 3.657 0 0 1-.24.191 1.818 1.818 0 0 1-.267.164 4.027 4.027 0 0 1-.273.15c-.091.051-.182.094-.274.13a2.488 2.488 0 0 0-.533.295l-.15.02a.35.35 0 0 1-.068.007l-.069.014a.42.42 0 0 1-.143.027.688.688 0 0 1-.171-.027 1.513 1.513 0 0 1-.738-.438.705.705 0 0 0-.09-.075.697.697 0 0 0-.088-.075.577.577 0 0 1-.15-.15 1.39 1.39 0 0 1-.124-.322 4.879 4.879 0 0 1-.116-.444 1.913 1.913 0 0 1-.048-.356c.028-.054.057-.148.09-.28.031-.137.058-.271.081-.403.023-.137.034-.233.034-.287.019-.019.055-.078.11-.178.05-.105.098-.21.143-.315a.762.762 0 0 0 .076-.205zm2.2-.875c-.063.082-.127.16-.19.233a1.572 1.572 0 0 1-.22.205c-.054.1-.118.191-.19.273-.074.082-.147.16-.22.233a.57.57 0 0 1-.123.17 5.266 5.266 0 0 1-.15.13 1.6 1.6 0 0 1-.219.288.27.27 0 0 0-.055.314c.1.018.201.005.301-.041.1-.046.187-.087.26-.123.036-.023.073-.043.11-.062.04-.018.08-.036.116-.054l.109-.055a.762.762 0 0 0 .103-.061l.355-.356a1.586 1.586 0 0 0 .232-.273l.082-.11c.023-.1.06-.193.11-.28a.45.45 0 0 0 .068-.28.44.44 0 0 0-.048-.144.464.464 0 0 1-.048-.13.374.374 0 0 0-.212.048.353.353 0 0 1-.082.048 2.13 2.13 0 0 1-.088.027z" fill="#CDD8D3"/><path d="M27.426 9.824a.48.48 0 0 1 .137.014c.027.009.05.013.068.013.091 0 .207-.063.349-.191.145-.132.262-.232.348-.3.187-.042.338-.16.451-.356.119-.2.251-.374.397-.52.187-.187.337-.353.451-.499.119-.15.219-.225.3-.225.074 0 .126.034.158.102a4.1 4.1 0 0 0 .089.171c-.018.018-.027.046-.027.082a.15.15 0 0 1-.028.096.347.347 0 0 1-.082.082.474.474 0 0 0-.095.095l-.137.165c-.119.118-.23.268-.335.45-.105.183-.21.356-.315.52-.1.16-.207.274-.32.342a2.558 2.558 0 0 0-.582.492 1.894 1.894 0 0 1-.472.41c-.018 0-.03-.002-.034-.006-.004-.005-.011-.007-.02-.007-.041 0-.071.009-.09.027a.102.102 0 0 1-.074.027 1.57 1.57 0 0 1-.404-.211c-.1-.082-.23-.258-.39-.527a1.479 1.479 0 0 1-.109-.225 1.3 1.3 0 0 0-.11-.24l-.184-.335c-.05-.09-.075-.243-.075-.458a7.067 7.067 0 0 1 .082-.848 2.432 2.432 0 0 0-.39.527c-.059.1-.116.198-.17.294a7.23 7.23 0 0 1-.165.273c-.145.224-.302.445-.471.664-.164.21-.248.37-.253.485a1.295 1.295 0 0 0-.178.24 3.007 3.007 0 0 0-.15.273c-.032.072-.032.093 0 .061-.128.21-.312.358-.554.444-.241.087-.467.13-.677.13l-.123-.013-.123-.014a.424.424 0 0 1-.232-.096l-.205-.15a.587.587 0 0 1-.301-.342 1.51 1.51 0 0 1-.082-.506c.114-.287.18-.544.198-.772.018-.224.07-.445.157-.663.128-.338.308-.638.54-.903.233-.264.477-.506.732-.724.205-.173.44-.363.704-.568a3.99 3.99 0 0 0 .581-.526.956.956 0 0 0 .37-.13c.104-.068.209-.132.314-.191a.738.738 0 0 1 .369-.09c.21 0 .332.037.369.11.036.073.091.173.164.301.06-.15.105-.303.137-.458.018-.078.038-.153.061-.226.028-.073.057-.14.09-.205.054-.282.147-.583.28-.902A15.145 15.145 0 0 1 28.3 2.4c.141-.219.294-.403.458-.553.16-.15.298-.313.417-.486a3.2 3.2 0 0 0 .267-.376c.09-.155.161-.248.211-.28.256.068.39.169.404.3.013.133.02.283.02.452 0 .146-.013.292-.04.437l-.466.971a13.398 13.398 0 0 0-.683 1.477 4.922 4.922 0 0 1-.554.861c-.1.123-.196.25-.287.383-.087.132-.17.269-.253.41a1.09 1.09 0 0 1-.144.28 2.3 2.3 0 0 0-.088.137 3.23 3.23 0 0 0-.082.13l-.247.588a.349.349 0 0 0-.082.205.274.274 0 0 1 .028.11v.191c0 .04-.003.082-.007.123a1.192 1.192 0 0 0-.007.13v.13c0 .464.018.92.055 1.367a.17.17 0 0 0-.027.068c0 .064.034.13.102.198.068.064.112.12.13.171zm-1.313-3.322-.341.219c-.069.022-.16.088-.274.198l-.287.266-.287.26a.914.914 0 0 1-.26.3c-.11.083-.2.174-.273.274-.1.128-.198.278-.294.452-.096.173-.14.319-.13.437-.023.082-.048.16-.075.232a1.874 1.874 0 0 1-.075.192.906.906 0 0 0-.082.396c0 .119.038.18.116.185.077.004.134.007.17.007.137-.091.28-.224.431-.397.155-.177.294-.36.417-.547.128-.186.214-.341.26-.464.1-.174.214-.358.342-.554.127-.196.269-.372.424-.527l.355-.574a.817.817 0 0 1 .027-.061.856.856 0 0 1 .028-.062.246.246 0 0 0 .027-.123.273.273 0 0 0-.055-.164.212.212 0 0 0-.095.02l-.069.035z" fill="#CDD8D3"/><path d="m21.233 7.199-.014.11c.009.031 0 .086-.027.163a.352.352 0 0 0-.082.178l-.048.096a.447.447 0 0 0-.035.11.507.507 0 0 0-.02.19.435.435 0 0 1 0 .11.67.67 0 0 1-.007.096c-.018.1-.032.198-.04.294-.01.095-.02.193-.028.294 0 .1-.01.214-.028.341a9.21 9.21 0 0 1-.054.342.496.496 0 0 1 .068.205.25.25 0 0 0 .096.178c.182-.027.328-.07.437-.13.11-.059.215-.143.315-.253a.814.814 0 0 0 .17-.095 1.13 1.13 0 0 1 .158-.11l.11-.11a1.388 1.388 0 0 0 .218-.136l.055-.027c.155-.1.273-.205.355-.315.069-.054.125-.111.171-.17a.514.514 0 0 1 .212-.144.947.947 0 0 1 .198-.185.945.945 0 0 0 .198-.184c.05 0 .087.009.11.027l.04.027.056.028a.381.381 0 0 1 .013.225.598.598 0 0 1-.095.212c-.046.06-.069.096-.069.11 0 .009-.004.018-.014.027a1.08 1.08 0 0 1-.102.102.544.544 0 0 0-.103.103c-.045.082-.082.123-.109.123-.027 0-.05.01-.068.027-.082.05-.14.087-.171.11a1.118 1.118 0 0 1-.157.11.902.902 0 0 0-.178.109.166.166 0 0 1-.055.04c-.11.124-.216.226-.321.308a1.95 1.95 0 0 0-.308.308l-.11.082a.375.375 0 0 0-.095.11c-.082.054-.148.109-.198.163l-.171.192a1.057 1.057 0 0 0-.178.116c-.077.06-.146.102-.205.13a1.997 1.997 0 0 1-.116.061.29.29 0 0 1-.13.034.56.56 0 0 1-.3-.027 2.852 2.852 0 0 0-.26-.082.488.488 0 0 0-.137-.137.933.933 0 0 1-.178-.355 15.012 15.012 0 0 1-.11-.438.992.992 0 0 0-.204.178.661.661 0 0 1-.246.178c-.092.087-.185.173-.28.26a5.314 5.314 0 0 1-.302.239c-.1.077-.202.16-.307.246-.105.082-.21.166-.315.253-.072.073-.123.1-.15.082-.082.1-.228.132-.438.096a1.552 1.552 0 0 0-.246-.096 1.691 1.691 0 0 1-.218-.082.691.691 0 0 1-.39-.205 1.549 1.549 0 0 1-.267-.383 1.92 1.92 0 0 1-.061-.205 1.037 1.037 0 0 0-.02-.103 4.497 4.497 0 0 1-.028-.116.48.48 0 0 0-.041-.184.195.195 0 0 1 0-.144c-.018-.023-.023-.052-.014-.089a.578.578 0 0 0 .014-.102 1.44 1.44 0 0 1 .034-.41c.032-.146.075-.278.13-.397a.72.72 0 0 1 .11-.137.175.175 0 0 0 .04-.082.137.137 0 0 1 .041-.068.697.697 0 0 1 .082-.082c.046-.037.078-.064.096-.082.023-.032.046-.062.069-.089a.498.498 0 0 1 .088-.082.702.702 0 0 0 .09-.075l.081-.082a.46.46 0 0 0 .076-.096.207.207 0 0 1 .102-.082.627.627 0 0 1 .123-.157c.046-.041.096-.085.15-.13.155-.187.347-.346.575-.479a3.53 3.53 0 0 0 .615-.437.707.707 0 0 0 .164-.096l.137-.11a.38.38 0 0 1 .369-.095l.355.096c.091.082.18.164.267.246.087.082.162.173.226.273a.726.726 0 0 1 .102-.007.495.495 0 0 1 .116 0c.082.01.169.003.26-.02a.182.182 0 0 0 .082-.02.161.161 0 0 1 .068-.021c.137.046.206.114.206.205zm-1.805.205c-.246.119-.47.258-.67.417-.2.16-.392.33-.574.513a1.14 1.14 0 0 1-.076.068.832.832 0 0 0-.068.062.85.85 0 0 0-.232.294l-.09.177-.026.055a.224.224 0 0 1-.028.034.218.218 0 0 0-.027.034l-.027.041a.285.285 0 0 0-.021.137c.005.032.007.082.007.15v.137c0 .028.004.073.014.137.027.1.04.2.04.3 0 .074.007.162.021.267.014.105.048.176.102.212.06.037.117.046.171.028a.732.732 0 0 1 .158-.041c.319-.246.62-.504.902-.773.283-.269.533-.572.752-.909a4.966 4.966 0 0 1-.007-.69 1.841 1.841 0 0 0-.061-.623.177.177 0 0 0-.13-.02.436.436 0 0 1-.13-.007z" fill="#CDD8D3"/><path d="M17.924 7.855c.091.114.134.192.13.233a1.191 1.191 0 0 0-.007.15.607.607 0 0 0-.11.171.426.426 0 0 1-.122.157.629.629 0 0 1-.144.075.218.218 0 0 0-.13.09.468.468 0 0 0-.137.068c-.032.027-.086.036-.164.027a7.75 7.75 0 0 1-.58.533 9.326 9.326 0 0 1-.527.397c-.137.118-.28.228-.43.328-.151.1-.304.2-.459.3-.059.06-.1.103-.123.13a.36.36 0 0 1-.136.103 3.442 3.442 0 0 1-.335.294l-.171.13-.15.137a.898.898 0 0 1-.322.15 1.565 1.565 0 0 0-.321.11c-.174.077-.306.09-.397.04l-.253.048a.562.562 0 0 1-.253-.02.345.345 0 0 1-.082-.041.453.453 0 0 0-.048-.028.452.452 0 0 0-.047-.027.817.817 0 0 1-.212-.116.991.991 0 0 1-.226-.232.967.967 0 0 1-.082-.13.659.659 0 0 1-.089-.267 2.292 2.292 0 0 0-.061-.308 2.512 2.512 0 0 0-.082-.3.904.904 0 0 1-.041-.315.934.934 0 0 1 .02-.11l.027-.102.062-.212a5.4 5.4 0 0 0 .137-.355c.032-.1.073-.205.123-.315a.443.443 0 0 1 .089-.11.443.443 0 0 0 .088-.108c.014-.014.025-.042.035-.083a.25.25 0 0 1 .034-.095l.232-.253c.041-.046.08-.091.117-.137.036-.045.07-.093.102-.143a1.507 1.507 0 0 1 .144-.171 1.365 1.365 0 0 0 .143-.17.588.588 0 0 1 .116-.131.197.197 0 0 0 .062-.062c.055-.054.105-.111.15-.17.046-.06.091-.121.137-.185l.096-.096c.036-.036.07-.073.102-.11.064-.068.135-.127.212-.177.087-.05.171-.091.253-.123l.137-.055.143-.068c.05-.023.094-.046.13-.068a1.13 1.13 0 0 1 .13-.069.534.534 0 0 1 .15-.04.211.211 0 0 0 .123-.07c.055.01.105 0 .15-.026a.961.961 0 0 1 .138-.069.618.618 0 0 1 .13 0c.04.01.075 0 .102-.027a.138.138 0 0 0 .089.027c.032 0 .057.01.075.028.087.022.141.086.164.191a.652.652 0 0 1-.102.424 2.308 2.308 0 0 1-.226.328.988.988 0 0 1-.342.328 2.93 2.93 0 0 0-.335.02.959.959 0 0 1-.307-.006c-.023.04-.048.066-.075.075-.037.014-.044.039-.021.075-.31.264-.583.545-.82.84a3.427 3.427 0 0 0-.56 1.047c-.051.164-.097.276-.138.335a.356.356 0 0 0-.068.212c.055.191.146.353.274.485.127.132.255.207.382.226a.57.57 0 0 0 .39-.082c.118-.078.226-.142.321-.192.064-.045.128-.089.192-.13.063-.04.125-.08.184-.116l.39-.232a1.306 1.306 0 0 0 .219-.137c.109-.078.216-.157.32-.24.051-.036.099-.072.144-.109.05-.04.1-.08.15-.116a.167.167 0 0 0 .103-.048c.023-.023.057-.034.103-.034.164-.146.342-.276.533-.39.192-.114.392-.23.602-.348.073-.073.139-.13.198-.171.06-.041.125-.098.198-.171.064 0 .11-.016.137-.048.027-.032.068-.048.123-.048z" fill="#CDD8D3"/><path d="M7.82 7.978a.85.85 0 0 0 .22-.205c.086-.11.17-.214.252-.314.082-.105.144-.164.185-.178.027-.045.052-.084.075-.116a.336.336 0 0 1 .102-.089 1.07 1.07 0 0 1 .287-.335c.124-.096.237-.198.342-.308a3.346 3.346 0 0 0 .527-.28c.177-.118.376-.18.594-.184.1.045.199.059.294.04a.328.328 0 0 1 .267.069c.05.087.091.139.123.157.032.018.06.043.082.075.037.114.064.19.082.226a.276.276 0 0 1 .041.116l.014.178c.004.045.009.084.013.116.005.06.005.116 0 .171a4.705 4.705 0 0 1-.136.697l-.028.082-.027.09a.707.707 0 0 1-.068.156 1.334 1.334 0 0 0-.144.212c-.04.073-.07.121-.089.144a4.622 4.622 0 0 1-.157.15 3.089 3.089 0 0 1-.13.123 1.781 1.781 0 0 0-.123.075 1.783 1.783 0 0 0-.123.076.819.819 0 0 1-.273.11l-.123.074a.29.29 0 0 1-.137.048c-.082.06-.173.107-.274.144a3.393 3.393 0 0 0-.287.116.816.816 0 0 0-.177.096c-.05.036-.114.072-.192.109-.04.014-.107.03-.198.048a.692.692 0 0 0-.185.048.66.66 0 0 1 .055.341.697.697 0 0 0 .068.342c.119.028.249.048.39.062.141.013.276.011.403-.007a.378.378 0 0 0 .069-.02l.082-.028.082-.027a.536.536 0 0 1 .082-.02c.1-.019.198-.042.294-.07a.989.989 0 0 0 .253-.108c.264-.092.52-.215.765-.37.246-.155.46-.323.643-.505.11-.073.23-.174.362-.301.132-.128.235-.246.308-.356.136-.146.257-.26.362-.342.105-.082.203-.118.294-.109.073 0 .144.043.212.13.068.087.062.18-.02.28a1.6 1.6 0 0 0-.288.246.905.905 0 0 1-.314.233c-.078.05-.18.15-.308.3a4.838 4.838 0 0 1-.369.39.651.651 0 0 1-.082.069.712.712 0 0 0-.143.143 3.583 3.583 0 0 1-.41.3c-.05-.017-.092-.008-.124.028a.61.61 0 0 1-.109.11l-.041.027a.425.425 0 0 1-.048.027.454.454 0 0 0-.048.028l-.04.027a3.654 3.654 0 0 1-.24.191 1.823 1.823 0 0 1-.267.164 4.03 4.03 0 0 1-.273.15 2.45 2.45 0 0 1-.274.13 2.489 2.489 0 0 0-.533.295l-.15.02a.352.352 0 0 1-.068.007l-.069.014a.42.42 0 0 1-.143.027.689.689 0 0 1-.171-.027 1.513 1.513 0 0 1-.739-.438.7.7 0 0 0-.088-.075.7.7 0 0 0-.09-.075.579.579 0 0 1-.15-.15 1.395 1.395 0 0 1-.123-.322 4.888 4.888 0 0 1-.116-.444 1.914 1.914 0 0 1-.048-.356 1.46 1.46 0 0 0 .09-.28c.031-.137.058-.271.081-.403.023-.137.034-.233.034-.287.019-.019.055-.078.11-.178.05-.105.098-.21.143-.315a.76.76 0 0 0 .075-.205zm2.202-.875c-.064.082-.128.16-.192.233a1.571 1.571 0 0 1-.219.205c-.054.1-.118.191-.191.273-.073.082-.146.16-.219.233a.57.57 0 0 1-.123.17 5.237 5.237 0 0 1-.15.13c-.06.1-.132.196-.219.288a.27.27 0 0 0-.055.314c.1.018.2.005.301-.041.1-.046.187-.087.26-.123.036-.023.073-.043.11-.062.04-.018.08-.036.116-.054l.109-.055a.764.764 0 0 0 .102-.061l.356-.356c.055-.05.11-.11.164-.178l.068-.095.082-.11c.023-.1.06-.193.11-.28a.451.451 0 0 0 .068-.28.44.44 0 0 0-.048-.144.466.466 0 0 1-.048-.13.374.374 0 0 0-.211.048.354.354 0 0 1-.083.048c-.027.01-.056.018-.088.027zM3.746 3.015c-.246.082-.478.171-.697.267a4.615 4.615 0 0 0-.629.335 1.098 1.098 0 0 0-.164.157c-.041.05-.096.103-.164.157a.943.943 0 0 1-.574.206c-.082-.046-.132-.092-.15-.137.072-.182.161-.335.266-.458l.321-.376a4.13 4.13 0 0 0 .52-.397l.246-.218c.04-.037.082-.069.123-.096.045-.032.091-.06.137-.082.127-.064.248-.125.362-.185a3.59 3.59 0 0 0 .335-.198c.164-.128.348-.241.554-.342.205-.1.403-.196.594-.287.1-.045.199-.086.294-.123.096-.036.194-.064.294-.082.05-.014.1-.025.15-.034.055-.014.11-.025.165-.034.104-.019.21-.046.314-.082.073-.01.144-.02.212-.034.073-.019.141-.04.205-.062.119-.046.262-.064.43-.055a.258.258 0 0 1 .117.028l.048.013a.82.82 0 0 1 .253.028l.143.054c.073.028.155.066.246.117l.233.13a.49.49 0 0 1 .11.081c.017.019.05.046.095.082.077.046.125.08.143.103l.076.075c.05.05.093.085.13.103.04.018.056.061.047.13a908.237 908.237 0 0 1 .11.294c.036.1.054.202.054.307a.474.474 0 0 1-.02.137c-.014.046-.03.091-.048.137a.719.719 0 0 0-.02.095l-.014.082a.528.528 0 0 1-.048.15l-.062.377c-.018.123-.038.253-.061.39-.01.063-.014.113-.014.15a1.131 1.131 0 0 1-.054.328.916.916 0 0 1-.055.157.706.706 0 0 0-.068.308 2.185 2.185 0 0 1-.178.458c-.064.114-.132.23-.205.348-.1.146-.178.29-.233.431-.059.155-.127.312-.205.472a.25.25 0 0 0-.034.095.25.25 0 0 1-.034.096c-.087.105-.132.173-.137.205a.48.48 0 0 1-.04.123 16.238 16.238 0 0 0-.179.438 1.01 1.01 0 0 0-.082.15c-.027.055-.061.11-.102.164a3.37 3.37 0 0 1-.062.09 1.51 1.51 0 0 0-.068.088c-.292.456-.61.866-.957 1.23a6.882 6.882 0 0 1-.718.63c-.255.195-.503.396-.745.6l-.273.226a2.87 2.87 0 0 1-.301.226 1.107 1.107 0 0 1-.144.096.702.702 0 0 0-.143.11c-.137.131-.32.25-.547.355-.11.027-.178.047-.205.061a.16.16 0 0 1-.069.02.475.475 0 0 1-.164.028 1.455 1.455 0 0 0-.246.027.398.398 0 0 1-.095.014.769.769 0 0 1-.226-.055 3.327 3.327 0 0 0-.116-.04l-.11-.028-.054-.014-.041-.013a.712.712 0 0 0-.048-.014.659.659 0 0 0-.048-.014l-.178-.095a.773.773 0 0 1-.082-.048.772.772 0 0 1-.082-.048c-.132-.032-.214-.082-.246-.15a.66.66 0 0 0-.11-.178 12.755 12.755 0 0 1-.074-.246 7.753 7.753 0 0 0-.055-.22 7.677 7.677 0 0 1-.055-.218 9.76 9.76 0 0 0-.11-.417.421.421 0 0 1 .049-.321l.082-.164c.068-.123.125-.253.17-.39.046-.137.103-.266.171-.39a.26.26 0 0 0 .048-.068.26.26 0 0 1 .048-.068c.027-.055.053-.11.075-.164l.062-.15c.073-.156.148-.308.225-.459.078-.15.162-.298.253-.444.1-.173.185-.317.253-.43.069-.115.153-.222.253-.322.055-.15.123-.29.205-.417.082-.128.15-.267.205-.417a1.21 1.21 0 0 0 .144-.26c.046-.118.089-.214.13-.287.082-.196.155-.35.219-.465l.054-.082a.304.304 0 0 0 .041-.095c.055-.16.123-.32.205-.479.082-.169.153-.308.212-.417l.212-.39zm3.008-1.12c-.128.008-.248.034-.362.075-.114.04-.23.084-.349.13-.082.027-.16.059-.232.095l-.22.11a3.271 3.271 0 0 0-.437.287.161.161 0 0 1-.034.075.161.161 0 0 0-.034.075.967.967 0 0 0-.226.335c-.022.06-.05.118-.082.178-.027.059-.057.116-.088.17-.037.06-.071.12-.103.178a5.74 5.74 0 0 0-.096.171l-.184.349c-.046.1-.094.189-.144.266-.054.087-.098.171-.13.253-.127.205-.205.356-.232.452-.027.059-.062.12-.103.184a.601.601 0 0 0-.089.198l-.04.096-.048.089a.938.938 0 0 0-.048.096c-.01.027-.018.057-.028.089a.618.618 0 0 0-.034.15.618.618 0 0 1-.034.15l-.041.123a3.941 3.941 0 0 0-.137.396 1.166 1.166 0 0 1-.143.192 1.237 1.237 0 0 0-.13.178.607.607 0 0 1-.103.212.488.488 0 0 0-.075.13c-.05.077-.091.155-.123.232a1.55 1.55 0 0 1-.123.246l-.061.082c-.014.019-.035.05-.062.096a1.327 1.327 0 0 0-.068.17l-.069.2-.04.095a.764.764 0 0 1-.049.082.764.764 0 0 0-.047.082l-.028.082a2.181 2.181 0 0 0-.164.37l-.04.095c-.01.032-.02.064-.028.096a.802.802 0 0 1-.034.095.803.803 0 0 1-.035.096 2.012 2.012 0 0 0-.136.342l-.028.082-.061.17a.563.563 0 0 0-.034.171c-.073.06-.096.133-.069.22a.2.2 0 0 1-.054.218.95.95 0 0 0 .348-.11.81.81 0 0 1 .322-.109c.1-.054.18-.111.239-.17a.42.42 0 0 1 .294-.117c.073-.045.141-.093.205-.143.064-.05.125-.1.184-.15a1.31 1.31 0 0 1 .431-.254c.068-.059.137-.116.205-.17a3.42 3.42 0 0 1 .219-.165c.146-.104.273-.234.383-.39a1.21 1.21 0 0 0 .191-.122c.055-.064.107-.128.157-.192s.098-.132.144-.205c.1-.086.178-.168.232-.246a.852.852 0 0 1 .246-.232.653.653 0 0 1 .15-.226c.033-.032.062-.064.09-.096a2.67 2.67 0 0 0 .191-.24l.096-.15c.068-.109.134-.2.198-.273l.191-.348c.069-.114.14-.226.212-.335.137-.205.258-.447.363-.725.09-.118.17-.244.239-.376.068-.132.125-.262.17-.39a.466.466 0 0 0 .13-.252c.019-.1.076-.162.172-.185a.746.746 0 0 0 .116-.383l.013-.212c.005-.073.012-.143.021-.212a.277.277 0 0 0 0-.123.588.588 0 0 1-.014-.11l.014-.108c.01-.042.016-.08.02-.117a.399.399 0 0 0-.006-.198.895.895 0 0 1-.076-.144l-.02-.061a.437.437 0 0 1-.027-.15 1.997 1.997 0 0 1-.035-.158.33.33 0 0 0-.047-.116.713.713 0 0 1-.103-.178.422.422 0 0 0-.103-.15.829.829 0 0 0-.102-.007.675.675 0 0 0-.096-.007h-.198zM162.408 34.264a.152.152 0 0 0 .11-.062.651.651 0 0 1 .232-.17c.014-.01.027-.02.041-.028.119-.087.221-.178.308-.274.086-.09.184-.177.294-.26.059-.068.118-.132.177-.19l.185-.186c.114-.109.226-.239.335-.39.146-.108.282-.227.41-.355.087-.054.157-.107.212-.157.055-.05.13-.102.226-.157.045-.055.095-.114.15-.178a.832.832 0 0 1 .191-.164.711.711 0 0 1 .24-.164.71.71 0 0 0 .239-.164c.137-.073.26-.084.369-.034.109.05.196.111.26.184a.924.924 0 0 0 .164.26l.027.041a.177.177 0 0 0 .028.034c.018.019.027.053.027.103 0 .105-.014.21-.041.314l-.041.15-.027.151c-.01.064-.016.128-.021.192l-.014.184a1.648 1.648 0 0 1-.061.376c.05.073.093.15.13.233a.614.614 0 0 0 .13.205c.031-.005.073-.041.123-.11a1.389 1.389 0 0 1 .157-.103.732.732 0 0 0 .157-.116l.103-.102a1.68 1.68 0 0 1 .095-.089c.069-.06.13-.123.185-.191.032-.032.064-.062.096-.09.032-.031.063-.06.095-.088l.096-.082.109-.096a2.066 2.066 0 0 0 .199-.225l.095-.11c.032-.04.066-.08.103-.116.032-.041.061-.066.089-.075.032-.014.057-.043.075-.089a.525.525 0 0 0 .185-.15c.05-.064.12-.11.211-.137a.54.54 0 0 1 .178 0c.027.009.069.04.123.096.046.031.08.077.103.136.023.06.057.105.102.137.082.164.146.264.192.3a.332.332 0 0 1 .02.22l-.061.218c-.005.055-.009.1-.014.137a.765.765 0 0 1-.014.075l-.013.055-.014.061a5.433 5.433 0 0 1-.246.93c.004.064.023.13.055.198a.465.465 0 0 1 .027.24c.055.009.107.009.157 0 .05-.01.094-.019.13-.028.191-.077.374-.178.547-.3.118-.092.241-.18.369-.267.132-.091.255-.18.369-.267a.8.8 0 0 0 .11-.102.734.734 0 0 1 .109-.103c.091-.073.18-.132.267-.178l.266-.136a.582.582 0 0 0 .11-.082l.095-.096c.046-.046.11-.093.192-.144a3.08 3.08 0 0 1 .232-.13c.128-.004.194.017.198.062l.021.13c-.119.082-.23.166-.335.253-.105.087-.212.175-.321.267a.74.74 0 0 1-.178.096.27.27 0 0 0-.075.074.268.268 0 0 1-.089.076l-.082.068a.819.819 0 0 0-.082.062 1.415 1.415 0 0 0-.151.13 2.727 2.727 0 0 0-.328.273c-.05.05-.091.1-.123.15a.645.645 0 0 1-.137.15.418.418 0 0 0-.116.069l-.102.082a1.262 1.262 0 0 0-.041.143c-.005.037-.032.08-.082.13a.771.771 0 0 0-.13.13.397.397 0 0 1-.062.075.443.443 0 0 1-.096.048.26.26 0 0 0-.054.02.565.565 0 0 0-.178.123.838.838 0 0 1-.061.056.86.86 0 0 1-.062.054 2.523 2.523 0 0 1-.103.062.728.728 0 0 0-.082.054.57.57 0 0 1-.198.076c-.095.064-.164.093-.205.089a.51.51 0 0 0-.137.006c-.022.01-.043 0-.061-.027a.085.085 0 0 0-.075-.041c-.06-.055-.105-.077-.137-.068a.117.117 0 0 1-.096-.014c-.091-.105-.136-.182-.136-.232a.566.566 0 0 0-.007-.082.77.77 0 0 0-.007-.096l-.055-.417a6.495 6.495 0 0 1-.041-.444c0-.064.007-.123.021-.178.018-.069.029-.128.034-.178a.596.596 0 0 0-.014-.102.581.581 0 0 1-.013-.09c.009-.077.022-.145.041-.204a.439.439 0 0 0 .013-.192 8.08 8.08 0 0 1-.157.178l-.116.116-.096.096a2.002 2.002 0 0 0-.082.102 2.77 2.77 0 0 0-.355.24 1.199 1.199 0 0 1-.37.198 5.872 5.872 0 0 1-.369.342 5.974 5.974 0 0 0-.369.341c-.15.196-.314.342-.492.438-.064.018-.114.03-.15.034a.15.15 0 0 1-.11-.034c-.191-.11-.305-.25-.342-.424a1.385 1.385 0 0 1 .014-.574c-.041-.087-.036-.21.014-.37.054-.163.064-.282.027-.355a4.46 4.46 0 0 1 .109-.424c.023-.072.041-.143.055-.212.018-.072.032-.143.041-.211.046-.064.053-.114.021-.15a2.3 2.3 0 0 0-.089-.096 3.013 3.013 0 0 0-.445.32l-.43.377-.11.095-.102.09a1.936 1.936 0 0 1-.212.184l-.219.184c-.077.064-.141.13-.191.199a.786.786 0 0 1-.144.164l-.089.068a.491.491 0 0 0-.109.082.836.836 0 0 1-.082.069.406.406 0 0 1-.109.061l-.123.048a1.121 1.121 0 0 0-.171.143l-.158.158a1.359 1.359 0 0 1-.123.11.619.619 0 0 0-.109.108c-.055.078-.121.16-.198.247l-.103.116a2.038 2.038 0 0 0-.095.116c-.005.041-.03.084-.076.13l-.13.13a.735.735 0 0 0-.054.061l-.062.062a.373.373 0 0 1-.13.095l-.095.021a.35.35 0 0 0-.11.034c-.027.01-.054.018-.082.027l-.095.042a.38.38 0 0 1-.206.027l-.164-.02a.295.295 0 0 1-.136-.062c0-.073-.023-.123-.069-.15.023-.124.053-.233.089-.329.037-.1.066-.205.089-.314.068-.096.121-.198.157-.308.037-.11.085-.22.144-.335.041-.114.089-.232.143-.355l.144-.328c.018-.055.034-.107.048-.157.018-.05.034-.099.048-.144a.851.851 0 0 1 .109-.246.633.633 0 0 0 .096-.205c.1-.119.15-.242.15-.37a.506.506 0 0 0 .11-.232c.022-.096.05-.182.082-.26l.047-.095a.466.466 0 0 0 .041-.24.223.223 0 0 1 .035-.13.735.735 0 0 1 .054-.06l.055-.056.055-.054a.735.735 0 0 0 .054-.062.123.123 0 0 0 .096-.068.236.236 0 0 1 .082-.082.662.662 0 0 0 .171-.069c.018-.018.03-.027.034-.027l.205-.102a.196.196 0 0 1 .041-.021c.018-.01.037-.018.055-.027a.34.34 0 0 1 .048-.02.298.298 0 0 0 .034-.015.25.25 0 0 1 .034-.013.329.329 0 0 0 .048-.02.685.685 0 0 1 .109-.083.651.651 0 0 0 .11-.082.573.573 0 0 1 .232.171c.064.078.082.18.055.308a.622.622 0 0 1-.041.13 2.86 2.86 0 0 1-.055.116.56.56 0 0 0-.034.13.372.372 0 0 1-.034.116 1.642 1.642 0 0 0-.123.253 1.318 1.318 0 0 1-.069.17c-.036.06-.068.12-.095.178a1.998 1.998 0 0 1-.076.178.507.507 0 0 1-.102.137 1.497 1.497 0 0 1-.082.096.495.495 0 0 0-.082.11 3.18 3.18 0 0 0-.192.273 1.882 1.882 0 0 1-.205.273l-.143.273a7.489 7.489 0 0 0-.144.288z" fill="#CDD8D3"/><path d="m159.988 32.199-.013.11c.009.031 0 .086-.028.163a.356.356 0 0 0-.082.178 6.923 6.923 0 0 1-.048.096.47.47 0 0 0-.034.11.501.501 0 0 0-.02.19.5.5 0 0 1 0 .11.616.616 0 0 1-.007.096 3.54 3.54 0 0 0-.041.294l-.027.294c0 .1-.01.214-.028.341a9.338 9.338 0 0 1-.054.342.5.5 0 0 1 .068.205.245.245 0 0 0 .096.178c.182-.027.328-.07.437-.13.109-.06.214-.143.315-.253a.828.828 0 0 0 .17-.095c.037-.032.089-.069.158-.11l.109-.11c.109-.058.171-.095.185-.109a.202.202 0 0 1 .034-.027l.055-.027c.154-.1.273-.205.355-.315.068-.054.125-.111.171-.17a.51.51 0 0 1 .212-.144.936.936 0 0 1 .198-.185.939.939 0 0 0 .198-.184c.05 0 .087.009.11.027.013.01.027.018.041.027l.054.028a.377.377 0 0 1 .014.225.585.585 0 0 1-.096.212c-.045.06-.068.096-.068.11 0 .009-.005.018-.014.027a1.04 1.04 0 0 1-.102.102.571.571 0 0 0-.103.103c-.045.082-.082.123-.109.123-.028 0-.05.01-.069.027-.082.05-.139.087-.17.11a1.14 1.14 0 0 1-.158.11.89.89 0 0 0-.177.108.166.166 0 0 1-.055.042 2.525 2.525 0 0 1-.321.307 1.919 1.919 0 0 0-.308.308l-.109.082a.365.365 0 0 0-.096.11c-.082.054-.148.109-.198.163l-.171.192a1.054 1.054 0 0 0-.178.116c-.077.06-.146.102-.205.13a2.376 2.376 0 0 1-.116.061.293.293 0 0 1-.13.035.561.561 0 0 1-.301-.028 2.76 2.76 0 0 0-.26-.082.488.488 0 0 0-.136-.137.928.928 0 0 1-.178-.355 12.609 12.609 0 0 1-.109-.438.983.983 0 0 0-.206.178.65.65 0 0 1-.246.178c-.091.087-.184.173-.28.26a5.358 5.358 0 0 1-.301.239c-.1.077-.202.16-.307.246-.105.082-.21.166-.315.253-.073.073-.123.1-.15.082-.082.1-.228.132-.438.096a1.558 1.558 0 0 0-.246-.096 1.732 1.732 0 0 1-.219-.082.693.693 0 0 1-.389-.205 1.547 1.547 0 0 1-.267-.383 1.845 1.845 0 0 1-.082-.308 4.654 4.654 0 0 1-.027-.116.486.486 0 0 0-.041-.184.197.197 0 0 1 0-.144c-.018-.023-.023-.052-.014-.089a.595.595 0 0 0 .014-.102 1.44 1.44 0 0 1 .034-.41c.032-.146.075-.279.13-.397a.728.728 0 0 1 .109-.137.167.167 0 0 0 .041-.082.147.147 0 0 1 .041-.068.704.704 0 0 1 .082-.082c.046-.037.078-.064.096-.082.023-.032.046-.062.068-.089a.517.517 0 0 1 .089-.082.68.68 0 0 0 .089-.075l.082-.082a.448.448 0 0 0 .075-.096.207.207 0 0 1 .103-.082.609.609 0 0 1 .123-.157 7.45 7.45 0 0 1 .15-.13c.155-.187.347-.346.575-.479.232-.132.437-.278.615-.437a.715.715 0 0 0 .164-.096l.137-.11a.38.38 0 0 1 .369-.095l.355.096c.091.082.18.164.267.246.086.082.162.173.225.273a.737.737 0 0 1 .103-.006.489.489 0 0 1 .116 0c.082.009.169.002.26-.021a.183.183 0 0 0 .082-.02.16.16 0 0 1 .068-.021c.137.045.205.114.205.205zm-1.804.205c-.246.119-.47.258-.67.417-.201.16-.392.33-.574.513a1.042 1.042 0 0 1-.076.068 1.022 1.022 0 0 0-.068.062.767.767 0 0 0-.232.294l-.089.177-.028.055a.225.225 0 0 1-.027.034.222.222 0 0 0-.027.034l-.028.041a.284.284 0 0 0-.02.137c.004.032.007.082.007.15v.137c0 .028.004.073.013.137.028.1.041.2.041.3 0 .074.007.163.021.267.014.105.048.176.102.212.06.037.117.046.171.028a.727.727 0 0 1 .158-.041c.319-.247.619-.504.902-.773.282-.269.533-.572.752-.909a4.95 4.95 0 0 1-.007-.69 1.825 1.825 0 0 0-.062-.623.174.174 0 0 0-.129-.02.438.438 0 0 1-.13-.007z" fill="#CDD8D3"/><path d="M151.266 32.978a.843.843 0 0 0 .218-.205c.087-.11.171-.214.253-.314.082-.105.144-.164.185-.178a1.56 1.56 0 0 1 .075-.116.335.335 0 0 1 .103-.089c.073-.132.168-.244.287-.335.123-.096.237-.198.342-.308a3.335 3.335 0 0 0 .526-.28c.178-.118.376-.18.595-.184.1.045.198.059.294.04a.326.326 0 0 1 .266.069c.05.087.091.139.123.157.032.018.06.044.082.075.037.114.064.19.082.226a.264.264 0 0 1 .041.116c.005.069.009.128.014.178.005.046.009.084.014.116.004.06.004.116 0 .171a4.772 4.772 0 0 1-.137.697l-.027.082c-.009.028-.019.057-.028.09a.717.717 0 0 1-.068.156 1.417 1.417 0 0 0-.144.212c-.041.073-.07.121-.088.144a5.04 5.04 0 0 1-.158.15 2.815 2.815 0 0 1-.13.123 1.805 1.805 0 0 0-.123.075 1.805 1.805 0 0 0-.123.076.812.812 0 0 1-.273.11l-.123.074a.291.291 0 0 1-.137.048c-.082.06-.173.107-.273.144a3.586 3.586 0 0 0-.287.116.798.798 0 0 0-.178.096c-.05.036-.114.073-.192.109-.041.014-.107.03-.198.048a.686.686 0 0 0-.184.048.667.667 0 0 1 .054.341.705.705 0 0 0 .069.342c.118.028.248.048.389.062.142.014.276.011.404-.007a.4.4 0 0 0 .068-.02l.082-.028.082-.027a.535.535 0 0 1 .082-.02c.1-.019.198-.042.294-.07a.984.984 0 0 0 .253-.108c.264-.092.519-.215.766-.37.246-.155.46-.323.642-.506.11-.072.23-.173.362-.3a2.2 2.2 0 0 0 .308-.356c.137-.146.258-.26.362-.342.105-.082.203-.118.294-.109.073 0 .144.043.212.13.069.087.062.18-.02.28a1.56 1.56 0 0 0-.287.246.91.91 0 0 1-.315.233c-.077.05-.18.15-.307.3-.123.142-.226.251-.308.329l-.062.061a.586.586 0 0 1-.082.068.705.705 0 0 0-.143.144 3.574 3.574 0 0 1-.41.3c-.05-.017-.091-.008-.123.028a.606.606 0 0 1-.199.164 1.459 1.459 0 0 0-.088.055 3.598 3.598 0 0 1-.24.191 1.791 1.791 0 0 1-.266.164 4.039 4.039 0 0 1-.274.15c-.091.051-.182.094-.273.13a2.586 2.586 0 0 0-.533.295l-.151.02a.349.349 0 0 1-.068.007l-.069.014a.415.415 0 0 1-.143.027.684.684 0 0 1-.171-.027 1.51 1.51 0 0 1-.738-.438.744.744 0 0 0-.089-.075.673.673 0 0 0-.089-.075.57.57 0 0 1-.15-.15 1.396 1.396 0 0 1-.123-.322 4.786 4.786 0 0 1-.117-.444 1.89 1.89 0 0 1-.047-.356c.027-.054.056-.148.088-.28.032-.137.06-.271.082-.403a2.06 2.06 0 0 0 .035-.287c.018-.019.054-.078.109-.178.05-.105.098-.21.144-.315a.762.762 0 0 0 .075-.205zm2.201-.875a5.23 5.23 0 0 1-.192.233 1.523 1.523 0 0 1-.218.205c-.055.1-.119.191-.192.273-.073.082-.146.16-.218.233a.59.59 0 0 1-.123.17 5.544 5.544 0 0 1-.151.13c-.059.1-.132.196-.219.288a.27.27 0 0 0-.054.314c.1.018.2.005.3-.041.101-.046.187-.087.26-.123a1.32 1.32 0 0 1 .11-.061l.116-.055.109-.055a.758.758 0 0 0 .103-.061l.355-.356c.055-.05.11-.11.164-.178l.069-.095.082-.11a.976.976 0 0 1 .109-.28.443.443 0 0 0 .068-.28.431.431 0 0 0-.047-.144.43.43 0 0 1-.048-.13c-.096 0-.167.016-.212.048a.354.354 0 0 1-.082.048 2.46 2.46 0 0 1-.089.027z" fill="#CDD8D3"/><path d="M151.17 28.453c.201.032.374.052.52.062.15.009.314-.003.492-.035l.54-.075c.146-.018.321-.039.526-.061a1.06 1.06 0 0 1 .171 0l.089.013h.082c.118 0 .235-.004.349-.013l.321-.028a.759.759 0 0 0 .048-.013.827.827 0 0 0 .048-.014.127.127 0 0 1 .082 0h.123c.041 0 .082-.002.123-.007a.275.275 0 0 1 .218.089c.028.091.037.141.028.15a.112.112 0 0 0-.028.041c-.009.119-.025.178-.047.178-.023 0-.035.01-.035.027a8.3 8.3 0 0 0-.184.048.188.188 0 0 0-.116.09 1.272 1.272 0 0 1-.431.02.666.666 0 0 0-.403.061 2.62 2.62 0 0 0-.199.103c-.063.04-.148.043-.253.007-.091 0-.195.004-.314.013a61.618 61.618 0 0 0-.868.075c-.192.014-.34.023-.444.028l-.431.02c-.187.01-.353.014-.499.014a.415.415 0 0 0-.144.232.38.38 0 0 1-.143.22 2.483 2.483 0 0 1-.178.348.613.613 0 0 0-.096.212 4.804 4.804 0 0 0-.348.512c-.096.164-.217.33-.363.5a.721.721 0 0 1-.102.266.86.86 0 0 0-.103.308 1.397 1.397 0 0 0-.218.45 3.306 3.306 0 0 1-.083.254 3.85 3.85 0 0 1-.095.266 2.681 2.681 0 0 1-.062.212 7.53 7.53 0 0 1-.075.212 1.47 1.47 0 0 1-.13.253 2.373 2.373 0 0 0-.143.253.099.099 0 0 0-.028.075.241.241 0 0 1-.013.075l-.041.096a1.914 1.914 0 0 1-.041.075c-.019.032-.041.08-.069.144a.633.633 0 0 0-.034.143.582.582 0 0 1-.034.144l-.014.04a.271.271 0 0 1-.013.035.17.17 0 0 0-.014.034l-.014.041c-.027.128-.027.215 0 .26a.969.969 0 0 1 .096.212l.027.068a.322.322 0 0 1 .041.13l.069.028a.91.91 0 0 1 .061.027.29.29 0 0 0 .13.027c.059.01.118-.016.178-.075.064-.064.118-.098.164-.102a.578.578 0 0 1 .184-.028c.06 0 .112-.014.158-.04.027-.024.052-.046.075-.07a.75.75 0 0 0 .061-.068c.028-.04.078-.072.151-.095.146-.037.223-.066.232-.09.005-.017.037-.051.096-.102.032-.023.061-.045.089-.068l.082-.061c.036-.032.098-.076.184-.13.091-.046.144-.073.158-.083a2.45 2.45 0 0 0 .116-.095 1.146 1.146 0 0 0 .232-.15c.05-.046.123-.096.219-.15.109-.047.169-.074.178-.083a.11.11 0 0 0 .027-.048c.005-.018.055-.057.15-.116a.624.624 0 0 1 .123-.178l.076-.075.088-.102c.06-.069.117-.124.171-.165a1.77 1.77 0 0 0 .158-.136.681.681 0 0 0 .068-.062.159.159 0 0 1 .096-.048c.027-.023.05-.043.068-.061a.837.837 0 0 0 .062-.055l.061-.061.096-.082.068-.069a.253.253 0 0 1 .068-.054c.042 0 .071.013.089.04a.111.111 0 0 0 .089.042c-.004.059-.009.107-.013.143v.082c0 .037-.01.07-.028.103-.054.086-.116.132-.184.136-.069.01-.121.06-.158.15-.027-.017-.061-.022-.102-.013a.18.18 0 0 0-.089.041.193.193 0 0 1 .027.096c0 .018.005.05.014.096-.169.168-.278.3-.328.396a1.75 1.75 0 0 0-.178.198l-.014.02-.109.11c-.127.1-.223.196-.287.287a.879.879 0 0 1-.287.246 1.917 1.917 0 0 0-.274.233l-.095.082a1.964 1.964 0 0 0-.103.116.662.662 0 0 1-.116.116 1.593 1.593 0 0 1-.185.123.595.595 0 0 0-.157.137.724.724 0 0 0-.294.219 1.07 1.07 0 0 1-.266.232 6.744 6.744 0 0 1-.335.205 2.354 2.354 0 0 1-.472.219l-.041.014a7.826 7.826 0 0 1-.212-.137.545.545 0 0 1-.171-.192 2.597 2.597 0 0 0-.198-.136.693.693 0 0 1-.144-.11 5.901 5.901 0 0 0-.143-.232 3.668 3.668 0 0 0-.164-.232 1.74 1.74 0 0 1-.267-.52.373.373 0 0 1-.034-.116l-.021-.13a3.202 3.202 0 0 0-.054-.191.463.463 0 0 1-.014-.206c0-.063.009-.123.027-.177l.028-.096.027-.11c.018-.059.039-.116.062-.17.022-.06.045-.116.068-.171.055-.123.093-.242.116-.356a7.77 7.77 0 0 1 .178-.547.561.561 0 0 0 .034-.13c.005-.04.03-.07.075-.088.037-.182.096-.358.178-.527.082-.168.164-.33.246-.485.05-.096.098-.191.144-.287l.136-.3.137-.295c.046-.1.094-.198.144-.294a.448.448 0 0 1 .109-.273.61.61 0 0 1 .109-.294.978.978 0 0 0 .137-.294.746.746 0 0 0-.335-.007c-.123.023-.23.043-.321.062-.164.004-.337.004-.52 0l-.095-.014a.517.517 0 0 0-.089-.02.755.755 0 0 0-.171-.021.422.422 0 0 1-.185-.02.144.144 0 0 0-.129-.007 3.202 3.202 0 0 0-.39-.287.57.57 0 0 1-.267-.315c0-.027.014-.05.041-.068a.76.76 0 0 0 .069-.055.628.628 0 0 1 .246-.02.37.37 0 0 0 .218-.048c.133.018.267.009.404-.028a1.1 1.1 0 0 1 .389-.04c.019 0 .046.004.082.013.037.01.064.014.083.014a.486.486 0 0 0 .116 0l.054-.014a.583.583 0 0 1 .24-.014c.063.01.127.01.191 0a1.6 1.6 0 0 1 .431.035.844.844 0 0 0 .444-.021l.068-.191c.028-.069.057-.135.089-.199.064-.132.112-.262.144-.39.036-.054.073-.115.109-.184a.972.972 0 0 0 .082-.198l.13-.219.055-.082c.018-.027.039-.055.061-.082a2.16 2.16 0 0 0 .144-.376l.055-.191c.022-.069.047-.14.075-.212a3.171 3.171 0 0 0 .355-.465c.069.009.121-.01.157-.055.042-.045.103-.04.185.014 0 .027.011.052.034.075.023.023.025.057.007.103.091.09.15.173.178.246a.454.454 0 0 1-.021.253.317.317 0 0 0 .021.266.206.206 0 0 1 .013.13c-.009.05-.004.089.014.116.023.05.048.096.075.137a.302.302 0 0 1 .048.178.356.356 0 0 1-.02.102 2.96 2.96 0 0 1-.048.13 2.057 2.057 0 0 1-.082.287l-.028.09a2.15 2.15 0 0 0-.027.088c-.064.078-.096.125-.096.144a.214.214 0 0 1-.013.061 2.552 2.552 0 0 1-.089.198l-.048.103a.679.679 0 0 1-.041.082z" fill="#CDD8D3"/><defs><radialGradient id="a" cx="0" cy="0" r="1" gradientUnits="userSpaceOnUse" gradientTransform="rotate(117.912 24.972 29.167) scale(6.64995 5.13242)"><stop stop-color="#1DF7EF"/><stop offset="1" stop-color="#10808C"/></radialGradient><radialGradient id="b" cx="0" cy="0" r="1" gradientUnits="userSpaceOnUse" gradientTransform="matrix(-2.79277 5.80502 -4.23137 -2.0357 64.14 21.966)"><stop stop-color="#1DF7EF"/><stop offset="1" stop-color="#10808C"/></radialGradient><radialGradient id="c" cx="0" cy="0" r="1" gradientUnits="userSpaceOnUse" gradientTransform="matrix(-2.40515 3.12903 -2.82083 -2.16826 66.121 24.273)"><stop stop-color="#1DF7EF"/><stop offset="1" stop-color="#10808C"/></radialGradient><radialGradient id="d" cx="0" cy="0" r="1" gradientUnits="userSpaceOnUse" gradientTransform="matrix(-2.96688 4.1389 -3.65663 -2.62118 65.954 27.624)"><stop stop-color="#1DF7EF"/><stop offset="1" stop-color="#10808C"/></radialGradient><radialGradient id="e" cx="0" cy="0" r="1" gradientUnits="userSpaceOnUse" gradientTransform="rotate(112.642 21.674 35.216) scale(3.71579 2.46326)"><stop stop-color="#1DF7EF"/><stop offset="1" stop-color="#10808C"/></radialGradient><radialGradient id="f" cx="0" cy="0" r="1" gradientUnits="userSpaceOnUse" gradientTransform="rotate(119.008 22.242 31.301) scale(2.33587 1.84832)"><stop stop-color="#1DF7EF"/><stop offset="1" stop-color="#10808C"/></radialGradient><radialGradient id="g" cx="0" cy="0" r="1" gradientUnits="userSpaceOnUse" gradientTransform="matrix(-15.84545 5.86487 -3.5621 -9.62393 69.554 31.507)"><stop stop-color="#FFDF27"/><stop offset="1" stop-color="#FE5468"/></radialGradient><radialGradient id="h" cx="0" cy="0" r="1" gradientUnits="userSpaceOnUse" gradientTransform="rotate(140.592 29.161 31.11) scale(8.16794 7.47511)"><stop stop-color="#1DF7EF"/><stop offset="1" stop-color="#10808C"/></radialGradient><radialGradient id="i" cx="0" cy="0" r="1" gradientUnits="userSpaceOnUse" gradientTransform="rotate(148.427 25.596 27.078) scale(9.67158 8.04956)"><stop stop-color="#1DF7EF"/><stop offset="1" stop-color="#10808C"/></radialGradient></defs></svg>