<svg width="25" height="24" viewBox="0 0 25 24" fill="none" xmlns="http://www.w3.org/2000/svg">
<g clip-path="url(#clip0_1053_15771)">
<path d="M15.0293 10.626L16.7047 7.85262L21.2204 14.7145L21.2225 16.0313L21.2078 6.96964C21.1971 6.74813 21.0766 6.54548 20.8842 6.42599L12.7542 1.86357C12.5641 1.7724 12.3229 1.77336 12.1331 1.8664C12.1075 1.87897 12.0833 1.89258 12.0603 1.90743L12.032 1.92483L4.14052 6.38635L4.10986 6.39989C4.0705 6.41757 4.03071 6.44002 3.99333 6.46612C3.84374 6.57083 3.74434 6.72562 3.7122 6.89926C3.70739 6.92557 3.70385 6.95237 3.70215 6.97938L3.71454 14.3638L7.92073 8.00339C8.45028 7.15999 9.60411 6.88834 10.6752 6.90312L11.9323 6.93552L4.52536 18.5244L5.39849 19.0149L12.8942 6.94726L16.2073 6.93552L8.73092 19.3077L11.8465 21.0559L12.2187 21.2648C12.3762 21.3272 12.5618 21.3303 12.7206 21.2745L20.9649 16.6133L19.3887 17.5044L15.0293 10.626ZM15.6685 19.6077L12.5217 14.7893L14.4426 11.6092L18.5754 17.9642L15.6685 19.6077Z" fill="#2D374B"/>
<path d="M12.522 14.7895L15.6688 19.6079L18.5757 17.9644L14.4429 11.6094L12.522 14.7895Z" fill="#28A0F0"/>
<path d="M21.2223 16.0322L21.2201 14.7154L16.7044 7.85352L15.0291 10.6269L19.3884 17.5053L20.9646 16.6142C21.1192 16.4918 21.2127 16.312 21.2226 16.118L21.2223 16.0322Z" fill="#28A0F0"/>
<path d="M2.29939 17.2739L4.52521 18.5252L11.9321 6.93628L10.675 6.90389C9.60396 6.88911 8.4502 7.16076 7.92057 8.00416L3.71438 14.3645L2.29932 16.4857V17.2739H2.29939Z" fill="white"/>
<path d="M16.2074 6.93555L12.8944 6.94729L5.39868 19.0149L8.01862 20.4866L8.73111 19.3077L16.2074 6.93555Z" fill="white"/>
<path d="M22.6186 6.91923C22.5909 6.24326 22.2157 5.6244 21.6281 5.26413L13.3915 0.643067C12.8102 0.357466 12.084 0.357121 11.5018 0.64286C11.433 0.676703 3.49187 5.16992 3.49187 5.16992C3.382 5.22131 3.27616 5.28257 3.17655 5.35206C2.65195 5.71888 2.33217 6.28884 2.29932 6.91509V16.4854L3.71438 14.3642L3.70199 6.97981C3.70369 6.9528 3.70716 6.92628 3.71205 6.90003C3.74398 6.72626 3.84344 6.57126 3.99318 6.46656C4.03056 6.44045 12.1072 1.8794 12.1329 1.86683C12.3228 1.7738 12.564 1.77283 12.7541 1.864L20.8841 6.42643C21.0764 6.54592 21.197 6.74857 21.2077 6.97007V16.1175C21.1978 16.3115 21.1192 16.4912 20.9646 16.6138L19.3884 17.5048L18.5752 17.9646L15.6683 19.6081L12.7204 21.2749C12.5616 21.3308 12.376 21.3277 12.2185 21.2652L8.73069 19.3081L8.0182 20.487L11.1526 22.2476C11.2563 22.3051 11.3486 22.356 11.4244 22.3976C11.5418 22.4618 11.6217 22.5047 11.65 22.5181C11.8727 22.6236 12.1932 22.6851 12.4821 22.6851C12.7469 22.6851 13.0051 22.6376 13.2495 22.5442L21.8119 17.7064C22.3034 17.335 22.5925 16.7748 22.6186 16.1679V6.91923Z" fill="#96BEDC"/>
</g>
<defs>
<clipPath id="clip0_1053_15771">
<rect width="23.575" height="23" fill="white" transform="translate(0.767822 0.150391)"/>
</clipPath>
</defs>
</svg>
