<svg width="121" height="32" viewBox="0 0 121 32" fill="none" xmlns="http://www.w3.org/2000/svg">
<path d="M17.3243 13.6093L19.3594 10.1858L24.8449 18.6561L24.8475 20.2816L24.8296 9.0959C24.8166 8.82248 24.6702 8.57233 24.4365 8.42484L14.5606 2.793C14.3296 2.68046 14.0366 2.68166 13.806 2.7965C13.7749 2.81202 13.7455 2.82881 13.7176 2.84714L13.6832 2.86863L4.09696 8.3759L4.05973 8.39261C4.01191 8.41443 3.96358 8.44214 3.91817 8.47437C3.73645 8.60362 3.61571 8.79469 3.57667 9.00903C3.57082 9.04151 3.56652 9.07459 3.56445 9.10793L3.5795 18.2232L8.68901 10.372C9.33229 9.33088 10.7339 8.99555 12.035 9.0138L13.5621 9.05379L4.56446 23.359L5.6251 23.9645L14.7306 9.06828L18.7552 9.05379L9.67319 24.3259L13.4579 26.4839L13.9101 26.7418C14.1013 26.8188 14.3268 26.8227 14.5197 26.7537L24.5345 21L22.6198 22.0999L17.3243 13.6093ZM18.1007 24.6962L14.2781 18.7484L16.6116 14.823L21.6318 22.6675L18.1007 24.6962Z" fill="#2D374B"/>
<path d="M14.2783 18.7487L18.1009 24.6965L21.6321 22.6678L16.6118 14.8232L14.2783 18.7487Z" fill="#28A0F0"/>
<path d="M24.8475 20.2817L24.8449 18.6563L19.3594 10.186L17.3242 13.6095L22.6197 22.1001L24.5344 21.0002C24.7223 20.8491 24.8359 20.6271 24.8478 20.3876L24.8475 20.2817Z" fill="#28A0F0"/>
<path d="M1.86044 21.8151L4.56427 23.3596L13.5619 9.05436L12.0348 9.01437C10.7337 8.99613 9.33219 9.33145 8.68882 10.3725L3.57932 18.2237L1.86035 20.8421V21.8151H1.86044Z" fill="white"/>
<path d="M18.755 9.0542L14.7305 9.06869L5.625 23.9649L8.8076 25.7816L9.6731 24.3263L18.755 9.0542Z" fill="white"/>
<path d="M26.5433 9.03335C26.5097 8.19892 26.054 7.43501 25.3401 6.9903L15.3347 1.28608C14.6286 0.93354 13.7464 0.933114 13.0391 1.28583C12.9555 1.3276 3.30902 6.87401 3.30902 6.87401C3.17555 6.93744 3.04698 7.01306 2.92597 7.09883C2.28872 7.55164 1.90026 8.25519 1.86035 9.02823V20.8417L3.57932 18.2234L3.56427 9.10812C3.56633 9.07479 3.57054 9.04204 3.57648 9.00965C3.61526 8.79514 3.73609 8.60382 3.91798 8.47456C3.96339 8.44234 13.7746 2.81221 13.8058 2.79669C14.0365 2.68185 14.3295 2.68066 14.5604 2.7932L24.4363 8.42503C24.67 8.57253 24.8165 8.82268 24.8294 9.0961V20.3876C24.8175 20.6271 24.722 20.849 24.5342 21.0002L22.6195 22.1001L21.6316 22.6677L18.1005 24.6964L14.5194 26.7539C14.3265 26.823 14.101 26.8191 13.9098 26.742L9.67292 24.3261L8.80742 25.7813L12.615 27.9546C12.7409 28.0255 12.8531 28.0884 12.9451 28.1398C13.0877 28.2191 13.1848 28.272 13.2191 28.2885C13.4898 28.4187 13.8791 28.4946 14.23 28.4946C14.5517 28.4946 14.8653 28.436 15.1622 28.3208L25.5634 22.349C26.1605 21.8905 26.5117 21.199 26.5433 20.4498V9.03335Z" fill="#96BEDC"/>
<g clip-path="url(#clip0_1092_15507)">
<mask id="mask0_1092_15507" style="mask-type:luminance" maskUnits="userSpaceOnUse" x="32" y="5" width="26" height="21">
<path d="M57.7631 5.4082H32.4463V25.9027H57.7631V5.4082Z" fill="white"/>
</mask>
<g mask="url(#mask0_1092_15507)">
<path d="M55.0488 5.4082H57.708L46.9256 17.6687C46.6524 17.977 46.6341 18.4485 46.9073 18.775L53.1181 25.9753H50.3497L44.6124 19.301L44.321 18.9382C44.0478 18.6299 44.066 18.1402 44.3392 17.8319L55.0488 5.4082Z" fill="#17B5CB"/>
<path d="M49.0568 18.775C48.8747 18.5755 48.8201 18.2853 48.8747 18.0314C48.9293 17.8863 49.0204 17.7412 49.1297 17.6324L49.84 16.8525L57.7629 25.9753H55.2494C55.2494 25.9753 50.605 20.5706 49.0568 18.775Z" fill="#17B5CB"/>
<path d="M35.2147 25.9753H32.4463L40.9338 16.1996C41.207 15.8912 41.207 15.4197 40.9338 15.1114L32.5191 5.4082H35.1783L43.6476 15.1839C43.8662 15.4741 43.9026 15.8912 43.6658 16.1633C41.4438 18.7206 35.2147 25.9753 35.2147 25.9753Z" fill="#17B5CB"/>
<path d="M39.8409 5.4082H37.291L45.141 14.4584C45.141 14.4584 45.1593 14.4403 46.0335 13.4065C46.2703 13.1345 46.3249 12.7899 46.0517 12.5178C44.4125 10.8492 39.8409 5.4082 39.8409 5.4082Z" fill="#17B5CB"/>
<path d="M47.4902 11.7198L52.9361 5.4082H50.3498L47.5085 8.70909L46.6888 9.67034C46.4156 9.97867 46.3974 10.4502 46.6706 10.7767C46.871 11.0125 47.4902 11.7198 47.4902 11.7198Z" fill="#17B5CB"/>
<path d="M42.7544 19.6636L37.3086 25.9752H39.8767L42.718 22.6743L43.5376 21.713C43.8108 21.4047 43.829 20.9331 43.5558 20.6067C43.3555 20.3709 42.7544 19.6636 42.7544 19.6636Z" fill="#17B5CB"/>
</g>
</g>
<g clip-path="url(#clip1_1092_15507)">
<g clip-path="url(#clip2_1092_15507)">
<path d="M108.156 29.067C115.249 29.067 121 23.3168 121 16.2235C121 9.13015 115.249 3.37988 108.156 3.37988C101.063 3.37988 95.3125 9.13015 95.3125 16.2235C95.3125 23.3168 101.063 29.067 108.156 29.067Z" fill="#FF0420"/>
<path d="M104.411 19.6345C103.646 19.6345 103.019 19.4547 102.531 19.0951C102.048 18.7303 101.807 18.2063 101.807 17.5333C101.807 17.3895 101.822 17.2199 101.853 17.0144C101.935 16.5521 102.053 15.9972 102.207 15.3448C102.644 13.5775 103.774 12.6938 105.593 12.6938C106.086 12.6938 106.533 12.776 106.924 12.9456C107.314 13.1048 107.622 13.3514 107.848 13.6802C108.074 14.0039 108.187 14.3892 108.187 14.8362C108.187 14.9697 108.172 15.1393 108.141 15.3448C108.043 15.915 107.93 16.475 107.792 17.0144C107.566 17.8929 107.18 18.5557 106.626 18.9923C106.076 19.4239 105.336 19.6345 104.411 19.6345ZM104.55 18.2474C104.91 18.2474 105.213 18.1395 105.464 17.9289C105.721 17.7183 105.906 17.3946 106.014 16.9528C106.163 16.3466 106.276 15.8225 106.353 15.3704C106.379 15.2369 106.394 15.0982 106.394 14.9543C106.394 14.3687 106.091 14.0758 105.48 14.0758C105.12 14.0758 104.812 14.1837 104.555 14.3943C104.303 14.605 104.124 14.9286 104.016 15.3704C103.898 15.802 103.785 16.326 103.666 16.9528C103.641 17.0812 103.625 17.2148 103.625 17.3586C103.62 17.9546 103.934 18.2474 104.55 18.2474Z" fill="white"/>
<path d="M108.635 19.5426C108.563 19.5426 108.511 19.522 108.47 19.4758C108.439 19.4244 108.429 19.3679 108.439 19.3011L109.77 13.0335C109.78 12.9615 109.816 12.905 109.878 12.8588C109.934 12.8125 109.996 12.792 110.063 12.792H112.626C113.341 12.792 113.911 12.941 114.342 13.2338C114.779 13.5318 115 13.9582 115 14.5182C115 14.6774 114.979 14.847 114.943 15.0216C114.784 15.7614 114.46 16.306 113.967 16.6605C113.484 17.015 112.822 17.1896 111.979 17.1896H110.679L110.238 19.3011C110.222 19.373 110.191 19.4296 110.13 19.4758C110.073 19.522 110.011 19.5426 109.945 19.5426H108.635ZM112.046 15.859C112.318 15.859 112.549 15.7871 112.75 15.6381C112.955 15.4891 113.089 15.2785 113.156 15.0011C113.176 14.8932 113.186 14.7956 113.186 14.7134C113.186 14.5284 113.13 14.3846 113.022 14.287C112.914 14.1842 112.724 14.1329 112.462 14.1329H111.306L110.941 15.859H112.046Z" fill="white"/>
</g>
</g>
<g clip-path="url(#clip3_1092_15507)">
<g clip-path="url(#clip4_1092_15507)">
<mask id="mask1_1092_15507" style="mask-type:luminance" maskUnits="userSpaceOnUse" x="63" y="8" width="78" height="16">
<path d="M140.797 8.46582H63.542V23.5636H140.797V8.46582Z" fill="white"/>
</mask>
<g mask="url(#mask1_1092_15507)">
<path fill-rule="evenodd" clip-rule="evenodd" d="M90.3584 15.8754L82.7513 8.46826V13.8929L75.1982 19.3243L82.7513 19.3294V23.2826L90.3584 15.8754Z" fill="#4E529A"/>
<path fill-rule="evenodd" clip-rule="evenodd" d="M63.54 15.873L71.1471 23.2802V17.8991L78.7003 12.4241L71.1471 12.419V8.46582L63.54 15.873Z" fill="#8C8DFC"/>
</g>
</g>
</g>
<defs>
<clipPath id="clip0_1092_15507">
<rect width="25.3168" height="20.4945" fill="white" transform="translate(32.4473 5.40771)"/>
</clipPath>
<clipPath id="clip1_1092_15507">
<rect width="25.6872" height="25.6872" fill="white" transform="translate(95.3125 3.37988)"/>
</clipPath>
<clipPath id="clip2_1092_15507">
<rect width="25.6872" height="25.6872" fill="white" transform="translate(95.3125 3.37988)"/>
</clipPath>
<clipPath id="clip3_1092_15507">
<rect width="27.0391" height="27.0391" fill="white" transform="translate(63.542 2.02783)"/>
</clipPath>
<clipPath id="clip4_1092_15507">
<rect width="77.2546" height="15.4509" fill="white" transform="translate(63.542 8.46582)"/>
</clipPath>
</defs>
</svg>
