<svg width="25" height="24" viewBox="0 0 25 24" fill="none" xmlns="http://www.w3.org/2000/svg">
<path d="M15.0298 10.626L16.7052 7.85262L21.2209 14.7145L21.223 16.0313L21.2083 6.96964C21.1976 6.74813 21.0771 6.54548 20.8847 6.42599L12.7547 1.86357C12.5646 1.7724 12.3234 1.77336 12.1336 1.8664C12.1079 1.87897 12.0838 1.89258 12.0608 1.90743L12.0325 1.92483L4.141 6.38635L4.11035 6.39989C4.07099 6.41757 4.0312 6.44002 3.99382 6.46612C3.84423 6.57083 3.74483 6.72562 3.71269 6.89926C3.70788 6.92557 3.70434 6.95237 3.70264 6.97938L3.71503 14.3638L7.92122 8.00339C8.45077 7.15999 9.6046 6.88834 10.6757 6.90312L11.9328 6.93552L4.52585 18.5244L5.39898 19.0149L12.8947 6.94726L16.2078 6.93552L8.7314 19.3077L11.847 21.0559L12.2192 21.2648C12.3767 21.3272 12.5623 21.3303 12.7211 21.2745L20.9653 16.6133L19.3891 17.5044L15.0298 10.626ZM15.669 19.6077L12.5222 14.7893L14.4431 11.6092L18.5758 17.9642L15.669 19.6077Z" fill="#2D374B"/>
<path d="M12.5225 14.7895L15.6693 19.6079L18.5761 17.9644L14.4434 11.6094L12.5225 14.7895Z" fill="#28A0F0"/>
<path d="M21.223 16.0322L21.2209 14.7154L16.7052 7.85352L15.0298 10.6269L19.3891 17.5053L20.9653 16.6142C21.1199 16.4918 21.2134 16.312 21.2233 16.118L21.223 16.0322Z" fill="#28A0F0"/>
<path d="M2.29988 17.2739L4.5257 18.5252L11.9326 6.93628L10.6755 6.90389C9.60444 6.88911 8.45068 7.16076 7.92106 8.00416L3.71487 14.3645L2.2998 16.4857V17.2739H2.29988Z" fill="white"/>
<path d="M16.2082 6.93555L12.8951 6.94729L5.39941 19.0149L8.01935 20.4866L8.73184 19.3077L16.2082 6.93555Z" fill="white"/>
<path d="M22.619 6.91923C22.5914 6.24326 22.2162 5.6244 21.6285 5.26413L13.392 0.643067C12.8107 0.357466 12.0845 0.357121 11.5023 0.64286C11.4335 0.676703 3.49236 5.16992 3.49236 5.16992C3.38248 5.22131 3.27664 5.28257 3.17703 5.35206C2.65244 5.71888 2.33265 6.28884 2.2998 6.91509V16.4854L3.71487 14.3642L3.70248 6.97981C3.70418 6.9528 3.70765 6.92628 3.71253 6.90003C3.74446 6.72626 3.84393 6.57126 3.99366 6.46656C4.03104 6.44045 12.1077 1.8794 12.1334 1.86683C12.3233 1.7738 12.5645 1.77283 12.7546 1.864L20.8845 6.42643C21.0769 6.54592 21.1975 6.74857 21.2082 6.97007V16.1175C21.1983 16.3115 21.1197 16.4912 20.9651 16.6138L19.3889 17.5048L18.5757 17.9646L15.6688 19.6081L12.7209 21.2749C12.5621 21.3308 12.3765 21.3277 12.219 21.2652L8.73118 19.3081L8.01869 20.487L11.1531 22.2476C11.2567 22.3051 11.3491 22.356 11.4249 22.3976C11.5423 22.4618 11.6222 22.5047 11.6504 22.5181C11.8732 22.6236 12.1937 22.6851 12.4826 22.6851C12.7474 22.6851 13.0056 22.6376 13.25 22.5442L21.8124 17.7064C22.3039 17.335 22.593 16.7748 22.619 16.1679V6.91923Z" fill="#96BEDC"/>
</svg>
