<svg width="431" height="140" viewBox="0 0 431 140" fill="none" xmlns="http://www.w3.org/2000/svg">
<g filter="url(#filter0_d_5410_25892)">
<path d="M-66.1542 2.4393C-75.7637 2.9231 -70.9763 19.589 -76 22.6956V196H520V57.266C515.915 58.2409 429.379 48.3322 429.379 48.3322C429.379 48.3322 368.621 57.266 368.224 57.266C362.179 57.266 333.738 74.0475 317.745 64.3189C301.753 54.5904 267.489 77.4024 254.819 67.099C238.847 54.1091 232.897 18.3813 232.897 18.3813C232.897 18.3813 232.224 9.01389 229.22 6.14598C227.771 4.76208 222 8.16093 222 8.16093C219.861 10.1177 211.498 6.14598 211.498 6.14598C211.498 6.14598 204.281 11.4812 202.308 11.1489C195.416 9.98765 197.923 8.33332 194.432 6.14598C191.01 4.00251 188.599 6.77792 186.153 4.46395C185.497 3.84277 185.819 3.00953 185.021 2.4382C183.972 1.68665 173.035 4.52802 171.937 4.76781C163.514 6.60652 151.75 9.05128 146.05 11.9845C145.163 12.441 143.137 14.4578 141.028 13.1746C138.854 11.851 137.712 7.0988 137.326 5.64659C136.861 3.89671 127.48 11.9845 127.48 11.9845C124.679 13.5573 121.481 17.3623 115.849 14.7699C110.681 12.391 102.406 11.5629 101.35 8.16093C100.468 5.31962 95.8955 10.7604 95.0552 11.5794C92.9972 13.5851 92.4062 17.3679 88.2653 18.9987C84.7623 20.3782 75.4199 13.809 72.988 15.4536C72.3389 15.8925 71.0449 17.8997 69.4516 17.6313C65.6786 16.9956 61.7243 15.4678 59.3375 14.3141C55.7036 12.5578 56.0196 10.8254 53.8914 8.92058C52.791 7.93566 36.2423 14.8206 36.2423 14.8206C35.3047 15.9745 11.2995 22.6956 11.2995 22.6956C2.29165 17.679 -5.39914 11.7374 -17.5815 7.37595C-32.421 2.06316 -44.333 1.34069 -66.1542 2.4393Z" fill="url(#paint0_linear_5410_25892)"/>
<path d="M-66.1542 2.4393C-75.7637 2.9231 -70.9763 19.589 -76 22.6956V196H520V57.266C515.915 58.2409 429.379 48.3322 429.379 48.3322C429.379 48.3322 368.621 57.266 368.224 57.266C362.179 57.266 333.738 74.0475 317.745 64.3189C301.753 54.5904 267.489 77.4024 254.819 67.099C238.847 54.1091 232.897 18.3813 232.897 18.3813C232.897 18.3813 232.224 9.01389 229.22 6.14598C227.771 4.76208 222 8.16093 222 8.16093C219.861 10.1177 211.498 6.14598 211.498 6.14598C211.498 6.14598 204.281 11.4812 202.308 11.1489C195.416 9.98765 197.923 8.33332 194.432 6.14598C191.01 4.00251 188.599 6.77792 186.153 4.46395C185.497 3.84277 185.819 3.00953 185.021 2.4382C183.972 1.68665 173.035 4.52802 171.937 4.76781C163.514 6.60652 151.75 9.05128 146.05 11.9845C145.163 12.441 143.137 14.4578 141.028 13.1746C138.854 11.851 137.712 7.0988 137.326 5.64659C136.861 3.89671 127.48 11.9845 127.48 11.9845C124.679 13.5573 121.481 17.3623 115.849 14.7699C110.681 12.391 102.406 11.5629 101.35 8.16093C100.468 5.31962 95.8955 10.7604 95.0552 11.5794C92.9972 13.5851 92.4062 17.3679 88.2653 18.9987C84.7623 20.3782 75.4199 13.809 72.988 15.4536C72.3389 15.8925 71.0449 17.8997 69.4516 17.6313C65.6786 16.9956 61.7243 15.4678 59.3375 14.3141C55.7036 12.5578 56.0196 10.8254 53.8914 8.92058C52.791 7.93566 36.2423 14.8206 36.2423 14.8206C35.3047 15.9745 11.2995 22.6956 11.2995 22.6956C2.29165 17.679 -5.39914 11.7374 -17.5815 7.37595C-32.421 2.06316 -44.333 1.34069 -66.1542 2.4393Z" stroke="#1DF7EF" stroke-width="3" stroke-linecap="round"/>
</g>
<defs>
<filter id="filter0_d_5410_25892" x="-81.5" y="0.5" width="607" height="205" filterUnits="userSpaceOnUse" color-interpolation-filters="sRGB">
<feFlood flood-opacity="0" result="BackgroundImageFix"/>
<feColorMatrix in="SourceAlpha" type="matrix" values="0 0 0 0 0 0 0 0 0 0 0 0 0 0 0 0 0 0 127 0" result="hardAlpha"/>
<feOffset dy="4"/>
<feGaussianBlur stdDeviation="2"/>
<feComposite in2="hardAlpha" operator="out"/>
<feColorMatrix type="matrix" values="0 0 0 0 0 0 0 0 0 0 0 0 0 0 0 0 0 0 0.25 0"/>
<feBlend mode="normal" in2="BackgroundImageFix" result="effect1_dropShadow_5410_25892"/>
<feBlend mode="normal" in="SourceGraphic" in2="effect1_dropShadow_5410_25892" result="shape"/>
</filter>
<linearGradient id="paint0_linear_5410_25892" x1="222" y1="2" x2="222" y2="196" gradientUnits="userSpaceOnUse">
<stop stop-color="#1DF7EF"/>
<stop offset="1" stop-color="#10808C"/>
</linearGradient>
</defs>
</svg>
