<svg width="172" height="38" viewBox="0 0 172 38" fill="none" xmlns="http://www.w3.org/2000/svg">
<path d="M9.26814 13.2873C9.21314 12.5199 9.42214 11.8152 9.87055 11.132C10.1708 10.6777 10.5965 10.1873 11.0663 9.64697C12.2782 8.25128 13.7794 6.52365 14.1469 4.23438C14.946 5.98918 14.5584 7.69546 13.6739 9.26456C13.276 9.96985 12.8353 10.4765 12.4148 10.9598C11.9198 11.5286 11.4532 12.065 11.1181 12.8538C10.9337 13.2828 10.8288 13.6936 10.7797 14.0955L9.26814 13.2873Z" fill="#CDD8D3"/>
<path d="M11.8628 14.6755C12.0472 13.9987 12.3662 13.3658 12.79 12.7518C13.1407 12.2393 13.4694 11.8595 13.7645 11.5185C14.7571 10.37 15.3731 9.65693 15.1925 5.80762C15.3083 6.05479 15.4229 6.29291 15.5342 6.52261L15.5348 6.5239C16.5028 8.53365 17.1822 9.94293 16.0408 11.8783C15.4766 12.8346 15.0651 13.3102 14.7014 13.7308C14.2918 14.2038 13.9424 14.6082 13.5031 15.549L11.8628 14.6755Z" fill="#CDD8D3"/>
<path d="M16.1128 14.0694C15.6676 14.5968 14.941 15.324 14.908 15.3719L19.02 13.0729C18.9339 12.3068 18.369 11.4042 17.6748 10.1211C17.8152 11.8125 17.1552 12.8342 16.1128 14.0694Z" fill="#CDD8D3"/>
<path d="M18.9904 13.8369C18.8798 14.3274 18.2741 15.3478 17.829 15.8777C16.4223 17.551 15.6898 18.2647 14.4863 20.7824C14.4183 20.51 14.3472 20.2531 14.2792 20.0079C13.9434 18.7966 13.737 17.7878 14.1395 16.9182L18.9904 13.8369Z" fill="#CDD8D3"/>
<path d="M13.5572 19.5098C13.213 18.5023 12.9658 17.6599 13.1457 16.5942L11.7079 15.6572C11.6283 17.225 12.298 19.0555 14.1473 21.4121C14.049 20.8285 13.7539 20.0857 13.5572 19.5098Z" fill="#CDD8D3"/>
<path d="M10.7486 15.0321C10.7732 15.542 11.0884 16.8898 11.3705 17.6029C10.5655 16.576 9.68554 15.0004 9.43384 14.1748L10.7486 15.0321Z" fill="#CDD8D3"/>
<path d="M27.6846 22.6964C27.6846 20.3638 23.3467 18.4019 17.4844 17.8525C16.9254 18.4802 16.3663 19.2592 15.8318 20.4078L15.0269 21.9367C14.8736 22.2189 14.5908 22.4039 14.277 22.4285C13.958 22.4531 13.6506 22.3133 13.4604 22.0577L12.944 21.3641C11.8686 19.991 11.0818 18.9034 10.4613 17.8855C4.77177 18.4776 0.59375 20.4084 0.59375 22.6964C0.59375 25.4548 6.6644 27.6942 14.1424 27.6942C14.5034 27.6942 14.8619 27.689 15.2165 27.6787L16.3139 24.5722L16.323 24.5502C16.565 23.9452 17.1473 23.5492 17.795 23.5401H17.7995L27.4879 23.566C27.5875 23.3221 27.6846 22.9507 27.6846 22.6964Z" fill="#CDD8D3"/>
<path d="M18.1948 27.7607H25.7854L25.4534 28.6025H17.903L16.2219 33.3979V28.3056L17.3976 24.9791C17.4643 24.8108 17.6273 24.6989 17.8104 24.6963L27.0115 24.6989L26.6712 25.5284H18.99L18.7545 26.2285H26.4085L26.0448 27.0606H18.4607L18.1948 27.7607Z" fill="#CDD8D3"/>
<path d="M1.06006 24.9004C1.93423 27.3721 4.07338 30.2755 4.52826 30.6999C6.09931 32.1797 11.1612 33.3981 15.1477 33.3981V29.2318C8.23717 29.2318 2.84204 26.9936 1.06006 24.9004Z" fill="#CDD8D3"/>
<path d="M158.463 27.9787L163.349 22.0959H158.666V20.5068H165.783V21.893L160.931 27.7758H165.867V29.3649H158.463V27.9787Z" fill="#CDD8D3"/>
<path d="M149.947 31.0892C150.149 31.1342 150.335 31.1737 150.504 31.2075C150.685 31.2413 150.837 31.2582 150.961 31.2582C151.175 31.2582 151.35 31.2019 151.485 31.0892C151.631 30.9877 151.772 30.7961 151.907 30.5144C152.043 30.2439 152.184 29.8608 152.33 29.3649L148.831 20.5068H151.181L153.564 27.0489L155.66 20.5068H157.824L154.105 31.123C153.97 31.5174 153.761 31.8724 153.48 32.188C153.209 32.5148 152.865 32.7684 152.448 32.9487C152.043 33.1403 151.586 33.2361 151.079 33.2361C150.899 33.2361 150.718 33.2192 150.538 33.1853C150.358 33.1628 150.161 33.1177 149.947 33.0501V31.0892Z" fill="#CDD8D3"/>
<path d="M142.233 20.5068L144.092 23.2792L144.227 23.5835L144.396 23.2792L146.239 20.5068H148.623L145.546 24.919L148.673 29.3649H146.29L144.379 26.6094L144.227 26.322L144.092 26.6094L142.199 29.3649H139.815L142.943 24.9697L139.866 20.5068H142.233Z" fill="#CDD8D3"/>
<path d="M136.932 29.3649V26.9307H138.792V29.3649H136.932Z" fill="#CDD8D3"/>
<path d="M51.0539 26.5012C50.8799 26.0097 50.7917 25.4849 50.7917 24.9239C50.7917 24.3288 50.8854 23.7831 51.0689 23.2839C51.2548 22.7784 51.5101 22.3408 51.8342 21.966C52.1668 21.5832 52.5502 21.2951 52.9871 21.097L52.9871 21.097L52.9915 21.0949C53.4361 20.8871 53.9299 20.7808 54.4807 20.7808C55.099 20.7808 55.6221 20.9216 56.0644 21.1908L56.0644 21.1909L56.0702 21.1943C56.5289 21.4634 56.9083 21.8269 57.2102 22.2906L57.9775 23.4687V22.0627V20.9322H59.112V28.9123C59.112 29.7176 58.9169 30.3772 58.5463 30.9141L58.5463 30.914L58.5417 30.921C58.1743 31.4768 57.6611 31.9039 56.9888 32.1989L56.9887 32.1989L56.9836 32.2012C56.3056 32.5096 55.5244 32.6686 54.6321 32.6686C53.7242 32.6686 52.9832 32.5136 52.3923 32.2237L52.3923 32.2237L52.3875 32.2214C51.8959 31.988 51.4615 31.6734 51.0837 31.2753L51.72 30.6563C52.0372 30.9652 52.4058 31.217 52.823 31.4116L52.8262 31.413C53.3971 31.6734 54.0005 31.8041 54.6321 31.8041C55.1648 31.8041 55.6603 31.7049 56.1117 31.4999C56.5899 31.2995 56.9725 30.9766 57.252 30.5399C57.5572 30.0931 57.692 29.5399 57.692 28.9123V27.8018V26.2465L57.5659 26.4644C57.6007 26.3972 57.6322 26.3294 57.6605 26.261L57.692 26.1845V26.1018V23.9982V23.9201L57.6638 23.8473C57.5108 23.4525 57.2921 23.1028 57.0071 22.8039C56.7378 22.5108 56.4265 22.2813 56.072 22.1225C55.7256 21.9512 55.3559 21.864 54.9689 21.864C54.5602 21.864 54.1793 21.9506 53.8338 22.1296L53.8329 22.13C53.4952 22.3061 53.2075 22.5546 52.9707 22.8694C52.7409 23.1646 52.5627 23.4962 52.4366 23.8623L52.4365 23.8623L52.434 23.87C52.3185 24.2282 52.2624 24.6025 52.2624 24.9913C52.2624 25.3987 52.3324 25.7876 52.4761 26.1537C52.6169 26.5121 52.8115 26.8306 53.0599 27.1054L53.0598 27.1055L53.0672 27.1133C53.328 27.3872 53.6292 27.603 53.9688 27.7599L53.9687 27.76L53.9742 27.7624C54.3313 27.9213 54.7093 28.0005 55.103 28.0005C55.3953 28.0005 55.6775 27.9539 55.9476 27.8592C56.2088 27.7683 56.451 27.6438 56.6737 27.4865C56.8956 27.3298 57.0916 27.1463 57.2615 26.9376L57.2617 26.9377L57.2692 26.9278C57.3274 26.8518 57.3815 26.775 57.4312 26.6973L56.9132 27.5928C56.6626 28.0259 56.3079 28.3637 55.8373 28.6087C55.3699 28.8474 54.8746 28.9663 54.346 28.9663C53.8195 28.9663 53.3424 28.866 52.908 28.6694C52.4807 28.4599 52.107 28.1712 51.786 27.8006C51.4727 27.4261 51.2286 26.9943 51.0539 26.5013L51.0539 26.5012Z" fill="#CDD8D3" stroke="#CDD8D3" stroke-width="0.834951"/>
<path d="M62.7267 23.999V28.9165H61.3066V20.933H62.5419V22.4003L63.33 22.5924C63.6184 22.0359 63.976 21.6131 64.398 21.3084C64.8199 21.0048 65.2516 20.8456 65.6995 20.8149H65.7226V22.0663C65.1449 22.1116 64.6097 22.2533 64.1218 22.4962C63.5074 22.7916 63.0479 23.2326 62.7675 23.8189L62.7267 23.9043V23.999Z" fill="#CDD8D3" stroke="#CDD8D3" stroke-width="0.834951"/>
<path d="M66.7634 26.5234L66.7632 26.5229C66.5691 26.0229 66.4714 25.4966 66.4714 24.9406C66.4714 24.3729 66.5694 23.8408 66.7632 23.3416L66.7634 23.3413C66.9571 22.8409 67.2322 22.3983 67.5877 22.0108C67.9487 21.6308 68.3862 21.3333 68.9059 21.1195L68.9059 21.1196L68.9124 21.1168C69.4251 20.8957 70.0125 20.7808 70.6825 20.7808C71.3522 20.7808 71.933 20.8958 72.4326 21.1156L72.4326 21.1157L72.4419 21.1195C72.9626 21.3338 73.4008 21.6319 73.7623 22.0131C74.1271 22.399 74.4001 22.8385 74.5818 23.3342L74.5817 23.3342L74.5846 23.3416C74.7784 23.8408 74.8764 24.3729 74.8764 24.9406C74.8764 25.4966 74.7788 26.0229 74.5846 26.5229L74.5845 26.5229L74.5817 26.5305C74.4 27.0267 74.1271 27.4657 73.762 27.8518L73.762 27.8518L73.7584 27.8557C73.4087 28.235 72.9769 28.5385 72.456 28.7636C71.9422 28.9745 71.3529 29.0844 70.6825 29.0844C70.0117 29.0844 69.4229 28.9745 68.9091 28.7636C68.3882 28.5385 67.9495 28.2346 67.5877 27.8537C67.2321 27.4662 66.9571 27.0242 66.7634 26.5234ZM68.3064 26.5075L68.3064 26.5075L68.3085 26.5115C68.5416 26.9646 68.8644 27.3304 69.2777 27.597C69.6973 27.8679 70.1696 28.0005 70.6825 28.0005C71.1865 28.0005 71.6524 27.8667 72.0701 27.597L72.0702 27.5971L72.0779 27.5919C72.4854 27.3158 72.8065 26.948 73.0384 26.4967C73.2867 26.0261 73.4057 25.4982 73.4057 24.9239C73.4057 24.36 73.2863 23.8392 73.0396 23.3701C72.8078 22.9069 72.4847 22.5349 72.0701 22.2675C71.6524 21.9979 71.1865 21.864 70.6825 21.864C70.1665 21.864 69.6929 22.0043 69.2738 22.2867C68.8604 22.555 68.539 22.9267 68.3074 23.3884C68.0709 23.8491 67.9594 24.3702 67.9594 24.9406C67.9594 25.5121 68.0713 26.0379 68.3064 26.5075Z" fill="#CDD8D3" stroke="#CDD8D3" stroke-width="0.834951"/>
<path d="M81.481 25.3987L80.1363 28.9166H78.8006L75.4791 20.9331H76.6893L79.2109 27.3329L79.6187 28.368L79.9925 27.3201L81.019 24.4422L81.0724 24.2923L81.0125 24.1448L79.7146 20.9498H80.6628L81.4754 23.3583L81.8437 24.4499L81.481 25.3987ZM82.2658 23.3606L83.0946 20.9498H84.0446L82.7467 24.1448L82.6863 24.2934L82.741 24.4442L83.7841 27.3221L84.1616 28.3634L84.5654 27.332L87.0706 20.9331H88.2957L84.9591 28.9166H83.6372L82.2598 25.3957L81.8905 24.4519L82.2658 23.3606Z" fill="#CDD8D3" stroke="#CDD8D3" stroke-width="0.834951"/>
<path d="M95.6385 28.4651C95.4555 28.5408 95.2344 28.6273 94.9751 28.7244C94.7164 28.8216 94.4356 28.8967 94.134 28.9509C93.8425 29.0153 93.5457 29.0481 93.2441 29.0481C92.8447 29.0481 92.4781 28.9778 92.1431 28.8377C91.8087 28.6976 91.5393 28.4765 91.3342 28.1742C91.1399 27.8613 91.0427 27.4566 91.0427 26.9606V22.0894H89.9263V20.4228H91.0427V17.6718H93.2113V20.4228H95.3965V22.0894H93.2113V26.2322C93.222 26.5237 93.3031 26.7341 93.4539 26.8635C93.6053 26.9928 93.7943 27.0578 94.0208 27.0578C94.2473 27.0578 94.4684 27.0196 94.6842 26.9445C94.9 26.8688 95.0723 26.8039 95.2016 26.7502L95.6385 28.4651ZM103.516 28.9021H101.348V24.1447C101.348 23.4866 101.218 22.9955 100.959 22.6718C100.711 22.3487 100.366 22.1866 99.9238 22.1866C99.6651 22.1866 99.3897 22.2623 99.0982 22.4131C98.8073 22.5639 98.5427 22.7743 98.3054 23.0443C98.0789 23.303 97.9114 23.6053 97.8041 23.9504V28.9021H95.6356V17.0889H97.8041V21.7026C98.1689 21.3276 98.5427 21.032 99.0821 20.7303C99.6216 20.4281 100.21 20.2773 100.846 20.2773C101.396 20.2773 101.844 20.3739 102.19 20.5682C102.535 20.7518 102.804 21.0051 102.998 21.3288C103.193 21.6418 103.327 21.9976 103.403 22.397C103.478 22.785 103.516 23.1898 103.516 23.6106V28.9021ZM108.201 29.0642C107.521 29.0642 106.907 28.9509 106.357 28.7244C105.807 28.4872 105.337 28.1689 104.949 27.7695C104.56 27.3594 104.258 26.8956 104.042 26.3777C103.838 25.8495 103.735 25.2934 103.735 24.711C103.735 23.9021 103.913 23.163 104.269 22.4942C104.636 21.8254 105.154 21.2913 105.823 20.8919C106.502 20.4818 107.3 20.2773 108.218 20.2773C109.145 20.2773 109.938 20.4818 110.596 20.8919C111.254 21.2913 111.756 21.8254 112.101 22.4942C112.457 23.1522 112.635 23.864 112.635 24.6299C112.635 24.7599 112.63 24.8946 112.619 25.0347C112.608 25.164 112.598 25.2719 112.587 25.3583H106.033C106.076 25.7899 106.2 26.1672 106.405 26.4909C106.621 26.8146 106.89 27.0631 107.214 27.2354C107.549 27.3975 107.905 27.478 108.282 27.478C108.714 27.478 109.118 27.3755 109.496 27.171C109.884 26.9553 110.148 26.6745 110.289 26.3294L112.15 26.8474C111.945 27.2789 111.648 27.6616 111.26 27.996C110.882 28.3304 110.435 28.5951 109.917 28.7888C109.399 28.9724 108.827 29.0642 108.201 29.0642ZM105.984 23.7954H110.418C110.375 23.3638 110.251 23.1791 110.046 22.8661C109.852 22.5424 109.593 22.2945 109.269 22.1216C108.946 21.9386 108.584 21.8468 108.185 21.8468C107.797 21.8468 107.441 21.9386 107.117 22.1216C106.804 22.2945 106.545 22.5424 106.34 22.8661C106.146 23.1791 106.028 23.3638 105.984 23.7954Z" stroke="#CDD8D3" stroke-width="0.834951"/>
<path d="M115.737 27.7861V32.5021H114.317V20.9331H115.451V22.0303V23.4342L116.218 22.2584C116.52 21.796 116.897 21.4397 117.353 21.1818L117.353 21.1819L117.359 21.1786C117.804 20.9172 118.319 20.7817 118.915 20.7817C119.453 20.7817 119.935 20.8881 120.367 21.0945L120.367 21.0945L120.371 21.0961C120.822 21.3063 121.212 21.6018 121.545 21.9848L121.545 21.9848L121.549 21.9888C121.882 22.3623 122.142 22.7991 122.327 23.3022L122.327 23.3022L122.33 23.3116C122.522 23.7971 122.621 24.3281 122.621 24.9082C122.621 25.7049 122.464 26.4161 122.158 27.0492L122.158 27.0492L122.155 27.0542C121.858 27.6891 121.449 28.1858 120.929 28.5565C120.432 28.9065 119.856 29.0853 119.184 29.0853C118.565 29.0853 118.035 28.9496 117.579 28.6892C117.127 28.4131 116.776 28.0464 116.52 27.5839L115.737 26.1702V27.7861ZM116.16 22.9001L116.156 22.9056L116.151 22.9113C115.973 23.1302 115.84 23.3733 115.757 23.6377L115.737 23.6992V23.7637V25.8339V25.9169L115.769 25.9936C115.92 26.3577 116.121 26.6915 116.373 26.9937L116.373 26.9937L116.379 27.0013C116.647 27.3073 116.958 27.554 117.309 27.736L117.309 27.7362L117.32 27.7413C117.675 27.9128 118.046 28.0015 118.427 28.0015C118.834 28.0015 119.216 27.9157 119.562 27.7358C119.894 27.5638 120.178 27.3309 120.415 27.0416C120.661 26.7443 120.843 26.413 120.961 26.05C121.087 25.6816 121.15 25.3007 121.15 24.9082C121.15 24.493 121.081 24.1006 120.938 23.7353C120.808 23.3718 120.611 23.0497 120.348 22.7731C120.087 22.4856 119.778 22.2619 119.423 22.1047C119.073 21.9435 118.694 21.8656 118.292 21.8656C118.029 21.8656 117.765 21.9139 117.504 22.0042C117.252 22.0845 117.011 22.2033 116.781 22.3565C116.549 22.5112 116.342 22.6922 116.16 22.9001Z" fill="#CDD8D3" stroke="#CDD8D3" stroke-width="0.834951"/>
<path d="M124.312 28.9172V20.9331H125.732V28.9172H124.312ZM124.312 18.8696V17.4663H125.732V18.8696H124.312Z" fill="#CDD8D3" stroke="#CDD8D3" stroke-width="0.834951"/>
<path d="M133.149 27.8978C133.5 27.7031 133.783 27.4551 133.983 27.15L135.076 27.4539C134.92 27.676 134.732 27.8829 134.509 28.075L134.509 28.075L134.505 28.0787C134.154 28.3885 133.735 28.6377 133.242 28.8235C132.754 28.9955 132.208 29.0844 131.601 29.0844C130.942 29.0844 130.358 28.9748 129.844 28.7636C129.32 28.5373 128.88 28.2377 128.519 27.8662C128.152 27.4783 127.867 27.0411 127.663 26.5523C127.47 26.0536 127.373 25.5289 127.373 24.9746C127.373 24.1982 127.543 23.498 127.878 22.8674C128.223 22.2393 128.708 21.7385 129.34 21.3614L129.34 21.3614L129.342 21.3604C129.974 20.9791 130.728 20.7808 131.617 20.7808C132.52 20.7808 133.264 20.9797 133.87 21.3572L133.87 21.3573L133.875 21.3599C134.495 21.7358 134.963 22.2348 135.285 22.8603L135.285 22.8604L135.289 22.8676C135.626 23.4894 135.794 24.1619 135.794 24.8905C135.794 24.9982 135.79 25.1113 135.782 25.2307H129.345H128.883L128.93 25.6901C128.981 26.194 129.127 26.6508 129.38 27.0495L129.38 27.0495L129.385 27.0573C129.645 27.4482 129.976 27.7549 130.377 27.9686L130.384 27.9726L130.392 27.9763C130.798 28.1721 131.23 28.27 131.685 28.27C132.203 28.27 132.692 28.146 133.146 27.8999L133.146 27.8999L133.149 27.8978ZM128.88 24.1762L128.834 24.635H129.295H133.906H134.368L134.322 24.1756C134.271 23.6744 134.126 23.2228 133.873 22.8346C133.635 22.4396 133.313 22.1308 132.912 21.9162C132.509 21.6891 132.064 21.5785 131.583 21.5785C131.112 21.5785 130.671 21.6906 130.269 21.9176C129.879 22.1334 129.559 22.442 129.312 22.8334L129.312 22.8334L129.311 22.8359C129.069 23.224 128.929 23.6752 128.88 24.1762Z" fill="#CDD8D3" stroke="#CDD8D3" stroke-width="0.834951"/>
<path d="M70.6499 14.9214C70.3011 15.0149 69.9558 15.0494 69.614 15.0249C69.2843 14.9972 68.9809 14.9238 68.704 14.8046C68.4239 14.6734 68.1838 14.4992 67.9838 14.282C67.7958 14.0616 67.6632 13.8071 67.5858 13.5184C67.4504 13.0132 67.5393 12.551 67.8525 12.1319C68.1777 11.7095 68.6711 11.4097 69.3327 11.2324C69.6455 11.1486 69.9623 11.1282 70.2832 11.1711C70.613 11.1988 70.9119 11.2799 71.18 11.4143C71.4601 11.5455 71.7002 11.7197 71.9002 11.9369C72.1002 12.154 72.2373 12.401 72.3114 12.6776C72.4532 13.2069 72.372 13.6735 72.0676 14.0774C71.7721 14.466 71.2995 14.7473 70.6499 14.9214Z" fill="url(#paint0_linear_6072_24450)"/>
<path d="M59.201 6.70802C59.6438 6.58939 60.1157 6.52669 60.6167 6.51992C61.116 6.50654 61.5853 6.54013 62.0248 6.62069C62.4625 6.69464 62.837 6.81031 63.1483 6.9677C63.4596 7.12509 63.6436 7.30952 63.7002 7.52097C63.7286 7.6267 63.7142 7.75804 63.6571 7.91499C63.5982 8.06534 63.5186 8.21768 63.4183 8.37204C63.3163 8.51979 63.1966 8.65456 63.0592 8.77635C62.9267 8.88977 62.801 8.96241 62.682 8.99428C62.5234 9.03678 62.3273 9.0185 62.0937 8.93946C61.8666 8.85865 61.6129 8.77081 61.3325 8.67596C61.057 8.57273 60.7627 8.49222 60.4498 8.43443C60.1368 8.37663 59.8184 8.39111 59.4946 8.47787C59.2832 8.53453 59.1222 8.63432 59.0118 8.77723C58.9062 8.91177 58.8782 9.07155 58.9278 9.25657C58.972 9.42177 59.0965 9.56903 59.3011 9.69835C59.504 9.82105 59.7582 9.93709 60.0637 10.0465C60.3758 10.154 60.7236 10.2627 61.1072 10.3724C61.4907 10.4821 61.8843 10.6033 62.2882 10.7359C62.6986 10.8667 63.1044 11.02 63.5057 11.1958C63.9069 11.3716 64.278 11.5803 64.6189 11.8218C64.9664 12.0615 65.2691 12.3452 65.5268 12.6727C65.7828 12.9937 65.9683 13.3689 66.0834 13.7985C66.1826 14.1685 66.2068 14.5232 66.1561 14.8626C66.1054 15.202 65.987 15.5135 65.8009 15.797C65.6149 16.0806 65.3693 16.327 65.0641 16.5363C64.759 16.7455 64.4049 16.9042 64.0018 17.0122C63.4929 17.1485 63.0025 17.1949 62.5305 17.1514C62.0603 17.1145 61.6335 17.0022 61.2504 16.8145C60.8672 16.6268 60.5359 16.3685 60.2566 16.0397C59.9839 15.709 59.7873 15.3191 59.6669 14.8697C59.5111 14.2882 59.5002 13.8378 59.6342 13.5186C59.7748 13.1976 60.0698 12.977 60.5192 12.8566C60.7967 12.7822 61.0323 12.7757 61.2258 12.8372C61.4193 12.8987 61.5364 13.0054 61.5772 13.1574C61.5984 13.2367 61.6073 13.3228 61.6039 13.4158C61.5987 13.5022 61.592 13.5961 61.5838 13.6974C61.5803 13.7904 61.5787 13.89 61.5788 13.9962C61.5856 14.1006 61.6022 14.2024 61.6288 14.3015C61.6748 14.4733 61.7587 14.6279 61.8805 14.7653C62.0023 14.9026 62.1452 15.0131 62.3093 15.0966C62.4817 15.185 62.6668 15.2416 62.8647 15.2665C63.0626 15.2913 63.2607 15.2772 63.4589 15.2241C63.9876 15.0825 64.1935 14.7936 64.0766 14.3574C63.9845 14.0138 63.7623 13.7263 63.4099 13.4949C63.0558 13.257 62.6349 13.0475 62.1473 12.8665C61.6579 12.6789 61.1355 12.5002 60.58 12.3303C60.0312 12.1587 59.5085 11.9658 59.0121 11.7518C58.5156 11.5378 58.0832 11.2854 57.7149 10.9945C57.3448 10.6971 57.1022 10.3336 56.9871 9.90405C56.8915 9.54721 56.8766 9.20064 56.9423 8.86432C57.0146 8.52623 57.1512 8.21693 57.3523 7.93642C57.5516 7.6493 57.8071 7.40023 58.1188 7.18921C58.4372 6.97643 58.7979 6.81603 59.201 6.70802Z" fill="url(#paint1_linear_6072_24450)"/>
<path d="M56.4044 14.3507C56.5517 14.1341 56.7179 14.0011 56.903 13.9515C57.0087 13.9232 57.1116 13.9239 57.2117 13.9538C57.3117 13.9836 57.4297 14.0405 57.5655 14.1245C57.7054 14.25 57.8084 14.3569 57.8746 14.4454C57.9456 14.5255 57.9936 14.6119 58.0183 14.7044C58.0715 14.9026 58.0228 15.1175 57.8724 15.349C57.626 15.6984 57.3461 16.0283 57.0327 16.3389C56.7176 16.6429 56.3779 16.9216 56.0138 17.175C55.6497 17.4284 55.2626 17.649 54.8525 17.8368C54.4442 18.0311 54.0286 18.185 53.6057 18.2983C53.0705 18.4417 52.5497 18.5069 52.0433 18.4939C51.5387 18.4874 51.0678 18.4082 50.6304 18.2563C50.1997 18.1025 49.8119 17.8842 49.4669 17.6013C49.1202 17.3117 48.8347 16.9597 48.6103 16.5453C48.5012 16.3762 48.4132 16.2723 48.3462 16.2336C48.284 16.1866 48.1967 16.1781 48.0844 16.2082C47.8399 16.2737 47.6356 16.2647 47.4716 16.1812C47.3076 16.0976 47.1954 15.9435 47.1352 15.7188C47.1105 15.6263 47.1011 15.5651 47.1073 15.5351L47.074 15.3316C47.0433 15.0848 47.06 14.8962 47.1242 14.7657C47.195 14.6334 47.3328 14.5398 47.5376 14.4849L47.6863 14.4451C47.9639 14.3707 48.1243 14.1896 48.1676 13.9018C48.2502 13.3909 48.3997 12.9047 48.616 12.443C48.8322 11.9814 49.1032 11.5653 49.4288 11.1947C49.7527 10.8176 50.1199 10.4961 50.5303 10.2303C50.9455 9.95615 51.3877 9.75621 51.8569 9.6305C52.3459 9.49947 52.8213 9.44999 53.2832 9.48205C53.7499 9.50573 54.1755 9.60062 54.5599 9.76674C54.9444 9.93286 55.271 10.1605 55.5397 10.4497C55.8151 10.7372 56.0049 11.0758 56.1094 11.4657C56.182 11.7366 56.1955 11.9986 56.15 12.2516C56.1045 12.5046 56.0056 12.7436 55.8534 12.9685C55.6994 13.1868 55.4945 13.3869 55.2387 13.5688C54.9895 13.7489 54.6909 13.9032 54.3429 14.0319L50.9964 15.3004C50.8642 15.3358 50.7641 15.3981 50.6959 15.4872C50.6343 15.5745 50.6185 15.6743 50.6486 15.7867C50.6947 15.9585 50.8017 16.1069 50.9698 16.2318C51.1444 16.355 51.3543 16.451 51.5994 16.5199C51.8493 16.5805 52.1228 16.6099 52.4198 16.6082C52.7234 16.6047 53.0239 16.5632 53.3213 16.4835C53.6054 16.4074 53.8891 16.303 54.1723 16.1705C54.4604 16.0296 54.7356 15.8673 54.998 15.6836C55.267 15.4982 55.5208 15.2957 55.7594 15.0759C55.9962 14.8496 56.2112 14.6078 56.4044 14.3507ZM53.5088 12.3856C53.6026 12.3392 53.6761 12.27 53.7293 12.1778C53.7807 12.079 53.7914 11.9735 53.7613 11.8611C53.7347 11.762 53.6736 11.6792 53.5779 11.6128C53.4822 11.5464 53.3627 11.497 53.2194 11.4645C53.0744 11.4255 52.914 11.4083 52.7382 11.4129C52.5623 11.4175 52.3819 11.4446 52.1969 11.4942C51.926 11.5668 51.659 11.6808 51.3961 11.8362C51.1332 11.9916 50.9039 12.1664 50.708 12.3606C50.5103 12.5481 50.3601 12.7406 50.2572 12.9382C50.1526 13.1291 50.1206 13.3006 50.1613 13.4526C50.202 13.6045 50.3149 13.6557 50.4999 13.6062C50.6123 13.5761 50.7905 13.5142 51.0345 13.4204C51.2785 13.3267 51.5481 13.2226 51.8432 13.1081C52.1365 12.987 52.4323 12.8617 52.7305 12.7323C53.0287 12.6028 53.2881 12.4872 53.5088 12.3856Z" fill="url(#paint2_linear_6072_24450)"/>
<path d="M45.9171 17.1612C46.0644 16.9447 46.2306 16.8116 46.4157 16.762C46.5214 16.7337 46.6243 16.7345 46.7244 16.7643C46.8244 16.7942 46.9424 16.8511 47.0782 16.9351C47.2181 17.0605 47.3211 17.1675 47.3873 17.256C47.4583 17.3361 47.5063 17.4224 47.531 17.5149C47.5842 17.7132 47.5355 17.928 47.3851 18.1596C47.1387 18.5089 46.8588 18.8389 46.5454 19.1495C46.2303 19.4535 45.8906 19.7322 45.5265 19.9856C45.1624 20.2389 44.7753 20.4595 44.3652 20.6473C43.9569 20.8417 43.5413 20.9955 43.1184 21.1089C42.5832 21.2523 42.0624 21.3175 41.556 21.3044C41.0514 21.298 40.5805 21.2188 40.1431 21.0668C39.7124 20.9131 39.3246 20.6948 38.9796 20.4118C38.6329 20.1223 38.3474 19.7703 38.123 19.3559C38.0139 19.1868 37.9259 19.0829 37.8589 19.0442C37.7967 18.9971 37.7094 18.9886 37.5971 19.0187C37.3526 19.0842 37.1483 19.0752 36.9843 18.9917C36.8203 18.9082 36.7081 18.7541 36.6479 18.5294C36.6231 18.4369 36.6138 18.3756 36.62 18.3457L36.5867 18.1421C36.556 17.8954 36.5727 17.7067 36.6369 17.5762C36.7077 17.4439 36.8455 17.3503 37.0503 17.2954L37.199 17.2556C37.4766 17.1812 37.637 17.0001 37.6803 16.7123C37.7629 16.2015 37.9124 15.7152 38.1287 15.2536C38.3449 14.7919 38.6159 14.3758 38.9415 14.0053C39.2654 13.6281 39.6326 13.3066 40.043 13.0409C40.4582 12.7667 40.9004 12.5668 41.3696 12.441C41.8586 12.31 42.334 12.2605 42.7959 12.2926C43.2626 12.3163 43.6882 12.4112 44.0726 12.5773C44.4571 12.7434 44.7837 12.9711 45.0524 13.2603C45.3277 13.5477 45.5176 13.8864 45.6221 14.2762C45.6947 14.5472 45.7082 14.8091 45.6627 15.0621C45.6172 15.3151 45.5183 15.5541 45.3661 15.779C45.2121 15.9974 45.0072 16.1974 44.7514 16.3793C44.5022 16.5594 44.2036 16.7138 43.8556 16.8424L40.5091 18.111C40.3769 18.1464 40.2768 18.2086 40.2086 18.2977C40.147 18.3851 40.1312 18.4849 40.1613 18.5972C40.2074 18.769 40.3144 18.9174 40.4825 19.0424C40.6571 19.1656 40.867 19.2616 41.1121 19.3305C41.362 19.391 41.6355 19.4204 41.9325 19.4187C42.2361 19.4153 42.5366 19.3737 42.834 19.2941C43.1181 19.2179 43.4018 19.1136 43.685 18.981C43.973 18.8401 44.2483 18.6778 44.5107 18.4942C44.7797 18.3088 45.0335 18.1062 45.2721 17.8865C45.5089 17.6601 45.7239 17.4184 45.9171 17.1612ZM43.0214 15.1962C43.1153 15.1498 43.1888 15.0805 43.242 14.9884C43.2934 14.8896 43.3041 14.784 43.274 14.6717C43.2474 14.5726 43.1863 14.4898 43.0906 14.4234C42.9949 14.3569 42.8754 14.3075 42.7321 14.2751C42.5871 14.236 42.4267 14.2188 42.2509 14.2234C42.075 14.228 41.8946 14.2551 41.7096 14.3047C41.4386 14.3773 41.1717 14.4913 40.9088 14.6468C40.6459 14.8022 40.4166 14.977 40.2207 15.1711C40.023 15.3586 39.8728 15.5512 39.7699 15.7487C39.6652 15.9397 39.6333 16.1111 39.674 16.2631C39.7147 16.4151 39.8276 16.4663 40.0126 16.4167C40.125 16.3866 40.3031 16.3247 40.5472 16.231C40.7912 16.1373 41.0608 16.0332 41.3559 15.9187C41.6492 15.7976 41.945 15.6723 42.2432 15.5428C42.5414 15.4133 42.8008 15.2978 43.0214 15.1962Z" fill="url(#paint3_linear_6072_24450)"/>
<path d="M29.5331 18.0247C29.3776 18.0522 29.2288 17.9859 29.0867 17.8256C28.9446 17.6654 28.8434 17.4729 28.7832 17.2482C28.7549 17.1425 28.7374 17.0374 28.7306 16.933C28.7155 16.8237 28.7172 16.7241 28.7356 16.6342C28.754 16.5443 28.7867 16.4682 28.8338 16.406C28.8791 16.3372 28.9414 16.2922 29.0207 16.271C29.2652 16.2055 29.5443 16.1236 29.8579 16.0254C30.1698 15.9206 30.5048 15.8096 30.8629 15.6924C31.0426 15.623 31.1158 15.4865 31.0825 15.2829C30.8853 14.3088 30.7466 13.4607 30.6664 12.7385C30.5862 12.0163 30.5583 11.397 30.5828 10.8805C30.6056 10.3574 30.6729 9.92146 30.7849 9.57275C30.9034 9.22227 31.0604 8.93586 31.2558 8.71353C32.3622 7.45463 32.9514 7.23082 33.1628 7.13168C33.246 7.04564 34.0494 6.75599 34.1353 6.73297C34.3005 6.68871 34.4839 6.68563 34.6853 6.72372C34.8916 6.75344 35.0884 6.81402 35.2758 6.90546C35.468 6.98852 35.6358 7.09937 35.7792 7.23801C35.9208 7.37004 36.0129 7.51536 36.0554 7.67395C36.0713 7.73342 36.0714 7.78652 36.0556 7.83325C36.038 7.87338 36.0138 7.91527 35.983 7.95893C35.7767 8.21962 33.7461 8.8935 33.061 10.3758C32.9266 10.6668 32.836 11.0027 32.7893 11.3835C32.7426 11.7643 32.7376 12.2083 32.7743 12.7155C32.8111 13.2227 32.8975 13.8228 33.0336 14.5158C33.0619 14.6215 33.0997 14.6964 33.1469 14.7404C33.199 14.776 33.2745 14.7806 33.3737 14.754C33.6314 14.685 33.8838 14.5961 34.1309 14.4874C34.3846 14.3769 34.6251 14.27 34.8523 14.1666C35.0778 14.0566 35.291 13.9534 35.4918 13.8571C35.6926 13.7608 35.8757 13.6905 36.0409 13.6463C36.1598 13.6144 36.2652 13.6641 36.357 13.7953C36.4537 13.9181 36.5294 14.082 36.5843 14.2868C36.6162 14.4057 36.639 14.5307 36.6529 14.6615C36.6667 14.7924 36.6637 14.9136 36.644 15.0251C36.631 15.1348 36.6011 15.2349 36.5545 15.3253C36.5061 15.4091 36.4342 15.4709 36.3386 15.5106L33.7763 16.4947C33.6429 16.5517 33.572 16.6309 33.5638 16.7322C33.5621 16.8318 33.5834 16.9642 33.6277 17.1294C34.019 18.5898 34.3918 19.8356 34.746 20.8668C35.1002 21.898 35.4159 22.7589 35.693 23.4496C35.9785 24.1451 36.2125 24.6879 36.395 25.0781C36.5792 25.475 36.6961 25.7659 36.7457 25.9509C36.7829 26.0897 36.7604 26.2303 36.6781 26.3727C36.6025 26.5134 36.4894 26.6464 36.3388 26.7717C36.1949 26.8953 36.0291 27.0035 35.8415 27.0962C35.6556 27.1956 35.4768 27.2683 35.305 27.3144C35.1398 27.3586 34.9831 27.3687 34.835 27.3447C34.6953 27.3254 34.5978 27.2524 34.5426 27.1256C34.3526 26.6807 34.1601 26.1869 33.9651 25.6442C33.7719 25.1082 33.5684 24.5075 33.3548 23.8424C33.1495 23.182 32.9341 22.4572 32.7084 21.6677C32.4809 20.8717 32.2397 19.9979 31.9847 19.0463C31.9192 18.8019 31.8555 18.564 31.7935 18.3327C31.7315 18.1014 31.6762 17.8683 31.6274 17.6335C31.5743 17.4353 31.4387 17.3654 31.2206 17.4238L29.5331 18.0247Z" fill="url(#paint4_linear_6072_24450)"/>
<defs>
<linearGradient id="paint0_linear_6072_24450" x1="69.441" y1="11.2034" x2="72.8568" y2="14.6021" gradientUnits="userSpaceOnUse">
<stop stop-color="#FE5468"/>
<stop offset="1" stop-color="#FFDF27"/>
</linearGradient>
<linearGradient id="paint1_linear_6072_24450" x1="60.0931" y1="6.46899" x2="69.8273" y2="11.9376" gradientUnits="userSpaceOnUse">
<stop stop-color="#FE5468"/>
<stop offset="1" stop-color="#FFDF27"/>
</linearGradient>
<linearGradient id="paint2_linear_6072_24450" x1="51.1333" y1="9.82438" x2="58.859" y2="17.4898" gradientUnits="userSpaceOnUse">
<stop stop-color="#FE5468"/>
<stop offset="1" stop-color="#FFDF27"/>
</linearGradient>
<linearGradient id="paint3_linear_6072_24450" x1="40.646" y1="12.6349" x2="48.3717" y2="20.3004" gradientUnits="userSpaceOnUse">
<stop stop-color="#FE5468"/>
<stop offset="1" stop-color="#FFDF27"/>
</linearGradient>
<linearGradient id="paint4_linear_6072_24450" x1="31.1022" y1="7.54569" x2="46.1799" y2="12.591" gradientUnits="userSpaceOnUse">
<stop stop-color="#FE5468"/>
<stop offset="1" stop-color="#FFDF27"/>
</linearGradient>
</defs>
</svg>
