<svg width="66" height="29" viewBox="0 0 66 29" fill="none" xmlns="http://www.w3.org/2000/svg">
<rect x="0.867188" y="0.0712891" width="65" height="28" rx="14" fill="url(#paint0_linear_5376_22571)"/>
<path d="M12.3472 21.0713V6.87129H21.8872V9.29129H15.1072V12.9513H20.7472V15.1913H15.1072V21.0713H12.3472ZM27.8066 21.2713C26.9666 21.2713 26.2066 21.1313 25.5266 20.8513C24.8466 20.558 24.2666 20.1646 23.7866 19.6713C23.3066 19.1646 22.9332 18.5913 22.6666 17.9513C22.4132 17.298 22.2866 16.6113 22.2866 15.8913C22.2866 14.8913 22.5066 13.978 22.9466 13.1513C23.3999 12.3246 24.0399 11.6646 24.8666 11.1713C25.7066 10.6646 26.6932 10.4113 27.8266 10.4113C28.9732 10.4113 29.9532 10.6646 30.7666 11.1713C31.5799 11.6646 32.1999 12.3246 32.6266 13.1513C33.0666 13.9646 33.2866 14.8446 33.2866 15.7913C33.2866 15.9513 33.2799 16.118 33.2666 16.2913C33.2532 16.4513 33.2399 16.5846 33.2266 16.6913H25.1266C25.1799 17.2246 25.3332 17.6913 25.5866 18.0913C25.8532 18.4913 26.1866 18.798 26.5866 19.0113C26.9999 19.2113 27.4399 19.3113 27.9066 19.3113C28.4399 19.3113 28.9399 19.1846 29.4066 18.9313C29.8866 18.6646 30.2132 18.318 30.3866 17.8913L32.6866 18.5313C32.4332 19.0646 32.0666 19.538 31.5866 19.9513C31.1199 20.3646 30.5666 20.6913 29.9266 20.9313C29.2866 21.158 28.5799 21.2713 27.8066 21.2713ZM25.0666 14.9913H30.5466C30.4932 14.458 30.3399 13.998 30.0866 13.6113C29.8466 13.2113 29.5266 12.9046 29.1266 12.6913C28.7266 12.4646 28.2799 12.3513 27.7866 12.3513C27.3066 12.3513 26.8666 12.4646 26.4666 12.6913C26.0799 12.9046 25.7599 13.2113 25.5066 13.6113C25.2666 13.998 25.1199 14.458 25.0666 14.9913ZM39.7792 21.2713C38.9392 21.2713 38.1792 21.1313 37.4992 20.8513C36.8192 20.558 36.2392 20.1646 35.7592 19.6713C35.2792 19.1646 34.9059 18.5913 34.6392 17.9513C34.3859 17.298 34.2592 16.6113 34.2592 15.8913C34.2592 14.8913 34.4792 13.978 34.9192 13.1513C35.3726 12.3246 36.0126 11.6646 36.8392 11.1713C37.6792 10.6646 38.6659 10.4113 39.7992 10.4113C40.9459 10.4113 41.9259 10.6646 42.7392 11.1713C43.5526 11.6646 44.1726 12.3246 44.5992 13.1513C45.0392 13.9646 45.2592 14.8446 45.2592 15.7913C45.2592 15.9513 45.2526 16.118 45.2392 16.2913C45.2259 16.4513 45.2126 16.5846 45.1992 16.6913H37.0992C37.1526 17.2246 37.3059 17.6913 37.5592 18.0913C37.8259 18.4913 38.1592 18.798 38.5592 19.0113C38.9726 19.2113 39.4126 19.3113 39.8792 19.3113C40.4126 19.3113 40.9126 19.1846 41.3792 18.9313C41.8592 18.6646 42.1859 18.318 42.3592 17.8913L44.6592 18.5313C44.4059 19.0646 44.0392 19.538 43.5592 19.9513C43.0926 20.3646 42.5392 20.6913 41.8992 20.9313C41.2592 21.158 40.5526 21.2713 39.7792 21.2713ZM37.0392 14.9913H42.5192C42.4659 14.458 42.3126 13.998 42.0592 13.6113C41.8192 13.2113 41.4992 12.9046 41.0992 12.6913C40.6992 12.4646 40.2526 12.3513 39.7592 12.3513C39.2792 12.3513 38.8392 12.4646 38.4392 12.6913C38.0526 12.9046 37.7326 13.2113 37.4792 13.6113C37.2392 13.998 37.0926 14.458 37.0392 14.9913ZM50.7519 21.2713C49.8585 21.2713 49.0052 21.1246 48.1919 20.8313C47.3785 20.538 46.6785 20.1046 46.0919 19.5313L47.0519 17.7913C47.6785 18.298 48.2919 18.6713 48.8919 18.9113C49.5052 19.1513 50.0919 19.2713 50.6519 19.2713C51.1719 19.2713 51.5852 19.178 51.8919 18.9913C52.2119 18.8046 52.3719 18.5246 52.3719 18.1513C52.3719 17.898 52.2852 17.7046 52.1119 17.5713C51.9385 17.4246 51.6852 17.298 51.3519 17.1913C51.0319 17.0846 50.6385 16.9646 50.1719 16.8313C49.3985 16.578 48.7519 16.3313 48.2319 16.0913C47.7119 15.8513 47.3185 15.5513 47.0519 15.1913C46.7985 14.818 46.6719 14.3446 46.6719 13.7713C46.6719 13.078 46.8452 12.4846 47.1919 11.9913C47.5519 11.4846 48.0452 11.0913 48.6719 10.8113C49.3119 10.5313 50.0585 10.3913 50.9119 10.3913C51.6585 10.3913 52.3652 10.5113 53.0319 10.7513C53.6985 10.978 54.3052 11.3513 54.8519 11.8713L53.7719 13.5713C53.2385 13.158 52.7319 12.858 52.2519 12.6713C51.7719 12.4713 51.2852 12.3713 50.7919 12.3713C50.5119 12.3713 50.2452 12.4046 49.9919 12.4713C49.7519 12.538 49.5519 12.6513 49.3919 12.8113C49.2452 12.958 49.1719 13.1713 49.1719 13.4513C49.1719 13.7046 49.2385 13.9046 49.3719 14.0513C49.5185 14.1846 49.7319 14.3046 50.0119 14.4113C50.3052 14.518 50.6585 14.638 51.0719 14.7713C51.9119 15.0113 52.6185 15.258 53.1919 15.5113C53.7785 15.7646 54.2185 16.078 54.5119 16.4513C54.8052 16.8113 54.9519 17.3113 54.9519 17.9513C54.9519 18.9913 54.5719 19.8046 53.8119 20.3913C53.0519 20.978 52.0319 21.2713 50.7519 21.2713Z" fill="url(#paint1_linear_5376_22571)"/>
<defs>
<linearGradient id="paint0_linear_5376_22571" x1="33.3672" y1="0.0712891" x2="33.3672" y2="28.0713" gradientUnits="userSpaceOnUse">
<stop stop-color="#FE5468"/>
<stop offset="1" stop-color="#FFDF27"/>
</linearGradient>
<linearGradient id="paint1_linear_5376_22571" x1="33" y1="24.5352" x2="33" y2="6.03516" gradientUnits="userSpaceOnUse">
<stop stop-color="#10808C"/>
<stop offset="1"/>
</linearGradient>
</defs>
</svg>
