<svg width="206" height="45" viewBox="0 0 206 45" fill="none" xmlns="http://www.w3.org/2000/svg">
<path d="M11.1002 15.9142C11.0343 14.9951 11.2846 14.1512 11.8217 13.3328C12.1812 12.7888 12.6912 12.2014 13.2538 11.5543C14.7053 9.88272 16.5032 7.81358 16.9434 5.07178C17.9004 7.17346 17.4362 9.21703 16.3769 11.0963C15.9003 11.941 15.3725 12.5478 14.8688 13.1267C14.2759 13.8079 13.7172 14.4503 13.3158 15.395C13.0949 15.9088 12.9694 16.4009 12.9105 16.8821L11.1002 15.9142Z" fill="url(#paint0_radial_5924_25223)"/>
<path d="M14.207 17.5769C14.4279 16.7663 14.8099 16.0083 15.3175 15.2729C15.7376 14.6591 16.1313 14.2042 16.4846 13.7958C17.6734 12.4203 18.4112 11.5663 18.195 6.95605C18.3337 7.25209 18.4709 7.53727 18.6041 7.81238L18.6049 7.81393C19.7643 10.221 20.578 11.9088 19.2109 14.2267C18.5352 15.3721 18.0423 15.9417 17.6068 16.4454C17.1162 17.0119 16.6977 17.4963 16.1716 18.6231L14.207 17.5769Z" fill="url(#paint1_radial_5924_25223)"/>
<path d="M19.2984 16.8509C18.7653 17.4825 17.895 18.3535 17.8555 18.4109L22.7803 15.6574C22.6773 14.7399 22.0007 13.6588 21.1692 12.1221C21.3374 14.1478 20.5469 15.3715 19.2984 16.8509Z" fill="url(#paint2_radial_5924_25223)"/>
<path d="M22.7431 16.5728C22.6106 17.1602 21.8852 18.3823 21.3521 19.017C19.6673 21.021 18.7901 21.8758 17.3486 24.8912C17.2673 24.5649 17.182 24.2572 17.1006 23.9635C16.6984 22.5128 16.4512 21.3047 16.9333 20.2631L22.7431 16.5728Z" fill="url(#paint3_radial_5924_25223)"/>
<path d="M16.238 23.3661C15.8257 22.1594 15.5297 21.1504 15.7451 19.8741L14.0231 18.752C13.9278 20.6297 14.7299 22.822 16.9447 25.6444C16.8269 24.9454 16.4736 24.0558 16.238 23.3661Z" fill="url(#paint4_radial_5924_25223)"/>
<path d="M12.8735 18.0044C12.903 18.615 13.2804 20.2293 13.6183 21.0833C12.6542 19.8534 11.6003 17.9664 11.2988 16.9775L12.8735 18.0044Z" fill="url(#paint5_radial_5924_25223)"/>
<path d="M33.1569 27.1817C33.1569 24.388 27.9616 22.0383 20.9405 21.3804C20.2709 22.1321 19.6013 23.0651 18.9612 24.4407L17.9972 26.2719C17.8135 26.6098 17.4748 26.8314 17.099 26.8609C16.7169 26.8903 16.3488 26.7229 16.121 26.4168L15.5026 25.5861C14.2146 23.9416 13.2722 22.6389 12.5291 21.4199C5.71484 22.129 0.710938 24.4415 0.710938 27.1817C0.710938 30.4854 7.9816 33.1675 16.9378 33.1675C17.3702 33.1675 17.7995 33.1613 18.2242 33.1489L19.5386 29.4283L19.5494 29.402C19.8392 28.6774 20.5367 28.2031 21.3124 28.1923H21.3179L32.9213 28.2233C33.0407 27.9311 33.1569 27.4863 33.1569 27.1817Z" fill="url(#paint6_radial_5924_25223)"/>
<path d="M21.7906 33.2478H30.8816L30.4841 34.2561H21.4411L19.4277 39.9993V33.9004L20.8358 29.9163C20.9157 29.7148 21.1109 29.5807 21.3303 29.5776L32.3502 29.5807L31.9425 30.5742H22.743L22.4609 31.4127H31.6279L31.1924 32.4093H22.1091L21.7906 33.2478Z" fill="url(#paint7_radial_5924_25223)"/>
<path d="M1.26953 29.8223C2.3165 32.7826 4.87851 36.2598 5.42331 36.7682C7.30491 38.5405 13.3674 39.9998 18.1419 39.9998V35.0098C9.86537 35.0098 3.40377 32.3293 1.26953 29.8223Z" fill="url(#paint8_radial_5924_25223)"/>
<path d="M189.787 33.5089L195.638 26.4632H190.03V24.5601H198.554V26.2203L192.743 33.266H198.655V35.1691H189.787V33.5089Z" fill="#CDD8D3"/>
<path d="M179.588 37.2342C179.831 37.2882 180.054 37.3355 180.256 37.376C180.472 37.4165 180.655 37.4367 180.803 37.4367C181.059 37.4367 181.269 37.3692 181.431 37.2342C181.606 37.1128 181.775 36.8833 181.937 36.5459C182.099 36.2219 182.267 35.763 182.443 35.1691L178.252 24.5601H181.066L183.921 32.3954L186.431 24.5601H189.023L184.569 37.2747C184.407 37.7471 184.157 38.1723 183.82 38.5503C183.496 38.9417 183.084 39.2454 182.585 39.4613C182.099 39.6908 181.552 39.8055 180.945 39.8055C180.729 39.8055 180.513 39.7853 180.297 39.7448C180.081 39.7178 179.845 39.6638 179.588 39.5828V37.2342Z" fill="#CDD8D3"/>
<path d="M170.348 24.5601L172.575 27.8805L172.737 28.2449L172.94 27.8805L175.147 24.5601H178.001L174.317 29.8443L178.062 35.1691H175.207L172.92 31.869L172.737 31.5248L172.575 31.869L170.308 35.1691H167.453L171.199 29.9051L167.514 24.5601H170.348Z" fill="#CDD8D3"/>
<path d="M164 35.1689V32.2534H166.227V35.1689H164Z" fill="#CDD8D3"/>
<path d="M75.1265 28.7432V34.6327H73.4258V25.071H74.9052V26.8284L75.8491 27.0585C76.1945 26.392 76.6228 25.8856 77.1283 25.5207C77.6335 25.1571 78.1506 24.9664 78.687 24.9297H78.7147V26.4284C78.0227 26.4827 77.3818 26.6524 76.7975 26.9433C76.0615 27.297 75.5113 27.8252 75.1755 28.5274L75.1265 28.6297V28.7432Z" fill="#CDD8D3" stroke="#CDD8D3"/>
<path d="M81.809 31.7479L81.809 31.7479C81.5274 31.1855 81.3935 30.5558 81.3935 29.8713C81.3935 29.1881 81.527 28.5641 81.8103 28.0123C82.0876 27.4593 82.4725 27.0141 82.9676 26.6928C83.4695 26.3546 84.0369 26.1865 84.6549 26.1865C85.2584 26.1865 85.8163 26.3468 86.3166 26.6697L81.809 31.7479ZM81.809 31.7479L81.8115 31.7527C82.0907 32.2954 82.4773 32.7336 82.9723 33.0528L81.809 31.7479ZM87.4764 31.735C87.1987 32.2755 86.8141 32.716 86.326 33.0467L86.3168 33.0529L86.3168 33.0528C85.8165 33.3758 85.2584 33.5361 84.6549 33.5361C84.0406 33.5361 83.475 33.3773 82.9725 33.0529L87.4764 31.735ZM87.4764 31.735C87.7738 31.1714 87.9163 30.5391 87.9163 29.8513C87.9163 29.176 87.7734 28.5522 87.4778 27.9903C87.2002 27.4355 86.8132 26.99 86.3168 26.6698L87.4764 31.735ZM79.961 31.767L79.9608 31.7664C79.7282 31.1675 79.6113 30.5372 79.6113 29.8713C79.6113 29.1914 79.7287 28.5541 79.9608 27.9562L79.961 27.9558C80.193 27.3565 80.5224 26.8264 80.9482 26.3624C81.3806 25.9072 81.9046 25.551 82.5271 25.2949L82.5271 25.295L82.5348 25.2916C83.1488 25.0268 83.8524 24.8892 84.6549 24.8892C85.4569 24.8892 86.1525 25.0269 86.7509 25.2902L86.7508 25.2903L86.762 25.2949C87.3855 25.5514 87.9103 25.9084 88.3431 26.3647C88.7802 26.8271 89.1072 27.3536 89.3249 27.9474L89.3248 27.9474L89.3283 27.9562C89.5604 28.5541 89.6777 29.1914 89.6777 29.8713C89.6777 30.5372 89.5608 31.1675 89.3283 31.7664L89.3282 31.7664L89.3248 31.7754C89.1072 32.3697 88.7803 32.8955 88.343 33.3579L88.343 33.3579L88.3387 33.3626C87.9199 33.817 87.4028 34.1804 86.7788 34.45C86.1635 34.7026 85.4577 34.8342 84.6549 34.8342C83.8514 34.8342 83.1463 34.7026 82.5309 34.45C81.907 34.1804 81.3815 33.8164 80.9482 33.3602C80.5223 32.8961 80.193 32.3667 79.961 31.767Z" fill="#CDD8D3" stroke="#CDD8D3"/>
<path d="M97.5883 30.4196L95.9778 34.6329H94.3781L90.4 25.0713H91.8494L94.8694 32.7361L95.3579 33.9759L95.8055 32.7208L97.0349 29.274L97.0989 29.0945L97.0272 28.9179L95.4727 25.0913H96.6083L97.5816 27.9759L98.0226 29.2832L97.5883 30.4196ZM98.5281 27.9786L99.5208 25.0913H100.659L99.1041 28.9179L99.0318 29.0959L99.0973 29.2765L100.347 32.7232L100.799 33.9704L101.282 32.7351L104.283 25.0713H105.75L101.754 34.6329H100.171L98.5209 30.416L98.0788 29.2857L98.5281 27.9786Z" fill="#CDD8D3" stroke="#CDD8D3"/>
<path d="M114.545 34.0928C114.325 34.1835 114.061 34.287 113.75 34.4034C113.44 34.5198 113.104 34.6097 112.743 34.6747C112.394 34.7518 112.038 34.791 111.677 34.791C111.198 34.791 110.759 34.7068 110.358 34.539C109.958 34.3713 109.635 34.1064 109.389 33.7445C109.157 33.3696 109.04 32.8849 109.04 32.2909V26.4568H107.703V24.4607H109.04V21.166H111.638V24.4607H114.255V26.4568H111.638V31.4185C111.65 31.7676 111.747 32.0196 111.928 32.1746C112.109 32.3295 112.336 32.4073 112.607 32.4073C112.878 32.4073 113.143 32.3616 113.402 32.2716C113.66 32.181 113.866 32.1032 114.021 32.0389L114.545 34.0928ZM123.98 34.6161H121.382V28.9184C121.382 28.1302 121.228 27.542 120.917 27.1543C120.62 26.7674 120.207 26.5732 119.677 26.5732C119.367 26.5732 119.037 26.6638 118.688 26.8445C118.34 27.0251 118.023 27.2771 117.739 27.6005C117.467 27.9103 117.267 28.2723 117.138 28.6856V34.6161H114.541V20.4678H117.138V25.9935C117.575 25.5444 118.023 25.1903 118.669 24.8291C119.315 24.4671 120.02 24.2865 120.781 24.2865C121.44 24.2865 121.976 24.4022 122.391 24.6349C122.804 24.8548 123.127 25.1582 123.359 25.5459C123.592 25.9207 123.753 26.3469 123.844 26.8252C123.934 27.2899 123.98 27.7747 123.98 28.2787V34.6161ZM129.59 34.8103C128.776 34.8103 128.04 34.6747 127.381 34.4034C126.723 34.1193 126.16 33.738 125.695 33.2597C125.23 32.7685 124.868 32.2131 124.609 31.5927C124.364 30.9602 124.242 30.2941 124.242 29.5966C124.242 28.6278 124.454 27.7426 124.881 26.9416C125.32 26.1405 125.941 25.5009 126.742 25.0226C127.556 24.5314 128.512 24.2865 129.61 24.2865C130.721 24.2865 131.671 24.5314 132.459 25.0226C133.247 25.5009 133.848 26.1405 134.261 26.9416C134.688 27.7297 134.901 28.5821 134.901 29.4995C134.901 29.6551 134.895 29.8165 134.882 29.9843C134.869 30.1392 134.856 30.2684 134.843 30.3719H126.994C127.045 30.8888 127.194 31.3407 127.439 31.7284C127.698 32.116 128.02 32.4137 128.408 32.62C128.809 32.8142 129.236 32.9106 129.687 32.9106C130.204 32.9106 130.689 32.7878 131.141 32.5429C131.606 32.2845 131.923 31.9482 132.091 31.5349L134.32 32.1553C134.074 32.6721 133.719 33.1305 133.253 33.531C132.802 33.9315 132.265 34.2485 131.645 34.4805C131.025 34.7004 130.34 34.8103 129.59 34.8103ZM126.935 28.5H132.246C132.194 27.9832 132.045 27.7618 131.8 27.387C131.568 26.9994 131.257 26.7024 130.87 26.4954C130.482 26.2762 130.049 26.1662 129.571 26.1662C129.106 26.1662 128.68 26.2762 128.292 26.4954C127.918 26.7024 127.607 26.9994 127.361 27.387C127.129 27.7618 126.987 27.9832 126.935 28.5Z" stroke="#CDD8D3"/>
<path d="M138.615 33.2786V38.9268H136.914V25.071H138.272V26.385V28.0665L139.191 26.6582C139.552 26.1044 140.004 25.6777 140.55 25.3688L140.55 25.3689L140.557 25.3649C141.091 25.0519 141.707 24.8896 142.421 24.8896C143.065 24.8896 143.642 25.017 144.16 25.2643L144.16 25.2643L144.164 25.2661C144.704 25.518 145.172 25.8718 145.571 26.3306L145.571 26.3306L145.575 26.3353C145.974 26.7826 146.286 27.3057 146.507 27.9083L146.507 27.9084L146.511 27.9196C146.741 28.501 146.859 29.137 146.859 29.8318C146.859 30.786 146.672 31.6377 146.304 32.3961L146.304 32.396L146.302 32.4021C145.946 33.1625 145.456 33.7575 144.832 34.2015C144.238 34.6205 143.548 34.8347 142.743 34.8347C142.002 34.8347 141.366 34.6721 140.821 34.3602C140.279 34.0296 139.859 33.5904 139.552 33.0364L138.615 31.3433V33.2786ZM139.122 27.4268L139.116 27.4333L139.11 27.4401C138.897 27.7024 138.738 27.9935 138.638 28.3102L138.615 28.3839V28.4611V30.9405V31.0399L138.653 31.1318C138.833 31.5678 139.074 31.9677 139.376 32.3295L139.376 32.3296L139.384 32.3387C139.705 32.7052 140.077 33.0006 140.498 33.2186L140.504 33.2219L140.51 33.2249C140.936 33.4304 141.38 33.5366 141.836 33.5366C142.324 33.5366 142.781 33.4339 143.195 33.2185C143.593 33.0125 143.934 32.7335 144.218 32.3869C144.512 32.0308 144.73 31.6341 144.871 31.1994C145.022 30.7581 145.098 30.302 145.098 29.8318C145.098 29.3345 145.015 28.8646 144.844 28.427C144.688 27.9918 144.452 27.6059 144.137 27.2746C143.824 26.9303 143.454 26.6624 143.03 26.4741C142.61 26.2811 142.156 26.1877 141.675 26.1877C141.359 26.1877 141.044 26.2456 140.731 26.3538C140.429 26.45 140.141 26.5922 139.865 26.7757C139.588 26.9609 139.339 27.1777 139.122 27.4268Z" fill="#CDD8D3" stroke="#CDD8D3"/>
<path d="M148.885 34.6339V25.0716H150.586V34.6339H148.885ZM148.885 22.6002V20.9194H150.586V22.6002H148.885Z" fill="#CDD8D3" stroke="#CDD8D3"/>
<path d="M160.467 32.5179L161.776 32.8819C161.59 33.1479 161.365 33.3958 161.097 33.6258L161.097 33.6258L161.092 33.6302C160.673 34.0013 160.171 34.2998 159.58 34.5222C158.996 34.7283 158.342 34.8347 157.614 34.8347C156.825 34.8347 156.127 34.7034 155.51 34.4505C154.883 34.1795 154.356 33.8206 153.924 33.3757C153.484 32.9111 153.142 32.3875 152.898 31.802C152.667 31.2048 152.551 30.5763 152.551 29.9125C152.551 28.9826 152.755 28.144 153.156 27.3887C153.569 26.6365 154.15 26.0367 154.907 25.5851L154.907 25.5851L154.909 25.5839C155.666 25.1273 156.569 24.8896 157.634 24.8896C158.715 24.8896 159.607 25.128 160.333 25.5801L160.333 25.5801L160.338 25.5832C161.081 26.0335 161.641 26.6311 162.027 27.3803L162.027 27.3803L162.032 27.389C162.435 28.1338 162.637 28.9391 162.637 29.8118C162.637 29.9407 162.632 30.0762 162.623 30.2192H154.913H154.36L154.415 30.7695C154.476 31.3729 154.652 31.92 154.955 32.3975L154.954 32.3976L154.961 32.4069C155.272 32.875 155.669 33.2424 156.149 33.4984L156.158 33.5032L156.167 33.5075C156.653 33.7421 157.17 33.8593 157.715 33.8593C158.335 33.8593 158.922 33.7108 159.465 33.4161L159.465 33.4161L159.469 33.4136C159.889 33.1803 160.228 32.8833 160.467 32.5179ZM154.355 28.9563L154.301 29.5058H154.853H160.376H160.929L160.873 28.9556C160.813 28.3553 160.639 27.8144 160.335 27.3494C160.05 26.8764 159.665 26.5066 159.185 26.2495C158.703 25.9776 158.169 25.8451 157.594 25.8451C157.029 25.8451 156.501 25.9793 156.02 26.2513C155.552 26.5096 155.17 26.8793 154.874 27.348L154.874 27.348L154.872 27.351C154.583 27.8159 154.415 28.3563 154.355 28.9563Z" fill="#CDD8D3" stroke="#CDD8D3"/>
<path d="M84.6165 17.8719C84.1986 17.9838 83.7851 18.0252 83.3758 17.9959C82.9808 17.9627 82.6175 17.8748 82.2859 17.732C81.9504 17.5748 81.6629 17.3662 81.4233 17.1061C81.1982 16.8422 81.0393 16.5373 80.9467 16.1916C80.7845 15.5865 80.891 15.0329 81.2661 14.5309C81.6555 14.0251 82.2465 13.666 83.0388 13.4537C83.4134 13.3533 83.7929 13.3289 84.1773 13.3803C84.5722 13.4134 84.9302 13.5105 85.2513 13.6716C85.5868 13.8287 85.8743 14.0374 86.1139 14.2974C86.3534 14.5575 86.5176 14.8532 86.6064 15.1846C86.7762 15.8185 86.6789 16.3773 86.3144 16.861C85.9604 17.3265 85.3944 17.6634 84.6165 17.8719Z" fill="url(#paint9_linear_5924_25223)"/>
<path d="M70.9035 8.03432C71.4338 7.89224 71.9989 7.81714 72.599 7.80903C73.197 7.79301 73.7591 7.83324 74.2855 7.92973C74.8097 8.0183 75.2582 8.15683 75.631 8.34533C76.0039 8.53384 76.2242 8.75472 76.2921 9.00797C76.326 9.1346 76.3088 9.29191 76.2404 9.47988C76.1699 9.65994 76.0746 9.84241 75.9545 10.0273C75.8322 10.2042 75.6889 10.3656 75.5244 10.5115C75.3657 10.6473 75.2151 10.7343 75.0726 10.7725C74.8827 10.8234 74.6478 10.8015 74.368 10.7069C74.096 10.6101 73.7922 10.5049 73.4563 10.3913C73.1263 10.2676 72.7739 10.1712 72.3991 10.102C72.0243 10.0328 71.643 10.0501 71.2552 10.154C71.0019 10.2219 70.8092 10.3414 70.6769 10.5126C70.5504 10.6737 70.5169 10.8651 70.5762 11.0867C70.6293 11.2845 70.7783 11.4609 71.0234 11.6158C71.2663 11.7627 71.5708 11.9017 71.9367 12.0327C72.3105 12.1615 72.7271 12.2917 73.1864 12.4231C73.6458 12.5545 74.1173 12.6996 74.6009 12.8584C75.0925 13.0151 75.5785 13.1987 76.0591 13.4092C76.5396 13.6198 76.984 13.8697 77.3924 14.1589C77.8086 14.4461 78.1711 14.7858 78.4798 15.1781C78.7863 15.5625 79.0086 16.0119 79.1464 16.5264C79.2652 16.9696 79.2942 17.3944 79.2334 17.8009C79.1727 18.2073 79.0309 18.5804 78.808 18.92C78.5852 19.2597 78.291 19.5548 77.9256 19.8054C77.5601 20.056 77.136 20.246 76.6532 20.3753C76.0438 20.5386 75.4565 20.5942 74.8912 20.5421C74.3279 20.4979 73.8169 20.3634 73.358 20.1386C72.899 19.9138 72.5023 19.6045 72.1677 19.2106C71.8411 18.8146 71.6057 18.3475 71.4615 17.8094C71.2749 17.1129 71.2618 16.5735 71.4223 16.1912C71.5908 15.8068 71.9441 15.5425 72.4822 15.3983C72.8146 15.3092 73.0967 15.3015 73.3285 15.3751C73.5603 15.4487 73.7006 15.5765 73.7494 15.7585C73.7748 15.8535 73.7855 15.9567 73.7814 16.0681C73.7752 16.1715 73.7671 16.2839 73.7573 16.4053C73.7532 16.5167 73.7512 16.636 73.7514 16.7632C73.7594 16.8883 73.7794 17.0102 73.8112 17.1289C73.8663 17.3346 73.9668 17.5198 74.1127 17.6843C74.2585 17.8488 74.4297 17.981 74.6262 18.0811C74.8327 18.1869 75.0544 18.2547 75.2914 18.2845C75.5284 18.3143 75.7657 18.2974 76.0031 18.2338C76.6362 18.0642 76.8828 17.7182 76.7429 17.1958C76.6326 16.7843 76.3664 16.44 75.9444 16.1628C75.5202 15.8778 75.0162 15.6269 74.4322 15.4102C73.8461 15.1855 73.2204 14.9715 72.5551 14.768C71.8978 14.5624 71.2718 14.3315 70.6772 14.0751C70.0826 13.8188 69.5647 13.5165 69.1236 13.1681C68.6804 12.8119 68.3898 12.3766 68.252 11.8621C68.1375 11.4347 68.1196 11.0197 68.1982 10.6169C68.2848 10.2119 68.4485 9.84151 68.6893 9.50554C68.928 9.16167 69.234 8.86336 69.6074 8.61063C69.9887 8.35578 70.4207 8.16368 70.9035 8.03432Z" fill="url(#paint10_linear_5924_25223)"/>
<path d="M67.5534 17.189C67.7299 16.9297 67.9289 16.7703 68.1505 16.7109C68.2772 16.677 68.4004 16.6779 68.5202 16.7136C68.6401 16.7494 68.7814 16.8176 68.944 16.9182C69.1115 17.0684 69.2349 17.1965 69.3142 17.3025C69.3993 17.3984 69.4567 17.5018 69.4864 17.6126C69.55 17.8501 69.4917 18.1074 69.3116 18.3847C69.0165 18.8031 68.6813 19.1983 68.306 19.5703C67.9285 19.9344 67.5217 20.2682 67.0856 20.5717C66.6495 20.8751 66.1859 21.1393 65.6947 21.3642C65.2058 21.597 64.708 21.7813 64.2015 21.917C63.5604 22.0888 62.9367 22.1668 62.3302 22.1512C61.7259 22.1435 61.1619 22.0486 60.6381 21.8666C60.1222 21.6825 59.6577 21.421 59.2446 21.0822C58.8293 20.7354 58.4873 20.3138 58.2186 19.8175C58.088 19.615 57.9826 19.4905 57.9023 19.4442C57.8278 19.3878 57.7233 19.3776 57.5887 19.4137C57.2959 19.4922 57.0513 19.4814 56.8548 19.3813C56.6583 19.2813 56.5241 19.0967 56.452 18.8276C56.4223 18.7168 56.4111 18.6435 56.4184 18.6076L56.3786 18.3638C56.3418 18.0683 56.3619 17.8424 56.4387 17.686C56.5235 17.5276 56.6886 17.4155 56.9339 17.3498L57.112 17.3021C57.4444 17.213 57.6365 16.9961 57.6883 16.6514C57.7874 16.0396 57.9664 15.4572 58.2254 14.9043C58.4844 14.3514 58.8089 13.853 59.199 13.4092C59.5869 12.9575 60.0266 12.5725 60.5181 12.2542C61.0154 11.9258 61.545 11.6863 62.1069 11.5358C62.6926 11.3789 63.262 11.3196 63.8152 11.358C64.3741 11.3863 64.8839 11.5 65.3443 11.699C65.8048 11.8979 66.196 12.1706 66.5178 12.5169C66.8476 12.8612 67.075 13.2668 67.2001 13.7337C67.2871 14.0582 67.3033 14.372 67.2487 14.675C67.1942 14.978 67.0758 15.2642 66.8935 15.5336C66.7091 15.7951 66.4637 16.0347 66.1573 16.2525C65.8588 16.4682 65.5012 16.6531 65.0844 16.8072L61.0764 18.3265C60.9181 18.3689 60.7981 18.4435 60.7164 18.5502C60.6427 18.6548 60.6238 18.7743 60.6599 18.9089C60.715 19.1147 60.8432 19.2924 61.0445 19.442C61.2536 19.5896 61.505 19.7046 61.7986 19.7871C62.0979 19.8596 62.4254 19.8948 62.7812 19.8928C63.1448 19.8887 63.5047 19.8389 63.8608 19.7434C64.2012 19.6523 64.5409 19.5273 64.8801 19.3686C65.2251 19.1998 65.5547 19.0054 65.869 18.7855C66.1912 18.5634 66.4952 18.3208 66.7809 18.0576C67.0646 17.7865 67.322 17.497 67.5534 17.189ZM64.0854 14.8355C64.1977 14.78 64.2857 14.697 64.3495 14.5866C64.4111 14.4683 64.4239 14.3419 64.3878 14.2074C64.356 14.0886 64.2828 13.9895 64.1682 13.91C64.0535 13.8304 63.9104 13.7712 63.7389 13.7323C63.5652 13.6856 63.373 13.665 63.1624 13.6705C62.9519 13.676 62.7358 13.7085 62.5142 13.7678C62.1897 13.8548 61.87 13.9913 61.5551 14.1775C61.2403 14.3637 60.9655 14.573 60.731 14.8055C60.4942 15.0301 60.3143 15.2607 60.1911 15.4973C60.0657 15.726 60.0274 15.9313 60.0762 16.1134C60.125 16.2954 60.2602 16.3567 60.4818 16.2973C60.6163 16.2613 60.8297 16.1871 61.122 16.0749C61.4142 15.9627 61.7371 15.838 62.0906 15.7009C62.4419 15.5558 62.7961 15.4058 63.1532 15.2507C63.5104 15.0956 63.8211 14.9572 64.0854 14.8355Z" fill="url(#paint11_linear_5924_25223)"/>
<path d="M54.9948 20.5547C55.1713 20.2954 55.3703 20.136 55.5919 20.0766C55.7186 20.0427 55.8418 20.0436 55.9617 20.0794C56.0815 20.1151 56.2228 20.1833 56.3854 20.2839C56.5529 20.4341 56.6763 20.5622 56.7556 20.6682C56.8407 20.7642 56.8981 20.8675 56.9278 20.9783C56.9914 21.2158 56.9331 21.4731 56.753 21.7505C56.4579 22.1688 56.1227 22.564 55.7474 22.936C55.3699 23.3001 54.9631 23.6339 54.527 23.9374C54.0909 24.2408 53.6273 24.505 53.1362 24.7299C52.6472 24.9627 52.1494 25.147 51.6429 25.2827C51.0018 25.4545 50.3781 25.5326 49.7716 25.5169C49.1673 25.5092 48.6033 25.4144 48.0795 25.2324C47.5636 25.0483 47.0991 24.7868 46.686 24.4479C46.2707 24.1011 45.9287 23.6795 45.66 23.1832C45.5294 22.9807 45.424 22.8563 45.3437 22.8099C45.2692 22.7535 45.1647 22.7434 45.0301 22.7794C44.7373 22.8579 44.4927 22.8471 44.2962 22.7471C44.0998 22.647 43.9655 22.4624 43.8934 22.1934C43.8637 22.0826 43.8525 22.0092 43.8599 21.9733L43.82 21.7295C43.7832 21.434 43.8033 21.2081 43.8801 21.0518C43.9649 20.8933 44.13 20.7812 44.3753 20.7155L44.5534 20.6678C44.8858 20.5787 45.0779 20.3618 45.1298 20.0171C45.2288 19.4053 45.4078 18.8229 45.6668 18.27C45.9258 17.7171 46.2503 17.2188 46.6404 16.7749C47.0283 16.3232 47.468 15.9382 47.9595 15.6199C48.4568 15.2915 48.9864 15.0521 49.5484 14.9015C50.134 14.7446 50.7034 14.6853 51.2566 14.7237C51.8156 14.7521 52.3253 14.8657 52.7857 15.0647C53.2462 15.2636 53.6374 15.5363 53.9592 15.8827C54.289 16.2269 54.5164 16.6325 54.6415 17.0995C54.7285 17.4239 54.7447 17.7377 54.6901 18.0407C54.6356 18.3437 54.5172 18.6299 54.3349 18.8993C54.1505 19.1608 53.9051 19.4004 53.5987 19.6183C53.3002 19.834 52.9426 20.0188 52.5259 20.1729L48.5178 21.6922C48.3595 21.7346 48.2395 21.8092 48.1578 21.9159C48.0841 22.0205 48.0652 22.1401 48.1013 22.2746C48.1564 22.4804 48.2846 22.6581 48.4859 22.8077C48.6951 22.9553 48.9464 23.0703 49.24 23.1528C49.5393 23.2253 49.8668 23.2605 50.2226 23.2585C50.5862 23.2544 50.9461 23.2046 51.3023 23.1092C51.6426 23.018 51.9823 22.893 52.3215 22.7343C52.6665 22.5655 52.9961 22.3711 53.3104 22.1512C53.6326 21.9291 53.9366 21.6865 54.2223 21.4233C54.506 21.1523 54.7635 20.8627 54.9948 20.5547ZM51.5268 18.2013C51.6391 18.1457 51.7272 18.0627 51.7909 17.9523C51.8525 17.834 51.8653 17.7076 51.8292 17.5731C51.7974 17.4544 51.7242 17.3552 51.6096 17.2757C51.4949 17.1961 51.3518 17.1369 51.1803 17.0981C51.0066 17.0513 50.8144 17.0307 50.6038 17.0362C50.3933 17.0417 50.1772 17.0742 49.9556 17.1336C49.6311 17.2205 49.3114 17.3571 48.9965 17.5432C48.6817 17.7294 48.4069 17.9387 48.1724 18.1712C47.9356 18.3958 47.7557 18.6264 47.6325 18.863C47.5071 19.0917 47.4688 19.2971 47.5176 19.4791C47.5664 19.6611 47.7016 19.7224 47.9232 19.6631C48.0577 19.627 48.2711 19.5529 48.5634 19.4406C48.8556 19.3284 49.1785 19.2037 49.532 19.0666C49.8833 18.9215 50.2375 18.7715 50.5947 18.6164C50.9518 18.4613 51.2625 18.323 51.5268 18.2013Z" fill="url(#paint12_linear_5924_25223)"/>
<path d="M35.3711 21.5884C35.1848 21.6214 35.0066 21.5419 34.8364 21.35C34.6662 21.158 34.5451 20.9276 34.473 20.6585C34.4391 20.5318 34.4181 20.406 34.41 20.2809C34.3919 20.15 34.3939 20.0308 34.4159 19.9231C34.4379 19.8154 34.4771 19.7243 34.5335 19.6498C34.5878 19.5674 34.6624 19.5135 34.7574 19.488C35.0502 19.4096 35.3844 19.3115 35.7601 19.1939C36.1336 19.0684 36.5348 18.9354 36.9638 18.795C37.179 18.7119 37.2667 18.5484 37.2268 18.3047C36.9905 17.138 36.8244 16.1222 36.7284 15.2573C36.6323 14.3923 36.599 13.6506 36.6283 13.032C36.6555 12.4054 36.7362 11.8834 36.8703 11.4657C37.0123 11.046 37.2003 10.7029 37.4343 10.4366C38.7594 8.9289 39.4651 8.66085 39.7183 8.54211C39.8179 8.43907 40.7802 8.09216 40.8831 8.06459C41.0809 8.01158 41.3005 8.00788 41.5417 8.05351C41.7888 8.08911 42.0245 8.16166 42.249 8.27117C42.4792 8.37065 42.6802 8.50341 42.8519 8.66946C43.0215 8.82759 43.1318 9.00163 43.1827 9.19157C43.2018 9.2628 43.2018 9.3264 43.1829 9.38237C43.1618 9.43042 43.1329 9.4806 43.096 9.53289C42.8488 9.84511 40.4169 10.6522 39.5964 12.4275C39.4353 12.7761 39.3268 13.1784 39.2709 13.6344C39.215 14.0905 39.209 14.6223 39.253 15.2297C39.297 15.8371 39.4005 16.5559 39.5636 17.3859C39.5975 17.5125 39.6427 17.6022 39.6993 17.6549C39.7616 17.6976 39.8521 17.703 39.9708 17.6712C40.2795 17.5885 40.5818 17.482 40.8777 17.3518C41.1816 17.2195 41.4696 17.0915 41.7418 16.9676C42.0118 16.8359 42.2671 16.7124 42.5077 16.597C42.7482 16.4817 42.9674 16.3975 43.1653 16.3445C43.3077 16.3063 43.4339 16.3658 43.5439 16.5229C43.6597 16.67 43.7504 16.8663 43.8162 17.1116C43.8543 17.2541 43.8817 17.4037 43.8982 17.5604C43.9148 17.7171 43.9113 17.8623 43.8877 17.9958C43.872 18.1273 43.8362 18.2471 43.7804 18.3554C43.7225 18.4557 43.6363 18.5297 43.5218 18.5774L40.4531 19.7559C40.2932 19.8242 40.2084 19.919 40.1985 20.0404C40.1965 20.1597 40.222 20.3183 40.2751 20.5161C40.7437 22.2652 41.1902 23.7573 41.6144 24.9923C42.0386 26.2274 42.4167 27.2585 42.7486 28.0856C43.0906 28.9186 43.3708 29.5688 43.5894 30.0361C43.81 30.5114 43.95 30.8598 44.0094 31.0814C44.054 31.2477 44.027 31.416 43.9285 31.5866C43.8379 31.7551 43.7025 31.9144 43.5221 32.0645C43.3497 32.2125 43.1512 32.342 42.9265 32.4532C42.7039 32.5722 42.4897 32.6592 42.2839 32.7144C42.0861 32.7674 41.8984 32.7795 41.7211 32.7507C41.5537 32.7277 41.437 32.6402 41.3708 32.4883C41.1432 31.9555 40.9127 31.3641 40.6792 30.7141C40.4477 30.0721 40.2041 29.3527 39.9482 28.5561C39.7024 27.7652 39.4443 26.8971 39.174 25.9516C38.9016 24.9982 38.6127 23.9517 38.3073 22.812C38.2288 22.5192 38.1525 22.2343 38.0783 21.9573C38.0041 21.6803 37.9378 21.4011 37.8794 21.1199C37.8157 20.8825 37.6533 20.7987 37.3922 20.8687L35.3711 21.5884Z" fill="url(#paint13_linear_5924_25223)"/>
<defs>
<radialGradient id="paint0_radial_5924_25223" cx="0" cy="0" r="1" gradientUnits="userSpaceOnUse" gradientTransform="translate(16.2662 8.74029) rotate(117.912) scale(10.0821 7.78136)">
<stop stop-color="#1DF7EF"/>
<stop offset="1" stop-color="#10808C"/>
</radialGradient>
<radialGradient id="paint1_radial_5924_25223" cx="0" cy="0" r="1" gradientUnits="userSpaceOnUse" gradientTransform="translate(18.851 10.58) rotate(115.692) scale(9.76666 7.11907)">
<stop stop-color="#1DF7EF"/>
<stop offset="1" stop-color="#10808C"/>
</radialGradient>
<radialGradient id="paint2_radial_5924_25223" cx="0" cy="0" r="1" gradientUnits="userSpaceOnUse" gradientTransform="translate(21.8548 14.0755) rotate(127.548) scale(5.9835 5.39415)">
<stop stop-color="#1DF7EF"/>
<stop offset="1" stop-color="#10808C"/>
</radialGradient>
<radialGradient id="paint3_radial_5924_25223" cx="0" cy="0" r="1" gradientUnits="userSpaceOnUse" gradientTransform="translate(21.6014 19.1566) rotate(125.634) scale(7.72074 6.82111)">
<stop stop-color="#1DF7EF"/>
<stop offset="1" stop-color="#10808C"/>
</radialGradient>
<radialGradient id="paint4_radial_5924_25223" cx="0" cy="0" r="1" gradientUnits="userSpaceOnUse" gradientTransform="translate(16.3943 20.8929) rotate(112.642) scale(5.63359 3.7346)">
<stop stop-color="#1DF7EF"/>
<stop offset="1" stop-color="#10808C"/>
</radialGradient>
<radialGradient id="paint5_radial_5924_25223" cx="0" cy="0" r="1" gradientUnits="userSpaceOnUse" gradientTransform="translate(13.1824 18.2529) rotate(119.008) scale(3.54146 2.80227)">
<stop stop-color="#1DF7EF"/>
<stop offset="1" stop-color="#10808C"/>
</radialGradient>
<radialGradient id="paint6_radial_5924_25223" cx="0" cy="0" r="1" gradientUnits="userSpaceOnUse" gradientTransform="translate(27.0595 25.0417) rotate(159.689) scale(25.6164 15.5585)">
<stop stop-color="#FFDF27"/>
<stop offset="0.9999" stop-color="#FE5468"/>
</radialGradient>
<radialGradient id="paint7_radial_5924_25223" cx="0" cy="0" r="1" gradientUnits="userSpaceOnUse" gradientTransform="translate(29.9217 32.8148) rotate(140.592) scale(12.3836 11.3332)">
<stop stop-color="#1DF7EF"/>
<stop offset="0.9999" stop-color="#10808C"/>
</radialGradient>
<radialGradient id="paint8_radial_5924_25223" cx="0" cy="0" r="1" gradientUnits="userSpaceOnUse" gradientTransform="translate(14.9712 32.9836) rotate(148.427) scale(14.6633 12.2041)">
<stop stop-color="#1DF7EF"/>
<stop offset="0.9999" stop-color="#10808C"/>
</radialGradient>
<linearGradient id="paint9_linear_5924_25223" x1="83.1685" y1="13.419" x2="84.3787" y2="17.9356" gradientUnits="userSpaceOnUse">
<stop stop-color="#FE5468"/>
<stop offset="1" stop-color="#FFDF27"/>
</linearGradient>
<linearGradient id="paint10_linear_5924_25223" x1="71.9719" y1="7.74803" x2="75.4424" y2="20.6998" gradientUnits="userSpaceOnUse">
<stop stop-color="#FE5468"/>
<stop offset="1" stop-color="#FFDF27"/>
</linearGradient>
<linearGradient id="paint11_linear_5924_25223" x1="61.2403" y1="11.768" x2="63.9759" y2="21.9774" gradientUnits="userSpaceOnUse">
<stop stop-color="#FE5468"/>
<stop offset="1" stop-color="#FFDF27"/>
</linearGradient>
<linearGradient id="paint12_linear_5924_25223" x1="48.6817" y1="15.1337" x2="51.4173" y2="25.3432" gradientUnits="userSpaceOnUse">
<stop stop-color="#FE5468"/>
<stop offset="1" stop-color="#FFDF27"/>
</linearGradient>
<linearGradient id="paint13_linear_5924_25223" x1="37.2504" y1="9.03796" x2="43.5067" y2="32.3867" gradientUnits="userSpaceOnUse">
<stop stop-color="#FE5468"/>
<stop offset="1" stop-color="#FFDF27"/>
</linearGradient>
</defs>
</svg>
