<svg width="58" height="37" viewBox="0 0 58 37" fill="none" xmlns="http://www.w3.org/2000/svg">
<path d="M53.6165 20.8719C53.1986 20.9838 52.7851 21.0252 52.3758 20.9959C51.9808 20.9627 51.6175 20.8748 51.2859 20.732C50.9504 20.5748 50.6629 20.3662 50.4233 20.1061C50.1982 19.8422 50.0393 19.5373 49.9467 19.1916C49.7845 18.5865 49.891 18.0329 50.2661 17.5309C50.6555 17.0251 51.2465 16.666 52.0388 16.4537C52.4134 16.3533 52.7929 16.3289 53.1773 16.3803C53.5722 16.4134 53.9302 16.5105 54.2513 16.6716C54.5868 16.8287 54.8743 17.0374 55.1139 17.2974C55.3534 17.5575 55.5176 17.8532 55.6064 18.1846C55.7762 18.8185 55.6789 19.3773 55.3144 19.861C54.9604 20.3265 54.3944 20.6634 53.6165 20.8719Z" fill="url(#paint0_linear_5924_25268)"/>
<path d="M39.9035 11.0343C40.4338 10.8922 40.9989 10.8171 41.599 10.809C42.197 10.793 42.7591 10.8332 43.2855 10.9297C43.8097 11.0183 44.2582 11.1568 44.631 11.3453C45.0039 11.5338 45.2242 11.7547 45.2921 12.008C45.326 12.1346 45.3088 12.2919 45.2404 12.4799C45.1699 12.6599 45.0746 12.8424 44.9545 13.0273C44.8322 13.2042 44.6889 13.3656 44.5244 13.5115C44.3657 13.6473 44.2151 13.7343 44.0726 13.7725C43.8827 13.8234 43.6478 13.8015 43.368 13.7069C43.096 13.6101 42.7922 13.5049 42.4563 13.3913C42.1263 13.2676 41.7739 13.1712 41.3991 13.102C41.0243 13.0328 40.643 13.0501 40.2552 13.154C40.0019 13.2219 39.8092 13.3414 39.6769 13.5126C39.5504 13.6737 39.5169 13.8651 39.5762 14.0867C39.6293 14.2845 39.7783 14.4609 40.0234 14.6158C40.2663 14.7627 40.5708 14.9017 40.9367 15.0327C41.3105 15.1615 41.7271 15.2917 42.1864 15.4231C42.6458 15.5545 43.1173 15.6996 43.6009 15.8584C44.0925 16.0151 44.5785 16.1987 45.0591 16.4092C45.5396 16.6198 45.984 16.8697 46.3924 17.1589C46.8086 17.4461 47.1711 17.7858 47.4798 18.1781C47.7863 18.5625 48.0086 19.0119 48.1464 19.5264C48.2652 19.9696 48.2942 20.3944 48.2334 20.8009C48.1727 21.2073 48.0309 21.5804 47.808 21.92C47.5852 22.2597 47.291 22.5548 46.9256 22.8054C46.5601 23.056 46.136 23.246 45.6532 23.3753C45.0438 23.5386 44.4565 23.5942 43.8912 23.5421C43.3279 23.4979 42.8169 23.3634 42.358 23.1386C41.899 22.9138 41.5023 22.6045 41.1677 22.2106C40.8411 21.8146 40.6057 21.3475 40.4615 20.8094C40.2749 20.1129 40.2618 19.5735 40.4223 19.1912C40.5908 18.8068 40.9441 18.5425 41.4822 18.3983C41.8146 18.3092 42.0967 18.3015 42.3285 18.3751C42.5603 18.4487 42.7006 18.5765 42.7494 18.7585C42.7748 18.8535 42.7855 18.9567 42.7814 19.0681C42.7752 19.1715 42.7671 19.2839 42.7573 19.4053C42.7532 19.5167 42.7512 19.636 42.7514 19.7632C42.7594 19.8883 42.7794 20.0102 42.8112 20.1289C42.8663 20.3346 42.9668 20.5198 43.1127 20.6843C43.2585 20.8488 43.4297 20.981 43.6262 21.0811C43.8327 21.1869 44.0544 21.2547 44.2914 21.2845C44.5284 21.3143 44.7657 21.2974 45.0031 21.2338C45.6362 21.0642 45.8828 20.7182 45.7429 20.1958C45.6326 19.7843 45.3664 19.44 44.9444 19.1628C44.5202 18.8778 44.0162 18.6269 43.4322 18.4102C42.8461 18.1855 42.2204 17.9715 41.5551 17.768C40.8978 17.5624 40.2718 17.3315 39.6772 17.0751C39.0826 16.8188 38.5647 16.5165 38.1236 16.1681C37.6804 15.8119 37.3898 15.3766 37.252 14.8621C37.1375 14.4347 37.1196 14.0197 37.1982 13.6169C37.2848 13.2119 37.4485 12.8415 37.6893 12.5055C37.928 12.1617 38.234 11.8634 38.6074 11.6106C38.9887 11.3558 39.4207 11.1637 39.9035 11.0343Z" fill="url(#paint1_linear_5924_25268)"/>
<path d="M36.5534 20.189C36.7299 19.9297 36.9289 19.7703 37.1505 19.7109C37.2772 19.677 37.4004 19.6779 37.5202 19.7136C37.6401 19.7494 37.7814 19.8176 37.944 19.9182C38.1115 20.0684 38.2349 20.1965 38.3142 20.3025C38.3993 20.3984 38.4567 20.5018 38.4864 20.6126C38.55 20.8501 38.4917 21.1074 38.3116 21.3847C38.0165 21.8031 37.6813 22.1983 37.306 22.5703C36.9285 22.9344 36.5217 23.2682 36.0856 23.5717C35.6495 23.8751 35.1859 24.1393 34.6947 24.3642C34.2058 24.597 33.708 24.7813 33.2015 24.917C32.5604 25.0888 31.9367 25.1668 31.3302 25.1512C30.7259 25.1435 30.1619 25.0486 29.6381 24.8666C29.1222 24.6825 28.6577 24.421 28.2446 24.0822C27.8293 23.7354 27.4873 23.3138 27.2186 22.8175C27.088 22.615 26.9826 22.4905 26.9023 22.4442C26.8278 22.3878 26.7233 22.3776 26.5887 22.4137C26.2959 22.4922 26.0513 22.4814 25.8548 22.3813C25.6583 22.2813 25.5241 22.0967 25.452 21.8276C25.4223 21.7168 25.4111 21.6435 25.4184 21.6076L25.3786 21.3638C25.3418 21.0683 25.3619 20.8424 25.4387 20.686C25.5235 20.5276 25.6886 20.4155 25.9339 20.3498L26.112 20.3021C26.4444 20.213 26.6365 19.9961 26.6883 19.6514C26.7874 19.0396 26.9664 18.4572 27.2254 17.9043C27.4844 17.3514 27.8089 16.853 28.199 16.4092C28.5869 15.9575 29.0266 15.5725 29.5181 15.2542C30.0154 14.9258 30.545 14.6863 31.1069 14.5358C31.6926 14.3789 32.262 14.3196 32.8152 14.358C33.3741 14.3863 33.8839 14.5 34.3443 14.699C34.8048 14.8979 35.196 15.1706 35.5178 15.5169C35.8476 15.8612 36.075 16.2668 36.2001 16.7337C36.2871 17.0582 36.3033 17.372 36.2487 17.675C36.1942 17.978 36.0758 18.2642 35.8935 18.5336C35.7091 18.7951 35.4637 19.0347 35.1573 19.2525C34.8588 19.4682 34.5012 19.6531 34.0844 19.8072L30.0764 21.3265C29.9181 21.3689 29.7981 21.4435 29.7164 21.5502C29.6427 21.6548 29.6238 21.7743 29.6599 21.9089C29.715 22.1147 29.8432 22.2924 30.0445 22.442C30.2536 22.5896 30.505 22.7046 30.7986 22.7871C31.0979 22.8596 31.4254 22.8948 31.7812 22.8928C32.1448 22.8887 32.5047 22.8389 32.8608 22.7434C33.2012 22.6523 33.5409 22.5273 33.8801 22.3686C34.2251 22.1998 34.5547 22.0054 34.869 21.7855C35.1912 21.5634 35.4952 21.3208 35.7809 21.0576C36.0646 20.7865 36.322 20.497 36.5534 20.189ZM33.0854 17.8355C33.1977 17.78 33.2857 17.697 33.3495 17.5866C33.4111 17.4683 33.4239 17.3419 33.3878 17.2074C33.356 17.0886 33.2828 16.9895 33.1682 16.91C33.0535 16.8304 32.9104 16.7712 32.7389 16.7323C32.5652 16.6856 32.373 16.665 32.1624 16.6705C31.9519 16.676 31.7358 16.7085 31.5142 16.7678C31.1897 16.8548 30.87 16.9913 30.5551 17.1775C30.2403 17.3637 29.9655 17.573 29.731 17.8055C29.4942 18.0301 29.3143 18.2607 29.1911 18.4973C29.0657 18.726 29.0274 18.9313 29.0762 19.1134C29.125 19.2954 29.2602 19.3567 29.4818 19.2973C29.6163 19.2613 29.8297 19.1871 30.122 19.0749C30.4142 18.9627 30.7371 18.838 31.0906 18.7009C31.4419 18.5558 31.7961 18.4058 32.1532 18.2507C32.5104 18.0956 32.8211 17.9572 33.0854 17.8355Z" fill="url(#paint2_linear_5924_25268)"/>
<path d="M23.9948 23.5547C24.1713 23.2954 24.3703 23.136 24.5919 23.0766C24.7186 23.0427 24.8418 23.0436 24.9617 23.0794C25.0815 23.1151 25.2228 23.1833 25.3854 23.2839C25.5529 23.4341 25.6763 23.5622 25.7556 23.6682C25.8407 23.7642 25.8981 23.8675 25.9278 23.9783C25.9914 24.2158 25.9331 24.4731 25.753 24.7505C25.4579 25.1688 25.1227 25.564 24.7474 25.936C24.3699 26.3001 23.9631 26.6339 23.527 26.9374C23.0909 27.2408 22.6273 27.505 22.1362 27.7299C21.6472 27.9627 21.1494 28.147 20.6429 28.2827C20.0018 28.4545 19.3781 28.5326 18.7716 28.5169C18.1673 28.5092 17.6033 28.4144 17.0795 28.2324C16.5636 28.0483 16.0991 27.7868 15.686 27.4479C15.2707 27.1011 14.9287 26.6795 14.66 26.1832C14.5294 25.9807 14.424 25.8563 14.3437 25.8099C14.2692 25.7535 14.1647 25.7434 14.0301 25.7794C13.7373 25.8579 13.4927 25.8471 13.2962 25.7471C13.0998 25.647 12.9655 25.4624 12.8934 25.1934C12.8637 25.0826 12.8525 25.0092 12.8599 24.9733L12.82 24.7295C12.7832 24.434 12.8033 24.2081 12.8801 24.0518C12.9649 23.8933 13.13 23.7812 13.3753 23.7155L13.5534 23.6678C13.8858 23.5787 14.0779 23.3618 14.1298 23.0171C14.2288 22.4053 14.4078 21.8229 14.6668 21.27C14.9258 20.7171 15.2503 20.2188 15.6404 19.7749C16.0283 19.3232 16.468 18.9382 16.9595 18.6199C17.4568 18.2915 17.9864 18.0521 18.5484 17.9015C19.134 17.7446 19.7034 17.6853 20.2566 17.7237C20.8156 17.7521 21.3253 17.8657 21.7857 18.0647C22.2462 18.2636 22.6374 18.5363 22.9592 18.8827C23.289 19.2269 23.5164 19.6325 23.6415 20.0995C23.7285 20.4239 23.7447 20.7377 23.6901 21.0407C23.6356 21.3437 23.5172 21.6299 23.3349 21.8993C23.1505 22.1608 22.9051 22.4004 22.5987 22.6183C22.3002 22.834 21.9426 23.0188 21.5259 23.1729L17.5178 24.6922C17.3595 24.7346 17.2395 24.8092 17.1578 24.9159C17.0841 25.0205 17.0652 25.1401 17.1013 25.2746C17.1564 25.4804 17.2846 25.6581 17.4859 25.8077C17.6951 25.9553 17.9464 26.0703 18.24 26.1528C18.5393 26.2253 18.8668 26.2605 19.2226 26.2585C19.5862 26.2544 19.9461 26.2046 20.3023 26.1092C20.6426 26.018 20.9823 25.893 21.3215 25.7343C21.6665 25.5655 21.9961 25.3711 22.3104 25.1512C22.6326 24.9291 22.9366 24.6865 23.2223 24.4233C23.506 24.1523 23.7635 23.8627 23.9948 23.5547ZM20.5268 21.2013C20.6391 21.1457 20.7272 21.0627 20.7909 20.9523C20.8525 20.834 20.8653 20.7076 20.8292 20.5731C20.7974 20.4544 20.7242 20.3552 20.6096 20.2757C20.4949 20.1961 20.3518 20.1369 20.1803 20.0981C20.0066 20.0513 19.8144 20.0307 19.6038 20.0362C19.3933 20.0417 19.1772 20.0742 18.9556 20.1336C18.6311 20.2205 18.3114 20.3571 17.9965 20.5432C17.6817 20.7294 17.4069 20.9387 17.1724 21.1712C16.9356 21.3958 16.7557 21.6264 16.6325 21.863C16.5071 22.0917 16.4688 22.2971 16.5176 22.4791C16.5664 22.6611 16.7016 22.7224 16.9232 22.6631C17.0577 22.627 17.2711 22.5529 17.5634 22.4406C17.8556 22.3284 18.1785 22.2037 18.532 22.0666C18.8833 21.9215 19.2375 21.7715 19.5947 21.6164C19.9518 21.4613 20.2625 21.323 20.5268 21.2013Z" fill="url(#paint3_linear_5924_25268)"/>
<path d="M4.37107 24.5884C4.1848 24.6214 4.00658 24.5419 3.8364 24.35C3.66622 24.158 3.54508 23.9276 3.47298 23.6585C3.43905 23.5318 3.41805 23.406 3.40999 23.2809C3.39188 23.15 3.39385 23.0308 3.41589 22.9231C3.43793 22.8154 3.47714 22.7243 3.53352 22.6498C3.58779 22.5674 3.66241 22.5135 3.75738 22.488C4.05021 22.4096 4.38444 22.3115 4.76009 22.1939C5.13361 22.0684 5.53484 21.9354 5.96376 21.795C6.179 21.7119 6.26668 21.5484 6.22681 21.3047C5.99055 20.138 5.8244 19.1222 5.72836 18.2573C5.63232 17.3923 5.59897 16.6506 5.62832 16.032C5.65554 15.4054 5.73619 14.8834 5.87028 14.4657C6.01228 14.046 6.20029 13.7029 6.43431 13.4366C7.75936 11.9289 8.46507 11.6608 8.71827 11.5421C8.8179 11.4391 9.78017 11.0922 9.88306 11.0646C10.0809 11.0116 10.3005 11.0079 10.5417 11.0535C10.7888 11.0891 11.0245 11.1617 11.249 11.2712C11.4792 11.3706 11.6802 11.5034 11.8519 11.6695C12.0215 11.8276 12.1318 12.0016 12.1827 12.1916C12.2018 12.2628 12.2018 12.3264 12.1829 12.3824C12.1618 12.4304 12.1329 12.4806 12.096 12.5329C11.8488 12.8451 9.41694 13.6522 8.59641 15.4275C8.43532 15.7761 8.32682 16.1784 8.27089 16.6344C8.21496 17.0905 8.209 17.6223 8.25301 18.2297C8.29701 18.8371 8.40053 19.5559 8.56355 20.3859C8.59748 20.5125 8.64272 20.6022 8.69925 20.6549C8.76158 20.6976 8.8521 20.703 8.97082 20.6712C9.27948 20.5885 9.58177 20.482 9.87771 20.3518C10.1816 20.2195 10.4696 20.0915 10.7418 19.9676C11.0118 19.8359 11.2671 19.7124 11.5077 19.597C11.7482 19.4817 11.9674 19.3975 12.1653 19.3445C12.3077 19.3063 12.4339 19.3658 12.5439 19.5229C12.6597 19.67 12.7504 19.8663 12.8162 20.1116C12.8543 20.2541 12.8817 20.4037 12.8982 20.5604C12.9148 20.7171 12.9113 20.8623 12.8877 20.9958C12.872 21.1273 12.8362 21.2471 12.7804 21.3554C12.7225 21.4557 12.6363 21.5297 12.5218 21.5774L9.45308 22.7559C9.29324 22.8242 9.20838 22.919 9.19849 23.0404C9.19653 23.1597 9.22205 23.3183 9.27507 23.5161C9.74372 25.2652 10.1902 26.7573 10.6144 27.9923C11.0386 29.2274 11.4167 30.2585 11.7486 31.0856C12.0906 31.9186 12.3708 32.5688 12.5894 33.0361C12.81 33.5114 12.95 33.8598 13.0094 34.0814C13.054 34.2477 13.027 34.416 12.9285 34.5866C12.8379 34.7551 12.7025 34.9144 12.5221 35.0645C12.3497 35.2125 12.1512 35.342 11.9265 35.4532C11.7039 35.5722 11.4897 35.6592 11.2839 35.7144C11.0861 35.7674 10.8984 35.7795 10.7211 35.7507C10.5537 35.7277 10.437 35.6402 10.3708 35.4883C10.1432 34.9555 9.91269 34.3641 9.67916 33.7141C9.44774 33.0721 9.2041 32.3527 8.94822 31.5561C8.70238 30.7652 8.44431 29.8971 8.17401 28.9516C7.90158 27.9982 7.61268 26.9517 7.30731 25.812C7.22885 25.5192 7.1525 25.2343 7.07828 24.9573C7.00406 24.6803 6.93775 24.4011 6.87936 24.1199C6.81574 23.8825 6.65334 23.7987 6.39217 23.8687L4.37107 24.5884Z" fill="url(#paint4_linear_5924_25268)"/>
<defs>
<linearGradient id="paint0_linear_5924_25268" x1="52.1685" y1="16.419" x2="53.3787" y2="20.9356" gradientUnits="userSpaceOnUse">
<stop stop-color="#FE5468"/>
<stop offset="1" stop-color="#FFDF27"/>
</linearGradient>
<linearGradient id="paint1_linear_5924_25268" x1="40.9719" y1="10.748" x2="44.4424" y2="23.6998" gradientUnits="userSpaceOnUse">
<stop stop-color="#FE5468"/>
<stop offset="1" stop-color="#FFDF27"/>
</linearGradient>
<linearGradient id="paint2_linear_5924_25268" x1="30.2403" y1="14.768" x2="32.9759" y2="24.9774" gradientUnits="userSpaceOnUse">
<stop stop-color="#FE5468"/>
<stop offset="1" stop-color="#FFDF27"/>
</linearGradient>
<linearGradient id="paint3_linear_5924_25268" x1="17.6817" y1="18.1337" x2="20.4173" y2="28.3432" gradientUnits="userSpaceOnUse">
<stop stop-color="#FE5468"/>
<stop offset="1" stop-color="#FFDF27"/>
</linearGradient>
<linearGradient id="paint4_linear_5924_25268" x1="6.25039" y1="12.038" x2="12.5067" y2="35.3867" gradientUnits="userSpaceOnUse">
<stop stop-color="#FE5468"/>
<stop offset="1" stop-color="#FFDF27"/>
</linearGradient>
</defs>
</svg>
