<svg width="16" height="16" viewBox="0 0 16 16" fill="none" xmlns="http://www.w3.org/2000/svg">
<path fill-rule="evenodd" clip-rule="evenodd" d="M6.51195 13.4231C6.83043 13.2384 7.23838 13.3468 7.42313 13.6653C7.48173 13.7663 7.56585 13.8502 7.66706 13.9084C7.76826 13.9667 7.883 13.9974 7.9998 13.9974C8.11659 13.9974 8.23133 13.9667 8.33254 13.9084C8.43374 13.8502 8.51786 13.7663 8.57646 13.6653C8.76121 13.3468 9.16916 13.2384 9.48764 13.4231C9.80613 13.6079 9.91454 14.0158 9.7298 14.3343C9.55399 14.6374 9.30164 14.889 8.99802 15.0638C8.69441 15.2387 8.35018 15.3308 7.9998 15.3308C7.64942 15.3308 7.30519 15.2387 7.00157 15.0638C6.69795 14.889 6.44561 14.6374 6.2698 14.3343C6.08505 14.0158 6.19347 13.6079 6.51195 13.4231Z" fill="#CDD8D3"/>
<path fill-rule="evenodd" clip-rule="evenodd" d="M12.6672 5.49428C12.6895 7.63554 13.1551 8.97627 13.585 9.76442C13.8062 10.17 14.0216 10.436 14.1712 10.5939C14.2462 10.6731 14.3051 10.7255 14.3406 10.7551C14.3583 10.7699 14.3702 10.779 14.3754 10.7828L14.3773 10.7842C14.6163 10.9484 14.722 11.2487 14.6378 11.5268C14.5527 11.808 14.2935 12.0003 13.9997 12.0003H1.99973C1.70595 12.0003 1.4468 11.808 1.36166 11.5268C1.27744 11.2487 1.3832 10.9484 1.62219 10.7842L1.62409 10.7828C1.62922 10.779 1.64113 10.7699 1.65887 10.7551C1.69435 10.7255 1.75327 10.6731 1.82826 10.5939C1.97788 10.436 2.19327 10.17 2.41446 9.76442C2.85501 8.95675 3.33306 7.56876 3.33306 5.33366C3.33306 4.09598 3.82472 2.909 4.69989 2.03383C5.57506 1.15866 6.76205 0.666992 7.99973 0.666992C8.3351 0.666992 8.66674 0.703093 8.98947 0.77314C8.62171 1.10534 8.33664 1.52736 8.16884 2.00461C8.11265 2.00176 8.05626 2.00033 7.99973 2.00033C7.11567 2.00033 6.26783 2.35151 5.6427 2.97664C5.01758 3.60176 4.66639 4.4496 4.66639 5.33366C4.66639 7.76522 4.14444 9.37724 3.58499 10.4029C3.53426 10.4959 3.48333 10.5839 3.43261 10.667H12.5668C12.5161 10.5839 12.4652 10.4959 12.4145 10.4029C11.9062 9.47102 11.4288 8.0551 11.3458 5.98026C11.8309 5.92455 12.2808 5.75312 12.6672 5.49428Z" fill="#CDD8D3"/>
<circle cx="11" cy="3" r="2" fill="#CDD8D3"/>
</svg>
