<svg width="24" height="24" viewBox="0 0 24 24" fill="none" xmlns="http://www.w3.org/2000/svg">
  <path fill-rule="evenodd" clip-rule="evenodd" d="M11 10C10.4477 10 10 10.4477 10 11L10 20C10 20.5523 10.4477 21 11 21H20C20.5523 21 21 20.5523 21 20V11C21 10.4477 20.5523 10 20 10L11 10ZM8 11C8 9.34315 9.34315 8 11 8L20 8C21.6569 8 23 9.34315 23 11V20C23 21.6569 21.6569 23 20 23H11C9.34315 23 8 21.6569 8 20L8 11Z" fill="#CDD8D3"/>
  <path fill-rule="evenodd" clip-rule="evenodd" d="M4 3C3.73478 3 3.48043 3.10536 3.29289 3.29289C3.10536 3.48043 3 3.73478 3 4L3 13C3 13.2652 3.10536 13.5196 3.29289 13.7071C3.48043 13.8946 3.73478 14 4 14H5C5.55228 14 6 14.4477 6 15C6 15.5523 5.55228 16 5 16H4C3.20435 16 2.44129 15.6839 1.87868 15.1213C1.31607 14.5587 1 13.7956 1 13L1 4C1 3.20435 1.31607 2.44129 1.87868 1.87868C2.44129 1.31607 3.20435 1 4 1L13 1C13.7956 1 14.5587 1.31607 15.1213 1.87868C15.6839 2.44129 16 3.20435 16 4V5C16 5.55228 15.5523 6 15 6C14.4477 6 14 5.55228 14 5V4C14 3.73478 13.8946 3.48043 13.7071 3.29289C13.5196 3.10536 13.2652 3 13 3L4 3Z" fill="#CDD8D3"/>
</svg>