<svg width="11" height="10" viewBox="0 0 11 10" fill="none" xmlns="http://www.w3.org/2000/svg">
<path fill-rule="evenodd" clip-rule="evenodd" d="M5.93099 1.25033C3.85992 1.25033 2.18099 2.92926 2.18099 5.00033C2.18099 7.07139 3.85992 8.75032 5.93099 8.75032C8.00206 8.75032 9.68099 7.07139 9.68099 5.00033C9.68099 2.92926 8.00206 1.25033 5.93099 1.25033ZM1.34766 5.00033C1.34766 2.46902 3.39968 0.416992 5.93099 0.416992C8.46229 0.416992 10.5143 2.46902 10.5143 5.00033C10.5143 7.53163 8.46229 9.58366 5.93099 9.58366C3.39968 9.58366 1.34766 7.53163 1.34766 5.00033Z" fill="#CDD8D3"/>
<path fill-rule="evenodd" clip-rule="evenodd" d="M4.59637 5.58195C4.45796 5.39936 4.19786 5.36271 4.01435 5.50035C3.83025 5.63842 3.79294 5.89959 3.93101 6.08368L4.26435 5.83368C3.93101 6.08368 3.93111 6.08382 3.93122 6.08395L3.93143 6.08424L3.93192 6.08488L3.93306 6.08639L3.93606 6.09031L3.94494 6.10167C3.95212 6.11074 3.96185 6.12278 3.97408 6.13735C3.99852 6.16647 4.0331 6.2059 4.07745 6.25219C4.16582 6.34439 4.29494 6.46584 4.46198 6.58732C4.79446 6.82912 5.29538 7.08368 5.93101 7.08368C6.56665 7.08368 7.06757 6.82912 7.40004 6.58732C7.56708 6.46584 7.69621 6.34439 7.78458 6.25219C7.82893 6.2059 7.86351 6.16647 7.88795 6.13735C7.90018 6.12278 7.90991 6.11074 7.91709 6.10167L7.92597 6.09031L7.92897 6.08639L7.93011 6.08488L7.93059 6.08424L7.93081 6.08395C7.93091 6.08382 7.93101 6.08368 7.59768 5.83368L7.93101 6.08368C8.06909 5.89959 8.03178 5.63842 7.84768 5.50035C7.66417 5.36271 7.40406 5.39936 7.26566 5.58195L7.26372 5.58442C7.26124 5.58755 7.25653 5.59341 7.24964 5.60163C7.23582 5.61809 7.21344 5.64376 7.18292 5.6756C7.12155 5.73964 7.02932 5.82653 6.9099 5.91338C6.66946 6.08824 6.33704 6.25035 5.93101 6.25035C5.52499 6.25035 5.19257 6.08824 4.95213 5.91338C4.83271 5.82653 4.74048 5.73964 4.67911 5.6756C4.64859 5.64376 4.62621 5.61809 4.61239 5.60163C4.6055 5.59341 4.60079 5.58755 4.59831 5.58442L4.59637 5.58195Z" fill="#CDD8D3"/>
<path fill-rule="evenodd" clip-rule="evenodd" d="M4.26465 3.74967C4.26465 3.51956 4.4512 3.33301 4.68132 3.33301H4.68548C4.9156 3.33301 5.10215 3.51956 5.10215 3.74967C5.10215 3.97979 4.9156 4.16634 4.68548 4.16634H4.68132C4.4512 4.16634 4.26465 3.97979 4.26465 3.74967Z" fill="#CDD8D3"/>
<path fill-rule="evenodd" clip-rule="evenodd" d="M6.76465 3.74967C6.76465 3.51956 6.9512 3.33301 7.18132 3.33301H7.18548C7.4156 3.33301 7.60215 3.51956 7.60215 3.74967C7.60215 3.97979 7.4156 4.16634 7.18548 4.16634H7.18132C6.9512 4.16634 6.76465 3.97979 6.76465 3.74967Z" fill="#CDD8D3"/>
</svg>
