<svg width="16" height="16" viewBox="0 0 16 16" fill="none" xmlns="http://www.w3.org/2000/svg">
<path d="M15.5 8C15.5 3.85786 12.1421 0.5 8 0.5C3.85786 0.5 0.5 3.85786 0.5 8C0.5 12.1421 3.85786 15.5 8 15.5C12.1421 15.5 15.5 12.1421 15.5 8Z" fill="#24E5DF"/>
<path d="M8.01003 1.77539C4.56665 1.77539 1.7749 4.57948 1.7749 8.03797C1.7749 11.4965 4.56665 14.3004 8.01003 14.3004C11.4534 14.3004 14.2449 11.4966 14.2449 8.03797C14.2449 4.5794 11.4532 1.77539 8.01003 1.77539ZM10.1199 10.1578C8.00125 12.286 5.33868 13.0622 4.17306 11.8916C3.00751 10.7213 3.7807 8.04682 5.89986 5.91852C8.01865 3.79024 10.6811 3.01378 11.8468 4.18413C13.0124 5.35448 12.2392 8.02897 10.1199 10.1578Z" fill="#133D38"/>
</svg>
