<svg width="226" height="60" viewBox="0 0 226 60" fill="none" xmlns="http://www.w3.org/2000/svg">
<g opacity="0.2">
<path d="M13.4079 13.991C13.3229 12.805 13.6459 11.716 14.3389 10.66C14.8029 9.958 15.4609 9.2 16.1869 8.365C18.0599 6.208 20.3799 3.538 20.9479 0C22.1829 2.712 21.5839 5.349 20.2169 7.774C19.6019 8.864 18.9209 9.647 18.2709 10.394C17.5059 11.273 16.7849 12.102 16.2669 13.321C15.9819 13.984 15.8199 14.619 15.7439 15.24L13.4079 13.991Z" fill="#CDD8D3"/>
<path d="M17.416 16.1366C17.701 15.0906 18.194 14.1126 18.849 13.1636C19.391 12.3716 19.899 11.7846 20.355 11.2576C21.889 9.48264 22.841 8.38064 22.562 2.43164C22.741 2.81364 22.918 3.18164 23.09 3.53664L23.091 3.53864C24.587 6.64464 25.637 8.82264 23.873 11.8136C23.001 13.2916 22.365 14.0266 21.803 14.6766C21.17 15.4076 20.63 16.0326 19.951 17.4866L17.416 16.1366Z" fill="#CDD8D3"/>
<path d="M23.985 15.1997C23.297 16.0147 22.174 17.1387 22.123 17.2127L28.478 13.6597C28.345 12.4757 27.472 11.0807 26.399 9.09766C26.616 11.7117 25.596 13.2907 23.985 15.1997Z" fill="#CDD8D3"/>
<path d="M28.4311 14.8408C28.2601 15.5988 27.3241 17.1758 26.6361 17.9948C24.4621 20.5808 23.3301 21.6838 21.4701 25.5748C21.3651 25.1538 21.2551 24.7568 21.1501 24.3778C20.6311 22.5058 20.3121 20.9468 20.9341 19.6028L28.4311 14.8408Z" fill="#CDD8D3"/>
<path d="M20.0362 23.6073C19.5042 22.0503 19.1222 20.7483 19.4002 19.1013L17.1782 17.6533C17.0552 20.0763 18.0902 22.9053 20.9482 26.5473C20.7962 25.6453 20.3402 24.4973 20.0362 23.6073Z" fill="#CDD8D3"/>
<path d="M15.697 16.6883C15.735 17.4763 16.222 19.5593 16.658 20.6613C15.414 19.0743 14.054 16.6393 13.665 15.3633L15.697 16.6883Z" fill="#CDD8D3"/>
<path d="M41.868 28.5309C41.868 24.9259 35.164 21.8939 26.104 21.0449C25.24 22.0149 24.376 23.2189 23.55 24.9939L22.306 27.3569C22.069 27.7929 21.632 28.0789 21.147 28.1169C20.654 28.1549 20.179 27.9389 19.885 27.5439L19.087 26.4719C17.425 24.3499 16.209 22.6689 15.25 21.0959C6.457 22.0109 0 24.9949 0 28.5309C0 32.7939 9.382 36.2549 20.939 36.2549C21.497 36.2549 22.051 36.2469 22.599 36.2309L24.295 31.4299L24.309 31.3959C24.683 30.4609 25.583 29.8489 26.584 29.8349H26.591L41.564 29.8749C41.718 29.4979 41.868 28.9239 41.868 28.5309Z" fill="#CDD8D3"/>
<path d="M27.2018 36.359H38.9328L38.4198 37.66H26.7508L24.1528 45.071V37.201L25.9698 32.06C26.0728 31.8 26.3248 31.627 26.6078 31.623L40.8278 31.627L40.3018 32.909H28.4308L28.0668 33.991H39.8958L39.3338 35.277H27.6128L27.2018 36.359Z" fill="#CDD8D3"/>
<path d="M0.720215 31.9385C2.07121 35.7585 5.37721 40.2455 6.08021 40.9015C8.50821 43.1885 16.3312 45.0715 22.4922 45.0715V38.6325C11.8122 38.6325 3.47421 35.1735 0.720215 31.9385Z" fill="#CDD8D3"/>
<path d="M55.5312 38.7766C54.5522 38.7766 53.6492 38.5886 52.8202 38.2116C52.0112 37.8166 51.3052 37.2706 50.7032 36.5746C50.1192 35.8776 49.6682 35.0776 49.3482 34.1746C49.0282 33.2706 48.8682 32.3106 48.8682 31.2946C48.8682 30.2216 49.0372 29.2236 49.3762 28.3016C49.7152 27.3796 50.1852 26.5706 50.7882 25.8736C51.4092 25.1586 52.1332 24.6126 52.9622 24.2366C53.8092 23.8406 54.7402 23.6436 55.7572 23.6436C56.9052 23.6436 57.9122 23.9066 58.7782 24.4336C59.6442 24.9416 60.3592 25.6286 60.9232 26.4946V23.8976H64.2272V37.9856C64.2272 39.4546 63.8692 40.7056 63.1542 41.7416C62.4582 42.7946 61.4882 43.5956 60.2462 44.1406C59.0042 44.7056 57.5922 44.9876 56.0112 44.9876C54.4112 44.9876 53.0562 44.7146 51.9452 44.1696C50.8352 43.6426 49.8842 42.8896 49.0942 41.9106L51.1552 39.9056C51.7192 40.6026 52.4252 41.1486 53.2722 41.5436C54.1382 41.9386 55.0512 42.1366 56.0112 42.1366C56.8202 42.1366 57.5542 41.9856 58.2132 41.6846C58.8912 41.4026 59.4272 40.9506 59.8222 40.3296C60.2372 39.7266 60.4442 38.9456 60.4442 37.9856V36.1226C59.9542 36.9696 59.2582 37.6286 58.3542 38.0986C57.4702 38.5506 56.5292 38.7766 55.5312 38.7766ZM56.8012 35.7556C57.2162 35.7556 57.6112 35.6896 57.9872 35.5576C58.3642 35.4266 58.7122 35.2476 59.0322 35.0216C59.3522 34.7956 59.6342 34.5316 59.8792 34.2306C60.1242 33.9106 60.3122 33.5906 60.4442 33.2706V29.7416C60.2182 29.1586 59.8982 28.6496 59.4842 28.2166C59.0882 27.7846 58.6372 27.4546 58.1282 27.2286C57.6392 26.9846 57.1212 26.8616 56.5762 26.8616C55.9922 26.8616 55.4652 26.9846 54.9942 27.2286C54.5242 27.4736 54.1192 27.8216 53.7802 28.2736C53.4422 28.7066 53.1782 29.1956 52.9902 29.7416C52.8202 30.2686 52.7362 30.8236 52.7362 31.4076C52.7362 32.0096 52.8392 32.5746 53.0462 33.1016C53.2532 33.6286 53.5362 34.0896 53.8932 34.4846C54.2702 34.8806 54.7032 35.1906 55.1922 35.4166C55.7002 35.6426 56.2372 35.7556 56.8012 35.7556Z" fill="#CDD8D3"/>
<path d="M75.3168 27.1732C74.1688 27.1732 73.1428 27.3992 72.2388 27.8502C71.3358 28.2832 70.6868 28.9142 70.2908 29.7422V38.6922H66.5078V23.8982H69.9808V27.0602C70.5078 26.0432 71.1758 25.2442 71.9848 24.6602C72.7948 24.0772 73.6508 23.7572 74.5548 23.7002H75.0338C75.1468 23.7002 75.2418 23.7092 75.3168 23.7282V27.1732Z" fill="#CDD8D3"/>
<path d="M82.9369 38.9746C81.7319 38.9746 80.6499 38.7766 79.6899 38.3816C78.7299 37.9676 77.9109 37.4026 77.2329 36.6876C76.5749 35.9716 76.0659 35.1536 75.7089 34.2306C75.3509 33.3086 75.1719 32.3396 75.1719 31.3226C75.1719 30.2876 75.3509 29.3086 75.7089 28.3866C76.0659 27.4646 76.5749 26.6456 77.2329 25.9296C77.9109 25.2146 78.7299 24.6596 79.6899 24.2646C80.6499 23.8506 81.7319 23.6436 82.9369 23.6436C84.1409 23.6436 85.2139 23.8506 86.1549 24.2646C87.1149 24.6596 87.9339 25.2146 88.6119 25.9296C89.2889 26.6456 89.7979 27.4646 90.1359 28.3866C90.4939 29.3086 90.6729 30.2876 90.6729 31.3226C90.6729 32.3396 90.4939 33.3086 90.1359 34.2306C89.7979 35.1536 89.2889 35.9716 88.6119 36.6876C87.9529 37.4026 87.1439 37.9676 86.1839 38.3816C85.2239 38.7766 84.1409 38.9746 82.9369 38.9746ZM79.0689 31.3226C79.0689 32.1886 79.2379 32.9606 79.5769 33.6376C79.9159 34.2966 80.3769 34.8146 80.9599 35.1906C81.5439 35.5676 82.2029 35.7556 82.9369 35.7556C83.6519 35.7556 84.3009 35.5676 84.8849 35.1906C85.4679 34.7956 85.9299 34.2686 86.2679 33.6096C86.6259 32.9326 86.8049 32.1606 86.8049 31.2946C86.8049 30.4476 86.6259 29.6856 86.2679 29.0076C85.9299 28.3296 85.4679 27.8026 84.8849 27.4266C84.3009 27.0496 83.6519 26.8616 82.9369 26.8616C82.2029 26.8616 81.5439 27.0596 80.9599 27.4546C80.3769 27.8316 79.9159 28.3586 79.5769 29.0356C79.2379 29.6946 79.0689 30.4566 79.0689 31.3226Z" fill="#CDD8D3"/>
<path d="M109.953 23.8984H113.538L107.355 38.6924H104.193L101.708 32.3404L99.2801 38.6924H96.0901L89.9351 23.8984H93.4921L97.8971 35.0784L99.6191 30.2504L97.0501 23.9264H100.184L101.708 28.4434L103.261 23.9264H106.395L103.826 30.2504L105.576 35.0784L109.953 23.8984Z" fill="#CDD8D3"/>
<path d="M124.804 37.2354C124.497 37.3624 124.126 37.5074 123.691 37.6704C123.257 37.8334 122.786 37.9594 122.28 38.0504C121.791 38.1584 121.293 38.2134 120.787 38.2134C120.117 38.2134 119.502 38.0954 118.94 37.8604C118.379 37.6254 117.927 37.2544 117.583 36.7474C117.257 36.2224 117.094 35.5434 117.094 34.7114V26.5394H115.221V23.7434H117.094V19.1284H120.732V23.7434H124.398V26.5394H120.732V33.4894C120.75 33.9784 120.886 34.3314 121.139 34.5484C121.393 34.7654 121.71 34.8744 122.09 34.8744C122.47 34.8744 122.841 34.8104 123.203 34.6844C123.565 34.5574 123.854 34.4484 124.071 34.3584L124.804 37.2354ZM138.02 37.9684H134.382V29.9874C134.382 28.8834 134.165 28.0594 133.73 27.5164C133.314 26.9744 132.735 26.7024 131.993 26.7024C131.559 26.7024 131.097 26.8294 130.608 27.0824C130.12 27.3354 129.676 27.6884 129.278 28.1414C128.898 28.5754 128.617 29.0824 128.437 29.6614V37.9684H124.799V18.1504H128.437V25.8904C129.049 25.2614 129.676 24.7654 130.581 24.2594C131.486 23.7524 132.473 23.4994 133.54 23.4994C134.463 23.4994 135.214 23.6614 135.794 23.9874C136.373 24.2954 136.825 24.7204 137.151 25.2634C137.477 25.7884 137.703 26.3854 137.83 27.0554C137.956 27.7064 138.02 28.3854 138.02 29.0914V37.9684ZM145.879 38.2404C144.739 38.2404 143.708 38.0504 142.785 37.6704C141.862 37.2724 141.074 36.7384 140.423 36.0684C139.771 35.3804 139.264 34.6024 138.902 33.7334C138.559 32.8474 138.387 31.9144 138.387 30.9374C138.387 29.5804 138.685 28.3404 139.283 27.2184C139.898 26.0964 140.767 25.2004 141.889 24.5304C143.029 23.8424 144.368 23.4994 145.907 23.4994C147.463 23.4994 148.793 23.8424 149.897 24.5304C151.001 25.2004 151.843 26.0964 152.422 27.2184C153.019 28.3224 153.318 29.5164 153.318 30.8014C153.318 31.0194 153.309 31.2454 153.291 31.4804C153.273 31.6974 153.255 31.8784 153.237 32.0234H142.242C142.314 32.7474 142.522 33.3804 142.866 33.9234C143.228 34.4664 143.68 34.8834 144.223 35.1724C144.785 35.4444 145.382 35.5794 146.015 35.5794C146.739 35.5794 147.418 35.4074 148.051 35.0644C148.703 34.7024 149.146 34.2314 149.382 33.6524L152.504 34.5214C152.16 35.2454 151.662 35.8874 151.01 36.4484C150.377 37.0094 149.626 37.4534 148.757 37.7784C147.888 38.0864 146.929 38.2404 145.879 38.2404ZM142.16 29.4014H149.599C149.526 28.6774 149.318 28.3674 148.974 27.8424C148.649 27.2994 148.214 26.8834 147.671 26.5934C147.128 26.2864 146.522 26.1324 145.852 26.1324C145.201 26.1324 144.604 26.2864 144.061 26.5934C143.536 26.8834 143.101 27.2994 142.757 27.8424C142.432 28.3674 142.233 28.6774 142.16 29.4014Z" stroke="#CDD8D3"/>
<path d="M164.304 38.9746C163.156 38.9746 162.14 38.7206 161.255 38.2126C160.389 37.6856 159.712 36.9796 159.222 36.0946V44.7066H155.439V23.8976H158.742V26.4386C159.307 25.5726 160.022 24.8956 160.888 24.4056C161.754 23.8976 162.742 23.6436 163.853 23.6436C164.85 23.6436 165.763 23.8416 166.591 24.2366C167.438 24.6316 168.172 25.1876 168.794 25.9026C169.415 26.5986 169.895 27.4086 170.234 28.3306C170.591 29.2336 170.77 30.2126 170.77 31.2666C170.77 32.6976 170.488 33.9966 169.923 35.1636C169.377 36.3306 168.615 37.2616 167.636 37.9586C166.676 38.6356 165.566 38.9746 164.304 38.9746ZM163.034 35.7556C163.617 35.7556 164.144 35.6336 164.615 35.3886C165.086 35.1446 165.49 34.8146 165.829 34.4006C166.187 33.9676 166.45 33.4876 166.62 32.9606C166.808 32.4146 166.902 31.8506 166.902 31.2666C166.902 30.6456 166.798 30.0716 166.591 29.5446C166.403 29.0176 166.121 28.5566 165.744 28.1616C165.368 27.7466 164.926 27.4266 164.417 27.2016C163.928 26.9756 163.391 26.8626 162.808 26.8626C162.45 26.8626 162.083 26.9286 161.707 27.0596C161.349 27.1726 161.001 27.3426 160.662 27.5686C160.323 27.7946 160.022 28.0576 159.759 28.3586C159.514 28.6596 159.335 28.9896 159.222 29.3466V32.8196C159.448 33.3656 159.749 33.8646 160.126 34.3166C160.521 34.7676 160.973 35.1256 161.481 35.3886C161.989 35.6336 162.507 35.7556 163.034 35.7556Z" fill="#CDD8D3"/>
<path d="M172.204 38.693V23.898H175.987V38.693H172.204ZM172.204 21.837V18.082H175.987V21.837H172.204Z" fill="#CDD8D3"/>
<path d="M185.132 38.9746C183.946 38.9746 182.873 38.7766 181.913 38.3816C180.953 37.9676 180.134 37.4126 179.457 36.7156C178.779 36.0006 178.252 35.1916 177.876 34.2876C177.518 33.3656 177.339 32.3966 177.339 31.3796C177.339 29.9686 177.65 28.6786 178.271 27.5116C178.911 26.3446 179.814 25.4126 180.981 24.7166C182.167 24.0016 183.56 23.6436 185.16 23.6436C186.779 23.6436 188.162 24.0016 189.31 24.7166C190.458 25.4126 191.334 26.3446 191.936 27.5116C192.557 28.6596 192.868 29.9026 192.868 31.2386C192.868 31.4646 192.858 31.6996 192.84 31.9446C192.821 32.1706 192.802 32.3586 192.783 32.5096H181.348C181.424 33.2616 181.64 33.9206 181.998 34.4856C182.374 35.0506 182.845 35.4836 183.409 35.7846C183.993 36.0666 184.614 36.2076 185.273 36.2076C186.026 36.2076 186.732 36.0286 187.39 35.6716C188.068 35.2946 188.529 34.8056 188.774 34.2036L192.021 35.1066C191.663 35.8596 191.146 36.5276 190.468 37.1116C189.809 37.6946 189.028 38.1556 188.125 38.4946C187.221 38.8146 186.223 38.9746 185.132 38.9746ZM181.264 30.1096H189C188.924 29.3566 188.708 28.7066 188.35 28.1616C188.012 27.5966 187.56 27.1636 186.995 26.8626C186.43 26.5426 185.8 26.3826 185.103 26.3826C184.426 26.3826 183.805 26.5426 183.24 26.8626C182.694 27.1636 182.242 27.5966 181.885 28.1616C181.546 28.7066 181.339 29.3566 181.264 30.1096Z" fill="#CDD8D3"/>
<path d="M217.312 37.2246L222.716 30.7184H217.537V28.9609H225.408V30.494L220.042 37.0002H225.501V38.7576H217.312V37.2246Z" fill="#CDD8D3"/>
<path d="M207.894 40.6646C208.118 40.7145 208.324 40.7581 208.511 40.7955C208.71 40.8329 208.878 40.8516 209.015 40.8516C209.252 40.8516 209.445 40.7893 209.595 40.6646C209.757 40.5525 209.913 40.3406 210.062 40.029C210.212 39.7298 210.368 39.3061 210.53 38.7576L206.66 28.9609H209.258L211.895 36.1963L214.213 28.9609H216.606L212.493 40.702C212.343 41.1383 212.113 41.5309 211.801 41.8799C211.502 42.2413 211.122 42.5218 210.661 42.7212C210.212 42.9331 209.707 43.039 209.146 43.039C208.947 43.039 208.747 43.0203 208.548 42.9829C208.349 42.958 208.13 42.9081 207.894 42.8334V40.6646Z" fill="#CDD8D3"/>
<path d="M199.362 28.9609L201.419 32.0271L201.568 32.3636L201.755 32.0271L203.793 28.9609H206.429L203.026 33.8406L206.485 38.7576H203.849L201.736 35.7102L201.568 35.3924L201.419 35.7102L199.325 38.7576H196.688L200.147 33.8967L196.745 28.9609H199.362Z" fill="#CDD8D3"/>
<path d="M193.5 38.7577V36.0654H195.557V38.7577H193.5Z" fill="#CDD8D3"/>
<path d="M30.2582 57.1213C29.7915 57.1213 29.3549 57.0246 28.9482 56.8313C28.5415 56.638 28.1849 56.3713 27.8782 56.0313C27.5782 55.6913 27.3415 55.3046 27.1682 54.8713C27.0015 54.438 26.9182 53.978 26.9182 53.4913C26.9182 53.0046 27.0015 52.548 27.1682 52.1213C27.3415 51.6946 27.5782 51.3146 27.8782 50.9813C28.1849 50.648 28.5415 50.388 28.9482 50.2013C29.3615 50.0146 29.8115 49.9213 30.2982 49.9213C30.9715 49.9213 31.5382 50.0646 31.9982 50.3513C32.4649 50.6313 32.8149 51.0046 33.0482 51.4713L32.1882 52.0913C32.0015 51.7046 31.7349 51.4146 31.3882 51.2213C31.0482 51.028 30.6749 50.9313 30.2682 50.9313C29.9349 50.9313 29.6315 51.0013 29.3582 51.1413C29.0849 51.2813 28.8482 51.4746 28.6482 51.7213C28.4549 51.9613 28.3082 52.238 28.2082 52.5513C28.1082 52.858 28.0582 53.1813 28.0582 53.5213C28.0582 53.8813 28.1149 54.218 28.2282 54.5313C28.3415 54.8446 28.5015 55.1213 28.7082 55.3613C28.9149 55.5946 29.1582 55.778 29.4382 55.9113C29.7182 56.0446 30.0215 56.1113 30.3482 56.1113C30.7349 56.1113 31.1015 56.0146 31.4482 55.8213C31.8015 55.6213 32.1315 55.3246 32.4382 54.9313V56.0713C31.8182 56.7713 31.0915 57.1213 30.2582 57.1213ZM32.3282 54.3113H30.8382V53.4813H33.2682V57.0713H32.3282V54.3113ZM34.4457 57.0713V49.9713H35.5657V56.0813H39.3757V57.0713H34.4457ZM42.9402 57.1213C42.4269 57.1213 41.9636 57.0213 41.5502 56.8213C41.1369 56.6213 40.7802 56.3513 40.4802 56.0113C40.1802 55.6646 39.9469 55.278 39.7802 54.8513C39.6202 54.418 39.5402 53.9746 39.5402 53.5213C39.5402 53.048 39.6269 52.598 39.8002 52.1713C39.9736 51.738 40.2136 51.3546 40.5202 51.0213C40.8269 50.6813 41.1869 50.4146 41.6002 50.2213C42.0202 50.0213 42.4736 49.9213 42.9602 49.9213C43.4669 49.9213 43.9269 50.0246 44.3402 50.2313C44.7602 50.438 45.1169 50.7146 45.4102 51.0613C45.7102 51.408 45.9402 51.7946 46.1002 52.2213C46.2669 52.648 46.3502 53.0846 46.3502 53.5313C46.3502 54.0046 46.2636 54.458 46.0902 54.8913C45.9236 55.318 45.6869 55.7013 45.3802 56.0413C45.0736 56.3746 44.7102 56.638 44.2902 56.8313C43.8769 57.0246 43.4269 57.1213 42.9402 57.1213ZM40.6802 53.5213C40.6802 53.8546 40.7336 54.178 40.8402 54.4913C40.9469 54.8046 41.0969 55.0846 41.2902 55.3313C41.4902 55.5713 41.7302 55.7613 42.0102 55.9013C42.2902 56.0413 42.6036 56.1113 42.9502 56.1113C43.3102 56.1113 43.6302 56.038 43.9102 55.8913C44.1902 55.7446 44.4236 55.548 44.6102 55.3013C44.8036 55.048 44.9502 54.768 45.0502 54.4613C45.1502 54.148 45.2002 53.8346 45.2002 53.5213C45.2002 53.188 45.1469 52.868 45.0402 52.5613C44.9402 52.248 44.7902 51.9713 44.5902 51.7313C44.3902 51.4846 44.1502 51.2913 43.8702 51.1513C43.5969 51.0113 43.2902 50.9413 42.9502 50.9413C42.5902 50.9413 42.2702 51.0146 41.9902 51.1613C41.7102 51.308 41.4736 51.5046 41.2802 51.7513C41.0869 51.998 40.9369 52.2746 40.8302 52.5813C40.7302 52.888 40.6802 53.2013 40.6802 53.5213ZM49.7805 57.0713V49.9713H52.3005C53.0671 49.9713 53.7071 50.1313 54.2205 50.4513C54.7338 50.7646 55.1171 51.1913 55.3705 51.7313C55.6305 52.2646 55.7605 52.858 55.7605 53.5113C55.7605 54.2313 55.6171 54.858 55.3305 55.3913C55.0505 55.9246 54.6505 56.338 54.1305 56.6313C53.6105 56.9246 53.0005 57.0713 52.3005 57.0713H49.7805ZM54.6205 53.5113C54.6205 53.0113 54.5271 52.5713 54.3405 52.1913C54.1605 51.8046 53.8971 51.5046 53.5505 51.2913C53.2105 51.0713 52.7938 50.9613 52.3005 50.9613H50.9005V56.0813H52.3005C52.8005 56.0813 53.2205 55.968 53.5605 55.7413C53.9071 55.5146 54.1705 55.208 54.3505 54.8213C54.5305 54.4346 54.6205 53.998 54.6205 53.5113ZM59.7887 57.1213C59.2753 57.1213 58.812 57.0213 58.3987 56.8213C57.9853 56.6213 57.6287 56.3513 57.3287 56.0113C57.0287 55.6646 56.7953 55.278 56.6287 54.8513C56.4687 54.418 56.3887 53.9746 56.3887 53.5213C56.3887 53.048 56.4753 52.598 56.6487 52.1713C56.822 51.738 57.062 51.3546 57.3687 51.0213C57.6753 50.6813 58.0353 50.4146 58.4487 50.2213C58.8687 50.0213 59.322 49.9213 59.8087 49.9213C60.3153 49.9213 60.7753 50.0246 61.1887 50.2313C61.6087 50.438 61.9653 50.7146 62.2587 51.0613C62.5587 51.408 62.7887 51.7946 62.9487 52.2213C63.1153 52.648 63.1987 53.0846 63.1987 53.5313C63.1987 54.0046 63.112 54.458 62.9387 54.8913C62.772 55.318 62.5353 55.7013 62.2287 56.0413C61.922 56.3746 61.5587 56.638 61.1387 56.8313C60.7253 57.0246 60.2753 57.1213 59.7887 57.1213ZM57.5287 53.5213C57.5287 53.8546 57.582 54.178 57.6887 54.4913C57.7953 54.8046 57.9453 55.0846 58.1387 55.3313C58.3387 55.5713 58.5787 55.7613 58.8587 55.9013C59.1387 56.0413 59.452 56.1113 59.7987 56.1113C60.1587 56.1113 60.4787 56.038 60.7587 55.8913C61.0387 55.7446 61.272 55.548 61.4587 55.3013C61.652 55.048 61.7987 54.768 61.8987 54.4613C61.9987 54.148 62.0487 53.8346 62.0487 53.5213C62.0487 53.188 61.9953 52.868 61.8887 52.5613C61.7887 52.248 61.6387 51.9713 61.4387 51.7313C61.2387 51.4846 60.9987 51.2913 60.7187 51.1513C60.4453 51.0113 60.1387 50.9413 59.7987 50.9413C59.4387 50.9413 59.1187 51.0146 58.8387 51.1613C58.5587 51.308 58.322 51.5046 58.1287 51.7513C57.9353 51.998 57.7853 52.2746 57.6787 52.5813C57.5787 52.888 57.5287 53.2013 57.5287 53.5213ZM64.2582 57.0713V49.9713H65.3782V56.0813H69.1882V57.0713H64.2582ZM69.998 57.0713V49.9713H71.118V56.0813H74.928V57.0713H69.998ZM77.7879 49.9713H78.8479L81.6079 57.0713H80.4279L79.6779 55.1413H76.9379L76.1979 57.0713H75.0079L77.7879 49.9713ZM79.4579 54.3113L78.3179 51.2013L77.1379 54.3113H79.4579ZM82.3859 57.0713V49.9713H85.4759C85.7959 49.9713 86.0893 50.038 86.3559 50.1713C86.6226 50.3046 86.8526 50.4813 87.0459 50.7013C87.2459 50.9213 87.3993 51.168 87.5059 51.4413C87.6193 51.7146 87.6759 51.9946 87.6759 52.2813C87.6759 52.5946 87.6193 52.8946 87.5059 53.1813C87.3926 53.468 87.2293 53.7146 87.0159 53.9213C86.8093 54.128 86.5659 54.278 86.2859 54.3713L87.9559 57.0713H86.6959L85.1559 54.6013H83.5059V57.0713H82.3859ZM83.5059 53.6113H85.4659C85.6726 53.6113 85.8559 53.5513 86.0159 53.4313C86.1759 53.3113 86.3026 53.1513 86.3959 52.9513C86.4893 52.7446 86.5359 52.5213 86.5359 52.2813C86.5359 52.0346 86.4826 51.8146 86.3759 51.6213C86.2693 51.4213 86.1293 51.2613 85.9559 51.1413C85.7893 51.0213 85.6059 50.9613 85.4059 50.9613H83.5059V53.6113ZM95.468 51.6413C95.4013 51.568 95.3046 51.4913 95.178 51.4113C95.0513 51.3246 94.9013 51.2446 94.728 51.1713C94.5546 51.098 94.368 51.038 94.168 50.9913C93.968 50.9446 93.7613 50.9213 93.548 50.9213C93.0813 50.9213 92.7346 51.008 92.508 51.1813C92.2813 51.3546 92.168 51.5946 92.168 51.9013C92.168 52.128 92.2313 52.308 92.358 52.4413C92.4846 52.568 92.678 52.6746 92.938 52.7613C93.198 52.848 93.5246 52.9413 93.918 53.0413C94.398 53.1546 94.8146 53.2913 95.168 53.4513C95.5213 53.6046 95.7913 53.8113 95.978 54.0713C96.1646 54.3313 96.258 54.6746 96.258 55.1013C96.258 55.4613 96.1913 55.7713 96.058 56.0313C95.9246 56.2913 95.738 56.5046 95.498 56.6713C95.258 56.8313 94.9813 56.9513 94.668 57.0313C94.3546 57.1046 94.018 57.1413 93.658 57.1413C93.3046 57.1413 92.9513 57.1046 92.598 57.0313C92.2513 56.958 91.918 56.8513 91.598 56.7113C91.2846 56.5646 90.9946 56.388 90.728 56.1813L91.238 55.2213C91.3246 55.308 91.448 55.4046 91.608 55.5113C91.7746 55.6113 91.9646 55.708 92.178 55.8013C92.398 55.8946 92.6346 55.9746 92.888 56.0413C93.148 56.1013 93.4113 56.1313 93.678 56.1313C94.1246 56.1313 94.4646 56.0546 94.698 55.9013C94.938 55.7413 95.058 55.5146 95.058 55.2213C95.058 54.9813 94.9813 54.7913 94.828 54.6513C94.6746 54.5046 94.4513 54.3813 94.158 54.2813C93.8646 54.1813 93.5146 54.0813 93.108 53.9813C92.6413 53.8546 92.2513 53.718 91.938 53.5713C91.6246 53.418 91.388 53.2246 91.228 52.9913C91.0746 52.7513 90.998 52.448 90.998 52.0813C90.998 51.6146 91.1113 51.2213 91.338 50.9013C91.5646 50.5746 91.8713 50.3313 92.258 50.1713C92.6513 50.0046 93.0913 49.9213 93.578 49.9213C93.898 49.9213 94.2013 49.958 94.488 50.0313C94.7746 50.098 95.0413 50.1913 95.288 50.3113C95.5413 50.4313 95.7713 50.568 95.978 50.7213L95.468 51.6413ZM102.491 50.9613H100.131V57.0713H99.0013V50.9613H96.6313V49.9713H102.491V50.9613ZM104.729 49.9713H105.789L108.549 57.0713H107.369L106.619 55.1413H103.879L103.139 57.0713H101.949L104.729 49.9713ZM106.399 54.3113L105.259 51.2013L104.079 54.3113H106.399ZM114.907 55.2413C114.907 55.6213 114.807 55.948 114.607 56.2213C114.414 56.4946 114.151 56.7046 113.817 56.8513C113.484 56.998 113.117 57.0713 112.717 57.0713H109.327V49.9713H112.987C113.321 49.9713 113.607 50.0613 113.847 50.2413C114.094 50.4146 114.281 50.6413 114.407 50.9213C114.541 51.1946 114.607 51.4813 114.607 51.7813C114.607 52.128 114.517 52.4546 114.337 52.7613C114.164 53.0613 113.914 53.2846 113.587 53.4313C113.994 53.5513 114.314 53.7713 114.547 54.0913C114.787 54.4046 114.907 54.788 114.907 55.2413ZM113.757 55.0313C113.757 54.8313 113.714 54.6513 113.627 54.4913C113.547 54.3246 113.434 54.1913 113.287 54.0913C113.147 53.9846 112.981 53.9313 112.787 53.9313H110.447V56.1013H112.717C112.917 56.1013 113.094 56.0546 113.247 55.9613C113.407 55.8613 113.531 55.7313 113.617 55.5713C113.711 55.4046 113.757 55.2246 113.757 55.0313ZM110.447 50.9413V53.0313H112.507C112.694 53.0313 112.861 52.988 113.007 52.9013C113.154 52.808 113.271 52.6846 113.357 52.5313C113.444 52.3713 113.487 52.1913 113.487 51.9913C113.487 51.7846 113.447 51.6046 113.367 51.4513C113.287 51.2913 113.177 51.168 113.037 51.0813C112.904 50.988 112.747 50.9413 112.567 50.9413H110.447ZM115.975 57.0713V49.9713H117.095V56.0813H120.905V57.0713H115.975ZM126.585 56.0813V57.0713H121.715V49.9713H126.495V50.9613H122.835V52.9813H126.005V53.9113H122.835V56.0813H126.585ZM127.064 53.4713C127.064 53.038 127.14 52.6146 127.294 52.2013C127.447 51.7813 127.67 51.4013 127.964 51.0613C128.264 50.7146 128.627 50.4413 129.054 50.2413C129.48 50.0346 129.964 49.9313 130.504 49.9313C131.144 49.9313 131.697 50.078 132.164 50.3713C132.63 50.658 132.977 51.028 133.204 51.4813L132.324 52.0713C132.19 51.7846 132.02 51.558 131.814 51.3913C131.614 51.2246 131.394 51.108 131.154 51.0413C130.92 50.9746 130.69 50.9413 130.464 50.9413C130.09 50.9413 129.764 51.018 129.484 51.1713C129.204 51.318 128.967 51.5146 128.774 51.7613C128.587 52.008 128.444 52.2846 128.344 52.5913C128.25 52.898 128.204 53.2046 128.204 53.5113C128.204 53.8513 128.26 54.1813 128.374 54.5013C128.487 54.8146 128.644 55.0946 128.844 55.3413C129.05 55.5813 129.294 55.7713 129.574 55.9113C129.854 56.0513 130.16 56.1213 130.494 56.1213C130.72 56.1213 130.957 56.0813 131.204 56.0013C131.45 55.9213 131.677 55.798 131.884 55.6313C132.097 55.458 132.264 55.2313 132.384 54.9513L133.314 55.4813C133.167 55.8346 132.937 56.1346 132.624 56.3813C132.317 56.628 131.97 56.8146 131.584 56.9413C131.204 57.068 130.827 57.1313 130.454 57.1313C129.954 57.1313 129.497 57.028 129.084 56.8213C128.67 56.608 128.314 56.328 128.014 55.9813C127.714 55.628 127.48 55.2346 127.314 54.8013C127.147 54.3613 127.064 53.918 127.064 53.4713ZM137.112 57.1213C136.598 57.1213 136.135 57.0213 135.722 56.8213C135.308 56.6213 134.952 56.3513 134.652 56.0113C134.352 55.6646 134.118 55.278 133.952 54.8513C133.792 54.418 133.712 53.9746 133.712 53.5213C133.712 53.048 133.798 52.598 133.972 52.1713C134.145 51.738 134.385 51.3546 134.692 51.0213C134.998 50.6813 135.358 50.4146 135.772 50.2213C136.192 50.0213 136.645 49.9213 137.132 49.9213C137.638 49.9213 138.098 50.0246 138.512 50.2313C138.932 50.438 139.288 50.7146 139.582 51.0613C139.882 51.408 140.112 51.7946 140.272 52.2213C140.438 52.648 140.522 53.0846 140.522 53.5313C140.522 54.0046 140.435 54.458 140.262 54.8913C140.095 55.318 139.858 55.7013 139.552 56.0413C139.245 56.3746 138.882 56.638 138.462 56.8313C138.048 57.0246 137.598 57.1213 137.112 57.1213ZM134.852 53.5213C134.852 53.8546 134.905 54.178 135.012 54.4913C135.118 54.8046 135.268 55.0846 135.462 55.3313C135.662 55.5713 135.902 55.7613 136.182 55.9013C136.462 56.0413 136.775 56.1113 137.122 56.1113C137.482 56.1113 137.802 56.038 138.082 55.8913C138.362 55.7446 138.595 55.548 138.782 55.3013C138.975 55.048 139.122 54.768 139.222 54.4613C139.322 54.148 139.372 53.8346 139.372 53.5213C139.372 53.188 139.318 52.868 139.212 52.5613C139.112 52.248 138.962 51.9713 138.762 51.7313C138.562 51.4846 138.322 51.2913 138.042 51.1513C137.768 51.0113 137.462 50.9413 137.122 50.9413C136.762 50.9413 136.442 51.0146 136.162 51.1613C135.882 51.308 135.645 51.5046 135.452 51.7513C135.258 51.998 135.108 52.2746 135.002 52.5813C134.902 52.888 134.852 53.2013 134.852 53.5213ZM141.581 57.0713V49.9713H142.701V57.0713H141.581ZM145.326 52.0513V57.0713H144.206V49.9713H145.126L149.146 55.1013V49.9813H150.276V57.0713H149.296L145.326 52.0513ZM159.973 49.9713V57.0713H158.843V53.9413H155.263V57.0713H154.143V49.9713H155.263V52.9413H158.843V49.9713H159.973ZM164.424 57.1213C163.911 57.1213 163.448 57.0213 163.034 56.8213C162.621 56.6213 162.264 56.3513 161.964 56.0113C161.664 55.6646 161.431 55.278 161.264 54.8513C161.104 54.418 161.024 53.9746 161.024 53.5213C161.024 53.048 161.111 52.598 161.284 52.1713C161.458 51.738 161.698 51.3546 162.004 51.0213C162.311 50.6813 162.671 50.4146 163.084 50.2213C163.504 50.0213 163.958 49.9213 164.444 49.9213C164.951 49.9213 165.411 50.0246 165.824 50.2313C166.244 50.438 166.601 50.7146 166.894 51.0613C167.194 51.408 167.424 51.7946 167.584 52.2213C167.751 52.648 167.834 53.0846 167.834 53.5313C167.834 54.0046 167.748 54.458 167.574 54.8913C167.408 55.318 167.171 55.7013 166.864 56.0413C166.558 56.3746 166.194 56.638 165.774 56.8313C165.361 57.0246 164.911 57.1213 164.424 57.1213ZM162.164 53.5213C162.164 53.8546 162.218 54.178 162.324 54.4913C162.431 54.8046 162.581 55.0846 162.774 55.3313C162.974 55.5713 163.214 55.7613 163.494 55.9013C163.774 56.0413 164.088 56.1113 164.434 56.1113C164.794 56.1113 165.114 56.038 165.394 55.8913C165.674 55.7446 165.908 55.548 166.094 55.3013C166.288 55.048 166.434 54.768 166.534 54.4613C166.634 54.148 166.684 53.8346 166.684 53.5213C166.684 53.188 166.631 52.868 166.524 52.5613C166.424 52.248 166.274 51.9713 166.074 51.7313C165.874 51.4846 165.634 51.2913 165.354 51.1513C165.081 51.0113 164.774 50.9413 164.434 50.9413C164.074 50.9413 163.754 51.0146 163.474 51.1613C163.194 51.308 162.958 51.5046 162.764 51.7513C162.571 51.998 162.421 52.2746 162.314 52.5813C162.214 52.888 162.164 53.2013 162.164 53.5213ZM168.894 57.0713V49.9713H170.014V56.0813H173.824V57.0713H168.894ZM174.634 57.0713V49.9713H177.154C177.92 49.9713 178.56 50.1313 179.074 50.4513C179.587 50.7646 179.97 51.1913 180.224 51.7313C180.484 52.2646 180.614 52.858 180.614 53.5113C180.614 54.2313 180.47 54.858 180.184 55.3913C179.904 55.9246 179.504 56.338 178.984 56.6313C178.464 56.9246 177.854 57.0713 177.154 57.0713H174.634ZM179.474 53.5113C179.474 53.0113 179.38 52.5713 179.194 52.1913C179.014 51.8046 178.75 51.5046 178.404 51.2913C178.064 51.0713 177.647 50.9613 177.154 50.9613H175.754V56.0813H177.154C177.654 56.0813 178.074 55.968 178.414 55.7413C178.76 55.5146 179.024 55.208 179.204 54.8213C179.384 54.4346 179.474 53.998 179.474 53.5113ZM186.562 56.0813V57.0713H181.692V49.9713H186.472V50.9613H182.812V52.9813H185.982V53.9113H182.812V56.0813H186.562ZM187.617 57.0713V49.9713H190.707C191.027 49.9713 191.321 50.038 191.587 50.1713C191.854 50.3046 192.084 50.4813 192.277 50.7013C192.477 50.9213 192.631 51.168 192.737 51.4413C192.851 51.7146 192.907 51.9946 192.907 52.2813C192.907 52.5946 192.851 52.8946 192.737 53.1813C192.624 53.468 192.461 53.7146 192.247 53.9213C192.041 54.128 191.797 54.278 191.517 54.3713L193.187 57.0713H191.927L190.387 54.6013H188.737V57.0713H187.617ZM188.737 53.6113H190.697C190.904 53.6113 191.087 53.5513 191.247 53.4313C191.407 53.3113 191.534 53.1513 191.627 52.9513C191.721 52.7446 191.767 52.5213 191.767 52.2813C191.767 52.0346 191.714 51.8146 191.607 51.6213C191.501 51.4213 191.361 51.2613 191.187 51.1413C191.021 51.0213 190.837 50.9613 190.637 50.9613H188.737V53.6113ZM198.329 51.6413C198.262 51.568 198.165 51.4913 198.039 51.4113C197.912 51.3246 197.762 51.2446 197.589 51.1713C197.415 51.098 197.229 51.038 197.029 50.9913C196.829 50.9446 196.622 50.9213 196.409 50.9213C195.942 50.9213 195.595 51.008 195.369 51.1813C195.142 51.3546 195.029 51.5946 195.029 51.9013C195.029 52.128 195.092 52.308 195.219 52.4413C195.345 52.568 195.539 52.6746 195.799 52.7613C196.059 52.848 196.385 52.9413 196.779 53.0413C197.259 53.1546 197.675 53.2913 198.029 53.4513C198.382 53.6046 198.652 53.8113 198.839 54.0713C199.025 54.3313 199.119 54.6746 199.119 55.1013C199.119 55.4613 199.052 55.7713 198.919 56.0313C198.785 56.2913 198.599 56.5046 198.359 56.6713C198.119 56.8313 197.842 56.9513 197.529 57.0313C197.215 57.1046 196.879 57.1413 196.519 57.1413C196.165 57.1413 195.812 57.1046 195.459 57.0313C195.112 56.958 194.779 56.8513 194.459 56.7113C194.145 56.5646 193.855 56.388 193.589 56.1813L194.099 55.2213C194.185 55.308 194.309 55.4046 194.469 55.5113C194.635 55.6113 194.825 55.708 195.039 55.8013C195.259 55.8946 195.495 55.9746 195.749 56.0413C196.009 56.1013 196.272 56.1313 196.539 56.1313C196.985 56.1313 197.325 56.0546 197.559 55.9013C197.799 55.7413 197.919 55.5146 197.919 55.2213C197.919 54.9813 197.842 54.7913 197.689 54.6513C197.535 54.5046 197.312 54.3813 197.019 54.2813C196.725 54.1813 196.375 54.0813 195.969 53.9813C195.502 53.8546 195.112 53.718 194.799 53.5713C194.485 53.418 194.249 53.2246 194.089 52.9913C193.935 52.7513 193.859 52.448 193.859 52.0813C193.859 51.6146 193.972 51.2213 194.199 50.9013C194.425 50.5746 194.732 50.3313 195.119 50.1713C195.512 50.0046 195.952 49.9213 196.439 49.9213C196.759 49.9213 197.062 49.958 197.349 50.0313C197.635 50.098 197.902 50.1913 198.149 50.3113C198.402 50.4313 198.632 50.568 198.839 50.7213L198.329 51.6413Z" fill="#CDD8D3"/>
</g>
</svg>
