<svg width="336" height="107" viewBox="0 0 336 107" fill="currentColor" xmlns="http://www.w3.org/2000/svg">
  <path
    d="M121.245 57.7664C121.245 56.3825 121.434 55.0642 121.819 53.8115C122.197 52.5589 122.752 51.4613 123.483 50.5188C124.207 49.5763 125.107 48.8247 126.164 48.2639C127.227 47.7032 128.448 47.4229 129.837 47.4229C131.051 47.4229 132.134 47.6316 133.073 48.0492C134.019 48.4668 134.835 49.0573 135.526 49.8208V48.0671H140.935V67.6089C140.935 68.6827 140.726 69.7146 140.309 70.7049C139.891 71.6951 139.271 72.566 138.443 73.3176C137.621 74.0692 136.61 74.6657 135.403 75.1071C134.196 75.5486 132.819 75.7693 131.266 75.7693C130.17 75.7693 129.146 75.6261 128.187 75.3398C127.234 75.0535 126.366 74.6598 125.596 74.1587C124.82 73.6576 124.154 73.0611 123.606 72.3691C123.058 71.6772 122.654 70.9375 122.386 70.1501H128.258C128.591 70.6989 129.002 71.1642 129.478 71.5459C129.955 71.9277 130.692 72.1186 131.697 72.1186C132.46 72.1186 133.086 71.9754 133.576 71.6891C134.065 71.4028 134.457 71.0449 134.737 70.6154C135.024 70.1859 135.226 69.7027 135.35 69.1658C135.468 68.629 135.526 68.11 135.526 67.6089V65.7478C134.835 66.5114 134.019 67.1079 133.073 67.5374C132.134 67.9668 131.051 68.1816 129.837 68.1816C128.448 68.1816 127.227 67.9012 126.164 67.3405C125.107 66.7798 124.207 66.0222 123.483 65.0678C122.752 64.1134 122.197 63.0038 121.819 61.7392C121.434 60.4746 121.245 59.1504 121.245 57.7664ZM131.123 63.5288C131.912 63.5288 132.577 63.3498 133.112 62.9919C133.647 62.634 134.085 62.1747 134.417 61.614C134.75 61.0532 134.991 60.4329 135.135 59.7528C135.279 59.0728 135.35 58.4107 135.35 57.7664C135.35 57.1461 135.279 56.5078 135.135 55.8516C134.991 55.1955 134.757 54.593 134.437 54.0442C134.111 53.4954 133.68 53.042 133.132 52.6841C132.577 52.3262 131.912 52.1473 131.123 52.1473C130.34 52.1473 129.674 52.3262 129.139 52.6841C128.598 53.042 128.167 53.4954 127.828 54.0442C127.495 54.593 127.26 55.1955 127.117 55.8516C126.973 56.5078 126.901 57.1461 126.901 57.7664C126.901 58.4107 126.98 59.0728 127.13 59.7528C127.286 60.4329 127.534 61.0532 127.867 61.614C128.2 62.1747 128.637 62.634 129.172 62.9919C129.713 63.3498 130.359 63.5288 131.123 63.5288Z"
    fill="currentColor" />
  <path
    d="M144.158 67.6089V48.0671H149.56V51.3599C150.18 50.1907 150.996 49.2422 152.014 48.5145C153.031 47.7867 154.284 47.4229 155.791 47.4229H156.254C156.424 47.4229 156.587 47.4348 156.757 47.4586C156.926 47.4586 157.09 47.4706 157.259 47.4944V53.0062C156.946 52.9824 156.659 52.9466 156.398 52.8989C156.137 52.875 155.883 52.8571 155.628 52.8452C155.38 52.8333 155.158 52.8273 154.969 52.8273C153.795 52.8273 152.855 52.9466 152.137 53.1852C151.42 53.4238 150.872 53.734 150.493 54.1158C150.108 54.4975 149.861 54.9091 149.743 55.3505C149.619 55.792 149.56 56.2274 149.56 56.6569V67.6089H144.158Z"
    fill="currentColor" />
  <path
    d="M168.501 47.4941C170.145 47.4941 171.613 47.7745 172.905 48.3352C174.19 48.8959 175.273 49.6476 176.141 50.5901C177.015 51.5325 177.674 52.6301 178.131 53.8828C178.581 55.1355 178.809 56.4538 178.809 57.8377C178.809 59.2216 178.581 60.5459 178.131 61.8105C177.674 63.0751 177.015 64.1846 176.141 65.1391C175.273 66.0935 174.19 66.8511 172.905 67.4118C171.613 67.9725 170.145 68.2529 168.501 68.2529C166.83 68.2529 165.369 67.9666 164.116 67.3939C162.863 66.8213 161.813 66.0577 160.965 65.1033C160.117 64.1489 159.477 63.0393 159.047 61.7747C158.616 60.5101 158.401 59.1978 158.401 57.8377C158.401 56.4777 158.616 55.1713 159.047 53.9186C159.477 52.6659 160.117 51.5624 160.965 50.6079C161.813 49.6535 162.863 48.8959 164.116 48.3352C165.369 47.7745 166.83 47.4941 168.501 47.4941ZM168.572 63.6001C169.407 63.6001 170.119 63.4211 170.699 63.0632C171.286 62.7053 171.756 62.246 172.115 61.6852C172.474 61.1245 172.735 60.5041 172.905 59.8241C173.068 59.1441 173.152 58.482 173.152 57.8377C173.152 57.2173 173.074 56.5791 172.924 55.9229C172.767 55.2667 172.507 54.6643 172.148 54.1155C171.795 53.5667 171.319 53.1133 170.738 52.7554C170.151 52.3975 169.427 52.2185 168.572 52.2185C167.711 52.2185 166.987 52.3975 166.406 52.7554C165.819 53.1133 165.349 53.5667 164.99 54.1155C164.632 54.6643 164.377 55.2667 164.221 55.9229C164.064 56.5791 163.986 57.2173 163.986 57.8377C163.986 58.482 164.071 59.1441 164.24 59.8241C164.41 60.5041 164.671 61.1245 165.03 61.6852C165.382 62.246 165.858 62.7053 166.439 63.0632C167.026 63.4211 167.737 63.6001 168.572 63.6001Z"
    fill="currentColor" />
  <path
    d="M179.135 48.0674H184.609L188.263 59.8426L191.486 48.0674H197.103L200.326 59.8426L203.98 48.0674H209.526L203.439 67.6092H197.567L194.278 55.6551L191.016 67.6092H185.183L179.135 48.0674Z"
    fill="currentColor" />
  <path
    d="M268.349 75.1963V48.0668H273.752V50.1785C274.515 49.3433 275.415 48.6872 276.453 48.21C277.497 47.7327 278.677 47.4941 280.015 47.4941C281.45 47.4941 282.716 47.7805 283.812 48.3531C284.908 48.9258 285.822 49.6893 286.552 50.6437C287.277 51.5982 287.825 52.7077 288.197 53.9723C288.568 55.2369 288.751 56.5493 288.751 57.9093C288.751 59.2694 288.568 60.5757 288.197 61.8284C287.825 63.0811 287.277 64.1846 286.552 65.1391C285.822 66.0935 284.908 66.8511 283.812 67.4118C282.716 67.9725 281.45 68.2529 280.015 68.2529C278.677 68.2529 277.497 68.0202 276.453 67.555C275.415 67.0897 274.515 66.4395 273.752 65.6044V75.1963H268.349ZM278.586 63.5285C279.447 63.5285 280.165 63.3495 280.752 62.9916C281.339 62.6337 281.809 62.1803 282.168 61.6316C282.52 61.0828 282.781 60.4803 282.931 59.8241C283.088 59.1679 283.166 58.5297 283.166 57.9093C283.166 57.2651 283.081 56.6029 282.918 55.9229C282.749 55.2429 282.488 54.6225 282.129 54.0618C281.77 53.5011 281.3 53.0417 280.713 52.6838C280.132 52.3259 279.421 52.147 278.586 52.147C277.751 52.147 277.04 52.3259 276.453 52.6838C275.872 53.0417 275.396 53.5011 275.043 54.0618C274.685 54.6225 274.417 55.2429 274.254 55.9229C274.084 56.6029 274.006 57.2651 274.006 57.9093C274.006 58.5297 274.078 59.1679 274.234 59.8241C274.391 60.4803 274.645 61.0828 275.004 61.6316C275.363 62.1803 275.833 62.6337 276.42 62.9916C277.007 63.3495 277.725 63.5285 278.586 63.5285Z"
    fill="currentColor" />
  <path d="M291.296 48.0672H296.698V67.609H291.296V48.0672ZM291.296 45.1323V40.4795H296.698V45.1323H291.296Z"
    fill="currentColor" />
  <path
    d="M318.822 61.7747C318.183 63.7552 317.021 65.318 315.351 66.4633C313.681 67.6087 311.678 68.1813 309.336 68.1813C307.665 68.1813 306.197 67.9009 304.932 67.3402C303.673 66.7795 302.609 66.0219 301.748 65.0675C300.887 64.1131 300.247 63.0095 299.817 61.7568C299.386 60.5041 299.171 59.1978 299.171 57.8377C299.171 56.4777 299.386 55.1773 299.817 53.9365C300.247 52.6958 300.88 51.5982 301.728 50.6437C302.576 49.6893 303.627 48.9258 304.879 48.3531C306.132 47.7805 307.594 47.4941 309.264 47.4941C310.771 47.4941 312.135 47.7566 313.368 48.2815C314.594 48.8065 315.638 49.5163 316.499 50.4111C317.354 51.3059 318.02 52.3378 318.483 53.507C318.953 54.6762 319.181 55.905 319.181 57.1935C319.181 57.5275 319.168 57.8556 319.129 58.1777C319.096 58.4999 319.05 58.8279 319.005 59.162H304.788C304.912 59.7346 305.108 60.2834 305.382 60.8084C305.656 61.3333 306.008 61.7986 306.439 62.2042C306.869 62.6098 307.365 62.932 307.939 63.1706C308.514 63.4092 309.173 63.5285 309.91 63.5285C310.647 63.5285 311.358 63.3913 312.043 63.1169C312.722 62.8425 313.237 62.3951 313.596 61.7747H318.822ZM313.492 54.9744C313.231 54.187 312.78 53.5189 312.148 52.9701C311.515 52.4214 310.66 52.147 309.59 52.147C308.494 52.147 307.587 52.4214 306.869 52.9701C306.152 53.5189 305.617 54.187 305.258 54.9744H313.492Z"
    fill="currentColor" />
  <path fill-rule="evenodd" clip-rule="evenodd"
    d="M266.259 62.0041C265.561 64.1471 264.308 65.8374 262.501 67.0767C260.713 68.3029 258.566 68.9255 256.061 68.9255C254.28 68.9255 252.708 68.6198 251.357 68.0203C249.993 67.4152 248.845 66.595 247.919 65.5649C246.992 64.5363 246.301 63.3474 245.837 61.9974C245.381 60.6671 245.152 59.2802 245.152 57.8363C245.152 56.3912 245.381 55.0096 245.837 53.6913C246.301 52.3558 246.986 51.1747 247.899 50.1472C248.812 49.1175 249.941 48.2913 251.298 47.6735C252.636 47.0602 254.202 46.7471 255.989 46.7471C257.601 46.7471 259.069 47.0319 260.387 47.5945C261.711 48.1604 262.833 48.9281 263.76 49.8933C264.686 50.8578 265.404 51.9696 265.906 53.2297C266.402 54.4865 266.657 55.807 266.657 57.1921C266.657 57.5541 266.637 57.9094 266.598 58.2587C266.559 58.5883 266.52 58.9242 266.467 59.2661C266.415 59.6333 266.102 59.9062 265.73 59.9062H252.518C252.59 60.0945 252.675 60.2794 252.766 60.4613C253.008 60.9125 253.308 61.3121 253.68 61.6607C254.038 62.0052 254.469 62.2781 254.952 62.4809C255.441 62.6845 256.002 62.7814 256.635 62.7814C257.281 62.7814 257.894 62.6625 258.488 62.4239C259.01 62.2143 259.402 61.8743 259.676 61.4005C259.813 61.1697 260.054 61.0276 260.321 61.0276H265.554C265.789 61.0276 266.017 61.1417 266.154 61.3352C266.291 61.5284 266.337 61.777 266.259 62.0041ZM264.464 62.5189H260.726C260.302 63.0953 259.741 63.5252 259.049 63.807C258.279 64.1172 257.47 64.2727 256.635 64.2727C255.787 64.2727 255.037 64.131 254.378 63.8574C253.719 63.583 253.145 63.2113 252.655 62.7449C252.16 62.2822 251.762 61.7513 251.448 61.1522C251.142 60.5657 250.92 59.9524 250.789 59.3127C250.744 59.0927 250.796 58.8642 250.939 58.6901C251.083 58.516 251.292 58.4149 251.52 58.4149H265.078C265.091 58.3072 265.104 58.2002 265.117 58.0939C265.15 57.7986 265.163 57.4981 265.163 57.1921C265.163 55.9998 264.947 54.863 264.517 53.7811C264.086 52.7029 263.479 51.7511 262.683 50.926C261.894 50.1017 260.928 49.4493 259.8 48.9657C258.658 48.4785 257.386 48.2384 255.989 48.2384C254.443 48.2384 253.079 48.4978 251.918 49.0299C250.763 49.557 249.791 50.2583 249.015 51.1371C248.232 52.0188 247.645 53.0329 247.247 54.1789C246.842 55.3421 246.64 56.5612 246.64 57.8363C246.64 59.1125 246.842 60.3383 247.247 61.5134C247.645 62.6688 248.238 63.687 249.028 64.5672C249.817 65.4456 250.796 66.1409 251.964 66.6573C253.138 67.1792 254.508 67.4342 256.061 67.4342C258.24 67.4342 260.106 66.9115 261.659 65.8467C262.905 64.9915 263.838 63.882 264.464 62.5189ZM260.217 55.7187H251.983C251.729 55.7187 251.494 55.5897 251.357 55.3768C251.22 55.1635 251.2 54.8951 251.305 54.6643C251.709 53.7662 252.323 53.003 253.138 52.3771C253.98 51.7358 255.03 51.3999 256.316 51.3999C257.594 51.3999 258.606 51.7503 259.362 52.4054C260.1 53.044 260.622 53.8214 260.922 54.737C261 54.9644 260.961 55.2146 260.824 55.4089C260.68 55.6035 260.458 55.7187 260.217 55.7187ZM259.017 54.2274C258.84 53.9746 258.625 53.7427 258.384 53.5317C257.875 53.0895 257.183 52.8912 256.316 52.8912C255.402 52.8912 254.645 53.1041 254.045 53.5604C253.784 53.764 253.543 53.9862 253.334 54.2274H259.017Z"
    fill="currentColor" />
  <path fill-rule="evenodd" clip-rule="evenodd"
    d="M224.92 39.7324H230.322C230.733 39.7324 231.066 40.0661 231.066 40.4781V48.2697C231.516 47.9472 232.006 47.6653 232.534 47.4234C233.617 46.9301 234.896 46.6759 236.377 46.6759C237.812 46.6759 239.032 46.9201 240.037 47.3902C241.068 47.8708 241.903 48.5206 242.556 49.3345C243.208 50.1401 243.678 51.0636 243.965 52.1068C244.245 53.1141 244.389 54.1528 244.389 55.2239V67.6076C244.389 68.0192 244.056 68.3532 243.639 68.3532H238.236C237.825 68.3532 237.493 68.0192 237.493 67.6076V56.6556C237.493 56.1385 237.434 55.6378 237.33 55.1531C237.232 54.7094 237.069 54.3142 236.84 53.969C236.631 53.6488 236.344 53.3904 235.992 53.1891C235.62 52.9814 235.15 52.8916 234.583 52.8916C233.93 52.8916 233.376 52.9997 232.926 53.2364C232.475 53.4694 232.117 53.7573 231.843 54.107C231.569 54.4574 231.373 54.8522 231.262 55.2907C231.131 55.7615 231.066 56.2164 231.066 56.6556V67.6076C231.066 68.0192 230.733 68.3532 230.322 68.3532H224.92C224.503 68.3532 224.17 68.0192 224.17 67.6076V40.4781C224.17 40.0661 224.503 39.7324 224.92 39.7324ZM225.664 41.2237V66.862H229.579V56.6556C229.579 56.0926 229.657 55.5095 229.82 54.9067C229.99 54.271 230.27 53.6995 230.668 53.1913C231.06 52.682 231.582 52.254 232.234 51.9144C232.88 51.5785 233.656 51.4003 234.583 51.4003C235.451 51.4003 236.162 51.5729 236.723 51.8902C237.297 52.2138 237.747 52.6351 238.086 53.1503C238.413 53.6402 238.648 54.1994 238.785 54.8295C238.915 55.4185 238.98 56.0274 238.98 56.6556V66.862H242.895V55.2239C242.895 54.2904 242.771 53.3848 242.529 52.5068C242.295 51.665 241.916 50.9186 241.394 50.2684C240.879 49.6271 240.213 49.1197 239.404 48.7413C238.576 48.3524 237.564 48.1672 236.377 48.1672C235.131 48.1672 234.061 48.3662 233.161 48.7793C232.26 49.1891 231.503 49.7375 230.877 50.4276C230.668 50.6561 230.342 50.7333 230.055 50.6226C229.768 50.5115 229.579 50.2352 229.579 49.9269V41.2237H225.664Z"
    fill="currentColor" />
  <path fill-rule="evenodd" clip-rule="evenodd"
    d="M209.953 47.3199H212.504V42.0884C212.504 41.6764 212.837 41.3428 213.248 41.3428H218.65C219.068 41.3428 219.401 41.6764 219.401 42.0884V47.3199H222.408C222.826 47.3199 223.159 47.6535 223.159 48.0655V52.2173C223.159 52.6288 222.826 52.9629 222.408 52.9629H219.401V60.9502C219.401 61.5061 219.479 61.9934 219.662 62.4102C219.772 62.6649 220.053 62.71 220.444 62.71H222.487C222.898 62.71 223.23 63.0436 223.23 63.4556V67.6074C223.23 68.019 222.898 68.353 222.487 68.353H218.65C217.528 68.353 216.589 68.2154 215.832 67.9545C215.01 67.6715 214.357 67.2543 213.861 66.7167C213.365 66.1787 213.013 65.536 212.798 64.7862C212.602 64.0942 212.504 63.305 212.504 62.4177V52.9629H209.953C209.542 52.9629 209.209 52.6288 209.209 52.2173V48.0655C209.209 47.6535 209.542 47.3199 209.953 47.3199ZM210.697 48.8111V51.4716H213.248C213.659 51.4716 213.992 51.8053 213.992 52.2173V62.4177C213.992 63.1525 214.07 63.8072 214.233 64.3798C214.377 64.8943 214.618 65.3372 214.957 65.7063C215.297 66.0754 215.753 66.3502 216.321 66.5444C216.947 66.7607 217.724 66.8617 218.65 66.8617H221.736V64.2012H220.444C219.303 64.2012 218.611 63.7471 218.291 62.9978C218.037 62.4124 217.907 61.7306 217.907 60.9502V52.2173C217.907 51.8053 218.239 51.4716 218.65 51.4716H221.665V48.8111H218.65C218.239 48.8111 217.907 48.4771 217.907 48.0655V42.8341H213.992V48.0655C213.992 48.4771 213.659 48.8111 213.248 48.8111H210.697Z"
    fill="currentColor" />
  <path fill-rule="evenodd" clip-rule="evenodd"
    d="M56.8646 85.8273H56.8424C40.9747 85.8273 30.3539 80.2126 26.8186 78.0279C25.9907 77.491 25.3269 76.7379 24.8943 75.8505C23.4511 72.9015 20.1061 66.023 20.1061 66.023C19.6064 64.994 18.7338 64.1924 17.671 63.7823C16.2688 63.238 15.2844 62.4215 14.904 61.4969C14.5236 60.5686 14.7771 59.5955 15.6161 58.7678L17.4434 56.9634C17.6932 56.7211 17.8201 56.4451 17.8201 56.1655C17.8201 55.8859 17.6932 55.61 17.4434 55.3677L15.6161 53.5595C14.7771 52.7318 14.5236 51.7588 14.904 50.8342C15.2844 49.9059 16.2688 49.0931 17.671 48.5488L20.7252 47.3632C21.1354 47.2029 21.4673 46.9867 21.6873 46.7369C21.9036 46.4834 22.0006 46.2037 21.967 45.9241L22.0266 43.9221C21.9147 42.9751 22.5487 42.058 23.6115 41.3161C24.6743 40.5704 26.1995 40.0746 27.8851 39.9254L31.1556 39.5078C31.6516 39.4631 32.1215 39.3476 32.5131 39.1723C32.9047 39.0008 37.4469 37.1292 38.9833 36.7154C40.5197 36.3053 42.2799 36.227 43.917 36.4954L44.4167 36.5812L46.9675 39.8695C46.3037 39.8881 45.6361 39.8434 44.9984 39.7353L42.2538 39.5078C41.3513 39.3587 40.3779 39.3923 39.5314 39.6197C39.3114 39.6793 38.9944 39.8173 38.8527 39.8844L36.9359 41.6628C36.2833 42.5575 35.8209 42.8297 34.4635 43.4299C33.5908 43.8177 32.5579 44.0936 31.4541 44.1942L27.9487 45.0368C27.6653 45.0629 27.3892 45.0965 27.1356 45.1487L27.1542 45.3202C27.3481 46.968 26.9193 48.6644 25.6365 50.1482C24.9391 50.9535 23.9286 51.7178 22.6122 52.2323L21.8625 52.523C22.6904 53.6676 23.041 54.9315 23.041 56.1655C23.041 57.3995 22.6904 58.6634 21.8625 59.808L22.6122 60.0988C23.9286 60.6096 24.9391 61.3739 25.6365 62.1792C26.9193 63.6667 27.3481 65.3631 27.1542 67.0109L27.1356 67.1824C27.3892 67.2346 27.6653 67.2682 27.9487 67.2943L31.6218 67.6223C32.7256 67.723 33.7587 67.9989 34.6314 68.3866C35.9888 68.9869 36.9769 69.8593 37.6258 70.7541L38.8527 72.4467C38.9944 72.5101 39.3114 72.6518 39.5314 72.7077C40.3779 72.9388 41.3513 72.9687 42.2538 72.8195L45.8226 72.2305C46.7959 72.0664 47.829 72.0478 48.8172 72.1746C49.9434 72.3162 50.9763 72.6443 51.8341 73.0768L54.5862 74.4748C55.2015 74.7843 56.0108 74.9036 56.8424 74.9036H56.8646C57.6925 74.9036 58.5056 74.7843 59.1209 74.4748L61.873 73.0768C62.727 72.6443 63.76 72.3162 64.8862 72.1746C65.8782 72.0478 66.9075 72.0664 67.8845 72.2305L71.4496 72.8195C72.3521 72.9687 73.3254 72.9388 74.1757 72.7077C74.392 72.6518 74.709 72.5101 74.8507 72.4467L76.0774 70.7541C76.73 69.8593 77.7184 68.9869 79.0721 68.3866C79.9447 67.9989 80.9776 67.723 82.0815 67.6223L85.7548 67.2943C86.0382 67.2682 86.3141 67.2346 86.5714 67.1824L86.549 67.0109C86.3588 65.3631 86.784 63.6667 88.0706 62.1792C88.7642 61.3739 89.7748 60.6096 91.0912 60.0988L91.8445 59.808C91.0129 58.6634 90.6624 57.3995 90.6624 56.1655C90.6624 54.9315 91.0129 53.6676 91.8445 52.523L91.0912 52.2323C89.7748 51.7178 88.7642 50.9535 88.0706 50.1482C86.784 48.6644 86.3588 46.968 86.549 45.3202L86.5714 45.1487C86.3141 45.0965 86.0382 45.0629 85.7548 45.0368L82.2494 44.1942C81.1492 44.0936 80.1161 43.8177 79.2398 43.4299C77.8861 42.8297 77.4201 42.5575 76.7712 41.6628L74.8507 39.8844C74.709 39.8173 74.392 39.6793 74.1757 39.6197C73.3254 39.3923 72.3521 39.3587 71.4496 39.5078L68.7086 39.7353C68.0672 39.8434 67.4035 39.8881 66.7397 39.8695L69.2866 36.5812L69.7901 36.4954C71.4235 36.227 73.1837 36.3053 74.7201 36.7154C76.2603 37.1292 80.7988 39.0008 81.1903 39.1723C81.5856 39.3476 82.0516 39.4631 82.5476 39.5078L85.8181 39.9254C87.5037 40.0746 89.0289 40.5704 90.0918 41.3161C91.1583 42.058 91.7885 42.9751 91.6767 43.9221L91.7364 45.9241C91.7028 46.2037 91.7997 46.4834 92.0197 46.7369C92.236 46.9867 92.5679 47.2029 92.9819 47.3632L96.0361 48.5488C97.4345 49.0931 98.4229 49.9059 98.8033 50.8342C99.1799 51.7588 98.9262 52.7318 98.0871 53.5595L96.2599 55.3677C96.0137 55.61 95.8833 55.8859 95.8833 56.1655C95.8833 56.4451 96.0137 56.7211 96.2599 56.9634L98.0871 58.7678C98.9262 59.5955 99.1799 60.5686 98.8033 61.4969C98.4229 62.4215 97.4345 63.238 96.0361 63.7823C94.9695 64.1924 94.1007 64.994 93.601 66.023C93.601 66.023 90.2596 72.8941 88.8239 75.8468C88.3876 76.7416 87.7162 77.4985 86.8846 78.0391C83.3382 80.2201 72.7212 85.8273 56.8646 85.8273ZM64.1218 42.6843C76.2417 44.183 85.1282 49.0484 85.1282 54.8122C85.1282 61.7653 72.173 67.4136 56.2195 67.4136C40.2623 67.4136 27.3108 61.7653 27.3108 54.8122C27.3108 48.8694 36.7644 43.881 49.466 42.5538L54.7242 49.835C55.2164 50.5173 56.0034 50.92 56.8424 50.92C57.6778 50.92 58.4683 50.5173 58.9568 49.835L64.1218 42.6843ZM52.1026 33.8521L52.4233 37.7332L47.1427 30.437C46.1246 28.9159 45.968 26.2093 46.904 24.6323L52.2554 15.7927L52.7738 18.6522L48.7425 25.4151C48.1533 26.4068 48.2765 28.2561 48.9179 29.2143L52.1026 33.8521ZM61.8096 37.0733L61.5747 33.8521L64.8005 29.218C65.4419 28.2598 65.4046 26.2764 64.8154 25.2847L61.9812 20.52L61.4293 15.7927L66.5046 24.2221C67.4407 25.7992 67.8919 28.4835 66.8701 30.0083L61.8096 37.0733ZM55.7013 44.5521L53.9448 32.853C53.6652 30.9516 54.0454 29.0092 55.0224 27.3539L57.4464 23.2491C57.838 22.5892 57.9723 21.81 57.8306 21.0569L55.8169 10.3755C56.1264 10.1965 56.4806 10.0996 56.8461 10.0996C57.5658 10.0996 58.2334 10.4762 58.6063 11.0913L58.6548 11.1733L60.4261 20.5684C60.6872 21.9516 60.4373 23.3795 59.7213 24.5912L57.2973 28.696C56.626 29.8331 56.365 31.1641 56.5589 32.4653L58.431 44.9585C58.0991 45.1822 57.7 45.3052 57.2898 45.3052C56.6708 45.3052 56.0891 45.0256 55.7013 44.5521Z"
    fill="currentColor" />
</svg>