<svg width="36" height="36" viewBox="0 0 36 36" fill="none" xmlns="http://www.w3.org/2000/svg">
<path fill-rule="evenodd" clip-rule="evenodd" d="M5.67968 4.38144C5.07901 4.83154 4.94805 5.1768 4.94805 5.38144V9.83505C4.94805 10.0397 5.07901 10.385 5.67968 10.8351C6.26851 11.2763 7.18064 11.7147 8.39372 12.1003C10.8097 12.8683 14.2074 13.3608 18 13.3608C21.7926 13.3608 25.1903 12.8683 27.6063 12.1003C28.8194 11.7147 29.7315 11.2763 30.3203 10.8351C30.921 10.385 31.0519 10.0397 31.0519 9.83505V5.38144C31.0519 5.1768 30.921 4.83154 30.3203 4.38144C29.7315 3.94022 28.8194 3.50183 27.6063 3.1162C25.1903 2.3482 21.7926 1.85567 18 1.85567C14.2074 1.85567 10.8097 2.3482 8.39372 3.1162C7.18064 3.50183 6.26851 3.94022 5.67968 4.38144ZM7.77706 1.35596C10.4397 0.509537 14.055 0 18 0C21.945 0 25.5603 0.509537 28.2229 1.35596C29.5492 1.77755 30.6927 2.29947 31.5247 2.92294C32.3449 3.53753 33 4.36135 33 5.38144V9.83505C33 10.8551 32.3449 11.679 31.5247 12.2936C30.6927 12.917 29.5492 13.4389 28.2229 13.8605C25.5603 14.707 21.945 15.2165 18 15.2165C14.055 15.2165 10.4397 14.707 7.77706 13.8605C6.45085 13.4389 5.30731 12.917 4.47527 12.2936C3.65508 11.679 3 10.8551 3 9.83505V5.38144C3 4.36135 3.65508 3.53753 4.47527 2.92294C5.30731 2.29947 6.45085 1.77755 7.77706 1.35596ZM11.1507 2.90872C12.9401 2.48187 15.3609 2.2268 18 2.2268C20.6391 2.2268 23.0599 2.48187 24.8493 2.90872C25.7365 3.12037 26.5232 3.38688 27.1115 3.71796C27.6336 4.01176 28.3247 4.54375 28.3247 5.38144C28.3247 6.21914 27.6336 6.75113 27.1115 7.04493C26.5232 7.376 25.7365 7.64252 24.8493 7.85416C23.0599 8.28102 20.6391 8.53608 18 8.53608C15.3609 8.53608 12.9401 8.28102 11.1507 7.85416C10.2635 7.64252 9.47683 7.376 8.88848 7.04493C8.36637 6.75113 7.67532 6.21914 7.67532 5.38144C7.67532 4.54375 8.36637 4.01176 8.88848 3.71796C9.47683 3.38688 10.2635 3.12037 11.1507 2.90872ZM9.59055 5.52532C9.59042 5.5253 9.59132 5.52381 9.59361 5.52089C9.59181 5.52387 9.59067 5.52533 9.59055 5.52532ZM9.76931 5.38144C9.80058 5.36143 9.83699 5.33948 9.87929 5.31568C10.237 5.11441 10.8193 4.90077 11.624 4.7088C13.2184 4.32844 15.4729 4.08247 18 4.08247C20.5271 4.08247 22.7816 4.32844 24.376 4.7088C25.1807 4.90077 25.763 5.11441 26.1207 5.31568C26.163 5.33948 26.1994 5.36143 26.2307 5.38144C26.1994 5.40145 26.163 5.42341 26.1207 5.44721C25.763 5.64848 25.1807 5.86212 24.376 6.05408C22.7816 6.43444 20.5271 6.68041 18 6.68041C15.4729 6.68041 13.2184 6.43444 11.624 6.05408C10.8193 5.86212 10.237 5.64848 9.87929 5.44721C9.83699 5.42341 9.80058 5.40145 9.76931 5.38144ZM26.4095 5.52532C26.4093 5.52533 26.4082 5.52387 26.4064 5.52089C26.4087 5.52381 26.4096 5.5253 26.4095 5.52532ZM26.4064 5.24199C26.4082 5.23901 26.4093 5.23755 26.4095 5.23757C26.4096 5.23759 26.4087 5.23907 26.4064 5.24199ZM9.59361 5.242C9.59132 5.23908 9.59042 5.23759 9.59055 5.23757C9.59067 5.23756 9.59181 5.23902 9.59361 5.242ZM4.49046 13.1813L5.2333 14.0896C5.50273 14.419 5.99808 14.7916 6.76445 15.1624C7.51994 15.5279 8.48293 15.8648 9.62225 16.1508C11.9004 16.7228 14.8075 17.0722 18 17.0722C21.1925 17.0722 24.0996 16.7228 26.3777 16.1508C27.5171 15.8648 28.4801 15.5279 29.2355 15.1624C30.0019 14.7916 30.4973 14.419 30.7667 14.0896L31.5095 13.1813L32.2833 14.0658C32.4686 14.2776 32.6011 14.5046 32.6868 14.6679C32.8246 14.9306 33 15.3322 33 15.7732V20.2268C33 21.2469 32.3449 22.0707 31.5247 22.6853C30.6927 23.3088 29.5492 23.8307 28.2229 24.2523C25.5603 25.0987 21.945 25.6082 18 25.6082C14.055 25.6082 10.4397 25.0987 7.77706 24.2523C6.45085 23.8307 5.30731 23.3088 4.47527 22.6853C3.65508 22.0707 3 21.2469 3 20.2268V15.7732C3 15.3039 3.18071 14.9204 3.31322 14.6679C3.39893 14.5047 3.53139 14.2776 3.71667 14.0658L4.49046 13.1813ZM4.94805 16.3001V20.2268C4.94805 20.4314 5.07901 20.7767 5.67968 21.2268C6.26851 21.668 7.18064 22.1064 8.39372 22.492C10.8097 23.2601 14.2074 23.7526 18 23.7526C21.7926 23.7526 25.1903 23.2601 27.6063 22.492C28.8194 22.1064 29.7315 21.668 30.3203 21.2268C30.921 20.7767 31.0519 20.4314 31.0519 20.2268V16.3001C30.762 16.4849 30.4484 16.6569 30.1177 16.8169C29.2076 17.2572 28.1076 17.6356 26.8742 17.9452C24.4069 18.5646 21.3295 18.9278 18 18.9278C14.6705 18.9278 11.5931 18.5646 9.1258 17.9452C7.89239 17.6356 6.7924 17.2572 5.8823 16.8169C5.55159 16.6569 5.23797 16.4849 4.94805 16.3001ZM4.45022 23.5238L5.2333 24.4813C5.50273 24.8108 5.99808 25.1833 6.76445 25.5541C7.51994 25.9196 8.48293 26.2566 9.62225 26.5426C11.9004 27.1145 14.8075 27.4639 18 27.4639C21.1925 27.4639 24.0996 27.1145 26.3777 26.5426C27.5171 26.2566 28.4801 25.9196 29.2355 25.5541C30.0019 25.1833 30.4973 24.8108 30.7667 24.4813L31.5191 23.5614L32.291 24.4665C32.672 24.9131 33 25.4933 33 26.1649V30.6186C33 31.6387 32.3449 32.4625 31.5247 33.0771C30.6927 33.7005 29.5492 34.2224 28.2229 34.644C25.5603 35.4905 21.945 36 18 36C14.055 36 10.4397 35.4905 7.77706 34.644C6.45085 34.2224 5.30731 33.7005 4.47527 33.0771C3.65508 32.4625 3 31.6387 3 30.6186V26.1649C3 25.4757 3.37225 24.893 3.68571 24.4948L4.45022 23.5238ZM31.0519 26.6919C30.762 26.8766 30.4484 27.0486 30.1177 27.2086C29.2076 27.6489 28.1076 28.0273 26.8742 28.337C24.4069 28.9564 21.3295 29.3196 18 29.3196C14.6705 29.3196 11.5931 28.9564 9.1258 28.337C7.89239 28.0273 6.7924 27.6489 5.8823 27.2086C5.55159 27.0486 5.23797 26.8766 4.94805 26.6919V30.6186C4.94805 30.8232 5.07901 31.1685 5.67968 31.6186C6.26851 32.0598 7.18064 32.4982 8.39372 32.8838C10.8097 33.6518 14.2074 34.1443 18 34.1443C21.7926 34.1443 25.1903 33.6518 27.6063 32.8838C28.8194 32.4982 29.7315 32.0598 30.3203 31.6186C30.921 31.1685 31.0519 30.8232 31.0519 30.6186V26.6919Z" fill="url(#paint0_linear_6963_29901)"/>
<circle cx="8" cy="10" r="1" fill="url(#paint1_linear_6963_29901)"/>
<circle cx="8" cy="20" r="1" fill="url(#paint2_linear_6963_29901)"/>
<circle cx="8" cy="30" r="1" fill="url(#paint3_linear_6963_29901)"/>
<defs>
<linearGradient id="paint0_linear_6963_29901" x1="18" y1="0" x2="18" y2="36" gradientUnits="userSpaceOnUse">
<stop stop-color="#10808C"/>
<stop offset="1" stop-color="#1DF7EF"/>
</linearGradient>
<linearGradient id="paint1_linear_6963_29901" x1="8" y1="9" x2="9.34823" y2="10.8955" gradientUnits="userSpaceOnUse">
<stop stop-color="#FE5468"/>
<stop offset="1" stop-color="#FFDF27"/>
</linearGradient>
<linearGradient id="paint2_linear_6963_29901" x1="8" y1="19" x2="9.34823" y2="20.8955" gradientUnits="userSpaceOnUse">
<stop stop-color="#FE5468"/>
<stop offset="1" stop-color="#FFDF27"/>
</linearGradient>
<linearGradient id="paint3_linear_6963_29901" x1="8" y1="29" x2="9.34823" y2="30.8955" gradientUnits="userSpaceOnUse">
<stop stop-color="#FE5468"/>
<stop offset="1" stop-color="#FFDF27"/>
</linearGradient>
</defs>
</svg>
