<svg width="24" height="25" viewBox="0 0 24 25" fill="none" xmlns="http://www.w3.org/2000/svg">
<path fill-rule="evenodd" clip-rule="evenodd" d="M7.67957 5.405C7.9017 5.01981 8.39403 4.88762 8.77922 5.10975L16.0252 9.28828C16.4104 9.51041 16.5426 10.0027 16.3205 10.3879C16.0984 10.7731 15.606 10.9053 15.2208 10.6832L7.97483 6.50465C7.58963 6.28253 7.45744 5.7902 7.67957 5.405Z" fill="url(#paint0_linear_1121_7942)"/>
<path fill-rule="evenodd" clip-rule="evenodd" d="M10.7939 3.54721C11.1607 3.33586 11.5765 3.22461 11.9999 3.22461C12.4232 3.22461 12.8391 3.33587 13.2058 3.54723C13.2064 3.54756 13.207 3.54788 13.2075 3.5482L18.8433 6.76865C19.2101 6.98043 19.5148 7.28495 19.7268 7.65166C19.9387 8.01836 20.0505 8.43436 20.051 8.85792V15.3005C20.0505 15.724 19.9387 16.14 19.7268 16.5067C19.5148 16.8734 19.2101 17.178 18.8433 17.3897L18.8402 17.3915L13.2075 20.6102C13.207 20.6105 13.2066 20.6107 13.2061 20.611C12.8393 20.8225 12.4233 20.9338 11.9999 20.9338C11.5764 20.9338 11.1605 20.8225 10.7937 20.6111C10.7932 20.6108 10.7927 20.6105 10.7922 20.6102L5.15951 17.3915L5.1564 17.3897C4.78958 17.178 4.48491 16.8734 4.27294 16.5067C4.06097 16.14 3.94916 15.724 3.94873 15.3005V8.85792C3.94916 8.43436 4.06097 8.01836 4.27294 7.65166C4.48491 7.28495 4.78959 6.98043 5.1564 6.76865L5.1595 6.76686L10.7939 3.54721ZM11.9999 4.83483C11.8585 4.83483 11.7197 4.87204 11.5973 4.9427L11.5942 4.94449L5.96151 8.16315C5.96109 8.16339 5.96066 8.16364 5.96024 8.16388C5.83854 8.23445 5.73744 8.33567 5.66703 8.45748C5.59643 8.57962 5.55916 8.71816 5.55896 8.85922V15.2992C5.55916 15.4402 5.59643 15.5788 5.66703 15.7009C5.73744 15.8227 5.83854 15.9239 5.96024 15.9945C5.96066 15.9948 5.96109 15.995 5.96151 15.9952L11.5973 19.2157C11.7197 19.2864 11.8585 19.3236 11.9999 19.3236C12.1412 19.3236 12.28 19.2864 12.4024 19.2157L12.4055 19.2139L18.0382 15.9952C18.0386 15.995 18.0391 15.9948 18.0395 15.9945C18.1612 15.9239 18.2623 15.8227 18.3327 15.7009C18.4033 15.5787 18.4406 15.44 18.4408 15.2988V8.85957C18.4406 8.71838 18.4033 8.57972 18.3327 8.45748C18.2623 8.33567 18.1612 8.23445 18.0395 8.16389C18.0391 8.16364 18.0386 8.1634 18.0382 8.16315L12.4024 4.94271C12.28 4.87204 12.1412 4.83483 11.9999 4.83483Z" fill="url(#paint1_linear_1121_7942)"/>
<path fill-rule="evenodd" clip-rule="evenodd" d="M4.27435 7.6189C4.497 7.23401 4.98951 7.10248 5.3744 7.32513L11.9999 11.1577L18.6254 7.32513C19.0103 7.10248 19.5028 7.23401 19.7254 7.6189C19.9481 8.0038 19.8166 8.49631 19.4317 8.71895L12.403 12.7848C12.1536 12.929 11.8462 12.929 11.5968 12.7848L4.56812 8.71895C4.18323 8.49631 4.0517 8.0038 4.27435 7.6189Z" fill="url(#paint2_linear_1121_7942)"/>
<path fill-rule="evenodd" clip-rule="evenodd" d="M11.9999 11.2744C12.4446 11.2744 12.805 11.6349 12.805 12.0795V20.1951C12.805 20.6397 12.4446 21.0002 11.9999 21.0002C11.5553 21.0002 11.1948 20.6397 11.1948 20.1951V12.0795C11.1948 11.6349 11.5553 11.2744 11.9999 11.2744Z" fill="url(#paint3_linear_1121_7942)"/>
<defs>
<linearGradient id="paint0_linear_1121_7942" x1="12" y1="5.00195" x2="12" y2="10.791" gradientUnits="userSpaceOnUse">
<stop stop-color="#FE5468"/>
<stop offset="1" stop-color="#FFDF27"/>
</linearGradient>
<linearGradient id="paint1_linear_1121_7942" x1="11.9999" y1="3.22461" x2="11.9999" y2="20.9338" gradientUnits="userSpaceOnUse">
<stop stop-color="#10808C"/>
<stop offset="1" stop-color="#1DF7EF"/>
</linearGradient>
<linearGradient id="paint2_linear_1121_7942" x1="11.9999" y1="7.2168" x2="11.9999" y2="12.893" gradientUnits="userSpaceOnUse">
<stop stop-color="#FE5468"/>
<stop offset="1" stop-color="#FFDF27"/>
</linearGradient>
<linearGradient id="paint3_linear_1121_7942" x1="11.9999" y1="11.2744" x2="11.9999" y2="21.0002" gradientUnits="userSpaceOnUse">
<stop stop-color="#FE5468"/>
<stop offset="1" stop-color="#FFDF27"/>
</linearGradient>
</defs>
</svg>
