<svg width="24" height="25" viewBox="0 0 24 25" fill="none" xmlns="http://www.w3.org/2000/svg">
<path fill-rule="evenodd" clip-rule="evenodd" d="M3 4.70783C3 4.25596 3.36631 3.88965 3.81818 3.88965H8.72727C9.81225 3.88965 10.8528 4.32065 11.62 5.08785C12.3872 5.85504 12.8182 6.89558 12.8182 7.98056V19.4351C12.8182 19.887 12.4519 20.2533 12 20.2533C11.5481 20.2533 11.1818 19.887 11.1818 19.4351C11.1818 19.0011 11.0094 18.5849 10.7025 18.278C10.3957 17.9711 9.97945 17.7987 9.54545 17.7987H3.81818C3.36631 17.7987 3 17.4324 3 16.9806V4.70783ZM11.1818 16.6008V7.98056C11.1818 7.32957 10.9232 6.70525 10.4629 6.24493C10.0026 5.78462 9.37826 5.52601 8.72727 5.52601H4.63636V16.1624H9.54545C10.1249 16.1624 10.6885 16.316 11.1818 16.6008Z" fill="url(#paint0_linear_1121_7978)"/>
<path fill-rule="evenodd" clip-rule="evenodd" d="M12.3798 5.08785C13.147 4.32065 14.1876 3.88965 15.2725 3.88965H20.1816C20.6335 3.88965 20.9998 4.25596 20.9998 4.70783V16.9806C20.9998 17.4324 20.6335 17.7987 20.1816 17.7987H14.4544C14.0204 17.7987 13.6042 17.9711 13.2973 18.278C12.9904 18.5849 12.818 19.0011 12.818 19.4351C12.818 19.887 12.4517 20.2533 11.9998 20.2533C11.548 20.2533 11.1816 19.887 11.1816 19.4351V7.98056C11.1816 6.89558 11.6126 5.85504 12.3798 5.08785ZM12.818 16.6008C13.3113 16.316 13.8749 16.1624 14.4544 16.1624H19.3635V5.52601H15.2725C14.6216 5.52601 13.9972 5.78462 13.5369 6.24493C13.0766 6.70525 12.818 7.32957 12.818 7.98056V16.6008Z" fill="url(#paint1_linear_1121_7978)"/>
<defs>
<linearGradient id="paint0_linear_1121_7978" x1="7.90909" y1="3.88965" x2="7.90909" y2="20.2533" gradientUnits="userSpaceOnUse">
<stop stop-color="#10808C"/>
<stop offset="1" stop-color="#1DF7EF"/>
</linearGradient>
<linearGradient id="paint1_linear_1121_7978" x1="16.0907" y1="3.88965" x2="16.0907" y2="20.2533" gradientUnits="userSpaceOnUse">
<stop stop-color="#FE5468"/>
<stop offset="1" stop-color="#FFDF27"/>
</linearGradient>
</defs>
</svg>
