<svg width="24" height="25" viewBox="0 0 24 25" fill="none" xmlns="http://www.w3.org/2000/svg">
<path fill-rule="evenodd" clip-rule="evenodd" d="M7 16.5H5C4.72386 16.5 4.5 16.7239 4.5 17V19C4.5 19.2761 4.72386 19.5 5 19.5H7C7.27614 19.5 7.5 19.2761 7.5 19V17C7.5 16.7239 7.27614 16.5 7 16.5ZM5 15C3.89543 15 3 15.8954 3 17V19C3 20.1046 3.89543 21 5 21H7C8.10457 21 9 20.1046 9 19V17C9 15.8954 8.10457 15 7 15H5Z" fill="url(#paint0_linear_1121_7876)"/>
<path fill-rule="evenodd" clip-rule="evenodd" d="M13 16.5H11C10.7239 16.5 10.5 16.7239 10.5 17V19C10.5 19.2761 10.7239 19.5 11 19.5H13C13.2761 19.5 13.5 19.2761 13.5 19V17C13.5 16.7239 13.2761 16.5 13 16.5ZM11 15C9.89543 15 9 15.8954 9 17V19C9 20.1046 9.89543 21 11 21H13C14.1046 21 15 20.1046 15 19V17C15 15.8954 14.1046 15 13 15H11Z" fill="url(#paint1_linear_1121_7876)"/>
<path fill-rule="evenodd" clip-rule="evenodd" d="M19 16.5H17C16.7239 16.5 16.5 16.7239 16.5 17V19C16.5 19.2761 16.7239 19.5 17 19.5H19C19.2761 19.5 19.5 19.2761 19.5 19V17C19.5 16.7239 19.2761 16.5 19 16.5ZM17 15C15.8954 15 15 15.8954 15 17V19C15 20.1046 15.8954 21 17 21H19C20.1046 21 21 20.1046 21 19V17C21 15.8954 20.1046 15 19 15H17Z" fill="url(#paint2_linear_1121_7876)"/>
<path fill-rule="evenodd" clip-rule="evenodd" d="M19 4.5H17C16.7239 4.5 16.5 4.72386 16.5 5V7C16.5 7.27614 16.7239 7.5 17 7.5H19C19.2761 7.5 19.5 7.27614 19.5 7V5C19.5 4.72386 19.2761 4.5 19 4.5ZM17 3C15.8954 3 15 3.89543 15 5V7C15 8.10457 15.8954 9 17 9H19C20.1046 9 21 8.10457 21 7V5C21 3.89543 20.1046 3 19 3H17Z" fill="url(#paint3_linear_1121_7876)"/>
<path fill-rule="evenodd" clip-rule="evenodd" d="M13 10.5H11C10.7239 10.5 10.5 10.7239 10.5 11V13C10.5 13.2761 10.7239 13.5 11 13.5H13C13.2761 13.5 13.5 13.2761 13.5 13V11C13.5 10.7239 13.2761 10.5 13 10.5ZM11 9C9.89543 9 9 9.89543 9 11V13C9 14.1046 9.89543 15 11 15H13C14.1046 15 15 14.1046 15 13V11C15 9.89543 14.1046 9 13 9H11Z" fill="url(#paint4_linear_1121_7876)"/>
<path fill-rule="evenodd" clip-rule="evenodd" d="M19 10.5H17C16.7239 10.5 16.5 10.7239 16.5 11V13C16.5 13.2761 16.7239 13.5 17 13.5H19C19.2761 13.5 19.5 13.2761 19.5 13V11C19.5 10.7239 19.2761 10.5 19 10.5ZM17 9C15.8954 9 15 9.89543 15 11V13C15 14.1046 15.8954 15 17 15H19C20.1046 15 21 14.1046 21 13V11C21 9.89543 20.1046 9 19 9H17Z" fill="url(#paint5_linear_1121_7876)"/>
<defs>
<linearGradient id="paint0_linear_1121_7876" x1="6" y1="15" x2="6" y2="21" gradientUnits="userSpaceOnUse">
<stop stop-color="#10808C"/>
<stop offset="1" stop-color="#1DF7EF"/>
</linearGradient>
<linearGradient id="paint1_linear_1121_7876" x1="12" y1="15" x2="12" y2="21" gradientUnits="userSpaceOnUse">
<stop stop-color="#FE5468"/>
<stop offset="1" stop-color="#FFDF27"/>
</linearGradient>
<linearGradient id="paint2_linear_1121_7876" x1="18" y1="15" x2="18" y2="21" gradientUnits="userSpaceOnUse">
<stop stop-color="#10808C"/>
<stop offset="1" stop-color="#1DF7EF"/>
</linearGradient>
<linearGradient id="paint3_linear_1121_7876" x1="18" y1="3" x2="18" y2="9" gradientUnits="userSpaceOnUse">
<stop stop-color="#10808C"/>
<stop offset="1" stop-color="#1DF7EF"/>
</linearGradient>
<linearGradient id="paint4_linear_1121_7876" x1="12" y1="9" x2="12" y2="15" gradientUnits="userSpaceOnUse">
<stop stop-color="#10808C"/>
<stop offset="1" stop-color="#1DF7EF"/>
</linearGradient>
<linearGradient id="paint5_linear_1121_7876" x1="18" y1="9" x2="18" y2="15" gradientUnits="userSpaceOnUse">
<stop stop-color="#FE5468"/>
<stop offset="1" stop-color="#FFDF27"/>
</linearGradient>
</defs>
</svg>
