<svg width="24" height="24" viewBox="0 0 24 24" fill="none" xmlns="http://www.w3.org/2000/svg">
<path fill-rule="evenodd" clip-rule="evenodd" d="M12 4.60609C7.93318 4.60609 4.63636 7.9029 4.63636 11.9697C4.63636 16.0366 7.93318 19.3334 12 19.3334C16.0668 19.3334 19.3636 16.0366 19.3636 11.9697C19.3636 7.9029 16.0668 4.60609 12 4.60609ZM3 11.9697C3 6.99916 7.02944 2.96973 12 2.96973C16.9706 2.96973 21 6.99916 21 11.9697C21 16.9403 16.9706 20.9697 12 20.9697C7.02944 20.9697 3 16.9403 3 11.9697Z" fill="url(#paint0_linear_1121_8000)"/>
<path fill-rule="evenodd" clip-rule="evenodd" d="M15.7764 8.19333C15.9808 8.39778 16.0522 8.7002 15.9608 8.9745L14.3425 13.8294C14.2665 14.0574 14.0876 14.2362 13.8597 14.3122L9.00477 15.9305C8.73047 16.022 8.42805 15.9506 8.2236 15.7461C8.01915 15.5417 7.94776 15.2393 8.03919 14.965L9.65751 10.11C9.73349 9.88208 9.91235 9.70321 10.1403 9.62723L14.9952 8.00892C15.2695 7.91749 15.5719 7.98888 15.7764 8.19333ZM10.9852 10.9549L9.97035 13.9994L13.0148 12.9846L14.0297 9.94007L10.9852 10.9549Z" fill="url(#paint1_linear_1121_8000)"/>
<defs>
<linearGradient id="paint0_linear_1121_8000" x1="12" y1="2.96973" x2="12" y2="20.9697" gradientUnits="userSpaceOnUse">
<stop stop-color="#10808C"/>
<stop offset="1" stop-color="#1DF7EF"/>
</linearGradient>
<linearGradient id="paint1_linear_1121_8000" x1="12" y1="7.96973" x2="12" y2="15.9697" gradientUnits="userSpaceOnUse">
<stop stop-color="#FE5468"/>
<stop offset="1" stop-color="#FFDF27"/>
</linearGradient>
</defs>
</svg>
