<svg width="24" height="25" viewBox="0 0 24 25" fill="none" xmlns="http://www.w3.org/2000/svg">
<path fill-rule="evenodd" clip-rule="evenodd" d="M11.4374 1.11009C11.7684 0.852628 12.2319 0.852628 12.5629 1.11009L20.8129 7.52675C21.0362 7.70042 21.1668 7.96745 21.1668 8.25033V18.3337C21.1668 19.063 20.8771 19.7625 20.3614 20.2782C19.8456 20.7939 19.1462 21.0837 18.4168 21.0837H5.5835C4.85415 21.0837 4.15468 20.7939 3.63895 20.2782C3.12323 19.7625 2.8335 19.063 2.8335 18.3337V8.25033C2.8335 7.96745 2.9641 7.70042 3.18738 7.52675L11.4374 1.11009ZM4.66683 8.69865V18.3337C4.66683 18.5768 4.76341 18.8099 4.93531 18.9818C5.10722 19.1538 5.34038 19.2503 5.5835 19.2503H18.4168C18.6599 19.2503 18.8931 19.1538 19.065 18.9818C19.2369 18.8099 19.3335 18.5768 19.3335 18.3337V8.69865L12.0002 2.99495L4.66683 8.69865Z" fill="url(#paint0_linear_1121_7867)"/>
<path fill-rule="evenodd" clip-rule="evenodd" d="M8.3335 10.9997C8.3335 10.4934 8.7439 10.083 9.25016 10.083H14.7502C15.2564 10.083 15.6668 10.4934 15.6668 10.9997V20.1663C15.6668 20.6726 15.2564 21.083 14.7502 21.083C14.2439 21.083 13.8335 20.6726 13.8335 20.1663V11.9163H10.1668V20.1663C10.1668 20.6726 9.75642 21.083 9.25016 21.083C8.7439 21.083 8.3335 20.6726 8.3335 20.1663V10.9997Z" fill="url(#paint1_linear_1121_7867)"/>
<defs>
<linearGradient id="paint0_linear_1121_7867" x1="12.0002" y1="0.916992" x2="12.0002" y2="21.0837" gradientUnits="userSpaceOnUse">
<stop stop-color="#10808C"/>
<stop offset="1" stop-color="#1DF7EF"/>
</linearGradient>
<linearGradient id="paint1_linear_1121_7867" x1="12.0002" y1="10.083" x2="12.0002" y2="21.083" gradientUnits="userSpaceOnUse">
<stop stop-color="#FE5468"/>
<stop offset="1" stop-color="#FFDF27"/>
</linearGradient>
</defs>
</svg>
