<svg width="36" height="36" viewBox="0 0 36 36" fill="none" xmlns="http://www.w3.org/2000/svg">
<path fill-rule="evenodd" clip-rule="evenodd" d="M26.2035 4.5C26.048 4.47426 25.8835 4.44891 25.7099 4.42412C23.9001 4.16557 21.3503 4 18.5 4C15.6497 4 13.0999 4.16557 11.2901 4.42412C11.1165 4.44891 10.952 4.47426 10.7965 4.5C10.952 4.52574 11.1165 4.55109 11.2901 4.57588C13.0999 4.83443 15.6497 5 18.5 5C21.3503 5 23.9001 4.83443 25.7099 4.57588C25.8835 4.55109 26.048 4.52574 26.2035 4.5ZM18.5 6C24.299 6 29 5.32843 29 4.5C29 3.67157 24.299 3 18.5 3C12.701 3 8 3.67157 8 4.5C8 5.32843 12.701 6 18.5 6Z" fill="url(#paint0_linear_6964_31526)"/>
<path fill-rule="evenodd" clip-rule="evenodd" d="M25.8549 33.4274C25.6534 33.465 25.4441 33.5012 25.2273 33.5357C23.4053 33.8255 21.0596 34 18.5 34C15.9404 34 13.5947 33.8255 11.7727 33.5357C11.5559 33.5012 11.3466 33.465 11.1451 33.4274C9.20405 33.0645 8 32.559 8 32C8 31.441 9.20405 30.9355 11.1451 30.5726C11.3466 30.535 11.5559 30.4988 11.7727 30.4643C13.5947 30.1745 15.9404 30 18.5 30C21.0596 30 23.4053 30.1745 25.2273 30.4643C25.4441 30.4988 25.6534 30.535 25.8549 30.5726C27.7959 30.9355 29 31.441 29 32C29 32.559 27.7959 33.0645 25.8549 33.4274Z" fill="url(#paint1_linear_6964_31526)"/>
<path fill-rule="evenodd" clip-rule="evenodd" d="M27.2757 6.43478H8.72433C5.67604 6.43478 3.15677 8.94997 2.98035 12.1695L2.3094 24.4138C2.15622 27.2093 4.25775 29.5652 6.90459 29.5652H29.0954C31.7422 29.5652 33.8438 27.2093 33.6906 24.4138L33.0196 12.1695C32.8432 8.94998 30.324 6.43478 27.2757 6.43478ZM8.72433 4C4.45672 4 0.929742 7.52126 0.682759 12.0285L0.0118104 24.2729C-0.217963 28.4661 2.93433 32 6.90459 32H29.0954C33.0657 32 36.218 28.4662 35.9882 24.2729L35.3172 12.0286C35.0703 7.52127 31.5433 4 27.2757 4H8.72433Z" fill="url(#paint2_linear_6964_31526)"/>
<path fill-rule="evenodd" clip-rule="evenodd" d="M29.6667 10.7727H6.33333C6.01117 10.7727 5.75 11.0373 5.75 11.3636V19.6364C5.75 19.9627 6.01117 20.2273 6.33333 20.2273H29.6667C29.9888 20.2273 30.25 19.9627 30.25 19.6364V11.3636C30.25 11.0373 29.9888 10.7727 29.6667 10.7727ZM6.33333 9C5.04467 9 4 10.0582 4 11.3636V19.6364C4 20.9418 5.04467 22 6.33333 22H29.6667C30.9553 22 32 20.9418 32 19.6364V11.3636C32 10.0582 30.9553 9 29.6667 9H6.33333Z" fill="url(#paint3_linear_6964_31526)"/>
<path d="M9.1194 17C8.87278 17 8.65018 16.9397 8.4516 16.8192C8.25303 16.6986 8.10249 16.5342 8 16.326L8.36993 15.8877C8.45961 16.0301 8.57171 16.1434 8.70623 16.2274C8.84075 16.3114 8.98008 16.3534 9.1242 16.3534C9.23951 16.3534 9.3404 16.326 9.42687 16.2712C9.51655 16.2164 9.58702 16.1397 9.63826 16.0411C9.68951 15.9425 9.71513 15.8292 9.71513 15.7014C9.71513 15.5735 9.69111 15.4621 9.64307 15.3671C9.59502 15.2721 9.52937 15.1991 9.44609 15.1479C9.36282 15.0932 9.26833 15.0658 9.16264 15.0658C9.05694 15.0658 8.95766 15.0932 8.86477 15.1479C8.77509 15.1991 8.70303 15.274 8.64858 15.3726H8.08648L8.48043 13.0548H10.1619V13.7233H8.94645L8.80712 14.5945C8.84876 14.5507 8.90641 14.5142 8.98008 14.4849C9.05374 14.4521 9.14502 14.4356 9.25392 14.4356C9.46851 14.4356 9.66068 14.4886 9.83044 14.5945C10.0002 14.7005 10.1331 14.8484 10.2292 15.0384C10.3253 15.2247 10.3733 15.4402 10.3733 15.6849C10.3733 15.9443 10.3189 16.1726 10.21 16.3699C10.1011 16.5708 9.95214 16.726 9.76317 16.8356C9.57421 16.9452 9.35961 17 9.1194 17Z" fill="url(#paint4_linear_6964_31526)"/>
<path d="M11.7796 17C11.533 17 11.3104 16.9397 11.1118 16.8192C10.9132 16.6986 10.7627 16.5342 10.6602 16.326L11.0301 15.8877C11.1198 16.0301 11.2319 16.1434 11.3664 16.2274C11.5009 16.3114 11.6403 16.3534 11.7844 16.3534C11.8997 16.3534 12.0006 16.326 12.0871 16.2712C12.1767 16.2164 12.2472 16.1397 12.2985 16.0411C12.3497 15.9425 12.3753 15.8292 12.3753 15.7014C12.3753 15.5735 12.3513 15.4621 12.3033 15.3671C12.2552 15.2721 12.1896 15.1991 12.1063 15.1479C12.023 15.0932 11.9285 15.0658 11.8228 15.0658C11.7171 15.0658 11.6178 15.0932 11.525 15.1479C11.4353 15.1991 11.3632 15.274 11.3088 15.3726H10.7467L11.1406 13.0548H12.8221V13.7233H11.6066L11.4673 14.5945C11.5089 14.5507 11.5666 14.5142 11.6403 14.4849C11.7139 14.4521 11.8052 14.4356 11.9141 14.4356C12.1287 14.4356 12.3209 14.4886 12.4906 14.5945C12.6604 14.7005 12.7933 14.8484 12.8894 15.0384C12.9855 15.2247 13.0335 15.4402 13.0335 15.6849C13.0335 15.9443 12.9791 16.1726 12.8702 16.3699C12.7613 16.5708 12.6123 16.726 12.4234 16.8356C12.2344 16.9452 12.0198 17 11.7796 17Z" fill="url(#paint5_linear_6964_31526)"/>
<path d="M14.4398 17C14.1932 17 13.9706 16.9397 13.772 16.8192C13.5734 16.6986 13.4229 16.5342 13.3204 16.326L13.6903 15.8877C13.78 16.0301 13.8921 16.1434 14.0266 16.2274C14.1611 16.3114 14.3005 16.3534 14.4446 16.3534C14.5599 16.3534 14.6608 16.326 14.7473 16.2712C14.8369 16.2164 14.9074 16.1397 14.9586 16.0411C15.0099 15.9425 15.0355 15.8292 15.0355 15.7014C15.0355 15.5735 15.0115 15.4621 14.9634 15.3671C14.9154 15.2721 14.8497 15.1991 14.7665 15.1479C14.6832 15.0932 14.5887 15.0658 14.483 15.0658C14.3773 15.0658 14.278 15.0932 14.1851 15.1479C14.0955 15.1991 14.0234 15.274 13.969 15.3726H13.4069L13.8008 13.0548H15.4823V13.7233H14.2668L14.1275 14.5945C14.1691 14.5507 14.2268 14.5142 14.3005 14.4849C14.3741 14.4521 14.4654 14.4356 14.5743 14.4356C14.7889 14.4356 14.9811 14.4886 15.1508 14.5945C15.3206 14.7005 15.4535 14.8484 15.5496 15.0384C15.6457 15.2247 15.6937 15.4402 15.6937 15.6849C15.6937 15.9443 15.6392 16.1726 15.5304 16.3699C15.4215 16.5708 15.2725 16.726 15.0836 16.8356C14.8946 16.9452 14.68 17 14.4398 17Z" fill="url(#paint6_linear_6964_31526)"/>
<path d="M16.1199 15.011V14.3479H17.5756V15.011H16.1199Z" fill="url(#paint7_linear_6964_31526)"/>
<path d="M19.553 14.8904C19.6876 14.916 19.8045 14.9744 19.9038 15.0658C20.003 15.1534 20.0799 15.2667 20.1344 15.4055C20.192 15.5443 20.2208 15.6977 20.2208 15.8658C20.2208 16.0922 20.1696 16.2895 20.0671 16.4575C19.9646 16.6256 19.8189 16.7553 19.6299 16.8466C19.4441 16.9416 19.2247 16.989 18.9717 16.989C18.7283 16.989 18.5121 16.9434 18.3231 16.8521C18.1374 16.7644 17.982 16.6347 17.8571 16.463L18.2223 15.9425C18.3055 16.0594 18.4048 16.1507 18.5201 16.2164C18.6386 16.2858 18.7828 16.3205 18.9525 16.3205C19.1479 16.3205 19.2968 16.2749 19.3993 16.1836C19.5018 16.0959 19.553 15.9626 19.553 15.7836C19.553 15.5936 19.4938 15.4475 19.3753 15.3452C19.2568 15.2429 19.0774 15.1918 18.8372 15.1918H18.7027V14.6438H18.8516C19.047 14.6438 19.1991 14.5927 19.308 14.4904C19.4201 14.3881 19.4762 14.2603 19.4762 14.1068C19.4762 14.0082 19.4554 13.926 19.4137 13.8603C19.3721 13.7945 19.3144 13.7452 19.2408 13.7123C19.1703 13.6795 19.087 13.663 18.9909 13.663C18.8468 13.663 18.7155 13.7014 18.597 13.7781C18.4785 13.8548 18.3824 13.9626 18.3087 14.1014L17.9052 13.5863C17.9724 13.4731 18.0637 13.3763 18.179 13.2959C18.2975 13.2119 18.432 13.1461 18.5826 13.0986C18.7363 13.0511 18.8965 13.0274 19.063 13.0274C19.2808 13.0274 19.4714 13.0676 19.6347 13.1479C19.8013 13.2283 19.931 13.3416 20.0239 13.4877C20.1167 13.6338 20.1632 13.8037 20.1632 13.9973C20.1632 14.1397 20.1376 14.2749 20.0863 14.4027C20.0351 14.5306 19.963 14.6384 19.8701 14.726C19.7804 14.81 19.6748 14.8648 19.553 14.8904Z" fill="url(#paint8_linear_6964_31526)"/>
<path d="M20.5841 16.1836C20.5841 16.0192 20.5953 15.8712 20.6178 15.7397C20.6402 15.6082 20.6786 15.4858 20.7331 15.3726C20.7907 15.2594 20.8676 15.1534 20.9637 15.0548C21.063 14.9525 21.1879 14.8539 21.3384 14.7589C21.4697 14.6785 21.585 14.6091 21.6843 14.5507C21.7836 14.4886 21.8669 14.432 21.9341 14.3808C22.0046 14.3297 22.0574 14.2785 22.0927 14.2274C22.1279 14.1726 22.1455 14.1105 22.1455 14.0411C22.1455 13.968 22.1279 13.9023 22.0927 13.8438C22.0574 13.7817 22.0078 13.7324 21.9437 13.6959C21.8797 13.6594 21.7996 13.6411 21.7035 13.6411C21.6267 13.6411 21.5546 13.6521 21.4873 13.674C21.4233 13.6959 21.3624 13.7269 21.3048 13.7671C21.2503 13.8073 21.1991 13.853 21.151 13.9041C21.103 13.9516 21.0598 14.0027 21.0213 14.0575L20.613 13.5205C20.6578 13.4694 20.717 13.4146 20.7907 13.3562C20.8676 13.2941 20.9573 13.2374 21.0598 13.1863C21.1654 13.1315 21.2807 13.0877 21.4057 13.0548C21.5338 13.0183 21.6699 13 21.814 13C22.0318 13 22.2176 13.0402 22.3713 13.1205C22.5251 13.1973 22.642 13.305 22.722 13.4438C22.8053 13.5826 22.8469 13.7452 22.8469 13.9315C22.8469 14.0594 22.8261 14.1726 22.7845 14.2712C22.7429 14.3699 22.69 14.4575 22.6259 14.5342C22.5619 14.6073 22.4914 14.6731 22.4146 14.7315C22.3409 14.79 22.2688 14.8411 22.1984 14.8849C22.0991 14.9434 22.0094 14.9982 21.9293 15.0493C21.8493 15.0968 21.7788 15.1461 21.7179 15.1973C21.6571 15.2447 21.6026 15.2941 21.5546 15.3452C21.5098 15.3963 21.4697 15.4548 21.4345 15.5205H22.8998V16.1836H20.5841Z" fill="url(#paint9_linear_6964_31526)"/>
<path d="M25.3714 15.5205V16.1836H23.4208V15.5205H24.103V13.8603C24.0742 13.9041 24.0294 13.9498 23.9685 13.9973C23.9077 14.0411 23.8388 14.0831 23.7619 14.1233C23.6851 14.1635 23.6082 14.1963 23.5313 14.2219C23.4545 14.2475 23.3856 14.2603 23.3247 14.2603V13.5753C23.3824 13.5753 23.4513 13.5553 23.5313 13.5151C23.6146 13.4712 23.6963 13.4201 23.7764 13.3616C23.8596 13.3032 23.9301 13.2466 23.9877 13.1918C24.0486 13.1333 24.087 13.0877 24.103 13.0548H24.7612V15.5205H25.3714Z" fill="url(#paint10_linear_6964_31526)"/>
<path d="M26.7461 17C26.4995 17 26.2769 16.9397 26.0783 16.8192C25.8797 16.6986 25.7292 16.5342 25.6267 16.326L25.9966 15.8877C26.0863 16.0301 26.1984 16.1434 26.3329 16.2274C26.4674 16.3114 26.6068 16.3534 26.7509 16.3534C26.8662 16.3534 26.9671 16.326 27.0536 16.2712C27.1432 16.2164 27.2137 16.1397 27.2649 16.0411C27.3162 15.9425 27.3418 15.8292 27.3418 15.7014C27.3418 15.5735 27.3178 15.4621 27.2697 15.3671C27.2217 15.2721 27.156 15.1991 27.0728 15.1479C26.9895 15.0932 26.895 15.0658 26.7893 15.0658C26.6836 15.0658 26.5843 15.0932 26.4915 15.1479C26.4018 15.1991 26.3297 15.274 26.2753 15.3726H25.7132L26.1071 13.0548H27.7886V13.7233H26.5731L26.4338 14.5945C26.4754 14.5507 26.5331 14.5142 26.6068 14.4849C26.6804 14.4521 26.7717 14.4356 26.8806 14.4356C27.0952 14.4356 27.2874 14.4886 27.4571 14.5945C27.6269 14.7005 27.7598 14.8484 27.8559 15.0384C27.952 15.2247 28 15.4402 28 15.6849C28 15.9443 27.9456 16.1726 27.8367 16.3699C27.7278 16.5708 27.5788 16.726 27.3899 16.8356C27.2009 16.9452 26.9863 17 26.7461 17Z" fill="url(#paint11_linear_6964_31526)"/>
<rect x="6" y="23" width="11" height="4" rx="2" fill="url(#paint12_linear_6964_31526)"/>
<rect x="25" y="23" width="5" height="4" rx="2" fill="url(#paint13_linear_6964_31526)"/>
<rect x="19" y="23" width="5" height="4" rx="2" fill="url(#paint14_linear_6964_31526)"/>
<defs>
<linearGradient id="paint0_linear_6964_31526" x1="18.5" y1="3" x2="18.9306" y2="7.23793" gradientUnits="userSpaceOnUse">
<stop stop-color="#FE5468"/>
<stop offset="1" stop-color="#FFDF27"/>
</linearGradient>
<linearGradient id="paint1_linear_6964_31526" x1="18.5" y1="30" x2="19.2595" y2="35.606" gradientUnits="userSpaceOnUse">
<stop stop-color="#FE5468"/>
<stop offset="1" stop-color="#FFDF27"/>
</linearGradient>
<linearGradient id="paint2_linear_6964_31526" x1="18" y1="4" x2="18" y2="32" gradientUnits="userSpaceOnUse">
<stop stop-color="#10808C"/>
<stop offset="1" stop-color="#1DF7EF"/>
</linearGradient>
<linearGradient id="paint3_linear_6964_31526" x1="18" y1="9" x2="18" y2="22" gradientUnits="userSpaceOnUse">
<stop stop-color="#10808C"/>
<stop offset="1" stop-color="#1DF7EF"/>
</linearGradient>
<linearGradient id="paint4_linear_6964_31526" x1="18" y1="13" x2="18.796" y2="18.5957" gradientUnits="userSpaceOnUse">
<stop stop-color="#FE5468"/>
<stop offset="1" stop-color="#FFDF27"/>
</linearGradient>
<linearGradient id="paint5_linear_6964_31526" x1="18" y1="13" x2="18.796" y2="18.5957" gradientUnits="userSpaceOnUse">
<stop stop-color="#FE5468"/>
<stop offset="1" stop-color="#FFDF27"/>
</linearGradient>
<linearGradient id="paint6_linear_6964_31526" x1="18" y1="13" x2="18.796" y2="18.5957" gradientUnits="userSpaceOnUse">
<stop stop-color="#FE5468"/>
<stop offset="1" stop-color="#FFDF27"/>
</linearGradient>
<linearGradient id="paint7_linear_6964_31526" x1="18" y1="13" x2="18.796" y2="18.5957" gradientUnits="userSpaceOnUse">
<stop stop-color="#FE5468"/>
<stop offset="1" stop-color="#FFDF27"/>
</linearGradient>
<linearGradient id="paint8_linear_6964_31526" x1="18" y1="13" x2="18.796" y2="18.5957" gradientUnits="userSpaceOnUse">
<stop stop-color="#FE5468"/>
<stop offset="1" stop-color="#FFDF27"/>
</linearGradient>
<linearGradient id="paint9_linear_6964_31526" x1="18" y1="13" x2="18.796" y2="18.5957" gradientUnits="userSpaceOnUse">
<stop stop-color="#FE5468"/>
<stop offset="1" stop-color="#FFDF27"/>
</linearGradient>
<linearGradient id="paint10_linear_6964_31526" x1="18" y1="13" x2="18.796" y2="18.5957" gradientUnits="userSpaceOnUse">
<stop stop-color="#FE5468"/>
<stop offset="1" stop-color="#FFDF27"/>
</linearGradient>
<linearGradient id="paint11_linear_6964_31526" x1="18" y1="13" x2="18.796" y2="18.5957" gradientUnits="userSpaceOnUse">
<stop stop-color="#FE5468"/>
<stop offset="1" stop-color="#FFDF27"/>
</linearGradient>
<linearGradient id="paint12_linear_6964_31526" x1="11.5" y1="23" x2="12.884" y2="28.3509" gradientUnits="userSpaceOnUse">
<stop stop-color="#FE5468"/>
<stop offset="1" stop-color="#FFDF27"/>
</linearGradient>
<linearGradient id="paint13_linear_6964_31526" x1="27.5" y1="23" x2="29.954" y2="27.3125" gradientUnits="userSpaceOnUse">
<stop stop-color="#FE5468"/>
<stop offset="1" stop-color="#FFDF27"/>
</linearGradient>
<linearGradient id="paint14_linear_6964_31526" x1="21.5" y1="23" x2="23.954" y2="27.3125" gradientUnits="userSpaceOnUse">
<stop stop-color="#FE5468"/>
<stop offset="1" stop-color="#FFDF27"/>
</linearGradient>
</defs>
</svg>
