<svg width="24" height="25" viewBox="0 0 24 25" fill="none" xmlns="http://www.w3.org/2000/svg">
<path fill-rule="evenodd" clip-rule="evenodd" d="M12.6333 4.51798C13.5574 3.62546 14.7951 3.1316 16.0797 3.14276C17.3644 3.15393 18.5933 3.66922 19.5018 4.57766C20.4102 5.48611 20.9255 6.71501 20.9367 7.99969C20.9478 9.28438 20.454 10.522 19.5615 11.4461L19.5515 11.4563L17.1018 13.906C16.6051 14.4029 16.0073 14.7872 15.349 15.0327C14.6907 15.2783 13.9873 15.3794 13.2865 15.3292C12.5857 15.279 11.9039 15.0787 11.2874 14.7418C10.6708 14.405 10.1339 13.9394 9.71304 13.3768C9.4429 13.0157 9.51667 12.5039 9.87782 12.2338C10.239 11.9636 10.7507 12.0374 11.0209 12.3986C11.3014 12.7736 11.6594 13.084 12.0704 13.3086C12.4815 13.5331 12.936 13.6667 13.4032 13.7001C13.8704 13.7336 14.3393 13.6662 14.7782 13.5025C15.217 13.3388 15.6156 13.0826 15.9467 12.7513L15.9468 12.7512L18.3914 10.3067C18.9834 9.69115 19.3109 8.86811 19.3035 8.01389C19.2961 7.15743 18.9525 6.33816 18.3469 5.73253C17.7413 5.1269 16.922 4.78337 16.0656 4.77593C15.211 4.76851 14.3876 5.0963 13.7719 5.68886L12.3718 7.08089C12.0519 7.39886 11.5349 7.39736 11.2169 7.07752C10.8989 6.75768 10.9004 6.24063 11.2203 5.92266L12.6249 4.52625L12.6333 4.51798Z" fill="url(#paint0_linear_1121_7955)"/>
<path fill-rule="evenodd" clip-rule="evenodd" d="M8.65134 9.10978C9.30962 8.86422 10.013 8.76311 10.7138 8.8133C11.4146 8.86349 12.0964 9.06381 12.713 9.40067C13.3295 9.73753 13.8665 10.2031 14.2873 10.7657C14.5574 11.1268 14.4837 11.6386 14.1225 11.9087C13.7614 12.1789 13.2496 12.1051 12.9795 11.7439C12.6989 11.3689 12.341 11.0585 11.9299 10.8339C11.5189 10.6094 11.0643 10.4758 10.5971 10.4424C10.1299 10.4089 9.66101 10.4763 9.22216 10.64C8.7833 10.8037 8.38479 11.0599 8.05364 11.3912L5.60899 13.8358C5.01691 14.4514 4.68941 15.2744 4.69683 16.1286C4.70427 16.9851 5.0478 17.8043 5.65343 18.41C6.25906 19.0156 7.07833 19.3591 7.93478 19.3666C8.789 19.374 9.61204 19.0465 10.2276 18.4544L11.6187 17.0633C11.9376 16.7444 12.4547 16.7444 12.7736 17.0633C13.0925 17.3822 13.0925 17.8993 12.7736 18.2182L11.3772 19.6146L11.367 19.6245C10.4429 20.517 9.20528 21.0109 7.92059 20.9997C6.63591 20.9886 5.40701 20.4733 4.49856 19.5648C3.59012 18.6564 3.07483 17.4275 3.06366 16.1428C3.0525 14.8581 3.54636 13.6205 4.43888 12.6964L4.44883 12.6862L6.89857 10.2365C6.89853 10.2365 6.8986 10.2365 6.89857 10.2365C7.39526 9.73965 7.9931 9.35532 8.65134 9.10978Z" fill="url(#paint1_linear_1121_7955)"/>
<defs>
<linearGradient id="paint0_linear_1121_7955" x1="15.2436" y1="3.14258" x2="15.2436" y2="15.3417" gradientUnits="userSpaceOnUse">
<stop stop-color="#FE5468"/>
<stop offset="1" stop-color="#FFDF27"/>
</linearGradient>
<linearGradient id="paint1_linear_1121_7955" x1="8.75676" y1="8.80078" x2="8.75676" y2="20.9999" gradientUnits="userSpaceOnUse">
<stop stop-color="#10808C"/>
<stop offset="1" stop-color="#1DF7EF"/>
</linearGradient>
</defs>
</svg>
