<svg width="16" height="16" viewBox="0 0 16 16" fill="none" xmlns="http://www.w3.org/2000/svg">
<path fill-rule="evenodd" clip-rule="evenodd" d="M13.6569 13.6569C15.1571 12.1566 16 10.1217 16 8C16 5.87827 15.1571 3.84344 13.6569 2.34315C12.1566 0.842855 10.1217 0 8 0C5.87827 0 3.84344 0.842855 2.34315 2.34315C0.842855 3.84344 0 5.87827 0 8C0 10.1217 0.842855 12.1566 2.34315 13.6569C3.84344 15.1571 5.87827 16 8 16C10.1217 16 12.1566 15.1571 13.6569 13.6569ZM6.58579 5.17157C6.39825 4.98404 6.1439 4.87868 5.87868 4.87868C5.61346 4.87868 5.35911 4.98404 5.17157 5.17157C4.98404 5.35911 4.87868 5.61346 4.87868 5.87868C4.87868 6.1439 4.98404 6.39825 5.17157 6.58579L6.58579 8L5.17157 9.41421C4.98404 9.60175 4.87868 9.8561 4.87868 10.1213C4.87868 10.3865 4.98404 10.6409 5.17157 10.8284C5.35911 11.016 5.61346 11.1213 5.87868 11.1213C6.1439 11.1213 6.39825 11.016 6.58579 10.8284L8 9.41421L9.41421 10.8284C9.60175 11.016 9.8561 11.1213 10.1213 11.1213C10.3865 11.1213 10.6409 11.016 10.8284 10.8284C11.016 10.6409 11.1213 10.3865 11.1213 10.1213C11.1213 9.8561 11.016 9.60175 10.8284 9.41421L9.41421 8L10.8284 6.58579C11.016 6.39825 11.1213 6.1439 11.1213 5.87868C11.1213 5.61346 11.016 5.35911 10.8284 5.17157C10.6409 4.98404 10.3865 4.87868 10.1213 4.87868C9.8561 4.87868 9.60175 4.98404 9.41421 5.17157L8 6.58579L6.58579 5.17157Z" fill="#FE5468"/>
</svg>
