<svg width="194" height="46" viewBox="0 0 194 46" fill="none" xmlns="http://www.w3.org/2000/svg">
  <path d="M13.1032 14.7805C13.026 13.704 13.3192 12.7156 13.9481 11.7572C14.3693 11.1201 14.9665 10.4321 15.6254 9.67423C17.3254 7.7165 19.431 5.29317 19.9466 2.08203C21.0675 4.54348 20.5238 6.93686 19.2831 9.13783C18.7249 10.1271 18.1068 10.8378 17.5169 11.5158C16.8226 12.3136 16.1682 13.066 15.698 14.1724C15.4394 14.7741 15.2923 15.3504 15.2233 15.9141L13.1032 14.7805Z" fill="url(#paint0_radial_22531_2222)"/>
  <path d="M16.741 16.7279C16.9997 15.7786 17.4471 14.8909 18.0416 14.0296C18.5336 13.3107 18.9946 12.778 19.4085 12.2997C20.8008 10.6887 21.6648 9.68846 21.4116 4.28906C21.5741 4.63577 21.7347 4.96977 21.8908 5.29198L21.8917 5.29379C23.2495 8.11284 24.2025 10.0896 22.6015 12.8043C21.81 14.1458 21.2328 14.8129 20.7227 15.4028C20.1482 16.0663 19.6581 16.6335 19.0418 17.9532L16.741 16.7279Z" fill="url(#paint1_radial_22531_2222)"/>
  <path d="M22.7032 15.8774C22.0787 16.6171 21.0595 17.6372 21.0132 17.7044L26.7811 14.4796C26.6604 13.405 25.868 12.1389 24.8942 10.3391C25.0911 12.7116 24.1653 14.1447 22.7032 15.8774Z" fill="url(#paint2_radial_22531_2222)"/>
  <path d="M26.7385 15.5518C26.5833 16.2397 25.7338 17.671 25.1093 18.4144C23.1362 20.7615 22.1087 21.7626 20.4206 25.2941C20.3253 24.912 20.2254 24.5517 20.1301 24.2077C19.6591 22.5086 19.3696 21.0937 19.9341 19.8738L26.7385 15.5518Z" fill="url(#paint3_radial_22531_2222)"/>
  <path d="M19.1191 23.5084C18.6363 22.0953 18.2895 20.9136 18.5419 19.4187L16.5251 18.1045C16.4135 20.3036 17.3529 22.8713 19.9468 26.1768C19.8089 25.3581 19.395 24.3162 19.1191 23.5084Z" fill="url(#paint4_radial_22531_2222)"/>
  <path d="M15.1809 17.2285C15.2153 17.9437 15.6574 19.8342 16.0531 20.8344C14.924 19.394 13.6896 17.184 13.3366 16.0259L15.1809 17.2285Z" fill="url(#paint5_radial_22531_2222)"/>
  <path d="M38.934 27.977C38.934 24.7051 32.8494 21.9532 24.6264 21.1826C23.8422 22.063 23.058 23.1558 22.3083 24.7668L21.1792 26.9115C20.9641 27.3072 20.5675 27.5668 20.1273 27.6013C19.6799 27.6358 19.2487 27.4397 18.9819 27.0812L18.2576 26.1082C16.7492 24.1823 15.6455 22.6566 14.7751 21.2289C6.79446 22.0594 0.933998 24.7677 0.933998 27.977C0.933998 31.8462 9.44924 34.9874 19.9385 34.9874C20.445 34.9874 20.9478 34.9802 21.4452 34.9656L22.9845 30.6082L22.9972 30.5773C23.3366 29.7287 24.1535 29.1733 25.062 29.1605H25.0684L38.6581 29.1969C38.7979 28.8547 38.934 28.3337 38.934 27.977Z" fill="url(#paint6_radial_22531_2222)"/>
  <path d="M25.6228 35.0819H36.27L35.8044 36.2627H25.2134L22.8555 42.989V35.8461L24.5046 31.1801C24.5981 30.9441 24.8268 30.7871 25.0836 30.7834L37.9899 30.7871L37.5125 31.9506H26.7382L26.4079 32.9327H37.144L36.6339 34.0999H25.9958L25.6228 35.0819Z" fill="url(#paint7_radial_22531_2222)"/>
  <path d="M1.58768 31.0698C2.81386 34.5369 5.81444 38.6094 6.45249 39.2048C8.65618 41.2805 15.7564 42.9895 21.3483 42.9895V37.1454C11.6549 37.1454 4.08725 34.006 1.58768 31.0698Z" fill="url(#paint8_radial_22531_2222)"/>
  <path d="M160.866 26.7584C160.866 23.0785 158.303 20.4116 154.621 20.4116C150.892 20.4116 148.276 23.1246 148.276 26.877C148.276 30.9342 150.933 33.1991 155.64 33.1991C157.18 33.2044 158.699 32.8319 160.067 32.1136L159.461 29.707C158.227 30.3214 156.858 30.6953 155.662 30.6953C153.222 30.6953 151.748 29.6329 151.585 27.8176H160.789C160.818 27.5606 160.866 27.1356 160.866 26.7584ZM151.522 25.8146C151.684 24.1393 152.872 22.9368 154.597 22.9368C156.321 22.9368 157.511 24.1393 157.673 25.8146H151.522Z" fill="#CDD8D3"/>
  <path d="M146.883 16H143.761V19.138H146.883V16Z" fill="#CDD8D3"/>
  <path d="M146.883 20.624H143.761V32.9865H146.883V20.624Z" fill="#CDD8D3"/>
  <path d="M136.654 20.4116C134.813 20.4116 133.368 21.3094 132.436 22.7474V20.6241H129.71V37.5413H132.832V31.2817C133.646 32.5188 135.101 33.2255 136.794 33.2255C139.894 33.2255 142.363 30.5108 142.363 26.7831C142.363 23.0554 139.964 20.4116 136.654 20.4116ZM136.003 30.5339C134.162 30.5339 132.811 29.0003 132.811 26.9001C132.811 24.706 134.162 23.1016 136.003 23.1016C137.845 23.1016 139.173 24.706 139.173 26.9001C139.171 29.0003 137.842 30.5339 136.002 30.5339H136.003Z" fill="#CDD8D3"/>
  <path d="M122.67 20.4116C118.943 20.4116 116.333 23.1246 116.333 26.877C116.333 30.9342 118.988 33.1991 123.697 33.1991C125.238 33.2042 126.756 32.8317 128.124 32.1136L127.512 29.707C126.277 30.3214 124.909 30.6953 123.715 30.6953C121.274 30.6953 119.8 29.6329 119.636 27.8176H128.846C128.869 27.5573 128.916 27.1324 128.916 26.7551C128.916 23.0834 126.352 20.4116 122.67 20.4116ZM119.571 25.8146C119.734 24.1393 120.923 22.9368 122.648 22.9368C124.372 22.9368 125.56 24.1393 125.723 25.8146H119.571Z" fill="#CDD8D3"/>
  <path d="M111.88 20.4113C110.996 20.3979 110.124 20.6231 109.355 21.0637C108.585 21.5043 108.107 22.1445 107.663 22.9184V16H104.539V32.9863H107.663V27.3659C107.663 24.9346 108.782 23.1885 110.554 23.1885C111.835 23.1885 112.604 24.1324 112.604 26.0432V32.9797H115.726V25.2723C115.725 22.589 114.862 20.4113 111.88 20.4113Z" fill="#CDD8D3"/>
  <path d="M101.928 30.2981C101.277 30.2981 100.763 29.944 100.763 29.094V23.0536H103.325V20.6239H100.763V17.3179H97.6407V20.6239H93.2136L90.9912 30.3838L89.1364 21.9301H86.5332L84.6785 30.3953L82.4332 20.6321H79.2557L82.4706 32.9946H86.1525L87.812 25.9115L89.509 32.9946H93.0509L95.6541 23.0618H97.6423V29.6837C97.6423 32.1134 98.8528 33.1989 101.044 33.1989C102.171 33.2046 103.279 32.9122 104.259 32.3506L103.628 29.8484C103.255 30.0148 102.58 30.2981 101.928 30.2981Z" fill="#CDD8D3"/>
  <path d="M73.4294 20.4116C69.7004 20.4116 67.0207 23.1016 67.0207 26.8359C67.0207 30.5701 69.7004 33.2304 73.4294 33.2304C77.1341 33.2304 79.8137 30.5405 79.8137 26.8359C79.8137 23.1312 77.1341 20.4116 73.4294 20.4116ZM73.4294 30.5339C71.5877 30.5339 70.2357 28.9756 70.2357 26.8293C70.2357 24.6829 71.5877 23.1016 73.4294 23.1016C75.2712 23.1016 76.6216 24.6582 76.6216 26.8062C76.6216 28.9542 75.2696 30.5339 73.4294 30.5339Z" fill="#CDD8D3"/>
  <path d="M62.9646 23.2661V20.6305H60.0995V32.9931H63.2217V25.508C63.8725 24.1161 65.4816 23.3666 66.9036 23.3666V20.4823L66.7409 20.4592C65.2489 20.4592 63.8269 21.5678 62.9646 23.2661Z" fill="#CDD8D3"/>
  <path d="M160.924 32.9572V30.7006H162.648V32.9572H160.924Z" fill="#CDD8D3"/>
  <path d="M167.363 33.1139C166.694 33.1139 166.093 33.0042 165.56 32.7848C165.028 32.555 164.573 32.2416 164.197 31.8446C163.821 31.4371 163.528 30.9775 163.32 30.4656C163.121 29.9537 163.022 29.4156 163.022 28.8515C163.022 28.0784 163.194 27.3732 163.539 26.7359C163.894 26.0882 164.396 25.5711 165.043 25.1846C165.691 24.798 166.459 24.6047 167.347 24.6047C168.235 24.6047 168.998 24.798 169.635 25.1846C170.272 25.5711 170.747 26.0778 171.061 26.7046L169.008 27.3314C168.83 27.0285 168.595 26.7986 168.303 26.6419C168.01 26.4748 167.686 26.3912 167.331 26.3912C166.934 26.3912 166.569 26.4957 166.234 26.7046C165.91 26.9031 165.654 27.1904 165.466 27.5665C165.278 27.9321 165.184 28.3605 165.184 28.8515C165.184 29.3321 165.278 29.7604 165.466 30.1365C165.665 30.5021 165.926 30.7946 166.25 31.014C166.574 31.223 166.934 31.3275 167.331 31.3275C167.582 31.3275 167.817 31.2857 168.036 31.2021C168.266 31.1185 168.47 31.0036 168.648 30.8573C168.825 30.7111 168.956 30.5439 169.039 30.3559L171.092 30.9827C170.904 31.3901 170.627 31.7558 170.262 32.0796C169.906 32.4035 169.483 32.6595 168.992 32.8475C168.512 33.0251 167.968 33.1139 167.363 33.1139Z" fill="#CDD8D3"/>
  <path d="M175.316 33.1139C174.648 33.1139 174.047 33.0042 173.514 32.7848C172.982 32.555 172.527 32.2416 172.151 31.8446C171.785 31.4476 171.503 30.9931 171.305 30.4812C171.106 29.9693 171.007 29.4313 171.007 28.8672C171.007 28.2926 171.106 27.7493 171.305 27.2374C171.503 26.7255 171.785 26.2711 172.151 25.8741C172.527 25.4771 172.982 25.1689 173.514 24.9495C174.047 24.7197 174.648 24.6047 175.316 24.6047C175.985 24.6047 176.581 24.7197 177.103 24.9495C177.636 25.1689 178.09 25.4771 178.466 25.8741C178.842 26.2711 179.124 26.7255 179.313 27.2374C179.511 27.7493 179.61 28.2926 179.61 28.8672C179.61 29.4313 179.511 29.9693 179.313 30.4812C179.124 30.9931 178.842 31.4476 178.466 31.8446C178.101 32.2416 177.651 32.555 177.119 32.7848C176.586 33.0042 175.985 33.1139 175.316 33.1139ZM173.17 28.8672C173.17 29.3477 173.264 29.7761 173.452 30.1522C173.64 30.5178 173.896 30.8051 174.22 31.014C174.543 31.223 174.909 31.3275 175.316 31.3275C175.713 31.3275 176.074 31.223 176.398 31.014C176.722 30.7946 176.978 30.5021 177.166 30.1365C177.364 29.7604 177.463 29.3321 177.463 28.8515C177.463 28.3814 177.364 27.9583 177.166 27.5822C176.978 27.2061 176.722 26.9135 176.398 26.7046C176.074 26.4957 175.713 26.3912 175.316 26.3912C174.909 26.3912 174.543 26.5009 174.22 26.7203C173.896 26.9292 173.64 27.2217 173.452 27.5978C173.264 27.9635 173.17 28.3866 173.17 28.8672Z" fill="#CDD8D3"/>
  <path d="M193 32.9572H190.9V28.35C190.9 27.7023 190.785 27.227 190.555 26.924C190.336 26.6106 190.028 26.4539 189.631 26.4539C189.223 26.4539 188.832 26.6158 188.455 26.9397C188.09 27.2531 187.829 27.6657 187.672 28.1776V32.9572H185.572V28.35C185.572 27.6919 185.457 27.2113 185.227 26.9083C185.008 26.6054 184.7 26.4539 184.303 26.4539C183.895 26.4539 183.504 26.6106 183.127 26.924C182.762 27.2374 182.501 27.6501 182.344 28.162V32.9572H180.244V24.7458H182.14V26.2658C182.454 25.733 182.872 25.3256 183.394 25.0435C183.916 24.751 184.517 24.6047 185.196 24.6047C185.875 24.6047 186.403 24.7719 186.779 25.1062C187.165 25.4405 187.411 25.8532 187.515 26.3442C187.85 25.78 188.273 25.3517 188.785 25.0592C189.307 24.7562 189.892 24.6047 190.54 24.6047C191.052 24.6047 191.464 24.6988 191.778 24.8868C192.102 25.0644 192.352 25.3099 192.53 25.6233C192.707 25.9263 192.828 26.2711 192.89 26.6576C192.963 27.0441 193 27.4359 193 27.8329V32.9572Z" fill="#CDD8D3"/>
  <path d="M55.9507 22.7952C55.0184 21.3555 53.5736 20.4116 51.6945 20.4116C48.377 20.4116 46 23.1016 46 26.8062C46 30.2028 48.3998 32.8219 51.7319 32.8219C52.4702 32.831 53.2004 32.665 53.8641 32.3372C54.5277 32.0095 55.1063 31.529 55.5537 30.9342V32.1614C55.5537 34.4972 54.2261 35.7474 51.8962 35.7474C50.1944 35.7474 48.9367 35.3933 47.4448 34.6388L46.5353 36.9746C48.2034 37.8144 50.0414 38.2503 51.9043 38.2479C56.2387 38.2479 58.6856 36.0538 58.6856 32.1614V20.6307H55.9507V22.7952ZM52.3843 30.2983C50.5442 30.2983 49.1922 28.7648 49.1922 26.9001C49.1922 24.706 50.5442 23.1016 52.3843 23.1016C54.2244 23.1016 55.5537 24.706 55.5537 26.9001C55.5537 28.7648 54.2261 30.2983 52.3843 30.2983Z" fill="#CDD8D3"/>
  <defs>
  <radialGradient id="paint0_radial_22531_2222" cx="0" cy="0" r="1" gradientUnits="userSpaceOnUse" gradientTransform="translate(19.1535 6.37851) rotate(117.912) scale(11.808 9.11336)">
  <stop stop-color="#1DF7EF"/>
  <stop offset="1" stop-color="#10808C"/>
  </radialGradient>
  <radialGradient id="paint1_radial_22531_2222" cx="0" cy="0" r="1" gradientUnits="userSpaceOnUse" gradientTransform="translate(22.1799 8.53338) rotate(115.692) scale(11.4385 8.3377)">
  <stop stop-color="#1DF7EF"/>
  <stop offset="1" stop-color="#10808C"/>
  </radialGradient>
  <radialGradient id="paint2_radial_22531_2222" cx="0" cy="0" r="1" gradientUnits="userSpaceOnUse" gradientTransform="translate(25.6972 12.6269) rotate(127.548) scale(7.00774 6.31751)">
  <stop stop-color="#1DF7EF"/>
  <stop offset="1" stop-color="#10808C"/>
  </radialGradient>
  <radialGradient id="paint3_radial_22531_2222" cx="0" cy="0" r="1" gradientUnits="userSpaceOnUse" gradientTransform="translate(25.4014 18.5779) rotate(125.634) scale(9.04236 7.98874)">
  <stop stop-color="#1DF7EF"/>
  <stop offset="1" stop-color="#10808C"/>
  </radialGradient>
  <radialGradient id="paint4_radial_22531_2222" cx="0" cy="0" r="1" gradientUnits="userSpaceOnUse" gradientTransform="translate(19.3022 20.6119) rotate(112.642) scale(6.59793 4.37388)">
  <stop stop-color="#1DF7EF"/>
  <stop offset="1" stop-color="#10808C"/>
  </radialGradient>
  <radialGradient id="paint5_radial_22531_2222" cx="0" cy="0" r="1" gradientUnits="userSpaceOnUse" gradientTransform="translate(15.5426 17.5195) rotate(119.008) scale(4.14768 3.28196)">
  <stop stop-color="#1DF7EF"/>
  <stop offset="1" stop-color="#10808C"/>
  </radialGradient>
  <radialGradient id="paint6_radial_22531_2222" cx="0" cy="0" r="1" gradientUnits="userSpaceOnUse" gradientTransform="translate(31.7929 25.4706) rotate(159.689) scale(30.0014 18.2218)">
  <stop stop-color="#FFDF27"/>
  <stop offset="0.9999" stop-color="#FE5468"/>
  </radialGradient>
  <radialGradient id="paint7_radial_22531_2222" cx="0" cy="0" r="1" gradientUnits="userSpaceOnUse" gradientTransform="translate(35.1458 34.5747) rotate(140.592) scale(14.5034 13.2732)">
  <stop stop-color="#1DF7EF"/>
  <stop offset="0.9999" stop-color="#10808C"/>
  </radialGradient>
  <radialGradient id="paint8_radial_22531_2222" cx="0" cy="0" r="1" gradientUnits="userSpaceOnUse" gradientTransform="translate(17.6348 34.7723) rotate(148.427) scale(17.1733 14.2932)">
  <stop stop-color="#1DF7EF"/>
  <stop offset="0.9999" stop-color="#10808C"/>
  </radialGradient>
  </defs>
  </svg>
  