<svg width="210" height="45" viewBox="0 0 210 45" fill="none" xmlns="http://www.w3.org/2000/svg">
<path d="M11.1002 15.9142C11.0343 14.9951 11.2846 14.1512 11.8217 13.3328C12.1812 12.7888 12.6912 12.2014 13.2538 11.5543C14.7053 9.88272 16.5032 7.81358 16.9434 5.07178C17.9004 7.17346 17.4362 9.21703 16.3769 11.0963C15.9003 11.941 15.3725 12.5478 14.8688 13.1267C14.2759 13.8079 13.7172 14.4503 13.3158 15.395C13.0949 15.9088 12.9694 16.4009 12.9105 16.8821L11.1002 15.9142Z" fill="url(#paint0_radial_8958_38636)"/>
<path d="M14.207 17.5769C14.4279 16.7663 14.8099 16.0083 15.3175 15.2729C15.7376 14.6591 16.1313 14.2042 16.4846 13.7958C17.6734 12.4203 18.4112 11.5663 18.195 6.95605C18.3337 7.25209 18.4709 7.53727 18.6041 7.81238L18.6049 7.81393C19.7643 10.221 20.578 11.9088 19.2109 14.2267C18.5352 15.3721 18.0423 15.9417 17.6068 16.4454C17.1162 17.0119 16.6977 17.4963 16.1716 18.6231L14.207 17.5769Z" fill="url(#paint1_radial_8958_38636)"/>
<path d="M19.2984 16.8509C18.7653 17.4825 17.895 18.3535 17.8555 18.4109L22.7803 15.6574C22.6773 14.7399 22.0007 13.6588 21.1692 12.1221C21.3374 14.1478 20.5469 15.3715 19.2984 16.8509Z" fill="url(#paint2_radial_8958_38636)"/>
<path d="M22.7431 16.5728C22.6106 17.1602 21.8852 18.3823 21.3521 19.017C19.6673 21.021 18.7901 21.8758 17.3486 24.8912C17.2673 24.5649 17.182 24.2572 17.1006 23.9635C16.6984 22.5128 16.4512 21.3047 16.9333 20.2631L22.7431 16.5728Z" fill="url(#paint3_radial_8958_38636)"/>
<path d="M16.238 23.3661C15.8257 22.1594 15.5297 21.1504 15.7451 19.8741L14.0231 18.752C13.9278 20.6297 14.7299 22.822 16.9447 25.6444C16.8269 24.9454 16.4736 24.0558 16.238 23.3661Z" fill="url(#paint4_radial_8958_38636)"/>
<path d="M12.8735 18.0044C12.903 18.615 13.2804 20.2293 13.6183 21.0833C12.6542 19.8534 11.6003 17.9664 11.2988 16.9775L12.8735 18.0044Z" fill="url(#paint5_radial_8958_38636)"/>
<path d="M33.1569 27.1817C33.1569 24.388 27.9616 22.0383 20.9405 21.3804C20.2709 22.1321 19.6013 23.0651 18.9612 24.4407L17.9972 26.2719C17.8135 26.6098 17.4748 26.8314 17.099 26.8609C16.7169 26.8903 16.3488 26.7229 16.121 26.4168L15.5026 25.5861C14.2146 23.9416 13.2722 22.6389 12.5291 21.4199C5.71484 22.129 0.710938 24.4415 0.710938 27.1817C0.710938 30.4854 7.9816 33.1675 16.9378 33.1675C17.3702 33.1675 17.7995 33.1613 18.2242 33.1489L19.5386 29.4283L19.5494 29.402C19.8392 28.6774 20.5367 28.2031 21.3124 28.1923H21.3179L32.9213 28.2233C33.0407 27.9311 33.1569 27.4863 33.1569 27.1817Z" fill="url(#paint6_radial_8958_38636)"/>
<path d="M21.7906 33.2478H30.8816L30.4841 34.2561H21.4411L19.4277 39.9993V33.9004L20.8358 29.9163C20.9157 29.7148 21.1109 29.5807 21.3303 29.5776L32.3502 29.5807L31.9425 30.5742H22.743L22.4609 31.4127H31.6279L31.1924 32.4093H22.1091L21.7906 33.2478Z" fill="url(#paint7_radial_8958_38636)"/>
<path d="M1.26953 29.8223C2.3165 32.7826 4.87851 36.2598 5.42331 36.7682C7.30491 38.5405 13.3674 39.9998 18.1419 39.9998V35.0098C9.86537 35.0098 3.40377 32.3293 1.26953 29.8223Z" fill="url(#paint8_radial_8958_38636)"/>
<path d="M200.787 33.5089L206.638 26.4632H201.03V24.5601H209.554V26.2203L203.743 33.266H209.655V35.1691H200.787V33.5089Z" fill="#CDD8D3"/>
<path d="M190.588 37.2342C190.831 37.2882 191.054 37.3355 191.256 37.376C191.472 37.4165 191.655 37.4367 191.803 37.4367C192.059 37.4367 192.269 37.3692 192.431 37.2342C192.606 37.1128 192.775 36.8833 192.937 36.5459C193.099 36.2219 193.267 35.763 193.443 35.1691L189.252 24.5601H192.066L194.921 32.3954L197.431 24.5601H200.023L195.569 37.2747C195.407 37.7471 195.157 38.1723 194.82 38.5503C194.496 38.9417 194.084 39.2454 193.585 39.4613C193.099 39.6908 192.552 39.8055 191.945 39.8055C191.729 39.8055 191.513 39.7853 191.297 39.7448C191.081 39.7178 190.845 39.6638 190.588 39.5828V37.2342Z" fill="#CDD8D3"/>
<path d="M181.348 24.5601L183.575 27.8805L183.737 28.2449L183.94 27.8805L186.147 24.5601H189.001L185.317 29.8443L189.062 35.1691H186.207L183.92 31.869L183.737 31.5248L183.575 31.869L181.308 35.1691H178.453L182.199 29.9051L178.514 24.5601H181.348Z" fill="#CDD8D3"/>
<path d="M175 35.1689V32.2534H177.227V35.1689H175Z" fill="#CDD8D3"/>
<path d="M76.0888 35.1928C75.3899 35.1928 74.7453 35.0586 74.1534 34.7895C73.5759 34.5075 73.0718 34.1177 72.6421 33.6208C72.2251 33.1232 71.9032 32.5521 71.6747 31.9074C71.4463 31.262 71.332 30.5767 71.332 29.8513C71.332 29.0853 71.4527 28.3728 71.6947 27.7146C71.9367 27.0563 72.2723 26.4788 72.7027 25.9812C73.1461 25.4707 73.663 25.0809 74.2548 24.8125C74.8595 24.5298 75.5241 24.3892 76.2502 24.3892C77.0698 24.3892 77.7887 24.5769 78.4069 24.9532C79.0252 25.3158 79.5356 25.8063 79.9383 26.4245V24.5705H82.297V34.6281C82.297 35.6769 82.0415 36.57 81.531 37.3096C81.0341 38.0613 80.3416 38.6332 79.455 39.0223C78.5683 39.4256 77.5602 39.627 76.4315 39.627C75.2893 39.627 74.3219 39.4321 73.5287 39.043C72.7363 38.6667 72.0574 38.1292 71.4934 37.4302L72.9648 35.9988C73.3674 36.4964 73.8714 36.8862 74.4761 37.1682C75.0944 37.4502 75.7462 37.5916 76.4315 37.5916C77.0091 37.5916 77.5331 37.4838 78.0036 37.2689C78.4876 37.0676 78.8703 36.7449 79.1523 36.3015C79.4485 35.8711 79.5963 35.3135 79.5963 34.6281V33.2981C79.2465 33.9028 78.7496 34.3733 78.1042 34.7088C77.4731 35.0315 76.8013 35.1928 76.0888 35.1928ZM76.9955 33.0361C77.2918 33.0361 77.5738 32.989 77.8422 32.8947C78.1114 32.8012 78.3598 32.6734 78.5883 32.5121C78.8167 32.3507 79.018 32.1623 79.1929 31.9474C79.3679 31.7189 79.5021 31.4905 79.5963 31.262V28.7426C79.435 28.3264 79.2065 27.963 78.911 27.6539C78.6282 27.3455 78.3063 27.1099 77.9429 26.9485C77.5938 26.7744 77.224 26.6865 76.8349 26.6865C76.418 26.6865 76.0417 26.7744 75.7055 26.9485C75.3699 27.1235 75.0808 27.3719 74.8388 27.6946C74.5975 28.0037 74.409 28.3528 74.2748 28.7426C74.1534 29.1188 74.0935 29.5151 74.0935 29.932C74.0935 30.3618 74.167 30.7651 74.3148 31.1414C74.4625 31.5176 74.6646 31.8467 74.9195 32.1287C75.1886 32.4114 75.4977 32.6327 75.8468 32.7941C76.2095 32.9554 76.5929 33.0361 76.9955 33.0361Z" fill="#CDD8D3"/>
<path fill-rule="evenodd" clip-rule="evenodd" d="M74.4761 37.1682C74.1103 36.9976 73.7813 36.7876 73.4893 36.538C73.2987 36.3751 73.1238 36.1954 72.9648 35.9988L71.4934 37.4302C72.0574 38.1292 72.7363 38.6667 73.5287 39.043C74.3219 39.4321 75.2893 39.627 76.4315 39.627C77.5602 39.627 78.5683 39.4256 79.455 39.0223C80.3416 38.6332 81.0341 38.0613 81.531 37.3096C82.0415 36.57 82.297 35.6769 82.297 34.6281V24.5705H79.9383V26.4245C79.6574 25.9933 79.3241 25.6242 78.9383 25.3173C78.771 25.1842 78.5939 25.0628 78.4069 24.9532C77.7887 24.5769 77.0698 24.3892 76.2502 24.3892C75.5241 24.3892 74.8595 24.5298 74.2548 24.8125C73.663 25.0809 73.1461 25.4707 72.7027 25.9812C72.2723 26.4788 71.9367 27.0563 71.6947 27.7146C71.4527 28.3728 71.332 29.0853 71.332 29.8513C71.332 30.5767 71.4463 31.262 71.6747 31.9074C71.9032 32.5521 72.2251 33.1232 72.6421 33.6208C73.0718 34.1177 73.5759 34.5075 74.1534 34.7895C74.7453 35.0586 75.3899 35.1928 76.0888 35.1928C76.8013 35.1928 77.4731 35.0315 78.1042 34.7088C78.2792 34.6179 78.4432 34.517 78.5963 34.4062C79.0082 34.1084 79.3413 33.7389 79.5963 33.2981V34.6281C79.5963 34.7162 79.5939 34.8021 79.589 34.886C79.5559 35.4547 79.4105 35.9264 79.1523 36.3015C78.8703 36.7449 78.4876 37.0676 78.0036 37.2689C77.5331 37.4838 77.0091 37.5916 76.4315 37.5916C75.7462 37.5916 75.0944 37.4502 74.4761 37.1682ZM78.4036 38.1855C77.7929 38.4616 77.1302 38.5916 76.4315 38.5916C75.6039 38.5916 74.8105 38.4199 74.0611 38.0781L74.0534 38.0746C73.6566 37.8895 73.2914 37.664 72.9604 37.3983L72.9022 37.4548C73.2225 37.7299 73.574 37.9575 73.9576 38.1396L73.9692 38.1451C74.5914 38.4503 75.3991 38.627 76.4315 38.627C77.4402 38.627 78.3035 38.4475 79.0409 38.112L79.0531 38.1065C79.7768 37.7889 80.3137 37.3378 80.6968 36.7582L80.7023 36.7498L80.708 36.7416C81.0851 36.1951 81.297 35.5083 81.297 34.6281V25.5705H80.9383V29.7924L80.5963 29.2673V34.6281C80.5963 35.4467 80.4209 36.2139 79.9864 36.8533C79.5989 37.4561 79.0651 37.9068 78.4036 38.1855ZM79.357 31.7147C79.4125 31.6287 79.4623 31.5426 79.5064 31.4566C79.5396 31.3917 79.5696 31.3269 79.5963 31.262V28.7426C79.435 28.3264 79.2065 27.963 78.911 27.6539C78.6282 27.3455 78.3063 27.1099 77.9429 26.9485C77.5938 26.7744 77.224 26.6865 76.8349 26.6865C76.418 26.6865 76.0417 26.7744 75.7055 26.9485C75.3699 27.1235 75.0808 27.3719 74.8388 27.6946C74.5975 28.0037 74.409 28.3528 74.2748 28.7426C74.1534 29.1188 74.0935 29.5151 74.0935 29.932C74.0935 30.3618 74.167 30.7651 74.3148 31.1414C74.4625 31.5176 74.6646 31.8467 74.9195 32.1287C75.1886 32.4114 75.4977 32.6327 75.8468 32.7941C76.2095 32.9554 76.5929 33.0361 76.9955 33.0361C77.2918 33.0361 77.5738 32.989 77.8422 32.8947C78.1114 32.8012 78.3598 32.6734 78.5883 32.5121C78.8167 32.3507 79.018 32.1623 79.1929 31.9474C79.2523 31.8698 79.307 31.7923 79.357 31.7147ZM77.1286 34.0337C77.0844 34.0353 77.04 34.0361 76.9955 34.0361C76.4552 34.0361 75.9331 33.927 75.4404 33.7077L75.4338 33.7048L75.4273 33.7018C74.963 33.4872 74.5506 33.1916 74.1952 32.8182L74.1863 32.8088L74.1776 32.7992C73.8376 32.423 73.5734 31.9892 73.384 31.507C73.1874 31.0064 73.0935 30.4782 73.0935 29.932C73.0935 29.4177 73.1677 28.9174 73.3231 28.4356L73.3261 28.4263L73.3293 28.4171C73.497 27.9298 73.7355 27.4846 74.0446 27.0868C74.3698 26.6554 74.77 26.3085 75.2432 26.0618L75.2455 26.0606C75.7366 25.8062 76.2729 25.6865 76.8349 25.6865C77.2527 25.6865 77.657 25.7596 78.042 25.9028C77.9958 25.8728 77.9488 25.8438 77.901 25.8157L77.894 25.8116L77.8871 25.8074C77.4457 25.5388 76.9116 25.3892 76.2502 25.3892C75.6569 25.3892 75.1386 25.5032 74.6783 25.7184L74.6679 25.7233C74.2133 25.9295 73.8117 26.2296 73.4584 26.6362C73.1125 27.0362 72.8365 27.507 72.6333 28.0597C72.4356 28.5973 72.332 29.1918 72.332 29.8513C72.332 30.4697 72.429 31.0415 72.6173 31.5734M77.1286 34.0337C76.7964 34.14 76.451 34.1928 76.0888 34.1928C75.5268 34.1928 75.0287 34.0867 74.5798 33.8848C74.1337 33.665 73.7428 33.3632 73.4035 32.9725C73.0701 32.5731 72.8073 32.1095 72.6173 31.5734" fill="#CDD8D3"/>
<path d="M90.2147 26.9091C89.3951 26.9091 88.6626 27.0705 88.0172 27.3924C87.3726 27.7016 86.9092 28.152 86.6265 28.7432V35.1327H83.9258V24.571H86.4052V26.8284C86.7814 26.1024 87.2583 25.532 87.8359 25.115C88.4142 24.6988 89.0253 24.4704 89.6707 24.4297H90.0126C90.0933 24.4297 90.1611 24.4361 90.2147 24.4497V26.9091Z" fill="#CDD8D3"/>
<path fill-rule="evenodd" clip-rule="evenodd" d="M86.6265 28.7432C86.9092 28.152 87.3726 27.7016 88.0172 27.3924C88.6626 27.0705 89.3951 26.9091 90.2147 26.9091V24.4497C90.1611 24.4361 90.0933 24.4297 90.0126 24.4297H89.6707C89.6003 24.4341 89.5304 24.4408 89.4609 24.4497C89.3783 24.4603 89.2962 24.474 89.2147 24.4909C88.7356 24.59 88.2762 24.7981 87.8359 25.115C87.6855 25.2236 87.5419 25.3426 87.4052 25.472C87.0168 25.8396 86.6835 26.2914 86.4052 26.8284V24.571H83.9258V35.1327H86.6265V28.7432ZM85.6265 34.1327V28.5163L85.7244 28.3117C85.9458 27.8487 86.2477 27.4529 86.6193 27.1243L85.4052 26.8284V25.571H84.9258V34.1327H85.6265ZM87.9728 26.3175C88.1147 26.1691 88.2642 26.0393 88.4206 25.9263C88.6874 25.7343 88.9511 25.6024 89.2147 25.522V25.9829C88.7833 26.0489 88.3685 26.1596 87.9728 26.3175Z" fill="#CDD8D3"/>
<path d="M95.6549 35.3342C94.7946 35.3342 94.0222 35.1928 93.3368 34.9108C92.6514 34.6153 92.0667 34.2119 91.5827 33.7015C91.113 33.1903 90.7496 32.6063 90.4947 31.9474C90.2391 31.2891 90.1113 30.5974 90.1113 29.8713C90.1113 29.1324 90.2391 28.4335 90.4947 27.7753C90.7496 27.117 91.113 26.5323 91.5827 26.0212C92.0667 25.5107 92.6514 25.1145 93.3368 24.8325C94.0222 24.5369 94.7946 24.3892 95.6549 24.3892C96.5144 24.3892 97.2805 24.5369 97.9523 24.8325C98.6376 25.1145 99.2223 25.5107 99.7063 26.0212C100.19 26.5323 100.553 27.117 100.794 27.7753C101.05 28.4335 101.178 29.1324 101.178 29.8713C101.178 30.5974 101.05 31.2891 100.794 31.9474C100.553 32.6063 100.19 33.1903 99.7063 33.7015C99.2359 34.2119 98.6583 34.6153 97.973 34.9108C97.2876 35.1928 96.5144 35.3342 95.6549 35.3342ZM92.8935 29.8713C92.8935 30.4896 93.0141 31.0407 93.2561 31.524C93.4981 31.9945 93.8273 32.3643 94.2435 32.6327C94.6604 32.9019 95.1309 33.0361 95.6549 33.0361C96.1653 33.0361 96.6287 32.9019 97.0456 32.6327C97.4618 32.3507 97.7916 31.9745 98.0329 31.504C98.2885 31.0207 98.4163 30.4696 98.4163 29.8513C98.4163 29.2466 98.2885 28.7026 98.0329 28.2186C97.7916 27.7346 97.4618 27.3583 97.0456 27.0899C96.6287 26.8208 96.1653 26.6865 95.6549 26.6865C95.1309 26.6865 94.6604 26.8279 94.2435 27.1099C93.8273 27.379 93.4981 27.7553 93.2561 28.2386C93.0141 28.7091 92.8935 29.2531 92.8935 29.8713Z" fill="#CDD8D3"/>
<path fill-rule="evenodd" clip-rule="evenodd" d="M90.4947 31.9474C90.7496 32.6063 91.113 33.1903 91.5827 33.7015C92.0667 34.2119 92.6514 34.6153 93.3368 34.9108C94.0222 35.1928 94.7946 35.3342 95.6549 35.3342C96.5144 35.3342 97.2876 35.1928 97.973 34.9108C98.6583 34.6153 99.2359 34.2119 99.7063 33.7015C100.19 33.1903 100.553 32.6063 100.794 31.9474C101.05 31.2891 101.178 30.5974 101.178 29.8713C101.178 29.1324 101.05 28.4335 100.794 27.7753C100.553 27.117 100.19 26.5323 99.7063 26.0212C99.2223 25.5107 98.6376 25.1145 97.9523 24.8325C97.2805 24.5369 96.5144 24.3892 95.6549 24.3892C94.7946 24.3892 94.0222 24.5369 93.3368 24.8325C92.6514 25.1145 92.0667 25.5107 91.5827 26.0212C91.113 26.5323 90.7496 27.117 90.4947 27.7753C90.2391 28.4335 90.1113 29.1324 90.1113 29.8713C90.1113 30.5974 90.2391 31.2891 90.4947 31.9474ZM92.3137 26.7036C92.6945 26.3036 93.1579 25.9875 93.7173 25.7573L93.7251 25.7541L93.7328 25.7508C94.2755 25.5167 94.9102 25.3892 95.6549 25.3892C96.3993 25.3892 97.0246 25.5169 97.5496 25.7478L97.5606 25.7527L97.5717 25.7573C98.1336 25.9885 98.5986 26.3064 98.9804 26.7089C99.371 27.1222 99.6615 27.5903 99.8555 28.1195L99.8587 28.1284L99.8622 28.1372C100.071 28.6747 100.178 29.2503 100.178 29.8713C100.178 30.4771 100.072 31.0458 99.8622 31.5854L99.8587 31.5944L99.8553 31.6035C99.6614 32.1331 99.3709 32.6007 98.9797 33.0144L98.9797 33.0144L98.971 33.0237C98.6039 33.422 98.1472 33.7455 97.5848 33.9892C97.0393 34.2123 96.4008 34.3342 95.6549 34.3342C94.9083 34.3342 94.2705 34.2123 93.725 33.9892C93.1626 33.7456 92.6964 33.421 92.3137 33.019C91.9317 32.6019 91.6364 32.1272 91.4274 31.5866L91.4269 31.5854C91.2174 31.0458 91.1113 30.4771 91.1113 29.8713C91.1113 29.2503 91.2182 28.6747 91.4269 28.1372L91.4272 28.1363C91.6365 27.596 91.9319 27.1205 92.3137 26.7036ZM92.3619 31.9718L92.362 31.9718C92.0407 31.3303 91.8935 30.622 91.8935 29.8713C91.8935 29.123 92.0398 28.4191 92.3644 27.786C92.6772 27.1633 93.1179 26.6491 93.6918 26.2758C94.2787 25.8813 94.9428 25.6865 95.6549 25.6865C96.3514 25.6865 97.004 25.8729 97.5876 26.2495C98.1643 26.6215 98.6086 27.1362 98.9227 27.762C99.2582 28.4017 99.4163 29.1052 99.4163 29.8513C99.4163 30.6087 99.2591 31.322 98.9199 31.9659C98.6057 32.5764 98.1665 33.0812 97.6065 33.4606L97.5973 33.4669L97.5879 33.4729C97.0043 33.8497 96.3515 34.0361 95.6549 34.0361C94.9504 34.0361 94.2896 33.8527 93.7015 33.4731M98.0329 31.504C98.2885 31.0207 98.4163 30.4696 98.4163 29.8513C98.4163 29.2466 98.2885 28.7026 98.0329 28.2186C97.7916 27.7346 97.4618 27.3583 97.0456 27.0899C96.6287 26.8208 96.1653 26.6865 95.6549 26.6865C95.1309 26.6865 94.6604 26.8279 94.2435 27.1099C93.8273 27.379 93.4981 27.7553 93.2561 28.2386C93.0141 28.7091 92.8935 29.2531 92.8935 29.8713C92.8935 30.4896 93.0141 31.0407 93.2561 31.524C93.4981 31.9945 93.8273 32.3643 94.2435 32.6327C94.6604 32.9019 95.1309 33.0361 95.6549 33.0361C96.1653 33.0361 96.6287 32.9019 97.0456 32.6327C97.4618 32.3507 97.7916 31.9745 98.0329 31.504ZM92.3619 31.9718L92.3669 31.9815ZM92.3669 31.9815C92.6832 32.5964 93.1274 33.1028 93.7011 33.4729Z" fill="#CDD8D3"/>
<path d="M114.942 24.5713H117.501L113.087 35.1329H110.829L109.055 30.5982L107.322 35.1329H105.045L100.65 24.5713H103.19L106.335 32.5529L107.564 29.1061L105.73 24.5913H107.967L109.055 27.816L110.164 24.5913H112.401L110.567 29.1061L111.817 32.5529L114.942 24.5713Z" fill="#CDD8D3"/>
<path fill-rule="evenodd" clip-rule="evenodd" d="M110.829 35.1329H113.087L117.501 24.5713H114.942L111.817 32.5529L110.567 29.1061L112.401 24.5913H110.164L109.055 27.816L107.967 24.5913H105.73L107.564 29.1061L106.335 32.5529L103.19 24.5713H100.65L105.045 35.1329H107.322L109.055 30.5982L110.829 35.1329ZM110.667 26.2028L110.916 25.5913H110.878L110.667 26.2028ZM107.415 26.0826L107.249 25.5913H107.215L107.415 26.0826ZM105.882 34.1329L102.509 25.5713H102.15L105.712 34.1329H105.882ZM112.272 34.1329H112.421L115.999 25.5713H115.624L112.272 34.1329Z" fill="#CDD8D3"/>
<path d="M125.545 34.0928C125.325 34.1835 125.061 34.287 124.75 34.4034C124.44 34.5198 124.104 34.6097 123.743 34.6747C123.394 34.7518 123.038 34.791 122.677 34.791C122.198 34.791 121.759 34.7068 121.358 34.539C120.958 34.3713 120.635 34.1064 120.389 33.7445C120.157 33.3696 120.04 32.8849 120.04 32.2909V26.4568H118.703V24.4607H120.04V21.166H122.638V24.4607H125.255V26.4568H122.638V31.4185C122.65 31.7676 122.747 32.0196 122.928 32.1746C123.109 32.3295 123.336 32.4073 123.607 32.4073C123.878 32.4073 124.143 32.3616 124.402 32.2716C124.66 32.181 124.866 32.1032 125.021 32.0389L125.545 34.0928ZM134.98 34.6161H132.382V28.9184C132.382 28.1302 132.228 27.542 131.917 27.1543C131.62 26.7674 131.207 26.5732 130.677 26.5732C130.367 26.5732 130.037 26.6638 129.688 26.8445C129.34 27.0251 129.023 27.2771 128.739 27.6005C128.467 27.9103 128.267 28.2723 128.138 28.6856V34.6161H125.541V20.4678H128.138V25.9935C128.575 25.5444 129.023 25.1903 129.669 24.8291C130.315 24.4671 131.02 24.2865 131.781 24.2865C132.44 24.2865 132.976 24.4022 133.391 24.6349C133.804 24.8548 134.127 25.1582 134.359 25.5459C134.592 25.9207 134.753 26.3469 134.844 26.8252C134.934 27.2899 134.98 27.7747 134.98 28.2787V34.6161ZM140.59 34.8103C139.776 34.8103 139.04 34.6747 138.381 34.4034C137.723 34.1193 137.16 33.738 136.695 33.2597C136.23 32.7685 135.868 32.2131 135.609 31.5927C135.364 30.9602 135.242 30.2941 135.242 29.5966C135.242 28.6278 135.454 27.7426 135.881 26.9416C136.32 26.1405 136.941 25.5009 137.742 25.0226C138.556 24.5314 139.512 24.2865 140.61 24.2865C141.721 24.2865 142.671 24.5314 143.459 25.0226C144.247 25.5009 144.848 26.1405 145.261 26.9416C145.688 27.7297 145.901 28.5821 145.901 29.4995C145.901 29.6551 145.895 29.8165 145.882 29.9843C145.869 30.1392 145.856 30.2684 145.843 30.3719H137.994C138.045 30.8888 138.194 31.3407 138.439 31.7284C138.698 32.116 139.02 32.4137 139.408 32.62C139.809 32.8142 140.236 32.9106 140.687 32.9106C141.204 32.9106 141.689 32.7878 142.141 32.5429C142.606 32.2845 142.923 31.9482 143.091 31.5349L145.32 32.1553C145.074 32.6721 144.719 33.1305 144.253 33.531C143.802 33.9315 143.265 34.2485 142.645 34.4805C142.025 34.7004 141.34 34.8103 140.59 34.8103ZM137.935 28.5H143.246C143.194 27.9832 143.045 27.7618 142.8 27.387C142.568 26.9994 142.257 26.7024 141.87 26.4954C141.482 26.2762 141.049 26.1662 140.571 26.1662C140.106 26.1662 139.68 26.2762 139.292 26.4954C138.918 26.7024 138.607 26.9994 138.361 27.387C138.129 27.7618 137.987 27.9832 137.935 28.5Z" stroke="#CDD8D3"/>
<path d="M151.821 34.3602C151.279 34.0296 150.859 33.5904 150.552 33.0364L149.615 31.3433V33.2786V38.9268H147.914V25.071H149.272V26.385V28.0665L150.191 26.6582C150.552 26.1044 151.004 25.6777 151.55 25.3688L151.55 25.3689L151.557 25.3649C152.091 25.0519 152.707 24.8896 153.421 24.8896C154.065 24.8896 154.642 25.017 155.16 25.2643L155.16 25.2643L155.164 25.2661C155.704 25.518 156.172 25.8718 156.571 26.3306L156.571 26.3306L156.575 26.3353C156.974 26.7826 157.286 27.3057 157.507 27.9083L157.507 27.9084L157.511 27.9196C157.741 28.501 157.859 29.137 157.859 29.8318C157.859 30.786 157.672 31.6377 157.304 32.3961L157.304 32.396L157.302 32.4021C156.946 33.1624 156.456 33.7574 155.833 34.2013C155.238 34.6204 154.548 34.8347 153.743 34.8347C153.002 34.8347 152.366 34.6721 151.821 34.3602ZM150.122 27.4268L150.116 27.4333L150.11 27.4401C149.897 27.7024 149.738 27.9935 149.638 28.3102L149.615 28.3839V28.4611V30.9405V31.0399L149.653 31.1318C149.833 31.5678 150.074 31.9677 150.376 32.3295L150.376 32.3296L150.384 32.3387C150.705 32.7052 151.077 33.0006 151.498 33.2186L151.504 33.2219L151.51 33.2249C151.936 33.4304 152.38 33.5366 152.836 33.5366C153.324 33.5366 153.781 33.4339 154.195 33.2184C154.593 33.0124 154.934 32.7334 155.218 32.3869C155.512 32.0308 155.73 31.6341 155.871 31.1994C156.022 30.7581 156.098 30.302 156.098 29.8318C156.098 29.3345 156.015 28.8646 155.844 28.427C155.688 27.9918 155.452 27.6059 155.137 27.2746C154.824 26.9303 154.454 26.6624 154.03 26.4741C153.61 26.2811 153.156 26.1877 152.675 26.1877C152.359 26.1877 152.044 26.2456 151.731 26.3538C151.429 26.45 151.141 26.5922 150.865 26.7757C150.588 26.9609 150.339 27.1777 150.122 27.4268Z" fill="#CDD8D3" stroke="#CDD8D3"/>
<path d="M159.885 34.6339V25.0716H161.586V34.6339H159.885ZM159.885 22.6002V20.9194H161.586V22.6002H159.885Z" fill="#CDD8D3" stroke="#CDD8D3"/>
<path d="M170.469 33.4136C170.889 33.1803 171.228 32.8833 171.467 32.5179L172.776 32.8819C172.59 33.1479 172.365 33.3958 172.097 33.6258L172.097 33.6258L172.092 33.6302C171.673 34.0013 171.171 34.2998 170.58 34.5222C169.996 34.7283 169.342 34.8347 168.614 34.8347C167.825 34.8347 167.127 34.7034 166.51 34.4505C165.883 34.1795 165.356 33.8207 164.924 33.3757C164.484 32.9111 164.142 32.3876 163.898 31.802C163.667 31.2048 163.551 30.5763 163.551 29.9125C163.551 28.9826 163.755 28.144 164.156 27.3887C164.569 26.6365 165.15 26.0367 165.907 25.5851L165.907 25.5851L165.909 25.5839C166.666 25.1273 167.569 24.8896 168.634 24.8896C169.715 24.8896 170.607 25.128 171.333 25.5801L171.333 25.5801L171.338 25.5832C172.081 26.0335 172.641 26.6311 173.027 27.3803L173.027 27.3803L173.032 27.389C173.435 28.1338 173.637 28.9391 173.637 29.8118C173.637 29.9407 173.632 30.0762 173.623 30.2192H165.913H165.36L165.415 30.7695C165.476 31.3729 165.652 31.92 165.955 32.3975L165.954 32.3976L165.961 32.4069C166.272 32.875 166.669 33.2424 167.149 33.4984L167.158 33.5032L167.167 33.5075C167.653 33.7421 168.17 33.8593 168.715 33.8593C169.335 33.8593 169.922 33.7108 170.465 33.4161L170.465 33.4161L170.469 33.4136ZM165.355 28.9563L165.301 29.5058H165.853H171.376H171.929L171.873 28.9556C171.813 28.3553 171.639 27.8144 171.335 27.3494C171.05 26.8764 170.665 26.5066 170.185 26.2495C169.703 25.9776 169.169 25.8451 168.594 25.8451C168.029 25.8451 167.501 25.9793 167.02 26.2513C166.552 26.5096 166.17 26.8793 165.874 27.348L165.874 27.348L165.872 27.351C165.583 27.8159 165.415 28.3563 165.355 28.9563Z" fill="#CDD8D3" stroke="#CDD8D3"/>
<path d="M103.214 15.1942C102.796 15.3061 102.383 15.3474 101.973 15.3181C101.578 15.285 101.215 15.197 100.884 15.0543C100.548 14.8971 100.261 14.6885 100.021 14.4284C99.7959 14.1645 99.637 13.8596 99.5443 13.5138C99.3822 12.9087 99.4886 12.3552 99.8637 11.8532C100.253 11.3474 100.844 10.9883 101.637 10.776C102.011 10.6756 102.391 10.6511 102.775 10.7026C103.17 10.7357 103.528 10.8328 103.849 10.9938C104.184 11.151 104.472 11.3596 104.712 11.6197C104.951 11.8798 105.115 12.1755 105.204 12.5069C105.374 13.1408 105.277 13.6996 104.912 14.1833C104.558 14.6488 103.992 14.9857 103.214 15.1942Z" fill="url(#paint9_linear_8958_38636)"/>
<path d="M89.8627 4.67984C90.4597 4.51987 91.096 4.43532 91.7716 4.4262C92.4449 4.40816 93.0778 4.45345 93.6703 4.56208C94.2605 4.6618 94.7655 4.81777 95.1853 5.03C95.6051 5.24223 95.8531 5.49091 95.9295 5.77605C95.9677 5.91862 95.9483 6.09572 95.8714 6.30735C95.792 6.51008 95.6847 6.71551 95.5494 6.92365C95.4118 7.12288 95.2504 7.30461 95.0652 7.46884C94.8865 7.62177 94.717 7.71972 94.5566 7.76269C94.3427 7.82 94.0783 7.79535 93.7632 7.68877C93.4571 7.5798 93.1149 7.46137 92.7369 7.33347C92.3653 7.19427 91.9685 7.0857 91.5465 7.00777C91.1245 6.92984 90.6952 6.94937 90.2586 7.06636C89.9735 7.14276 89.7565 7.27731 89.6076 7.47002C89.4652 7.65143 89.4274 7.86688 89.4942 8.11637C89.5539 8.33914 89.7217 8.5377 89.9977 8.71207C90.2712 8.87754 90.614 9.034 91.0259 9.18147C91.4468 9.32655 91.9158 9.47306 92.433 9.62099C92.9501 9.76893 93.481 9.9323 94.0255 10.1111C94.5789 10.2875 95.1262 10.4943 95.6672 10.7313C96.2082 10.9683 96.7086 11.2497 97.1683 11.5754C97.6369 11.8987 98.045 12.2812 98.3926 12.7228C98.7378 13.1556 98.9879 13.6616 99.1431 14.2408C99.2768 14.7398 99.3095 15.2181 99.2411 15.6757C99.1727 16.1333 99.0131 16.5533 98.7622 16.9357C98.5113 17.3181 98.1801 17.6504 97.7687 17.9325C97.3572 18.2147 96.8797 18.4286 96.3362 18.5742C95.6501 18.7581 94.9888 18.8207 94.3523 18.762C93.7182 18.7123 93.1428 18.5608 92.6261 18.3077C92.1094 18.0546 91.6627 17.7063 91.2861 17.2629C90.9183 16.8171 90.6532 16.2912 90.4909 15.6853C90.2808 14.9012 90.2661 14.2939 90.4468 13.8635C90.6365 13.4306 91.0342 13.133 91.6401 12.9707C92.0144 12.8704 92.332 12.8617 92.5929 12.9446C92.8539 13.0275 93.0118 13.1714 93.0668 13.3763C93.0954 13.4832 93.1074 13.5994 93.1028 13.7248C93.0958 13.8413 93.0868 13.9678 93.0757 14.1045C93.071 14.2299 93.0688 14.3642 93.069 14.5074C93.0781 14.6482 93.1005 14.7855 93.1363 14.9191C93.1984 15.1508 93.3116 15.3592 93.4758 15.5444C93.64 15.7297 93.8327 15.8786 94.0539 15.9912C94.2864 16.1104 94.5361 16.1867 94.8029 16.2203C95.0698 16.2538 95.3368 16.2348 95.6042 16.1632C96.317 15.9722 96.5946 15.5826 96.4371 14.9945C96.3129 14.5312 96.0132 14.1435 95.5381 13.8315C95.0605 13.5106 94.493 13.2281 93.8355 12.9841C93.1756 12.7312 92.4712 12.4902 91.7222 12.2611C90.9821 12.0296 90.2773 11.7696 89.6079 11.481C88.9385 11.1924 88.3554 10.8521 87.8588 10.4599C87.3597 10.0588 87.0326 9.56863 86.8774 8.98945C86.7485 8.50828 86.7283 8.04095 86.8169 7.58745C86.9144 7.13157 87.0987 6.7145 87.3698 6.33625C87.6386 5.94909 87.9831 5.61323 88.4035 5.32869C88.8327 5.04176 89.3192 4.82548 89.8627 4.67984Z" fill="url(#paint10_linear_8958_38636)"/>
<path d="M81.3438 5.52237C81.2197 5.05902 81.265 4.69352 81.4798 4.42586C81.6945 4.15821 82.1094 3.94201 82.7242 3.77727C82.938 3.71996 83.1311 3.6921 83.3034 3.69368C83.4758 3.69525 83.6297 3.73518 83.7653 3.81346C83.8985 3.88282 84.0201 3.99825 84.1303 4.15975C84.2469 4.30995 84.3633 4.51273 84.4795 4.76811C84.8078 5.53011 85.1469 6.3322 85.4967 7.17439C85.8531 8.00528 86.2005 8.83856 86.539 9.67423C86.8841 10.4986 87.2154 11.3075 87.5331 12.101C87.8484 12.8856 88.136 13.6203 88.3959 14.3052C88.6623 14.9787 88.8861 15.5825 89.0674 16.1164C89.2552 16.6391 89.3909 17.0564 89.4745 17.3683C89.5604 17.6891 89.6021 17.9692 89.5994 18.2087C89.6056 18.4457 89.5553 18.6502 89.4486 18.8221C89.3507 18.9916 89.1988 19.1373 88.9928 19.2594C88.7932 19.3701 88.5331 19.4685 88.2123 19.5545C87.9004 19.638 87.6294 19.6247 87.3994 19.5144C87.1782 19.4018 87.0234 19.1806 86.9351 18.8509C86.8443 18.5123 86.697 18.0695 86.4932 17.5225C86.2869 16.9665 86.0461 16.353 85.7708 15.6819C85.4954 15.0107 85.1948 14.2986 84.8688 13.5455C84.5518 12.79 84.2283 12.0459 83.8982 11.313C83.577 10.5777 83.2642 9.87365 82.9597 9.20076C82.6618 8.51657 82.3955 7.91464 82.1607 7.39498C81.9236 6.8664 81.7317 6.43552 81.5852 6.10234C81.4362 5.76024 81.3557 5.56692 81.3438 5.52237Z" fill="url(#paint11_linear_8958_38636)"/>
<path d="M83.1247 16.9834C83.3234 16.6914 83.5475 16.512 83.797 16.4451C83.9396 16.4069 84.0783 16.408 84.2133 16.4482C84.3482 16.4885 84.5072 16.5652 84.6904 16.6785C84.879 16.8476 85.0179 16.9919 85.1072 17.1112C85.203 17.2192 85.2676 17.3356 85.301 17.4604C85.3726 17.7277 85.307 18.0174 85.1042 18.3296C84.772 18.8007 84.3946 19.2456 83.972 19.6644C83.547 20.0744 83.089 20.4502 82.598 20.7918C82.107 21.1335 81.585 21.4309 81.0321 21.6842C80.4816 21.9463 79.9212 22.1537 79.3509 22.3065C78.6292 22.4999 77.9269 22.5878 77.2441 22.5702C76.5637 22.5615 75.9287 22.4547 75.3389 22.2498C74.7581 22.0426 74.2352 21.7481 73.77 21.3666C73.3025 20.9762 72.9175 20.5016 72.6149 19.9428C72.4679 19.7148 72.3492 19.5747 72.2588 19.5225C72.1749 19.459 72.0573 19.4475 71.9058 19.4881C71.5761 19.5765 71.3007 19.5643 71.0795 19.4517C70.8583 19.3391 70.7071 19.1313 70.6259 18.8283C70.5925 18.7036 70.5799 18.621 70.5882 18.5806L70.5433 18.3061C70.5019 17.9734 70.5245 17.719 70.611 17.543C70.7065 17.3646 70.8923 17.2384 71.1685 17.1644L71.369 17.1107C71.7433 17.0104 71.9596 16.7662 72.0179 16.3781C72.1294 15.6893 72.331 15.0336 72.6226 14.4111C72.9142 13.7886 73.2796 13.2275 73.7187 12.7279C74.1554 12.2193 74.6505 11.7858 75.2039 11.4274C75.7638 11.0577 76.3601 10.7881 76.9927 10.6186C77.6521 10.4419 78.2932 10.3752 78.916 10.4184C79.5453 10.4504 80.1192 10.5783 80.6376 10.8023C81.156 11.0263 81.5964 11.3333 81.9588 11.7233C82.33 12.1109 82.5861 12.5675 82.727 13.0932C82.8248 13.4586 82.8431 13.8118 82.7817 14.153C82.7203 14.4941 82.587 14.8163 82.3818 15.1196C82.1741 15.414 81.8978 15.6838 81.5529 15.9291C81.2169 16.1719 80.8142 16.3801 80.345 16.5536L75.8324 18.2641C75.6542 18.3118 75.5191 18.3958 75.4272 18.5159C75.3441 18.6337 75.3229 18.7683 75.3635 18.9198C75.4256 19.1515 75.5699 19.3515 75.7965 19.52C76.032 19.6861 76.315 19.8156 76.6455 19.9085C76.9825 19.9901 77.3513 20.0298 77.7518 20.0275C78.1612 20.0229 78.5664 19.9668 78.9674 19.8594C79.3505 19.7567 79.733 19.616 80.1149 19.4373C80.5033 19.2473 80.8744 19.0285 81.2283 18.7808C81.5911 18.5308 81.9333 18.2577 82.255 17.9614C82.5744 17.6562 82.8642 17.3302 83.1247 16.9834ZM79.2201 14.3337C79.3466 14.2712 79.4458 14.1777 79.5175 14.0535C79.5869 13.9203 79.6013 13.7779 79.5607 13.6265C79.5249 13.4928 79.4424 13.3812 79.3134 13.2916C79.1843 13.202 79.0232 13.1354 78.83 13.0917C78.6345 13.039 78.4181 13.0158 78.1811 13.022C77.944 13.0282 77.7007 13.0648 77.4512 13.1316C77.0859 13.2295 76.7259 13.3833 76.3714 13.5929C76.0169 13.8024 75.7076 14.0381 75.4435 14.2999C75.177 14.5528 74.9744 14.8124 74.8357 15.0788C74.6946 15.3362 74.6515 15.5674 74.7064 15.7724C74.7613 15.9773 74.9135 16.0464 75.163 15.9795C75.3145 15.9389 75.5547 15.8554 75.8838 15.7291C76.2128 15.6027 76.5763 15.4623 76.9743 15.3079C77.3698 15.1447 77.7686 14.9757 78.1707 14.8011C78.5728 14.6265 78.9226 14.4707 79.2201 14.3337Z" fill="url(#paint12_linear_8958_38636)"/>
<path d="M59.3063 25.2225C58.5783 23.1828 57.8272 21.1636 57.0529 19.165C56.2875 17.164 55.4208 15.1949 54.4529 13.2577C54.416 13.1912 54.3904 13.1312 54.376 13.0777C54.3593 13.0153 54.3438 12.9574 54.3295 12.904C54.2746 12.699 54.2669 12.5101 54.3065 12.3371C54.355 12.1617 54.4374 12.006 54.5538 11.8697C54.6677 11.7246 54.8066 11.6014 54.9705 11.5002C55.1433 11.3966 55.3321 11.3174 55.5371 11.2625C56.0806 11.1168 56.5229 11.2705 56.8639 11.7235C57.0223 11.958 57.2105 12.3039 57.4285 12.7612C57.6554 13.2161 57.9027 13.7468 58.1702 14.3531C58.4466 14.9571 58.7353 15.6247 59.0363 16.3558C59.3349 17.078 59.635 17.8237 59.9365 18.5929C60.023 18.8085 60.1241 18.9008 60.2399 18.8697C60.3379 18.8435 60.4225 18.7492 60.4936 18.5869C61.3361 16.5275 62.6485 15.259 64.4306 14.7815C65.0988 14.6024 65.762 14.5823 66.4199 14.7212C67.0779 14.86 67.6888 15.1261 68.2526 15.5194C68.8164 15.9127 69.3117 16.4246 69.7385 17.0552C70.1742 17.6834 70.4995 18.3984 70.7144 19.2004C70.915 19.9488 70.9809 20.6761 70.9122 21.3821C70.8525 22.0857 70.6752 22.7253 70.3806 23.3009C70.086 23.8765 69.6849 24.3755 69.1773 24.798C68.6763 25.2092 68.0872 25.5055 67.41 25.687C66.5724 25.9114 65.7096 25.9707 64.8217 25.8648C63.9315 25.75 63.0559 25.5118 62.195 25.1504C62.0957 25.1006 62.0015 25.0876 61.9124 25.1115C61.7966 25.1426 61.7064 25.2336 61.6418 25.3846C61.5422 25.5832 61.4194 25.7307 61.2733 25.8271C61.1248 25.9147 60.9348 25.9895 60.7031 26.0515C59.9992 26.2402 59.5336 25.9638 59.3063 25.2225ZM64.6289 17.3929C64.2725 17.4884 63.9387 17.6685 63.6277 17.9333C63.3231 18.1868 63.0555 18.5068 62.8248 18.8934C62.5941 19.2799 62.4024 19.7228 62.2497 20.2221C62.1035 20.7102 62.0106 21.2365 61.9708 21.801C61.9602 21.8325 61.9576 21.8762 61.963 21.9321C61.9684 21.9879 61.9759 22.0337 61.9854 22.0693C62.026 22.2208 62.1105 22.3223 62.2389 22.3738C62.6337 22.5641 63.0327 22.7342 63.4357 22.884C63.8477 23.0315 64.2469 23.149 64.6332 23.2365C65.0196 23.3239 65.3919 23.377 65.7502 23.3956C66.1062 23.4052 66.4267 23.3719 66.7119 23.2955C67.3534 23.1236 67.7889 22.8063 68.0183 22.3437C68.2566 21.8788 68.2803 21.2899 68.0893 20.577C67.9413 20.0246 67.7428 19.5334 67.4939 19.1035C67.2426 18.6647 66.9647 18.3046 66.6601 18.0233C66.3531 17.7331 66.0231 17.535 65.67 17.4291C65.3234 17.3118 64.9764 17.2998 64.6289 17.3929Z" fill="url(#paint13_linear_8958_38636)"/>
<path d="M49.45 17.3606C49.9401 17.2293 50.4327 17.1785 50.9277 17.2082C51.4227 17.2379 51.8798 17.3399 52.2989 17.5141C52.7181 17.6883 53.0802 17.935 53.3854 18.2543C53.6996 18.5713 53.9175 18.957 54.0393 19.4114C54.0894 19.5985 54.0938 19.7931 54.0525 19.9952C54.0176 20.186 53.9468 20.3673 53.8401 20.5392C53.7309 20.7021 53.5936 20.8488 53.4279 20.9791C53.2688 21.0981 53.0913 21.1839 52.8952 21.2364C52.8774 21.2412 52.8608 21.2505 52.8453 21.2641C52.8364 21.2665 52.8231 21.2701 52.8052 21.2749C52.7898 21.2886 52.7732 21.2978 52.7554 21.3026L53.0953 22.3575C53.4724 23.6222 53.9001 24.5055 54.3785 25.0077C54.8657 25.5074 55.3722 25.6869 55.8979 25.546C56.0851 25.4959 56.2451 25.4339 56.3781 25.36C56.5201 25.2838 56.6474 25.2067 56.7602 25.1287C56.8796 25.0395 56.9924 24.9615 57.0987 24.8948C57.205 24.8281 57.316 24.7793 57.4319 24.7482C57.6368 24.6933 57.8389 24.7347 58.0381 24.8723C58.2463 25.0075 58.3838 25.1999 58.4506 25.4494C58.5175 25.6989 58.4863 25.9746 58.3571 26.2766C58.2368 26.5763 58.0482 26.8703 57.7913 27.1589C57.5319 27.4384 57.223 27.6931 56.8643 27.9229C56.5057 28.1527 56.1259 28.3214 55.7249 28.4288C55.0299 28.615 54.3431 28.4934 53.6646 28.064C52.9837 27.6257 52.3826 26.8795 51.8614 25.8254C51.7602 25.6615 51.665 25.5915 51.5759 25.6154C51.469 25.644 51.3898 25.7226 51.3382 25.851C50.7545 27.2011 50.0389 28.2906 49.1914 29.1194C48.3414 29.9392 47.4308 30.4793 46.4596 30.7395C46.0051 30.8613 45.5773 30.9043 45.1762 30.8685C44.7751 30.8328 44.4131 30.7292 44.0902 30.5579C43.7738 30.3752 43.4978 30.1293 43.2621 29.8199C43.033 29.4993 42.8599 29.1207 42.7429 28.6841C42.5782 28.0693 42.5387 27.3875 42.6246 26.6386C42.7194 25.8874 42.9101 25.1201 43.1968 24.3365C43.4834 23.553 43.8497 22.7816 44.2957 22.0222C44.7505 21.2605 45.2512 20.5628 45.7977 19.9293C46.3532 19.2934 46.9426 18.7487 47.566 18.2952C48.1894 17.8416 48.8174 17.5301 49.45 17.3606ZM50.2481 22.1033C50.3273 21.7574 50.4158 21.4997 50.5137 21.3302C50.6091 21.1518 50.7756 21.0069 51.0132 20.8955C51.2021 20.8163 51.2834 20.7276 51.2571 20.6296C51.238 20.5583 51.191 20.4898 51.116 20.4239C50.8847 20.2376 50.6527 20.0849 50.4202 19.9657C50.1854 19.8376 49.912 19.8154 49.6001 19.8989C49.2615 19.9897 48.9091 20.1891 48.5428 20.4974C48.1766 20.8056 47.8193 21.1831 47.471 21.6298C47.1293 22.0652 46.8051 22.5484 46.4985 23.0794C46.1985 23.5991 45.9466 24.1202 45.7428 24.6428C45.539 25.1653 45.3964 25.6667 45.3149 26.147C45.2335 26.6272 45.2382 27.0366 45.3289 27.3752C45.4101 27.6782 45.5535 27.8928 45.7593 28.0191C45.974 28.1431 46.2239 28.1668 46.509 28.0904C47.2396 27.8947 47.9333 27.2934 48.5899 26.2866C49.2465 25.2797 49.7992 23.8853 50.2481 22.1033Z" fill="url(#paint14_linear_8958_38636)"/>
<path d="M33.5001 17.8803C33.3759 17.4169 33.4212 17.0514 33.636 16.7838C33.8508 16.5161 34.2656 16.2999 34.8804 16.1352C35.0943 16.0779 35.2874 16.05 35.4597 16.0516C35.632 16.0532 35.786 16.0931 35.9216 16.1714C36.0547 16.2407 36.1764 16.3562 36.2865 16.5177C36.4032 16.6679 36.5196 16.8706 36.6358 17.126C36.9641 17.888 37.3032 18.6901 37.653 19.5323C38.0093 20.3632 38.3568 21.1965 38.6953 22.0321C39.0403 22.8565 39.3717 23.6654 39.6893 24.4589C40.0046 25.2435 40.2922 25.9782 40.5521 26.6631C40.8185 27.3366 41.0424 27.9404 41.2237 28.4744C41.4115 28.997 41.5472 29.4143 41.6307 29.7262C42.0001 31 43.1562 32 44.6562 32C46.1562 32 47.1562 31.5 47.1563 33C47.1563 34 45.6562 34.5 45.1562 34.5C43.3063 34.5 42.1622 34.6475 40.6562 33.5C39.5081 32.6252 39.1255 31.1579 38.6494 29.8804C38.4431 29.3244 38.2023 28.7109 37.927 28.0398C37.6517 27.3686 37.351 26.6565 37.0251 25.9034C36.7081 25.1479 36.3845 24.4038 36.0544 23.6709C35.7333 22.9356 35.4204 22.2316 35.116 21.5587C34.8181 20.8745 34.5517 20.2726 34.317 19.7529C34.0798 19.2243 33.888 18.7934 33.7414 18.4602C33.5924 18.1182 33.512 17.9248 33.5001 17.8803Z" fill="url(#paint15_linear_8958_38636)"/>
<defs>
<radialGradient id="paint0_radial_8958_38636" cx="0" cy="0" r="1" gradientUnits="userSpaceOnUse" gradientTransform="translate(16.2662 8.74029) rotate(117.912) scale(10.0821 7.78136)">
<stop stop-color="#1DF7EF"/>
<stop offset="1" stop-color="#10808C"/>
</radialGradient>
<radialGradient id="paint1_radial_8958_38636" cx="0" cy="0" r="1" gradientUnits="userSpaceOnUse" gradientTransform="translate(18.851 10.58) rotate(115.692) scale(9.76666 7.11907)">
<stop stop-color="#1DF7EF"/>
<stop offset="1" stop-color="#10808C"/>
</radialGradient>
<radialGradient id="paint2_radial_8958_38636" cx="0" cy="0" r="1" gradientUnits="userSpaceOnUse" gradientTransform="translate(21.8548 14.0755) rotate(127.548) scale(5.9835 5.39415)">
<stop stop-color="#1DF7EF"/>
<stop offset="1" stop-color="#10808C"/>
</radialGradient>
<radialGradient id="paint3_radial_8958_38636" cx="0" cy="0" r="1" gradientUnits="userSpaceOnUse" gradientTransform="translate(21.6014 19.1566) rotate(125.634) scale(7.72074 6.82111)">
<stop stop-color="#1DF7EF"/>
<stop offset="1" stop-color="#10808C"/>
</radialGradient>
<radialGradient id="paint4_radial_8958_38636" cx="0" cy="0" r="1" gradientUnits="userSpaceOnUse" gradientTransform="translate(16.3943 20.8929) rotate(112.642) scale(5.63359 3.7346)">
<stop stop-color="#1DF7EF"/>
<stop offset="1" stop-color="#10808C"/>
</radialGradient>
<radialGradient id="paint5_radial_8958_38636" cx="0" cy="0" r="1" gradientUnits="userSpaceOnUse" gradientTransform="translate(13.1824 18.2529) rotate(119.008) scale(3.54146 2.80227)">
<stop stop-color="#1DF7EF"/>
<stop offset="1" stop-color="#10808C"/>
</radialGradient>
<radialGradient id="paint6_radial_8958_38636" cx="0" cy="0" r="1" gradientUnits="userSpaceOnUse" gradientTransform="translate(27.0595 25.0417) rotate(159.689) scale(25.6164 15.5585)">
<stop stop-color="#FFDF27"/>
<stop offset="0.9999" stop-color="#FE5468"/>
</radialGradient>
<radialGradient id="paint7_radial_8958_38636" cx="0" cy="0" r="1" gradientUnits="userSpaceOnUse" gradientTransform="translate(29.9217 32.8148) rotate(140.592) scale(12.3836 11.3332)">
<stop stop-color="#1DF7EF"/>
<stop offset="0.9999" stop-color="#10808C"/>
</radialGradient>
<radialGradient id="paint8_radial_8958_38636" cx="0" cy="0" r="1" gradientUnits="userSpaceOnUse" gradientTransform="translate(14.9712 32.9836) rotate(148.427) scale(14.6633 12.2041)">
<stop stop-color="#1DF7EF"/>
<stop offset="0.9999" stop-color="#10808C"/>
</radialGradient>
<linearGradient id="paint9_linear_8958_38636" x1="101.002" y1="11.3814" x2="104.51" y2="13.3992" gradientUnits="userSpaceOnUse">
<stop stop-color="#10808C"/>
<stop offset="1" stop-color="#1DF7EF"/>
</linearGradient>
<linearGradient id="paint10_linear_8958_38636" x1="89.8191" y1="6.09764" x2="98.6383" y2="8.37567" gradientUnits="userSpaceOnUse">
<stop stop-color="#10808C"/>
<stop offset="1" stop-color="#1DF7EF"/>
</linearGradient>
<linearGradient id="paint11_linear_8958_38636" x1="82.9707" y1="5.26295" x2="87.6192" y2="5.11381" gradientUnits="userSpaceOnUse">
<stop stop-color="#10808C"/>
<stop offset="1" stop-color="#1DF7EF"/>
</linearGradient>
<linearGradient id="paint12_linear_8958_38636" x1="74.0804" y1="12.5073" x2="83.0018" y2="17.6197" gradientUnits="userSpaceOnUse">
<stop stop-color="#10808C"/>
<stop offset="1" stop-color="#1DF7EF"/>
</linearGradient>
<linearGradient id="paint13_linear_8958_38636" x1="59.0895" y1="11.8945" x2="70.1541" y2="15.7455" gradientUnits="userSpaceOnUse">
<stop stop-color="#10808C"/>
<stop offset="1" stop-color="#1DF7EF"/>
</linearGradient>
<linearGradient id="paint14_linear_8958_38636" x1="45.9409" y1="19.4479" x2="55.2846" y2="25.1987" gradientUnits="userSpaceOnUse">
<stop stop-color="#10808C"/>
<stop offset="1" stop-color="#1DF7EF"/>
</linearGradient>
<linearGradient id="paint15_linear_8958_38636" x1="36.7256" y1="17.545" x2="45.4338" y2="18.3722" gradientUnits="userSpaceOnUse">
<stop stop-color="#10808C"/>
<stop offset="1" stop-color="#1DF7EF"/>
</linearGradient>
</defs>
</svg>
