<svg width="320" height="90" viewBox="0 0 320 90" fill="none" xmlns="http://www.w3.org/2000/svg">
<path d="M93.4585 45.7157C93.4585 44.2446 93.6533 42.8433 94.0495 41.5117C94.4391 40.1801 95.01 39.0134 95.7622 38.0116C96.5077 37.0097 97.4345 36.2108 98.5226 35.6148C99.6173 35.0187 100.873 34.7207 102.304 34.7207C103.553 34.7207 104.668 34.9426 105.635 35.3865C106.609 35.8304 107.448 36.4581 108.16 37.2697V35.4055H113.728V56.178C113.728 57.3193 113.513 58.4163 113.083 59.4689C112.653 60.5214 112.015 61.4472 111.162 62.2461C110.316 63.0451 109.275 63.6792 108.033 64.1484C106.79 64.6176 105.373 64.8522 103.775 64.8522C102.646 64.8522 101.592 64.7 100.605 64.3957C99.624 64.0913 98.7308 63.6728 97.9383 63.1402C97.139 62.6076 96.4539 61.9735 95.8898 61.2379C95.3256 60.5024 94.9092 59.7162 94.6338 58.8792H100.678C101.021 59.4625 101.444 59.9571 101.934 60.3629C102.425 60.7687 103.184 60.9716 104.218 60.9716C105.004 60.9716 105.648 60.8195 106.152 60.5151C106.656 60.2107 107.059 59.8303 107.348 59.3737C107.643 58.9172 107.851 58.4036 107.979 57.8329C108.1 57.2623 108.16 56.7106 108.16 56.178V54.1997C107.448 55.0113 106.609 55.6454 105.635 56.1019C104.668 56.5584 103.553 56.7867 102.304 56.7867C100.873 56.7867 99.6173 56.4887 98.5226 55.8926C97.4345 55.2966 96.5077 54.4913 95.7622 53.4768C95.01 52.4623 94.4391 51.2829 94.0495 49.9386C93.6533 48.5944 93.4585 47.1867 93.4585 45.7157ZM103.627 51.8409C104.44 51.8409 105.125 51.6507 105.675 51.2702C106.226 50.8898 106.676 50.4015 107.019 49.8055C107.361 49.2094 107.61 48.55 107.757 47.8272C107.905 47.1043 107.979 46.4005 107.979 45.7157C107.979 45.0562 107.905 44.3777 107.757 43.6803C107.61 42.9828 107.368 42.3424 107.039 41.759C106.703 41.1756 106.26 40.6937 105.695 40.3133C105.125 39.9328 104.44 39.7426 103.627 39.7426C102.821 39.7426 102.136 39.9328 101.585 40.3133C101.028 40.6937 100.584 41.1756 100.235 41.759C99.8926 42.3424 99.6509 42.9828 99.5031 43.6803C99.3553 44.3777 99.2815 45.0562 99.2815 45.7157C99.2815 46.4005 99.3621 47.1043 99.5165 47.8272C99.6777 48.55 99.933 49.2094 100.275 49.8055C100.618 50.4015 101.068 50.8898 101.619 51.2702C102.176 51.6507 102.841 51.8409 103.627 51.8409Z" fill="#DDDBDC"/>
<path d="M117.046 56.178V35.4055H122.607V38.9056C123.245 37.6628 124.085 36.6547 125.132 35.8811C126.18 35.1075 127.47 34.7207 129.021 34.7207H129.498C129.672 34.7207 129.84 34.7334 130.015 34.7588C130.19 34.7588 130.358 34.7714 130.532 34.7968V40.6557C130.21 40.6303 129.914 40.5923 129.646 40.5416C129.377 40.5162 129.115 40.4972 128.853 40.4845C128.598 40.4718 128.37 40.4655 128.175 40.4655C126.966 40.4655 125.999 40.5923 125.26 40.8459C124.521 41.0995 123.957 41.4293 123.567 41.8351C123.171 42.2409 122.916 42.6784 122.795 43.1476C122.667 43.6169 122.607 44.0797 122.607 44.5363V56.178H117.046Z" fill="#DDDBDC"/>
<path d="M142.104 34.7949C143.796 34.7949 145.307 35.0929 146.637 35.689C147.96 36.285 149.075 37.0839 149.968 38.0858C150.868 39.0876 151.547 40.2543 152.017 41.5859C152.48 42.9175 152.715 44.3188 152.715 45.7899C152.715 47.2609 152.48 48.6686 152.017 50.0128C151.547 51.3571 150.868 52.5365 149.968 53.551C149.075 54.5655 147.96 55.3708 146.637 55.9669C145.307 56.5629 143.796 56.8609 142.104 56.8609C140.384 56.8609 138.88 56.5566 137.59 55.9478C136.301 55.3391 135.22 54.5275 134.346 53.513C133.473 52.4984 132.815 51.319 132.372 49.9748C131.929 48.6305 131.707 47.2356 131.707 45.7899C131.707 44.3442 131.929 42.9555 132.372 41.624C132.815 40.2924 133.473 39.1193 134.346 38.1048C135.22 37.0903 136.301 36.285 137.59 35.689C138.88 35.0929 140.384 34.7949 142.104 34.7949ZM142.178 51.9151C143.037 51.9151 143.769 51.7249 144.367 51.3444C144.972 50.964 145.455 50.4757 145.824 49.8797C146.194 49.2837 146.463 48.6242 146.637 47.9014C146.805 47.1785 146.892 46.4747 146.892 45.7899C146.892 45.1304 146.812 44.452 146.657 43.7545C146.496 43.057 146.227 42.4166 145.858 41.8332C145.495 41.2499 145.005 40.768 144.407 40.3875C143.803 40.0071 143.057 39.8168 142.178 39.8168C141.291 39.8168 140.546 40.0071 139.948 40.3875C139.343 40.768 138.86 41.2499 138.49 41.8332C138.121 42.4166 137.859 43.057 137.698 43.7545C137.537 44.452 137.456 45.1304 137.456 45.7899C137.456 46.4747 137.543 47.1785 137.718 47.9014C137.893 48.6242 138.161 49.2837 138.531 49.8797C138.893 50.4757 139.384 50.964 139.981 51.3444C140.586 51.7249 141.318 51.9151 142.178 51.9151Z" fill="#DDDBDC"/>
<path d="M153.051 35.4043H158.686L162.447 47.921L165.765 35.4043H171.547L174.865 47.921L178.626 35.4043H184.335L178.069 56.1768H172.024L168.639 43.4698L165.281 56.1768H159.277L153.051 35.4043Z" fill="#DDDBDC"/>
<path d="M244.889 64.2416V35.4036H250.45V37.6483C251.236 36.7606 252.162 36.0631 253.23 35.5558C254.305 35.0485 255.52 34.7949 256.897 34.7949C258.375 34.7949 259.678 35.0993 260.806 35.708C261.935 36.3167 262.875 37.1283 263.627 38.1429C264.372 39.1574 264.937 40.3368 265.319 41.681C265.702 43.0253 265.89 44.4203 265.89 45.866C265.89 47.3117 265.702 48.7003 265.319 50.0319C264.937 51.3634 264.372 52.5365 263.627 53.551C262.875 54.5655 261.935 55.3708 260.806 55.9669C259.678 56.5629 258.375 56.8609 256.897 56.8609C255.52 56.8609 254.305 56.6136 253.23 56.119C252.162 55.6244 251.236 54.9333 250.45 54.0456V64.2416H244.889ZM255.426 51.839C256.313 51.839 257.052 51.6488 257.656 51.2683C258.261 50.8879 258.744 50.406 259.114 49.8226C259.476 49.2393 259.745 48.5988 259.9 47.9014C260.061 47.2039 260.141 46.5254 260.141 45.866C260.141 45.1812 260.054 44.4773 259.886 43.7545C259.711 43.0316 259.443 42.3722 259.073 41.7761C258.704 41.1801 258.22 40.6919 257.616 40.3114C257.018 39.931 256.286 39.7407 255.426 39.7407C254.567 39.7407 253.835 39.931 253.23 40.3114C252.633 40.6919 252.142 41.1801 251.78 41.7761C251.41 42.3722 251.135 43.0316 250.967 43.7545C250.792 44.4773 250.712 45.1812 250.712 45.866C250.712 46.5254 250.786 47.2039 250.947 47.9014C251.108 48.5988 251.37 49.2393 251.739 49.8226C252.109 50.406 252.592 50.8879 253.197 51.2683C253.801 51.6488 254.54 51.839 255.426 51.839Z" fill="#DDDBDC"/>
<path d="M268.51 35.4053H274.071V56.1778H268.51V35.4053ZM268.51 32.2857V27.3398H274.071V32.2857H268.51Z" fill="#DDDBDC"/>
<path d="M296.846 49.9748C296.188 52.0799 294.992 53.7412 293.273 54.9587C291.554 56.1761 289.492 56.7848 287.081 56.7848C285.361 56.7848 283.85 56.4868 282.547 55.8908C281.251 55.2947 280.156 54.4894 279.27 53.4749C278.383 52.4604 277.725 51.2873 277.282 49.9558C276.838 48.6242 276.617 47.2356 276.617 45.7899C276.617 44.3442 276.838 42.9619 277.282 41.643C277.725 40.3241 278.376 39.1574 279.249 38.1429C280.123 37.1283 281.204 36.3167 282.493 35.708C283.783 35.0993 285.287 34.7949 287.007 34.7949C288.558 34.7949 289.962 35.0739 291.231 35.6319C292.494 36.1899 293.568 36.9445 294.455 37.8956C295.335 38.8467 296.02 39.9436 296.497 41.1864C296.98 42.4292 297.215 43.7355 297.215 45.1051C297.215 45.4601 297.202 45.8089 297.162 46.1513C297.128 46.4937 297.081 46.8424 297.034 47.1975H282.399C282.527 47.8062 282.728 48.3896 283.011 48.9476C283.293 49.5056 283.655 50.0002 284.099 50.4313C284.542 50.8625 285.052 51.2049 285.643 51.4586C286.234 51.7122 286.913 51.839 287.672 51.839C288.431 51.839 289.163 51.6932 289.868 51.4015C290.566 51.1098 291.097 50.6342 291.466 49.9748H296.846ZM291.359 42.7463C291.09 41.9093 290.627 41.1991 289.975 40.6158C289.324 40.0324 288.444 39.7407 287.343 39.7407C286.214 39.7407 285.281 40.0324 284.542 40.6158C283.803 41.1991 283.252 41.9093 282.883 42.7463H291.359Z" fill="#DDDBDC"/>
<path fill-rule="evenodd" clip-rule="evenodd" d="M242.736 50.2237C242.017 52.5016 240.728 54.2984 238.867 55.6157C237.027 56.9191 234.817 57.581 232.238 57.581C230.405 57.581 228.786 57.256 227.396 56.6187C225.992 55.9755 224.81 55.1037 223.856 54.0087C222.903 52.9153 222.191 51.6515 221.714 50.2165C221.244 48.8025 221.009 47.3283 221.009 45.7934C221.009 44.2573 221.244 42.7887 221.714 41.3873C222.191 39.9678 222.896 38.7123 223.836 37.6201C224.777 36.5255 225.938 35.6473 227.335 34.9907C228.712 34.3387 230.324 34.0059 232.164 34.0059C233.823 34.0059 235.334 34.3086 236.691 34.9066C238.055 35.5082 239.21 36.3242 240.163 37.3502C241.117 38.3755 241.856 39.5572 242.373 40.8967C242.884 42.2327 243.145 43.6363 243.145 45.1086C243.145 45.4934 243.125 45.8711 243.085 46.2424C243.045 46.5927 243.004 46.9498 242.951 47.3132C242.897 47.7036 242.575 47.9937 242.192 47.9937H228.591C228.665 48.1938 228.753 48.3904 228.847 48.5838C229.095 49.0633 229.404 49.4881 229.787 49.8587C230.156 50.2248 230.6 50.5149 231.097 50.7305C231.6 50.9469 232.178 51.0499 232.829 51.0499C233.494 51.0499 234.126 50.9235 234.737 50.6699C235.274 50.4472 235.677 50.0857 235.959 49.582C236.1 49.3367 236.349 49.1857 236.624 49.1857H242.01C242.252 49.1857 242.487 49.307 242.628 49.5127C242.769 49.718 242.816 49.9823 242.736 50.2237ZM240.889 50.7709H237.04C236.604 51.3836 236.026 51.8406 235.314 52.1402C234.522 52.4699 233.689 52.6351 232.829 52.6351C231.956 52.6351 231.184 52.4845 230.506 52.1937C229.827 51.902 229.236 51.5069 228.732 51.0111C228.222 50.5193 227.812 49.955 227.49 49.3181C227.174 48.6947 226.946 48.0428 226.812 47.3628C226.765 47.1289 226.818 46.886 226.966 46.7009C227.114 46.5159 227.329 46.4085 227.564 46.4085H241.52C241.534 46.2939 241.547 46.1802 241.56 46.0673C241.594 45.7534 241.607 45.434 241.607 45.1086C241.607 43.8412 241.386 42.6329 240.943 41.4829C240.499 40.3368 239.875 39.325 239.055 38.448C238.243 37.5718 237.249 36.8782 236.087 36.3642C234.911 35.8463 233.602 35.5911 232.164 35.5911C230.573 35.5911 229.169 35.8669 227.974 36.4324C226.785 36.9928 225.784 37.7382 224.985 38.6723C224.179 39.6095 223.574 40.6875 223.165 41.9057C222.748 43.1422 222.54 44.4381 222.54 45.7934C222.54 47.1499 222.748 48.453 223.165 49.7021C223.574 50.9303 224.186 52.0126 224.998 52.9482C225.811 53.8819 226.818 54.621 228.02 55.1699C229.229 55.7247 230.64 55.9958 232.238 55.9958C234.482 55.9958 236.402 55.4401 238.001 54.3083C239.284 53.3992 240.244 52.2198 240.889 50.7709ZM236.517 43.5424H228.041C227.779 43.5424 227.537 43.4053 227.396 43.179C227.255 42.9523 227.235 42.667 227.342 42.4217C227.759 41.467 228.39 40.6558 229.229 39.9904C230.096 39.3087 231.177 38.9517 232.5 38.9517C233.817 38.9517 234.858 39.3242 235.637 40.0205C236.396 40.6994 236.933 41.5257 237.242 42.499C237.322 42.7407 237.282 43.0066 237.141 43.2131C236.993 43.42 236.765 43.5424 236.517 43.5424ZM235.281 41.9572C235.099 41.6885 234.878 41.442 234.629 41.2177C234.105 40.7477 233.394 40.5369 232.5 40.5369C231.56 40.5369 230.781 40.7632 230.163 41.2482C229.894 41.4646 229.646 41.7008 229.431 41.9572H235.281Z" fill="#DDDBDC"/>
<path fill-rule="evenodd" clip-rule="evenodd" d="M200.182 26.5469H205.743C206.166 26.5469 206.509 26.9016 206.509 27.3395V35.6217C206.972 35.2789 207.476 34.9793 208.02 34.7222C209.135 34.1978 210.451 33.9276 211.976 33.9276C213.453 33.9276 214.709 34.1871 215.744 34.6869C216.805 35.1977 217.664 35.8885 218.336 36.7536C219.008 37.61 219.491 38.5916 219.787 39.7005C220.075 40.7713 220.223 41.8754 220.223 43.0139V56.1774C220.223 56.615 219.881 56.97 219.451 56.97H213.89C213.467 56.97 213.124 56.615 213.124 56.1774V44.5357C213.124 43.9861 213.064 43.4538 212.956 42.9386C212.856 42.467 212.688 42.047 212.453 41.68C212.238 41.3396 211.942 41.0649 211.579 40.8509C211.197 40.6302 210.713 40.5347 210.129 40.5347C209.457 40.5347 208.886 40.6496 208.423 40.9013C207.959 41.149 207.59 41.4549 207.308 41.8266C207.026 42.1991 206.824 42.6188 206.71 43.0849C206.576 43.5854 206.509 44.0689 206.509 44.5357V56.1774C206.509 56.615 206.166 56.97 205.743 56.97H200.182C199.752 56.97 199.41 56.615 199.41 56.1774V27.3395C199.41 26.9016 199.752 26.5469 200.182 26.5469ZM200.948 28.1321V55.3848H204.977V44.5357C204.977 43.9373 205.058 43.3175 205.226 42.6767C205.401 42.001 205.689 41.3935 206.099 40.8533C206.502 40.312 207.039 39.857 207.711 39.496C208.376 39.1389 209.175 38.9495 210.129 38.9495C211.022 38.9495 211.754 39.133 212.332 39.4702C212.923 39.8142 213.386 40.262 213.735 40.8097C214.071 41.3305 214.313 41.9249 214.454 42.5946C214.588 43.2208 214.655 43.868 214.655 44.5357V55.3848H218.685V43.0139C218.685 42.0216 218.558 41.059 218.309 40.1257C218.067 39.2309 217.678 38.4375 217.141 37.7463C216.61 37.0647 215.925 36.5253 215.092 36.1231C214.239 35.7097 213.198 35.5128 211.976 35.5128C210.693 35.5128 209.591 35.7244 208.665 36.1635C207.738 36.599 206.959 37.182 206.314 37.9155C206.099 38.1585 205.763 38.2405 205.468 38.1228C205.172 38.0047 204.977 37.711 204.977 37.3833V28.1321H200.948Z" fill="#DDDBDC"/>
<path fill-rule="evenodd" clip-rule="evenodd" d="M184.775 34.6132H187.401V29.0524C187.401 28.6145 187.744 28.2598 188.167 28.2598H193.728C194.158 28.2598 194.5 28.6145 194.5 29.0524V34.6132H197.596C198.026 34.6132 198.369 34.9679 198.369 35.4058V39.819C198.369 40.2566 198.026 40.6116 197.596 40.6116H194.5V49.102C194.5 49.6929 194.581 50.2108 194.769 50.6539C194.883 50.9246 195.172 50.9725 195.575 50.9725H197.677C198.1 50.9725 198.443 51.3272 198.443 51.7651V56.1783C198.443 56.6158 198.1 56.9709 197.677 56.9709H193.728C192.573 56.9709 191.605 56.8247 190.826 56.5473C189.98 56.2465 189.308 55.803 188.798 55.2316C188.288 54.6597 187.925 53.9765 187.703 53.1795C187.502 52.444 187.401 51.605 187.401 50.6618V40.6116H184.775C184.352 40.6116 184.009 40.2566 184.009 39.819V35.4058C184.009 34.9679 184.352 34.6132 184.775 34.6132ZM185.541 36.1984V39.0264H188.167C188.59 39.0264 188.932 39.3811 188.932 39.819V50.6618C188.932 51.4429 189.013 52.1388 189.181 52.7475C189.329 53.2944 189.577 53.7652 189.926 54.1576C190.276 54.5499 190.746 54.842 191.33 55.0485C191.975 55.2783 192.774 55.3857 193.728 55.3857H196.904V52.5577H195.575C194.399 52.5577 193.687 52.075 193.358 51.2785C193.096 50.6563 192.962 49.9314 192.962 49.102V39.819C192.962 39.3811 193.305 39.0264 193.728 39.0264H196.831V36.1984H193.728C193.305 36.1984 192.962 35.8434 192.962 35.4058V29.845H188.932V35.4058C188.932 35.8434 188.59 36.1984 188.167 36.1984H185.541Z" fill="#DDDBDC"/>
<path fill-rule="evenodd" clip-rule="evenodd" d="M55.2779 16.005C49.9861 10.5421 41.3942 10.5416 36.1046 16.0022L16.923 35.8041C11.6335 41.2647 11.6341 50.1344 16.9259 55.5973L36.1019 75.3934C41.3937 80.8564 49.9855 80.857 55.275 75.3964L74.4566 55.5945C79.7461 50.1339 79.7456 41.2641 74.4538 35.8011L55.2779 16.005Z" fill="#DDDBDC"/>
<path fill-rule="evenodd" clip-rule="evenodd" d="M22.0027 47.1469C21.9487 47.0418 21.9034 46.9359 21.8764 46.8318C21.7234 46.2398 22.0297 45.5261 22.6328 44.9647C22.7949 44.8086 22.984 44.6618 23.1551 44.5317C22.7049 43.8412 22.4707 43.1887 23.0559 42.4573C23.2719 42.1906 23.65 41.9193 24.1091 41.6897C24.8563 41.3208 25.8557 41.0243 26.4589 40.8616C26.6119 40.2483 27.035 39.3598 28.2323 38.8254C29.4926 38.2622 32.0673 38.0662 32.9135 38.0188C33.3997 37.6284 34.6239 36.7604 36.3074 36.4593C37.2346 36.292 38.4141 36.292 39.4224 36.3422L40.0075 36.9277C38.9542 36.8478 37.5227 36.8022 36.4424 36.9974C35.1641 37.226 34.1828 37.8217 33.6517 38.2065C33.4266 38.3729 33.2195 38.555 33.2195 38.555C33.2195 38.5541 29.9787 38.6665 28.5474 39.3059C27.8812 39.608 27.5302 40.0577 27.3591 40.4499C27.3591 40.449 27.3591 40.4481 27.3591 40.4481V40.4555C27.1611 40.8932 27.1791 41.2566 27.1791 41.2566C27.1791 41.2566 24.3341 41.8904 23.6769 42.7092C23.0107 43.527 24.3881 44.7147 24.3971 44.7147C24.3881 44.7147 22.4347 45.7612 22.6508 46.6162C22.8758 47.4721 25.3336 48.3318 25.3336 48.3309C25.3336 48.3318 24.6043 49.6087 25.6666 50.3531C26.7379 51.0985 29.8527 51.4805 29.8527 51.4805C29.8527 51.4805 30.1406 51.9414 30.3387 52.1496C30.7078 52.5427 31.3021 53.0121 32.1933 53.2732C33.9218 53.7797 37.1538 53.618 37.1538 53.617C37.1538 53.617 37.2888 53.696 37.4868 53.7927C38.108 54.105 39.5483 54.7378 41.1057 54.8717C43.1943 55.0501 45.9762 54.3745 45.9762 54.3735C45.9762 54.3745 48.7669 55.0501 50.8554 54.8717C52.2958 54.7481 53.619 54.2016 54.3122 53.8717C54.5733 53.749 54.8073 53.617 54.8073 53.617C54.8073 53.618 58.0393 53.7797 59.7678 53.2732C60.7671 52.9814 61.3881 52.4275 61.7392 52.013C61.9283 51.7927 62.1084 51.4805 62.1084 51.4805C62.1084 51.4805 65.2233 51.0985 66.2946 50.3531C67.3569 49.6087 66.6274 48.3318 66.6184 48.3309C66.6274 48.3318 69.0852 47.4721 69.3012 46.6162C69.5263 45.7612 67.5637 44.7147 67.5637 44.7147C67.5637 44.7147 68.9501 43.527 68.2839 42.7092C67.6267 41.8904 64.7819 41.2566 64.7729 41.2566C64.7729 41.2566 64.7911 40.8932 64.602 40.4555V40.4481C64.602 40.4481 64.602 40.449 64.602 40.4499C64.422 40.0577 64.08 39.608 63.4138 39.3059C61.9824 38.6665 58.7413 38.5541 58.7413 38.555C58.7413 38.555 58.5975 38.4249 58.4625 38.3199C57.9853 37.95 56.9321 37.2502 55.5187 36.9974C54.2224 36.7641 52.4218 36.8757 51.3685 36.977L51.8007 36.3887C52.926 36.3032 54.4835 36.2492 55.6538 36.4593C57.3372 36.7604 58.5615 37.6284 59.0476 38.0188C59.8938 38.0662 62.4685 38.2622 63.7289 38.8254C64.9262 39.3598 65.3492 40.2483 65.5023 40.8616C66.1054 41.0243 67.1049 41.3208 67.8521 41.6897C68.3112 41.9193 68.6892 42.1906 68.9053 42.4573C69.4904 43.1887 69.2562 43.8412 68.8061 44.5317C68.9771 44.6618 69.1663 44.8086 69.3283 44.9647C69.9225 45.5261 70.2374 46.2398 70.0844 46.8318C70.0484 46.9564 69.9946 47.0837 69.9226 47.211L65.6194 56.7109C65.3583 57.249 64.9623 57.7071 64.4761 58.0371C59.7679 61.1718 53.2231 63.1318 45.9762 63.1318C38.7382 63.1318 32.1933 61.1708 27.485 58.0333C26.9989 57.7034 26.612 57.2471 26.3509 56.7109C25.2346 54.4423 22.3538 47.8903 22.0027 47.1469ZM68.689 48.2956C68.68 48.3021 68.6621 48.3086 68.6531 48.3151C68.311 48.5121 67.9421 48.6859 67.627 48.8207C67.681 49.1125 67.6899 49.4489 67.6179 49.7853C67.5098 50.2258 67.2668 50.7965 66.7447 51.1598C65.8174 51.8029 63.5039 52.6914 62.5856 52.8336C62.2345 53.3401 61.4331 54.2304 59.9837 54.6551C58.4443 55.1059 55.7706 55.0641 54.9874 55.039C54.4292 55.3308 52.7549 56.1254 50.9184 56.2824C49.0549 56.4423 46.6514 55.9553 45.9762 55.8075C45.31 55.9553 42.9061 56.4423 41.0336 56.2824C39.2062 56.1254 37.5318 55.3308 36.9646 55.039C36.1904 55.0641 33.5168 55.1059 31.9774 54.6551C30.528 54.2304 29.7266 53.3401 29.3755 52.8336C28.4573 52.6914 26.1437 51.8029 25.2165 51.1598C24.2892 50.5121 24.2171 49.4889 24.3342 48.8207C24.0191 48.6859 23.6501 48.5121 23.308 48.3151C23.227 48.2714 23.155 48.2268 23.083 48.1813C24.6944 51.0381 27.3412 56.6616 27.3412 56.6616C31.8424 59.8558 38.8283 61.8418 45.9762 61.8418C53.1331 61.8418 60.0287 59.8558 64.53 56.6616L68.689 48.2956ZM38.8372 30.597C38.7652 29.4334 39.0711 28.3656 39.7283 27.3293C41.2947 24.8647 45.2468 21.6881 45.985 16.875C47.1553 19.5348 46.5973 22.1212 45.301 24.4994C44.0317 26.8256 42.456 27.728 41.5467 29.9399C41.2856 30.5895 41.1327 31.2131 41.0607 31.8218L38.8372 30.597ZM42.6453 32.701C42.9064 31.6759 43.3835 30.7168 43.9957 29.7856C46.2463 26.3972 47.8666 26.8293 47.5245 19.2606C49.181 22.913 50.5404 25.5087 48.6769 28.7773C46.9214 31.8562 46.264 31.3311 45.0397 34.0253L42.6453 32.701ZM47.1282 33.8246C47.2362 33.6648 48.6949 32.3144 49.172 31.7205C50.7024 29.847 50.9725 27.4325 51.0355 25.3638C52.0437 27.308 53.0071 29.1118 53.1331 30.2717L47.1282 33.8246ZM53.0789 31.4306C52.9259 32.174 52.5118 32.8636 51.8186 33.6192C49.8111 35.8087 48.1097 37.345 46.4892 41.9574C45.8951 39.5067 45.1477 37.8617 46.165 36.0355L53.0789 31.4306ZM44.5267 35.608C44.1035 38.1461 45.5979 40.476 45.985 42.9109C43.2842 39.3394 42.2942 36.5643 42.4202 34.1879L44.5267 35.608ZM41.0157 33.2419C41.0607 34.1991 41.2408 35.1712 41.6009 36.5151C40.4216 34.9575 39.4584 33.1935 39.0893 31.9436L41.0157 33.2419ZM50.8734 37.5151C59.4617 38.3478 65.8265 41.3208 65.8265 44.857C65.8265 49.0381 56.9321 52.4321 45.9762 52.4321C35.0292 52.4321 26.1346 49.0381 26.1346 44.857C26.1346 41.3886 32.2564 38.4621 40.5927 37.5653C41.4929 39.108 42.6541 40.7567 44.2295 42.8375L44.9859 43.8885C45.256 44.2761 45.715 44.488 46.1742 44.4517C46.6423 44.4136 47.0563 44.133 47.2724 43.7055L48.4518 41.3877C49.2441 39.647 50.0631 38.4667 50.8734 37.5151Z" fill="url(#paint0_angular_681_10169)"/>
<defs>
<radialGradient id="paint0_angular_681_10169" cx="0" cy="0" r="1" gradientUnits="userSpaceOnUse" gradientTransform="translate(45.4776 43.8469) rotate(-123.624) scale(27.8781 29.6505)">
<stop stop-color="#303C3A"/>
<stop offset="1" stop-color="#303B3A" stop-opacity="0.33"/>
</radialGradient>
</defs>
</svg>
