<svg width="145" height="28" viewBox="0 0 145 28" fill="none" xmlns="http://www.w3.org/2000/svg">
<path d="M7.53116 21.7766C6.55216 21.7766 5.64916 21.5886 4.82016 21.2116C4.01116 20.8166 3.30516 20.2706 2.70316 19.5746C2.11916 18.8776 1.66816 18.0776 1.34816 17.1746C1.02816 16.2706 0.868164 15.3106 0.868164 14.2946C0.868164 13.2216 1.03716 12.2236 1.37616 11.3016C1.71516 10.3796 2.18516 9.57056 2.78816 8.87356C3.40916 8.15856 4.13317 7.61256 4.96217 7.23656C5.80917 6.84056 6.74016 6.64355 7.75716 6.64355C8.90516 6.64355 9.91216 6.90656 10.7782 7.43356C11.6442 7.94156 12.3592 8.62856 12.9232 9.49456V6.89756H16.2272V20.9856C16.2272 22.4546 15.8692 23.7056 15.1542 24.7416C14.4582 25.7946 13.4882 26.5956 12.2462 27.1406C11.0042 27.7056 9.59217 27.9876 8.01117 27.9876C6.41117 27.9876 5.05616 27.7146 3.94516 27.1696C2.83516 26.6426 1.88417 25.8896 1.09417 24.9106L3.15516 22.9056C3.71916 23.6026 4.42516 24.1486 5.27216 24.5436C6.13816 24.9386 7.05117 25.1366 8.01117 25.1366C8.82017 25.1366 9.55417 24.9856 10.2132 24.6846C10.8912 24.4026 11.4272 23.9506 11.8222 23.3296C12.2372 22.7266 12.4442 21.9456 12.4442 20.9856V19.1226C11.9542 19.9696 11.2582 20.6286 10.3542 21.0986C9.47016 21.5506 8.52916 21.7766 7.53116 21.7766ZM8.80116 18.7556C9.21616 18.7556 9.61116 18.6896 9.98716 18.5576C10.3642 18.4266 10.7122 18.2476 11.0322 18.0216C11.3522 17.7956 11.6342 17.5316 11.8792 17.2306C12.1242 16.9106 12.3122 16.5906 12.4442 16.2706V12.7416C12.2182 12.1586 11.8982 11.6496 11.4842 11.2166C11.0882 10.7846 10.6372 10.4546 10.1282 10.2286C9.63916 9.98456 9.12116 9.86156 8.57616 9.86156C7.99216 9.86156 7.46516 9.98456 6.99416 10.2286C6.52416 10.4736 6.11916 10.8216 5.78016 11.2736C5.44216 11.7066 5.17817 12.1956 4.99017 12.7416C4.82017 13.2686 4.73616 13.8236 4.73616 14.4076C4.73616 15.0096 4.83917 15.5746 5.04617 16.1016C5.25317 16.6286 5.53617 17.0896 5.89317 17.4846C6.27017 17.8806 6.70317 18.1906 7.19217 18.4166C7.70017 18.6426 8.23716 18.7556 8.80116 18.7556Z" fill="#EAECEB"/>
<path d="M27.3168 10.1732C26.1688 10.1732 25.1428 10.3992 24.2388 10.8502C23.3358 11.2832 22.6868 11.9142 22.2908 12.7422V21.6922H18.5078V6.8982H21.9808V10.0602C22.5078 9.04319 23.1758 8.24419 23.9848 7.66019C24.7948 7.07719 25.6508 6.7572 26.5548 6.7002H27.0338C27.1468 6.7002 27.2418 6.7092 27.3168 6.7282V10.1732Z" fill="#EAECEB"/>
<path d="M34.9369 21.9746C33.7319 21.9746 32.6499 21.7766 31.6899 21.3816C30.7299 20.9676 29.9109 20.4026 29.2329 19.6876C28.5749 18.9716 28.0659 18.1536 27.7089 17.2306C27.3509 16.3086 27.1719 15.3396 27.1719 14.3226C27.1719 13.2876 27.3509 12.3086 27.7089 11.3866C28.0659 10.4646 28.5749 9.64556 29.2329 8.92956C29.9109 8.21456 30.7299 7.65955 31.6899 7.26455C32.6499 6.85055 33.7319 6.64355 34.9369 6.64355C36.1409 6.64355 37.2139 6.85055 38.1549 7.26455C39.1149 7.65955 39.9339 8.21456 40.6119 8.92956C41.2889 9.64556 41.7979 10.4646 42.1359 11.3866C42.4939 12.3086 42.6729 13.2876 42.6729 14.3226C42.6729 15.3396 42.4939 16.3086 42.1359 17.2306C41.7979 18.1536 41.2889 18.9716 40.6119 19.6876C39.9529 20.4026 39.1439 20.9676 38.1839 21.3816C37.2239 21.7766 36.1409 21.9746 34.9369 21.9746ZM31.0689 14.3226C31.0689 15.1886 31.2379 15.9606 31.5769 16.6376C31.9159 17.2966 32.3769 17.8146 32.9599 18.1906C33.5439 18.5676 34.2029 18.7556 34.9369 18.7556C35.6519 18.7556 36.3009 18.5676 36.8849 18.1906C37.4679 17.7956 37.9299 17.2686 38.2679 16.6096C38.6259 15.9326 38.8049 15.1606 38.8049 14.2946C38.8049 13.4476 38.6259 12.6856 38.2679 12.0076C37.9299 11.3296 37.4679 10.8026 36.8849 10.4266C36.3009 10.0496 35.6519 9.86156 34.9369 9.86156C34.2029 9.86156 33.5439 10.0596 32.9599 10.4546C32.3769 10.8316 31.9159 11.3586 31.5769 12.0356C31.2379 12.6946 31.0689 13.4566 31.0689 14.3226Z" fill="#EAECEB"/>
<path d="M61.9531 6.89844H65.5381L59.3551 21.6924H56.1931L53.7081 15.3404L51.2801 21.6924H48.0901L41.9351 6.89844H45.4921L49.8971 18.0784L51.6191 13.2504L49.0501 6.92644H52.1841L53.7081 11.4434L55.2611 6.92644H58.3951L55.8261 13.2504L57.5761 18.0784L61.9531 6.89844Z" fill="#EAECEB"/>
<path d="M76.8039 20.2354C76.4969 20.3624 76.1259 20.5074 75.6909 20.6704C75.2569 20.8334 74.7859 20.9594 74.2799 21.0504C73.7909 21.1584 73.2929 21.2134 72.7869 21.2134C72.1169 21.2134 71.5019 21.0954 70.9399 20.8604C70.3789 20.6254 69.9269 20.2544 69.5829 19.7474C69.2569 19.2224 69.0939 18.5434 69.0939 17.7114V9.53939H67.2209V6.74339H69.0939V2.12839H72.7319V6.74339H76.3979V9.53939H72.7319V16.4894C72.7499 16.9784 72.8859 17.3314 73.1389 17.5484C73.3929 17.7654 73.7099 17.8744 74.0899 17.8744C74.4699 17.8744 74.8409 17.8104 75.2029 17.6844C75.5649 17.5574 75.8539 17.4484 76.0709 17.3584L76.8039 20.2354ZM90.02 20.9684H86.382V12.9874C86.382 11.8834 86.1649 11.0594 85.7299 10.5164C85.3139 9.97439 84.7349 9.70239 83.9929 9.70239C83.5589 9.70239 83.0969 9.82939 82.6079 10.0824C82.1199 10.3354 81.6759 10.6884 81.2779 11.1414C80.8979 11.5754 80.6169 12.0824 80.4369 12.6614V20.9684H76.799V1.15039H80.4369V8.89039C81.0489 8.26139 81.6759 7.76539 82.5809 7.25939C83.4859 6.75239 84.4729 6.49939 85.5399 6.49939C86.4629 6.49939 87.214 6.66139 87.794 6.98739C88.373 7.29539 88.8249 7.72039 89.1509 8.26339C89.4769 8.78839 89.7029 9.38539 89.8299 10.0554C89.9559 10.7064 90.02 11.3854 90.02 12.0914V20.9684ZM97.8789 21.2404C96.7389 21.2404 95.708 21.0504 94.785 20.6704C93.862 20.2724 93.074 19.7384 92.423 19.0684C91.771 18.3804 91.2639 17.6024 90.9019 16.7334C90.5589 15.8474 90.3869 14.9144 90.3869 13.9374C90.3869 12.5804 90.685 11.3404 91.283 10.2184C91.898 9.09639 92.767 8.20039 93.889 7.53039C95.029 6.84239 96.3679 6.49939 97.9069 6.49939C99.4629 6.49939 100.793 6.84239 101.897 7.53039C103.001 8.20039 103.843 9.09639 104.422 10.2184C105.019 11.3224 105.318 12.5164 105.318 13.8014C105.318 14.0194 105.309 14.2454 105.291 14.4804C105.273 14.6974 105.255 14.8784 105.237 15.0234H94.242C94.314 15.7474 94.5219 16.3804 94.8659 16.9234C95.2279 17.4664 95.68 17.8834 96.223 18.1724C96.785 18.4444 97.3819 18.5794 98.0149 18.5794C98.7389 18.5794 99.4179 18.4074 100.051 18.0644C100.703 17.7024 101.146 17.2314 101.382 16.6524L104.504 17.5214C104.16 18.2454 103.662 18.8874 103.01 19.4484C102.377 20.0094 101.626 20.4534 100.757 20.7784C99.888 21.0864 98.9289 21.2404 97.8789 21.2404ZM94.16 12.4014H101.599C101.526 11.6774 101.318 11.3674 100.974 10.8424C100.649 10.2994 100.214 9.88339 99.671 9.59339C99.128 9.28639 98.522 9.13239 97.852 9.13239C97.201 9.13239 96.604 9.28639 96.061 9.59339C95.536 9.88339 95.101 10.2994 94.757 10.8424C94.432 11.3674 94.233 11.6774 94.16 12.4014Z" stroke="#EAECEB"/>
<path d="M116.304 21.9746C115.156 21.9746 114.14 21.7206 113.255 21.2126C112.389 20.6856 111.712 19.9796 111.222 19.0946V27.7066H107.439V6.89756H110.742V9.43855C111.307 8.57255 112.022 7.89556 112.888 7.40556C113.754 6.89756 114.742 6.64355 115.853 6.64355C116.85 6.64355 117.763 6.84156 118.591 7.23656C119.438 7.63156 120.172 8.18756 120.794 8.90256C121.415 9.59856 121.895 10.4086 122.234 11.3306C122.591 12.2336 122.77 13.2126 122.77 14.2666C122.77 15.6976 122.488 16.9966 121.923 18.1636C121.377 19.3306 120.615 20.2616 119.636 20.9586C118.676 21.6356 117.566 21.9746 116.304 21.9746ZM115.034 18.7556C115.617 18.7556 116.144 18.6336 116.615 18.3886C117.086 18.1446 117.49 17.8146 117.829 17.4006C118.187 16.9676 118.45 16.4876 118.62 15.9606C118.808 15.4146 118.902 14.8506 118.902 14.2666C118.902 13.6456 118.798 13.0716 118.591 12.5446C118.403 12.0176 118.121 11.5566 117.744 11.1616C117.368 10.7466 116.926 10.4266 116.417 10.2016C115.928 9.97556 115.391 9.86256 114.808 9.86256C114.45 9.86256 114.083 9.92856 113.707 10.0596C113.349 10.1726 113.001 10.3426 112.662 10.5686C112.323 10.7946 112.022 11.0576 111.759 11.3586C111.514 11.6596 111.335 11.9896 111.222 12.3466V15.8196C111.448 16.3656 111.749 16.8646 112.126 17.3166C112.521 17.7676 112.973 18.1256 113.481 18.3886C113.989 18.6336 114.507 18.7556 115.034 18.7556Z" fill="#EAECEB"/>
<path d="M124.204 21.693V6.89803H127.987V21.693H124.204ZM124.204 4.83703V1.08203H127.987V4.83703H124.204Z" fill="#EAECEB"/>
<path d="M137.132 21.9746C135.946 21.9746 134.873 21.7766 133.913 21.3816C132.953 20.9676 132.134 20.4126 131.457 19.7156C130.779 19.0006 130.252 18.1916 129.876 17.2876C129.518 16.3656 129.339 15.3966 129.339 14.3796C129.339 12.9686 129.65 11.6786 130.271 10.5116C130.911 9.34455 131.814 8.41255 132.981 7.71655C134.167 7.00155 135.56 6.64355 137.16 6.64355C138.779 6.64355 140.162 7.00155 141.31 7.71655C142.458 8.41255 143.334 9.34455 143.936 10.5116C144.557 11.6596 144.868 12.9026 144.868 14.2386C144.868 14.4646 144.858 14.6996 144.84 14.9446C144.821 15.1706 144.802 15.3586 144.783 15.5096H133.348C133.424 16.2616 133.64 16.9206 133.998 17.4856C134.374 18.0506 134.845 18.4836 135.409 18.7846C135.993 19.0666 136.614 19.2076 137.273 19.2076C138.026 19.2076 138.732 19.0286 139.39 18.6716C140.068 18.2946 140.529 17.8056 140.774 17.2036L144.021 18.1066C143.663 18.8596 143.146 19.5276 142.468 20.1116C141.809 20.6946 141.028 21.1556 140.125 21.4946C139.221 21.8146 138.223 21.9746 137.132 21.9746ZM133.264 13.1096H141C140.924 12.3566 140.708 11.7066 140.35 11.1616C140.012 10.5966 139.56 10.1636 138.995 9.86256C138.43 9.54256 137.8 9.38256 137.103 9.38256C136.426 9.38256 135.805 9.54256 135.24 9.86256C134.694 10.1636 134.242 10.5966 133.885 11.1616C133.546 11.7066 133.339 12.3566 133.264 13.1096Z" fill="#EAECEB"/>
</svg>
