<svg width="206" height="45" viewBox="0 0 206 45" fill="none" xmlns="http://www.w3.org/2000/svg">
<path d="M71.1178 8.29253C71.6542 8.1488 72.2259 8.07284 72.8329 8.06464C73.4378 8.04843 74.0065 8.08913 74.5389 8.18673C75.0692 8.27632 75.5229 8.41646 75.9 8.60715C76.2772 8.79784 76.5001 9.02127 76.5688 9.27746C76.6031 9.40556 76.5857 9.56468 76.5165 9.75484C76.4451 9.93698 76.3487 10.1216 76.2272 10.3086C76.1036 10.4876 75.9585 10.6509 75.7921 10.7984C75.6316 10.9358 75.4793 11.0238 75.3352 11.0624C75.143 11.1139 74.9054 11.0918 74.6223 10.996C74.3473 10.8981 74.0399 10.7917 73.7002 10.6768C73.3663 10.5517 73.0098 10.4542 72.6307 10.3842C72.2515 10.3141 71.8658 10.3317 71.4735 10.4368C71.2173 10.5054 71.0223 10.6263 70.8885 10.7995C70.7606 10.9625 70.7266 11.1561 70.7867 11.3802C70.8403 11.5804 70.9911 11.7588 71.239 11.9154C71.4848 12.0641 71.7928 12.2047 72.1629 12.3372C72.5411 12.4675 72.9625 12.5992 73.4271 12.7321C73.8918 12.865 74.3687 13.0118 74.858 13.1725C75.3552 13.331 75.8469 13.5167 76.333 13.7297C76.8191 13.9427 77.2687 14.1955 77.6818 14.4881C78.1028 14.7786 78.4695 15.1222 78.7818 15.5191C79.0919 15.9079 79.3167 16.3625 79.4561 16.8829C79.5763 17.3312 79.6056 17.761 79.5442 18.1722C79.4827 18.5834 79.3393 18.9607 79.1139 19.3043C78.8884 19.6479 78.5909 19.9464 78.2212 20.1999C77.8515 20.4534 77.4225 20.6456 76.9341 20.7765C76.3176 20.9417 75.7235 20.9979 75.1516 20.9452C74.5819 20.9005 74.0649 20.7644 73.6007 20.537C73.1364 20.3096 72.7351 19.9967 72.3967 19.5982C72.0662 19.1977 71.8281 18.7252 71.6822 18.1808C71.4934 17.4763 71.4802 16.9306 71.6426 16.5439C71.813 16.155 72.1704 15.8876 72.7148 15.7418C73.051 15.6517 73.3364 15.6438 73.5709 15.7183C73.8053 15.7928 73.9472 15.9221 73.9966 16.1062C74.0223 16.2023 74.0331 16.3067 74.029 16.4193C74.0227 16.524 74.0146 16.6377 74.0046 16.7605C74.0004 16.8732 73.9984 16.9938 73.9986 17.1225C74.0068 17.249 74.0269 17.3723 74.0591 17.4924C74.1149 17.7006 74.2165 17.8878 74.3641 18.0542C74.5117 18.2207 74.6848 18.3545 74.8835 18.4557C75.0924 18.5627 75.3167 18.6313 75.5565 18.6615C75.7963 18.6916 76.0362 18.6745 76.2764 18.6102C76.9169 18.4385 77.1663 18.0885 77.0247 17.5601C76.9132 17.1438 76.644 16.7955 76.217 16.5152C75.788 16.2269 75.2781 15.9731 74.6873 15.7538C74.0944 15.5265 73.4615 15.31 72.7885 15.1042C72.1235 14.8962 71.4903 14.6626 70.8888 14.4033C70.2874 14.144 69.7635 13.8382 69.3173 13.4858C68.8689 13.1254 68.575 12.6851 68.4355 12.1647C68.3197 11.7323 68.3016 11.3125 68.3812 10.905C68.4688 10.4954 68.6344 10.1206 68.878 9.7808C69.1194 9.43294 69.429 9.13118 69.8067 8.87552C70.1924 8.61772 70.6294 8.42339 71.1178 8.29253Z" fill="url(#paint0_linear_177_33291)"/>
<path d="M57.7983 12.646C57.7661 12.526 57.787 12.3959 57.8611 12.256C57.933 12.108 58.0412 11.9674 58.1857 11.8343C58.3281 11.6932 58.4958 11.5667 58.689 11.4549C58.888 11.3329 59.0956 11.243 59.3117 11.1851C59.4318 11.1529 59.5405 11.1581 59.6377 11.2007C59.7429 11.2412 59.8522 11.3449 59.9656 11.5118C60.0768 11.6708 60.2005 11.908 60.3365 12.2234C60.4783 12.5286 60.643 12.935 60.8304 13.4425C60.9054 13.594 60.9666 13.7106 61.0142 13.7922C61.0677 13.8637 61.1185 13.893 61.1665 13.8801C61.2386 13.8608 61.2774 13.7174 61.2829 13.4499C61.4147 11.6041 62.033 10.5331 63.1379 10.2371C63.6502 10.0998 64.1575 10.1355 64.6596 10.3442C65.1697 10.5507 65.7025 10.97 66.258 11.602C66.8194 12.2239 67.4229 13.0833 68.0686 14.1802C68.7122 15.2691 69.4298 16.6343 70.2214 18.2756C70.261 18.3594 70.2945 18.4362 70.3218 18.5061C70.3491 18.576 70.3713 18.643 70.3885 18.7071C70.4378 18.8912 70.4367 19.0631 70.3851 19.2228C70.3394 19.3724 70.2603 19.5094 70.1478 19.6339C70.0331 19.7505 69.8971 19.8513 69.7397 19.9363C69.5844 20.0294 69.4227 20.0985 69.2546 20.1435C68.9184 20.2336 68.6645 20.263 68.4931 20.2317C68.3297 20.1983 68.2012 20.0869 68.1075 19.8974C67.5493 18.7428 67.0315 17.7231 66.5542 16.8384C66.0849 15.9517 65.6564 15.217 65.2686 14.6344C64.8867 14.0417 64.5466 13.6051 64.2483 13.3247C63.9501 13.0442 63.6969 12.9318 63.4887 12.9876C63.2806 13.0434 63.1198 13.228 63.0065 13.5416C62.899 13.845 62.8352 14.2954 62.8151 14.8928C62.795 15.4903 62.8186 16.2348 62.8858 17.1263C62.9611 18.0157 63.0844 19.0682 63.2556 20.2837C63.3014 20.6146 63.2099 20.9137 62.9812 21.1809C62.7525 21.4482 62.4219 21.6397 61.9896 21.7555C61.7014 21.8328 61.4651 21.8317 61.2809 21.7524C61.0966 21.6731 60.9685 21.5315 60.8967 21.3276C60.3785 19.6817 59.9316 18.3341 59.5561 17.2849C59.1864 16.2255 58.8787 15.3813 58.6329 14.7521C58.3849 14.1149 58.194 13.6426 58.0602 13.3353C57.9263 13.0279 57.839 12.7982 57.7983 12.646Z" fill="url(#paint1_linear_177_33291)"/>
<path d="M47.465 21.5296C47.4285 21.3935 47.4037 21.2371 47.3907 21.0604C47.3777 20.8837 47.3444 20.6952 47.2907 20.4951C47.2543 20.359 47.1663 20.271 47.0269 20.2311C46.8955 20.1891 46.746 20.1434 46.5783 20.0939C46.4106 20.0445 46.2485 19.9678 46.0919 19.8638C45.9433 19.7578 45.8347 19.5766 45.7661 19.3205C45.7168 19.1363 45.7155 18.9393 45.7622 18.7294C45.8169 18.5174 45.92 18.3096 46.0714 18.106C46.4493 17.6272 46.853 17.1801 47.2823 16.7647C47.7196 16.3472 48.1647 15.9748 48.6175 15.6475C49.0784 15.3181 49.5431 15.0348 50.0116 14.7978C50.4801 14.5607 50.9425 14.381 51.3988 14.2587C52.1674 14.0528 52.9266 14.0038 53.6763 14.1118C54.4319 14.2097 55.1244 14.4403 55.7537 14.8037C56.389 15.1569 56.9397 15.6272 57.406 16.2144C57.8781 16.7915 58.215 17.4564 58.4166 18.2089C58.614 18.9455 58.6456 19.6878 58.5114 20.436C58.3831 21.174 58.1252 21.8609 57.7379 22.4967C57.3505 23.1325 56.8431 23.6889 56.2158 24.1659C55.5987 24.6488 54.9018 24.9942 54.1252 25.2023C53.3647 25.4061 52.6258 25.4668 51.9087 25.3844C51.1916 25.3019 50.5368 25.0998 49.9443 24.7781C49.3496 24.4483 48.8376 24.0106 48.4083 23.4649C47.9767 22.9112 47.6623 22.2661 47.465 21.5296ZM53.8102 22.9699C54.1465 22.8798 54.4765 22.7185 54.8003 22.4858C55.1241 22.2532 55.3998 21.9691 55.6274 21.6335C55.8608 21.2878 56.0232 20.9011 56.1145 20.4733C56.2138 20.0434 56.2002 19.5923 56.0736 19.1199C55.9449 18.6396 55.7367 18.2148 55.4491 17.8457C55.1614 17.4766 54.8207 17.1817 54.4269 16.9612C54.039 16.7305 53.6093 16.5839 53.1378 16.5215C52.6743 16.4569 52.1984 16.49 51.71 16.6209C50.8213 16.859 50.203 17.2735 49.8551 17.8644C49.505 18.4473 49.4576 19.2151 49.7129 20.1678C49.8524 20.6882 50.0582 21.1522 50.3304 21.5598C50.6085 21.9572 50.9317 22.2825 51.2998 22.5357C51.6659 22.7808 52.0617 22.945 52.4873 23.0284C52.9209 23.1095 53.3619 23.09 53.8102 22.9699Z" fill="url(#paint2_linear_177_33291)"/>
<path d="M41.6038 16.7539C42.0201 16.6424 42.4405 16.5941 42.865 16.609C43.2895 16.624 43.6777 16.6959 44.0297 16.8247C44.3875 16.9433 44.6939 17.1101 44.9489 17.3249C45.2017 17.5318 45.3645 17.7713 45.4374 18.0435C45.4846 18.2196 45.4947 18.4014 45.4677 18.5888C45.4386 18.7683 45.3811 18.9381 45.2954 19.0984C45.2074 19.2507 45.0982 19.3872 44.9675 19.508C44.8347 19.6208 44.6842 19.6998 44.5161 19.7448C44.332 19.7941 44.1456 19.7711 43.957 19.6758C43.7663 19.5725 43.5603 19.4603 43.3392 19.3394C43.1238 19.2083 42.8899 19.1037 42.6372 19.0255C42.3905 18.9372 42.119 18.9327 41.8228 19.012C41.5345 19.0893 41.2926 19.227 41.0969 19.4254C40.9012 19.6237 40.7565 19.8684 40.6629 20.1595C40.5751 20.4404 40.5323 20.7608 40.5343 21.1206C40.5422 21.4703 40.5987 21.8413 40.7038 22.2336C41.0041 23.3545 41.4458 24.1542 42.0289 24.633C42.6098 25.1037 43.2966 25.2329 44.0892 25.0205C44.4654 24.9197 44.7696 24.7739 45.0016 24.583C45.2416 24.39 45.4424 24.1946 45.6039 23.9968C45.7735 23.797 45.9262 23.6144 46.0622 23.4493C46.1981 23.2842 46.3542 23.178 46.5303 23.1308C46.6264 23.1051 46.731 23.1113 46.8443 23.1497C46.9553 23.1799 47.0598 23.2335 47.1576 23.3102C47.2612 23.3769 47.3521 23.4598 47.4302 23.559C47.5162 23.6561 47.5743 23.7606 47.6043 23.8727C47.6751 24.1369 47.616 24.4445 47.4268 24.7955C47.2457 25.1444 46.9821 25.4896 46.636 25.8312C46.2878 26.1647 45.8808 26.4711 45.415 26.7504C44.9573 27.0275 44.4922 27.2293 44.0199 27.3559C43.3874 27.5254 42.7737 27.5568 42.1788 27.4502C41.5861 27.3516 41.0396 27.1376 40.5395 26.8083C40.0372 26.4709 39.5965 26.027 39.2173 25.4764C38.8461 24.9238 38.5618 24.2792 38.3645 23.5426C38.15 22.742 38.0687 21.9744 38.1207 21.2396C38.1807 20.5028 38.3534 19.8344 38.6388 19.2345C38.9301 18.6244 39.3275 18.1061 39.831 17.6794C40.3324 17.2447 40.9233 16.9362 41.6038 16.7539Z" fill="url(#paint3_linear_177_33291)"/>
<path d="M34.1728 16.2354C33.9406 16.2977 33.7119 16.3246 33.4866 16.3164C33.2671 16.2979 33.0653 16.2491 32.881 16.1697C32.7025 16.0802 32.5468 15.9632 32.4136 15.8187C32.2805 15.6742 32.1872 15.5018 32.1335 15.3017C32.0434 14.9654 32.1026 14.6578 32.311 14.3789C32.5274 14.0978 32.8598 13.8972 33.3082 13.7771C33.5163 13.7213 33.7272 13.7077 33.9408 13.7363C34.1522 13.7568 34.3472 13.8119 34.5256 13.9013C34.712 13.9887 34.8729 14.1086 35.0081 14.2611C35.1413 14.4057 35.2325 14.57 35.2818 14.7541C35.3741 15.0984 35.3189 15.4049 35.1163 15.6737C34.9196 15.9324 34.6051 16.1196 34.1728 16.2354ZM33.509 20.339C33.4339 20.0588 33.4929 19.7985 33.6859 19.558C33.8847 19.3073 34.1843 19.1284 34.5846 19.0211C35.3051 18.8281 35.7559 18.9733 35.9369 19.4568C36.0612 19.7924 36.1973 20.1722 36.3451 20.5959C36.501 21.0175 36.6604 21.4682 36.8233 21.948C36.992 22.4176 37.1581 22.9094 37.3216 23.4233C37.4909 23.9271 37.6551 24.428 37.8143 24.926C37.9713 25.4159 38.12 25.8909 38.2605 26.3509C38.4009 26.811 38.5226 27.2332 38.6256 27.6174C38.7328 28.0177 38.6692 28.3566 38.4346 28.634C38.208 28.9092 37.8225 29.1197 37.2781 29.2656C37.0299 29.3321 36.8177 29.3246 36.6414 29.2432C36.4753 29.1675 36.3622 29.0176 36.3021 28.7935C36.0061 27.6887 35.7013 26.6634 35.3878 25.7177C35.0802 24.7618 34.7936 23.9162 34.5279 23.1808C34.2702 22.4433 34.0468 21.8338 33.8578 21.3525C33.6746 20.861 33.5584 20.5232 33.509 20.339Z" fill="url(#paint4_linear_177_33291)"/>
<path d="M84.6155 17.8719C84.1977 17.9838 83.7841 18.0252 83.3748 17.9959C82.9799 17.9627 82.6166 17.8748 82.2849 17.732C81.9494 17.5748 81.6619 17.3662 81.4224 17.1061C81.1972 16.8422 81.0383 16.5373 80.9457 16.1916C80.7835 15.5865 80.89 15.0329 81.2651 14.5309C81.6545 14.0251 82.2455 13.666 83.0379 13.4537C83.4125 13.3533 83.7919 13.3289 84.1763 13.3803C84.5712 13.4134 84.9292 13.5105 85.2503 13.6716C85.5858 13.8287 85.8734 14.0374 86.1129 14.2974C86.3524 14.5575 86.5166 14.8532 86.6054 15.1846C86.7753 15.8185 86.6779 16.3773 86.3134 16.861C85.9594 17.3265 85.3935 17.6634 84.6155 17.8719Z" fill="url(#paint5_linear_177_33291)"/>
<path d="M162.363 29.5874C162.363 26.3081 160.08 23.9314 156.798 23.9314C153.475 23.9314 151.144 26.3492 151.144 29.6931C151.144 33.3087 153.512 35.3271 157.706 35.3271C159.079 35.3318 160.433 34.9999 161.651 34.3597L161.112 32.2151C160.011 32.7626 158.792 33.0958 157.726 33.0958C155.552 33.0958 154.238 32.149 154.093 30.5313H162.295C162.321 30.3023 162.363 29.9236 162.363 29.5874ZM154.036 28.7463C154.181 27.2534 155.24 26.1818 156.777 26.1818C158.314 26.1818 159.373 27.2534 159.518 28.7463H154.036Z" fill="#CDD8D3"/>
<path d="M149.903 20H147.12V22.7964H149.903V20Z" fill="#CDD8D3"/>
<path d="M149.903 24.1207H147.12V35.1377H149.903V24.1207Z" fill="#CDD8D3"/>
<path d="M140.787 23.9314C139.146 23.9314 137.858 24.7315 137.028 26.013V24.1208H134.599V39.1966H137.381V33.6184C138.106 34.7209 139.403 35.3506 140.912 35.3506C143.674 35.3506 145.875 32.9314 145.875 29.6095C145.875 26.2875 143.736 23.9314 140.787 23.9314ZM140.207 32.952C138.566 32.952 137.362 31.5853 137.362 29.7137C137.362 27.7584 138.566 26.3286 140.207 26.3286C141.848 26.3286 143.032 27.7584 143.032 29.7137C143.03 31.5853 141.846 32.952 140.206 32.952H140.207Z" fill="#CDD8D3"/>
<path d="M128.325 23.9314C125.004 23.9314 122.678 26.3492 122.678 29.6931C122.678 33.3087 125.044 35.3271 129.24 35.3271C130.613 35.3316 131.967 34.9997 133.185 34.3597L132.64 32.2151C131.54 32.7626 130.32 33.0958 129.256 33.0958C127.081 33.0958 125.768 32.149 125.621 30.5313H133.829C133.849 30.2994 133.891 29.9207 133.891 29.5845C133.891 26.3125 131.606 23.9314 128.325 23.9314ZM125.563 28.7463C125.708 27.2534 126.768 26.1818 128.305 26.1818C129.842 26.1818 130.9 27.2534 131.045 28.7463H125.563Z" fill="#CDD8D3"/>
<path d="M118.71 23.9312C117.922 23.9192 117.145 24.1199 116.459 24.5125C115.773 24.9052 115.347 25.4757 114.951 26.1654V20H112.168V35.1375H114.951V30.1288C114.951 27.9621 115.949 26.4061 117.528 26.4061C118.669 26.4061 119.355 27.2473 119.355 28.9501V35.1316H122.137V28.2631C122.136 25.8718 121.367 23.9312 118.71 23.9312Z" fill="#CDD8D3"/>
<path d="M109.84 32.7419C109.26 32.7419 108.802 32.4262 108.802 31.6688V26.2858H111.086V24.1206H108.802V21.1744H106.02V24.1206H102.075L100.094 32.8182L98.4413 25.2847H96.1214L94.4686 32.8285L92.4677 24.1279H89.636L92.501 35.1449H95.7822L97.2611 28.8327L98.7733 35.1449H101.93L104.25 26.2932H106.021V32.1943C106.021 34.3595 107.1 35.3269 109.053 35.3269C110.057 35.332 111.045 35.0714 111.918 34.5709L111.356 32.3411C111.024 32.4894 110.422 32.7419 109.84 32.7419Z" fill="#CDD8D3"/>
<path d="M84.4439 23.9314C81.1207 23.9314 78.7328 26.3286 78.7328 29.6564C78.7328 32.9843 81.1207 35.355 84.4439 35.355C87.7454 35.355 90.1333 32.9579 90.1333 29.6564C90.1333 26.355 87.7454 23.9314 84.4439 23.9314ZM84.4439 32.952C82.8026 32.952 81.5978 31.5633 81.5978 29.6506C81.5978 27.7378 82.8026 26.3286 84.4439 26.3286C86.0852 26.3286 87.2886 27.7158 87.2886 29.63C87.2886 31.5442 86.0838 32.952 84.4439 32.952Z" fill="#CDD8D3"/>
<path d="M75.1182 26.4753V24.1265H72.5649V35.1435H75.3472V28.4731C75.9272 27.2327 77.3612 26.5648 78.6284 26.5648V23.9944L78.4834 23.9739C77.1538 23.9739 75.8866 24.9618 75.1182 26.4753Z" fill="#CDD8D3"/>
<path d="M162.415 35.1115V33.1006H163.951V35.1115H162.415Z" fill="#CDD8D3"/>
<path d="M168.153 35.2512C167.557 35.2512 167.022 35.1534 166.547 34.9579C166.072 34.7531 165.667 34.4738 165.332 34.12C164.997 33.7569 164.736 33.3473 164.55 32.8911C164.373 32.4349 164.285 31.9554 164.285 31.4527C164.285 30.7637 164.438 30.1353 164.746 29.5674C165.062 28.9902 165.509 28.5293 166.086 28.1849C166.663 27.8404 167.348 27.6682 168.139 27.6682C168.93 27.6682 169.61 27.8404 170.178 28.1849C170.746 28.5293 171.169 28.9809 171.449 29.5395L169.619 30.0981C169.461 29.8281 169.252 29.6233 168.991 29.4836C168.73 29.3347 168.442 29.2602 168.125 29.2602C167.771 29.2602 167.445 29.3533 167.148 29.5395C166.859 29.7164 166.631 29.9724 166.463 30.3076C166.296 30.6334 166.212 31.0151 166.212 31.4527C166.212 31.8809 166.296 32.2627 166.463 32.5978C166.64 32.9237 166.873 33.1843 167.162 33.3799C167.45 33.5661 167.771 33.6592 168.125 33.6592C168.349 33.6592 168.558 33.6219 168.754 33.5474C168.958 33.473 169.14 33.3705 169.298 33.2402C169.456 33.1099 169.573 32.9609 169.647 32.7933L171.477 33.3519C171.309 33.715 171.062 34.0409 170.737 34.3295C170.42 34.6181 170.043 34.8462 169.605 35.0138C169.177 35.172 168.693 35.2512 168.153 35.2512Z" fill="#CDD8D3"/>
<path d="M175.241 35.2512C174.645 35.2512 174.11 35.1534 173.635 34.9579C173.16 34.7531 172.755 34.4738 172.42 34.12C172.094 33.7662 171.843 33.3612 171.666 32.905C171.489 32.4489 171.401 31.9694 171.401 31.4667C171.401 30.9546 171.489 30.4705 171.666 30.0143C171.843 29.5581 172.094 29.1531 172.42 28.7993C172.755 28.4456 173.16 28.1709 173.635 27.9754C174.11 27.7706 174.645 27.6682 175.241 27.6682C175.837 27.6682 176.368 27.7706 176.833 27.9754C177.308 28.1709 177.713 28.4456 178.048 28.7993C178.383 29.1531 178.635 29.5581 178.802 30.0143C178.979 30.4705 179.068 30.9546 179.068 31.4667C179.068 31.9694 178.979 32.4489 178.802 32.905C178.635 33.3612 178.383 33.7662 178.048 34.12C177.722 34.4738 177.322 34.7531 176.847 34.9579C176.372 35.1534 175.837 35.2512 175.241 35.2512ZM173.328 31.4667C173.328 31.8949 173.412 32.2766 173.579 32.6118C173.747 32.9376 173.975 33.1937 174.264 33.3799C174.552 33.5661 174.878 33.6592 175.241 33.6592C175.595 33.6592 175.916 33.5661 176.205 33.3799C176.493 33.1843 176.722 32.9237 176.889 32.5978C177.066 32.2627 177.154 31.8809 177.154 31.4527C177.154 31.0337 177.066 30.6567 176.889 30.3215C176.722 29.9864 176.493 29.7257 176.205 29.5395C175.916 29.3533 175.595 29.2602 175.241 29.2602C174.878 29.2602 174.552 29.3579 174.264 29.5534C173.975 29.7396 173.747 30.0003 173.579 30.3355C173.412 30.6613 173.328 31.0384 173.328 31.4667Z" fill="#CDD8D3"/>
<path d="M191 35.1115H189.129V31.0058C189.129 30.4286 189.026 30.005 188.821 29.735C188.626 29.4557 188.351 29.316 187.998 29.316C187.634 29.316 187.285 29.4603 186.95 29.749C186.624 30.0283 186.392 30.396 186.252 30.8522V35.1115H184.381V31.0058C184.381 30.4193 184.278 29.991 184.073 29.721C183.878 29.451 183.603 29.316 183.249 29.316C182.886 29.316 182.537 29.4557 182.202 29.735C181.876 30.0143 181.643 30.382 181.504 30.8382V35.1115H179.632V27.7939H181.322V29.1485C181.602 28.6736 181.974 28.3106 182.439 28.0592C182.905 27.7985 183.44 27.6682 184.045 27.6682C184.651 27.6682 185.121 27.8171 185.456 28.115C185.8 28.413 186.019 28.7807 186.112 29.2183C186.41 28.7155 186.787 28.3338 187.243 28.0732C187.709 27.8032 188.23 27.6682 188.807 27.6682C189.264 27.6682 189.631 27.752 189.911 27.9195C190.199 28.0778 190.423 28.2966 190.581 28.5759C190.739 28.8459 190.846 29.1531 190.902 29.4976C190.967 29.8421 191 30.1912 191 30.545V35.1115Z" fill="#CDD8D3"/>
<path d="M68.8676 26.0556C68.0368 24.7726 66.7493 23.9314 65.0747 23.9314C62.1183 23.9314 60 26.3286 60 29.63C60 32.6569 62.1386 34.991 65.108 34.991C65.766 34.9991 66.4167 34.8512 67.0081 34.559C67.5995 34.2669 68.1152 33.8387 68.5138 33.3087V34.4023C68.5138 36.4839 67.3307 37.598 65.2544 37.598C63.7379 37.598 62.6171 37.2824 61.2875 36.6101L60.477 38.6917C61.9636 39.44 63.6015 39.8285 65.2617 39.8264C69.1242 39.8264 71.3049 37.8711 71.3049 34.4023V24.1267H68.8676V26.0556ZM65.6894 32.7421C64.0496 32.7421 62.8447 31.3754 62.8447 29.7137C62.8447 27.7584 64.0496 26.3286 65.6894 26.3286C67.3293 26.3286 68.5138 27.7584 68.5138 29.7137C68.5138 31.3754 67.3307 32.7421 65.6894 32.7421Z" fill="#CDD8D3"/>
<path d="M11.4119 15.8648C11.3459 14.9438 11.5967 14.0981 12.1349 13.2781C12.4952 12.7329 13.0062 12.1443 13.57 11.4959C15.0245 9.82085 16.8261 7.74745 17.2672 5C18.2262 7.10602 17.761 9.15379 16.6995 11.0369C16.2219 11.8834 15.6931 12.4914 15.1883 13.0715C14.5942 13.7541 14.0344 14.3979 13.6321 15.3445C13.4108 15.8593 13.285 16.3525 13.226 16.8347L11.4119 15.8648Z" fill="url(#paint6_radial_177_33291)"/>
<path d="M14.5244 17.5309C14.7457 16.7186 15.1285 15.9592 15.6372 15.2222C16.0581 14.6072 16.4526 14.1514 16.8067 13.7421C17.9979 12.3637 18.7372 11.508 18.5205 6.88824C18.6595 7.18489 18.797 7.47066 18.9306 7.74634L18.9313 7.74789C20.0931 10.1599 20.9084 11.8512 19.5386 14.1739C18.8614 15.3216 18.3676 15.8924 17.9311 16.3972C17.4396 16.9648 17.0202 17.4502 16.4929 18.5793L14.5244 17.5309Z" fill="url(#paint7_radial_177_33291)"/>
<path d="M19.6256 16.8034C19.0914 17.4362 18.2193 18.3091 18.1797 18.3666L23.1147 15.6075C23.0114 14.688 22.3335 13.6047 21.5002 12.0648C21.6687 14.0947 20.8767 15.3209 19.6256 16.8034Z" fill="url(#paint8_radial_177_33291)"/>
<path d="M23.0783 16.525C22.9455 17.1137 22.2186 18.3383 21.6843 18.9743C19.9961 20.9824 19.1171 21.839 17.6727 24.8606C17.5911 24.5336 17.5057 24.2253 17.4242 23.931C17.0211 22.4773 16.7734 21.2667 17.2564 20.223L23.0783 16.525Z" fill="url(#paint9_radial_177_33291)"/>
<path d="M16.5592 23.332C16.146 22.1229 15.8494 21.1119 16.0653 19.8329L14.3398 18.7084C14.2443 20.59 15.048 22.7869 17.2674 25.6151C17.1494 24.9147 16.7952 24.0232 16.5592 23.332Z" fill="url(#paint10_radial_177_33291)"/>
<path d="M13.1897 17.959C13.2192 18.571 13.5973 20.1885 13.9359 21.0443C12.9699 19.8119 11.9138 17.921 11.6117 16.9301L13.1897 17.959Z" fill="url(#paint11_radial_177_33291)"/>
<path d="M33.5128 27.1555C33.5128 24.356 28.3068 22.0015 21.2712 21.3422C20.6002 22.0955 19.9293 23.0305 19.2879 24.4088L18.3218 26.2438C18.1378 26.5824 17.7984 26.8045 17.4218 26.834C17.039 26.8635 16.6701 26.6958 16.4418 26.3891L15.8221 25.5566C14.5315 23.9087 13.5872 22.6033 12.8425 21.3818C6.01421 22.0924 1 24.4096 1 27.1555C1 30.466 8.28564 33.1536 17.2603 33.1536C17.6936 33.1536 18.1238 33.1474 18.5494 33.135L19.8664 29.4067L19.8773 29.3803C20.1677 28.6543 20.8666 28.179 21.6439 28.1681H21.6494L33.2767 28.1992C33.3963 27.9064 33.5128 27.4607 33.5128 27.1555Z" fill="url(#paint12_radial_177_33291)"/>
<path d="M22.1238 33.2343H31.2336L30.8352 34.2446H21.7736L19.7561 39.9997V33.8882L21.1671 29.8959C21.2471 29.694 21.4428 29.5597 21.6625 29.5566L32.7052 29.5597L32.2967 30.5552H23.0782L22.7955 31.3955H31.9814L31.545 32.3941H22.443L22.1238 33.2343Z" fill="url(#paint13_radial_177_33291)"/>
<path d="M1.55936 29.8015C2.60848 32.768 5.17577 36.2524 5.72169 36.7618C7.60716 38.5378 13.6822 40 18.4665 40V34.9998C10.1729 34.9998 3.69799 32.3137 1.55936 29.8015Z" fill="url(#paint14_radial_177_33291)"/>
<defs>
<linearGradient id="paint0_linear_177_33291" x1="72.1986" y1="8.00293" x2="75.7092" y2="21.1047" gradientUnits="userSpaceOnUse">
<stop stop-color="#FE5468"/>
<stop offset="1" stop-color="#FFDF27"/>
</linearGradient>
<linearGradient id="paint1_linear_177_33291" x1="62.6502" y1="10.2905" x2="65.5559" y2="21.1346" gradientUnits="userSpaceOnUse">
<stop stop-color="#FE5468"/>
<stop offset="1" stop-color="#FFDF27"/>
</linearGradient>
<linearGradient id="paint2_linear_177_33291" x1="50.9185" y1="14.3874" x2="53.837" y2="25.2795" gradientUnits="userSpaceOnUse">
<stop stop-color="#FE5468"/>
<stop offset="1" stop-color="#FFDF27"/>
</linearGradient>
<linearGradient id="paint3_linear_177_33291" x1="41.1535" y1="16.8746" x2="43.9658" y2="27.3704" gradientUnits="userSpaceOnUse">
<stop stop-color="#FE5468"/>
<stop offset="1" stop-color="#FFDF27"/>
</linearGradient>
<linearGradient id="paint4_linear_177_33291" x1="33.3682" y1="13.761" x2="37.5063" y2="29.2045" gradientUnits="userSpaceOnUse">
<stop stop-color="#FE5468"/>
<stop offset="1" stop-color="#FFDF27"/>
</linearGradient>
<linearGradient id="paint5_linear_177_33291" x1="83.1675" y1="13.419" x2="84.3778" y2="17.9356" gradientUnits="userSpaceOnUse">
<stop stop-color="#FE5468"/>
<stop offset="1" stop-color="#FFDF27"/>
</linearGradient>
<radialGradient id="paint6_radial_177_33291" cx="0" cy="0" r="1" gradientUnits="userSpaceOnUse" gradientTransform="translate(16.5886 8.67607) rotate(117.912) scale(10.1029 7.79739)">
<stop stop-color="#1DF7EF"/>
<stop offset="1" stop-color="#10808C"/>
</radialGradient>
<radialGradient id="paint7_radial_177_33291" cx="0" cy="0" r="1" gradientUnits="userSpaceOnUse" gradientTransform="translate(19.1779 10.5197) rotate(115.692) scale(9.78678 7.13373)">
<stop stop-color="#1DF7EF"/>
<stop offset="1" stop-color="#10808C"/>
</radialGradient>
<radialGradient id="paint8_radial_177_33291" cx="0" cy="0" r="1" gradientUnits="userSpaceOnUse" gradientTransform="translate(22.1873 14.0223) rotate(127.548) scale(5.99583 5.40526)">
<stop stop-color="#1DF7EF"/>
<stop offset="1" stop-color="#10808C"/>
</radialGradient>
<radialGradient id="paint9_radial_177_33291" cx="0" cy="0" r="1" gradientUnits="userSpaceOnUse" gradientTransform="translate(21.9342 19.1142) rotate(125.634) scale(7.73664 6.83516)">
<stop stop-color="#1DF7EF"/>
<stop offset="1" stop-color="#10808C"/>
</radialGradient>
<radialGradient id="paint10_radial_177_33291" cx="0" cy="0" r="1" gradientUnits="userSpaceOnUse" gradientTransform="translate(16.7158 20.8538) rotate(112.642) scale(5.64519 3.74229)">
<stop stop-color="#1DF7EF"/>
<stop offset="1" stop-color="#10808C"/>
</radialGradient>
<radialGradient id="paint11_radial_177_33291" cx="0" cy="0" r="1" gradientUnits="userSpaceOnUse" gradientTransform="translate(13.4991 18.2081) rotate(119.008) scale(3.54876 2.80805)">
<stop stop-color="#1DF7EF"/>
<stop offset="1" stop-color="#10808C"/>
</radialGradient>
<radialGradient id="paint12_radial_177_33291" cx="0" cy="0" r="1" gradientUnits="userSpaceOnUse" gradientTransform="translate(27.4029 25.0111) rotate(159.689) scale(25.6692 15.5905)">
<stop stop-color="#FFDF27"/>
<stop offset="0.9999" stop-color="#FE5468"/>
</radialGradient>
<radialGradient id="paint13_radial_177_33291" cx="0" cy="0" r="1" gradientUnits="userSpaceOnUse" gradientTransform="translate(30.2717 32.8004) rotate(140.592) scale(12.4091 11.3565)">
<stop stop-color="#1DF7EF"/>
<stop offset="0.9999" stop-color="#10808C"/>
</radialGradient>
<radialGradient id="paint14_radial_177_33291" cx="0" cy="0" r="1" gradientUnits="userSpaceOnUse" gradientTransform="translate(15.2892 32.9693) rotate(148.427) scale(14.6935 12.2292)">
<stop stop-color="#1DF7EF"/>
<stop offset="0.9999" stop-color="#10808C"/>
</radialGradient>
</defs>
</svg>
