<svg width="206" height="45" viewBox="0 0 206 45" fill="none" xmlns="http://www.w3.org/2000/svg">
<path d="M11.4119 15.8648C11.3459 14.9438 11.5967 14.0981 12.1349 13.2781C12.4952 12.7329 13.0062 12.1443 13.5699 11.4959C15.0244 9.82085 16.826 7.74745 17.2671 5C18.2262 7.10602 17.761 9.15379 16.6995 11.0369C16.2219 11.8834 15.693 12.4914 15.1883 13.0715C14.5942 13.7541 14.0343 14.3979 13.6321 15.3445C13.4107 15.8593 13.2849 16.3525 13.2259 16.8347L11.4119 15.8648Z" fill="url(#paint0_radial_21411_74255)"/>
<path d="M14.5244 17.5309C14.7457 16.7186 15.1285 15.9591 15.6372 15.2222C16.058 14.6071 16.4525 14.1513 16.8066 13.7421C17.9979 12.3637 18.7372 11.5079 18.5205 6.88818C18.6595 7.18483 18.797 7.4706 18.9305 7.74628L18.9313 7.74783C20.093 10.1598 20.9084 11.8511 19.5386 14.1738C18.8614 15.3216 18.3675 15.8923 17.9311 16.3971C17.4395 16.9648 17.0202 17.4501 16.4929 18.5792L14.5244 17.5309Z" fill="url(#paint1_radial_21411_74255)"/>
<path d="M19.6256 16.8035C19.0913 17.4364 18.2192 18.3092 18.1796 18.3667L23.1146 15.6076C23.0114 14.6881 22.3334 13.6048 21.5002 12.0649C21.6687 14.0949 20.8766 15.321 19.6256 16.8035Z" fill="url(#paint2_radial_21411_74255)"/>
<path d="M23.0783 16.5251C22.9455 17.1138 22.2186 18.3384 21.6843 18.9744C19.9961 20.9826 19.1171 21.8391 17.6727 24.8607C17.5911 24.5338 17.5057 24.2255 17.4242 23.9311C17.0211 22.4774 16.7734 21.2668 17.2564 20.2231L23.0783 16.5251Z" fill="url(#paint3_radial_21411_74255)"/>
<path d="M16.5591 23.3321C16.146 22.123 15.8494 21.1119 16.0653 19.8329L14.3397 18.7085C14.2442 20.5901 15.048 22.787 17.2674 25.6152C17.1493 24.9147 16.7952 24.0232 16.5591 23.3321Z" fill="url(#paint4_radial_21411_74255)"/>
<path d="M13.1897 17.9591C13.2192 18.571 13.5973 20.1886 13.9359 21.0444C12.9699 19.812 11.9138 17.9211 11.6117 16.9302L13.1897 17.9591Z" fill="url(#paint5_radial_21411_74255)"/>
<path d="M33.5128 27.1553C33.5128 24.3558 28.3068 22.0013 21.2712 21.342C20.6002 22.0953 19.9293 23.0303 19.2879 24.4087L18.3218 26.2437C18.1378 26.5822 17.7984 26.8043 17.4218 26.8338C17.039 26.8633 16.6701 26.6956 16.4418 26.3889L15.8221 25.5564C14.5315 23.9086 13.5872 22.6032 12.8425 21.3816C6.01421 22.0922 1 24.4094 1 27.1553C1 30.4658 8.28564 33.1534 17.2603 33.1534C17.6936 33.1534 18.1238 33.1472 18.5494 33.1348L19.8664 29.4066L19.8773 29.3802C20.1677 28.6541 20.8666 28.1788 21.6439 28.168H21.6494L33.2767 28.199C33.3963 27.9063 33.5128 27.4605 33.5128 27.1553Z" fill="url(#paint6_radial_21411_74255)"/>
<path d="M22.1238 33.2344H31.2336L30.8352 34.2447H21.7736L19.7561 39.9997V33.8883L21.1671 29.896C21.2471 29.6941 21.4428 29.5597 21.6625 29.5566L32.7052 29.5597L32.2967 30.5553H23.0782L22.7955 31.3955H31.9814L31.545 32.3942H22.443L22.1238 33.2344Z" fill="url(#paint7_radial_21411_74255)"/>
<path d="M1.55933 29.8015C2.60845 32.768 5.17574 36.2524 5.72166 36.7618C7.60713 38.5378 13.6821 40 18.4665 40V34.9998C10.1729 34.9998 3.69796 32.3137 1.55933 29.8015Z" fill="url(#paint8_radial_21411_74255)"/>
<path d="M173.363 29.5874C173.363 26.3081 171.08 23.9314 167.798 23.9314C164.475 23.9314 162.144 26.3492 162.144 29.6931C162.144 33.3087 164.512 35.3271 168.706 35.3271C170.079 35.3318 171.433 34.9999 172.651 34.3597L172.112 32.2151C171.011 32.7626 169.792 33.0958 168.726 33.0958C166.552 33.0958 165.238 32.149 165.093 30.5313H173.295C173.321 30.3023 173.363 29.9236 173.363 29.5874ZM165.036 28.7463C165.181 27.2534 166.24 26.1818 167.777 26.1818C169.314 26.1818 170.373 27.2534 170.518 28.7463H165.036Z" fill="#CDD8D3"/>
<path d="M160.903 20H158.12V22.7964H160.903V20Z" fill="#CDD8D3"/>
<path d="M160.903 24.1207H158.12V35.1377H160.903V24.1207Z" fill="#CDD8D3"/>
<path d="M151.787 23.9314C150.146 23.9314 148.858 24.7315 148.028 26.013V24.1208H145.599V39.1966H148.381V33.6184C149.106 34.7209 150.403 35.3506 151.912 35.3506C154.674 35.3506 156.875 32.9314 156.875 29.6095C156.875 26.2875 154.736 23.9314 151.787 23.9314ZM151.207 32.952C149.566 32.952 148.362 31.5853 148.362 29.7137C148.362 27.7584 149.566 26.3286 151.207 26.3286C152.848 26.3286 154.032 27.7584 154.032 29.7137C154.03 31.5853 152.846 32.952 151.206 32.952H151.207Z" fill="#CDD8D3"/>
<path d="M139.325 23.9314C136.004 23.9314 133.678 26.3492 133.678 29.6931C133.678 33.3087 136.044 35.3271 140.24 35.3271C141.613 35.3316 142.967 34.9997 144.185 34.3597L143.64 32.2151C142.54 32.7626 141.32 33.0958 140.256 33.0958C138.081 33.0958 136.768 32.149 136.621 30.5313H144.829C144.849 30.2994 144.891 29.9207 144.891 29.5845C144.891 26.3125 142.606 23.9314 139.325 23.9314ZM136.563 28.7463C136.708 27.2534 137.768 26.1818 139.305 26.1818C140.842 26.1818 141.9 27.2534 142.045 28.7463H136.563Z" fill="#CDD8D3"/>
<path d="M129.71 23.9312C128.922 23.9192 128.145 24.1199 127.459 24.5125C126.773 24.9052 126.347 25.4757 125.951 26.1654V20H123.168V35.1375H125.951V30.1288C125.951 27.9621 126.949 26.4061 128.528 26.4061C129.669 26.4061 130.355 27.2473 130.355 28.9501V35.1316H133.137V28.2631C133.136 25.8718 132.367 23.9312 129.71 23.9312Z" fill="#CDD8D3"/>
<path d="M120.84 32.7419C120.26 32.7419 119.802 32.4262 119.802 31.6688V26.2858H122.086V24.1206H119.802V21.1744H117.02V24.1206H113.075L111.094 32.8182L109.441 25.2847H107.121L105.469 32.8285L103.468 24.1279H100.636L103.501 35.1449H106.782L108.261 28.8327L109.773 35.1449H112.93L115.25 26.2932H117.021V32.1943C117.021 34.3595 118.1 35.3269 120.053 35.3269C121.057 35.332 122.045 35.0714 122.918 34.5709L122.356 32.3411C122.024 32.4894 121.422 32.7419 120.84 32.7419Z" fill="#CDD8D3"/>
<path d="M95.4439 23.9314C92.1207 23.9314 89.7328 26.3286 89.7328 29.6564C89.7328 32.9843 92.1207 35.355 95.4439 35.355C98.7454 35.355 101.133 32.9579 101.133 29.6564C101.133 26.355 98.7454 23.9314 95.4439 23.9314ZM95.4439 32.952C93.8026 32.952 92.5978 31.5633 92.5978 29.6506C92.5978 27.7378 93.8026 26.3286 95.4439 26.3286C97.0852 26.3286 98.2886 27.7158 98.2886 29.63C98.2886 31.5442 97.0838 32.952 95.4439 32.952Z" fill="#CDD8D3"/>
<path d="M86.1182 26.4753V24.1265H83.5649V35.1435H86.3472V28.4731C86.9272 27.2327 88.3612 26.5648 89.6284 26.5648V23.9944L89.4834 23.9739C88.1538 23.9739 86.8866 24.9618 86.1182 26.4753Z" fill="#CDD8D3"/>
<path d="M173.415 35.1115V33.1006H174.951V35.1115H173.415Z" fill="#CDD8D3"/>
<path d="M179.153 35.2512C178.557 35.2512 178.022 35.1534 177.547 34.9579C177.072 34.7531 176.667 34.4738 176.332 34.12C175.997 33.7569 175.736 33.3473 175.55 32.8911C175.373 32.4349 175.285 31.9554 175.285 31.4527C175.285 30.7637 175.438 30.1353 175.746 29.5674C176.062 28.9902 176.509 28.5293 177.086 28.1849C177.663 27.8404 178.348 27.6682 179.139 27.6682C179.93 27.6682 180.61 27.8404 181.178 28.1849C181.746 28.5293 182.169 28.9809 182.449 29.5395L180.619 30.0981C180.461 29.8281 180.252 29.6233 179.991 29.4836C179.73 29.3347 179.442 29.2602 179.125 29.2602C178.771 29.2602 178.445 29.3533 178.148 29.5395C177.859 29.7164 177.631 29.9724 177.463 30.3076C177.296 30.6334 177.212 31.0151 177.212 31.4527C177.212 31.8809 177.296 32.2627 177.463 32.5978C177.64 32.9237 177.873 33.1843 178.162 33.3799C178.45 33.5661 178.771 33.6592 179.125 33.6592C179.349 33.6592 179.558 33.6219 179.754 33.5474C179.958 33.473 180.14 33.3705 180.298 33.2402C180.456 33.1099 180.573 32.9609 180.647 32.7933L182.477 33.3519C182.309 33.715 182.062 34.0409 181.737 34.3295C181.42 34.6181 181.043 34.8462 180.605 35.0138C180.177 35.172 179.693 35.2512 179.153 35.2512Z" fill="#CDD8D3"/>
<path d="M186.241 35.2512C185.645 35.2512 185.11 35.1534 184.635 34.9579C184.16 34.7531 183.755 34.4738 183.42 34.12C183.094 33.7662 182.843 33.3612 182.666 32.905C182.489 32.4489 182.401 31.9694 182.401 31.4667C182.401 30.9546 182.489 30.4705 182.666 30.0143C182.843 29.5581 183.094 29.1531 183.42 28.7993C183.755 28.4456 184.16 28.1709 184.635 27.9754C185.11 27.7706 185.645 27.6682 186.241 27.6682C186.837 27.6682 187.368 27.7706 187.833 27.9754C188.308 28.1709 188.713 28.4456 189.048 28.7993C189.383 29.1531 189.635 29.5581 189.802 30.0143C189.979 30.4705 190.068 30.9546 190.068 31.4667C190.068 31.9694 189.979 32.4489 189.802 32.905C189.635 33.3612 189.383 33.7662 189.048 34.12C188.722 34.4738 188.322 34.7531 187.847 34.9579C187.372 35.1534 186.837 35.2512 186.241 35.2512ZM184.328 31.4667C184.328 31.8949 184.412 32.2766 184.579 32.6118C184.747 32.9376 184.975 33.1937 185.264 33.3799C185.552 33.5661 185.878 33.6592 186.241 33.6592C186.595 33.6592 186.916 33.5661 187.205 33.3799C187.493 33.1843 187.722 32.9237 187.889 32.5978C188.066 32.2627 188.154 31.8809 188.154 31.4527C188.154 31.0337 188.066 30.6567 187.889 30.3215C187.722 29.9864 187.493 29.7257 187.205 29.5395C186.916 29.3533 186.595 29.2602 186.241 29.2602C185.878 29.2602 185.552 29.3579 185.264 29.5534C184.975 29.7396 184.747 30.0003 184.579 30.3355C184.412 30.6613 184.328 31.0384 184.328 31.4667Z" fill="#CDD8D3"/>
<path d="M202 35.1115H200.129V31.0058C200.129 30.4286 200.026 30.005 199.821 29.735C199.626 29.4557 199.351 29.316 198.998 29.316C198.634 29.316 198.285 29.4603 197.95 29.749C197.624 30.0283 197.392 30.396 197.252 30.8522V35.1115H195.381V31.0058C195.381 30.4193 195.278 29.991 195.073 29.721C194.878 29.451 194.603 29.316 194.249 29.316C193.886 29.316 193.537 29.4557 193.202 29.735C192.876 30.0143 192.643 30.382 192.504 30.8382V35.1115H190.632V27.7939H192.322V29.1485C192.602 28.6736 192.974 28.3106 193.439 28.0592C193.905 27.7985 194.44 27.6682 195.045 27.6682C195.651 27.6682 196.121 27.8171 196.456 28.115C196.8 28.413 197.019 28.7807 197.112 29.2183C197.41 28.7155 197.787 28.3338 198.243 28.0732C198.709 27.8032 199.23 27.6682 199.807 27.6682C200.264 27.6682 200.631 27.752 200.911 27.9195C201.199 28.0778 201.423 28.2966 201.581 28.5759C201.739 28.8459 201.846 29.1531 201.902 29.4976C201.967 29.8421 202 30.1912 202 30.545V35.1115Z" fill="#CDD8D3"/>
<path d="M79.8676 26.0556C79.0368 24.7726 77.7493 23.9314 76.0747 23.9314C73.1183 23.9314 71 26.3286 71 29.63C71 32.6569 73.1386 34.991 76.108 34.991C76.766 34.9991 77.4167 34.8512 78.0081 34.559C78.5995 34.2669 79.1152 33.8387 79.5138 33.3087V34.4023C79.5138 36.4839 78.3307 37.598 76.2544 37.598C74.7379 37.598 73.6171 37.2824 72.2875 36.6101L71.477 38.6917C72.9636 39.44 74.6015 39.8285 76.2617 39.8264C80.1242 39.8264 82.3049 37.8711 82.3049 34.4023V24.1267H79.8676V26.0556ZM76.6894 32.7421C75.0496 32.7421 73.8447 31.3754 73.8447 29.7137C73.8447 27.7584 75.0496 26.3286 76.6894 26.3286C78.3293 26.3286 79.5138 27.7584 79.5138 29.7137C79.5138 31.3754 78.3307 32.7421 76.6894 32.7421Z" fill="#CDD8D3"/>
<path d="M103.214 15.1942C102.797 15.3061 102.383 15.3474 101.974 15.3181C101.579 15.285 101.216 15.197 100.884 15.0543C100.548 14.8971 100.261 14.6885 100.021 14.4284C99.7962 14.1645 99.6373 13.8596 99.5446 13.5138C99.3825 12.9087 99.4889 12.3552 99.864 11.8532C100.253 11.3474 100.844 10.9883 101.637 10.776C102.011 10.6756 102.391 10.6511 102.775 10.7026C103.17 10.7357 103.528 10.8328 103.849 10.9938C104.185 11.151 104.472 11.3596 104.712 11.6197C104.951 11.8798 105.116 12.1755 105.204 12.5069C105.374 13.1408 105.277 13.6996 104.912 14.1833C104.558 14.6488 103.992 14.9857 103.214 15.1942Z" fill="url(#paint9_linear_21411_74255)"/>
<path d="M89.863 4.67959C90.46 4.51963 91.0963 4.43508 91.7719 4.42595C92.4452 4.40791 93.0781 4.45321 93.6706 4.56184C94.2608 4.66155 94.7658 4.81753 95.1856 5.02976C95.6054 5.24199 95.8534 5.49067 95.9298 5.7758C95.968 5.91837 95.9487 6.09547 95.8717 6.30711C95.7923 6.50983 95.685 6.71527 95.5497 6.92341C95.4121 7.12264 95.2507 7.30436 95.0655 7.46859C94.8868 7.62152 94.7173 7.71947 94.5569 7.76245C94.343 7.81975 94.0786 7.79511 93.7635 7.68853C93.4574 7.57956 93.1152 7.46112 92.7372 7.33322C92.3656 7.19402 91.9688 7.08546 91.5468 7.00753C91.1249 6.92959 90.6956 6.94912 90.2589 7.06611C89.9738 7.14252 89.7568 7.27707 89.6079 7.46978C89.4655 7.65118 89.4277 7.86664 89.4945 8.11613C89.5542 8.33889 89.722 8.53746 89.998 8.71183C90.2715 8.87729 90.6143 9.03376 91.0262 9.18122C91.4471 9.3263 91.9161 9.47281 92.4333 9.62075C92.9504 9.76869 93.4813 9.93206 94.0258 10.1109C94.5792 10.2873 95.1265 10.494 95.6675 10.731C96.2085 10.9681 96.7089 11.2494 97.1686 11.5751C97.6372 11.8984 98.0453 12.2809 98.3929 12.7226C98.7381 13.1554 98.9882 13.6613 99.1434 14.2405C99.2771 14.7395 99.3098 15.2178 99.2414 15.6755C99.173 16.1331 99.0134 16.5531 98.7625 16.9355C98.5116 17.3179 98.1804 17.6501 97.769 17.9323C97.3575 18.2145 96.88 18.4284 96.3365 18.574C95.6504 18.7578 94.9891 18.8204 94.3526 18.7618C93.7185 18.712 93.1431 18.5606 92.6264 18.3075C92.1097 18.0544 91.663 17.7061 91.2864 17.2626C90.9186 16.8168 90.6536 16.291 90.4912 15.685C90.2811 14.9009 90.2664 14.2936 90.4471 13.8632C90.6368 13.4304 91.0345 13.1328 91.6404 12.9704C92.0147 12.8702 92.3323 12.8615 92.5932 12.9443C92.8542 13.0272 93.0122 13.1711 93.0671 13.3761C93.0957 13.483 93.1077 13.5992 93.1031 13.7245C93.0961 13.841 93.0871 13.9676 93.076 14.1043C93.0714 14.2297 93.0691 14.364 93.0693 14.5072C93.0784 14.648 93.1008 14.7852 93.1367 14.9189C93.1987 15.1506 93.3119 15.359 93.4761 15.5442C93.6403 15.7294 93.833 15.8783 94.0542 15.991C94.2867 16.1101 94.5364 16.1865 94.8032 16.22C95.0701 16.2536 95.3372 16.2345 95.6045 16.1629C96.3173 15.9719 96.5949 15.5824 96.4374 14.9943C96.3132 14.5309 96.0135 14.1433 95.5384 13.8313C95.0608 13.5104 94.4933 13.2279 93.8358 12.9839C93.1759 12.7309 92.4715 12.4899 91.7225 12.2608C90.9824 12.0294 90.2776 11.7694 89.6082 11.4808C88.9388 11.1922 88.3557 10.8518 87.8591 10.4596C87.36 10.0585 87.0329 9.56839 86.8777 8.9892C86.7488 8.50804 86.7286 8.04071 86.8172 7.58721C86.9147 7.13132 87.099 6.71425 87.3701 6.336C87.6389 5.94884 87.9834 5.61299 88.4038 5.32845C88.8331 5.04152 89.3195 4.82523 89.863 4.67959Z" fill="url(#paint10_linear_21411_74255)"/>
<path d="M81.3441 5.52237C81.22 5.05902 81.2653 4.69352 81.4801 4.42586C81.6949 4.15821 82.1097 3.94201 82.7245 3.77727C82.9383 3.71996 83.1314 3.6921 83.3038 3.69368C83.4761 3.69525 83.63 3.73518 83.7656 3.81346C83.8988 3.88282 84.0205 3.99825 84.1306 4.15975C84.2472 4.30995 84.3636 4.51273 84.4798 4.76811C84.8081 5.53011 85.1472 6.3322 85.497 7.17439C85.8534 8.00528 86.2008 8.83856 86.5393 9.67423C86.8844 10.4986 87.2157 11.3075 87.5334 12.101C87.8487 12.8856 88.1363 13.6203 88.3962 14.3052C88.6626 14.9787 88.8864 15.5825 89.0677 16.1164C89.2555 16.6391 89.3912 17.0564 89.4748 17.3683C89.5607 17.6891 89.6024 17.9692 89.5997 18.2087C89.6059 18.4457 89.5557 18.6502 89.4489 18.8221C89.3511 18.9916 89.1991 19.1373 88.9931 19.2594C88.7935 19.3701 88.5334 19.4685 88.2126 19.5545C87.9007 19.638 87.6298 19.6247 87.3997 19.5144C87.1785 19.4018 87.0237 19.1806 86.9354 18.8509C86.8446 18.5123 86.6973 18.0695 86.4935 17.5225C86.2872 16.9665 86.0464 16.353 85.7711 15.6819C85.4957 15.0107 85.1951 14.2986 84.8691 13.5455C84.5521 12.79 84.2286 12.0459 83.8985 11.313C83.5773 10.5777 83.2645 9.87365 82.9601 9.20076C82.6621 8.51657 82.3958 7.91464 82.161 7.39498C81.9239 6.8664 81.732 6.43552 81.5855 6.10234C81.4365 5.76024 81.3561 5.56692 81.3441 5.52237Z" fill="url(#paint11_linear_21411_74255)"/>
<path d="M83.125 16.9837C83.3237 16.6917 83.5478 16.5122 83.7973 16.4454C83.9399 16.4072 84.0786 16.4082 84.2136 16.4485C84.3485 16.4887 84.5075 16.5655 84.6907 16.6787C84.8793 16.8479 85.0182 16.9921 85.1075 17.1114C85.2033 17.2195 85.2679 17.3359 85.3013 17.4606C85.3729 17.7279 85.3073 18.0177 85.1045 18.3299C84.7723 18.8009 84.3949 19.2458 83.9723 19.6647C83.5473 20.0746 83.0893 20.4504 82.5983 20.7921C82.1073 21.1338 81.5853 21.4312 81.0324 21.6844C80.4819 21.9465 79.9215 22.154 79.3512 22.3068C78.6295 22.5002 77.9272 22.5881 77.2444 22.5705C76.564 22.5618 75.929 22.455 75.3392 22.2501C74.7584 22.0428 74.2355 21.7484 73.7703 21.3669C73.3028 20.9764 72.9178 20.5018 72.6152 19.943C72.4682 19.715 72.3495 19.5749 72.2591 19.5227C72.1752 19.4592 72.0576 19.4478 71.9061 19.4884C71.5764 19.5767 71.301 19.5646 71.0798 19.4519C70.8586 19.3393 70.7074 19.1315 70.6262 18.8285C70.5928 18.7038 70.5802 18.6212 70.5885 18.5808L70.5436 18.3063C70.5022 17.9736 70.5248 17.7192 70.6113 17.5433C70.7068 17.3649 70.8926 17.2387 71.1688 17.1647L71.3693 17.1109C71.7436 17.0107 71.9599 16.7665 72.0182 16.3784C72.1297 15.6895 72.3313 15.0339 72.6229 14.4114C72.9145 13.7889 73.2799 13.2278 73.719 12.7281C74.1557 12.2195 74.6508 11.786 75.2042 11.4277C75.7641 11.058 76.3604 10.7884 76.993 10.6189C77.6524 10.4422 78.2935 10.3755 78.9163 10.4187C79.5456 10.4506 80.1195 10.5786 80.6379 10.8026C81.1563 11.0266 81.5967 11.3335 81.9591 11.7235C82.3303 12.1111 82.5864 12.5678 82.7273 13.0935C82.8251 13.4588 82.8434 13.812 82.782 14.1532C82.7206 14.4944 82.5873 14.8166 82.3821 15.1199C82.1744 15.4143 81.8982 15.6841 81.5532 15.9293C81.2172 16.1722 80.8145 16.3803 80.3453 16.5538L75.8327 18.2643C75.6545 18.3121 75.5194 18.396 75.4275 18.5162C75.3444 18.6339 75.3232 18.7685 75.3638 18.92C75.4259 19.1517 75.5702 19.3518 75.7968 19.5203C76.0323 19.6864 76.3153 19.8159 76.6458 19.9088C76.9828 19.9904 77.3516 20.03 77.7521 20.0278C78.1615 20.0231 78.5667 19.9671 78.9677 19.8596C79.3508 19.757 79.7333 19.6163 80.1152 19.4376C80.5036 19.2475 80.8747 19.0287 81.2286 18.7811C81.5914 18.5311 81.9336 18.2579 82.2553 17.9616C82.5747 17.6564 82.8645 17.3304 83.125 16.9837ZM79.2205 14.3339C79.3469 14.2714 79.4461 14.178 79.5178 14.0537C79.5872 13.9205 79.6016 13.7782 79.561 13.6267C79.5252 13.4931 79.4427 13.3814 79.3137 13.2919C79.1846 13.2023 79.0235 13.1356 78.8303 13.0919C78.6348 13.0392 78.4185 13.016 78.1814 13.0223C77.9443 13.0285 77.701 13.065 77.4515 13.1319C77.0862 13.2298 76.7262 13.3835 76.3717 13.5931C76.0172 13.8027 75.7079 14.0384 75.4438 14.3001C75.1773 14.553 74.9747 14.8126 74.836 15.079C74.6949 15.3365 74.6518 15.5677 74.7067 15.7726C74.7616 15.9776 74.9138 16.0466 75.1633 15.9798C75.3148 15.9392 75.555 15.8557 75.8841 15.7293C76.2131 15.6029 76.5766 15.4626 76.9746 15.3082C77.3701 15.1449 77.7689 14.976 78.171 14.8014C78.5731 14.6268 78.9229 14.471 79.2205 14.3339Z" fill="url(#paint12_linear_21411_74255)"/>
<path d="M59.3063 25.2227C58.5783 23.183 57.8272 21.1639 57.0529 19.1652C56.2875 17.1642 55.4208 15.1951 54.4529 13.2579C54.416 13.1914 54.3904 13.1314 54.376 13.078C54.3593 13.0156 54.3438 12.9577 54.3295 12.9042C54.2746 12.6993 54.2669 12.5103 54.3065 12.3373C54.355 12.162 54.4374 12.0062 54.5538 11.87C54.6677 11.7249 54.8066 11.6017 54.9705 11.5005C55.1433 11.3969 55.3321 11.3176 55.5371 11.2627C56.0806 11.1171 56.5229 11.2707 56.8639 11.7237C57.0223 11.9582 57.2105 12.3042 57.4285 12.7615C57.6554 13.2164 57.9027 13.747 58.1702 14.3534C58.4466 14.9574 58.7353 15.6249 59.0363 16.3561C59.3349 17.0783 59.635 17.824 59.9365 18.5931C60.023 18.8087 60.1241 18.901 60.2399 18.87C60.3379 18.8437 60.4225 18.7494 60.4936 18.5871C61.3361 16.5277 62.6485 15.2593 64.4306 14.7817C65.0988 14.6027 65.762 14.5826 66.4199 14.7214C67.0779 14.8603 67.6888 15.1264 68.2526 15.5197C68.8164 15.9129 69.3117 16.4249 69.7385 17.0554C70.1742 17.6836 70.4995 18.3986 70.7144 19.2006C70.915 19.9491 70.9809 20.6763 70.9122 21.3823C70.8524 22.086 70.6752 22.7256 70.3806 23.3011C70.086 23.8767 69.6849 24.3757 69.1773 24.7982C68.6763 25.2094 68.0872 25.5058 67.41 25.6872C66.5724 25.9117 65.7096 25.9709 64.8217 25.865C63.9315 25.7502 63.0559 25.5121 62.195 25.1506C62.0957 25.1009 62.0015 25.0879 61.9124 25.1118C61.7966 25.1428 61.7064 25.2338 61.6418 25.3848C61.5422 25.5834 61.4194 25.7309 61.2733 25.8274C61.1248 25.9149 60.9348 25.9897 60.7031 26.0518C59.9992 26.2404 59.5336 25.9641 59.3063 25.2227ZM64.6289 17.3931C64.2725 17.4886 63.9387 17.6688 63.6277 17.9336C63.3231 18.1871 63.0555 18.5071 62.8248 18.8936C62.5941 19.2801 62.4024 19.7231 62.2497 20.2224C62.1035 20.7104 62.0106 21.2367 61.9708 21.8013C61.9602 21.8328 61.9576 21.8765 61.963 21.9323C61.9684 21.9882 61.9759 22.0339 61.9854 22.0696C62.026 22.221 62.1105 22.3225 62.2389 22.3741C62.6337 22.5644 63.0327 22.7344 63.4357 22.8843C63.8477 23.0317 64.2469 23.1492 64.6332 23.2367C65.0196 23.3242 65.3919 23.3772 65.7502 23.3958C66.1062 23.4055 66.4267 23.3721 66.7119 23.2957C67.3534 23.1238 67.7889 22.8066 68.0183 22.344C68.2566 21.879 68.2803 21.2901 68.0893 20.5773C67.9413 20.0248 67.7428 19.5336 67.4939 19.1037C67.2426 18.6649 66.9647 18.3048 66.6601 18.0235C66.3531 17.7333 66.0231 17.5353 65.67 17.4293C65.3234 17.3121 64.9764 17.3 64.6289 17.3931Z" fill="url(#paint13_linear_21411_74255)"/>
<path d="M49.4501 17.3606C49.9402 17.2293 50.4327 17.1785 50.9277 17.2082C51.4228 17.2379 51.8798 17.3399 52.299 17.5141C52.7181 17.6883 53.0803 17.935 53.3855 18.2543C53.6996 18.5713 53.9176 18.957 54.0394 19.4114C54.0895 19.5985 54.0939 19.7931 54.0525 19.9952C54.0177 20.186 53.9469 20.3673 53.8402 20.5392C53.731 20.7021 53.5936 20.8488 53.428 20.9791C53.2689 21.0981 53.0913 21.1839 52.8953 21.2364C52.8775 21.2412 52.8608 21.2505 52.8454 21.2641C52.8365 21.2665 52.8231 21.2701 52.8053 21.2749C52.7899 21.2886 52.7732 21.2978 52.7554 21.3026L53.0954 22.3575C53.4725 23.6222 53.9002 24.5055 54.3785 25.0077C54.8658 25.5074 55.3723 25.6869 55.898 25.546C56.0851 25.4959 56.2452 25.4339 56.3782 25.36C56.5201 25.2838 56.6475 25.2067 56.7603 25.1287C56.8796 25.0395 56.9925 24.9615 57.0987 24.8948C57.205 24.8281 57.3161 24.7793 57.4319 24.7482C57.6369 24.6933 57.8389 24.7347 58.0382 24.8723C58.2463 25.0075 58.3838 25.1999 58.4507 25.4494C58.5175 25.6989 58.4864 25.9746 58.3572 26.2766C58.2369 26.5763 58.0483 26.8703 57.7913 27.1589C57.532 27.4384 57.223 27.6931 56.8644 27.9229C56.5057 28.1527 56.1259 28.3214 55.725 28.4288C55.0299 28.615 54.3432 28.4934 53.6647 28.064C52.9837 27.6257 52.3827 26.8795 51.8615 25.8254C51.7603 25.6615 51.6651 25.5915 51.576 25.6154C51.4691 25.644 51.3898 25.7226 51.3383 25.851C50.7546 27.2011 50.039 28.2906 49.1914 29.1194C48.3415 29.9392 47.4309 30.4793 46.4596 30.7395C46.0052 30.8613 45.5774 30.9043 45.1763 30.8685C44.7751 30.8328 44.4131 30.7292 44.0902 30.5579C43.7739 30.3752 43.4979 30.1292 43.2622 29.8199C43.033 29.4993 42.86 29.1207 42.743 28.6841C42.5782 28.0693 42.5388 27.3875 42.6247 26.6386C42.7194 25.8874 42.9101 25.1201 43.1968 24.3365C43.4835 23.553 43.8498 22.7816 44.2957 22.0222C44.7506 21.2605 45.2513 20.5628 45.7978 19.9293C46.3532 19.2934 46.9426 18.7487 47.566 18.2952C48.1894 17.8416 48.8174 17.5301 49.4501 17.3606ZM50.2482 22.1033C50.3274 21.7574 50.4159 21.4997 50.5137 21.3302C50.6092 21.1518 50.7757 21.0069 51.0133 20.8955C51.2021 20.8163 51.2834 20.7276 51.2572 20.6296C51.2381 20.5583 51.191 20.4898 51.1161 20.4239C50.8847 20.2376 50.6528 20.0849 50.4203 19.9657C50.1854 19.8376 49.9121 19.8154 49.6002 19.8989C49.2616 19.9897 48.9092 20.1891 48.5429 20.4974C48.1766 20.8056 47.8194 21.1831 47.4711 21.6298C47.1293 22.0652 46.8052 22.5484 46.4986 23.0794C46.1985 23.5991 45.9466 24.1202 45.7428 24.6428C45.539 25.1653 45.3964 25.6667 45.315 26.147C45.2336 26.6272 45.2382 27.0366 45.329 27.3752C45.4101 27.6782 45.5536 27.8928 45.7594 28.0191C45.974 28.1431 46.2239 28.1668 46.509 28.0904C47.2397 27.8947 47.9333 27.2934 48.5899 26.2866C49.2465 25.2797 49.7993 23.8853 50.2482 22.1033Z" fill="url(#paint14_linear_21411_74255)"/>
<path d="M33.5001 17.8803C33.3759 17.4169 33.4212 17.0514 33.636 16.7838C33.8508 16.5161 34.2656 16.2999 34.8804 16.1352C35.0943 16.0779 35.2874 16.05 35.4597 16.0516C35.632 16.0532 35.786 16.0931 35.9216 16.1714C36.0547 16.2407 36.1764 16.3562 36.2865 16.5177C36.4032 16.6679 36.5196 16.8706 36.6358 17.126C36.9641 17.888 37.3032 18.6901 37.653 19.5323C38.0093 20.3632 38.3568 21.1965 38.6953 22.0321C39.0403 22.8565 39.3717 23.6654 39.6893 24.4589C40.0046 25.2435 40.2922 25.9782 40.5521 26.6631C40.8185 27.3366 41.0424 27.9404 41.2237 28.4744C41.4115 28.997 41.5472 29.4143 41.6307 29.7262C42.0001 31 43.1562 32 44.6562 32C46.1562 32 47.1562 31.5 47.1563 33C47.1563 34 45.6563 34.5 45.1562 34.5C43.3063 34.5 42.1622 34.6475 40.6562 33.5C39.5081 32.6252 39.1255 31.1579 38.6494 29.8804C38.4431 29.3244 38.2023 28.7109 37.927 28.0398C37.6517 27.3686 37.351 26.6565 37.0251 25.9034C36.7081 25.1479 36.3845 24.4038 36.0544 23.6709C35.7333 22.9356 35.4204 22.2316 35.116 21.5587C34.8181 20.8745 34.5517 20.2726 34.317 19.7529C34.0798 19.2243 33.888 18.7934 33.7414 18.4602C33.5924 18.1182 33.512 17.9248 33.5001 17.8803Z" fill="url(#paint15_linear_21411_74255)"/>
<defs>
<radialGradient id="paint0_radial_21411_74255" cx="0" cy="0" r="1" gradientUnits="userSpaceOnUse" gradientTransform="translate(16.5886 8.67607) rotate(117.912) scale(10.1029 7.79739)">
<stop stop-color="#1DF7EF"/>
<stop offset="1" stop-color="#10808C"/>
</radialGradient>
<radialGradient id="paint1_radial_21411_74255" cx="0" cy="0" r="1" gradientUnits="userSpaceOnUse" gradientTransform="translate(19.1779 10.5196) rotate(115.692) scale(9.78678 7.13373)">
<stop stop-color="#1DF7EF"/>
<stop offset="1" stop-color="#10808C"/>
</radialGradient>
<radialGradient id="paint2_radial_21411_74255" cx="0" cy="0" r="1" gradientUnits="userSpaceOnUse" gradientTransform="translate(22.1872 14.0224) rotate(127.548) scale(5.99583 5.40526)">
<stop stop-color="#1DF7EF"/>
<stop offset="1" stop-color="#10808C"/>
</radialGradient>
<radialGradient id="paint3_radial_21411_74255" cx="0" cy="0" r="1" gradientUnits="userSpaceOnUse" gradientTransform="translate(21.9342 19.1143) rotate(125.634) scale(7.73664 6.83516)">
<stop stop-color="#1DF7EF"/>
<stop offset="1" stop-color="#10808C"/>
</radialGradient>
<radialGradient id="paint4_radial_21411_74255" cx="0" cy="0" r="1" gradientUnits="userSpaceOnUse" gradientTransform="translate(16.7158 20.8538) rotate(112.642) scale(5.64519 3.74229)">
<stop stop-color="#1DF7EF"/>
<stop offset="1" stop-color="#10808C"/>
</radialGradient>
<radialGradient id="paint5_radial_21411_74255" cx="0" cy="0" r="1" gradientUnits="userSpaceOnUse" gradientTransform="translate(13.4991 18.2081) rotate(119.008) scale(3.54876 2.80805)">
<stop stop-color="#1DF7EF"/>
<stop offset="1" stop-color="#10808C"/>
</radialGradient>
<radialGradient id="paint6_radial_21411_74255" cx="0" cy="0" r="1" gradientUnits="userSpaceOnUse" gradientTransform="translate(27.4029 25.0109) rotate(159.689) scale(25.6692 15.5905)">
<stop stop-color="#FFDF27"/>
<stop offset="0.9999" stop-color="#FE5468"/>
</radialGradient>
<radialGradient id="paint7_radial_21411_74255" cx="0" cy="0" r="1" gradientUnits="userSpaceOnUse" gradientTransform="translate(30.2717 32.8005) rotate(140.592) scale(12.4091 11.3565)">
<stop stop-color="#1DF7EF"/>
<stop offset="0.9999" stop-color="#10808C"/>
</radialGradient>
<radialGradient id="paint8_radial_21411_74255" cx="0" cy="0" r="1" gradientUnits="userSpaceOnUse" gradientTransform="translate(15.2892 32.9693) rotate(148.427) scale(14.6935 12.2292)">
<stop stop-color="#1DF7EF"/>
<stop offset="0.9999" stop-color="#10808C"/>
</radialGradient>
<linearGradient id="paint9_linear_21411_74255" x1="101.003" y1="11.3814" x2="104.511" y2="13.3992" gradientUnits="userSpaceOnUse">
<stop stop-color="#10808C"/>
<stop offset="1" stop-color="#1DF7EF"/>
</linearGradient>
<linearGradient id="paint10_linear_21411_74255" x1="89.8194" y1="6.09739" x2="98.6386" y2="8.37542" gradientUnits="userSpaceOnUse">
<stop stop-color="#10808C"/>
<stop offset="1" stop-color="#1DF7EF"/>
</linearGradient>
<linearGradient id="paint11_linear_21411_74255" x1="82.9711" y1="5.26295" x2="87.6195" y2="5.11381" gradientUnits="userSpaceOnUse">
<stop stop-color="#10808C"/>
<stop offset="1" stop-color="#1DF7EF"/>
</linearGradient>
<linearGradient id="paint12_linear_21411_74255" x1="74.0807" y1="12.5076" x2="83.0021" y2="17.6199" gradientUnits="userSpaceOnUse">
<stop stop-color="#10808C"/>
<stop offset="1" stop-color="#1DF7EF"/>
</linearGradient>
<linearGradient id="paint13_linear_21411_74255" x1="59.0895" y1="11.8948" x2="70.1541" y2="15.7458" gradientUnits="userSpaceOnUse">
<stop stop-color="#10808C"/>
<stop offset="1" stop-color="#1DF7EF"/>
</linearGradient>
<linearGradient id="paint14_linear_21411_74255" x1="45.941" y1="19.4479" x2="55.2846" y2="25.1987" gradientUnits="userSpaceOnUse">
<stop stop-color="#10808C"/>
<stop offset="1" stop-color="#1DF7EF"/>
</linearGradient>
<linearGradient id="paint15_linear_21411_74255" x1="36.7256" y1="17.545" x2="45.4338" y2="18.3722" gradientUnits="userSpaceOnUse">
<stop stop-color="#10808C"/>
<stop offset="1" stop-color="#1DF7EF"/>
</linearGradient>
</defs>
</svg>
