<svg width="193" height="46" viewBox="0 0 193 46" fill="none" xmlns="http://www.w3.org/2000/svg">
  <path d="M13.4079 13.991C13.3229 12.805 13.6459 11.716 14.3389 10.66C14.8029 9.958 15.4609 9.2 16.1869 8.365C18.0599 6.208 20.3799 3.538 20.9479 0C22.1829 2.712 21.5839 5.349 20.2169 7.774C19.6019 8.864 18.9209 9.647 18.2709 10.394C17.5059 11.273 16.7849 12.102 16.2669 13.321C15.9819 13.984 15.8199 14.619 15.7439 15.24L13.4079 13.991Z" fill="url(#paint0_radial_998_17316)"/>
  <path d="M17.416 16.1366C17.701 15.0906 18.194 14.1126 18.849 13.1636C19.391 12.3716 19.899 11.7846 20.355 11.2576C21.889 9.48264 22.841 8.38064 22.562 2.43164C22.741 2.81364 22.918 3.18164 23.09 3.53664L23.091 3.53864C24.587 6.64464 25.637 8.82264 23.873 11.8136C23.001 13.2916 22.365 14.0266 21.803 14.6766C21.17 15.4076 20.63 16.0326 19.951 17.4866L17.416 16.1366Z" fill="url(#paint1_radial_998_17316)"/>
  <path d="M23.985 15.1997C23.297 16.0147 22.174 17.1387 22.123 17.2127L28.478 13.6597C28.345 12.4757 27.472 11.0807 26.399 9.09766C26.616 11.7117 25.596 13.2907 23.985 15.1997Z" fill="url(#paint2_radial_998_17316)"/>
  <path d="M28.4311 14.8408C28.2601 15.5988 27.3241 17.1758 26.6361 17.9948C24.4621 20.5808 23.3301 21.6838 21.4701 25.5748C21.3651 25.1538 21.2551 24.7568 21.1501 24.3778C20.6311 22.5058 20.3121 20.9468 20.9341 19.6028L28.4311 14.8408Z" fill="url(#paint3_radial_998_17316)"/>
  <path d="M20.0362 23.6073C19.5042 22.0503 19.1222 20.7483 19.4002 19.1013L17.1782 17.6533C17.0552 20.0763 18.0902 22.9053 20.9482 26.5473C20.7962 25.6453 20.3402 24.4973 20.0362 23.6073Z" fill="url(#paint4_radial_998_17316)"/>
  <path d="M15.697 16.6883C15.735 17.4763 16.222 19.5593 16.658 20.6613C15.414 19.0743 14.054 16.6393 13.665 15.3633L15.697 16.6883Z" fill="url(#paint5_radial_998_17316)"/>
  <path d="M41.868 28.5309C41.868 24.9259 35.164 21.8939 26.104 21.0449C25.24 22.0149 24.376 23.2189 23.55 24.9939L22.306 27.3569C22.069 27.7929 21.632 28.0789 21.147 28.1169C20.654 28.1549 20.179 27.9389 19.885 27.5439L19.087 26.4719C17.425 24.3499 16.209 22.6689 15.25 21.0959C6.457 22.0109 0 24.9949 0 28.5309C0 32.7939 9.382 36.2549 20.939 36.2549C21.497 36.2549 22.051 36.2469 22.599 36.2309L24.295 31.4299L24.309 31.3959C24.683 30.4609 25.583 29.8489 26.584 29.8349H26.591L41.564 29.8749C41.718 29.4979 41.868 28.9239 41.868 28.5309Z" fill="url(#paint6_radial_998_17316)"/>
  <path d="M27.2018 36.359H38.9328L38.4198 37.66H26.7508L24.1528 45.071V37.201L25.9698 32.06C26.0728 31.8 26.3248 31.627 26.6078 31.623L40.8278 31.627L40.3018 32.909H28.4308L28.0668 33.991H39.8958L39.3338 35.277H27.6128L27.2018 36.359Z" fill="url(#paint7_radial_998_17316)"/>
  <path d="M0.720215 31.9385C2.07121 35.7585 5.37721 40.2455 6.08021 40.9015C8.50821 43.1885 16.3312 45.0715 22.4922 45.0715V38.6325C11.8122 38.6325 3.47421 35.1735 0.720215 31.9385Z" fill="url(#paint8_radial_998_17316)"/>
  <path fill-rule="evenodd" clip-rule="evenodd" d="M145.852 25.6324C145.119 25.6324 144.437 25.8066 143.817 26.157C143.214 26.4902 142.72 26.9665 142.334 27.5748L142.307 27.6193C142.159 27.8583 142.015 28.0903 141.904 28.3513C141.782 28.6384 141.703 28.9473 141.662 29.3512L141.607 29.9014H150.152L150.096 29.3512C150.055 28.9449 149.974 28.6333 149.845 28.3437C149.726 28.0781 149.572 27.8431 149.414 27.6011L149.397 27.5766C149.028 26.9636 148.531 26.4871 147.912 26.1552C147.29 25.8048 146.6 25.6324 145.852 25.6324ZM144.307 27.0286C144.772 26.7658 145.283 26.6324 145.852 26.6324C146.442 26.6324 146.962 26.7672 147.425 27.0288L147.435 27.0344C147.896 27.2807 148.265 27.6322 148.545 28.0992L148.55 28.1079L148.556 28.1164C148.733 28.3878 148.847 28.5612 148.931 28.7508C148.952 28.7985 148.972 28.8481 148.99 28.9014H142.765C142.783 28.8453 142.803 28.7932 142.824 28.7432C142.905 28.5537 143.011 28.381 143.177 28.1143L143.179 28.11L143.181 28.1079C143.482 27.632 143.857 27.2774 144.303 27.0311L144.307 27.0286Z" fill="#CDD8D3"/>
  <path fill-rule="evenodd" clip-rule="evenodd" d="M128.937 17.6504H124.299V23.115H121.011V18.5H116.373V23.115H114.5V26.911H116.373V34.583C116.373 35.4768 116.548 36.2556 116.937 36.8828L116.943 36.8914L116.948 36.8997C117.346 37.4862 117.875 37.9205 118.526 38.1933C119.155 38.4562 119.836 38.585 120.566 38.585C121.105 38.585 121.636 38.5267 122.157 38.4124C122.91 38.276 123.62 38.0305 124.299 37.762V38.4684H128.937V29.7395C129.097 29.254 129.337 28.8327 129.654 28.4711C130.014 28.0608 130.41 27.7483 130.838 27.5265C131.274 27.3005 131.658 27.2024 131.993 27.2024C132.594 27.2024 133.02 27.4135 133.333 27.8209L133.34 27.829C133.672 28.2443 133.882 28.9343 133.882 29.9874V38.4684H138.52V34.1104C138.899 34.9619 139.413 35.7296 140.06 36.4123L140.064 36.4168C140.764 37.1375 141.608 37.7077 142.587 38.1296L142.594 38.1327C143.586 38.5409 144.683 38.7404 145.879 38.7404C146.978 38.7404 147.994 38.5792 148.924 38.2497L148.932 38.2467C149.852 37.9026 150.656 37.4292 151.339 36.8251C152.038 36.2226 152.58 35.5265 152.955 34.736L153.211 34.1991L149.087 33.0513L148.919 33.4637C148.734 33.9177 148.381 34.3087 147.81 34.626C147.251 34.9284 146.655 35.0794 146.015 35.0794C145.459 35.0794 144.939 34.9622 144.449 34.7265C143.99 34.48 143.602 34.1246 143.285 33.6509C143.076 33.32 142.922 32.9457 142.827 32.5234H153.679L153.733 32.085C153.752 31.9309 153.771 31.7426 153.789 31.5217L153.789 31.5186C153.808 31.2719 153.818 31.0331 153.818 30.8014C153.818 29.4369 153.5 28.1623 152.864 26.9848C152.242 25.7818 151.337 24.82 150.159 24.1044C148.961 23.359 147.536 22.9994 145.907 22.9994C144.292 22.9994 142.861 23.36 141.631 24.1017C140.435 24.8162 139.503 25.7765 138.844 26.978L138.842 26.9832C138.695 27.2589 138.565 27.5411 138.452 27.8296C138.42 27.5356 138.376 27.2462 138.321 26.9615C138.184 26.239 137.938 25.5844 137.578 25.0028C137.204 24.3823 136.686 23.8969 136.034 23.5486C135.356 23.1693 134.514 22.9994 133.54 22.9994C132.39 22.9994 131.319 23.273 130.337 23.8231C129.794 24.1265 129.344 24.4286 128.937 24.7561V17.6504ZM124.299 33.5237V26.911H121.011V33.3514C121.027 33.7597 121.138 33.9496 121.243 34.0401C121.394 34.1693 121.591 34.246 121.869 34.246C122.191 34.246 122.507 34.1919 122.817 34.0841C123.174 33.9588 123.453 33.8533 123.658 33.7681L124.299 33.5237ZM125.299 37.4684V18.6504H127.937V27.1213L128.795 26.2391C129.374 25.6446 129.962 25.178 130.825 24.6956C131.653 24.2318 132.556 23.9994 133.54 23.9994C134.409 23.9994 135.067 24.1527 135.549 24.4234L135.559 24.4288C136.061 24.6958 136.445 25.0584 136.722 25.5208L136.726 25.5272C137.016 25.9946 137.222 26.5326 137.339 27.1485L137.339 27.1504C137.459 27.7686 137.52 28.4157 137.52 29.0914V37.4684H134.882V29.9874C134.882 28.8348 134.658 27.8783 134.123 27.2079C133.604 26.534 132.874 26.2024 131.993 26.2024C131.46 26.2024 130.919 26.3585 130.378 26.6385C129.83 26.9226 129.337 27.3166 128.902 27.812C128.474 28.301 128.159 28.8703 127.959 29.513L127.937 29.5855V37.4684H125.299ZM142.147 24.9585C143.198 24.3246 144.444 23.9994 145.907 23.9994C147.388 23.9994 148.622 24.3253 149.632 24.9548L149.637 24.9578C150.665 25.5813 151.442 26.4096 151.977 27.4477L151.982 27.4562C152.539 28.4855 152.818 29.5975 152.818 30.8014C152.818 31.0051 152.809 31.2178 152.792 31.4405L152.785 31.5234H141.69L141.744 32.0729C141.823 32.8642 142.052 33.574 142.443 34.191L142.45 34.2007C142.854 34.8077 143.367 35.2833 143.988 35.6138L143.996 35.6183L144.005 35.6225C144.636 35.928 145.308 36.0794 146.015 36.0794C146.822 36.0794 147.583 35.8868 148.289 35.504L148.294 35.5015C148.879 35.1762 149.337 34.7587 149.644 34.2444L151.762 34.8339C151.479 35.2818 151.121 35.6934 150.684 36.0693L150.678 36.0742C150.096 36.5901 149.401 37.0032 148.586 37.3085C147.778 37.5942 146.878 37.7404 145.879 37.7404C144.797 37.7404 143.833 37.5604 142.979 37.2096C142.114 36.8362 141.384 36.3395 140.784 35.7222C140.176 35.08 139.704 34.356 139.366 33.5469C139.047 32.7219 138.887 31.8522 138.887 30.9374C138.887 29.6575 139.167 28.5 139.723 27.4561C140.294 26.4152 141.099 25.5846 142.145 24.9597L142.147 24.9585ZM117.373 24.115V19.5H120.011V24.115H123.677V25.911H120.011V33.3702L120.011 33.3794C120.032 33.9425 120.193 34.4571 120.593 34.8002C120.95 35.1048 121.387 35.246 121.869 35.246C122.306 35.246 122.733 35.1721 123.146 35.0282L123.148 35.0278C123.275 34.9831 123.394 34.9404 123.505 34.8998L123.991 36.8082C123.315 37.0775 122.656 37.3066 121.97 37.4299L121.961 37.4316L121.951 37.4338C121.497 37.534 121.035 37.585 120.566 37.585C119.956 37.585 119.407 37.4778 118.912 37.2707C118.444 37.0748 118.071 36.7698 117.782 36.3467C117.522 35.9247 117.373 35.348 117.373 34.583V25.911H115.5V24.115H117.373Z" fill="#CDD8D3"/>
  <path fill-rule="evenodd" clip-rule="evenodd" d="M52.8202 38.2116C53.6492 38.5886 54.5522 38.7766 55.5312 38.7766C56.5292 38.7766 57.4702 38.5506 58.3542 38.0986C59.2582 37.6286 59.9542 36.9696 60.4442 36.1226V37.9856C60.4442 38.9456 60.2372 39.7266 59.8222 40.3296C59.4272 40.9506 58.8912 41.4026 58.2132 41.6846C57.5542 41.9856 56.8202 42.1366 56.0112 42.1366C55.0512 42.1366 54.1382 41.9386 53.2722 41.5436C52.4252 41.1486 51.7192 40.6026 51.1552 39.9056L49.0942 41.9106C49.8842 42.8896 50.8352 43.6426 51.9452 44.1696C53.0562 44.7146 54.4112 44.9876 56.0112 44.9876C57.5922 44.9876 59.0042 44.7056 60.2462 44.1406C61.4882 43.5956 62.4582 42.7946 63.1542 41.7416C63.8692 40.7056 64.2272 39.4546 64.2272 37.9856V23.8976H60.9232V26.4946C60.3592 25.6286 59.6442 24.9416 58.7782 24.4336C57.9122 23.9066 56.9052 23.6436 55.7572 23.6436C54.7402 23.6436 53.8092 23.8406 52.9622 24.2366C52.1332 24.6126 51.4092 25.1586 50.7882 25.8736C50.1852 26.5706 49.7152 27.3796 49.3762 28.3016C49.0372 29.2236 48.8682 30.2216 48.8682 31.2946C48.8682 32.3106 49.0282 33.2706 49.3482 34.1746C49.6682 35.0776 50.1192 35.8776 50.7032 36.5746C51.3052 37.2706 52.0112 37.8166 52.8202 38.2116ZM57.9872 35.5576C57.6112 35.6896 57.2162 35.7556 56.8012 35.7556C56.2372 35.7556 55.7002 35.6426 55.1922 35.4166C54.7032 35.1906 54.2702 34.8806 53.8932 34.4846C53.5362 34.0896 53.2532 33.6286 53.0462 33.1016C52.8392 32.5746 52.7362 32.0096 52.7362 31.4076C52.7362 30.8236 52.8202 30.2686 52.9902 29.7416C53.1782 29.1956 53.4422 28.7066 53.7802 28.2736C54.1192 27.8216 54.5242 27.4736 54.9942 27.2286C55.4652 26.9846 55.9922 26.8616 56.5762 26.8616C57.1212 26.8616 57.6392 26.9846 58.1282 27.2286C58.6372 27.4546 59.0882 27.7846 59.4842 28.2166C59.8982 28.6496 60.2182 29.1586 60.4442 29.7416V33.2706C60.3122 33.5906 60.1242 33.9106 59.8792 34.2306C59.6342 34.5316 59.3522 34.7956 59.0322 35.0216C58.7122 35.2476 58.3642 35.4266 57.9872 35.5576Z" fill="#CDD8D3"/>
  <path d="M72.2388 27.8502C73.1428 27.3992 74.1688 27.1732 75.3168 27.1732V23.7282C75.2418 23.7092 75.1468 23.7002 75.0338 23.7002H74.5548C73.6508 23.7572 72.7948 24.0772 71.9848 24.6602C71.1758 25.2442 70.5078 26.0432 69.9808 27.0602V23.8982H66.5078V38.6922H70.2908V29.7422C70.6868 28.9142 71.3358 28.2832 72.2388 27.8502Z" fill="#CDD8D3"/>
  <path fill-rule="evenodd" clip-rule="evenodd" d="M82.9369 38.9746C81.7319 38.9746 80.6499 38.7766 79.6899 38.3816C78.7299 37.9676 77.9109 37.4026 77.2329 36.6876C76.5749 35.9716 76.0659 35.1536 75.7089 34.2306C75.3509 33.3086 75.1719 32.3396 75.1719 31.3226C75.1719 30.2876 75.3509 29.3086 75.7089 28.3866C76.0659 27.4646 76.5749 26.6456 77.2329 25.9296C77.9109 25.2146 78.7299 24.6596 79.6899 24.2646C80.6499 23.8506 81.7319 23.6436 82.9369 23.6436C84.1409 23.6436 85.2139 23.8506 86.1549 24.2646C87.1149 24.6596 87.9339 25.2146 88.6119 25.9296C89.2889 26.6456 89.7979 27.4646 90.1359 28.3866C90.4939 29.3086 90.6729 30.2876 90.6729 31.3226C90.6729 32.3396 90.4939 33.3086 90.1359 34.2306C89.7979 35.1536 89.2889 35.9716 88.6119 36.6876C87.9529 37.4026 87.1439 37.9676 86.1839 38.3816C85.2239 38.7766 84.1409 38.9746 82.9369 38.9746ZM79.0689 31.3226C79.0689 32.1886 79.2379 32.9606 79.5769 33.6376C79.9159 34.2966 80.3769 34.8146 80.9599 35.1906C81.5439 35.5676 82.2029 35.7556 82.9369 35.7556C83.6519 35.7556 84.3009 35.5676 84.8849 35.1906C85.4679 34.7956 85.9299 34.2686 86.2679 33.6096C86.6259 32.9326 86.8049 32.1606 86.8049 31.2946C86.8049 30.4476 86.6259 29.6856 86.2679 29.0076C85.9299 28.3296 85.4679 27.8026 84.8849 27.4266C84.3009 27.0496 83.6519 26.8616 82.9369 26.8616C82.2029 26.8616 81.5439 27.0596 80.9599 27.4546C80.3769 27.8316 79.9159 28.3586 79.5769 29.0356C79.2379 29.6946 79.0689 30.4566 79.0689 31.3226Z" fill="#CDD8D3"/>
  <path d="M113.538 23.8984H109.953L105.576 35.0784L103.826 30.2504L106.395 23.9264H103.261L101.708 28.4434L100.184 23.9264H97.0501L99.6191 30.2504L97.8971 35.0784L93.4921 23.8984H89.9351L96.0901 38.6924H99.2801L101.708 32.3404L104.193 38.6924H107.355L113.538 23.8984Z" fill="#CDD8D3"/>
  <path fill-rule="evenodd" clip-rule="evenodd" d="M161.255 38.2126C162.14 38.7206 163.156 38.9746 164.304 38.9746C165.566 38.9746 166.676 38.6356 167.636 37.9586C168.615 37.2616 169.377 36.3306 169.923 35.1636C170.488 33.9966 170.77 32.6976 170.77 31.2666C170.77 30.2126 170.591 29.2336 170.234 28.3306C169.895 27.4086 169.415 26.5986 168.794 25.9026C168.172 25.1876 167.438 24.6316 166.591 24.2366C165.763 23.8416 164.85 23.6436 163.853 23.6436C162.742 23.6436 161.754 23.8976 160.888 24.4056C160.022 24.8956 159.307 25.5726 158.742 26.4386V23.8976H155.439V44.7066H159.222V36.0946C159.712 36.9796 160.389 37.6856 161.255 38.2126ZM164.615 35.3886C164.144 35.6336 163.617 35.7556 163.034 35.7556C162.507 35.7556 161.989 35.6336 161.481 35.3886C160.973 35.1256 160.521 34.7676 160.126 34.3166C159.749 33.8646 159.448 33.3656 159.222 32.8196V29.3466C159.335 28.9896 159.514 28.6596 159.759 28.3586C160.022 28.0576 160.323 27.7946 160.662 27.5686C161.001 27.3426 161.349 27.1726 161.707 27.0596C162.083 26.9286 162.45 26.8626 162.808 26.8626C163.391 26.8626 163.928 26.9756 164.417 27.2016C164.926 27.4266 165.368 27.7466 165.744 28.1616C166.121 28.5566 166.403 29.0176 166.591 29.5446C166.798 30.0716 166.902 30.6456 166.902 31.2666C166.902 31.8506 166.808 32.4146 166.62 32.9606C166.45 33.4876 166.187 33.9676 165.829 34.4006C165.49 34.8146 165.086 35.1446 164.615 35.3886Z" fill="#CDD8D3"/>
  <path d="M172.205 38.693V23.898H175.988V38.693H172.205Z" fill="#CDD8D3"/>
  <path d="M172.205 21.837V18.082H175.988V21.837H172.205Z" fill="#CDD8D3"/>
  <path fill-rule="evenodd" clip-rule="evenodd" d="M181.913 38.3816C182.873 38.7766 183.946 38.9746 185.132 38.9746C186.223 38.9746 187.221 38.8146 188.125 38.4946C189.028 38.1556 189.809 37.6946 190.468 37.1116C191.146 36.5276 191.663 35.8596 192.021 35.1066L188.774 34.2036C188.529 34.8056 188.068 35.2946 187.39 35.6716C186.732 36.0286 186.026 36.2076 185.273 36.2076C184.614 36.2076 183.993 36.0666 183.409 35.7846C182.845 35.4836 182.374 35.0506 181.998 34.4856C181.64 33.9206 181.424 33.2616 181.348 32.5096H192.783C192.802 32.3586 192.821 32.1706 192.84 31.9446C192.858 31.6996 192.868 31.4646 192.868 31.2386C192.868 29.9026 192.557 28.6596 191.936 27.5116C191.334 26.3446 190.458 25.4126 189.31 24.7166C188.162 24.0016 186.779 23.6436 185.16 23.6436C183.56 23.6436 182.167 24.0016 180.981 24.7166C179.814 25.4126 178.911 26.3446 178.271 27.5116C177.65 28.6786 177.339 29.9686 177.339 31.3796C177.339 32.3966 177.518 33.3656 177.876 34.2876C178.252 35.1916 178.779 36.0006 179.457 36.7156C180.134 37.4126 180.953 37.9676 181.913 38.3816ZM189 30.1096H181.264C181.339 29.3566 181.546 28.7066 181.885 28.1616C182.242 27.5966 182.694 27.1636 183.24 26.8626C183.805 26.5426 184.426 26.3826 185.103 26.3826C185.8 26.3826 186.43 26.5426 186.995 26.8626C187.56 27.1636 188.012 27.5966 188.35 28.1616C188.708 28.7066 188.924 29.3566 189 30.1096Z" fill="#CDD8D3"/>
  <defs>
  <radialGradient id="paint0_radial_998_17316" cx="0" cy="0" r="1" gradientUnits="userSpaceOnUse" gradientTransform="translate(20.0741 4.73381) rotate(117.912) scale(13.0099 10.041)">
  <stop stop-color="#1DF7EF"/>
  <stop offset="1" stop-color="#10808C"/>
  </radialGradient>
  <radialGradient id="paint1_radial_998_17316" cx="0" cy="0" r="1" gradientUnits="userSpaceOnUse" gradientTransform="translate(23.4086 7.10799) rotate(115.692) scale(12.6028 9.18639)">
  <stop stop-color="#1DF7EF"/>
  <stop offset="1" stop-color="#10808C"/>
  </radialGradient>
  <radialGradient id="paint2_radial_998_17316" cx="0" cy="0" r="1" gradientUnits="userSpaceOnUse" gradientTransform="translate(27.2838 11.6183) rotate(127.548) scale(7.72106 6.96057)">
  <stop stop-color="#1DF7EF"/>
  <stop offset="1" stop-color="#10808C"/>
  </radialGradient>
  <radialGradient id="paint3_radial_998_17316" cx="0" cy="0" r="1" gradientUnits="userSpaceOnUse" gradientTransform="translate(26.9579 18.175) rotate(125.634) scale(9.96278 8.80191)">
  <stop stop-color="#1DF7EF"/>
  <stop offset="1" stop-color="#10808C"/>
  </radialGradient>
  <radialGradient id="paint4_radial_998_17316" cx="0" cy="0" r="1" gradientUnits="userSpaceOnUse" gradientTransform="translate(20.2379 20.416) rotate(112.642) scale(7.26953 4.81909)">
  <stop stop-color="#1DF7EF"/>
  <stop offset="1" stop-color="#10808C"/>
  </radialGradient>
  <radialGradient id="paint5_radial_998_17316" cx="0" cy="0" r="1" gradientUnits="userSpaceOnUse" gradientTransform="translate(16.0956 17.0089) rotate(119.008) scale(4.56987 3.61603)">
  <stop stop-color="#1DF7EF"/>
  <stop offset="1" stop-color="#10808C"/>
  </radialGradient>
  <radialGradient id="paint6_radial_998_17316" cx="0" cy="0" r="1" gradientUnits="userSpaceOnUse" gradientTransform="translate(34 25.7694) rotate(159.689) scale(33.0552 20.0765)">
  <stop stop-color="#FFDF27"/>
  <stop offset="0.9999" stop-color="#FE5468"/>
  </radialGradient>
  <radialGradient id="paint7_radial_998_17316" cx="0" cy="0" r="1" gradientUnits="userSpaceOnUse" gradientTransform="translate(37.6942 35.8002) rotate(140.592) scale(15.9797 14.6242)">
  <stop stop-color="#1DF7EF"/>
  <stop offset="0.9999" stop-color="#10808C"/>
  </radialGradient>
  <radialGradient id="paint8_radial_998_17316" cx="0" cy="0" r="1" gradientUnits="userSpaceOnUse" gradientTransform="translate(18.4007 36.0178) rotate(148.427) scale(18.9214 15.7481)">
  <stop stop-color="#1DF7EF"/>
  <stop offset="0.9999" stop-color="#10808C"/>
  </radialGradient>
  </defs>
  </svg>
  