<svg width="206" height="177" viewBox="0 0 206 177" fill="none" xmlns="http://www.w3.org/2000/svg">
<g opacity="0.3">
<path d="M85.1843 88.889C84.6442 81.354 86.6963 74.4353 91.0992 67.7262C94.0471 63.2662 98.2276 58.4504 102.84 53.1454C114.74 39.4413 129.479 22.478 133.088 0C140.934 17.2302 137.129 33.9838 128.444 49.3906C124.537 56.3157 120.21 61.2903 116.08 66.0362C111.22 71.6208 106.639 76.8877 103.348 84.6323C101.538 88.8446 100.508 92.8789 100.026 96.8243L85.1843 88.889Z" fill="#CDD8D3"/>
<path d="M110.649 102.521C112.46 95.8752 115.592 89.6616 119.754 83.6324C123.197 78.6005 126.425 74.8712 129.322 71.523C139.068 60.2459 145.116 53.2445 143.344 15.4487C144.481 17.8757 145.605 20.2137 146.698 22.4691L146.704 22.4818C156.209 42.2152 162.88 56.0527 151.673 75.0554C146.133 84.4456 142.092 89.1153 138.521 93.2449C134.5 97.8892 131.069 101.86 126.755 111.098L110.649 102.521Z" fill="#CDD8D3"/>
<path d="M152.384 96.5681C148.013 101.746 140.878 108.887 140.554 109.357L180.929 86.7841C180.084 79.2617 174.538 70.3989 167.721 57.8003C169.1 74.4078 162.619 84.4397 152.384 96.5681Z" fill="#CDD8D3"/>
<path d="M180.631 94.2881C179.545 99.1039 173.598 109.123 169.227 114.326C155.415 130.756 148.223 137.764 136.406 162.484C135.739 159.81 135.04 157.287 134.373 154.88C131.075 142.986 129.049 133.081 133.001 124.543L180.631 94.2881Z" fill="#CDD8D3"/>
<path d="M127.296 149.984C123.916 140.092 121.489 131.82 123.255 121.356L109.138 112.157C108.356 127.551 114.932 145.524 133.09 168.663C132.124 162.932 129.227 155.639 127.296 149.984Z" fill="#CDD8D3"/>
<path d="M99.7278 106.026C99.9692 111.032 103.063 124.266 105.833 131.267C97.9298 121.185 89.2893 105.714 86.8179 97.6074L99.7278 106.026Z" fill="#CDD8D3"/>
<path d="M266 181.265C266 158.362 223.407 139.099 165.847 133.705C160.357 139.867 154.868 147.517 149.62 158.794L141.717 173.807C140.211 176.577 137.435 178.394 134.353 178.635C131.221 178.877 128.203 177.504 126.335 174.995L121.265 168.184C110.706 154.702 102.981 144.022 96.8878 134.029C41.0233 139.842 0 158.8 0 181.265C0 208.35 59.6067 230.338 133.032 230.338C136.577 230.338 140.097 230.287 143.578 230.186L154.353 199.684L154.442 199.468C156.819 193.527 162.536 189.639 168.896 189.55H168.941L264.069 189.804C265.047 187.409 266 183.762 266 181.265Z" fill="#CDD8D3"/>
</g>
</svg>
