<svg width="22" height="22" viewBox="0 0 22 22" fill="none" xmlns="http://www.w3.org/2000/svg">
<g clip-path="url(#clip0_3605_11864)">
<g clip-path="url(#clip1_3605_11864)">
<path d="M11 22C17.0751 22 22 17.0751 22 11C22 4.92487 17.0751 0 11 0C4.92487 0 0 4.92487 0 11C0 17.0751 4.92487 22 11 22Z" fill="#FF0420"/>
<path d="M17 6H5L3 8L11 19L19 8L17 6Z" stroke="white"/>
<path d="M8.36874 14.811L8.37 14.8113C9.27641 15.0206 10.245 15.125 11.2755 15.125C12.7258 15.125 13.646 15.0296 14.5521 14.6136L14.5806 14.6005L14.5996 14.5755L14.5 14.5L14.5996 14.5755L14.5997 14.5754L14.5999 14.5751L14.6008 14.5739L14.6043 14.5692L14.6178 14.5513C14.6296 14.5356 14.6468 14.5126 14.6687 14.483C14.7124 14.424 14.7747 14.3389 14.8495 14.2345C14.9991 14.0259 15.1986 13.7399 15.3984 13.4306C15.5979 13.1217 15.7991 12.7874 15.9508 12.4827C16.0266 12.3304 16.0912 12.1835 16.1369 12.0495C16.1822 11.917 16.2118 11.7895 16.2118 11.6784C16.2118 11.1657 16.0044 10.7574 15.5928 10.4672C15.1977 10.1884 14.6463 9.96676 13.9468 9.79727C13.2677 9.62894 12.4635 9.4609 11.5346 9.29308C10.9387 9.17507 10.4296 9.06703 10.0071 8.96893C9.60697 8.8724 9.30856 8.75884 9.10489 8.632C8.93433 8.50732 8.85333 8.34811 8.85333 8.14418C8.85333 7.89527 8.96129 7.70822 9.1928 7.57161L9.19282 7.57165L9.19567 7.56986C9.44441 7.41391 9.76466 7.30495 10.1613 7.24756L10.1613 7.24759L10.1642 7.2471C10.566 7.17928 10.9757 7.14533 11.3934 7.14533C11.4206 7.14533 11.4474 7.14531 11.474 7.14528C11.8038 7.14495 12.0976 7.14465 12.4641 7.19644C12.86 7.25237 13.3442 7.36972 14.0454 7.61784C14.7234 7.85778 15.3348 8.38612 15.8448 8.90668C16.0342 9.09998 16.207 9.28938 16.3637 9.46109C16.4175 9.52012 16.4694 9.57705 16.5195 9.63133C16.71 9.83795 16.8813 10.0157 17.0192 10.1049L17.1021 10.1586L17.1735 10.0903L18.1169 9.18831L18.2313 9.07884L18.0983 8.99294C17.977 8.91467 17.798 8.75011 17.5668 8.52697C17.5089 8.47116 17.4482 8.41208 17.3849 8.35052C17.2 8.1706 16.9932 7.96945 16.7726 7.76629C16.1826 7.22307 15.4736 6.64629 14.7662 6.39163C13.7017 6.00841 12.4322 5.875 11.5113 5.875C11.0392 5.875 10.0665 6.04959 9.139 6.25967C8.21183 6.46966 7.29852 6.72221 6.947 6.88679C5.6547 7.49184 5.01662 8.136 4.77919 8.78103C4.5408 9.42865 4.71871 10.0431 4.97531 10.5559L5.00345 10.6122L5.06539 10.6231C5.1764 10.6427 5.30104 10.6798 5.46467 10.7286C5.99265 10.8859 6.92649 11.1642 9.11795 11.3634C11.9922 11.6248 12.8417 11.8023 13.5358 12.114C13.6744 12.1763 13.7631 12.2631 13.8151 12.3597C13.8676 12.457 13.8869 12.5718 13.8734 12.695C13.8462 12.944 13.6854 13.216 13.4279 13.3979C13.1667 13.5824 12.8202 13.6943 12.4264 13.7591C12.0336 13.8236 11.6034 13.8399 11.1812 13.8399C10.4523 13.8399 9.73923 13.7524 9.04175 13.5775C8.34701 13.4032 7.65041 13.1124 6.95184 12.7036L6.7637 12.5935V12.8115V13.6987V13.7661L6.82003 13.8031C7.04205 13.9491 7.17392 14.0801 7.30338 14.2086C7.35575 14.2606 7.40771 14.3122 7.4651 14.3643C7.66578 14.5463 7.90089 14.6977 8.36874 14.811Z" fill="white" stroke="white" stroke-width="0.25"/>
</g>
</g>
<defs>
<clipPath id="clip0_3605_11864">
<rect width="22" height="22" fill="white"/>
</clipPath>
<clipPath id="clip1_3605_11864">
<rect width="22" height="22" fill="white"/>
</clipPath>
</defs>
</svg>
