<svg width="22" height="22" viewBox="0 0 22 22" fill="none" xmlns="http://www.w3.org/2000/svg">
<g clip-path="url(#clip0_3605_11834)">
<g clip-path="url(#clip1_3605_11834)">
<path d="M11 22C17.0751 22 22 17.0751 22 11C22 4.92487 17.0751 0 11 0C4.92487 0 0 4.92487 0 11C0 17.0751 4.92487 22 11 22Z" fill="#FF0420"/>
<path d="M7.79232 13.9219C7.13672 13.9219 6.59992 13.7679 6.18192 13.4599C5.76832 13.1475 5.56152 12.6987 5.56152 12.1223C5.56152 11.9991 5.57472 11.8539 5.60112 11.6779C5.67152 11.2819 5.77272 10.8067 5.90472 10.2479C6.27872 8.73434 7.24672 7.97754 8.80432 7.97754C9.22672 7.97754 9.60952 8.04794 9.94392 8.19314C10.2783 8.32954 10.5423 8.54074 10.7359 8.82234C10.9295 9.09954 11.0263 9.42954 11.0263 9.81234C11.0263 9.92674 11.0131 10.0719 10.9867 10.2479C10.9031 10.7363 10.8063 11.2159 10.6875 11.6779C10.4939 12.4303 10.1639 12.9979 9.68872 13.3719C9.21792 13.7415 8.58432 13.9219 7.79232 13.9219ZM7.91112 12.7339C8.21912 12.7339 8.47872 12.6415 8.69432 12.4611C8.91432 12.2807 9.07272 12.0035 9.16512 11.6251C9.29272 11.1059 9.38952 10.6571 9.45552 10.2699C9.47752 10.1555 9.49072 10.0367 9.49072 9.91354C9.49072 9.41194 9.23112 9.16114 8.70752 9.16114C8.39952 9.16114 8.13552 9.25354 7.91552 9.43394C7.69992 9.61434 7.54592 9.89154 7.45352 10.2699C7.35232 10.6395 7.25552 11.0883 7.15432 11.6251C7.13232 11.7351 7.11912 11.8495 7.11912 11.9727C7.11472 12.4831 7.38312 12.7339 7.91112 12.7339Z" fill="white"/>
<path d="M11.4088 13.8421C11.3472 13.8421 11.3032 13.8245 11.268 13.7849C11.2416 13.7409 11.2328 13.6925 11.2416 13.6353L12.3812 8.26735C12.39 8.20575 12.4208 8.15735 12.4736 8.11775C12.522 8.07815 12.5748 8.06055 12.632 8.06055H14.8276C15.4392 8.06055 15.9276 8.18815 16.2972 8.43895C16.6712 8.69415 16.8604 9.05935 16.8604 9.53895C16.8604 9.67535 16.8428 9.82055 16.812 9.97015C16.6756 10.6037 16.3984 11.0701 15.976 11.3737C15.5624 11.6773 14.9948 11.8269 14.2732 11.8269H13.16L12.7816 13.6353C12.7684 13.6969 12.742 13.7453 12.6892 13.7849C12.6408 13.8245 12.588 13.8421 12.5308 13.8421H11.4088ZM14.3304 10.6873C14.5636 10.6873 14.7616 10.6257 14.9332 10.4981C15.1092 10.3705 15.2236 10.1901 15.2808 9.95255C15.2984 9.86015 15.3072 9.77655 15.3072 9.70615C15.3072 9.54775 15.2588 9.42455 15.1664 9.34095C15.074 9.25295 14.9112 9.20895 14.6868 9.20895H13.6968L13.3844 10.6873H14.3304Z" fill="white"/>
</g>
</g>
<defs>
<clipPath id="clip0_3605_11834">
<rect width="22" height="22" fill="white"/>
</clipPath>
<clipPath id="clip1_3605_11834">
<rect width="22" height="22" fill="white"/>
</clipPath>
</defs>
</svg>
