<?xml version="1.0" standalone="no"?>
<!DOCTYPE svg PUBLIC "-//W3C//DTD SVG 20010904//EN"
 "http://www.w3.org/TR/2001/REC-SVG-20010904/DTD/svg10.dtd">
<svg version="1.0" xmlns="http://www.w3.org/2000/svg"
 width="736.000000pt" height="736.000000pt" viewBox="0 0 736.000000 736.000000"
 preserveAspectRatio="xMidYMid meet">
<metadata>
Created by potrace 1.14, written by Peter Selinger 2001-2017
</metadata>
<g transform="translate(0.000000,736.000000) scale(0.100000,-0.100000)"
fill="#000000" stroke="none">
<path d="M3665 7324 c-20 -98 -61 -242 -92 -319 -43 -109 -131 -287 -147 -297
-6 -4 -8 -8 -4 -8 9 0 -122 -198 -183 -277 -27 -35 -49 -67 -49 -72 0 -5 -4
-11 -9 -13 -5 -1 -34 -34 -65 -73 -89 -109 -114 -140 -196 -231 -19 -22 -57
-66 -85 -99 -27 -33 -52 -62 -55 -65 -12 -12 -108 -132 -141 -178 -20 -28 -51
-81 -70 -119 -19 -37 -38 -71 -44 -75 -5 -4 -6 -8 -1 -8 5 0 4 -6 -2 -12 -8
-11 -26 -62 -38 -113 -23 -97 -26 -225 -6 -247 8 -10 19 -18 23 -18 4 0 78
-38 164 -85 152 -83 174 -93 176 -77 1 10 6 40 15 82 27 131 93 284 176 410
52 78 127 172 201 254 52 56 213 260 243 306 16 25 31 47 34 50 30 29 174 331
196 410 60 216 66 246 67 390 3 195 -12 287 -68 436 -31 82 -32 84 -40 48z"/>
<path d="M3934 6697 c0 -144 -3 -291 -7 -327 -5 -36 -10 -84 -12 -106 -2 -23
-7 -55 -10 -70 -3 -16 -8 -38 -10 -49 -18 -96 -50 -188 -95 -278 -37 -72 -107
-178 -134 -202 -6 -5 -23 -26 -38 -45 -14 -19 -43 -53 -63 -75 -149 -162 -385
-513 -385 -572 0 -7 -5 -13 -12 -13 -6 0 -9 -3 -6 -6 3 -3 -4 -31 -17 -62 -12
-31 -26 -70 -29 -87 -6 -29 -4 -31 61 -65 38 -19 124 -65 192 -102 69 -38 130
-68 136 -68 6 0 25 28 42 63 35 67 75 139 83 147 3 3 22 31 43 62 21 31 49 68
62 82 13 14 30 35 38 46 8 11 32 40 53 63 22 23 52 60 69 82 16 21 36 46 45
55 48 51 207 303 256 408 103 221 117 471 38 702 -9 25 -17 52 -19 60 -2 8
-22 60 -45 115 -40 96 -77 176 -178 385 -25 52 -46 98 -46 102 -1 3 -3 9 -6
12 -3 3 -6 -113 -6 -257z"/>
<path d="M4550 5890 c-1 -3 -3 -59 -5 -125 -4 -126 -7 -146 -31 -235 -26 -97
-38 -127 -86 -218 -42 -81 -140 -228 -187 -281 -17 -19 -31 -37 -31 -40 0 -4
-17 -25 -37 -47 -21 -22 -68 -74 -104 -115 -37 -41 -89 -97 -115 -124 -27 -28
-58 -62 -69 -75 l-20 -24 25 17 c14 9 32 20 40 24 8 4 106 57 217 120 112 62
207 113 213 113 5 0 10 4 10 9 0 5 15 14 33 22 17 7 34 15 37 18 3 3 23 15 45
27 47 24 127 69 170 94 17 10 50 29 75 42 93 51 125 70 137 79 13 12 -4 95
-37 178 -21 54 -121 262 -130 271 -3 3 -18 30 -34 60 -71 133 -116 215 -116
210z"/>
<path d="M4815 4949 c-22 -15 -46 -28 -52 -29 -7 0 -13 -4 -13 -10 0 -5 -7
-10 -15 -10 -8 0 -15 -4 -15 -9 0 -5 -6 -11 -13 -13 -6 -2 -139 -84 -295 -183
-312 -199 -290 -185 -434 -274 -56 -35 -112 -73 -124 -83 -11 -10 -23 -18 -27
-18 -5 0 -132 -78 -155 -95 -8 -6 -42 -113 -48 -149 -10 -60 -11 -205 -1 -251
5 -22 10 -53 13 -70 8 -63 15 -93 49 -225 12 -49 34 -127 39 -140 3 -8 7 -26
10 -40 2 -14 8 -36 14 -50 8 -22 13 -15 62 80 29 58 66 130 83 160 16 30 35
64 41 75 6 11 16 23 21 27 6 4 7 8 3 8 -13 0 123 210 224 345 63 85 374 461
416 504 17 18 120 171 157 236 60 104 118 232 107 239 -4 2 -25 -9 -47 -25z"/>
<path d="M2516 4878 c4 -13 7 -29 7 -35 0 -7 4 -13 9 -13 4 0 8 -5 8 -11 0
-52 304 -601 342 -617 5 -2 8 -8 8 -13 0 -10 79 -119 86 -119 2 0 -3 17 -11
38 -15 39 -54 172 -60 204 -2 11 -7 28 -10 38 -11 36 -54 249 -61 305 -3 22
-6 40 -7 40 -1 0 -20 13 -43 28 -22 15 -45 27 -51 27 -6 0 -13 7 -17 15 -3 8
-9 14 -13 13 -4 -2 -24 9 -44 25 -20 15 -41 27 -46 27 -6 0 -16 7 -23 14 -6 8
-27 24 -46 36 l-35 20 7 -22z"/>
<path d="M3069 4513 c-4 -56 5 -191 16 -253 34 -197 135 -462 247 -648 21 -34
38 -67 38 -72 0 -6 5 -10 10 -10 6 0 10 -5 10 -11 0 -13 140 -223 151 -227 5
-2 9 -10 9 -17 0 -8 6 -18 13 -22 7 -4 21 -21 32 -38 10 -16 24 -36 32 -43 7
-7 17 -21 22 -30 5 -9 12 -14 15 -11 10 9 -34 155 -124 414 -33 95 -36 106
-39 117 -1 4 -9 27 -17 50 -15 43 -42 144 -49 183 -2 11 -6 34 -10 50 -11 45
-15 301 -5 334 6 23 5 31 -7 35 -14 6 -62 37 -261 168 -41 26 -75 48 -78 48
-2 0 -4 -8 -5 -17z"/>
<path d="M2750 3986 c-3 -2 -34 -7 -70 -11 -36 -3 -76 -8 -90 -10 -96 -14
-119 -17 -150 -20 -19 -1 -62 -8 -95 -14 -33 -6 -73 -13 -90 -16 -16 -2 -41
-7 -55 -10 -14 -3 -41 -8 -60 -11 -19 -3 -43 -7 -52 -10 -10 -3 -30 -7 -45
-10 -36 -6 -62 -12 -93 -19 -14 -3 -36 -8 -50 -10 -33 -6 -221 -56 -335 -89
-86 -25 -116 -35 -160 -52 -11 -4 -22 -8 -25 -9 -120 -36 -290 -109 -450 -191
-80 -42 -147 -79 -150 -82 -3 -4 -38 -29 -78 -56 -145 -97 -281 -245 -334
-362 -21 -46 -24 -55 -31 -86 -1 -7 -5 -17 -8 -23 -11 -19 -7 -165 6 -214 17
-64 67 -167 105 -216 35 -45 213 -215 225 -215 7 0 15 -3 17 -7 18 -42 340
-213 563 -300 22 -8 49 -19 60 -23 168 -65 523 -162 788 -215 133 -26 425 -73
497 -80 25 -2 65 -7 89 -10 73 -9 143 -16 191 -20 103 -8 219 -17 270 -21 30
-3 223 -7 428 -10 332 -4 372 -3 372 11 0 8 4 23 10 33 5 9 22 55 39 102 194
559 247 700 263 700 4 0 8 6 8 13 0 29 118 119 181 138 19 5 43 13 54 16 11 4
573 7 1250 7 l1229 1 19 60 c64 208 -8 420 -203 597 -91 83 -117 105 -126 109
-5 2 -47 29 -94 60 -142 93 -423 225 -606 284 -27 9 -58 20 -69 24 -11 5 -63
21 -115 36 -52 14 -115 32 -140 40 -45 13 -154 40 -200 49 -14 3 -79 17 -145
31 -66 14 -136 28 -155 30 -19 3 -44 8 -56 10 -12 3 -36 7 -55 10 -98 14 -118
17 -169 25 -30 5 -82 12 -115 15 -33 3 -71 8 -85 10 -14 3 -56 8 -94 11 l-68
6 -35 -38 c-19 -22 -61 -75 -94 -119 -33 -44 -63 -85 -67 -90 -5 -6 -21 -33
-37 -60 -16 -28 -34 -57 -41 -65 -7 -8 -49 -87 -94 -175 -73 -143 -124 -241
-224 -429 -58 -109 -131 -156 -234 -152 -67 3 -128 37 -172 94 -19 26 -40 53
-47 62 -181 227 -563 749 -563 768 0 6 -4 12 -8 14 -9 3 -92 127 -92 137 -1
11 -36 52 -40 47z"/>
<path d="M4525 2289 c-34 -17 -49 -49 -130 -284 -13 -38 -51 -146 -85 -240
-34 -93 -63 -174 -64 -180 -2 -5 -6 -23 -11 -40 -4 -16 -11 -34 -15 -40 -32
-43 -34 -92 -35 -712 0 -343 2 -623 5 -623 5 0 25 55 34 91 7 29 37 112 44
123 3 6 7 16 8 21 1 9 38 115 115 335 17 47 33 92 36 100 3 8 7 20 9 25 1 6
25 75 54 155 28 80 63 179 76 220 14 41 31 80 38 85 9 7 336 10 939 10 l925
-1 39 101 c22 55 38 102 37 104 -2 2 -414 4 -916 3 -502 0 -924 1 -936 4 -17
3 -21 8 -14 17 5 7 19 42 32 80 13 37 26 68 29 68 3 1 425 2 938 3 512 0 934
3 936 6 11 11 87 194 82 198 -2 3 -427 5 -943 5 l-939 0 6 21 c4 12 15 49 26
83 11 36 26 63 35 65 8 2 435 4 948 3 626 0 936 3 941 10 9 11 81 180 81 189
0 11 -2304 5 -2325 -5z"/>
<path d="M459 2190 c23 -66 42 -111 89 -210 19 -41 36 -77 37 -80 3 -14 88
-176 94 -180 4 -3 11 -14 15 -24 3 -11 47 -87 97 -170 50 -83 96 -160 102
-171 7 -11 15 -22 18 -25 3 -3 23 -32 44 -65 21 -33 40 -62 44 -65 3 -3 12
-16 20 -30 29 -52 218 -297 266 -345 129 -128 380 -257 725 -372 91 -30 172
-57 180 -58 8 -2 78 -20 155 -40 152 -38 145 -37 255 -60 126 -26 212 -43 260
-50 14 -2 39 -6 55 -9 54 -9 159 -25 205 -31 25 -3 63 -8 85 -11 22 -3 54 -7
70 -9 27 -3 93 -9 250 -21 28 -2 127 -7 221 -10 l172 -6 4 31 c3 17 2 31 -1
31 -3 0 -5 37 -4 82 1 46 2 110 2 143 0 33 0 80 1 105 0 25 1 69 2 98 2 28 1
52 -2 52 -3 0 -4 37 -3 82 2 93 3 181 2 248 -1 25 0 50 1 55 1 6 2 31 1 56
l-1 46 -52 2 c-29 1 -129 4 -223 6 -161 4 -229 8 -355 20 -30 3 -86 7 -125 10
-38 2 -70 5 -70 6 0 2 -36 8 -65 10 -23 1 -62 7 -190 25 -25 3 -57 7 -72 8
-16 0 -28 3 -28 6 0 3 -10 5 -22 6 -33 2 -121 15 -128 19 -3 2 -24 6 -46 9
-22 4 -51 9 -64 12 -14 3 -36 7 -50 10 -14 2 -36 7 -50 10 -14 4 -34 8 -45 10
-24 4 -19 2 -215 52 -85 22 -207 56 -270 76 -63 20 -122 38 -130 41 -20 5
-160 54 -185 65 -11 4 -47 18 -80 31 -33 12 -64 25 -70 29 -5 4 -32 15 -60 25
-52 19 -301 143 -393 195 -29 17 -92 56 -138 88 -47 31 -93 62 -102 67 -9 6
-19 13 -22 16 -3 3 -36 32 -75 64 -38 33 -89 80 -113 105 l-42 45 19 -55z"/>
</g>
</svg>
