<svg width="17" height="16" viewBox="0 0 17 16" fill="none" xmlns="http://www.w3.org/2000/svg">
<path fill-rule="evenodd" clip-rule="evenodd" d="M10.5519 1.56634C11.2511 1.29947 12.0154 1.25377 12.7414 1.43543C13.3188 1.57989 13.8497 1.86258 14.29 2.25628C14.8314 2.05727 15.345 1.78793 15.8173 1.45477L16.2016 1.99954L16.8493 2.15729C16.6209 3.09497 16.1632 3.95925 15.5195 4.67352C15.5294 4.78112 15.5345 4.88917 15.5349 4.99734L15.5349 4.99954C15.5349 9.06616 13.577 12.0496 10.7648 13.5464C7.96884 15.0345 4.39548 15.0181 1.21114 13.249C0.941264 13.099 0.809633 12.7834 0.892999 12.4862C0.976364 12.1889 1.25292 11.9878 1.5614 12.0001C2.68594 12.0448 3.79915 11.8212 4.81139 11.3549C3.80929 10.7365 3.08785 10.0024 2.58627 9.21041C1.91718 8.15396 1.6646 7.03481 1.61892 6.02981C1.57337 5.02773 1.73255 4.12547 1.89988 3.47845C1.98395 3.15339 2.07118 2.88854 2.13842 2.70256C2.17208 2.60947 2.20084 2.53582 2.22186 2.48393C2.23237 2.45798 2.24096 2.43744 2.24727 2.4226L2.25499 2.40465L2.25695 2.40015C2.26165 2.38936 2.26665 2.37867 2.27195 2.36807L2.86823 2.66621L3.4138 2.28307C4.02416 3.15219 4.83999 3.85687 5.78863 4.33435C6.5432 4.71415 7.36317 4.94082 8.20138 5.00382C8.19645 4.26404 8.41625 3.53998 8.83197 2.92758C9.25232 2.30838 9.85269 1.83321 10.5519 1.56634ZM3.138 4.02861C3.01554 4.56286 2.91775 5.24037 2.95088 5.96927C2.98853 6.79761 3.19428 7.67846 3.7127 8.49701C4.22842 9.31132 5.07893 10.1044 6.47232 10.7237C6.69353 10.822 6.84406 11.0325 6.86559 11.2736C6.88712 11.5147 6.77627 11.7485 6.57599 11.8845C5.83536 12.3872 5.02437 12.7654 4.17497 13.01C6.28841 13.5484 8.40623 13.2913 10.1383 12.3694C12.4926 11.1163 14.2012 8.6001 14.2016 5.00065C14.201 4.85659 14.1871 4.71288 14.1601 4.57138C14.1183 4.3528 14.1883 4.12779 14.3468 3.97154C14.4953 3.82508 14.6328 3.66898 14.7587 3.50454C14.6077 3.56025 14.4549 3.6114 14.3005 3.6579C14.0494 3.7335 13.7773 3.6549 13.6052 3.45703C13.2933 3.09842 12.8788 2.84425 12.4178 2.72889C11.9567 2.61353 11.4714 2.64255 11.0273 2.81202C10.5833 2.98149 10.2021 3.28324 9.93513 3.67646C9.6682 4.06968 9.52847 4.53539 9.53484 5.01061L9.53496 5.01954H9.5349V5.68621C9.5349 6.04767 9.24685 6.34328 8.88551 6.35265C7.60403 6.38588 6.33422 6.10167 5.18918 5.52533C4.42546 5.14093 3.73306 4.63453 3.138 4.02861Z" fill="#CDD8D3"/>
</svg>
