<svg width="431" height="157" viewBox="0 0 431 157" fill="none" xmlns="http://www.w3.org/2000/svg">
<g opacity="0.83" filter="url(#filter0_d_5410_25892)">
<path d="M-66.1542 19.44C-75.7637 19.9238 -70.9763 36.5897 -76 39.6963V213.001H520V74.2667C515.915 75.2415 491 53.5669 491 53.5669C461.034 65.4998 437 89.7656 393 63C349 36.2344 305.018 69.5536 305.018 69.5536C305.018 69.5536 301.5 28.0007 290.5 2.5C239 37.5 215 33.5 175 19.44C158.1 13.4997 146.5 39.6963 117.5 39.6963C95.3147 39.6963 88.8456 13.7472 63 24.5C12 45.7179 -3.00169 18.5964 -17.5815 13.3766C-32.421 8.06385 -44.333 18.3414 -66.1542 19.44Z" fill="#1F2726"/>
<path d="M-66.1542 19.44C-75.7637 19.9238 -70.9763 36.5897 -76 39.6963V213.001H520V74.2667C515.915 75.2415 491 53.5669 491 53.5669C461.034 65.4998 437 89.7656 393 63C349 36.2344 305.018 69.5536 305.018 69.5536C305.018 69.5536 301.5 28.0007 290.5 2.5C239 37.5 215 33.5 175 19.44C158.1 13.4997 146.5 39.6963 117.5 39.6963C95.3147 39.6963 88.8456 13.7472 63 24.5C12 45.7179 -3.00169 18.5964 -17.5815 13.3766C-32.421 8.06385 -44.333 18.3414 -66.1542 19.44Z" stroke="#1F2726" stroke-width="3" stroke-linecap="round"/>
</g>
<defs>
<filter id="filter0_d_5410_25892" x="-81.5" y="0.239258" width="607" height="222.262" filterUnits="userSpaceOnUse" color-interpolation-filters="sRGB">
<feFlood flood-opacity="0" result="BackgroundImageFix"/>
<feColorMatrix in="SourceAlpha" type="matrix" values="0 0 0 0 0 0 0 0 0 0 0 0 0 0 0 0 0 0 127 0" result="hardAlpha"/>
<feOffset dy="4"/>
<feGaussianBlur stdDeviation="2"/>
<feComposite in2="hardAlpha" operator="out"/>
<feColorMatrix type="matrix" values="0 0 0 0 0 0 0 0 0 0 0 0 0 0 0 0 0 0 0.25 0"/>
<feBlend mode="normal" in2="BackgroundImageFix" result="effect1_dropShadow_5410_25892"/>
<feBlend mode="normal" in="SourceGraphic" in2="effect1_dropShadow_5410_25892" result="shape"/>
</filter>
</defs>
</svg>
