<svg width="16" height="16" viewBox="0 0 16 16" fill="none" xmlns="http://www.w3.org/2000/svg">
<path fill-rule="evenodd" clip-rule="evenodd" d="M7.52757 1.86364C4.12609 1.86364 1.36865 4.61098 1.36865 8C1.36865 11.389 4.12609 14.1364 7.52757 14.1364C10.9291 14.1364 13.6865 11.389 13.6865 8C13.6865 4.61098 10.9291 1.86364 7.52757 1.86364ZM0 8C0 3.85786 3.37021 0.5 7.52757 0.5C11.6849 0.5 15.0551 3.85786 15.0551 8C15.0551 12.1421 11.6849 15.5 7.52757 15.5C3.37021 15.5 0 12.1421 0 8Z" fill="#CDD8D3"/>
<path fill-rule="evenodd" clip-rule="evenodd" d="M0 8C0 7.62344 0.306383 7.31818 0.684325 7.31818H14.3708C14.7488 7.31818 15.0551 7.62344 15.0551 8C15.0551 8.37656 14.7488 8.68182 14.3708 8.68182H0.684325C0.306383 8.68182 0 8.37656 0 8Z" fill="#CDD8D3"/>
<path fill-rule="evenodd" clip-rule="evenodd" d="M5.47476 8C5.52166 10.0965 6.24532 12.1149 7.52757 13.7608C8.80982 12.1149 9.53349 10.0965 9.58039 8C9.53349 5.90352 8.80982 3.88512 7.52757 2.23918C6.24532 3.88512 5.52166 5.90352 5.47476 8ZM7.52757 1.18182L7.02231 0.721984C5.19874 2.71107 4.16242 5.2924 4.1061 7.9858C4.1059 7.99527 4.1059 8.00473 4.1061 8.0142C4.16242 10.7076 5.19874 13.2889 7.02231 15.278C7.15196 15.4194 7.33533 15.5 7.52757 15.5C7.71981 15.5 7.90319 15.4194 8.03284 15.278C9.85641 13.2889 10.8927 10.7076 10.949 8.0142C10.9492 8.00473 10.9492 7.99527 10.949 7.9858C10.8927 5.2924 9.85641 2.71107 8.03284 0.721984L7.52757 1.18182Z" fill="#CDD8D3"/>
</svg>
