<svg width="35" height="16" viewBox="0 0 35 16" fill="none" xmlns="http://www.w3.org/2000/svg">
  <path d="M25.7871 9.50892L31.6383 2.46321H26.0301V0.560059H34.5538V2.22026L28.7431 9.26597H34.655V11.1691H25.7871V9.50892Z" fill="#FFFFFF"/>
  <path d="M15.5882 13.2342C15.8312 13.2882 16.0539 13.3355 16.2563 13.376C16.4723 13.4165 16.6545 13.4367 16.803 13.4367C17.0594 13.4367 17.2687 13.3692 17.4306 13.2342C17.6061 13.1128 17.7748 12.8833 17.9368 12.5459C18.0987 12.2219 18.2675 11.763 18.4429 11.1691L14.252 0.560059H17.0662L19.9209 8.39538L22.4315 0.560059H25.023L20.5688 13.2747C20.4068 13.7471 20.1571 14.1723 19.8197 14.5503C19.4957 14.9417 19.0841 15.2454 18.5847 15.4613C18.0987 15.6908 17.5521 15.8055 16.9447 15.8055C16.7288 15.8055 16.5128 15.7853 16.2968 15.7448C16.0809 15.7178 15.8447 15.6638 15.5882 15.5828V13.2342Z" fill="#FFFFFF"/>
  <path d="M6.34834 0.560059L8.57544 3.88045L8.73741 4.24489L8.93987 3.88045L11.1467 0.560059H14.0014L10.3166 5.84434L14.0622 11.1691H11.2075L8.91962 7.86897L8.73741 7.52479L8.57544 7.86897L6.30785 11.1691H3.45312L7.19869 5.90508L3.51386 0.560059H6.34834Z" fill="#FFFFFF"/>
  <path d="M0 11.1689V8.25342H2.22709V11.1689H0Z" fill="#FFFFFF"/>
</svg>
