<svg width="15" height="15" viewBox="0 0 15 15" fill="none" xmlns="http://www.w3.org/2000/svg">
<g clip-path="url(#clip0_769_11350)">
<g clip-path="url(#clip1_769_11350)">
<path d="M7.47858 9.53265L9.48078 12.648L11.3303 11.5854L8.70083 7.47656L7.47858 9.53265Z" fill="#5A6462"/>
<path d="M13.0146 10.3358L13.0133 9.48441L10.1401 5.04785L9.0741 6.841L11.8478 11.2882L12.8507 10.7121C12.9491 10.6329 13.0086 10.5167 13.0148 10.3913L13.0146 10.3358Z" fill="#5A6462"/>
<path d="M1.22449 10.9936V10.7038L2.08384 9.39485L2.08438 9.39401L4.76064 5.28171L4.7607 5.28174L4.76378 5.27677C5.02695 4.8509 5.63648 4.67491 6.29868 4.68392L6.65824 4.69333L2.3067 11.6118L1.22449 10.9936Z" stroke="#5A6462" stroke-width="0.5"/>
<path d="M3.29395 12.1746L7.85607 4.71119L9.38306 4.70569L4.85173 12.3255L4.85173 12.3255L4.52393 12.8767L3.29395 12.1746Z" stroke="#5A6462" stroke-width="0.5"/>
<path d="M13.903 4.44353C13.8854 4.00647 13.6467 3.60635 13.2728 3.37342L8.03216 0.385663C7.6623 0.201007 7.20022 0.200784 6.82977 0.385528C6.78599 0.40741 1.73333 3.31251 1.73333 3.31251C1.66342 3.34573 1.59608 3.38534 1.5327 3.43027C1.19892 3.66744 0.995449 4.03595 0.974548 4.44085V10.6285L1.87491 9.25708L1.86703 4.48269C1.86811 4.46523 1.87031 4.44808 1.87342 4.43112C1.89374 4.31876 1.95703 4.21855 2.0523 4.15085C2.07608 4.13397 7.215 1.18502 7.23135 1.17689C7.35216 1.11674 7.50563 1.11611 7.62657 1.17506L12.7994 4.1249C12.9218 4.20216 12.9985 4.33318 13.0053 4.4764V10.3907C12.9991 10.5161 12.9491 10.6323 12.8507 10.7115L11.8478 11.2877L11.3304 11.5849L9.48081 12.6476L7.60513 13.7252C7.5041 13.7614 7.38599 13.7594 7.28581 13.719L5.06662 12.4536L4.61329 13.2158L6.60761 14.3541C6.67356 14.3913 6.73234 14.4242 6.78054 14.4511C6.85522 14.4926 6.90608 14.5204 6.92405 14.529C7.06581 14.5972 7.26973 14.637 7.45351 14.637C7.62203 14.637 7.7863 14.6063 7.9418 14.5459L13.3898 11.418C13.7025 11.1779 13.8864 10.8156 13.903 10.4232V4.44353Z" fill="#5A6462"/>
</g>
</g>
<defs>
<clipPath id="clip0_769_11350">
<rect width="15" height="15" fill="white"/>
</clipPath>
<clipPath id="clip1_769_11350">
<rect width="15" height="14.8707" fill="white" transform="translate(0 0.0644531)"/>
</clipPath>
</defs>
</svg>
