<svg width="15" height="15" viewBox="0 0 15 15" fill="none" xmlns="http://www.w3.org/2000/svg">
<g clip-path="url(#clip0_1208_16644)">
<g clip-path="url(#clip1_1208_16644)">
<path d="M7.3783 9.76997L9.35865 12.8513L11.188 11.8003L8.58721 7.73633L7.3783 9.76997Z" fill="#2A3433"/>
<path d="M12.854 10.5632L12.8526 9.72114L10.0108 5.33301L8.95642 7.10658L11.6998 11.5053L12.6918 10.9354C12.7891 10.8571 12.8479 10.7422 12.8541 10.6181L12.854 10.5632Z" fill="#2A3433"/>
<path d="M1.19246 11.214V10.9274L2.04243 9.63269L2.04297 9.63186L4.69002 5.56444L4.69008 5.56448L4.69312 5.55956C4.95342 5.13834 5.5563 4.96426 6.21127 4.97318L6.5669 4.98249L2.26286 11.8254L1.19246 11.214Z" stroke="#2A3433" stroke-width="0.494543"/>
<path d="M3.23931 12.3823L7.75164 5.00037L9.26197 4.99494L4.78009 12.5316L4.78009 12.5316L4.45587 13.0768L3.23931 12.3823Z" stroke="#2A3433" stroke-width="0.494543"/>
<path d="M13.7326 4.73562C13.7152 4.30333 13.4791 3.90758 13.1093 3.67719L7.92583 0.722041C7.56 0.5394 7.10298 0.539179 6.73657 0.721908C6.69326 0.743551 1.69575 3.61694 1.69575 3.61694C1.62661 3.6498 1.56 3.68898 1.49731 3.73342C1.16717 3.968 0.965924 4.33248 0.945251 4.73297V10.8531L1.83578 9.49663L1.82799 4.77435C1.82906 4.75708 1.83124 4.74012 1.83431 4.72334C1.85441 4.61221 1.91701 4.51309 2.01124 4.44613C2.03476 4.42944 7.11759 1.51267 7.13376 1.50463C7.25325 1.44514 7.40505 1.44452 7.52467 1.50282L12.6411 4.42047C12.7621 4.49688 12.838 4.62648 12.8447 4.76813V10.6179C12.8385 10.7419 12.7891 10.8569 12.6918 10.9352L11.6998 11.5051L11.188 11.7991L9.35867 12.8501L7.50347 13.916C7.40353 13.9518 7.28671 13.9498 7.18763 13.9098L4.99266 12.6582L4.54427 13.4121L6.51683 14.538C6.58206 14.5748 6.6402 14.6074 6.68787 14.634C6.76174 14.675 6.81204 14.7025 6.82982 14.711C6.97003 14.7785 7.17172 14.8178 7.3535 14.8178C7.52017 14.8178 7.68266 14.7874 7.83646 14.7277L13.225 11.634C13.5343 11.3964 13.7162 11.0382 13.7326 10.6501V4.73562Z" fill="#2A3433"/>
</g>
</g>
<defs>
<clipPath id="clip0_1208_16644">
<rect width="15" height="15" fill="white"/>
</clipPath>
<clipPath id="clip1_1208_16644">
<rect width="15" height="14.8707" fill="white" transform="translate(0 0.0644531)"/>
</clipPath>
</defs>
</svg>
