<svg width="24" height="24" viewBox="0 0 24 24" fill="none" xmlns="http://www.w3.org/2000/svg">
<g clip-path="url(#clip0_704_31383)">
<path fill-rule="evenodd" clip-rule="evenodd" d="M0 20V7H1.5V20C1.5 21.3807 2.61929 22.5 4 22.5H16V20C16 17.7909 17.7909 16 20 16H22.5V7H24V16L16 24H4C1.79086 24 0 22.2091 0 20ZM17 20C17 18.3431 18.3431 17 20 17H21.5858L17 21.5858V20Z" fill="url(#paint0_linear_704_31383)"/>
<path fill-rule="evenodd" clip-rule="evenodd" d="M20 0C22.2091 0 24 1.79086 24 4V7H0V4C2.57702e-07 1.79086 1.79086 0 4 0H20Z" fill="url(#paint1_linear_704_31383)"/>
<path d="M8.72433 10.8999C9.20433 10.8999 9.62099 10.9799 9.97433 11.1399C10.3343 11.2932 10.6077 11.5066 10.7943 11.7799C10.9877 12.0466 11.0843 12.3432 11.0843 12.6699C11.0843 13.1032 10.961 13.4599 10.7143 13.7399C10.4677 14.0132 10.121 14.2032 9.67433 14.3099C10.7677 14.4699 11.3143 15.0499 11.3143 16.0499C11.3143 16.4432 11.2043 16.8032 10.9843 17.1299C10.7643 17.4499 10.451 17.7032 10.0443 17.8899C9.63766 18.0766 9.16433 18.1699 8.62433 18.1699C8.11766 18.1699 7.65766 18.0799 7.24433 17.8999C6.83099 17.7199 6.47766 17.4632 6.18433 17.1299L7.04433 16.3099C7.48433 16.7499 7.97433 16.9699 8.51433 16.9699C8.86766 16.9699 9.15099 16.8799 9.36433 16.6999C9.58433 16.5132 9.69433 16.2599 9.69433 15.9399C9.69433 15.2466 9.29766 14.8999 8.50433 14.8999H7.84433L8.02433 13.8099H8.50433C8.82433 13.8099 9.07766 13.7332 9.26433 13.5799C9.45766 13.4266 9.55433 13.2032 9.55433 12.9099C9.55433 12.6499 9.46099 12.4466 9.27433 12.2999C9.08766 12.1466 8.84433 12.0699 8.54433 12.0699C8.27766 12.0699 8.03099 12.1232 7.80433 12.2299C7.58433 12.3299 7.37099 12.4766 7.16433 12.6699L6.35433 11.8199C7.00099 11.2066 7.79099 10.8999 8.72433 10.8999Z" fill="url(#paint2_linear_704_31383)"/>
<path d="M15.05 10.8999C15.85 10.8999 16.4634 11.2099 16.89 11.8299C17.3234 12.4499 17.54 13.3499 17.54 14.5299C17.54 15.7099 17.3234 16.6132 16.89 17.2399C16.4634 17.8599 15.85 18.1699 15.05 18.1699C14.25 18.1699 13.6334 17.8599 13.2 17.2399C12.7734 16.6132 12.56 15.7099 12.56 14.5299C12.56 13.3432 12.7734 12.4432 13.2 11.8299C13.6267 11.2099 14.2434 10.8999 15.05 10.8999ZM15.05 12.0599C14.8434 12.0599 14.6767 12.1366 14.55 12.2899C14.4234 12.4432 14.33 12.6999 14.27 13.0599C14.21 13.4132 14.18 13.9032 14.18 14.5299C14.18 15.1566 14.21 15.6499 14.27 16.0099C14.33 16.3632 14.4234 16.6166 14.55 16.7699C14.6767 16.9232 14.8434 16.9999 15.05 16.9999C15.2567 16.9999 15.42 16.9266 15.54 16.7799C15.6667 16.6332 15.76 16.3799 15.82 16.0199C15.8867 15.6599 15.92 15.1632 15.92 14.5299C15.92 13.8899 15.8867 13.3932 15.82 13.0399C15.76 12.6799 15.6667 12.4266 15.54 12.2799C15.42 12.1332 15.2567 12.0599 15.05 12.0599Z" fill="url(#paint3_linear_704_31383)"/>
</g>
<defs>
<linearGradient id="paint0_linear_704_31383" x1="12" y1="7" x2="12" y2="24" gradientUnits="userSpaceOnUse">
<stop stop-color="#10808C"/>
<stop offset="1" stop-color="#1DF7EF"/>
</linearGradient>
<linearGradient id="paint1_linear_704_31383" x1="12" y1="0" x2="12" y2="7" gradientUnits="userSpaceOnUse">
<stop stop-color="#FE5468"/>
<stop offset="1" stop-color="#FFDF27"/>
</linearGradient>


<clipPath id="clip0_704_31383">
<rect width="24" height="24" fill="white"/>
</clipPath>
</defs>
</svg>
