<svg width="37" height="36" viewBox="0 0 37 36" fill="none" xmlns="http://www.w3.org/2000/svg">
  <path
    d="M22.8079 11.8824L22.8047 11.8822L22.7651 11.8797C22.73 11.8774 22.6776 11.8741 22.6094 11.8701C22.4729 11.862 22.2733 11.8508 22.0225 11.8384C21.5206 11.8137 20.8147 11.7845 19.9999 11.7666C18.3637 11.7307 16.3148 11.7412 14.6012 11.9194L22.8079 11.8824ZM22.8079 11.8824C26.2109 12.2022 29.1156 12.9286 31.1451 13.884C32.162 14.3627 32.9244 14.8827 33.4228 15.4074C33.9176 15.9283 34.1178 16.414 34.1178 16.856C34.1178 16.9252 34.1043 17.0235 34.0815 17.1317L23.1935 17.1026H23.1915H23.1862V17.1026L23.1757 17.1027C22.1115 17.1176 21.1526 17.7675 20.7525 18.7634L20.7432 18.7861L20.7359 18.8038L20.7295 18.8219L19.6057 22.0033C19.3623 22.0074 19.1175 22.0095 18.8717 22.0095C14.5202 22.0095 10.6111 21.3566 7.81697 20.3259C6.41693 19.8095 5.33613 19.2125 4.61913 18.5876C3.90033 17.9611 3.61792 17.3737 3.61792 16.856C3.61792 16.4248 3.81154 15.9502 4.29088 15.4396C4.77389 14.925 5.51316 14.4133 6.50008 13.9396C8.47192 12.9932 11.2949 12.2634 14.6011 11.9194L22.8079 11.8824Z"
    stroke="url(#paint0_linear_1053_15191)" stroke-width="1.5" fill="none" />
  <path
    d="M23.6582 22.8395H32.6243L32.2322 23.8338H23.3135L21.3279 29.4981V23.483L22.7166 19.5537C22.7953 19.355 22.9879 19.2228 23.2042 19.2197L34.0726 19.2228L33.6706 20.2026H24.5976L24.3194 21.0296H33.3603L32.9308 22.0125H23.9724L23.6582 22.8395Z"
    fill="url(#paint1_radial_1053_15191)" fill="none" />
  <path
    d="M8.02912 25.7654L8.02656 25.7631C7.94657 25.6884 7.72363 25.43 7.39307 24.9898C7.0756 24.5669 6.68732 24.0147 6.28274 23.3868C5.99793 22.9448 5.70822 22.4701 5.43097 21.9806C6.50192 22.5999 7.7842 23.1704 9.22708 23.6569C12.0048 24.5936 15.452 25.2445 19.3086 25.3199V28.7365C17.213 28.6704 14.9171 28.337 12.8986 27.8328C11.7686 27.5506 10.7392 27.2182 9.88911 26.8566C9.02715 26.49 8.39904 26.1139 8.02912 25.7654Z"
    stroke="url(#paint2_linear_1053_15191)" stroke-width="1.5" fill="none" />
  <defs>
    <linearGradient id="paint0_linear_1053_15191" x1="18.8679" y1="11" x2="18.8679" y2="22.7595"
      gradientUnits="userSpaceOnUse">
      <stop stop-color="#FE5468" />
      <stop offset="1" stop-color="#FFDF27" />
    </linearGradient>
    <radialGradient id="paint1_radial_1053_15191" cx="0" cy="0" r="1" gradientUnits="userSpaceOnUse"
      gradientTransform="translate(31.6776 22.4124) rotate(140.592) scale(12.2133 11.1774)">
      <stop stop-color="#1DF7EF" />
      <stop offset="0.9999" stop-color="#10808C" />
    </radialGradient>
    <linearGradient id="paint2_linear_1053_15191" x1="11.7384" y1="19.4609" x2="11.7384" y2="29.4985"
      gradientUnits="userSpaceOnUse">
      <stop stop-color="#10808C" />
      <stop offset="1" stop-color="#1DF7EF" />
    </linearGradient>
  </defs>
</svg>