<svg width="24" height="25" viewBox="0 0 24 25" fill="none" xmlns="http://www.w3.org/2000/svg">
<path fill-rule="evenodd" clip-rule="evenodd" d="M5.68342 3.71892C6.121 3.2586 6.7145 3 7.33333 3H13.5556C13.7618 3 13.9597 3.0862 14.1055 3.23964L18.7722 8.14873C18.9181 8.30217 19 8.51028 19 8.72727V18.5455C19 19.1964 18.7542 19.8208 18.3166 20.2811C17.879 20.7414 17.2855 21 16.6667 21H7.33333C6.71449 21 6.121 20.7414 5.68342 20.2811C5.24583 19.8208 5 19.1964 5 18.5455V5.45455C5 4.80356 5.24583 4.17924 5.68342 3.71892ZM7.33333 4.63636C7.12705 4.63636 6.92922 4.72256 6.78336 4.876C6.6375 5.02944 6.55556 5.23755 6.55556 5.45455V18.5455C6.55556 18.7625 6.6375 18.9706 6.78336 19.124C6.92922 19.2774 7.12705 19.3636 7.33333 19.3636H16.6667C16.8729 19.3636 17.0708 19.2774 17.2166 19.124C17.3625 18.9706 17.4444 18.7624 17.4444 18.5455V9.06617L13.2334 4.63636H7.33333Z" fill="url(#paint0_linear_1121_7987)"/>
<path fill-rule="evenodd" clip-rule="evenodd" d="M13.75 3C14.1642 3 14.5 3.39175 14.5 3.875V8.25H18.25C18.6642 8.25 19 8.64175 19 9.125C19 9.60825 18.6642 10 18.25 10H13.75C13.3358 10 13 9.60825 13 9.125V3.875C13 3.39175 13.3358 3 13.75 3Z" fill="url(#paint1_linear_1121_7987)"/>
<path fill-rule="evenodd" clip-rule="evenodd" d="M8 13C8 12.4477 8.35817 12 8.8 12H15.2C15.6418 12 16 12.4477 16 13C16 13.5523 15.6418 14 15.2 14H8.8C8.35817 14 8 13.5523 8 13Z" fill="url(#paint2_linear_1121_7987)"/>
<path fill-rule="evenodd" clip-rule="evenodd" d="M8 16C8 15.4477 8.35817 15 8.8 15H15.2C15.6418 15 16 15.4477 16 16C16 16.5523 15.6418 17 15.2 17H8.8C8.35817 17 8 16.5523 8 16Z" fill="url(#paint3_linear_1121_7987)"/>
<path fill-rule="evenodd" clip-rule="evenodd" d="M8 10C8 9.44772 8.33579 9 8.75 9H10.25C10.6642 9 11 9.44772 11 10C11 10.5523 10.6642 11 10.25 11H8.75C8.33579 11 8 10.5523 8 10Z" fill="url(#paint4_linear_1121_7987)"/>
<defs>
<linearGradient id="paint0_linear_1121_7987" x1="12" y1="3" x2="12" y2="21" gradientUnits="userSpaceOnUse">
<stop stop-color="#10808C"/>
<stop offset="1" stop-color="#1DF7EF"/>
</linearGradient>
<linearGradient id="paint1_linear_1121_7987" x1="16" y1="3" x2="16" y2="10" gradientUnits="userSpaceOnUse">
<stop stop-color="#FE5468"/>
<stop offset="1" stop-color="#FFDF27"/>
</linearGradient>
<linearGradient id="paint2_linear_1121_7987" x1="12" y1="12" x2="12" y2="14" gradientUnits="userSpaceOnUse">
<stop stop-color="#FE5468"/>
<stop offset="1" stop-color="#FFDF27"/>
</linearGradient>
<linearGradient id="paint3_linear_1121_7987" x1="12" y1="15" x2="12" y2="17" gradientUnits="userSpaceOnUse">
<stop stop-color="#FE5468"/>
<stop offset="1" stop-color="#FFDF27"/>
</linearGradient>
<linearGradient id="paint4_linear_1121_7987" x1="9.5" y1="9" x2="9.5" y2="11" gradientUnits="userSpaceOnUse">
<stop stop-color="#FE5468"/>
<stop offset="1" stop-color="#FFDF27"/>
</linearGradient>
</defs>
</svg>
