<svg width="15" height="15" viewBox="0 0 15 15" fill="none" xmlns="http://www.w3.org/2000/svg">
<g clip-path="url(#clip0_769_11352)">
<mask id="mask0_769_11352" style="mask-type:luminance" maskUnits="userSpaceOnUse" x="0" y="1" width="15" height="13">
<path d="M14.9565 1.59961H0.043457V13.6721H14.9565V1.59961Z" fill="white"/>
</mask>
<g mask="url(#mask0_769_11352)">
<path d="M13.3579 1.59961H14.9243L8.57284 8.82171C8.41191 9.00333 8.40118 9.2811 8.56211 9.47341L12.2206 13.7148H10.5899L7.21029 9.78323L7.03862 9.56956C6.87769 9.38794 6.88842 9.09948 7.04935 8.91786L13.3579 1.59961Z" fill="#5A6462"/>
<path d="M9.82812 9.47328C9.72083 9.35576 9.68864 9.18482 9.72083 9.03525C9.75302 8.94978 9.80666 8.86432 9.87103 8.80021L10.2895 8.34082L14.9565 13.7147H13.4759C13.4759 13.7147 10.7401 10.531 9.82812 9.47328Z" fill="#5A6462"/>
<path d="M1.67423 13.7148H0.043457L5.04307 7.95634C5.204 7.77472 5.204 7.49694 5.04307 7.31532L0.0863722 1.59961H1.65278L6.64166 7.35806C6.77041 7.529 6.79187 7.77472 6.65239 7.93497C5.34348 9.44136 1.67423 13.7148 1.67423 13.7148Z" fill="#5A6462"/>
<path d="M4.39937 1.59961H2.89734L7.52145 6.93071C7.52145 6.93071 7.53218 6.92003 8.04716 6.31107C8.18663 6.15081 8.21882 5.94782 8.05789 5.78757C7.0923 4.80468 4.39937 1.59961 4.39937 1.59961Z" fill="#5A6462"/>
<path d="M8.90545 5.31749L12.1134 1.59961H10.5899L8.91618 3.54402L8.43339 4.11025C8.27246 4.29187 8.26173 4.56964 8.42266 4.76195C8.54068 4.90083 8.90545 5.31749 8.90545 5.31749Z" fill="#5A6462"/>
<path d="M6.11593 9.99609L2.90802 13.714H4.42078L6.09447 11.7696L6.57727 11.2033C6.7382 11.0217 6.74893 10.7439 6.588 10.5516C6.46998 10.4128 6.11593 9.99609 6.11593 9.99609Z" fill="#5A6462"/>
</g>
</g>
<defs>
<clipPath id="clip0_769_11352">
<rect width="14.913" height="12.0724" fill="white" transform="translate(0.0435181 1.59961)"/>
</clipPath>
</defs>
</svg>
