<svg width="15" height="15" viewBox="0 0 15 15" fill="none" xmlns="http://www.w3.org/2000/svg">
<g clip-path="url(#clip0_769_11352)">
<mask id="mask0_769_11352" style="mask-type:luminance" maskUnits="userSpaceOnUse" x="0" y="2" width="15" height="12">
<path d="M14.2857 2.14355H0.714233V13.1299H14.2857V2.14355Z" fill="white"/>
</mask>
<g mask="url(#mask0_769_11352)">
<path d="M12.8309 2.14355H14.2564L8.47631 8.71595C8.32986 8.88123 8.3201 9.13401 8.46655 9.30902L11.7959 13.1688H10.3119L7.23634 9.59097L7.08012 9.39652C6.93366 9.23124 6.94343 8.96873 7.08988 8.80345L12.8309 2.14355Z" fill="#5A6462"/>
<path d="M9.61867 9.3089C9.52103 9.20196 9.49174 9.0464 9.52103 8.91028C9.55032 8.8325 9.59914 8.75472 9.65772 8.69639L10.0385 8.27832L14.2857 13.1687H12.9383C12.9383 13.1687 10.4486 10.2714 9.61867 9.3089Z" fill="#5A6462"/>
<path d="M2.1983 13.1688H0.714233L5.26408 7.92843C5.41053 7.76314 5.41053 7.51036 5.26408 7.34508L0.753288 2.14355H2.17878L6.71886 7.38397C6.83602 7.53953 6.85555 7.76314 6.72862 7.90898C5.53746 9.27985 2.1983 13.1688 2.1983 13.1688Z" fill="#5A6462"/>
<path d="M4.67825 2.14355H3.31134L7.51946 6.99507C7.51946 6.99507 7.52922 6.98535 7.99788 6.43117C8.1248 6.28533 8.1541 6.1006 8.00764 5.95476C7.12892 5.0603 4.67825 2.14355 4.67825 2.14355Z" fill="#5A6462"/>
<path d="M8.779 5.52698L11.6983 2.14355H10.3119L8.78877 3.91304L8.3494 4.42834C8.20295 4.59362 8.19318 4.8464 8.33964 5.02141C8.44704 5.1478 8.779 5.52698 8.779 5.52698Z" fill="#5A6462"/>
<path d="M6.24043 9.78516L3.32111 13.1686H4.69778L6.2209 11.3991L6.66026 10.8838C6.80672 10.7185 6.81648 10.4657 6.67003 10.2907C6.56263 10.1643 6.24043 9.78516 6.24043 9.78516Z" fill="#5A6462"/>
</g>
</g>
<defs>
<clipPath id="clip0_769_11352">
<rect width="13.5714" height="10.9864" fill="white" transform="translate(0.714294 2.14258)"/>
</clipPath>
</defs>
</svg>
