<svg width="15" height="15" viewBox="0 0 15 15" fill="none" xmlns="http://www.w3.org/2000/svg">
<g clip-path="url(#clip0_1208_16590)">
<g clip-path="url(#clip1_1208_16590)">
<path fill-rule="evenodd" clip-rule="evenodd" d="M15 7.5C15 11.6421 11.6421 15 7.5 15C3.35786 15 0 11.6421 0 7.5C0 3.35786 3.35786 0 7.5 0C11.6421 0 15 3.35786 15 7.5ZM5.31299 9.49245C4.86599 9.49245 4.49999 9.38745 4.21499 9.17745C3.93299 8.96445 3.79199 8.65845 3.79199 8.26545C3.79199 8.18145 3.80099 8.08245 3.81899 7.96245C3.86699 7.69245 3.93599 7.36845 4.02599 6.98745C4.28099 5.95545 4.94099 5.43945 6.00299 5.43945C6.29099 5.43945 6.55199 5.48745 6.77999 5.58645C7.00799 5.67945 7.18799 5.82345 7.31999 6.01545C7.45199 6.20445 7.51799 6.42945 7.51799 6.69045C7.51799 6.76845 7.50899 6.86745 7.49099 6.98745C7.43399 7.32045 7.36799 7.64745 7.28699 7.96245C7.15499 8.47545 6.92999 8.86245 6.60599 9.11745C6.28499 9.36945 5.85299 9.49245 5.31299 9.49245ZM5.39399 8.68245C5.60399 8.68245 5.78099 8.61945 5.92799 8.49645C6.07799 8.37345 6.18599 8.18445 6.24899 7.92645C6.33599 7.57245 6.40199 7.26645 6.44699 7.00245C6.46199 6.92445 6.47099 6.84345 6.47099 6.75945C6.47099 6.41745 6.29399 6.24645 5.93699 6.24645C5.72699 6.24645 5.54699 6.30945 5.39699 6.43245C5.24999 6.55545 5.14499 6.74445 5.08199 7.00245C5.01299 7.25445 4.94699 7.56045 4.87799 7.92645C4.86299 8.00145 4.85399 8.07945 4.85399 8.16345C4.85099 8.51145 5.03399 8.68245 5.39399 8.68245ZM7.77903 9.43809C7.73703 9.43809 7.70703 9.42609 7.68303 9.39909C7.66503 9.36909 7.65903 9.33609 7.66503 9.29709L8.44203 5.63709C8.44803 5.59509 8.46903 5.56209 8.50503 5.53509C8.53803 5.50809 8.57403 5.49609 8.61303 5.49609H10.11C10.527 5.49609 10.86 5.58309 11.112 5.75409C11.367 5.92809 11.496 6.17709 11.496 6.50409C11.496 6.59709 11.484 6.69609 11.463 6.79809C11.37 7.23009 11.181 7.54809 10.893 7.75509C10.611 7.96209 10.224 8.06409 9.73203 8.06409H8.97303L8.71503 9.29709C8.70603 9.33909 8.68803 9.37209 8.65203 9.39909C8.61903 9.42609 8.58303 9.43809 8.54403 9.43809H7.77903ZM9.77103 7.28709C9.93003 7.28709 10.065 7.24509 10.182 7.15809C10.302 7.07109 10.38 6.94809 10.419 6.78609C10.431 6.72309 10.437 6.66609 10.437 6.61809C10.437 6.51009 10.404 6.42609 10.341 6.36909C10.278 6.30909 10.167 6.27909 10.014 6.27909H9.33903L9.12603 7.28709H9.77103Z" fill="#CDD8D3"/>
</g>
</g>
<defs>
<clipPath id="clip0_1208_16590">
<rect width="15" height="15" fill="white"/>
</clipPath>
<clipPath id="clip1_1208_16590">
<rect width="15" height="15" fill="white"/>
</clipPath>
</defs>
</svg>
