<svg width="16" height="15" viewBox="0 0 16 15" fill="none" xmlns="http://www.w3.org/2000/svg">
<path d="M12.8342 4.39087C13.2678 4.74507 13.4855 5.2073 13.4873 5.77757C13.4925 7.1715 13.495 8.56567 13.495 9.96007C13.495 10.5462 13.3011 11.0231 12.9133 11.3909C12.8004 11.4977 12.5902 11.6396 12.2826 11.8165C11.2261 12.425 10.1672 13.0291 9.10605 13.6288C8.76491 13.8215 8.50358 13.9363 8.32205 13.9732C8.02431 14.0343 7.73031 14.0149 7.44005 13.9151C7.27391 13.8581 7.08375 13.766 6.86955 13.6386C6.64741 13.5065 6.53355 13.4391 6.52795 13.4363C5.52368 12.8641 4.52478 12.2824 3.53125 11.6912C3.21998 11.5059 3.00251 11.3379 2.87885 11.1872C2.68005 10.9445 2.55638 10.6664 2.50785 10.3528C2.49431 10.2669 2.48755 9.96987 2.48755 9.46167C2.48755 8.8774 2.48755 8.2929 2.48755 7.70817C2.48755 7.44637 2.48335 7.09264 2.47495 6.64697C2.46468 6.08044 2.46888 5.72647 2.48755 5.58507C2.53701 5.21454 2.67235 4.89697 2.89355 4.63237C3.02748 4.4723 3.29441 4.27514 3.69435 4.04087C4.69488 3.45614 5.69868 2.8763 6.70575 2.30137C7.15048 2.0475 7.47948 1.90214 7.69275 1.86527C8.11275 1.79247 8.53158 1.876 8.94925 2.11587C10.135 2.7958 11.3197 3.4776 12.5031 4.16127C12.6198 4.22894 12.7302 4.30547 12.8342 4.39087ZM12.2567 5.07337C11.4387 4.56704 10.2141 3.85724 8.58315 2.94397C8.36521 2.8217 8.20585 2.75264 8.10505 2.73677C7.92351 2.7083 7.74455 2.74424 7.56815 2.84457C6.49201 3.4573 5.41798 4.07354 4.34605 4.69327C3.92558 4.93687 3.71138 5.06194 3.70345 5.06847C3.48785 5.2472 3.38005 5.4894 3.38005 5.79507C3.38005 6.47174 3.38005 7.154 3.38005 7.84187C3.38005 7.87827 3.39498 7.8862 3.42485 7.86567C3.78185 7.61834 4.17525 7.4935 4.60505 7.49117C6.65698 7.48137 8.70915 7.476 10.7615 7.47507C11.2455 7.47507 11.5717 7.4466 11.7401 7.38967C12.0934 7.2702 12.3461 7.0294 12.4982 6.66727C12.5584 6.524 12.5944 6.3462 12.606 6.13387C12.62 5.88794 12.613 5.705 12.585 5.58507C12.529 5.34427 12.4196 5.1737 12.2567 5.07337ZM5.48985 11.8081C6.19311 12.2127 6.89708 12.6161 7.60175 13.0184C7.75295 13.1042 7.91861 13.1332 8.09875 13.1052C8.20841 13.0879 8.35705 13.0258 8.54465 12.919C9.68098 12.2698 10.815 11.6163 11.9466 10.9583C12.1837 10.8201 12.3377 10.7072 12.4086 10.6195C12.5351 10.4627 12.5986 10.272 12.599 10.0476C12.6014 9.38817 12.6025 8.70357 12.6025 7.99377C12.6025 7.9695 12.5923 7.96367 12.5717 7.97627C12.2614 8.1648 11.9429 8.28567 11.6162 8.33887C11.4996 8.358 11.165 8.36757 10.6124 8.36757C8.76818 8.36757 6.92368 8.36757 5.07895 8.36757C4.65895 8.36757 4.35935 8.40234 4.18015 8.47187C3.78255 8.6268 3.52565 8.93154 3.40945 9.38607C3.38985 9.464 3.38005 9.55594 3.38005 9.66187C3.38005 9.7552 3.38005 9.84854 3.38005 9.94187C3.38005 10.1295 3.39475 10.2681 3.42415 10.3577C3.49228 10.5644 3.62691 10.7266 3.82805 10.8442C4.38058 11.1671 4.93451 11.4884 5.48985 11.8081Z" fill="#5A6462"/>
<path d="M5.9567 5.57143L5.9525 6.76073C5.9525 6.79783 5.9231 6.82793 5.8867 6.82723L5.0992 6.82303C5.0775 6.82303 5.06 6.80483 5.06 6.78313C5.06 6.42893 5.06 6.08336 5.06 5.74643C5.06 5.49489 5.08496 5.30916 5.1349 5.18923C5.21656 4.99416 5.3505 4.85019 5.5367 4.75733C5.67016 4.69059 5.88296 4.65723 6.1751 4.65723C6.31976 4.65723 6.46466 4.65723 6.6098 4.65723C6.80486 4.65723 6.94883 4.67006 7.0417 4.69573C7.38003 4.78999 7.58863 5.02799 7.6675 5.40973C7.7053 5.59219 7.70716 6.04859 7.6731 6.77893C7.6724 6.79993 7.6556 6.81603 7.636 6.81603L6.8513 6.82583C6.8191 6.82653 6.7925 6.79853 6.7925 6.76493V5.58333C6.7925 5.55463 6.7694 5.53153 6.7414 5.53223L5.9924 5.53643C5.9728 5.53643 5.9567 5.55183 5.9567 5.57143Z" fill="#5A6462"/>
<path d="M9.42166 5.57073L9.41746 6.76633C9.41746 6.79993 9.39016 6.82723 9.35656 6.82723H8.57186C8.54596 6.82723 8.52496 6.80623 8.52496 6.78033C8.52496 6.42053 8.51936 6.06306 8.50816 5.70793C8.49369 5.24033 8.66752 4.92066 9.02966 4.74893C9.15846 4.68779 9.34046 4.65723 9.57566 4.65723C9.74646 4.65723 9.91726 4.65723 10.0881 4.65723C10.3116 4.65723 10.4798 4.67893 10.5928 4.72233C10.8051 4.80353 10.9577 4.94166 11.0506 5.13673C11.1168 5.27626 11.15 5.53293 11.15 5.90673C11.15 6.19699 11.15 6.48819 11.15 6.78033C11.15 6.80623 11.129 6.82723 11.1031 6.82723H10.3191C10.2876 6.82723 10.2617 6.80203 10.2617 6.77053L10.2582 5.58753C10.2575 5.55743 10.2337 5.53293 10.2043 5.53293L9.45736 5.53573C9.43776 5.53573 9.42166 5.55113 9.42166 5.57073Z" fill="#5A6462"/>
<path d="M5.99166 10.2883H6.75326C6.77216 10.2883 6.78756 10.2722 6.78826 10.2526L6.80436 9.06194C6.80506 9.04164 6.82116 9.02554 6.84146 9.02554L7.62476 9.01574C7.64926 9.01574 7.66886 9.03604 7.66816 9.06124C7.66209 9.45604 7.66232 9.83707 7.66886 10.2043C7.67866 10.7284 7.43319 11.0492 6.93246 11.1668C6.82793 11.1916 6.51876 11.1965 6.00496 11.1815C5.58356 11.1694 5.29843 11.0002 5.14956 10.674C5.09076 10.5448 5.06183 10.3434 5.06276 10.0699C5.06369 9.73721 5.05879 9.40447 5.04806 9.07174C5.04736 9.05144 5.06206 9.03464 5.08166 9.03254C5.35559 9.00501 5.62976 9.00244 5.90416 9.02484C5.92446 9.02624 5.93986 9.04234 5.94056 9.06194L5.95666 10.2533C5.95736 10.2729 5.97276 10.2883 5.99166 10.2883Z" fill="#5A6462"/>
<path d="M10.254 10.2532L10.2568 9.06323C10.2575 9.03663 10.2785 9.01562 10.3044 9.01562H11.0793C11.1171 9.01562 11.1479 9.04573 11.1486 9.08353C11.1556 9.47646 11.1537 9.85376 11.143 10.2154C11.136 10.439 11.0975 10.6116 11.0275 10.7334C10.8529 11.0391 10.5554 11.1898 10.135 11.1856C9.8923 11.1833 9.6977 11.1805 9.55116 11.1772C9.30663 11.1726 9.1188 11.1355 8.98766 11.0659C8.68386 10.9054 8.5308 10.6245 8.52846 10.2231C8.52613 9.84419 8.52496 9.45756 8.52496 9.06323C8.52496 9.03733 8.54526 9.01632 8.56976 9.01702L9.36986 9.02683C9.38946 9.02753 9.40556 9.04363 9.40556 9.06393L9.41606 10.2378C9.41676 10.2679 9.43986 10.2924 9.46856 10.2924L10.2176 10.2896C10.2372 10.2896 10.2533 10.2735 10.254 10.2532Z" fill="#5A6462"/>
</svg>
