<svg width="15" height="15" viewBox="0 0 15 15" fill="none" xmlns="http://www.w3.org/2000/svg">
<path d="M13.5054 3.07789C14.0285 3.50524 14.2911 4.06294 14.2934 4.75098C14.2996 6.4328 14.3027 8.1149 14.3027 9.79729C14.3027 10.5045 14.0687 11.0799 13.6008 11.5236C13.4646 11.6525 13.2109 11.8237 12.8399 12.0371C11.5651 12.7713 10.2876 13.5002 9.00721 14.2237C8.59562 14.4562 8.28031 14.5947 8.06129 14.6392C7.70206 14.713 7.34734 14.6896 6.99713 14.5691C6.79668 14.5004 6.56724 14.3892 6.3088 14.2355C6.04079 14.0762 5.90341 13.9948 5.89665 13.9914C4.68498 13.3011 3.47978 12.5993 2.28105 11.8859C1.9055 11.6624 1.64312 11.4597 1.49391 11.2778C1.25405 10.985 1.10484 10.6495 1.04629 10.2711C1.02996 10.1675 1.0218 9.80911 1.0218 9.19595C1.0218 8.49102 1.0218 7.7858 1.0218 7.0803C1.0218 6.76443 1.01673 6.33765 1.00659 5.79994C0.994206 5.1164 0.999274 4.68933 1.0218 4.51872C1.08148 4.07166 1.24476 3.68851 1.51165 3.36926C1.67324 3.17614 1.9953 2.93825 2.47783 2.6556C3.68501 1.9501 4.89612 1.25052 6.11118 0.556844C6.64776 0.250547 7.04471 0.0751575 7.30202 0.0306768C7.80876 -0.0571585 8.3141 0.0436269 8.81802 0.333033C10.2487 1.15339 11.678 1.976 13.1059 2.80087C13.2467 2.88251 13.3798 2.97485 13.5054 3.07789ZM12.8086 3.90134C11.8216 3.29044 10.3442 2.43404 8.37631 1.33216C8.11337 1.18464 7.92109 1.10131 7.79947 1.08217C7.58045 1.04782 7.36452 1.09118 7.15169 1.21223C5.8533 1.95151 4.55745 2.69501 3.26413 3.44274C2.75682 3.73665 2.49839 3.88755 2.48881 3.89543C2.22869 4.11108 2.09862 4.4033 2.09862 4.77209C2.09862 5.58851 2.09862 6.41169 2.09862 7.24162C2.09862 7.28553 2.11664 7.29511 2.15267 7.27033C2.58341 6.97192 3.05805 6.8213 3.57662 6.81849C6.05234 6.80666 8.52833 6.80019 11.0046 6.79906C11.5885 6.79906 11.9821 6.76472 12.1853 6.69602C12.6115 6.55188 12.9164 6.26135 13.1 5.82443C13.1726 5.65157 13.216 5.43705 13.2301 5.18086C13.2469 4.88414 13.2385 4.66343 13.2047 4.51872C13.1372 4.22819 13.0051 4.0224 12.8086 3.90134ZM4.64416 12.0269C5.49267 12.5151 6.34202 13.0019 7.19222 13.4872C7.37465 13.5908 7.57453 13.6257 7.79187 13.5919C7.92419 13.5711 8.10352 13.4962 8.32986 13.3673C9.70088 12.5841 11.0691 11.7955 12.4345 11.0016C12.7205 10.835 12.9063 10.6987 12.9919 10.5929C13.1445 10.4037 13.221 10.1737 13.2216 9.90286C13.2244 9.10727 13.2258 8.28128 13.2258 7.42489C13.2258 7.39561 13.2134 7.38857 13.1887 7.40377C12.8142 7.63125 12.43 7.77707 12.0358 7.84126C11.8951 7.86435 11.4914 7.87589 10.8247 7.87589C8.59956 7.87589 6.37412 7.87589 4.14839 7.87589C3.64165 7.87589 3.28018 7.91784 3.06397 8.00173C2.58425 8.18866 2.27429 8.55633 2.13409 9.10474C2.11045 9.19877 2.09862 9.30969 2.09862 9.4375C2.09862 9.55011 2.09862 9.66272 2.09862 9.77533C2.09862 10.0017 2.11636 10.1689 2.15183 10.277C2.23404 10.5264 2.39647 10.7221 2.63915 10.864C3.30579 11.2536 3.97413 11.6413 4.64416 12.0269Z" fill="#5A6462"/>
<path d="M5.64439 5.00927L5.64023 6.18758C5.64023 6.22433 5.61111 6.25416 5.57504 6.25346L4.79482 6.2493C4.77332 6.2493 4.75598 6.23127 4.75598 6.20977C4.75598 5.85884 4.75598 5.51647 4.75598 5.18265C4.75598 4.93344 4.78072 4.74942 4.83019 4.6306C4.9111 4.43734 5.0438 4.2947 5.22828 4.20269C5.36051 4.13657 5.57134 4.10352 5.86078 4.10352C6.00411 4.10352 6.14767 4.10352 6.29146 4.10352C6.48472 4.10352 6.62736 4.11623 6.71937 4.14166C7.05458 4.23506 7.26125 4.47086 7.33939 4.84906C7.37684 5.02984 7.37869 5.48202 7.34493 6.20561C7.34424 6.22641 7.3276 6.24237 7.30818 6.24237L6.53073 6.25208C6.49883 6.25277 6.47247 6.22503 6.47247 6.19174V5.02106C6.47247 4.99262 6.44958 4.96974 6.42184 4.97043L5.67977 4.97459C5.66035 4.97459 5.64439 4.98985 5.64439 5.00927Z" fill="#5A6462"/>
<path d="M9.07733 5.00857L9.07317 6.19313C9.07317 6.22641 9.04612 6.25346 9.01283 6.25346H8.23538C8.20972 6.25346 8.18892 6.23266 8.18892 6.207C8.18892 5.85052 8.18337 5.49636 8.17227 5.14451C8.15794 4.68123 8.33017 4.36451 8.68895 4.19437C8.81656 4.1338 8.99688 4.10352 9.22991 4.10352C9.39913 4.10352 9.56835 4.10352 9.73757 4.10352C9.95904 4.10352 10.1257 4.12502 10.2376 4.16801C10.448 4.24846 10.5992 4.38532 10.6912 4.57858C10.7568 4.71683 10.7897 4.97112 10.7897 5.34147C10.7897 5.62905 10.7897 5.91756 10.7897 6.207C10.7897 6.23266 10.7689 6.25346 10.7432 6.25346H9.96644C9.93523 6.25346 9.90957 6.2285 9.90957 6.19729L9.9061 5.02522C9.90541 4.9954 9.88183 4.97112 9.8527 4.97112L9.1127 4.9739C9.09328 4.9739 9.07733 4.98916 9.07733 5.00857Z" fill="#5A6462"/>
<path d="M5.67904 9.68277H6.43361C6.45233 9.68277 6.46759 9.66682 6.46828 9.6474L6.48423 8.46771C6.48493 8.44759 6.50088 8.43164 6.52099 8.43164L7.29705 8.42193C7.32133 8.42193 7.34075 8.44205 7.34005 8.46701C7.33404 8.85816 7.33427 9.23568 7.34075 9.59955C7.35045 10.1188 7.10726 10.4366 6.61115 10.5532C6.50758 10.5777 6.20127 10.5825 5.69222 10.5677C5.27472 10.5557 4.99222 10.3881 4.84473 10.0649C4.78647 9.93684 4.7578 9.73733 4.75873 9.46639C4.75965 9.13673 4.7548 8.80707 4.74416 8.47742C4.74347 8.4573 4.75803 8.44066 4.77745 8.43858C5.04886 8.4113 5.32049 8.40876 5.59235 8.43095C5.61247 8.43234 5.62772 8.44829 5.62842 8.46771L5.64437 9.6481C5.64506 9.66752 5.66032 9.68277 5.67904 9.68277Z" fill="#5A6462"/>
<path d="M9.90199 9.64804L9.90476 8.46904C9.90546 8.44268 9.92626 8.42188 9.95192 8.42188H10.7197C10.7571 8.42188 10.7876 8.4517 10.7883 8.48915C10.7953 8.87845 10.7934 9.25226 10.7828 9.61059C10.7758 9.83206 10.7377 10.0031 10.6683 10.1238C10.4954 10.4266 10.2007 10.576 9.78409 10.5718C9.54366 10.5695 9.35086 10.5667 9.20568 10.5635C8.96341 10.5589 8.77731 10.5221 8.64739 10.4532C8.3464 10.2942 8.19474 10.0158 8.19243 9.61822C8.19012 9.24278 8.18896 8.85972 8.18896 8.46904C8.18896 8.44337 8.20908 8.42257 8.23335 8.42326L9.02606 8.43297C9.04548 8.43367 9.06143 8.44962 9.06143 8.46973L9.07183 9.63278C9.07252 9.6626 9.09541 9.68688 9.12385 9.68688L9.86592 9.6841C9.88534 9.6841 9.90129 9.66815 9.90199 9.64804Z" fill="#5A6462"/>
</svg>
