<svg width="162" height="99" viewBox="0 0 162 99" fill="none" xmlns="http://www.w3.org/2000/svg">
<path d="M82.1873 6.43455L80.9896 3.89813L79.7919 6.43455L78.9228 8.27497L77.821 6.56373L76.3024 4.20534L75.446 6.87639L74.8246 8.81451L73.5088 7.26173L71.6955 5.12173L71.195 7.88171L70.8319 9.88435L69.3247 8.5166L67.2475 6.6316L67.1116 9.4333L67.013 11.4662L65.3402 10.3069L63.0347 8.70913L63.2656 11.5046L63.4332 13.533L61.6234 12.6019L59.1291 11.3188L59.7229 14.0602L60.1538 16.0493L58.238 15.3625L55.5975 14.4159L56.5441 17.0563L57.231 18.9722L55.2418 18.5413L52.5004 17.9474L53.7836 20.4417L54.7146 22.2516L52.6862 22.084L49.8908 21.8531L51.4885 24.1585L52.6478 25.8314L50.6149 25.93L47.8132 26.0659L49.6982 28.1431L51.066 29.6503L49.0634 30.0134L46.3034 30.5138L48.4434 32.3272L49.9961 33.643L48.058 34.2644L45.387 35.1208L47.7454 36.6393L49.4566 37.7412L47.6162 38.6103L45.0798 39.808L47.6162 41.0057L49.4566 41.8748L47.7454 42.9766L45.387 44.4952L48.058 45.3516L49.9961 45.973L48.4434 47.2887L46.3034 49.1021L49.0634 49.6026L51.066 49.9657L49.6982 51.4729L47.8132 53.5501L50.6149 53.686L52.6478 53.7846L51.4885 55.4574L49.8908 57.7629L52.6862 57.5319L54.7146 57.3644L53.7836 59.1742L52.5004 61.6685L55.2418 61.0746L57.231 60.6437L56.5441 62.5596L55.5975 65.2001L58.238 64.2535L60.1538 63.5666L59.7229 65.5558L59.1291 68.2972L61.6234 67.014L63.4332 66.083L63.2656 68.1114L63.0347 70.9068L65.3402 69.3091L67.013 68.1498L67.1116 70.1827L67.2475 72.9844L69.3247 71.0993L70.8319 69.7316L71.195 71.7342L71.6955 74.4942L73.5088 72.3542L74.8246 70.8014L75.446 72.7396L76.3024 75.4106L77.821 73.0522L78.9228 71.341L79.7919 73.1814L80.9896 75.7178L82.1873 73.1814L83.0564 71.341L84.1582 73.0522L85.6768 75.4106L86.5332 72.7396L87.1546 70.8014L88.4704 72.3542L90.2838 74.4942L90.7842 71.7342L91.1473 69.7316L92.6545 71.0993L94.7317 72.9844L94.8676 70.1827L94.9662 68.1498L96.6391 69.3091L98.9445 70.9068L98.7136 68.1114L98.546 66.083L100.356 67.014L102.85 68.2972L102.256 65.5558L101.825 63.5666L103.741 64.2535L106.382 65.2001L105.435 62.5596L104.748 60.6437L106.737 61.0746L109.479 61.6685L108.196 59.1742L107.265 57.3644L109.293 57.5319L112.088 57.7629L110.491 55.4574L109.331 53.7846L111.364 53.686L114.166 53.5501L112.281 51.4729L110.913 49.9657L112.916 49.6026L115.676 49.1021L113.536 47.2887L111.983 45.973L113.921 45.3516L116.592 44.4952L114.234 42.9766L112.523 41.8748L114.363 41.0057L116.899 39.808L114.363 38.6103L112.523 37.7412L114.234 36.6393L116.592 35.1208L113.921 34.2644L111.983 33.643L113.536 32.3272L115.676 30.5138L112.916 30.0134L110.913 29.6503L112.281 28.1431L114.166 26.0659L111.364 25.93L109.331 25.8314L110.491 24.1585L112.088 21.8531L109.293 22.084L107.265 22.2516L108.196 20.4417L109.479 17.9474L106.737 18.5413L104.748 18.9722L105.435 17.0563L106.382 14.4159L103.741 15.3625L101.825 16.0493L102.256 14.0602L102.85 11.3188L100.356 12.6019L98.546 13.533L98.7136 11.5046L98.9445 8.70913L96.6391 10.3069L94.9662 11.4662L94.8676 9.4333L94.7317 6.6316L92.6545 8.5166L91.1473 9.88435L90.7842 7.88171L90.2838 5.12173L88.4704 7.26173L87.1546 8.81451L86.5332 6.87639L85.6768 4.20534L84.1582 6.56373L83.0564 8.27497L82.1873 6.43455Z" fill="#FF0420" stroke="white" stroke-width="2.64908"/>
<path d="M69.1524 26.7034C69.1796 26.6395 69.2701 26.6395 69.2973 26.7034L70.5913 29.7459C70.8038 30.2455 71.2017 30.6434 71.7013 30.8559L74.7438 32.1499C74.8077 32.177 74.8077 32.2676 74.7438 32.2947L71.7013 33.5887C71.2017 33.8012 70.8038 34.1991 70.5913 34.6987L69.2973 37.7412C69.2701 37.8051 69.1796 37.8051 69.1524 37.7412L67.8584 34.6987C67.6459 34.1991 67.2481 33.8012 66.7484 33.5887L63.7059 32.2947C63.6421 32.2676 63.6421 32.177 63.7059 32.1499L66.7484 30.8559C67.2481 30.6434 67.6459 30.2455 67.8584 29.7459L69.1524 26.7034Z" fill="white"/>
<path d="M92.8015 26.6996C92.8281 26.6372 92.9166 26.6372 92.9432 26.6996L94.2461 29.763C94.4539 30.2517 94.843 30.6408 95.3316 30.8486L98.395 32.1515C98.4575 32.178 98.4575 32.2666 98.395 32.2931L95.3316 33.596C94.843 33.8039 94.4539 34.193 94.2461 34.6816L92.9432 37.745C92.9166 37.8074 92.8281 37.8074 92.8015 37.745L91.4986 34.6816C91.2908 34.193 90.9017 33.8039 90.413 33.596L87.3497 32.2931C87.2872 32.2666 87.2872 32.178 87.3497 32.1515L90.413 30.8486C90.9017 30.6408 91.2908 30.2517 91.4986 29.763L92.8015 26.6996Z" fill="white"/>
<path d="M85.0129 38.6002C85.0129 40.6515 83.3081 42.3143 80.9893 42.3143C78.6705 42.3143 76.9657 40.6515 76.9657 38.6002" stroke="white" stroke-width="1.85705" stroke-linecap="round"/>
<path d="M9.24258 55.8732C10.2639 51.1934 14.4071 47.8569 19.197 47.8569H145.181C151.71 47.8569 156.554 53.9105 155.122 60.28L152.672 71.1819C151.627 75.8322 147.497 79.1365 142.731 79.1365H16.8178C10.3154 79.1365 5.47686 73.1281 6.86332 66.7752L9.24258 55.8732Z" fill="white"/>
<path fill-rule="evenodd" clip-rule="evenodd" d="M2.77248 54.4613C4.45767 46.7396 11.2939 41.2344 19.1974 41.2344H47.1625L45.4304 45.6155H117.771L114.918 41.2344H145.182C155.953 41.2344 163.946 51.2228 161.584 61.7324L159.134 72.6344C157.409 80.3073 150.596 85.7593 142.731 85.7593H16.8181C6.08916 85.7593 -1.89443 75.8455 0.393223 65.3633L2.77248 54.4613ZM19.1974 54.4798C17.5209 54.4798 16.0708 55.6476 15.7133 57.2855L13.334 68.1875C12.8488 70.411 14.5423 72.5139 16.8181 72.5139H142.731C144.399 72.5139 145.845 71.3574 146.211 69.7298L148.661 58.8278C149.162 56.5985 147.466 54.4798 145.182 54.4798H124.903H38.4001H19.1974Z" fill="white"/>
<path fill-rule="evenodd" clip-rule="evenodd" d="M19.1974 45.4116C13.2578 45.4116 8.12029 49.5489 6.85385 55.3518L4.47459 66.2538C2.75539 74.1314 8.75517 81.5818 16.8181 81.5818H142.731C148.641 81.5818 153.762 77.4845 155.058 71.7182L157.508 60.8162C159.283 52.9181 153.277 45.4116 145.182 45.4116H19.1974ZM93.1067 76.6912H142.731C146.354 76.6912 149.492 74.1799 150.286 70.6457L152.737 59.7437C153.825 54.903 150.143 50.3022 145.182 50.3022H98.8207L93.1067 76.6912Z" fill="#FF0420"/>
<path d="M13.6924 72.6833C13.5087 72.6833 13.3752 72.6249 13.2917 72.5081C13.2082 72.3912 13.1832 72.2409 13.2166 72.0573L16.6474 55.7798C16.6808 55.5961 16.7726 55.4459 16.9228 55.329C17.0731 55.2121 17.24 55.1537 17.4237 55.1537H24.0599C26.1468 55.1537 27.6827 55.6379 28.6677 56.6062C29.6694 57.5578 29.9782 58.9351 29.5943 60.7381C29.3438 61.9569 28.8346 62.9753 28.0667 63.7933C27.3154 64.6114 26.4055 65.2207 25.3371 65.6214L27.5408 71.882C27.5575 71.9321 27.5658 71.9738 27.5658 72.0072C27.5825 72.0406 27.5825 72.0907 27.5658 72.1575C27.5324 72.291 27.449 72.4162 27.3154 72.5331C27.1985 72.6333 27.065 72.6833 26.9147 72.6833H24.135C23.8345 72.6833 23.6258 72.6082 23.509 72.458C23.4088 72.291 23.3337 72.1408 23.2836 72.0072L21.4555 66.2725H18.4254L17.1733 72.0573C17.1399 72.2409 17.048 72.3912 16.8978 72.5081C16.7642 72.6249 16.6056 72.6833 16.422 72.6833H13.6924ZM19.0765 63.0921H22.3069C23.2085 63.0921 23.9263 62.8834 24.4606 62.4661C24.9948 62.0487 25.3454 61.4644 25.5124 60.7131C25.6626 59.9618 25.5624 59.3692 25.2118 58.9351C24.8779 58.501 24.2519 58.284 23.3337 58.284H20.1032L19.0765 63.0921ZM29.7856 72.6833C29.6186 72.6833 29.4851 72.6249 29.3849 72.5081C29.2847 72.3912 29.2514 72.2409 29.2847 72.0573L32.7406 55.7798C32.774 55.5961 32.8658 55.4459 33.0161 55.329C33.1663 55.2121 33.3249 55.1537 33.4919 55.1537H44.836C45.0197 55.1537 45.1533 55.2121 45.2367 55.329C45.3369 55.4459 45.3703 55.5961 45.3369 55.7798L44.9112 57.7832C44.8778 57.9501 44.786 58.092 44.6357 58.2089C44.5022 58.3257 44.3436 58.3842 44.1599 58.3842H36.0462L35.1947 62.3158H42.7575C42.9412 62.3158 43.0747 62.3742 43.1582 62.4911C43.2584 62.608 43.2918 62.7582 43.2584 62.9419L42.8577 64.795C42.8243 64.962 42.7325 65.1039 42.5822 65.2207C42.4487 65.3376 42.2901 65.396 42.1064 65.396H34.5687L33.6922 69.4529H42.0063C42.1899 69.4529 42.3235 69.5113 42.4069 69.6282C42.5071 69.745 42.5405 69.8953 42.5071 70.0789L42.0814 72.0573C42.048 72.2409 41.9562 72.3912 41.8059 72.5081C41.6724 72.6249 41.5138 72.6833 41.3301 72.6833H29.7856ZM48.7153 72.6833C48.5483 72.6833 48.4148 72.6249 48.3146 72.5081C48.2144 72.3912 48.181 72.2409 48.2144 72.0573L51.0943 58.6346H46.5366C46.3696 58.6346 46.2361 58.5762 46.1359 58.4593C46.0357 58.3424 46.0023 58.2005 46.0357 58.0336L46.5115 55.7798C46.5449 55.5961 46.6284 55.4459 46.762 55.329C46.9122 55.2121 47.0792 55.1537 47.2628 55.1537H60.385C60.5686 55.1537 60.7022 55.2121 60.7857 55.329C60.8858 55.4459 60.9192 55.5961 60.8858 55.7798L60.385 58.0336C60.3516 58.2005 60.2681 58.3424 60.1346 58.4593C60.001 58.5762 59.8424 58.6346 59.6588 58.6346H55.1261L52.2462 72.0573C52.2128 72.2409 52.121 72.3912 51.9708 72.5081C51.8372 72.6249 51.6786 72.6833 51.495 72.6833H48.7153ZM60.0158 72.6833C59.8322 72.6833 59.6986 72.6249 59.6151 72.5081C59.5317 72.3912 59.5066 72.2409 59.54 72.0573L62.9708 55.7798C63.0042 55.5961 63.096 55.4459 63.2463 55.329C63.3965 55.2121 63.5635 55.1537 63.7471 55.1537H70.3834C72.4702 55.1537 74.0061 55.6379 74.9911 56.6062C75.9928 57.5578 76.3017 58.9351 75.9177 60.7381C75.6673 61.9569 75.1581 62.9753 74.3901 63.7933C73.6389 64.6114 72.729 65.2207 71.6605 65.6214L73.8642 71.882C73.8809 71.9321 73.8893 71.9738 73.8893 72.0072C73.906 72.0406 73.906 72.0907 73.8893 72.1575C73.8559 72.291 73.7724 72.4162 73.6389 72.5331C73.522 72.6333 73.3884 72.6833 73.2382 72.6833H70.4585C70.158 72.6833 69.9493 72.6082 69.8324 72.458C69.7323 72.291 69.6571 72.1408 69.607 72.0072L67.7789 66.2725H64.7488L63.4967 72.0573C63.4633 72.2409 63.3715 72.3912 63.2212 72.5081C63.0877 72.6249 62.9291 72.6833 62.7454 72.6833H60.0158ZM65.3999 63.0921H68.6304C69.5319 63.0921 70.2498 62.8834 70.784 62.4661C71.3183 62.0487 71.6689 61.4644 71.8358 60.7131C71.9861 59.9618 71.8859 59.3692 71.5353 58.9351C71.2014 58.501 70.5753 58.284 69.6571 58.284H66.4267L65.3999 63.0921ZM82.7202 72.9338C81.6851 72.9338 80.7252 72.7919 79.8404 72.5081C78.9722 72.2242 78.2377 71.7985 77.6366 71.2309C77.0523 70.6633 76.6349 69.9537 76.3845 69.1023C76.1508 68.2509 76.1341 67.2492 76.3344 66.0972C76.4513 65.3793 76.5849 64.6698 76.7351 63.9686C76.9021 63.2507 77.069 62.5245 77.236 61.7899C77.7869 59.5361 78.7719 57.8249 80.191 56.6562C81.6267 55.4876 83.5216 54.9033 85.8756 54.9033C86.9107 54.9033 87.8623 55.0535 88.7304 55.354C89.5985 55.6379 90.3331 56.0719 90.9341 56.6562C91.5351 57.2406 91.9525 57.9584 92.1862 58.8099C92.4367 59.6613 92.4617 60.6547 92.2614 61.7899C92.1278 62.5245 91.9859 63.2507 91.8356 63.9686C91.6854 64.6698 91.5184 65.3793 91.3348 66.0972C90.7672 68.4011 89.7738 70.1207 88.3548 71.2559C86.9357 72.3745 85.0575 72.9338 82.7202 72.9338ZM82.9957 69.7033C83.9974 69.7033 84.8822 69.4111 85.6502 68.8268C86.4182 68.2258 86.9524 67.2742 87.2529 65.972C87.4365 65.2374 87.5951 64.5529 87.7287 63.9185C87.879 63.2674 88.0125 62.5829 88.1294 61.8651C88.3798 60.5629 88.2713 59.6196 87.8038 59.0353C87.3531 58.4343 86.6185 58.1337 85.6001 58.1337C84.5817 58.1337 83.6969 58.4343 82.9456 59.0353C82.1943 59.6196 81.6601 60.5629 81.3429 61.8651C81.1593 62.5829 81.0007 63.2674 80.8671 63.9185C80.7335 64.5529 80.6 65.2374 80.4664 65.972C80.2327 67.2742 80.3329 68.2258 80.7669 68.8268C81.2177 69.4111 81.9606 69.7033 82.9957 69.7033Z" fill="white"/>
<path d="M100.05 72.6833C99.8667 72.6833 99.7248 72.6249 99.6246 72.5081C99.5245 72.3912 99.4911 72.2409 99.5245 72.0573L102.98 55.8048C103.014 55.6212 103.106 55.4709 103.256 55.354C103.406 55.2205 103.573 55.1537 103.757 55.1537H110.468C112.338 55.1537 113.84 55.5377 114.976 56.3057C116.128 57.0736 116.704 58.1922 116.704 59.6613C116.704 60.0787 116.653 60.5128 116.553 60.9635C116.136 62.9001 115.284 64.3359 113.999 65.2708C112.73 66.189 110.994 66.6481 108.79 66.6481H105.535L104.383 72.0573C104.349 72.2409 104.257 72.3912 104.107 72.5081C103.974 72.6249 103.815 72.6833 103.631 72.6833H100.05ZM108.965 63.0671C109.633 63.0671 110.218 62.8918 110.718 62.5412C111.219 62.1739 111.545 61.6397 111.695 60.9385C111.762 60.5712 111.795 60.3208 111.795 60.1872C111.795 59.2356 111.194 58.7598 109.992 58.7598H107.137L106.211 63.0671H108.965ZM123.432 72.9338C121.329 72.9338 119.709 72.483 118.574 71.5815C117.439 70.68 116.871 69.3778 116.871 67.6749C116.871 67.1907 116.921 66.6732 117.021 66.1223C117.272 64.7533 117.597 63.2257 117.998 61.5395C118.515 59.4359 119.592 57.8082 121.228 56.6562C122.864 55.4876 124.876 54.9033 127.264 54.9033C128.733 54.9033 129.985 55.1203 131.02 55.5544C132.055 55.9884 132.823 56.5644 133.324 57.2823C133.841 57.9835 134.1 58.7264 134.1 59.5111C134.1 59.8116 134.083 60.0286 134.05 60.1622C134.033 60.3124 133.958 60.446 133.825 60.5629C133.691 60.663 133.549 60.7131 133.399 60.7131H129.517C129.35 60.7131 129.225 60.6881 129.142 60.638C129.058 60.5712 128.991 60.4794 128.941 60.3625C128.841 59.8951 128.599 59.4944 128.215 59.1605C127.848 58.8266 127.264 58.6596 126.462 58.6596C124.542 58.6596 123.332 59.6613 122.831 61.6647C122.531 62.9168 122.222 64.3609 121.905 65.997C121.838 66.4311 121.804 66.74 121.804 66.9236C121.804 68.4261 122.639 69.1774 124.309 69.1774C125.26 69.1774 126.07 68.9353 126.738 68.4512C127.422 67.967 127.865 67.2325 128.065 66.2475L128.165 65.7967H125.911C125.728 65.7967 125.586 65.7383 125.486 65.6214C125.402 65.4878 125.385 65.3292 125.435 65.1456L125.836 63.1923C125.87 63.0087 125.961 62.8584 126.112 62.7415C126.262 62.608 126.429 62.5412 126.612 62.5412H132.998C133.182 62.5412 133.315 62.608 133.399 62.7415C133.499 62.8584 133.533 63.0087 133.499 63.1923L132.873 66.0972C132.573 67.5163 131.98 68.7434 131.095 69.7784C130.227 70.7968 129.133 71.5815 127.815 72.1324C126.496 72.6667 125.035 72.9338 123.432 72.9338ZM133.916 72.6833C133.733 72.6833 133.591 72.6249 133.491 72.5081C133.39 72.3912 133.357 72.2409 133.39 72.0573L136.846 55.8048C136.88 55.6212 136.971 55.4709 137.122 55.354C137.272 55.2205 137.439 55.1537 137.622 55.1537H149.242C149.426 55.1537 149.568 55.2205 149.668 55.354C149.768 55.4709 149.801 55.6212 149.768 55.8048L149.192 58.4593C149.159 58.6429 149.067 58.7932 148.917 58.9101C148.766 59.0269 148.608 59.0854 148.441 59.0854H140.778L140.027 62.5662H147.189C147.372 62.5662 147.506 62.633 147.589 62.7666C147.69 62.8834 147.723 63.0337 147.69 63.2173L147.114 65.8718C147.097 66.0388 147.005 66.189 146.838 66.3226C146.688 66.4395 146.521 66.4979 146.337 66.4979H139.2L137.998 72.0573C137.965 72.2409 137.873 72.3912 137.723 72.5081C137.589 72.6249 137.431 72.6833 137.247 72.6833H133.916Z" fill="#FF0420"/>
<path d="M44.4309 97.9956C44.3365 97.9956 44.2628 97.9691 44.2097 97.9159C44.1565 97.8569 44.1329 97.7861 44.1388 97.7035L44.3336 92.0031C44.3395 91.95 44.3631 91.9028 44.4044 91.8614C44.4516 91.8201 44.5047 91.7995 44.5637 91.7995H45.6879C45.859 91.7995 45.9357 91.8732 45.918 92.0208L45.7675 95.3136L46.7766 93.4105C46.8592 93.2511 46.9714 93.1715 47.113 93.1715H47.7769C47.9244 93.1715 48.007 93.2511 48.0247 93.4105L48.2371 95.3401L49.4941 92.0031C49.5177 91.9264 49.5531 91.8732 49.6003 91.8437C49.6534 91.8142 49.7242 91.7995 49.8127 91.7995H51.0077C51.0549 91.7995 51.0903 91.8142 51.1139 91.8437C51.1434 91.8673 51.1582 91.8998 51.1582 91.9411C51.1582 91.9588 51.1523 91.9854 51.1405 92.0208L49.0603 97.7035C49.0249 97.7861 48.9689 97.8569 48.8922 97.9159C48.8213 97.9691 48.7387 97.9956 48.6443 97.9956H47.7326C47.6382 97.9956 47.5674 97.972 47.5202 97.9248C47.4789 97.8776 47.4552 97.8245 47.4493 97.7655L47.0068 95.3136L45.7056 97.7655C45.623 97.9189 45.4961 97.9956 45.325 97.9956H44.4309ZM51.6105 97.9956C51.5456 97.9956 51.4954 97.975 51.46 97.9336C51.4305 97.8864 51.4217 97.8333 51.4335 97.7743L52.6638 92.0208C52.6756 91.9559 52.7051 91.9028 52.7524 91.8614C52.8055 91.8201 52.8645 91.7995 52.9294 91.7995H54.1863C54.2453 91.7995 54.2925 91.8201 54.3279 91.8614C54.3692 91.9028 54.384 91.9559 54.3722 92.0208L53.1418 97.7743C53.13 97.8392 53.0976 97.8923 53.0445 97.9336C52.9913 97.975 52.9353 97.9956 52.8763 97.9956H51.6105ZM56.5063 97.9956C56.4414 97.9956 56.3913 97.975 56.3559 97.9336C56.3204 97.8923 56.3086 97.8392 56.3204 97.7743L57.2853 93.2423H55.7274C55.6625 93.2423 55.6123 93.2216 55.5769 93.1803C55.5415 93.139 55.5297 93.0859 55.5415 93.021L55.7539 92.0296C55.7657 91.9647 55.7982 91.9116 55.8513 91.8703C55.9044 91.8231 55.9634 91.7995 56.0283 91.7995H60.8348C60.8997 91.7995 60.9498 91.8231 60.9852 91.8703C61.0207 91.9116 61.0325 91.9647 61.0207 92.0296L60.7994 93.021C60.7876 93.0859 60.7551 93.139 60.702 93.1803C60.6548 93.2216 60.5987 93.2423 60.5338 93.2423H58.9759L58.0023 97.7743C57.9905 97.8392 57.958 97.8923 57.9049 97.9336C57.8577 97.975 57.8016 97.9956 57.7367 97.9956H56.5063ZM61.3644 97.9956C61.2995 97.9956 61.2493 97.975 61.2139 97.9336C61.1785 97.8923 61.1667 97.8392 61.1785 97.7743L62.4 92.0296C62.4118 91.9647 62.4443 91.9116 62.4974 91.8703C62.5505 91.8231 62.6095 91.7995 62.6744 91.7995H63.8783C63.9432 91.7995 63.9933 91.8231 64.0287 91.8703C64.0641 91.9116 64.076 91.9647 64.0641 92.0296L63.6127 94.1275H65.7105L66.162 92.0296C66.1738 91.9647 66.2033 91.9116 66.2505 91.8703C66.3036 91.8231 66.3626 91.7995 66.4275 91.7995H67.6402C67.7051 91.7995 67.7523 91.8231 67.7818 91.8703C67.8172 91.9116 67.829 91.9647 67.8172 92.0296L66.5957 97.7743C66.5839 97.8392 66.5514 97.8923 66.4983 97.9336C66.4452 97.975 66.3892 97.9956 66.3302 97.9956H65.1175C65.0526 97.9956 65.0024 97.975 64.967 97.9336C64.9316 97.8864 64.9198 97.8333 64.9316 97.7743L65.4007 95.6057H63.3029L62.8426 97.7743C62.8308 97.8392 62.7984 97.8923 62.7453 97.9336C62.6921 97.975 62.6331 97.9956 62.5682 97.9956H61.3644ZM73.5614 98.0841C73.1011 98.0841 72.688 98.0104 72.3221 97.8628C71.9622 97.7153 71.676 97.497 71.4635 97.2078C71.2511 96.9187 71.1449 96.5646 71.1449 96.1456C71.1449 96.0217 71.1596 95.8653 71.1891 95.6765C71.2895 95.1041 71.3986 94.5936 71.5166 94.1452C71.7173 93.3426 72.0713 92.7378 72.5788 92.3306C73.0922 91.9175 73.7797 91.711 74.6413 91.711C75.0956 91.711 75.5058 91.7877 75.8716 91.9411C76.2375 92.0945 76.5267 92.3217 76.7391 92.6227C76.9515 92.9177 77.0577 93.2748 77.0577 93.6937C77.0577 93.8176 77.043 93.9681 77.0135 94.1452C76.9309 94.6231 76.8217 95.1336 76.686 95.6765C76.4853 96.4849 76.1283 97.0898 75.6149 97.4911C75.1074 97.8864 74.4229 98.0841 73.5614 98.0841ZM73.6941 96.7564C74.0128 96.7564 74.2813 96.6649 74.4996 96.482C74.7239 96.2931 74.8832 96.0069 74.9776 95.6234C75.1074 95.0864 75.2107 94.6025 75.2874 94.1717C75.311 94.0537 75.3228 93.9327 75.3228 93.8088C75.3228 93.2954 75.0543 93.0387 74.5173 93.0387C74.1987 93.0387 73.9272 93.1331 73.703 93.322C73.4847 93.5049 73.3283 93.7881 73.2339 94.1717C73.1335 94.5435 73.0273 95.0274 72.9152 95.6234C72.8916 95.7414 72.8798 95.8624 72.8798 95.9863C72.8798 96.4997 73.1512 96.7564 73.6941 96.7564ZM78.0566 97.9956C77.9917 97.9956 77.9415 97.975 77.9061 97.9336C77.8707 97.8923 77.8589 97.8392 77.8707 97.7743L79.0922 92.0296C79.104 91.9647 79.1365 91.9116 79.1896 91.8703C79.2427 91.8231 79.3017 91.7995 79.3666 91.7995H81.7389C82.3998 91.7995 82.9309 91.9352 83.3322 92.2067C83.7393 92.4781 83.9429 92.8735 83.9429 93.3928C83.9429 93.5403 83.9252 93.6937 83.8898 93.8531C83.7423 94.5376 83.4413 95.0451 82.9869 95.3755C82.5385 95.7001 81.9247 95.8624 81.1458 95.8624H79.9951L79.5879 97.7743C79.5761 97.8392 79.5437 97.8923 79.4906 97.9336C79.4433 97.975 79.3873 97.9956 79.3224 97.9956H78.0566ZM81.2078 94.5966C81.4438 94.5966 81.6503 94.5346 81.8274 94.4107C82.0044 94.2809 82.1195 94.092 82.1726 93.8442C82.1962 93.7144 82.208 93.6259 82.208 93.5787C82.208 93.2423 81.9956 93.0741 81.5707 93.0741H80.5616L80.2341 94.5966H81.2078ZM86.0468 97.9956C85.9819 97.9956 85.9318 97.975 85.8964 97.9336C85.8609 97.8923 85.8491 97.8392 85.8609 97.7743L86.8258 93.2423H85.2679C85.203 93.2423 85.1528 93.2216 85.1174 93.1803C85.082 93.139 85.0702 93.0859 85.082 93.021L85.2944 92.0296C85.3062 91.9647 85.3387 91.9116 85.3918 91.8703C85.4449 91.8231 85.5039 91.7995 85.5688 91.7995H90.3753C90.4402 91.7995 90.4903 91.8231 90.5257 91.8703C90.5611 91.9116 90.5729 91.9647 90.5611 92.0296L90.3399 93.021C90.3281 93.0859 90.2956 93.139 90.2425 93.1803C90.1953 93.2216 90.1392 93.2423 90.0743 93.2423H88.5164L87.5427 97.7743C87.5309 97.8392 87.4985 97.8923 87.4454 97.9336C87.3982 97.975 87.3421 97.9956 87.2772 97.9956H86.0468ZM90.8961 97.9956C90.8311 97.9956 90.781 97.975 90.7456 97.9336C90.7161 97.8864 90.7072 97.8333 90.719 97.7743L91.9494 92.0208C91.9612 91.9559 91.9907 91.9028 92.0379 91.8614C92.091 91.8201 92.15 91.7995 92.2149 91.7995H93.4719C93.5309 91.7995 93.5781 91.8201 93.6135 91.8614C93.6548 91.9028 93.6696 91.9559 93.6578 92.0208L92.4274 97.7743C92.4156 97.8392 92.3831 97.8923 92.33 97.9336C92.2769 97.975 92.2208 97.9956 92.1618 97.9956H90.8961ZM94.4376 97.9956C94.3727 97.9956 94.3225 97.975 94.2871 97.9336C94.2517 97.8923 94.2399 97.8392 94.2517 97.7743L95.4732 92.0296C95.485 91.9647 95.5175 91.9116 95.5706 91.8703C95.6237 91.8231 95.6827 91.7995 95.7476 91.7995H96.7567C96.8393 91.7995 96.9013 91.8201 96.9426 91.8614C96.9839 91.8969 97.0164 91.9411 97.04 91.9942L97.9871 94.7205L100.094 91.9942C100.123 91.947 100.168 91.9028 100.227 91.8614C100.286 91.8201 100.356 91.7995 100.439 91.7995H101.448C101.513 91.7995 101.563 91.8231 101.599 91.8703C101.634 91.9116 101.646 91.9647 101.634 92.0296L100.404 97.7743C100.392 97.8392 100.359 97.8923 100.306 97.9336C100.259 97.975 100.203 97.9956 100.138 97.9956H99.0139C98.949 97.9956 98.8988 97.975 98.8634 97.9336C98.828 97.8864 98.8162 97.8333 98.828 97.7743L99.5007 94.6054L98.2084 96.3049C98.0963 96.4407 97.9782 96.5085 97.8543 96.5085H97.3763C97.2524 96.5085 97.1668 96.4407 97.1196 96.3049L96.5177 94.5258L95.8273 97.7743C95.8155 97.8392 95.783 97.8923 95.7299 97.9336C95.6768 97.975 95.6208 97.9956 95.5617 97.9956H94.4376ZM102.405 97.9956C102.34 97.9956 102.289 97.975 102.254 97.9336C102.225 97.8864 102.216 97.8333 102.227 97.7743L103.458 92.0208C103.47 91.9559 103.499 91.9028 103.546 91.8614C103.599 91.8201 103.658 91.7995 103.723 91.7995H104.98C105.039 91.7995 105.087 91.8201 105.122 91.8614C105.163 91.9028 105.178 91.9559 105.166 92.0208L103.936 97.7743C103.924 97.8392 103.892 97.8923 103.838 97.9336C103.785 97.975 103.729 97.9956 103.67 97.9956H102.405ZM108.168 98.0841C107.643 98.0841 107.194 98.0133 106.822 97.8717C106.451 97.7301 106.17 97.5412 105.981 97.3052C105.793 97.0632 105.698 96.7977 105.698 96.5085C105.698 96.4613 105.704 96.3905 105.716 96.2961C105.722 96.243 105.745 96.1987 105.787 96.1633C105.834 96.1279 105.884 96.1102 105.937 96.1102H107.123C107.2 96.1102 107.256 96.122 107.292 96.1456C107.333 96.1692 107.374 96.2105 107.415 96.2695C107.463 96.4112 107.557 96.5292 107.699 96.6236C107.846 96.7121 108.047 96.7564 108.301 96.7564C108.619 96.7564 108.876 96.7092 109.071 96.6148C109.271 96.5144 109.392 96.3787 109.434 96.2076C109.439 96.184 109.442 96.1515 109.442 96.1102C109.442 95.9627 109.351 95.8476 109.168 95.765C108.985 95.6824 108.655 95.588 108.177 95.4818C107.002 95.2398 106.415 94.7205 106.415 93.9239C106.415 93.7822 106.433 93.6377 106.468 93.4901C106.586 92.9354 106.881 92.5017 107.353 92.189C107.831 91.8703 108.445 91.711 109.195 91.711C109.643 91.711 110.044 91.7906 110.398 91.95C110.752 92.1093 111.027 92.3129 111.222 92.5607C111.422 92.8027 111.523 93.0476 111.523 93.2954C111.523 93.3249 111.517 93.3751 111.505 93.4459C111.493 93.499 111.469 93.5462 111.434 93.5875C111.399 93.6229 111.354 93.6406 111.301 93.6406H110.044C109.915 93.6406 109.826 93.5875 109.779 93.4813C109.767 93.3574 109.696 93.2541 109.566 93.1715C109.442 93.083 109.277 93.0387 109.071 93.0387C108.817 93.0387 108.61 93.083 108.451 93.1715C108.298 93.26 108.2 93.3898 108.159 93.561C108.153 93.5846 108.15 93.617 108.15 93.6583C108.15 93.7999 108.23 93.915 108.389 94.0035C108.554 94.0861 108.846 94.1717 109.265 94.2602C109.932 94.3842 110.419 94.57 110.726 94.8179C111.033 95.0657 111.186 95.3932 111.186 95.8004C111.186 95.9656 111.171 96.1102 111.142 96.2341C111.012 96.8419 110.693 97.3022 110.186 97.615C109.684 97.9277 109.012 98.0841 108.168 98.0841ZM112.461 97.9956C112.396 97.9956 112.346 97.975 112.31 97.9336C112.275 97.8923 112.263 97.8392 112.275 97.7743L113.497 92.0296C113.508 91.9647 113.541 91.9116 113.594 91.8703C113.647 91.8231 113.706 91.7995 113.771 91.7995H114.78C114.863 91.7995 114.925 91.8201 114.966 91.8614C115.007 91.8969 115.04 91.9411 115.063 91.9942L116.01 94.7205L118.117 91.9942C118.147 91.947 118.191 91.9028 118.25 91.8614C118.309 91.8201 118.38 91.7995 118.462 91.7995H119.471C119.536 91.7995 119.587 91.8231 119.622 91.8703C119.657 91.9116 119.669 91.9647 119.657 92.0296L118.427 97.7743C118.415 97.8392 118.383 97.8923 118.33 97.9336C118.282 97.975 118.226 97.9956 118.161 97.9956H117.037C116.972 97.9956 116.922 97.975 116.887 97.9336C116.851 97.8864 116.84 97.8333 116.851 97.7743L117.524 94.6054L116.232 96.3049C116.12 96.4407 116.002 96.5085 115.878 96.5085H115.4C115.276 96.5085 115.19 96.4407 115.143 96.3049L114.541 94.5258L113.851 97.7743C113.839 97.8392 113.806 97.8923 113.753 97.9336C113.7 97.975 113.644 97.9956 113.585 97.9956H112.461Z" fill="#FF0000"/>
</svg>