<svg width="15" height="15" viewBox="0 0 15 15" fill="none" xmlns="http://www.w3.org/2000/svg">
<g clip-path="url(#clip0_8870_35225)">
<path d="M6.14293 6.29004C5.71543 6.29004 5.37793 6.66591 5.37793 7.12447C5.37793 7.58304 5.72293 7.95891 6.14293 7.95891C6.57043 7.95891 6.90793 7.58304 6.90793 7.12447C6.91543 6.66591 6.57043 6.29004 6.14293 6.29004ZM8.88043 6.29004C8.45293 6.29004 8.11543 6.66591 8.11543 7.12447C8.11543 7.58304 8.46043 7.95891 8.88043 7.95891C9.30793 7.95891 9.64543 7.58304 9.64543 7.12447C9.64543 6.66591 9.30793 6.29004 8.88043 6.29004Z" fill="#CDD8D3"/>
<path d="M12.525 -0.0175781H2.475C1.6275 -0.0175781 0.9375 0.674026 0.9375 1.53101V11.6946C0.9375 12.5516 1.6275 13.2432 2.475 13.2432H10.98L10.5825 11.8525L11.5425 12.747L12.45 13.589L14.0625 15.0173V1.53101C14.0625 0.674026 13.3725 -0.0175781 12.525 -0.0175781ZM9.63 9.80019C9.63 9.80019 9.36 9.47695 9.135 9.19128C10.1175 8.91314 10.4925 8.29671 10.4925 8.29671C10.185 8.49968 9.8925 8.64251 9.63 8.74024C9.255 8.8981 8.895 9.00335 8.5425 9.06349C7.90016 9.18203 7.24141 9.17948 6.6 9.05597C6.22344 8.98212 5.85441 8.87392 5.4975 8.73272C5.30937 8.66021 5.12644 8.57481 4.95 8.47713C4.9275 8.46209 4.905 8.45457 4.8825 8.43954C4.8675 8.43202 4.86 8.4245 4.8525 8.41699C4.7175 8.34181 4.6425 8.28919 4.6425 8.28919C4.6425 8.28919 5.0025 8.89059 5.955 9.17625C5.73 9.46191 5.4525 9.80019 5.4525 9.80019C3.795 9.74757 3.165 8.65755 3.165 8.65755C3.165 6.23693 4.245 4.27488 4.245 4.27488C5.325 3.463 6.3525 3.48555 6.3525 3.48555L6.4275 3.57576C5.0775 3.96666 4.455 4.56054 4.455 4.56054C4.455 4.56054 4.62 4.47033 4.8975 4.34254C5.7 3.98922 6.3375 3.89149 6.6 3.86894C6.645 3.86142 6.6825 3.8539 6.7275 3.8539C8.02808 3.67746 9.35077 3.92522 10.5 4.56054C10.5 4.56054 9.9075 3.99673 8.6325 3.60583L8.7375 3.48555C8.7375 3.48555 9.765 3.463 10.845 4.27488C10.845 4.27488 11.925 6.23693 11.925 8.65755C11.925 8.65755 11.2875 9.74757 9.63 9.80019Z" fill="#CDD8D3"/>
</g>
<defs>
<clipPath id="clip0_8870_35225">
<rect width="15" height="15" fill="white"/>
</clipPath>
</defs>
</svg>
