<svg width="24" height="24" viewBox="0 0 24 24" fill="none" xmlns="http://www.w3.org/2000/svg">
<g clip-path="url(#clip0_3220_87068)">
<path d="M9.82869 10.0643C9.14469 10.0643 8.60469 10.6657 8.60469 11.3994C8.60469 12.1331 9.15669 12.7345 9.82869 12.7345C10.5127 12.7345 11.0527 12.1331 11.0527 11.3994C11.0647 10.6657 10.5127 10.0643 9.82869 10.0643ZM14.2087 10.0643C13.5247 10.0643 12.9847 10.6657 12.9847 11.3994C12.9847 12.1331 13.5367 12.7345 14.2087 12.7345C14.8927 12.7345 15.4327 12.1331 15.4327 11.3994C15.4327 10.6657 14.8927 10.0643 14.2087 10.0643Z" fill="#CDD8D3"/>
<path d="M20.04 -0.0278931H3.96C2.604 -0.0278931 1.5 1.07867 1.5 2.44985V18.7116C1.5 20.0828 2.604 21.1893 3.96 21.1893H17.568L16.932 18.9642L18.468 20.3955L19.92 21.7426L22.5 24.0279V2.44985C22.5 1.07867 21.396 -0.0278931 20.04 -0.0278931ZM15.408 15.6805C15.408 15.6805 14.976 15.1633 14.616 14.7063C16.188 14.2613 16.788 13.275 16.788 13.275C16.296 13.5997 15.828 13.8282 15.408 13.9846C14.808 14.2372 14.232 14.4056 13.668 14.5018C12.6403 14.6915 11.5862 14.6874 10.56 14.4898C9.95751 14.3716 9.36705 14.1985 8.796 13.9726C8.49499 13.8566 8.2023 13.7199 7.92 13.5636C7.884 13.5396 7.848 13.5276 7.812 13.5035C7.788 13.4915 7.776 13.4794 7.764 13.4674C7.548 13.3471 7.428 13.2629 7.428 13.2629C7.428 13.2629 8.004 14.2252 9.528 14.6822C9.168 15.1393 8.724 15.6805 8.724 15.6805C6.072 15.5963 5.064 13.8523 5.064 13.8523C5.064 9.97932 6.792 6.84004 6.792 6.84004C8.52 5.54102 10.164 5.57711 10.164 5.57711L10.284 5.72144C8.124 6.34689 7.128 7.2971 7.128 7.2971C7.128 7.2971 7.392 7.15276 7.836 6.94829C9.12 6.38298 10.14 6.22662 10.56 6.19053C10.632 6.1785 10.692 6.16648 10.764 6.16648C12.8449 5.88417 14.9612 6.28058 16.8 7.2971C16.8 7.2971 15.852 6.39501 13.812 5.76955L13.98 5.57711C13.98 5.57711 15.624 5.54102 17.352 6.84004C17.352 6.84004 19.08 9.97932 19.08 13.8523C19.08 13.8523 18.06 15.5963 15.408 15.6805Z" fill="#CDD8D3"/>
<path d="M9.82869 10.0643C9.14469 10.0643 8.60469 10.6657 8.60469 11.3994C8.60469 12.1331 9.15669 12.7345 9.82869 12.7345C10.5127 12.7345 11.0527 12.1331 11.0527 11.3994C11.0647 10.6657 10.5127 10.0643 9.82869 10.0643ZM14.2087 10.0643C13.5247 10.0643 12.9847 10.6657 12.9847 11.3994C12.9847 12.1331 13.5367 12.7345 14.2087 12.7345C14.8927 12.7345 15.4327 12.1331 15.4327 11.3994C15.4327 10.6657 14.8927 10.0643 14.2087 10.0643Z" stroke="#CDD8D3"/>
<path d="M20.04 -0.0278931H3.96C2.604 -0.0278931 1.5 1.07867 1.5 2.44985V18.7116C1.5 20.0828 2.604 21.1893 3.96 21.1893H17.568L16.932 18.9642L18.468 20.3955L19.92 21.7426L22.5 24.0279V2.44985C22.5 1.07867 21.396 -0.0278931 20.04 -0.0278931ZM15.408 15.6805C15.408 15.6805 14.976 15.1633 14.616 14.7063C16.188 14.2613 16.788 13.275 16.788 13.275C16.296 13.5997 15.828 13.8282 15.408 13.9846C14.808 14.2372 14.232 14.4056 13.668 14.5018C12.6403 14.6915 11.5862 14.6874 10.56 14.4898C9.95751 14.3716 9.36705 14.1985 8.796 13.9726C8.49499 13.8566 8.2023 13.7199 7.92 13.5636C7.884 13.5396 7.848 13.5276 7.812 13.5035C7.788 13.4915 7.776 13.4794 7.764 13.4674C7.548 13.3471 7.428 13.2629 7.428 13.2629C7.428 13.2629 8.004 14.2252 9.528 14.6822C9.168 15.1393 8.724 15.6805 8.724 15.6805C6.072 15.5963 5.064 13.8523 5.064 13.8523C5.064 9.97932 6.792 6.84004 6.792 6.84004C8.52 5.54102 10.164 5.57711 10.164 5.57711L10.284 5.72144C8.124 6.34689 7.128 7.2971 7.128 7.2971C7.128 7.2971 7.392 7.15276 7.836 6.94829C9.12 6.38298 10.14 6.22662 10.56 6.19053C10.632 6.1785 10.692 6.16648 10.764 6.16648C12.8449 5.88417 14.9612 6.28058 16.8 7.2971C16.8 7.2971 15.852 6.39501 13.812 5.76955L13.98 5.57711C13.98 5.57711 15.624 5.54102 17.352 6.84004C17.352 6.84004 19.08 9.97932 19.08 13.8523C19.08 13.8523 18.06 15.5963 15.408 15.6805Z" stroke="#CDD8D3"/>
</g>
<defs>
<clipPath id="clip0_3220_87068">
<rect width="24" height="24" fill="white"/>
</clipPath>
</defs>
</svg>
