<svg width="15" height="15" viewBox="0 0 15 15" fill="none" xmlns="http://www.w3.org/2000/svg">
<g clip-path="url(#clip0_8870_35186)">
<path d="M12.2484 0.621094H2.57379V2.57402H0L0.576923 4.52668H1.06509V12.4261C0.819992 12.4261 0.621302 12.6248 0.621302 12.8699V13.4024H0.532544C0.287448 13.4024 0.0887574 13.6011 0.0887574 13.8462V14.3788H5.05917V13.8462C5.05917 13.6011 4.86048 13.4024 4.61538 13.4024H4.52663V12.8699C4.52663 12.6248 4.32794 12.4261 4.08284 12.4261H3.99391V8.07672C3.99391 6.18259 5.62854 4.97021 7.41107 4.97021C9.1936 4.97021 10.8282 6.18259 10.8282 8.07672V12.435C10.6258 12.4762 10.4734 12.6552 10.4734 12.8699V13.4024H10.3846C10.1395 13.4024 9.94083 13.6011 9.94083 13.8462V14.3788H14.9112V13.8462C14.9112 13.6011 14.7126 13.4024 14.4675 13.4024H14.3787V12.8699C14.3787 12.6248 14.18 12.4261 13.9349 12.4261V4.52668H14.4231L15 2.57402H12.2484V0.621094Z" fill="#CDD8D3"/>
</g>
<defs>
<clipPath id="clip0_8870_35186">
<rect width="15" height="15" fill="white"/>
</clipPath>
</defs>
</svg>
