<svg width="24" height="24" viewBox="0 0 24 24" fill="none" xmlns="http://www.w3.org/2000/svg">
<g clip-path="url(#clip0_3220_87066)">
<path d="M19.5974 0.993896H4.11807V4.11858H0L0.923077 7.24284H1.70414V19.8819C1.31199 19.8819 0.994083 20.1998 0.994083 20.592V21.444H0.852071C0.459916 21.444 0.142012 21.7619 0.142012 22.1541V23.0062H8.09468V22.1541C8.09468 21.7619 7.77677 21.444 7.38462 21.444H7.2426V20.592C7.2426 20.1998 6.9247 19.8819 6.53254 19.8819H6.39026V12.9229C6.39026 9.8923 9.00567 7.95248 11.8577 7.95248C14.7098 7.95248 17.3252 9.8923 17.3252 12.9229V19.8962C17.0012 19.9621 16.7574 20.2485 16.7574 20.592V21.444H16.6154C16.2232 21.444 15.9053 21.7619 15.9053 22.1541V23.0062H23.858V22.1541C23.858 21.7619 23.5401 21.444 23.1479 21.444H23.0059V20.592C23.0059 20.1998 22.688 19.8819 22.2959 19.8819V7.24284H23.0769L24 4.11858H19.5974V0.993896Z" fill="#CDD8D3"/>
</g>
<defs>
<clipPath id="clip0_3220_87066">
<rect width="24" height="24" fill="white"/>
</clipPath>
</defs>
</svg>
