<svg width="15" height="15" viewBox="0 0 15 15" fill="none" xmlns="http://www.w3.org/2000/svg">
<g clip-path="url(#clip0_8870_35251)">
<path d="M7.50018 0.18457C3.36604 0.18457 0.0175781 3.54082 0.0175781 7.68457C0.0175781 11.0033 2.15947 13.8064 5.13381 14.8002C5.50794 14.8658 5.64824 14.6408 5.64824 14.4439C5.64824 14.2658 5.63888 13.6752 5.63888 13.0471C3.75888 13.3939 3.27251 12.5877 3.12286 12.1658C3.03868 11.9502 2.6739 11.2846 2.35589 11.1064C2.094 10.9658 1.71987 10.6189 2.34654 10.6096C2.93579 10.6002 3.35669 11.1533 3.49699 11.3783C4.17042 12.5127 5.24605 12.1939 5.6763 11.9971C5.74177 11.5096 5.93819 11.1814 6.15331 10.9939C4.48843 10.8064 2.74873 10.1596 2.74873 7.29082C2.74873 6.4752 3.03868 5.8002 3.5157 5.2752C3.44087 5.0877 3.17898 4.31895 3.59052 3.2877C3.59052 3.2877 4.21719 3.09082 5.64824 4.05645C6.24685 3.8877 6.88287 3.80332 7.51889 3.80332C8.15491 3.80332 8.79093 3.8877 9.38954 4.05645C10.8206 3.08145 11.4473 3.2877 11.4473 3.2877C11.8588 4.31895 11.5969 5.0877 11.5221 5.2752C11.9991 5.8002 12.289 6.46582 12.289 7.29082C12.289 10.1689 10.54 10.8064 8.87511 10.9939C9.14635 11.2283 9.38019 11.6783 9.38019 12.3814C9.38019 13.3846 9.37083 14.1908 9.37083 14.4439C9.37083 14.6408 9.51113 14.8752 9.88526 14.8002C11.3708 14.2977 12.6616 13.3408 13.5761 12.0643C14.4905 10.7879 14.9825 9.25604 14.9828 7.68457C14.9828 3.54082 11.6343 0.18457 7.50018 0.18457Z" fill="#CDD8D3"/>
</g>
<defs>
<clipPath id="clip0_8870_35251">
<rect width="15" height="15" fill="white"/>
</clipPath>
</defs>
</svg>
