<svg width="24" height="24" viewBox="0 0 24 24" fill="none" xmlns="http://www.w3.org/2000/svg">
<g clip-path="url(#clip0_3220_87062)">
<path d="M12 0.296021C5.38538 0.296021 0.027832 5.66602 0.027832 12.296C0.027832 17.606 3.45486 22.091 8.2138 23.681C8.81241 23.786 9.03689 23.426 9.03689 23.111C9.03689 22.826 9.02192 21.881 9.02192 20.876C6.01392 21.431 5.23572 20.141 4.99628 19.466C4.86159 19.121 4.27795 18.056 3.76913 17.771C3.35011 17.546 2.7515 16.991 3.75417 16.976C4.69698 16.961 5.37041 17.846 5.59489 18.206C6.67238 20.021 8.39338 19.511 9.08178 19.196C9.18654 18.416 9.50081 17.891 9.84501 17.591C7.1812 17.291 4.39767 16.256 4.39767 11.666C4.39767 10.361 4.86159 9.28102 5.62482 8.44102C5.5051 8.14102 5.08607 6.91102 5.74454 5.26102C5.74454 5.26102 6.74721 4.94602 9.03689 6.49102C9.99466 6.22102 11.0123 6.08602 12.0299 6.08602C13.0476 6.08602 14.0652 6.22102 15.023 6.49102C17.3126 4.93102 18.3153 5.26102 18.3153 5.26102C18.9738 6.91102 18.5548 8.14102 18.435 8.44102C19.1983 9.28102 19.6622 10.346 19.6622 11.666C19.6622 16.271 16.8637 17.291 14.1999 17.591C14.6339 17.966 15.008 18.686 15.008 19.811C15.008 21.416 14.993 22.706 14.993 23.111C14.993 23.426 15.2175 23.801 15.8161 23.681C18.1929 22.877 20.2583 21.346 21.7214 19.3037C23.1846 17.2613 23.9717 14.8104 23.9722 12.296C23.9722 5.66602 18.6146 0.296021 12 0.296021Z" fill="#CDD8D3"/>
</g>
<defs>
<clipPath id="clip0_3220_87062">
<rect width="24" height="24" fill="white"/>
</clipPath>
</defs>
</svg>
