<svg width="24" height="25" viewBox="0 0 24 25" fill="none" xmlns="http://www.w3.org/2000/svg">
<path d="M23.9992 12.3311C23.9756 12.6694 23.9673 13.0098 23.926 13.3455C23.4883 16.9109 21.8303 19.7679 18.9197 21.8599C16.7455 23.4231 14.2916 24.1526 11.6187 24.0598C8.52797 23.9532 5.86332 22.7995 3.62892 20.6542C3.60836 20.6344 3.60886 20.5555 3.62892 20.5343C6.41577 17.7348 9.20523 14.9381 11.9973 12.1442C12.0634 12.0836 12.1487 12.0485 12.2382 12.0454C16.1589 12.0405 20.0794 12.0391 24 12.0412L23.9992 12.3311Z" fill="#CDD8D3"/>
<path d="M12.2906 0C12.6202 0.0251108 12.9505 0.039745 13.2789 0.0753323C15.2023 0.284423 16.9736 0.921229 18.593 1.98575C18.604 1.99403 18.6145 2.00291 18.6245 2.01236L17.6008 3.03691C17.378 3.25991 17.1566 3.48441 16.9311 3.70459C16.9169 3.71384 16.9006 3.71945 16.8837 3.72093C16.8668 3.7224 16.8498 3.71971 16.8341 3.71307C15.2038 2.77239 13.4489 2.33974 11.5695 2.41513C7.36449 2.58509 3.69868 5.57192 2.69042 9.66768C2.06633 12.2054 2.41352 14.6162 3.69868 16.8916C3.71095 16.9132 3.71161 16.9609 3.69686 16.9747C3.13898 17.5384 2.57916 18.1006 2.01741 18.6613C2.01194 18.6668 2.00514 18.6713 1.99238 18.6816C1.93948 18.5995 1.88626 18.52 1.83619 18.4388C0.450215 16.1918 -0.161608 13.7496 0.0363643 11.1135C0.449053 5.63348 4.51594 1.14396 9.92752 0.190576C10.4747 0.0942905 11.0343 0.0698449 11.5879 0.0121394L11.701 0H12.2906Z" fill="#CDD8D3"/>
<path d="M18.3727 7.26434C18.3736 6.76393 18.5475 6.27926 18.8646 5.89286C19.1817 5.50651 19.6226 5.2423 20.1121 5.14525C20.6016 5.0482 21.1095 5.12425 21.5494 5.36055C21.9892 5.59681 22.3339 5.97863 22.5246 6.44108C22.7154 6.90352 22.7405 7.41799 22.5956 7.89686C22.4508 8.37579 22.1449 8.78951 21.7301 9.06768C21.3153 9.34589 20.8173 9.47129 20.3206 9.42257C19.824 9.3739 19.3596 9.15408 19.0064 8.8006C18.8052 8.59892 18.6457 8.3594 18.537 8.09578C18.4282 7.83215 18.3724 7.54965 18.3727 7.26434Z" fill="#CDD8D3"/>
</svg>
