<svg width="15" height="16" viewBox="0 0 15 16" fill="none" xmlns="http://www.w3.org/2000/svg">
<path d="M14.9997 7.70715C14.985 7.91857 14.9798 8.13132 14.954 8.34115C14.6804 10.5695 13.6442 12.3551 11.825 13.6627C10.4662 14.6397 8.93247 15.0956 7.26195 15.0376C5.33022 14.971 3.66481 14.2499 2.26831 12.9091C2.25546 12.8968 2.25577 12.8474 2.26831 12.8342C4.01009 11.0845 5.75351 9.3365 7.49856 7.59034C7.53983 7.55245 7.59319 7.53054 7.64911 7.52859C10.0995 7.52555 12.5499 7.52467 15.0002 7.52598L14.9997 7.70715Z" fill="#CDD8D3"/>
<path d="M7.6816 0C7.88761 0.0156942 8.09404 0.0248406 8.29932 0.0470827C9.50142 0.177764 10.6085 0.575768 11.6206 1.24109C11.6275 1.24627 11.6341 1.25182 11.6403 1.25772L11.0005 1.89807C10.8612 2.03745 10.7229 2.17776 10.582 2.31537C10.5731 2.32115 10.5629 2.32466 10.5523 2.32558C10.5418 2.3265 10.5311 2.32482 10.5213 2.32067C9.50239 1.73274 8.40559 1.46234 7.23094 1.50945C4.60281 1.61568 2.31168 3.48245 1.68151 6.0423C1.29145 7.62835 1.50845 9.13511 2.31168 10.5572C2.31935 10.5708 2.31976 10.6006 2.31054 10.6092C1.96186 10.9615 1.61198 11.3129 1.26088 11.6633C1.25746 11.6668 1.25321 11.6696 1.24523 11.676C1.21218 11.6247 1.17891 11.575 1.14762 11.5243C0.281384 10.1199 -0.101005 8.59349 0.0227277 6.94591C0.280658 3.52092 2.82246 0.714973 6.2047 0.11911C6.54667 0.0589316 6.89641 0.043653 7.24242 0.00758715L7.31311 0H7.6816Z" fill="#CDD8D3"/>
<path d="M11.4834 4.54055C11.484 4.22778 11.5926 3.92487 11.7908 3.68337C11.9891 3.4419 12.2646 3.27677 12.5705 3.21612C12.8765 3.15546 13.1939 3.20299 13.4688 3.35068C13.7438 3.49833 13.9592 3.73698 14.0784 4.026C14.1976 4.31503 14.2133 4.63657 14.1227 4.93587C14.0322 5.2352 13.841 5.49378 13.5818 5.66763C13.3226 5.84152 13.0113 5.91989 12.7009 5.88944C12.3905 5.85902 12.1002 5.72163 11.8795 5.50071C11.7537 5.37465 11.654 5.22496 11.5861 5.06019C11.5181 4.89542 11.4832 4.71887 11.4834 4.54055Z" fill="#CDD8D3"/>
</svg>
