<svg width="15" height="15" viewBox="0 0 15 15" fill="none" xmlns="http://www.w3.org/2000/svg">
<path d="M3.67355 11.3916C4.83917 12.5622 7.50174 11.786 9.62042 9.65777C11.7397 7.52897 12.5129 4.85448 11.3473 3.68413C10.1816 2.51378 7.51914 3.29024 5.40035 5.41852C3.28119 7.54682 2.508 10.2213 3.67355 11.3916Z" fill="#CDD8D3"/>
<path fill-rule="evenodd" clip-rule="evenodd" d="M7.5 0C11.6421 0 15 3.35786 15 7.5C15 11.6421 11.6421 15 7.5 15C3.35786 15 0 11.6421 0 7.5C0 3.35786 3.35786 0 7.5 0ZM1.27539 7.53797C1.27539 4.07948 4.06714 1.27539 7.51052 1.27539C10.9537 1.27539 13.7453 4.0794 13.7453 7.53797C13.7453 10.9966 10.9539 13.8004 7.51052 13.8004C4.06714 13.8004 1.27539 10.9965 1.27539 7.53797Z" fill="#CDD8D3"/>
</svg>
