<svg width="24" height="24" viewBox="0 0 24 24" fill="none" xmlns="http://www.w3.org/2000/svg">
<path d="M5.87769 18.2266C7.74268 20.0995 12.0028 18.8577 15.3927 15.4524C18.7835 12.0463 20.0206 7.76717 18.1557 5.89461C16.2905 4.02204 12.0306 5.26439 8.64056 8.66963C5.2499 12.0749 4.0128 16.3541 5.87769 18.2266Z" fill="#CDD8D3"/>
<path fill-rule="evenodd" clip-rule="evenodd" d="M12 0C18.6274 0 24 5.37258 24 12C24 18.6274 18.6274 24 12 24C5.37258 24 0 18.6274 0 12C0 5.37258 5.37258 0 12 0ZM2.04063 12.0607C2.04063 6.52716 6.50742 2.04063 12.0168 2.04063C17.5259 2.04063 21.9925 6.52704 21.9925 12.0607C21.9925 17.5945 17.5263 22.0806 12.0168 22.0806C6.50742 22.0806 2.04063 17.5944 2.04063 12.0607Z" fill="#CDD8D3"/>
</svg>
