<svg width="15" height="15" viewBox="0 0 15 15" fill="none" xmlns="http://www.w3.org/2000/svg">
<path fill-rule="evenodd" clip-rule="evenodd" d="M4.5 6.81818C2.46659 6.81818 0.818182 8.46659 0.818182 10.5C0.818182 12.5334 2.46659 14.1818 4.5 14.1818C6.53341 14.1818 8.18182 12.5334 8.18182 10.5C8.18182 8.46659 6.53341 6.81818 4.5 6.81818ZM0 10.5C0 8.01472 2.01472 6 4.5 6C6.98528 6 9 8.01472 9 10.5C9 12.9853 6.98528 15 4.5 15C2.01472 15 0 12.9853 0 10.5Z" fill="url(#paint0_linear_6499_28419)"/>
<path fill-rule="evenodd" clip-rule="evenodd" d="M4.49998 8C4.77611 8 4.99996 8.17908 4.99996 8.39999V10.5527L6.72351 11.2422C6.97049 11.341 7.0706 11.5812 6.94711 11.7788C6.82362 11.9764 6.52329 12.0565 6.27631 11.9577L4.27638 11.1577C4.107 11.0899 4 10.9514 4 10.7999V8.39999C4 8.17908 4.22385 8 4.49998 8Z" fill="url(#paint1_linear_6499_28419)"/>
<path fill-rule="evenodd" clip-rule="evenodd" d="M11.7466 1.05747C11.5157 0.990919 11.2745 0.982054 11.0402 1.03147L4.54102 2.27599L4.53354 2.27751C4.16078 2.3572 3.82451 2.58034 3.5827 2.90844C3.34096 3.23645 3.20879 3.64895 3.20898 4.07457V5.43181H3.9991V5.11526H4.0088V4.94527C4.0088 4.45825 4.36689 4.06343 4.80862 4.06343H12.8068C13.2485 4.06343 13.6066 4.45825 13.6066 4.94527V6.06445L11.5352 6.06445C10.9009 6.06445 10.3867 6.63137 10.3867 7.33069V7.9638C10.3867 8.66312 10.9009 9.23004 11.5352 9.23004H13.6066V10.2363C13.6066 10.7233 13.2485 11.1182 12.8068 11.1182H10.0899V12H12.8068C13.6903 12 14.4064 11.2104 14.4064 10.2363V9.06056C14.7497 8.8416 14.9805 8.43243 14.9805 7.9638V7.33069C14.9805 6.86206 14.7497 6.45289 14.4064 6.23393V4.94527C14.4064 4.03229 13.7773 3.28133 12.9709 3.19076V2.82772C12.9708 2.55867 12.9178 2.29295 12.8156 2.04953C12.7135 1.80611 12.5647 1.59098 12.3799 1.41949C12.1951 1.24801 11.9789 1.12439 11.7466 1.05747ZM13.6066 6.69757V8.59692H11.5352C11.218 8.59692 10.9609 8.31346 10.9609 7.9638V7.33069C10.9609 6.98103 11.218 6.69757 11.5352 6.69757H13.6066ZM12.1808 3.18159V2.828C12.1807 2.68945 12.1534 2.55247 12.1008 2.42712C12.0482 2.30172 11.9715 2.1909 11.8763 2.10255C11.7811 2.01421 11.6697 1.95053 11.5501 1.91606C11.4304 1.88158 11.3055 1.87716 11.1841 1.9031L11.1766 1.90462L4.67807 3.14902C4.61291 3.16326 4.54995 3.18601 4.49034 3.2165C4.5932 3.19361 4.69964 3.18159 4.80862 3.18159H12.1808Z" fill="url(#paint2_linear_6499_28419)"/>
<defs>
<linearGradient id="paint0_linear_6499_28419" x1="4.5" y1="6" x2="10.567" y2="14.5296" gradientUnits="userSpaceOnUse">
<stop stop-color="#FE5468"/>
<stop offset="1" stop-color="#FFDF27"/>
</linearGradient>
<linearGradient id="paint1_linear_6499_28419" x1="5.5" y1="8" x2="5.5" y2="12" gradientUnits="userSpaceOnUse">
<stop stop-color="#10808C"/>
<stop offset="1" stop-color="#1DF7EF"/>
</linearGradient>
<linearGradient id="paint2_linear_6499_28419" x1="9.09477" y1="1" x2="9.09477" y2="12" gradientUnits="userSpaceOnUse">
<stop stop-color="#10808C"/>
<stop offset="1" stop-color="#1DF7EF"/>
</linearGradient>
</defs>
</svg>
