<svg width="15" height="15" viewBox="0 0 15 15" fill="none" xmlns="http://www.w3.org/2000/svg">
<path fill-rule="evenodd" clip-rule="evenodd" d="M2.23651 0.5991C2.60116 0.215502 3.09574 0 3.61144 0H8.79662C8.96852 0 9.13338 0.0718342 9.25493 0.1997L13.1438 4.29061C13.2654 4.41847 13.3337 4.5919 13.3337 4.77273V12.9545C13.3337 13.497 13.1288 14.0173 12.7641 14.4009C12.3995 14.7845 11.9049 15 11.3892 15H3.61144C3.09574 15 2.60116 14.7845 2.23651 14.4009C1.87185 14.0173 1.66699 13.497 1.66699 12.9545V2.04545C1.66699 1.50297 1.87185 0.982697 2.23651 0.5991ZM3.61144 1.36364C3.43954 1.36364 3.27468 1.43547 3.15313 1.56334C3.03158 1.6912 2.96329 1.86462 2.96329 2.04545V12.9545C2.96329 13.1354 3.03158 13.3088 3.15313 13.4367C3.27468 13.5645 3.43954 13.6364 3.61144 13.6364H11.3892C11.5611 13.6364 11.726 13.5645 11.8475 13.4367C11.9691 13.3088 12.0374 13.1354 12.0374 12.9545V5.05515L8.52815 1.36364H3.61144Z" fill="url(#paint0_linear_7416_31930)"/>
<path fill-rule="evenodd" clip-rule="evenodd" d="M8.95801 0C9.30319 0 9.58301 0.326459 9.58301 0.729167V4.16667H12.708C13.0532 4.16667 13.333 4.49313 13.333 4.89583C13.333 5.29854 13.0532 5.625 12.708 5.625H8.95801C8.61283 5.625 8.33301 5.29854 8.33301 4.89583V0.729167C8.33301 0.326459 8.61283 0 8.95801 0Z" fill="url(#paint1_linear_7416_31930)"/>
<path fill-rule="evenodd" clip-rule="evenodd" d="M4.16699 8.33333C4.16699 7.8731 4.46547 7.5 4.83366 7.5H10.167C10.5352 7.5 10.8337 7.8731 10.8337 8.33333C10.8337 8.79357 10.5352 9.16667 10.167 9.16667H4.83366C4.46547 9.16667 4.16699 8.79357 4.16699 8.33333Z" fill="url(#paint2_linear_7416_31930)"/>
<path fill-rule="evenodd" clip-rule="evenodd" d="M4.16699 10.8333C4.16699 10.3731 4.46547 10 4.83366 10H10.167C10.5352 10 10.8337 10.3731 10.8337 10.8333C10.8337 11.2936 10.5352 11.6667 10.167 11.6667H4.83366C4.46547 11.6667 4.16699 11.2936 4.16699 10.8333Z" fill="url(#paint3_linear_7416_31930)"/>
<path fill-rule="evenodd" clip-rule="evenodd" d="M4.16699 5.83333C4.16699 5.3731 4.44681 5 4.79199 5H6.04199C6.38717 5 6.66699 5.3731 6.66699 5.83333C6.66699 6.29357 6.38717 6.66667 6.04199 6.66667H4.79199C4.44681 6.66667 4.16699 6.29357 4.16699 5.83333Z" fill="url(#paint4_linear_7416_31930)"/>
<defs>
<linearGradient id="paint0_linear_7416_31930" x1="7.50033" y1="0" x2="7.50033" y2="15" gradientUnits="userSpaceOnUse">
<stop stop-color="#10808C"/>
<stop offset="1" stop-color="#1DF7EF"/>
</linearGradient>
<linearGradient id="paint1_linear_7416_31930" x1="10.833" y1="0" x2="14.7494" y2="4.89426" gradientUnits="userSpaceOnUse">
<stop stop-color="#FE5468"/>
<stop offset="1" stop-color="#FFDF27"/>
</linearGradient>
<linearGradient id="paint2_linear_7416_31930" x1="7.50033" y1="7.5" x2="7.91035" y2="9.8058" gradientUnits="userSpaceOnUse">
<stop stop-color="#FE5468"/>
<stop offset="1" stop-color="#FFDF27"/>
</linearGradient>
<linearGradient id="paint3_linear_7416_31930" x1="7.50033" y1="10" x2="7.91035" y2="12.3058" gradientUnits="userSpaceOnUse">
<stop stop-color="#FE5468"/>
<stop offset="1" stop-color="#FFDF27"/>
</linearGradient>
<linearGradient id="paint4_linear_7416_31930" x1="5.41699" y1="5" x2="6.33789" y2="6.94203" gradientUnits="userSpaceOnUse">
<stop stop-color="#FE5468"/>
<stop offset="1" stop-color="#FFDF27"/>
</linearGradient>
</defs>
</svg>
