<svg width="24" height="24" viewBox="0 0 24 24" fill="none" xmlns="http://www.w3.org/2000/svg">
<path fill-rule="evenodd" clip-rule="evenodd" d="M20.7275 1.2002C22.5349 1.20034 24 2.66531 24 4.47266V15.3818C24 17.1892 22.5349 18.6542 20.7275 18.6543H13.0908V20.8359H16.3633C16.9658 20.8359 17.4541 21.3252 17.4541 21.9277C17.4539 22.53 16.9656 23.0186 16.3633 23.0186H7.63672C7.03438 23.0186 6.54614 22.53 6.5459 21.9277C6.5459 21.3252 7.03423 20.8359 7.63672 20.8359H10.9092V18.6543H3.27246C1.46511 18.6542 2.57689e-06 17.1892 0 15.3818V4.47266C4.50952e-05 2.66531 1.46513 1.20034 3.27246 1.2002H20.7275ZM3.27246 3.38184C2.67012 3.38198 2.18169 3.87029 2.18164 4.47266V15.3818C2.18164 15.9842 2.67009 16.4725 3.27246 16.4727H20.7275C21.3299 16.4725 21.8184 15.9842 21.8184 15.3818V4.47266C21.8183 3.87029 21.3299 3.38198 20.7275 3.38184H3.27246Z" fill="url(#paint0_linear_3307_104361)"/>
<path d="M20.0712 6.74316C20.2133 6.50647 20.52 6.42945 20.7568 6.57129C20.9935 6.71331 21.0705 7.02008 20.9287 7.25684L17.624 12.7646L14.0498 9.70117L10.5781 13.6699L10.2089 13.4072L7.08101 11.1729L4.37983 14.3252C4.20019 14.5348 3.88442 14.5594 3.67476 14.3799C3.46517 14.2002 3.44058 13.8845 3.62007 13.6748L6.91792 9.82715L7.29097 10.0928L10.4218 12.3291L13.624 8.6709L13.9492 8.29785L17.3759 11.2344L20.0712 6.74316Z" fill="url(#paint1_linear_3307_104361)"/>
<path d="M13.5 6C13.7761 6 14 6.22386 14 6.5C14 6.77614 13.7761 7 13.5 7H4.5C4.22386 7 4 6.77614 4 6.5C4 6.22386 4.22386 6 4.5 6H13.5Z" fill="url(#paint2_linear_3307_104361)"/>
<defs>
<linearGradient id="paint0_linear_3307_104361" x1="12" y1="1.2002" x2="12" y2="23.0186" gradientUnits="userSpaceOnUse">
<stop stop-color="#FE5468"/>
<stop offset="1" stop-color="#FFDF27"/>
</linearGradient>
<linearGradient id="paint1_linear_3307_104361" x1="12.2499" y1="6.50019" x2="12.2499" y2="14.5" gradientUnits="userSpaceOnUse">
<stop stop-color="#10808C"/>
<stop offset="1" stop-color="#1DF7EF"/>
</linearGradient>
<linearGradient id="paint2_linear_3307_104361" x1="9" y1="6" x2="9" y2="7" gradientUnits="userSpaceOnUse">
<stop stop-color="#FE5468"/>
<stop offset="1" stop-color="#FFDF27"/>
</linearGradient>
</defs>
</svg>
