<svg width="15" height="15" viewBox="0 0 15 15" fill="none" xmlns="http://www.w3.org/2000/svg">
<path fill-rule="evenodd" clip-rule="evenodd" d="M12 8H3C2.44772 8 2 8.44772 2 9V13C2 13.5523 2.44772 14 3 14H12C12.5523 14 13 13.5523 13 13V9C13 8.44772 12.5523 8 12 8ZM3 7C1.89543 7 1 7.89543 1 9V13C1 14.1046 1.89543 15 3 15H12C13.1046 15 14 14.1046 14 13V9C14 7.89543 13.1046 7 12 7H3Z" fill="url(#paint0_linear_6499_28696)"/>
<path d="M11 4.5C11 2.567 9.433 1 7.5 1C5.567 1 4 2.567 4 4.5V6.99966H3V4.5C3 2.01472 5.01472 0 7.5 0C9.98528 0 12 2.01472 12 4.5V6.99966H11V4.5Z" fill="url(#paint1_linear_6499_28696)"/>
<path d="M11.9959 9.8216L9.96185 12.2949C9.70147 12.6115 9.36219 12.6549 9.07792 12.408L7.387 10.9394C7.29136 10.8564 7.17713 10.8719 7.09011 10.9799L5.68783 12.7198C5.38671 13.0934 4.98221 13.0934 4.6811 12.7198L3 11.5V10.5L5.01667 11.9037C5.11704 12.0282 5.25188 12.0282 5.35225 11.9037L6.75454 10.1638C7.01557 9.83995 7.35828 9.79324 7.6452 10.0424L9.33611 11.511C9.43087 11.5933 9.54397 11.5789 9.63076 11.4733L12 8.5L11.9959 9.8216Z" fill="url(#paint2_linear_6499_28696)"/>
<defs>
<linearGradient id="paint0_linear_6499_28696" x1="7.5" y1="7" x2="7.5" y2="15" gradientUnits="userSpaceOnUse">
<stop stop-color="#10808C"/>
<stop offset="1" stop-color="#1DF7EF"/>
</linearGradient>
<linearGradient id="paint1_linear_6499_28696" x1="7.5" y1="0" x2="11.7315" y2="7.64923" gradientUnits="userSpaceOnUse">
<stop stop-color="#FE5468"/>
<stop offset="1" stop-color="#FFDF27"/>
</linearGradient>
<linearGradient id="paint2_linear_6499_28696" x1="7.5" y1="8.5" x2="9.52767" y2="14.2014" gradientUnits="userSpaceOnUse">
<stop stop-color="#FE5468"/>
<stop offset="1" stop-color="#FFDF27"/>
</linearGradient>
</defs>
</svg>
