<svg width="15" height="15" viewBox="0 0 15 15" fill="none" xmlns="http://www.w3.org/2000/svg">
<g clip-path="url(#clip0_10823_38540)">
<path d="M4.50461 4.50577C4.88451 4.88566 4.88452 5.50157 4.50464 5.88147L3.00965 7.37653C2.80217 7.58403 2.69402 7.87528 2.75061 8.1632C3.15541 10.2229 4.77828 11.8458 6.83805 12.2506C7.126 12.3072 7.41728 12.199 7.62477 11.9915L9.11971 10.4965C9.49961 10.1166 10.1156 10.1166 10.4955 10.4965L11.7151 11.7161C12.095 12.096 12.095 12.7119 11.7151 13.0918L10.0099 14.7971C9.93555 14.8714 9.83922 14.9201 9.73492 14.9331C9.38057 14.9773 9.01954 15 8.6533 15C3.87427 15 0 11.1259 0 6.34683C0 5.9804 0.022844 5.61928 0.0670555 5.26481C0.0800635 5.16051 0.128755 5.06418 0.203072 4.98986L1.90798 3.28493C2.28788 2.90503 2.90383 2.90502 3.28373 3.28492L4.50461 4.50577Z" fill="url(#paint0_linear_10823_38540)"/>
<path d="M13.2044 7.08477C13.263 7.5825 13.658 8 14.1591 8C14.6408 8 15.0394 7.61406 14.9969 7.1343C14.929 6.36942 14.7492 5.61702 14.4619 4.90153C14.0668 3.91735 13.4765 3.02336 12.7266 2.27344C11.9767 1.52352 11.0827 0.9332 10.0985 0.538054C9.383 0.250786 8.63061 0.0709947 7.86573 0.00312209C7.38597 -0.0394499 7.00003 0.359211 7.00003 0.840855C7.00003 1.34203 7.41753 1.73697 7.91526 1.79562C8.43057 1.85634 8.93717 1.9834 9.42228 2.17458C10.1926 2.47815 10.8922 2.93692 11.4776 3.52238C12.0631 4.10783 12.5219 4.80745 12.8254 5.57774C13.0166 6.06285 13.1437 6.56946 13.2044 7.08477Z" fill="url(#paint1_linear_10823_38540)"/>
<path d="M7 4.43287C7 4.92537 7.40422 5.30704 7.88785 5.40009C8.86545 5.58819 9.41168 6.13442 9.59977 7.11202C9.69282 7.59565 10.0745 7.99987 10.567 7.99987C11.0595 7.99987 11.4673 7.59793 11.4029 7.10966C11.1357 5.08352 9.91635 3.86417 7.89022 3.59696C7.40195 3.53257 7 3.94037 7 4.43287Z" fill="url(#paint2_linear_10823_38540)"/>
</g>
<defs>
<linearGradient id="paint0_linear_10823_38540" x1="6" y1="3" x2="6" y2="15" gradientUnits="userSpaceOnUse">
<stop stop-color="#10808C"/>
<stop offset="1" stop-color="#1DF7EF"/>
</linearGradient>
<linearGradient id="paint1_linear_10823_38540" x1="11" y1="0" x2="16.3929" y2="7.5819" gradientUnits="userSpaceOnUse">
<stop stop-color="#FE5468"/>
<stop offset="1" stop-color="#FFDF27"/>
</linearGradient>
<linearGradient id="paint2_linear_10823_38540" x1="11" y1="0" x2="16.3929" y2="7.5819" gradientUnits="userSpaceOnUse">
<stop stop-color="#FE5468"/>
<stop offset="1" stop-color="#FFDF27"/>
</linearGradient>
<clipPath id="clip0_10823_38540">
<rect width="15" height="15" fill="white"/>
</clipPath>
</defs>
</svg>
