<svg width="15" height="15" viewBox="0 0 15 15" fill="none" xmlns="http://www.w3.org/2000/svg">
<g clip-path="url(#clip0_177_30125)">
<path fill-rule="evenodd" clip-rule="evenodd" d="M14.3761 7.70448C14.3747 7.75095 14.3114 7.76323 14.2931 7.7204C14.2853 7.70191 14.2773 7.68337 14.2691 7.66482C14.2542 7.63089 14.2584 7.59143 14.2806 7.56175C14.2852 7.55568 14.2946 7.5434 14.3058 7.52877C14.3359 7.48944 14.3792 7.49531 14.3792 7.53895C14.3792 7.59622 14.3779 7.6458 14.3761 7.70448ZM14.0431 6.79524C13.9919 6.88758 13.8604 6.89183 13.8035 6.80279C13.7946 6.78903 13.7857 6.77527 13.7768 6.76144C13.5716 6.44638 13.3354 6.13711 13.0717 5.83655C13.007 5.76276 13.0599 5.64695 13.1581 5.64688H13.1605C13.7768 5.64688 14.0999 5.79912 14.1985 5.98501C14.2808 6.14049 14.2555 6.41238 14.0431 6.79524ZM13.9054 10.0182C13.8723 10.1023 13.8377 10.1859 13.8014 10.2686C13.7957 10.28 13.7904 10.2916 13.7845 10.3029C13.5577 10.7395 13.1771 11.0833 12.6684 11.3226C12.5543 11.3762 12.4294 11.2718 12.4634 11.1504C12.6323 10.5459 12.7601 9.8903 12.843 9.20304C12.8584 9.07488 12.9216 8.95725 13.0193 8.8728C13.2285 8.69183 13.4238 8.51113 13.6035 8.33171L13.6054 8.32968C13.6939 8.24146 13.8447 8.27943 13.8807 8.39909C14.0582 8.98922 14.0681 9.53888 13.9054 10.0182ZM12.5228 12.2006C12.4711 12.2559 12.4182 12.3106 12.3644 12.3644C12.2707 12.458 12.1747 12.5486 12.0766 12.6361C12.0147 12.6912 11.9212 12.6223 11.9562 12.5471C11.9662 12.5257 11.9761 12.5041 11.9859 12.4823C12.0272 12.3915 12.067 12.2982 12.1057 12.2033C12.1148 12.1809 12.1341 12.1641 12.1576 12.1581C12.2551 12.1334 12.3502 12.1061 12.4429 12.0762C12.5179 12.052 12.5767 12.143 12.5228 12.2006ZM11.5074 11.655C11.3021 11.6847 11.0862 11.7039 10.8603 11.7119C10.3092 11.7312 9.72639 11.6836 9.12777 11.5734C9.05478 11.56 9.04075 11.4613 9.10692 11.4279C9.23751 11.3617 9.36816 11.2942 9.49875 11.225C10.4147 10.7394 11.2694 10.2087 12.0176 9.66461C12.0737 9.6238 12.151 9.67196 12.1396 9.74043C12.0359 10.364 11.8922 10.951 11.7118 11.4839C11.681 11.5747 11.6023 11.6412 11.5074 11.655ZM11.2957 12.4858C10.8046 13.4517 10.1998 13.994 9.61348 13.983C8.97627 13.9717 8.34088 13.3081 7.87034 12.1626L7.8698 12.1613C7.83992 12.0886 7.87425 12.0054 7.94629 11.9741C7.95128 11.9718 7.95627 11.9697 7.96127 11.9675C7.99216 11.954 8.02683 11.9516 8.05934 11.9608C8.93951 12.2078 9.80673 12.3367 10.6192 12.3367C10.7075 12.3367 10.7952 12.3352 10.8822 12.3322C10.984 12.3285 11.0841 12.3228 11.1825 12.315C11.2738 12.3078 11.3373 12.4041 11.2957 12.4858ZM8.38749 14.3226C8.09549 14.3601 7.79918 14.3793 7.49997 14.3793C6.16281 14.3793 4.88387 14.0004 3.78583 13.2933C3.71029 13.2446 3.74239 13.1274 3.83217 13.1232C3.85079 13.1224 3.86819 13.1214 3.8835 13.1205C4.16255 13.1023 4.46851 13.0615 4.80003 12.9976C5.50523 12.8619 6.28915 12.6292 7.10996 12.3158C7.18355 12.2878 7.26571 12.3243 7.29566 12.3971L7.2962 12.3984C7.6143 13.1729 8.00578 13.7581 8.44536 14.1304C8.51801 14.1919 8.48192 14.3104 8.38749 14.3226ZM4.40929 9.50252C5.01547 9.00892 5.72573 8.51639 6.50486 8.0501C6.52159 9.04662 6.63086 10.0033 6.82424 10.8675C6.53528 10.7443 6.24719 10.6086 5.96161 10.4603C5.40844 10.1728 4.88799 9.85077 4.40929 9.50252ZM2.52409 12.1726C2.37948 11.8998 2.56638 11.2678 3.51589 10.3072L3.51637 10.3067C3.61552 10.2066 3.60601 10.0422 3.49532 9.95499C3.45728 9.92511 3.41951 9.89489 3.382 9.86467C3.28744 9.78825 3.15058 9.79526 3.06471 9.88126C3.04589 9.90008 3.03186 9.91425 3.02775 9.9185C2.5531 10.4057 2.2209 10.8567 2.0348 11.2623C1.98205 11.3773 1.82273 11.3897 1.75299 11.2842C1.01635 10.1706 0.620686 8.86578 0.620686 7.49997C0.620686 7.01169 0.671409 6.53116 0.77009 6.0644C0.784997 5.99378 0.884622 5.98926 0.905532 6.05833C1.04826 6.52955 1.28056 7.01695 1.60156 7.50981C2.03365 8.1734 2.60348 8.81129 3.27874 9.39642C3.50922 9.59615 3.75265 9.78933 4.00653 9.97569C4.52119 10.3534 5.08042 10.7019 5.67541 11.011C5.93915 11.1481 6.196 11.2789 6.45906 11.3973C6.6055 11.4632 6.77217 11.4683 6.92164 11.4096C7.04568 11.3611 7.1706 11.3106 7.29626 11.258C7.43292 11.201 7.50705 11.052 7.47083 10.9084C7.46631 10.8905 7.46273 10.876 7.46071 10.8675C7.25357 9.9958 7.13843 9.01445 7.12487 7.98656L7.12446 7.98676C7.12433 7.97455 7.1244 7.96214 7.12426 7.9498C7.12366 7.89361 7.12399 7.83702 7.12298 7.78097C7.12264 7.76309 7.12318 7.73281 7.12339 7.71487C7.12352 7.70772 7.12339 7.70063 7.12339 7.69355C7.12372 7.6292 7.12447 7.56485 7.12561 7.5003C7.12878 7.32399 7.13512 7.14895 7.14423 6.97533C7.2081 5.73497 7.41808 4.56968 7.75271 3.58928C7.78367 3.49856 7.7353 3.40008 7.64458 3.36912C7.55615 3.3389 7.46779 3.31003 7.37957 3.28238C7.29033 3.25439 7.19495 3.30255 7.1648 3.39111C6.80212 4.45583 6.57831 5.71898 6.51862 7.05566C6.511 7.22524 6.41872 7.37957 6.27269 7.46611C5.48102 7.9353 4.75396 8.43268 4.12585 8.93405C3.995 9.03853 3.80809 9.03455 3.68155 8.9248C3.05203 8.37899 2.5222 7.78616 2.12168 7.17107C1.33459 5.96248 1.14755 4.82391 1.59515 3.96566C1.59637 3.96363 1.59745 3.96154 1.59859 3.95959C1.65566 3.86489 1.71501 3.77147 1.7768 3.67933C2.29111 2.99854 3.24838 2.60402 4.51795 2.55944C4.59828 2.5566 4.67916 2.55519 4.76077 2.55519C5.5395 2.55519 6.37522 2.68368 7.22517 2.92893C7.24379 2.93433 7.2626 2.93973 7.28122 2.94519C7.29559 2.94944 7.30996 2.95342 7.32432 2.95773C7.52074 3.01642 7.7177 3.08151 7.91493 3.15247C7.91951 3.15409 7.92417 3.15577 7.92875 3.15739C7.98015 3.17594 8.03148 3.19496 8.08281 3.21432C8.09887 3.22039 8.11499 3.22653 8.13104 3.23273C8.14649 3.23867 8.16193 3.2444 8.17745 3.25041C8.59254 3.41107 9.0071 3.59818 9.41666 3.81106C10.2094 4.22292 10.9351 4.70573 11.5665 5.23543C10.3614 5.5115 8.96055 6.0441 7.55211 6.76219C7.48715 6.79537 7.44439 6.86066 7.44027 6.93351C7.43535 7.02079 7.42887 7.1963 7.42422 7.33579C7.42132 7.42334 7.51393 7.48135 7.5915 7.44061L7.59231 7.44014C8.98679 6.70789 10.3785 6.16059 11.5737 5.87136C11.7971 5.81733 11.9417 5.60277 11.9103 5.37512C11.8883 5.21607 11.8636 5.05951 11.8362 4.90573C11.8018 4.71254 11.696 4.5398 11.54 4.42095C10.9802 3.99453 10.3633 3.60338 9.70285 3.26019C9.25781 3.02896 8.80623 2.82634 8.3537 2.65353C8.2569 2.61657 8.21542 2.50217 8.26594 2.41172C8.73216 1.57768 9.28668 1.11058 9.8269 1.11058C9.83249 1.11058 9.83809 1.11058 9.84369 1.11072C10.4809 1.12212 11.1163 1.78564 11.5868 2.93116C11.825 3.51104 12.0096 4.17975 12.1357 4.90647C12.135 4.90586 12.1343 4.90532 12.1337 4.90471C12.1876 5.21485 12.2309 5.53538 12.2631 5.86421C12.2603 5.86596 12.2574 5.86751 12.2546 5.86927C12.2584 5.87311 12.2624 5.87696 12.2662 5.88087C12.3196 6.43262 12.3421 7.00717 12.3316 7.59345C12.325 7.9643 12.3052 8.33002 12.2732 8.68785C11.4207 9.3768 10.3666 10.0624 9.20803 10.6764C8.82727 10.8783 8.44658 11.0661 8.06959 11.2391C8.06372 11.2418 8.05792 11.2444 8.05205 11.2471C8.02325 11.2602 7.99438 11.2736 7.96558 11.2866L7.96491 11.2864C7.65254 11.4277 7.34314 11.5584 7.03887 11.6778C7.02167 11.6846 7.00474 11.6913 6.98761 11.698C6.96622 11.7064 6.94484 11.7146 6.92353 11.7228C6.87247 11.7424 6.82161 11.7617 6.77089 11.7806C6.75692 11.7858 6.74289 11.7913 6.72893 11.7964C6.66735 11.8193 6.6061 11.8415 6.54506 11.8633C6.53744 11.866 6.52982 11.8689 6.52226 11.8716C5.87021 12.1038 5.24878 12.2792 4.68273 12.3881C3.31489 12.6514 2.6708 12.4494 2.52409 12.1726ZM3.50652 1.89706C4.66425 1.06802 6.04767 0.620686 7.49997 0.620686C7.88329 0.620686 8.26169 0.652051 8.63247 0.713229C8.73176 0.72962 8.76508 0.85636 8.68589 0.918483C8.32658 1.20016 7.99276 1.61694 7.69733 2.15743C7.62522 2.28929 7.47231 2.35378 7.3277 2.31304C6.34891 2.0375 5.38591 1.90786 4.49616 1.93909C4.16794 1.95062 3.85713 1.98387 3.56513 2.0377C3.48311 2.05281 3.43873 1.94556 3.50652 1.89706ZM12.9495 6.91071C12.9475 6.83186 13.0487 6.7982 13.0944 6.86242C13.1506 6.94127 13.2048 7.02052 13.2567 7.10018C13.3256 7.20608 13.3897 7.31137 13.4494 7.41599C13.4865 7.48121 13.4776 7.56303 13.427 7.61848C13.3467 7.7067 13.2596 7.7979 13.1649 7.89246C13.1304 7.92693 13.0952 7.96147 13.0593 7.99607C13.0148 8.0391 12.9401 8.00632 12.9425 7.9444C12.9469 7.83156 12.9502 7.71831 12.9522 7.60452C12.9564 7.3714 12.9554 7.13998 12.9495 6.91071ZM12.2361 2.5106C12.2794 2.55161 12.3221 2.5933 12.3644 2.63559C13.0273 3.2985 13.5379 4.07311 13.8794 4.91672C13.9138 5.00178 13.8416 5.09081 13.7513 5.07456C13.5537 5.03908 13.3314 5.02323 13.0853 5.02734C12.9147 5.03017 12.7664 4.91065 12.7365 4.7427C12.6027 3.99271 12.4093 3.29991 12.161 2.69528C12.1468 2.66081 12.1325 2.62675 12.118 2.59303C12.0864 2.51944 12.178 2.45543 12.2361 2.5106ZM14.838 5.94009C14.5416 4.53191 13.8447 3.23806 12.8032 2.19662C11.3867 0.780073 9.50333 0 7.49997 0C5.49667 0 3.61323 0.780073 2.19668 2.19662C1.85214 2.54116 1.54571 2.91342 1.27854 3.30814C1.19908 3.41391 1.12792 3.52561 1.06465 3.6425C0.370644 4.79571 0 6.11937 0 7.49997C0 9.50333 0.78014 11.3867 2.19668 12.8032C3.61323 14.2198 5.49667 15 7.49997 15C9.50333 15 11.3867 14.2198 12.8032 12.8032C13.4718 12.1347 13.9984 11.3622 14.3683 10.5221C14.4135 10.429 14.453 10.3337 14.4869 10.2365C14.8236 9.37612 15 8.45163 15 7.49997C15 6.97614 14.9462 6.46074 14.8421 5.95952C14.8407 5.95304 14.8394 5.94656 14.838 5.94009Z" fill="url(#paint0_linear_177_30125)"/>
</g>
<defs>
<linearGradient id="paint0_linear_177_30125" x1="7.5" y1="0" x2="7.5" y2="15" gradientUnits="userSpaceOnUse">
<stop stop-color="#10808C"/>
<stop offset="1" stop-color="#1DF7EF"/>
</linearGradient>
<clipPath id="clip0_177_30125">
<rect width="15" height="15" fill="white"/>
</clipPath>
</defs>
</svg>
