<svg width="15" height="15" viewBox="0 0 15 15" fill="none" xmlns="http://www.w3.org/2000/svg">
<g clip-path="url(#clip0_6542_28540)">
<path fill-rule="evenodd" clip-rule="evenodd" d="M3.19322 7.85702C3.19322 7.65978 3.36542 7.49988 3.57784 7.49988H7.424C7.63641 7.49988 7.80861 7.65978 7.80861 7.85702C7.80861 8.05427 7.63641 8.21416 7.424 8.21416H3.57784C3.36542 8.21416 3.19322 8.05427 3.19322 7.85702ZM3.57784 9.64273C3.57784 9.44549 3.75003 9.28559 3.96245 9.28559H7.03938C7.2518 9.28559 7.424 9.44549 7.424 9.64273C7.424 9.83998 7.2518 9.99988 7.03938 9.99988H3.96245C3.75003 9.99988 3.57784 9.83998 3.57784 9.64273ZM3.00009 11.357C3.00009 11.1598 3.17229 10.9999 3.38471 10.9999H7.61548C7.82789 10.9999 8.00009 11.1598 8.00009 11.357C8.00009 11.5543 7.82789 11.7142 7.61548 11.7142H3.38471C3.17229 11.7142 3.00009 11.5543 3.00009 11.357Z" fill="url(#paint0_linear_6542_28540)"/>
<path fill-rule="evenodd" clip-rule="evenodd" d="M5.5 14C7.98528 14 10 11.9853 10 9.5C10 7.01472 7.98528 5 5.5 5C3.01472 5 1 7.01472 1 9.5C1 11.9853 3.01472 14 5.5 14ZM5.5 15C8.53757 15 11 12.5376 11 9.5C11 6.46243 8.53757 4 5.5 4C2.46243 4 0 6.46243 0 9.5C0 12.5376 2.46243 15 5.5 15Z" fill="url(#paint1_linear_6542_28540)"/>
<path fill-rule="evenodd" clip-rule="evenodd" d="M8.55052 3.3463C8.25563 3.65461 8.24368 4.14198 8.52382 4.43488C8.80397 4.72777 9.27013 4.71527 9.56502 4.40696L10.9457 2.96347L10.9216 6.22629C11.2277 6.74796 11.4678 7.32397 11.627 7.94524C12.0333 9.53043 11.8424 11.1358 11.1984 12.5003L11.376 12.5003C11.9128 12.5001 12.349 12.0475 12.3533 11.4864L12.4182 2.924L13.7298 4.29532C14.01 4.58821 14.4761 4.57571 14.771 4.26741C15.0659 3.9591 15.0779 3.47173 14.7977 3.17883L12.2615 0.527182C12.1316 0.391459 11.9497 0.310238 11.7464 0.315688C11.6466 0.318364 11.5509 0.341688 11.4631 0.381649C11.3754 0.42154 11.2927 0.479403 11.2203 0.555095L8.55052 3.3463Z" fill="url(#paint2_linear_6542_28540)"/>
</g>
<defs>
<linearGradient id="paint0_linear_6542_28540" x1="5.50009" y1="7.49988" x2="5.50009" y2="11.7142" gradientUnits="userSpaceOnUse">
<stop stop-color="#10808C"/>
<stop offset="1" stop-color="#1DF7EF"/>
</linearGradient>
<linearGradient id="paint1_linear_6542_28540" x1="5.5" y1="4" x2="12.9153" y2="14.4251" gradientUnits="userSpaceOnUse">
<stop stop-color="#FE5468"/>
<stop offset="1" stop-color="#FFDF27"/>
</linearGradient>
<linearGradient id="paint2_linear_6542_28540" x1="11.6608" y1="0.31543" x2="11.6608" y2="12.5003" gradientUnits="userSpaceOnUse">
<stop stop-color="#10808C"/>
<stop offset="1" stop-color="#1DF7EF"/>
</linearGradient>
<clipPath id="clip0_6542_28540">
<rect width="15" height="15" fill="white"/>
</clipPath>
</defs>
</svg>
