<svg width="15" height="15" viewBox="0 0 15 15" fill="none" xmlns="http://www.w3.org/2000/svg">
<g clip-path="url(#clip0_21859_51724)">
<path d="M1.42383 0.486816H7.25391C7.47128 0.486832 7.681 0.562123 7.84766 0.69873L7.91602 0.76123L14.2383 7.0835C14.5811 7.42631 14.6026 7.9686 14.3027 8.33643L14.2383 8.40771L8.4082 14.2388C8.06535 14.5816 7.52213 14.6032 7.1543 14.3032L7.08301 14.2388L0.761719 7.9165C0.586094 7.74088 0.487309 7.50276 0.487305 7.25439V1.42334C0.487305 0.938394 0.85581 0.539582 1.32812 0.491699L1.42383 0.486816ZM1.94922 0.486816C1.14201 0.486816 0.487305 1.14152 0.487305 1.94873C0.487544 2.75574 1.14216 3.40967 1.94922 3.40967C2.75608 3.40943 3.40992 2.75559 3.41016 1.94873C3.41016 1.14167 2.75622 0.487056 1.94922 0.486816Z" fill="#1F2726" stroke="url(#paint0_linear_21859_51724)" stroke-width="0.974388"/>
<path d="M4.40982 6.54533C4.22945 6.38908 4.12075 6.18871 4.06924 5.94051C4.03546 5.77505 4.02127 5.5741 4.0058 5.35258C3.9655 4.78069 3.91583 4.07257 3.49437 3.48989C4.05448 3.69949 4.34369 4.15871 4.49383 4.69683C4.56123 4.93878 4.57571 5.14653 4.58947 5.34478C4.60565 5.57808 4.62098 5.79804 4.72046 6.04453C4.7741 6.17906 4.84122 6.29216 4.91856 6.39107L4.40982 6.54533Z" fill="url(#paint1_radial_21859_51724)"/>
<path d="M5.28104 6.28233C5.17304 6.09345 5.10422 5.8847 5.0625 5.65708C5.02702 5.46777 5.01581 5.31238 5.00573 5.17289C4.97153 4.70331 4.95025 4.41183 4.06644 3.60721C4.14605 3.63602 4.22339 3.66312 4.29818 3.68909L4.2986 3.68923C4.95167 3.91771 5.40975 4.07778 5.58387 4.75255C5.66987 5.08604 5.68391 5.28059 5.6964 5.45259C5.71031 5.64615 5.72237 5.81147 5.83235 6.11416L5.28104 6.28233Z" fill="url(#paint2_radial_21859_51724)"/>
<path d="M6.08121 5.21467C6.09923 5.42796 6.09937 5.74683 6.10264 5.76457L6.50026 4.35854C6.31337 4.20939 5.99152 4.13532 5.55785 4.00618C5.95959 4.34633 6.03892 4.71515 6.08121 5.21467Z" fill="url(#paint3_radial_21859_51724)"/>
<path d="M6.66019 4.53466C6.7435 4.66649 6.83446 5.02311 6.85305 5.23696C6.91151 5.91245 6.9074 6.22961 7.19562 7.04573C7.12097 7.00088 7.04902 6.96016 6.98034 6.92127C6.64104 6.72927 6.37453 6.5533 6.27208 6.27431L6.66019 4.53466Z" fill="url(#paint4_radial_21859_51724)"/>
<path d="M6.71379 6.96951C6.41734 6.82406 6.17837 6.6935 5.98409 6.42033L5.46329 6.53017C5.78968 6.89146 6.33801 7.14605 7.26042 7.2573C7.11085 7.15087 6.88323 7.05267 6.71379 6.96951Z" fill="url(#paint5_radial_21859_51724)"/>
<path d="M5.11628 6.60607C5.2335 6.7125 5.5982 6.93898 5.81646 7.03349C5.41471 6.98482 4.87617 6.83227 4.63989 6.7064L5.11628 6.60607Z" fill="url(#paint6_radial_21859_51724)"/>
<path d="M10.5121 4.56976C10.0005 4.05818 8.61885 4.57926 7.21268 5.74447C7.22772 6.00473 7.27597 6.2982 7.41064 6.6673L7.56944 7.17917C7.59768 7.27467 7.57625 7.37727 7.51282 7.45149C7.44825 7.52684 7.35019 7.5636 7.25241 7.54927L6.98704 7.51038C6.45006 7.44511 6.03895 7.37912 5.67964 7.29199C4.56169 8.66963 4.06884 10.0094 4.57063 10.5112C5.17558 11.1161 6.99811 10.2759 8.63815 8.63586C8.71733 8.55667 8.79482 8.47692 8.87031 8.39689L8.42969 7.47491L8.42685 7.46809C8.34724 7.28234 8.38811 7.06777 8.52817 6.92373L8.52916 6.92274L10.6596 4.80362C10.628 4.72827 10.5678 4.62553 10.5121 4.56976Z" fill="url(#paint7_radial_21859_51724)"/>
<path d="M9.5403 7.76054L11.205 6.09581L11.3169 6.35323L9.66093 8.00916L10.3439 9.42952L9.22711 8.3127L8.75541 7.32531C8.73313 7.27379 8.74434 7.21348 8.78393 7.17275L10.8024 5.15538L10.9097 5.41195L9.22513 7.09655L9.32702 7.30175L11.0057 5.62311L11.1084 5.88536L9.44508 7.54867L9.5403 7.76054Z" fill="url(#paint8_radial_21859_51724)"/>
<path d="M5.15808 10.8926C5.89189 11.243 6.99778 11.4106 7.19064 11.4039C7.85973 11.3839 9.2371 10.541 10.1114 9.66669L9.19765 8.75294C7.68207 10.2685 6.00797 10.9609 5.15808 10.8926Z" fill="url(#paint9_radial_21859_51724)"/>
</g>
<defs>
<linearGradient id="paint0_linear_21859_51724" x1="7.49999" y1="-0.000488281" x2="7.49999" y2="15" gradientUnits="userSpaceOnUse">
<stop stop-color="#10808C"/>
<stop offset="1" stop-color="#1DF7EF"/>
</linearGradient>
<radialGradient id="paint1_radial_21859_51724" cx="0" cy="0" r="1" gradientUnits="userSpaceOnUse" gradientTransform="translate(4.04213 4.28566) rotate(72.9121) scale(2.61094 2.01512)">
<stop stop-color="#1DF7EF"/>
<stop offset="1" stop-color="#10808C"/>
</radialGradient>
<radialGradient id="paint2_radial_21859_51724" cx="0" cy="0" r="1" gradientUnits="userSpaceOnUse" gradientTransform="translate(4.85019 4.15069) rotate(70.6922) scale(2.52925 1.84361)">
<stop stop-color="#1DF7EF"/>
<stop offset="1" stop-color="#10808C"/>
</radialGradient>
<radialGradient id="paint3_radial_21859_51724" cx="0" cy="0" r="1" gradientUnits="userSpaceOnUse" gradientTransform="translate(6.04111 4.23833) rotate(82.5477) scale(1.54953 1.39691)">
<stop stop-color="#1DF7EF"/>
<stop offset="1" stop-color="#10808C"/>
</radialGradient>
<radialGradient id="paint4_radial_21859_51724" cx="0" cy="0" r="1" gradientUnits="userSpaceOnUse" gradientTransform="translate(6.92428 5.21686) rotate(80.6343) scale(1.99942 1.76644)">
<stop stop-color="#1DF7EF"/>
<stop offset="1" stop-color="#10808C"/>
</radialGradient>
<radialGradient id="paint5_radial_21859_51724" cx="0" cy="0" r="1" gradientUnits="userSpaceOnUse" gradientTransform="translate(6.28953 6.48801) rotate(67.6421) scale(1.45891 0.967139)">
<stop stop-color="#1DF7EF"/>
<stop offset="1" stop-color="#10808C"/>
</radialGradient>
<radialGradient id="paint6_radial_21859_51724" cx="0" cy="0" r="1" gradientUnits="userSpaceOnUse" gradientTransform="translate(5.21834 6.59501) rotate(74.0081) scale(0.917122 0.725697)">
<stop stop-color="#1DF7EF"/>
<stop offset="1" stop-color="#10808C"/>
</radialGradient>
<radialGradient id="paint7_radial_21859_51724" cx="0" cy="0" r="1" gradientUnits="userSpaceOnUse" gradientTransform="translate(9.00363 5.29441) rotate(114.689) scale(6.63381 4.02914)">
<stop stop-color="#FFDF27"/>
<stop offset="0.9999" stop-color="#FE5468"/>
</radialGradient>
<radialGradient id="paint8_radial_21859_51724" cx="0" cy="0" r="1" gradientUnits="userSpaceOnUse" gradientTransform="translate(10.95 6.19228) rotate(95.5916) scale(3.20694 2.93492)">
<stop stop-color="#1DF7EF"/>
<stop offset="0.9999" stop-color="#10808C"/>
</radialGradient>
<radialGradient id="paint9_radial_21859_51724" cx="0" cy="0" r="1" gradientUnits="userSpaceOnUse" gradientTransform="translate(8.24599 8.96252) rotate(103.427) scale(3.79731 3.16046)">
<stop stop-color="#1DF7EF"/>
<stop offset="0.9999" stop-color="#10808C"/>
</radialGradient>
<clipPath id="clip0_21859_51724">
<rect width="15" height="15" fill="white"/>
</clipPath>
</defs>
</svg>
