<svg width="24" height="24" viewBox="0 0 24 24" fill="none" xmlns="http://www.w3.org/2000/svg">
<path fill-rule="evenodd" clip-rule="evenodd" d="M3.78646 2.92096C3.38601 3.22103 3.2987 3.4512 3.2987 3.58763V6.5567C3.2987 6.69313 3.38601 6.9233 3.78646 7.22337C4.179 7.51752 4.7871 7.80978 5.59582 8.06686C7.20644 8.57887 9.47157 8.90722 12 8.90722C14.5284 8.90722 16.7936 8.57887 18.4042 8.06686C19.2129 7.80978 19.821 7.51752 20.2135 7.22337C20.614 6.9233 20.7013 6.69313 20.7013 6.5567V3.58763C20.7013 3.4512 20.614 3.22103 20.2135 2.92096C19.821 2.62681 19.2129 2.33455 18.4042 2.07747C16.7936 1.56546 14.5284 1.23711 12 1.23711C9.47157 1.23711 7.20644 1.56546 5.59582 2.07747C4.7871 2.33455 4.179 2.62681 3.78646 2.92096ZM5.1847 0.903975C6.95979 0.339691 9.36999 0 12 0C14.63 0 17.0402 0.339691 18.8153 0.903975C19.6994 1.18503 20.4618 1.53298 21.0165 1.94863C21.5633 2.35835 22 2.90756 22 3.58763V6.5567C22 7.23677 21.5633 7.78598 21.0165 8.1957C20.4618 8.61135 19.6994 8.9593 18.8153 9.24036C17.0402 9.80464 14.63 10.1443 12 10.1443C9.36999 10.1443 6.95979 9.80464 5.1847 9.24036C4.30057 8.9593 3.5382 8.61135 2.98351 8.1957C2.43672 7.78598 2 7.23677 2 6.5567V3.58763C2 2.90756 2.43672 2.35835 2.98351 1.94863C3.5382 1.53298 4.30057 1.18503 5.1847 0.903975ZM7.43381 1.93915C8.6267 1.65458 10.2406 1.48454 12 1.48454C13.7594 1.48454 15.3733 1.65458 16.5662 1.93915C17.1577 2.08025 17.6821 2.25792 18.0743 2.47864C18.4224 2.67451 18.8831 3.02916 18.8831 3.58763C18.8831 4.14609 18.4224 4.50075 18.0743 4.69662C17.6821 4.91734 17.1577 5.09501 16.5662 5.23611C15.3733 5.52068 13.7594 5.69072 12 5.69072C10.2406 5.69072 8.6267 5.52068 7.43381 5.23611C6.84235 5.09501 6.31789 4.91734 5.92565 4.69662C5.57758 4.50075 5.11688 4.14609 5.11688 3.58763C5.11688 3.02916 5.57758 2.67451 5.92565 2.47864C6.31789 2.25792 6.84235 2.08025 7.43381 1.93915ZM6.3937 3.68354C6.39361 3.68353 6.39421 3.68254 6.39574 3.68059C6.39454 3.68258 6.39378 3.68355 6.3937 3.68354ZM6.51288 3.58763C6.53372 3.57429 6.55799 3.55965 6.5862 3.54378C6.82465 3.4096 7.21285 3.26718 7.74931 3.1392C8.81226 2.88563 10.3153 2.72165 12 2.72165C13.6847 2.72165 15.1877 2.88563 16.2507 3.1392C16.7872 3.26718 17.1754 3.4096 17.4138 3.54378C17.442 3.55965 17.4663 3.57429 17.4871 3.58763C17.4663 3.60097 17.442 3.6156 17.4138 3.63147C17.1754 3.76565 16.7872 3.90808 16.2507 4.03606C15.1877 4.28963 13.6847 4.45361 12 4.45361C10.3153 4.45361 8.81226 4.28963 7.74931 4.03606C7.21285 3.90808 6.82465 3.76565 6.5862 3.63147C6.55799 3.6156 6.53372 3.60097 6.51288 3.58763ZM17.6063 3.68354C17.6062 3.68355 17.6055 3.68258 17.6043 3.68059C17.6058 3.68254 17.6064 3.68353 17.6063 3.68354ZM17.6043 3.49466C17.6055 3.49268 17.6062 3.4917 17.6063 3.49171C17.6064 3.49172 17.6058 3.49272 17.6043 3.49466ZM6.39574 3.49466C6.39421 3.49272 6.39361 3.49172 6.3937 3.49171C6.39378 3.4917 6.39454 3.49268 6.39574 3.49466ZM2.99364 8.78753L3.48887 9.39305C3.66849 9.61267 3.99872 9.86106 4.50963 10.1082C5.01329 10.3519 5.65529 10.5765 6.41483 10.7672C7.93361 11.1485 9.87165 11.3814 12 11.3814C14.1284 11.3814 16.0664 11.1485 17.5852 10.7672C18.3447 10.5765 18.9867 10.3519 19.4904 10.1082C20.0013 9.86106 20.3315 9.61267 20.5111 9.39305L21.0064 8.78753L21.5222 9.37721C21.6457 9.5184 21.734 9.66977 21.7912 9.77863C21.8831 9.95371 22 10.2215 22 10.5155V13.4845C22 14.1646 21.5633 14.7138 21.0165 15.1235C20.4618 15.5392 19.6994 15.8871 18.8153 16.1682C17.0402 16.7325 14.63 17.0722 12 17.0722C9.36999 17.0722 6.95979 16.7325 5.1847 16.1682C4.30057 15.8871 3.5382 15.5392 2.98351 15.1235C2.43672 14.7138 2 14.1646 2 13.4845V10.5155C2 10.2026 2.12047 9.94693 2.20881 9.77863C2.26596 9.66977 2.35426 9.5184 2.47778 9.37721L2.99364 8.78753ZM3.2987 10.8667V13.4845C3.2987 13.621 3.38601 13.8511 3.78646 14.1512C4.179 14.4454 4.7871 14.7376 5.59582 14.9947C7.20644 15.5067 9.47157 15.8351 12 15.8351C14.5284 15.8351 16.7936 15.5067 18.4042 14.9947C19.2129 14.7376 19.821 14.4454 20.2135 14.1512C20.614 13.8511 20.7013 13.621 20.7013 13.4845V10.8667C20.508 10.9899 20.2989 11.1046 20.0785 11.2112C19.4717 11.5048 18.7384 11.7571 17.9161 11.9635C16.2713 12.3764 14.2197 12.6186 12 12.6186C9.7803 12.6186 7.72873 12.3764 6.08387 11.9635C5.2616 11.7571 4.52827 11.5048 3.92154 11.2112C3.70106 11.1046 3.49198 10.9899 3.2987 10.8667ZM2.96682 15.6826L3.48887 16.3209C3.66849 16.5405 3.99872 16.7889 4.50963 17.0361C5.01329 17.2798 5.65529 17.5044 6.41483 17.6951C7.93361 18.0763 9.87165 18.3093 12 18.3093C14.1284 18.3093 16.0664 18.0763 17.5852 17.6951C18.3447 17.5044 18.9867 17.2798 19.4904 17.0361C20.0013 16.7889 20.3315 16.5405 20.5111 16.3209L21.0127 15.7076L21.5273 16.311C21.7813 16.6087 22 16.9956 22 17.4433V20.4124C22 21.0924 21.5633 21.6416 21.0165 22.0514C20.4618 22.467 19.6994 22.815 18.8153 23.096C17.0402 23.6603 14.63 24 12 24C9.36999 24 6.95979 23.6603 5.1847 23.096C4.30057 22.815 3.5382 22.467 2.98351 22.0514C2.43672 21.6416 2 21.0924 2 20.4124V17.4433C2 16.9838 2.24817 16.5953 2.45714 16.3299L2.96682 15.6826ZM20.7013 17.7946C20.508 17.9177 20.2989 18.0324 20.0785 18.1391C19.4717 18.4326 18.7384 18.6849 17.9161 18.8913C16.2713 19.3043 14.2197 19.5464 12 19.5464C9.7803 19.5464 7.72873 19.3043 6.08387 18.8913C5.2616 18.6849 4.52827 18.4326 3.92154 18.1391C3.70106 18.0324 3.49198 17.9177 3.2987 17.7946V20.4124C3.2987 20.5488 3.38601 20.779 3.78646 21.079C4.179 21.3732 4.7871 21.6654 5.59582 21.9225C7.20644 22.4345 9.47157 22.7629 12 22.7629C14.5284 22.7629 16.7936 22.4345 18.4042 21.9225C19.2129 21.6654 19.821 21.3732 20.2135 21.079C20.614 20.779 20.7013 20.5488 20.7013 20.4124V17.7946Z" fill="url(#paint0_linear_3218_87624)"/>
<circle cx="5.33334" cy="6.66667" r="0.666667" fill="url(#paint1_linear_3218_87624)"/>
<circle cx="5.33334" cy="13.3333" r="0.666667" fill="url(#paint2_linear_3218_87624)"/>
<circle cx="5.33334" cy="20" r="0.666667" fill="url(#paint3_linear_3218_87624)"/>
<defs>
<linearGradient id="paint0_linear_3218_87624" x1="12" y1="0" x2="12" y2="24" gradientUnits="userSpaceOnUse">
<stop stop-color="#10808C"/>
<stop offset="1" stop-color="#1DF7EF"/>
</linearGradient>
<linearGradient id="paint1_linear_3218_87624" x1="5.33334" y1="6" x2="5.33334" y2="7.33333" gradientUnits="userSpaceOnUse">
<stop stop-color="#FE5468"/>
<stop offset="1" stop-color="#FFDF27"/>
</linearGradient>
<linearGradient id="paint2_linear_3218_87624" x1="5.33334" y1="12.6667" x2="5.33334" y2="14" gradientUnits="userSpaceOnUse">
<stop stop-color="#FE5468"/>
<stop offset="1" stop-color="#FFDF27"/>
</linearGradient>
<linearGradient id="paint3_linear_3218_87624" x1="5.33334" y1="19.3333" x2="5.33334" y2="20.6667" gradientUnits="userSpaceOnUse">
<stop stop-color="#FE5468"/>
<stop offset="1" stop-color="#FFDF27"/>
</linearGradient>
</defs>
</svg>
