<svg width="24" height="24" viewBox="0 0 24 24" fill="none" xmlns="http://www.w3.org/2000/svg">
<g clip-path="url(#clip0_3218_87544)">
<path fill-rule="evenodd" clip-rule="evenodd" d="M0 20V7H1.5V20C1.5 21.3807 2.61929 22.5 4 22.5H16V20C16 17.7909 17.7909 16 20 16H22.5V7H24V16L16 24H4C1.79086 24 0 22.2091 0 20ZM17 20C17 18.3431 18.3431 17 20 17H21.5858L17 21.5858V20Z" fill="url(#paint0_linear_3218_87544)"/>
<path d="M12 16.1688L7 13.2254L12 20.2331L17 13.2254L12 16.1688Z" fill="url(#paint1_linear_3218_87544)"/>
<path d="M12 4L16.9999 12.2773L12 15.2288L7 12.2777L12 4Z" fill="url(#paint2_linear_3218_87544)"/>
<path d="M14.981 7H24V4C24 1.79086 22.2091 0 20 0H4C1.79086 0 0 1.79086 0 4V7H9.01972L12.0003 2.06543L14.981 7Z" fill="url(#paint3_linear_3218_87544)"/>
</g>
<defs>
<linearGradient id="paint0_linear_3218_87544" x1="12" y1="7" x2="12" y2="24" gradientUnits="userSpaceOnUse">
<stop stop-color="#10808C"/>
<stop offset="1" stop-color="#1DF7EF"/>
</linearGradient>
<linearGradient id="paint1_linear_3218_87544" x1="12" y1="13.2254" x2="12" y2="20.2331" gradientUnits="userSpaceOnUse">
<stop stop-color="#10808C"/>
<stop offset="1" stop-color="#1DF7EF"/>
</linearGradient>
<linearGradient id="paint2_linear_3218_87544" x1="11.9999" y1="4" x2="11.9999" y2="15.2288" gradientUnits="userSpaceOnUse">
<stop stop-color="#FE5468"/>
<stop offset="1" stop-color="#FFDF27"/>
</linearGradient>
<linearGradient id="paint3_linear_3218_87544" x1="12" y1="0" x2="12" y2="7" gradientUnits="userSpaceOnUse">
<stop stop-color="#FE5468"/>
<stop offset="1" stop-color="#FFDF27"/>
</linearGradient>
<clipPath id="clip0_3218_87544">
<rect width="24" height="24" fill="white"/>
</clipPath>
</defs>
</svg>
