<svg width="15" height="15" viewBox="0 0 15 15" fill="none" xmlns="http://www.w3.org/2000/svg">
<g clip-path="url(#clip0_177_29539)">
<path d="M8.24134 3.48536L9.29605 2.43065C9.08648 2.08068 8.83372 1.75577 8.54207 1.46412C7.82355 0.745598 6.90311 0.263113 5.90342 0.0809677C4.90373 -0.101178 3.87227 0.0256661 2.9465 0.444596C2.73292 0.541245 2.58038 0.736563 2.53836 0.967194C2.49634 1.19782 2.57019 1.43439 2.73595 1.60016L5.4231 4.2873C5.90168 4.05049 6.30199 4.03272 6.8225 4.00154C6.76785 3.73393 6.63711 3.48546 6.44311 3.28754L6.43811 3.28244L4.60644 1.45082C4.95133 1.41184 5.30202 1.42314 5.64741 1.48607C6.36147 1.61617 7.01893 1.96081 7.53216 2.47404C7.82716 2.76904 8.06646 3.1117 8.24134 3.48536Z" fill="url(#paint0_linear_177_29539)"/>
<path d="M2.20035 7.21735C1.83955 6.76063 1.59451 6.2208 1.48943 5.64405C1.4265 5.29867 1.4152 4.94797 1.45418 4.60308L3.13439 6.2833L4.14431 5.27339L1.60352 2.73259C1.43775 2.56683 1.20118 2.49298 0.970552 2.535C0.739922 2.57702 0.544602 2.72956 0.447954 2.94314C0.0290241 3.86891 -0.0978212 4.90037 0.0843258 5.90006C0.241506 6.76273 0.622335 7.56638 1.1855 8.2322L2.20035 7.21735Z" fill="url(#paint1_linear_177_29539)"/>
<path d="M10.6731 9.5373L13.3406 12.2048C13.4908 12.355 13.5751 12.5586 13.5751 12.771C13.5751 12.9834 13.4908 13.1871 13.3406 13.3372C13.1904 13.4874 12.9867 13.5718 12.7744 13.5718C12.562 13.5718 12.3583 13.4874 12.2082 13.3372L9.72913 10.8582L8.71922 11.8681L11.1982 14.3471C11.6163 14.7652 12.1832 15 12.7744 15C13.3655 15 13.9325 14.7652 14.3505 14.3471C14.7685 13.9291 15.0034 13.3622 15.0034 12.771C15.0034 12.1798 14.7685 11.6129 14.3505 11.1949L11.007 7.85141C11.0202 8.42479 10.9091 9.00172 10.6731 9.5373Z" fill="url(#paint2_linear_177_29539)"/>
<path fill-rule="evenodd" clip-rule="evenodd" d="M14.8646 0.740321C15.0269 0.902555 15.0579 1.15438 14.9398 1.35112L13.5737 3.62805C13.49 3.76752 13.2975 3.79121 13.1825 3.67621L12.8317 3.32537L9.76967 6.38736C9.46999 6.68704 9.41241 7.14191 9.4783 7.56057C9.59593 8.3079 9.3668 9.09923 8.79091 9.67512L4.17291 14.2931C3.21649 15.2495 1.66583 15.2495 0.709412 14.2931C-0.247008 13.3367 -0.247008 11.786 0.709413 10.8296L5.32741 6.21162C5.9033 5.63573 6.69464 5.4066 7.44196 5.52423C7.86063 5.59013 8.31549 5.53254 8.61517 5.23286L11.6772 2.17087L11.3263 1.82003C11.2113 1.70502 11.235 1.51256 11.3745 1.42888L13.6514 0.0627196C13.8481 -0.0553233 14.1 -0.0243215 14.2622 0.137913L14.8646 0.740321ZM7.63663 7.36478C7.95544 7.68358 7.95544 8.20047 7.63663 8.51928L3.01863 13.1373C2.69982 13.4561 2.18294 13.4561 1.86413 13.1373C1.54532 12.8185 1.54532 12.3016 1.86413 11.9828L6.48213 7.36478C6.80094 7.04597 7.31782 7.04597 7.63663 7.36478Z" fill="url(#paint3_linear_177_29539)"/>
</g>
<defs>
<linearGradient id="paint0_linear_177_29539" x1="7.50336" y1="0" x2="7.50336" y2="15" gradientUnits="userSpaceOnUse">
<stop stop-color="#10808C"/>
<stop offset="1" stop-color="#1DF7EF"/>
</linearGradient>
<linearGradient id="paint1_linear_177_29539" x1="7.50336" y1="0" x2="7.50336" y2="15" gradientUnits="userSpaceOnUse">
<stop stop-color="#10808C"/>
<stop offset="1" stop-color="#1DF7EF"/>
</linearGradient>
<linearGradient id="paint2_linear_177_29539" x1="7.50336" y1="0" x2="7.50336" y2="15" gradientUnits="userSpaceOnUse">
<stop stop-color="#10808C"/>
<stop offset="1" stop-color="#1DF7EF"/>
</linearGradient>
<linearGradient id="paint3_linear_177_29539" x1="7.50159" y1="-0.00854492" x2="7.50159" y2="15.0104" gradientUnits="userSpaceOnUse">
<stop stop-color="#FE5468"/>
<stop offset="1" stop-color="#FFDF27"/>
</linearGradient>
<clipPath id="clip0_177_29539">
<rect width="15" height="15" fill="white"/>
</clipPath>
</defs>
</svg>
