<svg width="15" height="15" viewBox="0 0 15 15" fill="none" xmlns="http://www.w3.org/2000/svg">
<g clip-path="url(#clip0_7416_32351)">
<path fill-rule="evenodd" clip-rule="evenodd" d="M9.52673 7.32314L14.8911 7.33722C14.9463 7.20449 15 7.00241 15 6.86406C15 5.5949 12.621 4.52763 9.37504 4.22873C9.37504 4.22873 7.11443 4.07789 5.4636 4.24652C2.31334 4.56865 0 5.61919 0 6.86406C0 8.36487 3.36128 9.58333 7.50179 9.58333C7.7017 9.58333 7.90019 9.58052 8.09652 9.57488L8.70414 7.88466L8.70916 7.87269C8.84315 7.54352 9.16559 7.32807 9.52422 7.32314H9.52673ZM7.93923 7.55385C8.20399 6.90882 8.83035 6.49926 9.51277 6.48988L9.51849 6.4898H9.52891L13.9416 6.50139C13.7602 6.32643 13.4707 6.13122 13.0549 5.93888C12.1696 5.52937 10.8679 5.20404 9.3098 5.05959L9.29709 5.05878C9.28128 5.05779 9.25739 5.05632 9.22613 5.0545C9.16359 5.05085 9.0716 5.04577 8.95573 5.04016C8.72381 5.02893 8.39725 5.01565 8.02042 5.00753C7.25943 4.99113 6.3222 4.99649 5.54837 5.07553M7.93923 7.55385L7.92723 7.58248L7.50751 8.75L7.50179 8.75C5.50246 8.75 3.7275 8.45446 2.48219 8.00305C1.85607 7.77609 1.40792 7.5255 1.13196 7.28916C0.85295 7.05021 0.833333 6.90353 0.833333 6.86406C0.833333 6.82957 0.845765 6.72617 1.01328 6.55079C1.1846 6.37143 1.47469 6.16638 1.90594 5.96297C2.76583 5.5574 4.03212 5.23059 5.54837 5.07553" fill="url(#paint0_linear_7416_32351)"/>
<path d="M9.81662 9.67752H13.9204L13.741 10.1612H9.65885L8.75 12.9167V9.99058L9.38563 8.07914C9.42166 7.98248 9.50982 7.91815 9.60882 7.91667L14.5833 7.91815L14.3993 8.3948H10.2466L10.1192 8.7971H14.2573L14.0607 9.27523H9.9604L9.81662 9.67752Z" fill="url(#paint1_radial_7416_32351)"/>
<path fill-rule="evenodd" clip-rule="evenodd" d="M2.53414 10.7357C2.65162 10.8516 2.89081 11.0108 3.27789 11.1832C3.65242 11.35 4.1159 11.5075 4.63464 11.6432C5.40634 11.845 6.26589 11.9896 7.08333 12.0508V11.2791C5.3848 11.1997 3.85803 10.8827 2.60014 10.4386C2.46353 10.3904 2.32928 10.3403 2.19763 10.2886C2.22716 10.3311 2.25565 10.3714 2.28291 10.4094C2.35527 10.5103 2.41684 10.592 2.46475 10.6523C2.50301 10.7006 2.52421 10.7246 2.53066 10.7319C2.5333 10.7349 2.53347 10.7351 2.53136 10.733L2.53414 10.7357ZM0.788851 9.61152C1.27654 10.4701 1.79177 11.1755 1.94899 11.3291C2.72526 12.0946 5.01814 12.7413 7.08333 12.8863C7.36691 12.9062 7.64619 12.9167 7.91667 12.9167V10.4652C5.18959 10.4652 2.88247 9.8158 1.40351 9.00255C0.776396 8.6577 0.298184 8.2834 0 7.91667C0.189116 8.47655 0.483587 9.07407 0.788851 9.61152Z" fill="url(#paint2_linear_7416_32351)"/>
</g>
<defs>
<linearGradient id="paint0_linear_7416_32351" x1="7.5" y1="4.16667" x2="9.3628" y2="11.419" gradientUnits="userSpaceOnUse">
<stop stop-color="#FE5468"/>
<stop offset="1" stop-color="#FFDF27"/>
</linearGradient>
<radialGradient id="paint1_radial_7416_32351" cx="0" cy="0" r="1" gradientUnits="userSpaceOnUse" gradientTransform="translate(13.4871 9.46975) rotate(138.87) scale(5.73422 5.30066)">
<stop stop-color="#1DF7EF"/>
<stop offset="0.9999" stop-color="#10808C"/>
</radialGradient>
<linearGradient id="paint2_linear_7416_32351" x1="3.95833" y1="7.91667" x2="3.95833" y2="12.9167" gradientUnits="userSpaceOnUse">
<stop stop-color="#10808C"/>
<stop offset="1" stop-color="#1DF7EF"/>
</linearGradient>
<clipPath id="clip0_7416_32351">
<rect width="15" height="15" fill="white"/>
</clipPath>
</defs>
</svg>
