<svg width="15" height="15" viewBox="0 0 15 15" fill="none" xmlns="http://www.w3.org/2000/svg">
<path fill-rule="evenodd" clip-rule="evenodd" d="M2.36654 1.8256C2.11625 2.01314 2.06169 2.157 2.06169 2.24227V4.09794C2.06169 4.18321 2.11625 4.32706 2.36654 4.51461C2.61188 4.69845 2.99193 4.88111 3.49738 5.04179C4.50403 5.36179 5.91973 5.56701 7.5 5.56701C9.08027 5.56701 10.496 5.36179 11.5026 5.04179C12.0081 4.88111 12.3881 4.69845 12.6335 4.51461C12.8837 4.32706 12.9383 4.18321 12.9383 4.09794V2.24227C12.9383 2.157 12.8837 2.01314 12.6335 1.8256C12.3881 1.64176 12.0081 1.4591 11.5026 1.29842C10.496 0.978415 9.08027 0.773196 7.5 0.773196C5.91973 0.773196 4.50403 0.978415 3.49738 1.29842C2.99193 1.4591 2.61188 1.64176 2.36654 1.8256ZM3.24044 0.564984C4.34987 0.212307 5.85624 0 7.5 0C9.14376 0 10.6501 0.212307 11.7596 0.564984C12.3121 0.740646 12.7886 0.958114 13.1353 1.21789C13.477 1.47397 13.75 1.81723 13.75 2.24227V4.09794C13.75 4.52298 13.477 4.86623 13.1353 5.12231C12.7886 5.38209 12.3121 5.59956 11.7596 5.77522C10.6501 6.1279 9.14376 6.34021 7.5 6.34021C5.85624 6.34021 4.34987 6.1279 3.24044 5.77522C2.68785 5.59956 2.21138 5.38209 1.86469 5.12231C1.52295 4.86623 1.25 4.52298 1.25 4.09794V2.24227C1.25 1.81723 1.52295 1.47397 1.86469 1.21789C2.21138 0.958114 2.68785 0.740646 3.24044 0.564984ZM4.64613 1.21197C5.39169 1.03411 6.40036 0.927835 7.5 0.927835C8.59964 0.927835 9.60831 1.03411 10.3539 1.21197C10.7235 1.30015 11.0513 1.4112 11.2965 1.54915C11.514 1.67157 11.8019 1.89323 11.8019 2.24227C11.8019 2.59131 11.514 2.81297 11.2965 2.93539C11.0513 3.07333 10.7235 3.18438 10.3539 3.27257C9.60831 3.45043 8.59964 3.5567 7.5 3.5567C6.40036 3.5567 5.39169 3.45043 4.64613 3.27257C4.27647 3.18438 3.94868 3.07333 3.70353 2.93539C3.48599 2.81297 3.19805 2.59131 3.19805 2.24227C3.19805 1.89323 3.48599 1.67157 3.70353 1.54915C3.94868 1.4112 4.27647 1.30015 4.64613 1.21197ZM3.99606 2.30222C3.99601 2.30221 3.99638 2.30159 3.99734 2.30037C3.99659 2.30161 3.99611 2.30222 3.99606 2.30222ZM4.07055 2.24227C4.08358 2.23393 4.09875 2.22478 4.11637 2.21486C4.2654 2.131 4.50803 2.04199 4.84332 1.962C5.50766 1.80352 6.44704 1.70103 7.5 1.70103C8.55296 1.70103 9.49234 1.80352 10.1567 1.962C10.492 2.04199 10.7346 2.131 10.8836 2.21486C10.9013 2.22478 10.9164 2.23393 10.9295 2.24227C10.9164 2.2506 10.9013 2.25975 10.8836 2.26967C10.7346 2.35353 10.492 2.44255 10.1567 2.52253C9.49234 2.68102 8.55296 2.7835 7.5 2.7835C6.44704 2.7835 5.50766 2.68102 4.84332 2.52253C4.50803 2.44255 4.2654 2.35353 4.11637 2.26967C4.09875 2.25975 4.08358 2.25061 4.07055 2.24227ZM11.0039 2.30222C11.0039 2.30222 11.0034 2.30161 11.0027 2.30037C11.0036 2.30159 11.004 2.30221 11.0039 2.30222ZM11.0027 2.18416C11.0034 2.18292 11.0039 2.18231 11.0039 2.18232C11.004 2.18233 11.0036 2.18295 11.0027 2.18416ZM3.99734 2.18417C3.99638 2.18295 3.99601 2.18233 3.99606 2.18232C3.99611 2.18231 3.99659 2.18292 3.99734 2.18417ZM1.87103 5.4922L2.18054 5.87065C2.29281 6.00792 2.4992 6.16316 2.81852 6.31765C3.13331 6.46995 3.53455 6.61034 4.00927 6.72952C4.95851 6.96782 6.16978 7.1134 7.5 7.1134C8.83022 7.1134 10.0415 6.96782 10.9907 6.72952C11.4654 6.61034 11.8667 6.46995 12.1815 6.31765C12.5008 6.16316 12.7072 6.00792 12.8195 5.87065L13.129 5.4922L13.4514 5.86075C13.5286 5.949 13.5838 6.0436 13.6195 6.11164C13.6769 6.22107 13.75 6.38843 13.75 6.57216V8.42783C13.75 8.85288 13.477 9.19613 13.1353 9.45221C12.7886 9.71199 12.3121 9.92946 11.7596 10.1051C10.6501 10.4578 9.14376 10.6701 7.5 10.6701C5.85624 10.6701 4.34987 10.4578 3.24044 10.1051C2.68785 9.92946 2.21138 9.71199 1.86469 9.45221C1.52295 9.19613 1.25 8.85288 1.25 8.42783V6.57216C1.25 6.37663 1.3253 6.21683 1.38051 6.11164C1.41622 6.0436 1.47141 5.949 1.54861 5.86075L1.87103 5.4922ZM2.06169 6.79171V8.42783C2.06169 8.5131 2.11625 8.65696 2.36654 8.8445C2.61188 9.02835 2.99193 9.21101 3.49738 9.37169C4.50403 9.69169 5.91973 9.89691 7.5 9.89691C9.08027 9.89691 10.496 9.69169 11.5026 9.37169C12.0081 9.21101 12.3881 9.02835 12.6335 8.8445C12.8837 8.65696 12.9383 8.5131 12.9383 8.42783V6.79171C12.8175 6.8687 12.6868 6.94036 12.549 7.00703C12.1698 7.19049 11.7115 7.34817 11.1976 7.47718C10.1695 7.73527 8.88731 7.8866 7.5 7.8866C6.11269 7.8866 4.83045 7.73527 3.80242 7.47718C3.2885 7.34817 2.83017 7.19049 2.45096 7.00703C2.31316 6.94036 2.18249 6.8687 2.06169 6.79171ZM1.85426 9.8016L2.18054 10.2006C2.29281 10.3378 2.4992 10.4931 2.81852 10.6475C3.13331 10.7998 3.53455 10.9402 4.00927 11.0594C4.95851 11.2977 6.16978 11.4433 7.5 11.4433C8.83022 11.4433 10.0415 11.2977 10.9907 11.0594C11.4654 10.9402 11.8667 10.7998 12.1815 10.6475C12.5008 10.4931 12.7072 10.3378 12.8195 10.2006L13.1329 9.81725L13.4546 10.1944C13.6133 10.3805 13.75 10.6222 13.75 10.9021V12.7577C13.75 13.1828 13.477 13.526 13.1353 13.7821C12.7886 14.0419 12.3121 14.2594 11.7596 14.435C10.6501 14.7877 9.14376 15 7.5 15C5.85624 15 4.34987 14.7877 3.24044 14.435C2.68785 14.2594 2.21138 14.0419 1.86469 13.7821C1.52295 13.526 1.25 13.1828 1.25 12.7577V10.9021C1.25 10.6149 1.4051 10.3721 1.53571 10.2062L1.85426 9.8016ZM12.9383 11.1216C12.8175 11.1986 12.6868 11.2703 12.549 11.3369C12.1698 11.5204 11.7115 11.6781 11.1976 11.8071C10.1695 12.0652 8.88731 12.2165 7.5 12.2165C6.11269 12.2165 4.83045 12.0652 3.80242 11.8071C3.2885 11.6781 2.83017 11.5204 2.45096 11.3369C2.31316 11.2703 2.18249 11.1986 2.06169 11.1216V12.7577C2.06169 12.843 2.11625 12.9869 2.36654 13.1744C2.61188 13.3582 2.99193 13.5409 3.49738 13.7016C4.50403 14.0216 5.91973 14.2268 7.5 14.2268C9.08027 14.2268 10.496 14.0216 11.5026 13.7016C12.0081 13.5409 12.3881 13.3582 12.6335 13.1744C12.8837 12.9869 12.9383 12.843 12.9383 12.7577V11.1216Z" fill="url(#paint0_linear_7416_32443)"/>
<circle cx="3.33366" cy="4.16667" r="0.416667" fill="url(#paint1_linear_7416_32443)"/>
<circle cx="3.33366" cy="8.33366" r="0.416667" fill="url(#paint2_linear_7416_32443)"/>
<circle cx="3.33366" cy="12.4997" r="0.416667" fill="url(#paint3_linear_7416_32443)"/>
<defs>
<linearGradient id="paint0_linear_7416_32443" x1="7.5" y1="0" x2="7.5" y2="15" gradientUnits="userSpaceOnUse">
<stop stop-color="#10808C"/>
<stop offset="1" stop-color="#1DF7EF"/>
</linearGradient>
<linearGradient id="paint1_linear_7416_32443" x1="3.33366" y1="3.75" x2="3.89542" y2="4.53978" gradientUnits="userSpaceOnUse">
<stop stop-color="#FE5468"/>
<stop offset="1" stop-color="#FFDF27"/>
</linearGradient>
<linearGradient id="paint2_linear_7416_32443" x1="3.33366" y1="7.91699" x2="3.89542" y2="8.70677" gradientUnits="userSpaceOnUse">
<stop stop-color="#FE5468"/>
<stop offset="1" stop-color="#FFDF27"/>
</linearGradient>
<linearGradient id="paint3_linear_7416_32443" x1="3.33366" y1="12.083" x2="3.89542" y2="12.8728" gradientUnits="userSpaceOnUse">
<stop stop-color="#FE5468"/>
<stop offset="1" stop-color="#FFDF27"/>
</linearGradient>
</defs>
</svg>
