<svg width="15" height="15" viewBox="0 0 15 15" fill="none" xmlns="http://www.w3.org/2000/svg">
<g clip-path="url(#clip0_177_29902)">
<path fill-rule="evenodd" clip-rule="evenodd" d="M3.19319 7.8569C3.19319 7.65965 3.36539 7.49976 3.5778 7.49976H7.42397C7.63638 7.49976 7.80858 7.65965 7.80858 7.8569C7.80858 8.05414 7.63638 8.21404 7.42397 8.21404H3.5778C3.36539 8.21404 3.19319 8.05414 3.19319 7.8569ZM3.5778 9.64261C3.5778 9.44537 3.75 9.28547 3.96242 9.28547H7.03935C7.25177 9.28547 7.42397 9.44537 7.42397 9.64261C7.42397 9.83986 7.25177 9.99976 7.03935 9.99976H3.96242C3.75 9.99976 3.5778 9.83986 3.5778 9.64261ZM3.00006 11.3569C3.00006 11.1597 3.17226 10.9998 3.38468 10.9998H7.61545C7.82786 10.9998 8.00006 11.1597 8.00006 11.3569C8.00006 11.5541 7.82786 11.714 7.61545 11.714H3.38468C3.17226 11.714 3.00006 11.5541 3.00006 11.3569Z" fill="url(#paint0_linear_177_29902)"/>
<path fill-rule="evenodd" clip-rule="evenodd" d="M5.5 14C7.98528 14 10 11.9853 10 9.5C10 7.01472 7.98528 5 5.5 5C3.01472 5 1 7.01472 1 9.5C1 11.9853 3.01472 14 5.5 14ZM5.5 15C8.53757 15 11 12.5376 11 9.5C11 6.46243 8.53757 4 5.5 4C2.46243 4 0 6.46243 0 9.5C0 12.5376 2.46243 15 5.5 15Z" fill="url(#paint1_linear_177_29902)"/>
<path d="M11.7462 0.316162C11.9495 0.310712 12.132 0.391376 12.2618 0.5271L14.798 3.17847C15.0781 3.47136 15.0655 3.95903 14.7706 4.26733C14.4758 4.57548 14.0097 4.58843 13.7296 4.29565L12.4181 2.92358L12.3536 11.4861C12.3494 12.0472 11.9128 12.5005 11.3761 12.5007H11.1964C11.8408 11.1363 12.0332 9.53142 11.6271 7.94604C11.4679 7.32485 11.2272 6.74886 10.921 6.22729L10.9454 2.96362L9.56458 4.40698C9.2697 4.71504 8.80365 4.72804 8.52356 4.4353C8.24341 4.14241 8.25601 3.65474 8.5509 3.34644L11.2198 0.55542C11.2922 0.479748 11.3753 0.421481 11.463 0.381592C11.5507 0.341654 11.6465 0.318861 11.7462 0.316162Z" fill="url(#paint2_linear_177_29902)"/>
</g>
<defs>
<linearGradient id="paint0_linear_177_29902" x1="5.50006" y1="7.49976" x2="5.50006" y2="11.714" gradientUnits="userSpaceOnUse">
<stop stop-color="#10808C"/>
<stop offset="1" stop-color="#1DF7EF"/>
</linearGradient>
<linearGradient id="paint1_linear_177_29902" x1="5.5" y1="4" x2="5.5" y2="15" gradientUnits="userSpaceOnUse">
<stop stop-color="#FE5468"/>
<stop offset="1" stop-color="#FFDF27"/>
</linearGradient>
<linearGradient id="paint2_linear_177_29902" x1="11.6609" y1="0.315186" x2="11.6609" y2="12.5001" gradientUnits="userSpaceOnUse">
<stop stop-color="#10808C"/>
<stop offset="1" stop-color="#1DF7EF"/>
</linearGradient>
<clipPath id="clip0_177_29902">
<rect width="15" height="15" fill="white"/>
</clipPath>
</defs>
</svg>
