<svg width="15" height="15" viewBox="0 0 15 15" fill="none" xmlns="http://www.w3.org/2000/svg">
<path fill-rule="evenodd" clip-rule="evenodd" d="M13.5749 8.43924C13.0861 7.93369 12.3208 7.85547 11.746 8.25181L9.0667 10.0993C8.77193 10.3026 8.37356 10.2151 8.18401 9.90699L8.12447 9.81022C7.23128 8.35847 5.44936 7.79727 3.92635 8.48645L2.06012 9.33095C1.63049 9.52537 1.30021 9.89918 1.15166 10.3601L1.08518 10.5664C1.02877 10.7415 1 10.9248 1 11.1094V12.434C1 12.9437 1.21889 13.4267 1.5969 13.7525L1.62854 13.7798C2.54335 14.5683 3.6963 15 4.88676 15H7.37896C9.07049 15 10.6737 14.2176 11.7495 12.8665L13.6689 10.4558C14.1442 9.85884 14.1034 8.98587 13.5749 8.43924ZM12.3148 9.13831C12.4829 9.02236 12.7069 9.04546 12.8495 9.19295C13.0031 9.35182 13.0148 9.60479 12.8769 9.77802L10.9575 12.1887C10.0771 13.2944 8.76451 13.9353 7.37896 13.9353H4.88676C3.9359 13.9353 3.01529 13.5905 2.28509 12.9611L2.25346 12.9339C2.10974 12.81 2.02697 12.6268 2.02697 12.434V11.1094C2.02697 11.0395 2.03785 10.9701 2.05922 10.9038L2.1257 10.6975C2.18195 10.523 2.30723 10.3808 2.47095 10.3067L4.33719 9.46223C5.3978 8.98229 6.6378 9.3737 7.25864 10.3828L7.31817 10.4795C7.44441 10.6847 7.60573 10.8527 7.78874 10.9804L7.52432 11.1627C7.42068 11.2342 7.29879 11.2724 7.17402 11.2724H4.28953V12.3371H7.17402C7.50102 12.3371 7.8208 12.237 8.09307 12.0492L9.59218 11.0147C9.6067 11.0053 9.62112 10.9957 9.63545 10.9858L12.3148 9.13831Z" fill="url(#paint0_linear_177_29865)"/>
<path fill-rule="evenodd" clip-rule="evenodd" d="M10.5 6C11.8807 6 13 4.88071 13 3.5C13 2.11929 11.8807 1 10.5 1C9.11929 1 8 2.11929 8 3.5C8 4.88071 9.11929 6 10.5 6ZM10.5 7C12.433 7 14 5.433 14 3.5C14 1.567 12.433 0 10.5 0C8.567 0 7 1.567 7 3.5C7 5.433 8.567 7 10.5 7Z" fill="url(#paint1_linear_177_29865)"/>
<path fill-rule="evenodd" clip-rule="evenodd" d="M11.7496 2.5C11.7496 2.63807 11.6377 2.75 11.4996 2.75H9.49959C9.36152 2.75 9.24959 2.63807 9.24959 2.5C9.24959 2.36193 9.36152 2.25 9.49959 2.25H11.4996C11.6377 2.25 11.7496 2.36193 11.7496 2.5ZM11.4996 3.5C11.4996 3.63807 11.3877 3.75 11.2496 3.75H9.74959C9.61152 3.75 9.49959 3.63807 9.49959 3.5C9.49959 3.36193 9.61152 3.25 9.74959 3.25H11.2496C11.3877 3.25 11.4996 3.36193 11.4996 3.5ZM12 4.5C12 4.63807 11.8881 4.75 11.75 4.75H9.25C9.11193 4.75 9 4.63807 9 4.5C9 4.36193 9.11193 4.25 9.25 4.25H11.75C11.8881 4.25 12 4.36193 12 4.5Z" fill="url(#paint2_linear_177_29865)"/>
<defs>
<linearGradient id="paint0_linear_177_29865" x1="7.5" y1="8" x2="7.5" y2="15" gradientUnits="userSpaceOnUse">
<stop stop-color="#10808C"/>
<stop offset="1" stop-color="#1DF7EF"/>
</linearGradient>
<linearGradient id="paint1_linear_177_29865" x1="10.5" y1="0" x2="10.5" y2="7" gradientUnits="userSpaceOnUse">
<stop stop-color="#FE5468"/>
<stop offset="1" stop-color="#FFDF27"/>
</linearGradient>
<linearGradient id="paint2_linear_177_29865" x1="10.5" y1="2.25" x2="10.5" y2="4.75" gradientUnits="userSpaceOnUse">
<stop stop-color="#10808C"/>
<stop offset="1" stop-color="#1DF7EF"/>
</linearGradient>
</defs>
</svg>
