<svg width="15" height="15" viewBox="0 0 15 15" fill="none" xmlns="http://www.w3.org/2000/svg">
<path d="M9.36458 2.41167C9.36458 2.05898 9.5078 1.72075 9.76273 1.47136C10.0177 1.22198 10.3634 1.08188 10.724 1.08188C11.0845 1.08188 11.4302 1.22198 11.6852 1.47136C11.9401 1.72075 12.0833 2.05898 12.0833 2.41167V12.1634C12.0833 12.5161 11.9401 12.8544 11.6852 13.1037C11.4302 13.3531 11.0845 13.4932 10.724 13.4932C10.3634 13.4932 10.0177 13.3531 9.76273 13.1037C9.5078 12.8544 9.36458 12.5161 9.36458 12.1634V11.9737C7.40527 10.8735 6.78328 10.4764 5.51725 10.1271L5.88428 12.5313C5.90893 12.6594 5.9044 12.7913 5.87103 12.9174C5.83765 13.0436 5.77624 13.161 5.69118 13.2614C5.60611 13.3617 5.49948 13.4424 5.37888 13.4978C5.25828 13.5532 5.12667 13.5819 4.99344 13.5819H4.49681C4.32066 13.5819 4.14832 13.5316 4.00089 13.4373C3.85346 13.343 3.73733 13.2087 3.66669 13.0508L1.99012 9.95688C1.92911 9.9559 1.86808 9.95502 1.80706 9.95422C1.32708 9.94956 0.868296 9.76012 0.53007 9.42693C0.191845 9.09375 0.00140636 8.64363 0 8.17408V6.40103C0.00161746 5.93143 0.191735 5.48124 0.529398 5.14745C0.86706 4.81365 1.32525 4.62296 1.80525 4.61645C2.55565 4.6065 3.30582 4.58433 4.05547 4.54996C5.88428 4.54996 7.21043 3.7973 9.36458 2.6005V2.41167ZM10.2708 2.41167V12.1634C10.2708 12.281 10.3186 12.3937 10.4036 12.4769C10.4885 12.56 10.6038 12.6067 10.724 12.6067C10.8441 12.6067 10.9594 12.56 11.0444 12.4769C11.1293 12.3937 11.1771 12.281 11.1771 12.1634V2.41167C11.1771 2.29411 11.1293 2.18136 11.0444 2.09823C10.9594 2.0151 10.8441 1.9684 10.724 1.9684C10.6038 1.9684 10.4885 2.0151 10.4036 2.09823C10.3186 2.18136 10.2708 2.29411 10.2708 2.41167ZM9.36458 3.60847C7.24033 4.67674 6.13169 5.37798 4.53125 5.41078V9.16344C4.69438 9.1723 4.85659 9.18294 5.01791 9.19535C6.41625 9.49943 7.21677 9.85493 9.36458 10.9622V3.60847ZM3.625 9.11823V5.45688C3.02343 5.47841 2.42165 5.49378 1.81975 5.50298C1.57757 5.50576 1.34619 5.60141 1.17536 5.76935C1.00453 5.93729 0.907895 6.16411 0.90625 6.40103V8.17408C0.90625 8.66167 1.31225 9.06238 1.81794 9.06858C2.42053 9.07541 3.02297 9.09196 3.625 9.11823ZM3.02959 9.98259L4.48775 12.675L4.49681 12.6962H4.99344L4.99162 12.6838L4.59016 10.0544C4.0703 10.0237 3.55007 9.99948 3.02959 9.9817V9.98259Z" fill="url(#paint0_linear_22419_49245)"/>
<path d="M13.1248 3.91193L14.0278 3.38938C14.227 3.27412 14.4819 3.34215 14.5971 3.54133C14.7124 3.7405 14.6444 3.9954 14.4452 4.11065L13.5422 4.6332C13.343 4.74846 13.0881 4.68043 12.9729 4.48126C12.8576 4.28209 12.9256 4.02719 13.1248 3.91193Z" fill="url(#paint1_linear_22419_49245)"/>
<path d="M13.1248 10.7774L14.0278 11.3C14.227 11.4152 14.4819 11.3472 14.5971 11.148C14.7124 10.9488 14.6444 10.6939 14.4452 10.5787L13.5422 10.0561C13.343 9.94088 13.0881 10.0089 12.9729 10.2081C12.8576 10.4073 12.9256 10.6622 13.1248 10.7774Z" fill="url(#paint2_linear_22419_49245)"/>
<path d="M13.3334 7.91669H14.1667C14.3968 7.91669 14.5834 8.10323 14.5834 8.33335C14.5834 8.56347 14.3968 8.75002 14.1667 8.75002H13.3334C13.1032 8.75002 12.9167 8.56347 12.9167 8.33335C12.9167 8.10323 13.1032 7.91669 13.3334 7.91669Z" fill="url(#paint3_linear_22419_49245)"/>
<path d="M13.3334 5.83335H14.1667C14.3968 5.83335 14.5834 6.0199 14.5834 6.25002C14.5834 6.48014 14.3968 6.66669 14.1667 6.66669H13.3334C13.1032 6.66669 12.9167 6.48014 12.9167 6.25002C12.9167 6.0199 13.1032 5.83335 13.3334 5.83335Z" fill="url(#paint4_linear_22419_49245)"/>
<defs>
<linearGradient id="paint0_linear_22419_49245" x1="6.04167" y1="1.08188" x2="6.04167" y2="13.5819" gradientUnits="userSpaceOnUse">
<stop stop-color="#10808C"/>
<stop offset="1" stop-color="#1DF7EF"/>
</linearGradient>
<linearGradient id="paint1_linear_22419_49245" x1="13.785" y1="3.33328" x2="13.785" y2="11.3561" gradientUnits="userSpaceOnUse">
<stop stop-color="#FE5468"/>
<stop offset="1" stop-color="#FFDF27"/>
</linearGradient>
<linearGradient id="paint2_linear_22419_49245" x1="13.785" y1="3.33328" x2="13.785" y2="11.3561" gradientUnits="userSpaceOnUse">
<stop stop-color="#FE5468"/>
<stop offset="1" stop-color="#FFDF27"/>
</linearGradient>
<linearGradient id="paint3_linear_22419_49245" x1="13.785" y1="3.33328" x2="13.785" y2="11.3561" gradientUnits="userSpaceOnUse">
<stop stop-color="#FE5468"/>
<stop offset="1" stop-color="#FFDF27"/>
</linearGradient>
<linearGradient id="paint4_linear_22419_49245" x1="13.785" y1="3.33328" x2="13.785" y2="11.3561" gradientUnits="userSpaceOnUse">
<stop stop-color="#FE5468"/>
<stop offset="1" stop-color="#FFDF27"/>
</linearGradient>
</defs>
</svg>
