<svg width="24" height="25" viewBox="0 0 24 25" fill="none" xmlns="http://www.w3.org/2000/svg">
  <path fill-rule="evenodd" clip-rule="evenodd"
    d="M0.00439791 6.75969C-0.0847257 5.17028 1.1921 3.83301 2.7988 3.83301H21.2012C22.8079 3.83301 24.0847 5.17028 23.9956 6.75969L23.4645 16.2317C23.401 17.3636 22.4156 18.2255 21.274 18.1475L12.285 17.5333C12.2334 17.5298 12.1827 17.5476 12.1449 17.5826L7.92683 21.483C7.12405 22.2254 5.81117 21.7145 5.73293 20.6292L5.52878 17.7976C5.52101 17.6898 5.42206 17.6116 5.3143 17.628L2.88948 17.9976C1.6914 18.1802 0.595415 17.2998 0.528175 16.1006L0.00439791 6.75969ZM2.7988 4.94216C1.83478 4.94216 1.06868 5.74452 1.12216 6.69816L1.64594 16.0391C1.6765 16.5842 2.17468 16.9844 2.71926 16.9014L5.14408 16.5318C5.89837 16.4168 6.59105 16.9643 6.64542 17.7185L6.84957 20.5502C6.86074 20.7053 7.0483 20.7782 7.16298 20.6722L11.381 16.7717C11.6456 16.527 12.0009 16.4021 12.362 16.4268L21.3511 17.041C21.8699 17.0764 22.3179 16.6847 22.3467 16.1702L22.8778 6.69816C22.9313 5.74452 22.1652 4.94216 21.2012 4.94216H2.7988Z"
    fill="url(#paint0_linear_15032_54407)" />
  <path fill-rule="evenodd" clip-rule="evenodd"
    d="M18.1905 7C18.3355 7 18.4679 7.08223 18.5321 7.21213L19.6207 9.4154L22.0551 9.77089C22.1985 9.79184 22.3177 9.89232 22.3624 10.0301C22.4071 10.1679 22.3696 10.3191 22.2658 10.4201L20.5046 12.1339L20.9202 14.5551C20.9447 14.6979 20.886 14.8422 20.7687 14.9273C20.6513 15.0125 20.4958 15.0237 20.3674 14.9563L18.1905 13.8125L16.0135 14.9563C15.8852 15.0237 15.7296 15.0125 15.6123 14.9273C15.495 14.8422 15.4362 14.6979 15.4607 14.5551L15.8764 12.1339L14.1152 10.4201C14.0113 10.3191 13.9739 10.1679 14.0186 10.0301C14.0633 9.89232 14.1824 9.79184 14.3259 9.77089L16.7603 9.4154L17.8489 7.21213C17.9131 7.08223 18.0455 7 18.1905 7ZM18.1905 8.24044L17.3549 9.93154C17.2995 10.0438 17.1924 10.1216 17.0684 10.1397L15.1994 10.4126L16.5515 11.7283C16.6414 11.8157 16.6824 11.9418 16.6612 12.0653L16.3422 13.9236L18.0132 13.0456C18.1242 12.9873 18.2568 12.9873 18.3678 13.0456L20.0388 13.9236L19.7198 12.0653C19.6986 11.9418 19.7396 11.8157 19.8294 11.7283L21.1815 10.4126L19.3125 10.1397C19.1886 10.1216 19.0815 10.0438 19.026 9.93154L18.1905 8.24044Z"
    fill="url(#paint1_linear_15032_54407)" />
  <path fill-rule="evenodd" clip-rule="evenodd"
    d="M10.619 8.5C10.7097 8.5 10.7924 8.5514 10.8325 8.63258L11.5129 10.0096L13.0344 10.2318C13.1241 10.2449 13.1985 10.3077 13.2265 10.3938C13.2544 10.4799 13.231 10.5744 13.1661 10.6376L12.0654 11.7087L12.3251 13.2219C12.3405 13.3112 12.3037 13.4014 12.2304 13.4546C12.1571 13.5078 12.0599 13.5148 11.9797 13.4727L10.619 12.7578L9.25844 13.4727C9.17823 13.5148 9.08101 13.5078 9.00769 13.4546C8.93436 13.4014 8.89763 13.3112 8.91295 13.2219L9.17274 11.7087L8.07198 10.6376C8.00707 10.5744 7.98367 10.4799 8.01161 10.3938C8.03956 10.3077 8.11401 10.2449 8.20367 10.2318L9.72518 10.0096L10.4055 8.63258C10.4457 8.5514 10.5284 8.5 10.619 8.5Z"
    fill="url(#paint2_linear_15032_54407)" />
  <path fill-rule="evenodd" clip-rule="evenodd"
    d="M4.61905 8.5C4.70967 8.5 4.79244 8.5514 4.83255 8.63258L5.51292 10.0096L7.03443 10.2318C7.12409 10.2449 7.19853 10.3077 7.22648 10.3938C7.25443 10.4799 7.23103 10.5744 7.16612 10.6376L6.06536 11.7087L6.32514 13.2219C6.34046 13.3112 6.30374 13.4014 6.23041 13.4546C6.15708 13.5078 6.05987 13.5148 5.97965 13.4727L4.61905 12.7578L3.25844 13.4727C3.17823 13.5148 3.08101 13.5078 3.00769 13.4546C2.93436 13.4014 2.89763 13.3112 2.91295 13.2219L3.17274 11.7087L2.07198 10.6376C2.00707 10.5744 1.98367 10.4799 2.01161 10.3938C2.03956 10.3077 2.11401 10.2449 2.20367 10.2318L3.72518 10.0096L4.40555 8.63258C4.44566 8.5514 4.52842 8.5 4.61905 8.5Z"
    fill="url(#paint3_linear_15032_54407)" />
  <defs>
    <linearGradient id="paint0_linear_15032_54407" x1="12" y1="3.83301" x2="12" y2="21.833"
      gradientUnits="userSpaceOnUse">
      <stop stop-color="#10808C" />
      <stop offset="1" stop-color="#1DF7EF" />
    </linearGradient>
    <linearGradient id="paint1_linear_15032_54407" x1="18.1905" y1="7" x2="23.4966" y2="14.8152"
      gradientUnits="userSpaceOnUse">
      <stop stop-color="#FE5468" />
      <stop offset="1" stop-color="#FFDF27" />
    </linearGradient>
    <linearGradient id="paint2_linear_15032_54407" x1="10.619" y1="8.5" x2="13.9354" y2="13.3845"
      gradientUnits="userSpaceOnUse">
      <stop stop-color="#FE5468" />
      <stop offset="1" stop-color="#FFDF27" />
    </linearGradient>
    <linearGradient id="paint3_linear_15032_54407" x1="4.61905" y1="8.5" x2="7.9354" y2="13.3845"
      gradientUnits="userSpaceOnUse">
      <stop stop-color="#FE5468" />
      <stop offset="1" stop-color="#FFDF27" />
    </linearGradient>
  </defs>
</svg>
  