<svg width="15" height="15" viewBox="0 0 15 15" fill="none" xmlns="http://www.w3.org/2000/svg">
<g clip-path="url(#clip0_3009_21548)">
<path d="M7.5 0C7.07362 0 6.75 0.361871 6.75 0.788252V2.30317C6.99495 2.26813 7.24536 2.25 7.5 2.25C7.75464 2.25 8.00505 2.26813 8.25 2.30317V0.788251C8.25 0.36187 7.92638 0 7.5 0Z" fill="url(#paint0_linear_3009_21548)"/>
<path d="M3.28521 2.22346C2.98368 1.92192 2.49887 1.8946 2.1973 2.19609C1.8957 2.49763 1.92297 2.98253 2.22454 3.2841L3.29567 4.35526C3.59686 3.95324 3.95436 3.59583 4.35648 3.29476L3.28521 2.22346Z" fill="url(#paint1_linear_3009_21548)"/>
<path d="M0.788251 8.25C0.36187 8.25 0 7.92638 0 7.5C0 7.07362 0.361871 6.75 0.788252 6.75H2.30317C2.26813 6.99495 2.25 7.24536 2.25 7.5C2.25 7.75464 2.26813 8.00505 2.30317 8.25H0.788251Z" fill="url(#paint2_linear_3009_21548)"/>
<path d="M2.22432 11.7157C1.92276 12.0172 1.89548 12.5021 2.19706 12.8037C2.49863 13.1052 2.98346 13.0779 3.285 12.7763L4.35623 11.7051C3.95413 11.404 3.59665 11.0465 3.29548 10.6445L2.22432 11.7157Z" fill="url(#paint3_linear_3009_21548)"/>
<path d="M8.25 14.2117C8.25 14.6381 7.92638 15 7.5 15C7.07362 15 6.75 14.6381 6.75 14.2117V12.6968C6.99495 12.7319 7.24536 12.75 7.5 12.75C7.75464 12.75 8.00505 12.7319 8.25 12.6968V14.2117Z" fill="url(#paint4_linear_3009_21548)"/>
<path d="M11.7157 12.7756C12.0173 13.0772 12.5022 13.1045 12.8037 12.8029C13.1053 12.5013 13.0779 12.0165 12.7764 11.7149L11.7051 10.6437C11.4041 11.0458 11.0466 11.4033 10.6446 11.7044L11.7157 12.7756Z" fill="url(#paint5_linear_3009_21548)"/>
<path d="M14.2117 6.75C14.6381 6.75 15 7.07362 15 7.5C15 7.92638 14.6381 8.25 14.2117 8.25H12.6968C12.7319 8.00505 12.75 7.75464 12.75 7.5C12.75 7.24536 12.7319 6.99495 12.6968 6.75H14.2117Z" fill="url(#paint6_linear_3009_21548)"/>
<path d="M12.7762 3.28484C13.0777 2.98329 13.105 2.49846 12.8035 2.1969C12.502 1.89533 12.0171 1.92262 11.7155 2.22419L10.6444 3.29538C11.0464 3.59654 11.4038 3.95401 11.705 4.3561L12.7762 3.28484Z" fill="url(#paint7_linear_3009_21548)"/>
<path d="M7.5 11.25C9.57107 11.25 11.25 9.57107 11.25 7.5C11.25 5.42893 9.57107 3.75 7.5 3.75C5.42893 3.75 3.75 5.42893 3.75 7.5C3.75 9.57107 5.42893 11.25 7.5 11.25Z" fill="url(#paint8_linear_3009_21548)"/>
</g>
<defs>
<linearGradient id="paint0_linear_3009_21548" x1="7.5" y1="0" x2="7.5" y2="15" gradientUnits="userSpaceOnUse">
<stop stop-color="#FE5468"/>
<stop offset="1" stop-color="#FFDF27"/>
</linearGradient>
<linearGradient id="paint1_linear_3009_21548" x1="7.5" y1="0" x2="7.5" y2="15" gradientUnits="userSpaceOnUse">
<stop stop-color="#FE5468"/>
<stop offset="1" stop-color="#FFDF27"/>
</linearGradient>
<linearGradient id="paint2_linear_3009_21548" x1="7.5" y1="0" x2="7.5" y2="15" gradientUnits="userSpaceOnUse">
<stop stop-color="#FE5468"/>
<stop offset="1" stop-color="#FFDF27"/>
</linearGradient>
<linearGradient id="paint3_linear_3009_21548" x1="7.5" y1="0" x2="7.5" y2="15" gradientUnits="userSpaceOnUse">
<stop stop-color="#FE5468"/>
<stop offset="1" stop-color="#FFDF27"/>
</linearGradient>
<linearGradient id="paint4_linear_3009_21548" x1="7.5" y1="0" x2="7.5" y2="15" gradientUnits="userSpaceOnUse">
<stop stop-color="#FE5468"/>
<stop offset="1" stop-color="#FFDF27"/>
</linearGradient>
<linearGradient id="paint5_linear_3009_21548" x1="7.5" y1="0" x2="7.5" y2="15" gradientUnits="userSpaceOnUse">
<stop stop-color="#FE5468"/>
<stop offset="1" stop-color="#FFDF27"/>
</linearGradient>
<linearGradient id="paint6_linear_3009_21548" x1="7.5" y1="0" x2="7.5" y2="15" gradientUnits="userSpaceOnUse">
<stop stop-color="#FE5468"/>
<stop offset="1" stop-color="#FFDF27"/>
</linearGradient>
<linearGradient id="paint7_linear_3009_21548" x1="7.5" y1="0" x2="7.5" y2="15" gradientUnits="userSpaceOnUse">
<stop stop-color="#FE5468"/>
<stop offset="1" stop-color="#FFDF27"/>
</linearGradient>
<linearGradient id="paint8_linear_3009_21548" x1="7.5" y1="0" x2="7.5" y2="15" gradientUnits="userSpaceOnUse">
<stop stop-color="#FE5468"/>
<stop offset="1" stop-color="#FFDF27"/>
</linearGradient>
<clipPath id="clip0_3009_21548">
<rect width="15" height="15" fill="white"/>
</clipPath>
</defs>
</svg>
