<svg width="24" height="24" viewBox="0 0 24 24" fill="none" xmlns="http://www.w3.org/2000/svg">
<path d="M4.80004 11.8252H6.96359C7.84062 11.8252 8.31972 10.8023 7.75827 10.1285L4.79467 6.5722C4.38111 6.07593 3.61889 6.07593 3.20533 6.5722L0.241735 10.1285C-0.319724 10.8023 0.159379 11.8252 1.03641 11.8252H3.20004C3.21361 16.6737 7.14829 20.6 12 20.6V19C8.03194 19 4.81361 15.79 4.80004 11.8252Z" fill="url(#paint0_linear_3218_88093)"/>
<path d="M19.2 11.7748C19.1864 7.80996 15.9681 4.6 12 4.6V3C16.8517 3 20.7864 6.9263 20.8 11.7748H22.9636C23.8406 11.7748 24.3197 12.7977 23.7583 13.4715L20.7947 17.0278C20.3811 17.5241 19.6189 17.5241 19.2053 17.0278L16.2417 13.4715C15.6803 12.7977 16.1594 11.7748 17.0364 11.7748H19.2Z" fill="url(#paint1_linear_3218_88093)"/>
<path fill-rule="evenodd" clip-rule="evenodd" d="M13.2649 7.68188C13.5477 6.3626 15.236 5.96404 16.0788 7.01761L18.2253 9.70066C18.5013 10.0457 18.4453 10.5491 18.1003 10.8251C17.7553 11.1011 17.2519 11.0452 16.9759 10.7002L15.3562 8.6756C15.1455 8.41221 14.7234 8.51185 14.6527 8.84167L13.2213 15.5217C12.9136 16.9575 10.9962 17.2552 10.2676 15.9803L9.21842 14.1441C9.05992 13.8667 8.65623 13.8779 8.51336 14.1637L7.91611 15.3582C7.71852 15.7534 7.23798 15.9135 6.84279 15.716C6.44761 15.5184 6.28743 15.0378 6.48502 14.6426L7.41652 12.7796C7.98802 11.6366 9.60277 11.5918 10.2368 12.7014L11.1377 14.2779C11.3198 14.5966 11.7992 14.5222 11.8761 14.1632L13.2649 7.68188Z" fill="url(#paint2_linear_3218_88093)"/>
<defs>
<linearGradient id="paint0_linear_3218_88093" x1="12" y1="3" x2="12" y2="20.6" gradientUnits="userSpaceOnUse">
<stop stop-color="#FE5468"/>
<stop offset="1" stop-color="#FFDF27"/>
</linearGradient>
<linearGradient id="paint1_linear_3218_88093" x1="12" y1="3" x2="12" y2="20.6" gradientUnits="userSpaceOnUse">
<stop stop-color="#FE5468"/>
<stop offset="1" stop-color="#FFDF27"/>
</linearGradient>
<linearGradient id="paint2_linear_3218_88093" x1="12.4005" y1="6.41602" x2="12.4005" y2="16.7871" gradientUnits="userSpaceOnUse">
<stop stop-color="#10808C"/>
<stop offset="1" stop-color="#1DF7EF"/>
</linearGradient>
</defs>
</svg>
