<svg width="24" height="24" viewBox="0 0 24 24" fill="none" xmlns="http://www.w3.org/2000/svg">
<g clip-path="url(#clip0_3218_87061)">
<path fill-rule="evenodd" clip-rule="evenodd" d="M23.0017 12.3272C22.9995 12.4015 22.8982 12.4212 22.869 12.3526C22.8565 12.3231 22.8436 12.2934 22.8306 12.2637C22.8067 12.2094 22.8134 12.1463 22.849 12.0988C22.8564 12.0891 22.8714 12.0694 22.8893 12.046C22.9374 11.9831 23.0068 11.9925 23.0068 12.0623C23.0068 12.154 23.0046 12.2333 23.0017 12.3272ZM22.469 10.8724C22.387 11.0201 22.1767 11.0269 22.0856 10.8845C22.0714 10.8624 22.0572 10.8404 22.0428 10.8183C21.7145 10.3142 21.3367 9.81938 20.9147 9.33848C20.8111 9.22042 20.8958 9.03512 21.053 9.03501H21.0568C22.0428 9.03501 22.5598 9.27859 22.7176 9.57602C22.8492 9.82478 22.8089 10.2598 22.469 10.8724ZM22.2486 16.0291C22.1958 16.1637 22.1404 16.2974 22.0822 16.4298C22.0732 16.4481 22.0646 16.4665 22.0552 16.4846C21.6923 17.1832 21.0833 17.7333 20.2695 18.1161C20.0869 18.2019 19.8871 18.0348 19.9415 17.8406C20.2117 16.8734 20.4162 15.8245 20.5488 14.7249C20.5735 14.5198 20.6746 14.3316 20.8309 14.1965C21.1655 13.9069 21.4781 13.6178 21.7656 13.3307L21.7687 13.3275C21.9102 13.1863 22.1515 13.2471 22.2091 13.4385C22.4932 14.3828 22.509 15.2622 22.2486 16.0291ZM20.0365 19.521C19.9537 19.6095 19.8692 19.6969 19.7831 19.7831C19.633 19.9329 19.4795 20.0778 19.3226 20.2178C19.2236 20.3059 19.0739 20.1956 19.1299 20.0754C19.1459 20.0411 19.1618 20.0066 19.1775 19.9717C19.2435 19.8263 19.3071 19.6772 19.3691 19.5252C19.3837 19.4894 19.4146 19.4626 19.4522 19.453C19.6082 19.4134 19.7604 19.3697 19.9086 19.3219C20.0287 19.2833 20.1228 19.4289 20.0365 19.521ZM18.4119 18.6479C18.0834 18.6955 17.7379 18.7263 17.3765 18.739C16.4947 18.7699 15.5622 18.6938 14.6044 18.5175C14.4877 18.496 14.4652 18.3381 14.5711 18.2846C14.78 18.1788 14.9891 18.0707 15.198 17.9599C16.6636 17.1831 18.0311 16.334 19.2281 15.4634C19.3179 15.3981 19.4416 15.4751 19.4234 15.5847C19.2574 16.5824 19.0275 17.5217 18.7388 18.3742C18.6896 18.5195 18.5638 18.6259 18.4119 18.6479ZM18.0731 19.9772C17.2874 21.5227 16.3196 22.3903 15.3816 22.3729C14.362 22.3547 13.3454 21.293 12.5925 19.4602L12.5917 19.4581C12.5439 19.3418 12.5988 19.2086 12.7141 19.1585C12.7221 19.155 12.73 19.1515 12.738 19.1479C12.7875 19.1265 12.8429 19.1226 12.8949 19.1373C14.3032 19.5325 15.6908 19.7387 16.9908 19.7387C17.1321 19.7387 17.2724 19.7363 17.4115 19.7315C17.5743 19.7256 17.7346 19.7165 17.8921 19.704C18.0381 19.6924 18.1396 19.8466 18.0731 19.9772ZM13.42 22.9161C12.9528 22.9761 12.4787 23.0069 11.9999 23.0069C9.8605 23.0069 7.81419 22.4006 6.05733 21.2693C5.93646 21.1913 5.98783 21.0038 6.13148 20.9972C6.16126 20.9958 6.18911 20.9943 6.2136 20.9928C6.66008 20.9637 7.14961 20.8983 7.68005 20.7961C8.80837 20.5791 10.0626 20.2068 11.3759 19.7054C11.4937 19.6605 11.6251 19.7188 11.673 19.8354L11.6739 19.8375C12.1829 21.0766 12.8093 22.0129 13.5126 22.6086C13.6288 22.7071 13.5711 22.8967 13.42 22.9161ZM7.05486 15.204C8.02475 14.4143 9.16117 13.6262 10.4078 12.8802C10.4345 14.4746 10.6094 16.0054 10.9188 17.3881C10.4564 17.1909 9.99551 16.9737 9.53857 16.7364C8.6535 16.2765 7.82078 15.7612 7.05486 15.204ZM4.03855 19.4762C3.80716 19.0397 4.10621 18.0285 5.62543 16.4915L5.62619 16.4908C5.78483 16.3305 5.76961 16.0675 5.59251 15.928C5.53165 15.8802 5.47121 15.8318 5.4112 15.7835C5.2599 15.6612 5.04092 15.6724 4.90354 15.81C4.87343 15.8401 4.85098 15.8628 4.8444 15.8696C4.08495 16.6491 3.55344 17.3707 3.25568 18.0197C3.17129 18.2036 2.91637 18.2235 2.80478 18.0547C1.62617 16.273 0.993097 14.1853 0.993097 11.9999C0.993097 11.2187 1.07425 10.4499 1.23214 9.70304C1.256 9.59005 1.4154 9.58282 1.44885 9.69333C1.67721 10.4473 2.0489 11.2271 2.5625 12.0157C3.25385 13.0774 4.16557 14.0981 5.24598 15.0343C5.61475 15.3538 6.00424 15.6629 6.41045 15.9611C7.2339 16.5654 8.12868 17.123 9.08066 17.6176C9.50263 17.8369 9.9136 18.0462 10.3345 18.2357C10.5688 18.3411 10.8355 18.3493 11.0746 18.2554C11.2731 18.1777 11.473 18.0969 11.674 18.0128C11.8927 17.9216 12.0113 17.6832 11.9533 17.4535C11.9461 17.4247 11.9404 17.4017 11.9371 17.3881C11.6057 15.9933 11.4215 14.4231 11.3998 12.7785L11.3991 12.7788C11.3989 12.7593 11.399 12.7394 11.3988 12.7197C11.3978 12.6298 11.3984 12.5392 11.3968 12.4495C11.3962 12.4209 11.3971 12.3725 11.3974 12.3438C11.3976 12.3323 11.3974 12.321 11.3974 12.3097C11.398 12.2067 11.3991 12.1038 11.401 12.0005C11.4061 11.7184 11.4162 11.4383 11.4308 11.1605C11.533 9.17595 11.8689 7.31149 12.4043 5.74285C12.4539 5.59769 12.3765 5.44013 12.2313 5.39059C12.0898 5.34224 11.9485 5.29605 11.8073 5.2518C11.6645 5.20702 11.5119 5.28407 11.4637 5.42577C10.8834 7.12932 10.5253 9.15038 10.4298 11.2891C10.4176 11.5604 10.27 11.8073 10.0363 11.9458C8.76963 12.6965 7.60634 13.4923 6.60137 14.2945C6.392 14.4616 6.09295 14.4553 5.89049 14.2797C4.88325 13.4064 4.03552 12.4579 3.39468 11.4737C2.13534 9.53997 1.83608 7.71825 2.55225 6.34505C2.55419 6.34182 2.55591 6.33847 2.55775 6.33534C2.64905 6.18382 2.74402 6.03435 2.84288 5.88692C3.66578 4.79767 5.19741 4.16643 7.22872 4.0951C7.35725 4.09056 7.48665 4.0883 7.61724 4.0883C8.8632 4.0883 10.2003 4.29389 11.5603 4.68629C11.5901 4.69493 11.6202 4.70356 11.65 4.7123C11.6729 4.7191 11.6959 4.72547 11.7189 4.73238C12.0332 4.82627 12.3483 4.93041 12.6639 5.04395C12.6712 5.04654 12.6787 5.04923 12.686 5.05182C12.7682 5.0815 12.8504 5.11194 12.9325 5.14291C12.9582 5.15262 12.984 5.16244 13.0097 5.17237C13.0344 5.18187 13.0591 5.19104 13.0839 5.20065C13.7481 5.45772 14.4114 5.75709 15.0667 6.0977C16.3351 6.75667 17.4961 7.52917 18.5065 8.37668C16.5782 8.81841 14.3369 9.67056 12.0834 10.8195C11.9794 10.8726 11.911 10.9771 11.9044 11.0936C11.8966 11.2333 11.8862 11.5141 11.8787 11.7373C11.8741 11.8773 12.0223 11.9702 12.1464 11.905L12.1477 11.9042C14.3789 10.7326 16.6056 9.85694 18.5179 9.39417C18.8753 9.30773 19.1067 8.96443 19.0565 8.60019C19.0213 8.34571 18.9817 8.09522 18.9379 7.84916C18.8829 7.54007 18.7137 7.26368 18.4639 7.07353C17.5683 6.39124 16.5812 5.7654 15.5246 5.2163C14.8125 4.84634 14.09 4.52214 13.3659 4.24565C13.211 4.18651 13.1447 4.00347 13.2255 3.85875C13.9715 2.52429 14.8587 1.77693 15.723 1.77693C15.732 1.77693 15.741 1.77693 15.7499 1.77715C16.7694 1.79539 17.7861 2.85702 18.5389 4.68985C18.92 5.61766 19.2153 6.6876 19.4171 7.85035C19.416 7.84938 19.4149 7.84851 19.414 7.84754C19.5001 8.34377 19.5695 8.85661 19.621 9.38273C19.6165 9.38554 19.6118 9.38802 19.6074 9.39083C19.6134 9.39698 19.6198 9.40313 19.6259 9.40939C19.7113 10.2922 19.7473 11.2115 19.7305 12.1495C19.7199 12.7429 19.6883 13.328 19.6371 13.9006C18.2731 15.0029 16.5866 16.0999 14.7329 17.0823C14.1236 17.4052 13.5145 17.7058 12.9113 17.9825C12.902 17.9868 12.8927 17.991 12.8833 17.9953C12.8372 18.0164 12.791 18.0377 12.7449 18.0586L12.7439 18.0583C12.2441 18.2843 11.749 18.4935 11.2622 18.6845C11.2347 18.6953 11.2076 18.7061 11.1802 18.7168C11.146 18.7302 11.1117 18.7433 11.0776 18.7565C10.9959 18.7878 10.9146 18.8187 10.8334 18.849C10.8111 18.8573 10.7886 18.866 10.7663 18.8742C10.6678 18.9108 10.5698 18.9463 10.4721 18.9813C10.4599 18.9856 10.4477 18.9903 10.4356 18.9946C9.39234 19.3662 8.39805 19.6466 7.49237 19.8209C5.30382 20.2423 4.27328 19.919 4.03855 19.4762ZM5.61043 3.0353C7.4628 1.70884 9.67628 0.993097 11.9999 0.993097C12.6133 0.993097 13.2187 1.04328 13.812 1.14117C13.9708 1.16739 14.0241 1.37018 13.8974 1.46957C13.3225 1.92025 12.7884 2.5871 12.3157 3.45188C12.2004 3.66287 11.9557 3.76604 11.7243 3.70086C10.1583 3.26 8.61746 3.05257 7.19386 3.10254C6.66871 3.12099 6.17141 3.1742 5.70421 3.26032C5.57298 3.2845 5.50197 3.1129 5.61043 3.0353ZM20.7193 11.0571C20.716 10.931 20.8779 10.8771 20.9511 10.9799C21.041 11.106 21.1277 11.2328 21.2106 11.3603C21.3209 11.5297 21.4236 11.6982 21.519 11.8656C21.5784 11.9699 21.5642 12.1009 21.4833 12.1896C21.3547 12.3307 21.2153 12.4766 21.0639 12.6279C21.0086 12.6831 20.9523 12.7383 20.8949 12.7937C20.8236 12.8626 20.7042 12.8101 20.7081 12.711C20.7151 12.5305 20.7203 12.3493 20.7235 12.1672C20.7302 11.7942 20.7286 11.424 20.7193 11.0571ZM19.5778 4.01696C19.647 4.08258 19.7154 4.14927 19.7831 4.21694C20.8437 5.2776 21.6607 6.51697 22.207 7.86675C22.2621 8.00284 22.1466 8.1453 22.002 8.11929C21.6859 8.06252 21.3302 8.03716 20.9364 8.04374C20.6635 8.04828 20.4263 7.85704 20.3784 7.58831C20.1643 6.38833 19.8549 5.27986 19.4576 4.31245C19.4349 4.2573 19.412 4.2028 19.3888 4.14884C19.3383 4.0311 19.4849 3.92868 19.5778 4.01696ZM23.7408 9.50414C23.2666 7.25106 22.1515 5.1809 20.4852 3.51459C18.2187 1.24812 15.2053 0 11.9999 0C8.79466 0 5.78116 1.24812 3.51469 3.51459C2.96343 4.06585 2.47314 4.66147 2.04566 5.29303C1.91853 5.46225 1.80467 5.64097 1.70344 5.828C0.593031 7.67314 0 9.791 0 11.9999C0 15.2053 1.24822 18.2187 3.51469 20.4852C5.78116 22.7517 8.79466 24 11.9999 24C15.2053 24 18.2187 22.7517 20.4852 20.4852C21.5549 19.4156 22.3975 18.1794 22.9893 16.8354C23.0616 16.6865 23.1248 16.534 23.179 16.3784C23.7178 15.0018 24 13.5226 24 11.9999C24 11.1618 23.9139 10.3372 23.7474 9.53522C23.7451 9.52486 23.743 9.5145 23.7408 9.50414Z" fill="url(#paint0_linear_3218_87061)"/>
</g>
<defs>
<linearGradient id="paint0_linear_3218_87061" x1="12" y1="0" x2="12" y2="24" gradientUnits="userSpaceOnUse">
<stop stop-color="#10808C"/>
<stop offset="1" stop-color="#1DF7EF"/>
</linearGradient>
<clipPath id="clip0_3218_87061">
<rect width="24" height="24" fill="white"/>
</clipPath>
</defs>
</svg>
