<svg width="15" height="15" viewBox="0 0 15 15" fill="none" xmlns="http://www.w3.org/2000/svg">
<g clip-path="url(#clip0_177_31130)">
<circle cx="7.5" cy="7.5" r="1.25" fill="url(#paint0_linear_177_31130)"/>
<path fill-rule="evenodd" clip-rule="evenodd" d="M7.5 14.0625C11.1244 14.0625 14.0625 11.1244 14.0625 7.5C14.0625 3.87563 11.1244 0.9375 7.5 0.9375C3.87563 0.9375 0.9375 3.87563 0.9375 7.5C0.9375 11.1244 3.87563 14.0625 7.5 14.0625ZM7.5 15C11.6421 15 15 11.6421 15 7.5C15 3.35786 11.6421 0 7.5 0C3.35786 0 0 3.35786 0 7.5C0 11.6421 3.35786 15 7.5 15Z" fill="url(#paint1_linear_177_31130)"/>
<path d="M7.54153 2.08331C4.52708 2.08331 2.08331 4.50844 2.08331 7.49998C2.08331 10.4915 4.52701 12.9166 7.54146 12.9166C9.43569 12.9166 11.1046 11.9591 12.0833 10.5051L11.3846 10.0428C10.5564 11.273 9.14426 12.0833 7.54146 12.0833C4.99077 12.0833 2.92303 10.0313 2.92303 7.49998C2.92303 4.96867 4.99077 2.91665 7.54146 2.91665L7.54153 2.08331Z" fill="url(#paint2_linear_177_31130)"/>
<path d="M7.54153 4.58331C5.91836 4.58331 4.60246 5.88915 4.60246 7.49998C4.60246 9.11081 5.9183 10.4166 7.54146 10.4166C8.56141 10.4166 9.46 9.90104 9.98704 9.11815L9.28828 8.65586C8.91182 9.21504 8.26998 9.58331 7.54146 9.58331C6.38206 9.58331 5.44217 8.65057 5.44217 7.49998C5.44217 6.34939 6.38206 5.41665 7.54146 5.41665L7.54153 4.58331Z" fill="url(#paint3_linear_177_31130)"/>
<path fill-rule="evenodd" clip-rule="evenodd" d="M11.6549 11.1493L6.66669 7.54626L7.28797 6.66669L12.2762 10.2697C12.5164 10.4432 12.572 10.7808 12.4004 11.0237C12.2289 11.2665 11.8951 11.3228 11.6549 11.1493Z" fill="url(#paint4_linear_177_31130)"/>
<path fill-rule="evenodd" clip-rule="evenodd" d="M10.8333 5.20831C11.1785 5.20831 11.4583 4.92849 11.4583 4.58331C11.4583 4.23814 11.1785 3.95831 10.8333 3.95831C10.4881 3.95831 10.2083 4.23814 10.2083 4.58331C10.2083 4.92849 10.4881 5.20831 10.8333 5.20831ZM10.8333 5.83331C11.5237 5.83331 12.0833 5.27367 12.0833 4.58331C12.0833 3.89296 11.5237 3.33331 10.8333 3.33331C10.143 3.33331 9.58331 3.89296 9.58331 4.58331C9.58331 5.27367 10.143 5.83331 10.8333 5.83331Z" fill="url(#paint5_linear_177_31130)"/>
<circle cx="3.33333" cy="5.00002" r="0.833333" fill="url(#paint6_linear_177_31130)"/>
</g>
<defs>
<linearGradient id="paint0_linear_177_31130" x1="7.5" y1="6.25" x2="7.5" y2="8.75" gradientUnits="userSpaceOnUse">
<stop stop-color="#10808C"/>
<stop offset="1" stop-color="#1DF7EF"/>
</linearGradient>
<linearGradient id="paint1_linear_177_31130" x1="7.5" y1="0" x2="7.5" y2="15" gradientUnits="userSpaceOnUse">
<stop stop-color="#10808C"/>
<stop offset="1" stop-color="#1DF7EF"/>
</linearGradient>
<linearGradient id="paint2_linear_177_31130" x1="7.08331" y1="2.08331" x2="7.08331" y2="12.9166" gradientUnits="userSpaceOnUse">
<stop stop-color="#10808C"/>
<stop offset="1" stop-color="#1DF7EF"/>
</linearGradient>
<linearGradient id="paint3_linear_177_31130" x1="7.08331" y1="2.08331" x2="7.08331" y2="12.9166" gradientUnits="userSpaceOnUse">
<stop stop-color="#10808C"/>
<stop offset="1" stop-color="#1DF7EF"/>
</linearGradient>
<linearGradient id="paint4_linear_177_31130" x1="9.58335" y1="6.66669" x2="9.58335" y2="11.25" gradientUnits="userSpaceOnUse">
<stop stop-color="#FE5468"/>
<stop offset="1" stop-color="#FFDF27"/>
</linearGradient>
<linearGradient id="paint5_linear_177_31130" x1="10.8333" y1="3.33331" x2="10.8333" y2="5.83331" gradientUnits="userSpaceOnUse">
<stop stop-color="#FE5468"/>
<stop offset="1" stop-color="#FFDF27"/>
</linearGradient>
<linearGradient id="paint6_linear_177_31130" x1="3.33333" y1="4.16669" x2="3.33333" y2="5.83335" gradientUnits="userSpaceOnUse">
<stop stop-color="#FE5468"/>
<stop offset="1" stop-color="#FFDF27"/>
</linearGradient>
<clipPath id="clip0_177_31130">
<rect width="15" height="15" fill="white"/>
</clipPath>
</defs>
</svg>
