<svg width="15" height="15" viewBox="0 0 15 15" fill="none" xmlns="http://www.w3.org/2000/svg">
<g clip-path="url(#clip0_7416_32488)">
<circle cx="7.5" cy="7.5" r="1.25" fill="url(#paint0_linear_7416_32488)"/>
<path fill-rule="evenodd" clip-rule="evenodd" d="M7.5 14.0625C11.1244 14.0625 14.0625 11.1244 14.0625 7.5C14.0625 3.87563 11.1244 0.9375 7.5 0.9375C3.87563 0.9375 0.9375 3.87563 0.9375 7.5C0.9375 11.1244 3.87563 14.0625 7.5 14.0625ZM7.5 15C11.6421 15 15 11.6421 15 7.5C15 3.35786 11.6421 0 7.5 0C3.35786 0 0 3.35786 0 7.5C0 11.6421 3.35786 15 7.5 15Z" fill="url(#paint1_linear_7416_32488)"/>
<path d="M7.54122 2.08301C4.52677 2.08301 2.08301 4.50813 2.08301 7.49967C2.08301 10.4912 4.5267 12.9163 7.54116 12.9163C9.43539 12.9163 11.1042 11.9587 12.083 10.5047L11.3842 10.0424C10.5561 11.2727 9.14396 12.083 7.54116 12.083C4.99047 12.083 2.92272 10.031 2.92272 7.49967C2.92272 4.96837 4.99047 2.91634 7.54116 2.91634L7.54122 2.08301Z" fill="url(#paint2_linear_7416_32488)"/>
<path d="M7.54122 4.58301C5.91806 4.58301 4.60215 5.88884 4.60215 7.49967C4.60215 9.11051 5.91799 10.4163 7.54116 10.4163C8.5611 10.4163 9.4597 9.90074 9.98673 9.11785L9.28797 8.65555C8.91152 9.21474 8.26967 9.58301 7.54116 9.58301C6.38175 9.58301 5.44187 8.65027 5.44187 7.49967C5.44187 6.34908 6.38175 5.41634 7.54116 5.41634L7.54122 4.58301Z" fill="url(#paint3_linear_7416_32488)"/>
<path fill-rule="evenodd" clip-rule="evenodd" d="M11.6552 11.1496L6.66699 7.54657L7.28828 6.66699L12.2765 10.27C12.5167 10.4435 12.5723 10.7811 12.4007 11.024C12.2292 11.2668 11.8954 11.3231 11.6552 11.1496Z" fill="url(#paint4_linear_7416_32488)"/>
<path fill-rule="evenodd" clip-rule="evenodd" d="M10.833 5.20801C11.1782 5.20801 11.458 4.92819 11.458 4.58301C11.458 4.23783 11.1782 3.95801 10.833 3.95801C10.4878 3.95801 10.208 4.23783 10.208 4.58301C10.208 4.92819 10.4878 5.20801 10.833 5.20801ZM10.833 5.83301C11.5234 5.83301 12.083 5.27336 12.083 4.58301C12.083 3.89265 11.5234 3.33301 10.833 3.33301C10.1427 3.33301 9.58301 3.89265 9.58301 4.58301C9.58301 5.27336 10.1427 5.83301 10.833 5.83301Z" fill="url(#paint5_linear_7416_32488)"/>
<circle cx="3.33333" cy="5.00033" r="0.833333" fill="url(#paint6_linear_7416_32488)"/>
</g>
<defs>
<linearGradient id="paint0_linear_7416_32488" x1="7.5" y1="6.25" x2="7.5" y2="8.75" gradientUnits="userSpaceOnUse">
<stop stop-color="#10808C"/>
<stop offset="1" stop-color="#1DF7EF"/>
</linearGradient>
<linearGradient id="paint1_linear_7416_32488" x1="7.5" y1="0" x2="7.5" y2="15" gradientUnits="userSpaceOnUse">
<stop stop-color="#10808C"/>
<stop offset="1" stop-color="#1DF7EF"/>
</linearGradient>
<linearGradient id="paint2_linear_7416_32488" x1="7.08301" y1="2.08301" x2="7.08301" y2="12.9163" gradientUnits="userSpaceOnUse">
<stop stop-color="#10808C"/>
<stop offset="1" stop-color="#1DF7EF"/>
</linearGradient>
<linearGradient id="paint3_linear_7416_32488" x1="7.08301" y1="2.08301" x2="7.08301" y2="12.9163" gradientUnits="userSpaceOnUse">
<stop stop-color="#10808C"/>
<stop offset="1" stop-color="#1DF7EF"/>
</linearGradient>
<linearGradient id="paint4_linear_7416_32488" x1="9.58366" y1="6.66699" x2="12.3694" y2="11.6516" gradientUnits="userSpaceOnUse">
<stop stop-color="#FE5468"/>
<stop offset="1" stop-color="#FFDF27"/>
</linearGradient>
<linearGradient id="paint5_linear_7416_32488" x1="10.833" y1="3.33301" x2="12.5183" y2="5.70235" gradientUnits="userSpaceOnUse">
<stop stop-color="#FE5468"/>
<stop offset="1" stop-color="#FFDF27"/>
</linearGradient>
<linearGradient id="paint6_linear_7416_32488" x1="3.33333" y1="4.16699" x2="4.45686" y2="5.74655" gradientUnits="userSpaceOnUse">
<stop stop-color="#FE5468"/>
<stop offset="1" stop-color="#FFDF27"/>
</linearGradient>
<clipPath id="clip0_7416_32488">
<rect width="15" height="15" fill="white"/>
</clipPath>
</defs>
</svg>
