<svg width="24" height="24" viewBox="0 0 24 24" fill="none" xmlns="http://www.w3.org/2000/svg">
<path fill-rule="evenodd" clip-rule="evenodd" d="M21 5.5H3C2.17157 5.5 1.5 6.17157 1.5 7V10H22.5V7C22.5 6.17157 21.8284 5.5 21 5.5ZM3 4C1.34315 4 0 5.34315 0 7V11.5H24V7C24 5.34315 22.6569 4 21 4H3Z" fill="url(#paint0_linear_3218_86673)"/>
<path fill-rule="evenodd" clip-rule="evenodd" d="M22.5 11.5H1.5V17C1.5 17.8284 2.17157 18.5 3 18.5H21C21.8284 18.5 22.5 17.8284 22.5 17V11.5ZM0 10V17C0 18.6569 1.34315 20 3 20H21C22.6569 20 24 18.6569 24 17V10H0Z" fill="url(#paint1_linear_3218_86673)"/>
<path fill-rule="evenodd" clip-rule="evenodd" d="M14 17H4V15.5H14V17Z" fill="url(#paint2_linear_3218_86673)"/>
<path fill-rule="evenodd" clip-rule="evenodd" d="M20 9H4V7H20V9Z" fill="url(#paint3_linear_3218_86673)"/>
<defs>
<linearGradient id="paint0_linear_3218_86673" x1="12" y1="4" x2="12" y2="11.5" gradientUnits="userSpaceOnUse">
<stop stop-color="#FE5468"/>
<stop offset="1" stop-color="#FFDF27"/>
</linearGradient>
<linearGradient id="paint1_linear_3218_86673" x1="12" y1="10" x2="12" y2="20" gradientUnits="userSpaceOnUse">
<stop stop-color="#FE5468"/>
<stop offset="1" stop-color="#FFDF27"/>
</linearGradient>
<linearGradient id="paint2_linear_3218_86673" x1="6.85714" y1="15" x2="8.60501" y2="18.1212" gradientUnits="userSpaceOnUse">
<stop stop-color="#10808C"/>
<stop offset="1" stop-color="#1DF7EF"/>
</linearGradient>
<linearGradient id="paint3_linear_3218_86673" x1="8.57143" y1="6.33333" x2="10.6663" y2="10.8224" gradientUnits="userSpaceOnUse">
<stop stop-color="#10808C"/>
<stop offset="1" stop-color="#1DF7EF"/>
</linearGradient>
</defs>
</svg>
