<svg width="15" height="15" viewBox="0 0 15 15" fill="none" xmlns="http://www.w3.org/2000/svg">
<g clip-path="url(#clip0_16908_65854)">
<path fill-rule="evenodd" clip-rule="evenodd" d="M7 6.33333C6.63181 6.33333 6.33333 6.63181 6.33333 7L6.33333 13C6.33333 13.3682 6.63181 13.6667 7 13.6667L13 13.6667C13.3682 13.6667 13.6667 13.3682 13.6667 13L13.6667 7C13.6667 6.63181 13.3682 6.33333 13 6.33333L7 6.33333ZM5 7C5 5.89543 5.89543 5 7 5L13 5C14.1046 5 15 5.89543 15 7L15 13C15 14.1046 14.1046 15 13 15L7 15C5.89543 15 5 14.1046 5 13L5 7Z" fill="url(#paint0_linear_16908_65854)"/>
<path fill-rule="evenodd" clip-rule="evenodd" d="M2 1.33333C1.82319 1.33333 1.65362 1.40357 1.5286 1.5286C1.40357 1.65362 1.33333 1.82319 1.33333 2L1.33333 8C1.33333 8.17681 1.40357 8.34638 1.5286 8.47141C1.65362 8.59643 1.82319 8.66667 2 8.66667H2.66667C3.03486 8.66667 3.33333 8.96514 3.33333 9.33333C3.33333 9.70152 3.03486 10 2.66667 10H2C1.46957 10 0.960859 9.78929 0.585786 9.41421C0.210714 9.03914 0 8.53043 0 8L0 2C0 1.46957 0.210714 0.960859 0.585786 0.585786C0.960859 0.210714 1.46957 0 2 0L8 0C8.53043 0 9.03914 0.210714 9.41421 0.585786C9.78929 0.960859 10 1.46957 10 2V2.66667C10 3.03486 9.70152 3.33333 9.33333 3.33333C8.96514 3.33333 8.66667 3.03486 8.66667 2.66667V2C8.66667 1.82319 8.59643 1.65362 8.47141 1.5286C8.34638 1.40357 8.17681 1.33333 8 1.33333L2 1.33333Z" fill="url(#paint1_linear_16908_65854)"/>
</g>
<defs>
<linearGradient id="paint0_linear_16908_65854" x1="10" y1="5" x2="10" y2="15" gradientUnits="userSpaceOnUse">
<stop stop-color="#10808C"/>
<stop offset="1" stop-color="#1DF7EF"/>
</linearGradient>
<linearGradient id="paint1_linear_16908_65854" x1="5" y1="0" x2="11.7412" y2="9.47737" gradientUnits="userSpaceOnUse">
<stop stop-color="#FE5468"/>
<stop offset="1" stop-color="#FFDF27"/>
</linearGradient>
<clipPath id="clip0_16908_65854">
<rect width="15" height="15" fill="white"/>
</clipPath>
</defs>
</svg>
