<svg width="24" height="24" viewBox="0 0 24 24" fill="none" xmlns="http://www.w3.org/2000/svg">
<path d="M10.5 2C9.94792 2 9.40556 2.13193 8.92725 2.38255L1.57905 6.20049L1.575 6.20262C1.09661 6.45375 0.699269 6.81486 0.422827 7.24971C0.146385 7.68455 0.000566581 8.17786 0 8.68013V16.3199C0.000566581 16.8221 0.146385 17.3154 0.422827 17.7503C0.699269 18.1851 1.09661 18.5462 1.575 18.7974L1.57905 18.7995L8.925 22.6163L8.92694 22.6173C9.40533 22.868 9.9478 23 10.5 23C11.0522 23 11.5947 22.868 12.0731 22.6173L12.075 22.6163L15.1039 21.0425C14.4299 20.7403 13.8313 20.3 13.344 19.7577L11.0291 20.9605L11.025 20.9626C10.8654 21.0464 10.6843 21.0905 10.5 21.0905C10.3157 21.0905 10.1346 21.0464 9.975 20.9626L2.625 17.1437L2.62334 17.1429C2.46462 17.0592 2.33277 16.9392 2.24094 16.7947C2.14887 16.6499 2.10027 16.4856 2.1 16.3183V8.68167C2.10027 8.51439 2.14887 8.35011 2.24094 8.20528C2.33277 8.06083 2.46462 7.94079 2.62334 7.85712L2.625 7.85625L9.97095 4.03948L9.975 4.03736C10.1346 3.95356 10.3157 3.90945 10.5 3.90945C10.6843 3.90945 10.8654 3.95357 11.025 4.03736L18.375 7.85625L18.3767 7.85712C18.5354 7.9408 18.6672 8.06083 18.7591 8.20528C18.8512 8.35023 18.8998 8.51466 18.9 8.68208V11.2643C19.7035 11.5301 20.421 11.9846 21 12.5755V8.68013C20.9994 8.17786 20.8536 7.68456 20.5772 7.24971C20.3007 6.81486 19.9034 6.45375 19.425 6.20261L12.075 2.38373L12.0728 2.38258C11.5945 2.13194 11.0521 2 10.5 2Z" fill="url(#paint0_linear_3218_87333)"/>
<path fill-rule="evenodd" clip-rule="evenodd" d="M0.145205 8.42505C0.443627 8.0182 1.10375 7.87917 1.61964 8.11452L10.5 12.1658L19.3804 8.11452C19.8962 7.87917 20.5564 8.0182 20.8548 8.42505C21.1532 8.8319 20.9769 9.35251 20.461 9.58785L11.0403 13.8856C10.7061 14.0381 10.2939 14.0381 9.95966 13.8856L0.538958 9.58785C0.0230725 9.35251 -0.153216 8.8319 0.145205 8.42505Z" fill="url(#paint1_linear_3218_87333)"/>
<path fill-rule="evenodd" clip-rule="evenodd" d="M10.5 13C11.3284 13 12 13.7143 12 14.4286V21.5714C12 22.2857 11.3284 23 10.5 23C9.67157 23 9 22.2857 9 21.5714V14.4286C9 13.7143 9.67157 13 10.5 13Z" fill="url(#paint2_linear_3218_87333)"/>
<path fill-rule="evenodd" clip-rule="evenodd" d="M17.5 18.5C18.6046 18.5 19.5 17.6046 19.5 16.5C19.5 15.3954 18.6046 14.5 17.5 14.5C16.3954 14.5 15.5 15.3954 15.5 16.5C15.5 17.6046 16.3954 18.5 17.5 18.5ZM17.5 20C19.433 20 21 18.433 21 16.5C21 14.567 19.433 13 17.5 13C15.567 13 14 14.567 14 16.5C14 18.433 15.567 20 17.5 20Z" fill="url(#paint3_linear_3218_87333)"/>
<path fill-rule="evenodd" clip-rule="evenodd" d="M18.5302 17.9698C18.8231 17.6769 19.298 17.6769 19.5909 17.9698L23.0302 21.4091C23.3231 21.702 23.3231 22.1769 23.0302 22.4698C22.7373 22.7627 22.2624 22.7627 21.9696 22.4698L18.5302 19.0304C18.2373 18.7376 18.2373 18.2627 18.5302 17.9698Z" fill="url(#paint4_linear_3218_87333)"/>
<defs>
<linearGradient id="paint0_linear_3218_87333" x1="10.5" y1="2" x2="10.5" y2="23" gradientUnits="userSpaceOnUse">
<stop stop-color="#10808C"/>
<stop offset="1" stop-color="#1DF7EF"/>
</linearGradient>
<linearGradient id="paint1_linear_3218_87333" x1="10.5" y1="8" x2="10.5" y2="14" gradientUnits="userSpaceOnUse">
<stop stop-color="#10808C"/>
<stop offset="1" stop-color="#1DF7EF"/>
</linearGradient>
<linearGradient id="paint2_linear_3218_87333" x1="10.5" y1="23" x2="10.5" y2="12.4444" gradientUnits="userSpaceOnUse">
<stop stop-color="#10808C"/>
<stop offset="1" stop-color="#1DF7EF"/>
</linearGradient>
<linearGradient id="paint3_linear_3218_87333" x1="17.5" y1="13" x2="17.5" y2="20" gradientUnits="userSpaceOnUse">
<stop stop-color="#FE5468"/>
<stop offset="1" stop-color="#FFDF27"/>
</linearGradient>
<linearGradient id="paint4_linear_3218_87333" x1="19.3749" y1="16.3751" x2="17.7877" y2="20.8322" gradientUnits="userSpaceOnUse">
<stop stop-color="#FE5468"/>
<stop offset="1" stop-color="#FFDF27"/>
</linearGradient>
</defs>
</svg>
