<svg width="15" height="15" viewBox="0 0 15 15" fill="none" xmlns="http://www.w3.org/2000/svg">
<path fill-rule="evenodd" clip-rule="evenodd" d="M7.10094 0.143623C7.33566 -0.0478745 7.66434 -0.0478745 7.89906 0.143623L13.7491 4.91635C13.9074 5.04553 14 5.24414 14 5.45455V12.9545C14 13.497 13.7946 14.0173 13.4289 14.4009C13.0632 14.7845 12.5672 15 12.05 15H2.95C2.43283 15 1.93684 14.7845 1.57114 14.4009C1.20545 14.0173 1 13.497 1 12.9545V5.45455C1 5.24414 1.09261 5.04553 1.25094 4.91635L7.10094 0.143623ZM2.3 5.78801V12.9545C2.3 13.1354 2.36848 13.3088 2.49038 13.4367C2.61228 13.5645 2.77761 13.6364 2.95 13.6364H12.05C12.2224 13.6364 12.3877 13.5645 12.5096 13.4367C12.6315 13.3088 12.7 13.1354 12.7 12.9545V5.78801L7.5 1.54559L2.3 5.78801Z" fill="url(#paint0_linear_177_31385)"/>
<path fill-rule="evenodd" clip-rule="evenodd" d="M5 7.66667C5 7.29848 5.27982 7 5.625 7H9.375C9.72018 7 10 7.29848 10 7.66667V14.3333C10 14.7015 9.72018 15 9.375 15C9.02982 15 8.75 14.7015 8.75 14.3333V8.33333H6.25V14.3333C6.25 14.7015 5.97018 15 5.625 15C5.27982 15 5 14.7015 5 14.3333V7.66667Z" fill="url(#paint1_linear_177_31385)"/>
<defs>
<linearGradient id="paint0_linear_177_31385" x1="7.5" y1="0" x2="7.5" y2="15" gradientUnits="userSpaceOnUse">
<stop stop-color="#FE5468"/>
<stop offset="1" stop-color="#FFDF27"/>
</linearGradient>
<linearGradient id="paint1_linear_177_31385" x1="7.5" y1="7" x2="7.5" y2="15" gradientUnits="userSpaceOnUse">
<stop stop-color="#10808C"/>
<stop offset="1" stop-color="#1DF7EF"/>
</linearGradient>
</defs>
</svg>
