<svg width="15" height="15" viewBox="0 0 15 15" fill="none" xmlns="http://www.w3.org/2000/svg">
<g clip-path="url(#clip0_6590_27427)">
<path fill-rule="evenodd" clip-rule="evenodd" d="M14.7256 14.8094C14.4715 15.0634 14.0597 15.0634 13.8057 14.8094L9.0625 10.0663C8.80848 9.81225 8.80848 9.40039 9.0625 9.14637L9.14637 9.0625C9.40039 8.80848 9.81225 8.80848 10.0663 9.0625L14.8094 13.8057C15.0634 14.0597 15.0634 14.4715 14.8094 14.7256L14.7256 14.8094Z" fill="url(#paint0_linear_6590_27427)"/>
<path fill-rule="evenodd" clip-rule="evenodd" d="M11.8751 5.93754C11.8751 9.21675 9.21675 11.8751 5.93754 11.8751C2.65833 11.8751 0 9.21675 0 5.93754C0 2.65833 2.65833 0 5.93754 0C9.21675 0 11.8751 2.65833 11.8751 5.93754ZM5.93754 10.2557C8.32242 10.2557 10.2557 8.32242 10.2557 5.93754C10.2557 3.55266 8.32242 1.61933 5.93754 1.61933C3.55266 1.61933 1.61933 3.55266 1.61933 5.93754C1.61933 8.32242 3.55266 10.2557 5.93754 10.2557Z" fill="url(#paint1_linear_6590_27427)"/>
<path d="M6.13306 3.50601C7.61964 3.50601 8.8065 4.68331 8.8065 6.1133C8.8065 6.87781 8.5944 7.19648 8.45002 7.3303C8.30698 7.46287 8.14839 7.49021 8.07791 7.49357C8.04084 7.41461 8.01024 7.27712 7.96502 7.0154C7.96125 6.99358 7.95742 6.97111 7.95349 6.94803C7.8711 6.46456 7.7434 5.71522 7.17034 5.14216C6.59004 4.56185 5.75415 4.44162 5.20833 4.36312C5.18078 4.35915 5.15396 4.3553 5.12794 4.35149C4.82026 4.30648 4.63518 4.2733 4.52125 4.22447C4.58424 4.08543 4.88353 3.50601 6.13306 3.50601Z" fill="url(#paint2_linear_6590_27427)" stroke="url(#paint3_linear_6590_27427)" stroke-width="1.01208"/>
</g>
<defs>
<linearGradient id="paint0_linear_6590_27427" x1="11.936" y1="8.87207" x2="16.0669" y2="14.6797" gradientUnits="userSpaceOnUse">
<stop stop-color="#FE5468"/>
<stop offset="1" stop-color="#FFDF27"/>
</linearGradient>
<linearGradient id="paint1_linear_6590_27427" x1="5.93754" y1="0" x2="13.9427" y2="11.2545" gradientUnits="userSpaceOnUse">
<stop stop-color="#FE5468"/>
<stop offset="1" stop-color="#FFDF27"/>
</linearGradient>
<linearGradient id="paint2_linear_6590_27427" x1="4" y1="5.49998" x2="9.31254" y2="5.49998" gradientUnits="userSpaceOnUse">
<stop stop-color="#10808C"/>
<stop offset="1" stop-color="#1DF7EF"/>
</linearGradient>
<linearGradient id="paint3_linear_6590_27427" x1="4" y1="5.49998" x2="9.31254" y2="5.49998" gradientUnits="userSpaceOnUse">
<stop stop-color="#10808C"/>
<stop offset="1" stop-color="#1DF7EF"/>
</linearGradient>
<clipPath id="clip0_6590_27427">
<rect width="15" height="15" fill="white"/>
</clipPath>
</defs>
</svg>
