<svg width="15" height="15" viewBox="0 0 15 15" fill="none" xmlns="http://www.w3.org/2000/svg">
<path fill-rule="evenodd" clip-rule="evenodd" d="M7.5 15C11.6421 15 15 11.6421 15 7.5C15 3.35786 11.6421 0 7.5 0C3.35786 0 0 3.35786 0 7.5C0 11.6421 3.35786 15 7.5 15ZM4.74834 3.5C4.43937 3.5 4.1889 3.75584 4.1889 4.07143C4.1889 4.38702 4.43937 4.64286 4.74834 4.64286H10.3427C10.6517 4.64286 10.9022 4.38702 10.9022 4.07143C10.9022 3.75584 10.6517 3.5 10.3427 3.5H4.74834ZM5.30778 6.92857C4.99881 6.92857 4.74834 7.18441 4.74834 7.5C4.74834 7.81559 4.99881 8.07143 5.30778 8.07143H9.78331C10.0923 8.07143 10.3427 7.81559 10.3427 7.5C10.3427 7.18441 10.0923 6.92857 9.78331 6.92857H5.30778ZM4.46862 10.3571C4.15965 10.3571 3.90918 10.613 3.90918 10.9286C3.90918 11.2442 4.15965 11.5 4.46862 11.5H10.6225C10.9314 11.5 11.1819 11.2442 11.1819 10.9286C11.1819 10.613 10.9314 10.3571 10.6225 10.3571H4.46862Z" fill="url(#paint0_linear_11107_37403)"/>
<defs>
<linearGradient id="paint0_linear_11107_37403" x1="7.5" y1="0" x2="17.6117" y2="14.2161" gradientUnits="userSpaceOnUse">
<stop stop-color="#FE5468"/>
<stop offset="1" stop-color="#FFDF27"/>
</linearGradient>
</defs>
</svg>
