<svg width="15" height="15" viewBox="0 0 15 15" fill="none" xmlns="http://www.w3.org/2000/svg">
<g clip-path="url(#clip0_10656_37831)">
<path d="M12 13.8071V15H8.2716V13.8071H9.57562V10.8201C9.52052 10.8989 9.43481 10.9811 9.31849 11.0665C9.20217 11.1454 9.07054 11.221 8.92361 11.2933C8.77668 11.3656 8.62975 11.4247 8.48281 11.4707C8.33588 11.5167 8.20426 11.5397 8.08793 11.5397V10.3074C8.19813 10.3074 8.32976 10.2713 8.48281 10.199C8.64199 10.1201 8.79811 10.0281 8.95116 9.92296C9.11034 9.8178 9.24502 9.71593 9.35522 9.61735C9.47154 9.5122 9.54501 9.43004 9.57562 9.37089H10.8337V13.8071H12Z" fill="url(#paint0_linear_10656_37831)"/>
<path d="M3 14.9994V8H4.26729V13.8066H7.59163V14.9994H3Z" fill="url(#paint1_linear_10656_37831)"/>
<path d="M0 5C0 4.44772 0.447715 4 1 4H14C14.5523 4 15 4.44772 15 5V6C15 6.55228 14.5523 7 14 7H1C0.447715 7 0 6.55228 0 6V5Z" fill="url(#paint2_linear_10656_37831)"/>
<path d="M0 10C0 9.44772 0.447715 9 1 9H2V14H1C0.447715 14 0 13.5523 0 13V10Z" fill="url(#paint3_linear_10656_37831)"/>
<path d="M13 9H14C14.5523 9 15 9.44772 15 10V13C15 13.5523 14.5523 14 14 14H13V9Z" fill="url(#paint4_linear_10656_37831)"/>
<path d="M0 1C0 0.447715 0.447715 0 1 0H14C14.5523 0 15 0.447715 15 1C15 1.55228 14.5523 2 14 2H1C0.447715 2 0 1.55228 0 1Z" fill="url(#paint5_linear_10656_37831)"/>
</g>
<defs>
<linearGradient id="paint0_linear_10656_37831" x1="7.5" y1="8" x2="11.7319" y2="15.6494" gradientUnits="userSpaceOnUse">
<stop stop-color="#FE5468"/>
<stop offset="1" stop-color="#FFDF27"/>
</linearGradient>
<linearGradient id="paint1_linear_10656_37831" x1="7.5" y1="8" x2="11.7319" y2="15.6494" gradientUnits="userSpaceOnUse">
<stop stop-color="#FE5468"/>
<stop offset="1" stop-color="#FFDF27"/>
</linearGradient>
<linearGradient id="paint2_linear_10656_37831" x1="7.5" y1="4" x2="7.5" y2="7" gradientUnits="userSpaceOnUse">
<stop stop-color="#10808C"/>
<stop offset="1" stop-color="#1DF7EF"/>
</linearGradient>
<linearGradient id="paint3_linear_10656_37831" x1="7.5" y1="9" x2="9.1019" y2="15.7563" gradientUnits="userSpaceOnUse">
<stop stop-color="#FE5468"/>
<stop offset="1" stop-color="#FFDF27"/>
</linearGradient>
<linearGradient id="paint4_linear_10656_37831" x1="7.5" y1="9" x2="9.1019" y2="15.7563" gradientUnits="userSpaceOnUse">
<stop stop-color="#FE5468"/>
<stop offset="1" stop-color="#FFDF27"/>
</linearGradient>
<linearGradient id="paint5_linear_10656_37831" x1="7.5" y1="0" x2="7.5" y2="2" gradientUnits="userSpaceOnUse">
<stop stop-color="#10808C"/>
<stop offset="1" stop-color="#1DF7EF"/>
</linearGradient>
<clipPath id="clip0_10656_37831">
<rect width="15" height="15" fill="white"/>
</clipPath>
</defs>
</svg>
