<svg width="24" height="24" viewBox="0 0 24 24" fill="none" xmlns="http://www.w3.org/2000/svg">
<path d="M21.1231 5.4547C21.7608 4.86469 22.7544 4.8414 23.4199 5.42858C24.0855 6.01585 24.1866 7.00509 23.6804 7.71136L23.5713 7.84863L15.8564 16.592C13.8731 18.8398 10.4159 18.9096 8.34046 16.8023L8.14358 16.592L0.428741 7.84863L0.319591 7.71136C-0.186561 7.00509 -0.0854896 6.01585 0.580078 5.42858C1.24559 4.8414 2.23918 4.86469 2.87692 5.4547L3.00013 5.57992L10.7143 14.3233L10.7799 14.3936C11.4717 15.0962 12.6246 15.0726 13.2857 14.3233L20.9999 5.57992L21.1231 5.4547Z" fill="url(#paint0_linear_3218_87315)"/>
<defs>
<linearGradient id="paint0_linear_3218_87315" x1="12" y1="5" x2="12" y2="18.332" gradientUnits="userSpaceOnUse">
<stop stop-color="#FE5468"/>
<stop offset="1" stop-color="#FFDF27"/>
</linearGradient>
</defs>
</svg>
