<svg width="15" height="15" viewBox="0 0 15 15" fill="none" xmlns="http://www.w3.org/2000/svg">
<path fill-rule="evenodd" clip-rule="evenodd" d="M8.16336 1.12746C8.9242 0.395834 9.94322 -0.00899926 11.0009 0.000151831C12.0587 0.00930292 13.0705 0.431706 13.8184 1.17638C14.5664 1.92106 14.9907 2.92843 14.9998 3.98152C15.009 5.03461 14.6024 6.04917 13.8676 6.80668L13.8594 6.81498L11.8424 8.8231C11.4335 9.23042 10.9413 9.54541 10.3993 9.7467C9.85731 9.94799 9.27818 10.0309 8.70119 9.98974C8.1242 9.9486 7.56284 9.78439 7.05519 9.50825C6.54755 9.23212 6.10549 8.85052 5.759 8.38933C5.53658 8.09328 5.59732 7.67378 5.89467 7.45233C6.19201 7.23089 6.61337 7.29137 6.83579 7.58741C7.06678 7.89487 7.36149 8.14927 7.69992 8.33336C8.03835 8.51745 8.41259 8.62692 8.79725 8.65435C9.18191 8.68178 9.568 8.62652 9.92932 8.49233C10.2906 8.35813 10.6188 8.14814 10.8914 7.87659L10.8915 7.87651L12.9042 5.87264C13.3917 5.36806 13.6613 4.69339 13.6552 3.99316C13.6491 3.29109 13.3662 2.61951 12.8676 2.12306C12.369 1.62661 11.6944 1.34501 10.9893 1.33891C10.2856 1.33282 9.60772 1.60152 9.10085 2.08727L7.94804 3.22835C7.68471 3.489 7.259 3.48777 6.9972 3.22559C6.73539 2.96341 6.73664 2.53957 6.99997 2.27891L8.15641 1.13423L8.16336 1.12746Z" fill="url(#paint0_linear_177_31337)"/>
<path fill-rule="evenodd" clip-rule="evenodd" d="M4.6007 5.2533C5.14269 5.05201 5.72182 4.96912 6.29881 5.01026C6.8758 5.0514 7.43716 5.21561 7.94481 5.49175C8.45245 5.76788 8.89451 6.14948 9.241 6.61067C9.46342 6.90672 9.40268 7.32622 9.10533 7.54767C8.80799 7.76911 8.38663 7.70863 8.16421 7.41259C7.93322 7.10513 7.63851 6.85073 7.30008 6.66664C6.96165 6.48255 6.58741 6.37308 6.20275 6.34565C5.81809 6.31822 5.432 6.37348 5.07068 6.50767C4.70935 6.64187 4.38124 6.85186 4.1086 7.12341L2.09582 9.12736C1.60834 9.63194 1.33869 10.3066 1.3448 11.0068C1.35093 11.7089 1.63377 12.3805 2.13241 12.8769C2.63105 13.3734 3.30558 13.655 4.01073 13.6611C4.71404 13.6672 5.39168 13.3987 5.89848 12.9134L7.04385 11.773C7.30642 11.5116 7.73213 11.5116 7.9947 11.773C8.25727 12.0344 8.25727 12.4583 7.9947 12.7197L6.84498 13.8644L6.83664 13.8725C6.0758 14.6042 5.05678 15.009 3.99905 14.9998C2.94132 14.9907 1.92952 14.5683 1.18156 13.8236C0.433606 13.0789 0.00934387 12.0716 0.000152499 11.0185C-0.00903887 9.96538 0.397576 8.95083 1.13242 8.19332L1.14061 8.18502L3.15758 6.1769C3.15755 6.17693 3.15761 6.17687 3.15758 6.1769C3.56653 5.76962 4.05875 5.45457 4.6007 5.2533Z" fill="url(#paint1_linear_177_31337)"/>
<defs>
<linearGradient id="paint0_linear_177_31337" x1="10.3125" y1="0" x2="10.3125" y2="10" gradientUnits="userSpaceOnUse">
<stop stop-color="#FE5468"/>
<stop offset="1" stop-color="#FFDF27"/>
</linearGradient>
<linearGradient id="paint1_linear_177_31337" x1="4.6875" y1="5" x2="4.6875" y2="15" gradientUnits="userSpaceOnUse">
<stop stop-color="#10808C"/>
<stop offset="1" stop-color="#1DF7EF"/>
</linearGradient>
</defs>
</svg>
