<svg width="15" height="15" viewBox="0 0 15 15" fill="none" xmlns="http://www.w3.org/2000/svg">
<g clip-path="url(#clip0_20106_62499)">
<path d="M1.40351 11.0865C2.80653 11.858 4.95487 12.482 7.5 12.5441C10.0451 12.482 12.1935 11.858 13.5965 11.0865C14.2236 10.7416 14.7018 10.3673 15 10.0006C14.8109 10.5605 14.5164 11.158 14.2111 11.6955C13.7235 12.5541 13.2082 13.2594 13.051 13.413C12.2747 14.1786 9.98186 14.8253 7.91667 14.9703C7.77655 14.9801 7.63748 14.9876 7.5 14.9927C7.36252 14.9876 7.22345 14.9801 7.08333 14.9703C5.01814 14.8253 2.72526 14.1786 1.94899 13.413C1.79177 13.2594 1.27654 12.5541 0.788851 11.6955C0.483587 11.158 0.189116 10.5605 0 10.0006C0.298184 10.3673 0.776396 10.7416 1.40351 11.0865Z" fill="url(#paint0_linear_20106_62499)"/>
<path d="M9.49526 6.32624C9.16509 6.29376 8.81177 6.27375 8.45784 6.26252L7.52645 6.8108L6.59245 6.26099C6.23939 6.27137 5.88586 6.29031 5.55427 6.32148L7.52645 9.08559L9.49526 6.32624Z" fill="url(#paint1_linear_20106_62499)"/>
<path fill-rule="evenodd" clip-rule="evenodd" d="M0 8.9479C0 7.83406 1.85197 6.87581 4.49835 6.45568L7.52644 10.6997L10.5491 6.46329C13.1702 6.8873 15 7.84074 15 8.9479C15 10.4485 11.6397 11.6668 7.5 11.6672C3.36031 11.6668 0 10.4485 0 8.9479Z" fill="url(#paint2_linear_20106_62499)"/>
<path d="M7.52622 6.81095L4.72778 5.16357L7.52622 9.08573L10.3247 5.16357L7.52622 6.81095Z" fill="url(#paint3_linear_20106_62499)"/>
<path d="M7.52625 0L10.3246 4.63276L7.52625 6.2847L4.72778 4.63298L7.52625 0Z" fill="url(#paint4_linear_20106_62499)"/>
</g>
<defs>
<linearGradient id="paint0_linear_20106_62499" x1="7.5" y1="10.0006" x2="7.5" y2="14.9927" gradientUnits="userSpaceOnUse">
<stop stop-color="#10808C"/>
<stop offset="1" stop-color="#1DF7EF"/>
</linearGradient>
<linearGradient id="paint1_linear_20106_62499" x1="7.5" y1="6.26099" x2="9.35604" y2="13.501" gradientUnits="userSpaceOnUse">
<stop stop-color="#FE5468"/>
<stop offset="1" stop-color="#FFDF27"/>
</linearGradient>
<linearGradient id="paint2_linear_20106_62499" x1="7.5" y1="6.26099" x2="9.35604" y2="13.501" gradientUnits="userSpaceOnUse">
<stop stop-color="#FE5468"/>
<stop offset="1" stop-color="#FFDF27"/>
</linearGradient>
<linearGradient id="paint3_linear_20106_62499" x1="7.52625" y1="5.16357" x2="7.52625" y2="9.08573" gradientUnits="userSpaceOnUse">
<stop stop-color="#10808C"/>
<stop offset="1" stop-color="#1DF7EF"/>
</linearGradient>
<linearGradient id="paint4_linear_20106_62499" x1="7.52621" y1="0" x2="11.9001" y2="5.47623" gradientUnits="userSpaceOnUse">
<stop stop-color="#FE5468"/>
<stop offset="1" stop-color="#FFDF27"/>
</linearGradient>
<clipPath id="clip0_20106_62499">
<rect width="15" height="15" fill="white"/>
</clipPath>
</defs>
</svg>
