<svg width="16" height="15" viewBox="0 0 16 15" fill="none" xmlns="http://www.w3.org/2000/svg">
<path fill-rule="evenodd" clip-rule="evenodd" d="M7.81602 1.80932C7.16485 1.1842 6.28168 0.833008 5.36079 0.833008H1.19412C0.810588 0.833008 0.499675 1.13148 0.499675 1.49967V11.4997C0.499675 11.8679 0.810588 12.1663 1.19412 12.1663H5.77745C6.14581 12.1663 6.49908 12.3068 6.75955 12.5569C7.02001 12.8069 7.13321 12.9794 7.13321 13.333C7.13321 13.7497 7.44412 14.1663 7.99967 14.1663C8.55523 14.1663 8.83301 13.7497 8.83301 13.333V4.16634C8.83301 3.28229 8.46719 2.43444 7.81602 1.80932ZM7.16634 11.1903C6.74766 10.9582 6.40817 10.833 5.91634 10.833H1.88856V2.16634H5.08301C5.63554 2.16634 6.16545 2.37705 6.55615 2.75213C6.94685 3.1272 7.16634 3.63591 7.16634 4.16634V11.1903Z" fill="url(#paint0_linear_7416_31915)"/>
<path fill-rule="evenodd" clip-rule="evenodd" d="M8.18398 1.80932C8.83515 1.1842 9.71832 0.833008 10.6392 0.833008H14.8059C15.1894 0.833008 15.5003 1.13148 15.5003 1.49967V11.4997C15.5003 11.8679 15.1894 12.1663 14.8059 12.1663H10.2225C9.85419 12.1663 9.50092 12.3068 9.24045 12.5569C8.97999 12.8069 8.86679 12.9794 8.86679 13.333C8.86679 13.7497 8.55588 14.1663 8.00033 14.1663C7.44477 14.1663 7.16699 13.7497 7.16699 13.333V4.16634C7.16699 3.28229 7.53281 2.43444 8.18398 1.80932ZM8.83366 11.1903C9.25234 10.9582 9.59183 10.833 10.0837 10.833H14.1114V2.16634H10.917C10.3645 2.16634 9.83455 2.37705 9.44385 2.75213C9.05315 3.1272 8.83366 3.63591 8.83366 4.16634V11.1903Z" fill="url(#paint1_linear_7416_31915)"/>
<defs>
<linearGradient id="paint0_linear_7416_31915" x1="4.66634" y1="0.833008" x2="4.66634" y2="14.1663" gradientUnits="userSpaceOnUse">
<stop stop-color="#10808C"/>
<stop offset="1" stop-color="#1DF7EF"/>
</linearGradient>
<linearGradient id="paint1_linear_7416_31915" x1="11.3337" y1="0.833008" x2="20.7695" y2="9.12414" gradientUnits="userSpaceOnUse">
<stop stop-color="#FE5468"/>
<stop offset="1" stop-color="#FFDF27"/>
</linearGradient>
</defs>
</svg>
