<svg width="24" height="24" viewBox="0 0 24 24" fill="none" xmlns="http://www.w3.org/2000/svg">
<path fill-rule="evenodd" clip-rule="evenodd" d="M15.2428 11.717L23.8257 11.7396C23.914 11.5272 24 11.2039 24 10.9825C24 8.95184 20.1935 7.24421 15.0001 6.76597C15.0001 6.76597 11.3831 6.52462 8.74176 6.79444C3.70135 7.30985 0 8.9907 0 10.9825C0 13.3838 5.37804 15.3333 12.0029 15.3333C12.3227 15.3333 12.6403 15.3288 12.9544 15.3198L13.9266 12.6155L13.9347 12.5963C14.149 12.0696 14.6649 11.7249 15.2388 11.717H15.2428ZM12.7028 12.0862C13.1264 11.0541 14.1286 10.3988 15.2204 10.3838L15.2296 10.3837H15.2463L22.3066 10.4022C22.0164 10.1223 21.5531 9.80995 20.8878 9.5022C19.4714 8.847 17.3887 8.32647 14.8957 8.09535L14.8753 8.09405C14.85 8.09246 14.8118 8.09012 14.7618 8.0872C14.6617 8.08136 14.5146 8.07323 14.3292 8.06426C13.9581 8.04629 13.4356 8.02505 12.8327 8.01205C11.6151 7.9858 10.1155 7.99439 8.87739 8.12086M12.7028 12.0862L12.6836 12.132L12.012 14C12.009 14 12.0059 14 12.0029 14C8.80394 14 5.96399 13.5271 3.97151 12.8049C2.96972 12.4417 2.25268 12.0408 1.81113 11.6627C1.36472 11.2803 1.33333 11.0457 1.33333 10.9825C1.33333 10.9273 1.35322 10.7619 1.62125 10.4813C1.89537 10.1943 2.3595 9.8662 3.04951 9.54075C4.42533 8.89184 6.45139 8.36894 8.87739 8.12086" fill="url(#paint0_linear_3218_87685)"/>
<path d="M15.7066 15.484H22.2727L21.9855 16.258H15.4542L14 20.6667V15.9849L15.017 12.9266C15.0747 12.772 15.2157 12.669 15.3741 12.6667L23.3333 12.669L23.0389 13.4317H16.3945L16.1907 14.0754H22.8117L22.4971 14.8404H15.9366L15.7066 15.484Z" fill="url(#paint1_radial_3218_87685)"/>
<path fill-rule="evenodd" clip-rule="evenodd" d="M4.05463 17.1772C4.2426 17.3626 4.6253 17.6173 5.24463 17.8931C5.84387 18.16 6.58543 18.412 7.41543 18.6291C8.65015 18.9519 10.0254 19.1833 11.3333 19.2813V18.0466C8.61568 17.9196 6.17285 17.4123 4.16023 16.7018C3.94165 16.6246 3.72684 16.5445 3.5162 16.4618C3.56346 16.5297 3.60904 16.5942 3.65266 16.6551C3.76844 16.8165 3.86695 16.9472 3.9436 17.0438C4.00482 17.1209 4.03874 17.1593 4.04906 17.171C4.05327 17.1758 4.05356 17.1761 4.05017 17.1728L4.05463 17.1772ZM1.26216 15.3784C2.04246 16.7522 2.86683 17.8807 3.11838 18.1265C4.36041 19.3514 8.02903 20.3861 11.3333 20.6181C11.7871 20.6499 12.2339 20.6667 12.6667 20.6667V16.7443C8.30335 16.7443 4.61195 15.7053 2.24562 14.4041C1.24223 13.8523 0.477094 13.2534 0 12.6667C0.302586 13.5625 0.773739 14.5185 1.26216 15.3784Z" fill="url(#paint2_linear_3218_87685)"/>
<defs>
<linearGradient id="paint0_linear_3218_87685" x1="12" y1="6.66667" x2="12" y2="15.3333" gradientUnits="userSpaceOnUse">
<stop stop-color="#FE5468"/>
<stop offset="1" stop-color="#FFDF27"/>
</linearGradient>
<radialGradient id="paint1_radial_3218_87685" cx="0" cy="0" r="1" gradientTransform="matrix(-6.91061 6.03486 -7.04067 -5.11129 21.5794 15.1516)" gradientUnits="userSpaceOnUse">
<stop stop-color="#1DF7EF"/>
<stop offset="0.9999" stop-color="#10808C"/>
</radialGradient>
<linearGradient id="paint2_linear_3218_87685" x1="6.33333" y1="12.6667" x2="6.33333" y2="20.6667" gradientUnits="userSpaceOnUse">
<stop stop-color="#10808C"/>
<stop offset="1" stop-color="#1DF7EF"/>
</linearGradient>
</defs>
</svg>
