<svg width="15" height="15" viewBox="0 0 15 15" fill="none" xmlns="http://www.w3.org/2000/svg">
<g clip-path="url(#clip0_2742_2028)">
<path fill-rule="evenodd" clip-rule="evenodd" d="M3.11118 5.66643H5.68076C5.76631 5.93513 5.87175 6.19494 5.99489 6.44443H3.11118V11.1112H2.72258C2.44612 11.1112 2.18312 11.1687 1.94499 11.2727C1.25829 11.5728 0.778052 12.2581 0.777997 13.0554C0.777997 13.2185 0.876967 13.5293 1.1202 13.8073C1.35055 14.0705 1.6372 14.2224 1.94459 14.2224H10.8891V9.58083C10.9398 9.58218 10.9907 9.58327 11.0417 9.58327C11.253 9.58327 11.4615 9.57097 11.6667 9.54828V15H1.94459C0.777916 15 0 13.8332 0 13.0554V6.00986L0.000813805 6.00904C0.0256824 4.52723 1.23449 3.33348 2.72218 3.33325H3.11118V5.66643ZM2.33318 4.14991C2.19816 4.17735 2.06827 4.21894 1.94499 4.27279C1.25827 4.57283 0.778019 5.2581 0.777997 6.05543L0.777591 11.1507C1.18596 10.7338 1.72749 10.4476 2.33318 10.3609V4.14991Z" fill="url(#paint0_linear_2742_2028)"/>
<path fill-rule="evenodd" clip-rule="evenodd" d="M6.99994 7.87021C7.49636 8.383 8.0896 8.8012 8.75003 9.09621V11.9213C8.74999 12.3687 8.38729 12.7314 7.93989 12.7315H4.69891C4.25156 12.7314 3.88881 12.3687 3.88877 11.9213V8.68036C3.88885 8.23303 4.25158 7.87031 4.69891 7.87021H6.99994ZM6.65041 8.90049C6.51989 8.60737 6.11891 8.60737 5.98838 8.90049L5.78615 9.35459C5.73301 9.47376 5.62435 9.55579 5.49888 9.57147L5.02077 9.63129C4.71227 9.66977 4.58824 10.066 4.8161 10.2856L5.16929 10.6258C5.26197 10.7151 5.30361 10.848 5.27915 10.9769L5.18597 11.468C5.12595 11.7848 5.45015 12.0295 5.72146 11.8721L6.14179 11.6284C6.25219 11.5644 6.3866 11.5644 6.49701 11.6284L6.91734 11.8721C7.18865 12.0295 7.51286 11.7849 7.45283 11.468L7.35964 10.9769C7.3352 10.848 7.37687 10.7151 7.46951 10.6258L7.8227 10.2856C8.05057 10.066 7.92657 9.66973 7.61803 9.63129L7.14032 9.57147C7.01479 9.55583 6.9058 9.47382 6.85264 9.35459L6.65041 8.90049Z" fill="url(#paint1_linear_2742_2028)"/>
<path fill-rule="evenodd" clip-rule="evenodd" d="M11.0417 6.78574C12.6032 6.78574 13.8691 5.51987 13.8691 3.95835C13.8691 2.39682 12.6032 1.13096 11.0417 1.13096C9.4802 1.13096 8.21433 2.39682 8.21433 3.95835C8.21433 5.51987 9.4802 6.78574 11.0417 6.78574ZM11.0417 7.91669C13.2279 7.91669 15.0001 6.14448 15.0001 3.95835C15.0001 1.77221 13.2279 0 11.0417 0C8.85559 0 7.08337 1.77221 7.08337 3.95835C7.08337 6.14448 8.85559 7.91669 11.0417 7.91669Z" fill="url(#paint2_linear_2742_2028)"/>
<path fill-rule="evenodd" clip-rule="evenodd" d="M12.3334 2.79167C12.3334 2.95275 12.2215 3.08334 12.0834 3.08334H10C9.86197 3.08334 9.75004 2.95275 9.75004 2.79167C9.75004 2.63058 9.86197 2.5 10 2.5H12.0834C12.2215 2.5 12.3334 2.63058 12.3334 2.79167ZM12.0135 3.95834C12.0135 4.11942 11.9016 4.25001 11.7635 4.25001H10.3191C10.181 4.25001 10.0691 4.11942 10.0691 3.95834C10.0691 3.79725 10.181 3.66667 10.3191 3.66667H11.7635C11.9016 3.66667 12.0135 3.79725 12.0135 3.95834ZM12.5001 5.12501C12.5001 5.28609 12.3881 5.41668 12.25 5.41668H9.83337C9.6953 5.41668 9.58337 5.28609 9.58337 5.12501C9.58337 4.96393 9.6953 4.83334 9.83338 4.83334H12.25C12.3881 4.83334 12.5001 4.96393 12.5001 5.12501Z" fill="url(#paint3_linear_2742_2028)"/>
</g>
<defs>
<linearGradient id="paint0_linear_2742_2028" x1="5.83335" y1="3.33325" x2="5.83335" y2="15" gradientUnits="userSpaceOnUse">
<stop stop-color="#10808C"/>
<stop offset="1" stop-color="#1DF7EF"/>
</linearGradient>
<linearGradient id="paint1_linear_2742_2028" x1="5.83335" y1="3.33325" x2="5.83335" y2="15" gradientUnits="userSpaceOnUse">
<stop stop-color="#10808C"/>
<stop offset="1" stop-color="#1DF7EF"/>
</linearGradient>
<linearGradient id="paint2_linear_2742_2028" x1="11.0417" y1="0" x2="11.0417" y2="7.91669" gradientUnits="userSpaceOnUse">
<stop stop-color="#FE5468"/>
<stop offset="1" stop-color="#FFDF27"/>
</linearGradient>
<linearGradient id="paint3_linear_2742_2028" x1="11.0417" y1="2.5" x2="11.0417" y2="5.41668" gradientUnits="userSpaceOnUse">
<stop stop-color="#10808C"/>
<stop offset="1" stop-color="#1DF7EF"/>
</linearGradient>
<clipPath id="clip0_2742_2028">
<rect width="15" height="15" fill="white"/>
</clipPath>
</defs>
</svg>
