<svg width="15" height="15" viewBox="0 0 15 15" fill="none" xmlns="http://www.w3.org/2000/svg">
<g clip-path="url(#clip0_19269_69894)">
<path fill-rule="evenodd" clip-rule="evenodd" d="M7.5 1.06337L12.9167 2.97437V7.47415C12.9167 9.34107 11.5863 10.9461 10.1599 12.1204C9.45636 12.6995 8.75087 13.156 8.22037 13.468C7.95553 13.6237 7.73531 13.7428 7.58209 13.8226C7.55344 13.8375 7.52599 13.852 7.50005 13.8657C7.47393 13.8519 7.4464 13.8375 7.4179 13.8226C7.26469 13.7428 7.04447 13.6237 6.77962 13.468C6.24913 13.156 5.54364 12.6995 4.84007 12.1204C3.41365 10.9461 2.08333 9.34107 2.08333 7.47415V2.97437L7.5 1.06337ZM7.23079 14.007C7.23075 14.007 7.23128 14.0068 7.23235 14.0063C7.23133 14.0068 7.23082 14.007 7.23079 14.007ZM7.76623 14.0045C7.76732 14.005 7.76786 14.0052 7.76781 14.0052C7.76777 14.0052 7.76724 14.005 7.76623 14.0045ZM7.75359 0.0432623C7.59009 -0.0144208 7.40991 -0.0144208 7.24641 0.0432623L1.46863 2.08167C1.18675 2.18112 1 2.43464 1 2.71787V7.47415C1 9.8159 2.64793 11.6871 4.13552 12.9116C4.8945 13.5364 5.65006 14.0248 6.21445 14.3567C6.49739 14.523 6.73421 14.6512 6.90195 14.7386C7.23955 14.9144 7.37219 15.0009 7.50416 15C7.63556 14.999 7.7663 14.9113 8.09805 14.7386C8.26579 14.6512 8.50261 14.523 8.78555 14.3567C9.34994 14.0248 10.1055 13.5364 10.8645 12.9116C12.3521 11.6871 14 9.8159 14 7.47415V2.71787C14 2.43464 13.8133 2.18112 13.5314 2.08167L7.75359 0.0432623Z" fill="url(#paint0_linear_19269_69894)"/>
<path fill-rule="evenodd" clip-rule="evenodd" d="M9.4359 7.13574H5.39744C5.14962 7.13574 4.94872 7.34561 4.94872 7.60449V9.47949C4.94872 9.73838 5.14962 9.94824 5.39744 9.94824H9.4359C9.68372 9.94824 9.88461 9.73838 9.88461 9.47949V7.60449C9.88461 7.34561 9.68372 7.13574 9.4359 7.13574ZM5.39744 6.66699C4.9018 6.66699 4.5 7.08673 4.5 7.60449V9.47949C4.5 9.99726 4.9018 10.417 5.39744 10.417H9.4359C9.93154 10.417 10.3333 9.99726 10.3333 9.47949V7.60449C10.3333 7.08673 9.93154 6.66699 9.4359 6.66699H5.39744Z" fill="url(#paint1_linear_19269_69894)"/>
<path d="M9.03769 5.32782C9.03769 4.29224 8.31222 3.45273 7.41732 3.45273C6.52241 3.45273 5.79695 4.29224 5.79695 5.32782V6.66699H5.33398V5.32782C5.33398 3.99636 6.26672 2.91699 7.41732 2.91699C8.56791 2.91699 9.50065 3.99636 9.50065 5.32782V6.66699H9.03769V5.32782Z" fill="url(#paint2_linear_19269_69894)"/>
</g>
<defs>
<linearGradient id="paint0_linear_19269_69894" x1="7.5" y1="0" x2="7.5" y2="15" gradientUnits="userSpaceOnUse">
<stop stop-color="#10808C"/>
<stop offset="1" stop-color="#1DF7EF"/>
</linearGradient>
<linearGradient id="paint1_linear_19269_69894" x1="7.41667" y1="6.66699" x2="9.44075" y2="11.0936" gradientUnits="userSpaceOnUse">
<stop stop-color="#FE5468"/>
<stop offset="1" stop-color="#FFDF27"/>
</linearGradient>
<linearGradient id="paint2_linear_19269_69894" x1="7.41732" y1="2.91699" x2="9.84759" y2="6.71334" gradientUnits="userSpaceOnUse">
<stop stop-color="#FE5468"/>
<stop offset="1" stop-color="#FFDF27"/>
</linearGradient>
<clipPath id="clip0_19269_69894">
<rect width="15" height="15" fill="white"/>
</clipPath>
</defs>
</svg>
