<svg width="15" height="15" viewBox="0 0 15 15" fill="none" xmlns="http://www.w3.org/2000/svg">
<path d="M1.79808 11.0483C1.39949 11.4171 0.778498 11.4316 0.362551 11.0646C-0.0534296 10.6976 -0.116599 10.0793 0.199746 9.63789L0.267964 9.55209L5.08974 4.08747C6.32932 2.68264 8.49007 2.63901 9.78722 3.95605L9.91026 4.08747L14.732 9.55209L14.8003 9.63789C15.1166 10.0793 15.0534 10.6976 14.6375 11.0646C14.2215 11.4316 13.6005 11.4171 13.2019 11.0483L13.1249 10.97L8.30356 5.50542L8.26255 5.46147C7.83017 5.02239 7.10965 5.03711 6.69644 5.50542L1.87508 10.97L1.79808 11.0483Z" fill="url(#paint0_linear_22400_50819)"/>
<defs>
<linearGradient id="paint0_linear_22400_50819" x1="7.5" y1="11.3325" x2="7.5" y2="3" gradientUnits="userSpaceOnUse">
<stop stop-color="#FE5468"/>
<stop offset="1" stop-color="#FFDF27"/>
</linearGradient>
</defs>
</svg>
