<svg width="15" height="15" viewBox="0 0 15 15" fill="none" xmlns="http://www.w3.org/2000/svg">
<path fill-rule="evenodd" clip-rule="evenodd" d="M3.33333 11.25H1.66667C1.43655 11.25 1.25 11.4365 1.25 11.6667V13.3333C1.25 13.5635 1.43655 13.75 1.66667 13.75H3.33333C3.56345 13.75 3.75 13.5635 3.75 13.3333V11.6667C3.75 11.4365 3.56345 11.25 3.33333 11.25ZM1.66667 10C0.746192 10 0 10.7462 0 11.6667V13.3333C0 14.2538 0.746192 15 1.66667 15H3.33333C4.25381 15 5 14.2538 5 13.3333V11.6667C5 10.7462 4.25381 10 3.33333 10H1.66667Z" fill="url(#paint0_linear_7416_31881)"/>
<path fill-rule="evenodd" clip-rule="evenodd" d="M8.33333 11.25H6.66667C6.43655 11.25 6.25 11.4365 6.25 11.6667V13.3333C6.25 13.5635 6.43655 13.75 6.66667 13.75H8.33333C8.56345 13.75 8.75 13.5635 8.75 13.3333V11.6667C8.75 11.4365 8.56345 11.25 8.33333 11.25ZM6.66667 10C5.74619 10 5 10.7462 5 11.6667V13.3333C5 14.2538 5.74619 15 6.66667 15H8.33333C9.25381 15 10 14.2538 10 13.3333V11.6667C10 10.7462 9.25381 10 8.33333 10H6.66667Z" fill="url(#paint1_linear_7416_31881)"/>
<path fill-rule="evenodd" clip-rule="evenodd" d="M13.3333 11.25H11.6667C11.4365 11.25 11.25 11.4365 11.25 11.6667V13.3333C11.25 13.5635 11.4365 13.75 11.6667 13.75H13.3333C13.5635 13.75 13.75 13.5635 13.75 13.3333V11.6667C13.75 11.4365 13.5635 11.25 13.3333 11.25ZM11.6667 10C10.7462 10 10 10.7462 10 11.6667V13.3333C10 14.2538 10.7462 15 11.6667 15H13.3333C14.2538 15 15 14.2538 15 13.3333V11.6667C15 10.7462 14.2538 10 13.3333 10H11.6667Z" fill="url(#paint2_linear_7416_31881)"/>
<path fill-rule="evenodd" clip-rule="evenodd" d="M13.3333 1.25H11.6667C11.4365 1.25 11.25 1.43655 11.25 1.66667V3.33333C11.25 3.56345 11.4365 3.75 11.6667 3.75H13.3333C13.5635 3.75 13.75 3.56345 13.75 3.33333V1.66667C13.75 1.43655 13.5635 1.25 13.3333 1.25ZM11.6667 0C10.7462 0 10 0.746192 10 1.66667V3.33333C10 4.25381 10.7462 5 11.6667 5H13.3333C14.2538 5 15 4.25381 15 3.33333V1.66667C15 0.746192 14.2538 0 13.3333 0H11.6667Z" fill="url(#paint3_linear_7416_31881)"/>
<path fill-rule="evenodd" clip-rule="evenodd" d="M8.33333 6.25H6.66667C6.43655 6.25 6.25 6.43655 6.25 6.66667V8.33333C6.25 8.56345 6.43655 8.75 6.66667 8.75H8.33333C8.56345 8.75 8.75 8.56345 8.75 8.33333V6.66667C8.75 6.43655 8.56345 6.25 8.33333 6.25ZM6.66667 5C5.74619 5 5 5.74619 5 6.66667V8.33333C5 9.25381 5.74619 10 6.66667 10H8.33333C9.25381 10 10 9.25381 10 8.33333V6.66667C10 5.74619 9.25381 5 8.33333 5H6.66667Z" fill="url(#paint4_linear_7416_31881)"/>
<path fill-rule="evenodd" clip-rule="evenodd" d="M13.3333 6.25H11.6667C11.4365 6.25 11.25 6.43655 11.25 6.66667V8.33333C11.25 8.56345 11.4365 8.75 11.6667 8.75H13.3333C13.5635 8.75 13.75 8.56345 13.75 8.33333V6.66667C13.75 6.43655 13.5635 6.25 13.3333 6.25ZM11.6667 5C10.7462 5 10 5.74619 10 6.66667V8.33333C10 9.25381 10.7462 10 11.6667 10H13.3333C14.2538 10 15 9.25381 15 8.33333V6.66667C15 5.74619 14.2538 5 13.3333 5H11.6667Z" fill="url(#paint5_linear_7416_31881)"/>
<defs>
<linearGradient id="paint0_linear_7416_31881" x1="2.5" y1="10" x2="2.5" y2="15" gradientUnits="userSpaceOnUse">
<stop stop-color="#10808C"/>
<stop offset="1" stop-color="#1DF7EF"/>
</linearGradient>
<linearGradient id="paint1_linear_7416_31881" x1="7.5" y1="10" x2="10.8706" y2="14.7387" gradientUnits="userSpaceOnUse">
<stop stop-color="#FE5468"/>
<stop offset="1" stop-color="#FFDF27"/>
</linearGradient>
<linearGradient id="paint2_linear_7416_31881" x1="12.5" y1="10" x2="12.5" y2="15" gradientUnits="userSpaceOnUse">
<stop stop-color="#10808C"/>
<stop offset="1" stop-color="#1DF7EF"/>
</linearGradient>
<linearGradient id="paint3_linear_7416_31881" x1="12.5" y1="0" x2="12.5" y2="5" gradientUnits="userSpaceOnUse">
<stop stop-color="#10808C"/>
<stop offset="1" stop-color="#1DF7EF"/>
</linearGradient>
<linearGradient id="paint4_linear_7416_31881" x1="7.5" y1="5" x2="7.5" y2="10" gradientUnits="userSpaceOnUse">
<stop stop-color="#10808C"/>
<stop offset="1" stop-color="#1DF7EF"/>
</linearGradient>
<linearGradient id="paint5_linear_7416_31881" x1="12.5" y1="5" x2="15.8706" y2="9.73869" gradientUnits="userSpaceOnUse">
<stop stop-color="#FE5468"/>
<stop offset="1" stop-color="#FFDF27"/>
</linearGradient>
</defs>
</svg>
