<svg width="15" height="15" viewBox="0 0 15 15" fill="none" xmlns="http://www.w3.org/2000/svg">
<g clip-path="url(#clip0_22444_59096)">
<path d="M5.62817 6.01848H3.56803C3.40735 6.01852 3.25319 6.07234 3.13957 6.16782C3.02597 6.26331 2.96216 6.3929 2.96216 6.52792V13.0554C2.96216 13.1905 3.02597 13.32 3.13957 13.4155C3.25319 13.511 3.40735 13.5648 3.56803 13.5649H11.5185C11.6792 13.5648 11.8333 13.511 11.9469 13.4155C12.0605 13.32 12.1243 13.1905 12.1243 13.0554V6.52792C12.1243 6.39289 12.0605 6.26331 11.9469 6.16782C11.8333 6.07233 11.6792 6.01851 11.5185 6.01848H9.45833V4.58334H11.5185C12.0006 4.58337 12.4629 4.74446 12.8039 5.03093C13.1448 5.31745 13.3365 5.70606 13.3365 6.11126V13.0554C13.3365 13.4606 13.1448 14.2659 12.8039 14.5524C12.4629 14.8389 12.0006 15 11.5185 15H3.56803C3.08588 15 2.62357 14.8389 2.28263 14.5524C1.94166 14.2659 1.75 13.4606 1.75 13.0554V6.11126C1.75 5.70607 1.94166 5.31745 2.28263 5.03093C2.62357 4.74445 3.08587 4.58338 3.56803 4.58334H5.62817V6.01848Z" fill="url(#paint0_linear_22444_59096)"/>
<path fill-rule="evenodd" clip-rule="evenodd" d="M5.06355 1.99983L7.1284 0.167369C7.3798 -0.0557891 7.7874 -0.0557891 8.03879 0.167369L10.1031 1.99983C10.3545 2.22299 10.3545 2.5848 10.1031 2.80795C9.85172 3.03111 9.44412 3.03111 9.19272 2.80795L8.22734 1.95098L8.2274 8.54166C8.2274 8.65672 8.13413 8.75 8.01907 8.75L7.14824 8.75C7.03318 8.75 6.93991 8.65673 6.93991 8.54167L6.93985 1.95098L5.97394 2.80795C5.72255 3.03111 5.31495 3.03111 5.06355 2.80795C4.81215 2.5848 4.81215 2.22299 5.06355 1.99983Z" fill="url(#paint1_linear_22444_59096)"/>
</g>
<defs>
<linearGradient id="paint0_linear_22444_59096" x1="7.54325" y1="4.58334" x2="7.54325" y2="15" gradientUnits="userSpaceOnUse">
<stop stop-color="#10808C"/>
<stop offset="1" stop-color="#1DF7EF"/>
</linearGradient>
<linearGradient id="paint1_linear_22444_59096" x1="4.875" y1="4.375" x2="11.3504" y2="1.52376" gradientUnits="userSpaceOnUse">
<stop stop-color="#FE5468"/>
<stop offset="1" stop-color="#FFDF27"/>
</linearGradient>
<clipPath id="clip0_22444_59096">
<rect width="15" height="15" fill="white"/>
</clipPath>
</defs>
</svg>
