<svg width="15" height="15" viewBox="0 0 15 15" fill="none" xmlns="http://www.w3.org/2000/svg">
<g clip-path="url(#clip0_3009_21535)">
<path fill-rule="evenodd" clip-rule="evenodd" d="M7.54825 0.382511C7.69371 0.64054 7.67398 0.959922 7.49789 1.1981C6.85587 2.06651 6.54692 3.13645 6.62724 4.21334C6.70757 5.29023 7.17182 6.30253 7.93558 7.06612C8.69933 7.82971 9.71184 8.29386 10.789 8.37417C11.8661 8.45448 12.6723 8.36064 13.5409 7.71876C14.2665 7.18255 15 7.51036 15 8.17713C15 9.80275 14.3351 10.9528 13.4619 12.0819C12.5887 13.211 11.412 14.0682 10.0693 14.5531C8.72662 15.038 7.2736 15.1305 5.88024 14.8199C4.48688 14.5093 3.21082 13.8083 2.20137 12.7991C1.19192 11.7899 0.490837 10.5141 0.180151 9.12102C-0.130535 7.72796 -0.037971 6.27524 0.447011 4.93286C0.931993 3.59047 1.78933 2.41394 2.91872 1.54093C4.0481 0.667919 5.4028 0.134539 6.82432 0.0032009C7.11932 -0.0240543 7.4028 0.124481 7.54825 0.382511ZM13.17 9.53091C12.3785 9.81721 11.5295 9.93642 10.6772 9.87288C9.24102 9.7658 7.891 9.14692 6.87266 8.12881C5.85432 7.11068 5.23531 5.76095 5.12822 4.3251C5.06466 3.473 5.18389 2.62416 5.47026 1.83281C4.88581 2.04422 4.33476 2.34601 3.83816 2.72988C2.93466 3.42828 2.24878 4.36951 1.8608 5.44342C1.47281 6.51732 1.39876 7.6795 1.64731 8.79395C1.89586 9.90839 2.45673 10.929 3.26429 11.7364C4.07184 12.5438 5.09269 13.1045 6.20738 13.353C7.32207 13.6015 8.48449 13.5275 9.55862 13.1396C10.6328 12.7517 11.5742 12.066 12.2727 11.1627C12.6567 10.6662 12.9585 10.1152 13.17 9.53091Z" fill="url(#paint0_linear_3009_21535)"/>
</g>
<defs>
<linearGradient id="paint0_linear_3009_21535" x1="7.5" y1="0" x2="7.5" y2="15" gradientUnits="userSpaceOnUse">
<stop stop-color="#10808C"/>
<stop offset="1" stop-color="#1DF7EF"/>
</linearGradient>
<clipPath id="clip0_3009_21535">
<rect width="15" height="15" fill="white"/>
</clipPath>
</defs>
</svg>
