<svg width="15" height="15" viewBox="0 0 15 15" fill="none" xmlns="http://www.w3.org/2000/svg">
<path d="M3.44444 0C2.92875 0 2.43417 0.215502 2.06951 0.5991C1.70486 0.982697 1.5 1.50297 1.5 2.04545V5.5H2.7963V2.04545C2.7963 1.86462 2.86458 1.6912 2.98613 1.56334C3.10769 1.43547 3.27254 1.36364 3.44444 1.36364H8.36116L11.8704 5.05515V5.5H12.4394C12.8411 5.5 13.1667 5.17439 13.1667 4.77273C13.1667 4.5919 13.0984 4.41848 12.9768 4.29061L9.08794 0.1997C8.96639 0.0718342 8.80153 0 8.62963 0H3.44444Z" fill="url(#paint0_linear_177_29270)"/>
<path d="M13.1667 4.77273H11.8704V12.5V12.9545C11.8704 13.1354 11.8021 13.3088 11.6805 13.4367C11.559 13.5645 11.3941 13.6364 11.2222 13.6364H3.44444C3.27255 13.6364 3.10769 13.5645 2.98613 13.4367C2.86458 13.3088 2.7963 13.1354 2.7963 12.9545V5.5H1.5V12.9545C1.5 13.497 1.70486 14.0173 2.06951 14.4009C2.43417 14.7845 2.92875 15 3.44444 15H11.2222C11.7379 15 12.2325 14.7845 12.5972 14.4009C12.9618 14.0173 13.1667 13.497 13.1667 12.9545V4.77273Z" fill="url(#paint1_linear_177_29270)"/>
<path fill-rule="evenodd" clip-rule="evenodd" d="M8.79102 0C9.13619 0 9.41602 0.326459 9.41602 0.729167V4.16667H12.541C12.8862 4.16667 13.166 4.49313 13.166 4.89583C13.166 5.29854 12.8862 5.625 12.541 5.625H8.79102C8.44584 5.625 8.16602 5.29854 8.16602 4.89583V0.729167C8.16602 0.326459 8.44584 0 8.79102 0Z" fill="url(#paint2_linear_177_29270)"/>
<path d="M4.91148 7.98334C4.88513 7.61576 4.98524 7.27823 5.20003 6.95093C5.34384 6.73336 5.54779 6.49842 5.7728 6.23962C6.35332 5.57108 7.07238 4.74354 7.24843 3.64697C7.6312 4.48753 7.44555 5.30484 7.02186 6.05645C6.83125 6.39428 6.62018 6.63696 6.41872 6.86849C6.18161 7.14093 5.95815 7.39787 5.7976 7.77568C5.70926 7.98117 5.65905 8.17799 5.6355 8.37046L4.91148 7.98334Z" fill="url(#paint3_radial_177_29270)"/>
<path d="M6.15381 8.64836C6.24214 8.32417 6.39494 8.02104 6.59795 7.72691C6.76594 7.48144 6.92339 7.2995 7.06472 7.13617C7.54017 6.58602 7.83523 6.24447 7.74876 4.40063C7.80424 4.51903 7.8591 4.63309 7.91241 4.74312L7.91272 4.74374C8.37639 5.70641 8.70183 6.38146 8.15509 7.30849C7.88482 7.76658 7.6877 7.99439 7.51352 8.19585C7.31732 8.42242 7.14996 8.61613 6.93951 9.06678L6.15381 8.64836Z" fill="url(#paint4_radial_177_29270)"/>
<path d="M8.18978 8.35805C7.97654 8.61065 7.62848 8.95902 7.61267 8.98196L9.58234 7.88074C9.54112 7.51377 9.27054 7.08141 8.93797 6.4668C9.00523 7.27698 8.68909 7.76638 8.18978 8.35805Z" fill="url(#paint5_radial_177_29270)"/>
<path d="M9.56778 8.24683C9.51478 8.48176 9.22468 8.97054 9.01144 9.22438C8.33763 10.0259 7.98678 10.3677 7.41029 11.5737C7.37774 11.4432 7.34365 11.3202 7.31111 11.2027C7.15025 10.6225 7.05138 10.1393 7.24416 9.72276L9.56778 8.24683Z" fill="url(#paint6_radial_177_29270)"/>
<path d="M6.96584 10.9638C6.80095 10.4812 6.68256 10.0777 6.76872 9.5672L6.08003 9.11841C6.04191 9.86939 6.3627 10.7462 7.24851 11.875C7.2014 11.5954 7.06006 11.2396 6.96584 10.9638Z" fill="url(#paint7_radial_177_29270)"/>
<path d="M5.62095 8.81936C5.63273 9.06359 5.78367 9.7092 5.9188 10.0508C5.53324 9.55888 5.11172 8.80417 4.99115 8.40869L5.62095 8.81936Z" fill="url(#paint8_radial_177_29270)"/>
<defs>
<linearGradient id="paint0_linear_177_29270" x1="7.33333" y1="0" x2="7.33333" y2="15" gradientUnits="userSpaceOnUse">
<stop stop-color="#FE5468"/>
<stop offset="1" stop-color="#FFDF27"/>
</linearGradient>
<linearGradient id="paint1_linear_177_29270" x1="7.33333" y1="0" x2="7.33333" y2="15" gradientUnits="userSpaceOnUse">
<stop stop-color="#FE5468"/>
<stop offset="1" stop-color="#FFDF27"/>
</linearGradient>
<linearGradient id="paint2_linear_177_29270" x1="10.666" y1="0" x2="10.666" y2="5.625" gradientUnits="userSpaceOnUse">
<stop stop-color="#FE5468"/>
<stop offset="1" stop-color="#FFDF27"/>
</linearGradient>
<radialGradient id="paint3_radial_177_29270" cx="0" cy="0" r="1" gradientTransform="matrix(-1.88758 3.5632 -1.92311 -3.01789 6.9776 5.11417)" gradientUnits="userSpaceOnUse">
<stop stop-color="#1DF7EF"/>
<stop offset="1" stop-color="#10808C"/>
</radialGradient>
<radialGradient id="paint4_radial_177_29270" cx="0" cy="0" r="1" gradientTransform="matrix(-1.69345 3.51994 -1.72532 -2.98125 8.01114 5.85002)" gradientUnits="userSpaceOnUse">
<stop stop-color="#1DF7EF"/>
<stop offset="1" stop-color="#10808C"/>
</radialGradient>
<radialGradient id="paint5_radial_177_29270" cx="0" cy="0" r="1" gradientTransform="matrix(-1.45839 1.89733 -1.48583 -1.60697 9.21219 7.24805)" gradientUnits="userSpaceOnUse">
<stop stop-color="#1DF7EF"/>
<stop offset="1" stop-color="#10808C"/>
</radialGradient>
<radialGradient id="paint6_radial_177_29270" cx="0" cy="0" r="1" gradientTransform="matrix(-1.79902 2.50967 -1.83288 -2.12559 9.11118 9.28022)" gradientUnits="userSpaceOnUse">
<stop stop-color="#1DF7EF"/>
<stop offset="1" stop-color="#10808C"/>
</radialGradient>
<radialGradient id="paint7_radial_177_29270" cx="0" cy="0" r="1" gradientTransform="matrix(-0.867391 2.07947 -0.883715 -1.76123 7.02836 9.97466)" gradientUnits="userSpaceOnUse">
<stop stop-color="#1DF7EF"/>
<stop offset="1" stop-color="#10808C"/>
</radialGradient>
<radialGradient id="paint8_radial_177_29270" cx="0" cy="0" r="1" gradientTransform="matrix(-0.686853 1.2387 -0.69978 -1.04913 5.74447 8.91874)" gradientUnits="userSpaceOnUse">
<stop stop-color="#1DF7EF"/>
<stop offset="1" stop-color="#10808C"/>
</radialGradient>
</defs>
</svg>
