<svg width="15" height="15" viewBox="0 0 15 15" fill="none" xmlns="http://www.w3.org/2000/svg">
<g clip-path="url(#clip0_12026_39133)">
<path d="M8.00003 2.15467H9.35225C9.90039 2.15467 10.1998 2.85392 9.84892 3.31449L7.99667 5.74556C7.73819 6.08481 7.26181 6.08481 7.00333 5.74556L5.15108 3.31449C4.80017 2.85392 5.09961 2.15467 5.64775 2.15467L7.00002 2.15467L7.00002 0H7.99667L8.00003 2.15467Z" fill="url(#paint0_linear_12026_39133)"/>
<path d="M8.00003 12.8453H9.35225C9.90039 12.8453 10.1998 12.1461 9.84892 11.6855L7.99667 9.25444C7.73819 8.91519 7.26181 8.91519 7.00333 9.25444L5.15108 11.6855C4.80017 12.1461 5.09961 12.8453 5.64775 12.8453H7.00002V15H7.99667L8.00003 12.8453Z" fill="url(#paint1_linear_12026_39133)"/>
<path fill-rule="evenodd" clip-rule="evenodd" d="M4 7L2 7L2 8.5L4 8.5L4 7ZM10 7L8 7L8 8.5L10 8.5L10 7ZM15 7L14 7L14 8.5L15 8.5L15 7Z" fill="url(#paint2_linear_12026_39133)"/>
<path d="M1 7L-1.31134e-07 7L0 8.5L1 8.5L1 7Z" fill="url(#paint3_linear_12026_39133)"/>
<path d="M7 7L5 7L5 8.5L7 8.5L7 7Z" fill="url(#paint4_linear_12026_39133)"/>
<path d="M13 7L11 7L11 8.5L13 8.5L13 7Z" fill="url(#paint5_linear_12026_39133)"/>
</g>
<defs>
<linearGradient id="paint0_linear_12026_39133" x1="7.5" y1="6" x2="11.7286" y2="1.0459" gradientUnits="userSpaceOnUse">
<stop stop-color="#FE5468"/>
<stop offset="1" stop-color="#FFDF27"/>
</linearGradient>
<linearGradient id="paint1_linear_12026_39133" x1="7.5" y1="9" x2="7.5" y2="15" gradientUnits="userSpaceOnUse">
<stop stop-color="#10808C"/>
<stop offset="1" stop-color="#1DF7EF"/>
</linearGradient>
<linearGradient id="paint2_linear_12026_39133" x1="8.5" y1="8.5" x2="8.5" y2="7" gradientUnits="userSpaceOnUse">
<stop stop-color="#10808C"/>
<stop offset="1" stop-color="#1DF7EF"/>
</linearGradient>
<linearGradient id="paint3_linear_12026_39133" x1="6.5" y1="8.5" x2="6.67453" y2="6.37348" gradientUnits="userSpaceOnUse">
<stop stop-color="#FE5468"/>
<stop offset="1" stop-color="#FFDF27"/>
</linearGradient>
<linearGradient id="paint4_linear_12026_39133" x1="6.5" y1="8.5" x2="6.67453" y2="6.37348" gradientUnits="userSpaceOnUse">
<stop stop-color="#FE5468"/>
<stop offset="1" stop-color="#FFDF27"/>
</linearGradient>
<linearGradient id="paint5_linear_12026_39133" x1="6.5" y1="8.5" x2="6.67453" y2="6.37348" gradientUnits="userSpaceOnUse">
<stop stop-color="#FE5468"/>
<stop offset="1" stop-color="#FFDF27"/>
</linearGradient>
<clipPath id="clip0_12026_39133">
<rect width="15" height="15" fill="white"/>
</clipPath>
</defs>
</svg>
