<svg width="15" height="15" viewBox="0 0 15 15" fill="none" xmlns="http://www.w3.org/2000/svg">
<g clip-path="url(#clip0_7416_32468)">
<path fill-rule="evenodd" clip-rule="evenodd" d="M5.99064 0.496905C6.75275 -0.165635 7.87733 -0.165635 8.63943 0.496905L9.26571 1.04136L9.89199 0.496905C10.6541 -0.165635 11.7787 -0.165635 12.5408 0.496905C13.4408 1.27937 13.4936 2.67337 12.6554 3.52354L9.28547 6.94146L9.26571 6.92142L9.24596 6.94146L5.87603 3.52354C5.0378 2.67337 5.09059 1.27937 5.99064 0.496905ZM9.26571 5.56254L11.9657 2.82406C12.4022 2.38134 12.3748 1.65543 11.9061 1.24797C11.5092 0.90296 10.9236 0.90296 10.5267 1.24797L9.31609 2.30043L9.27342 2.35093L9.26571 2.34423L9.25801 2.35093L9.21533 2.30043L8.0047 1.24797C7.60784 0.90296 7.02223 0.90296 6.62537 1.24797C6.15668 1.65543 6.12919 2.38134 6.56569 2.82406L9.26571 5.56254Z" fill="url(#paint0_linear_7416_32468)"/>
<path fill-rule="evenodd" clip-rule="evenodd" d="M12.518 7.7608C13.1512 7.35025 13.9943 7.43144 14.5324 7.9548C15.1137 8.5202 15.1585 9.42253 14.6359 10.0398L12.392 12.6897C11.1534 14.1525 9.30698 15 7.3585 15H4.44505C3.07608 15 1.75042 14.5332 0.698744 13.6809L0.661764 13.6509C0.242445 13.311 0 12.8076 0 12.2767V10.8206C0 10.6283 0.031869 10.4373 0.0943804 10.2549L0.172097 10.0282C0.3367 9.54792 0.702839 9.15799 1.17972 8.95507L3.3614 8.02677C5.09808 7.28781 7.1294 7.88991 8.14711 9.44531L8.21671 9.55168C8.46832 9.93623 8.99577 10.0445 9.38572 9.79168L12.518 7.7608ZM13.823 8.6447C13.6231 8.45021 13.3097 8.42004 13.0744 8.57261L9.94219 10.6035C9.89717 10.6327 9.85131 10.6597 9.80475 10.6845L9.80851 10.69L8.13911 11.7724C7.83699 11.9683 7.48201 12.0728 7.11892 12.0728H3.84555V11.0972H7.11892C7.28396 11.0972 7.44531 11.0496 7.58264 10.9606L8.02216 10.6756C7.7655 10.5359 7.53957 10.3341 7.37036 10.0755L7.30076 9.96912C6.54854 8.81948 5.04713 8.37445 3.76349 8.92064L1.58181 9.84894C1.36505 9.94117 1.19862 10.1184 1.1238 10.3367L1.04609 10.5635C1.01767 10.6464 1.00319 10.7332 1.00319 10.8206V12.2767C1.00319 12.518 1.11339 12.7469 1.30399 12.9013L1.34097 12.9313C2.21236 13.6376 3.31076 14.0243 4.44505 14.0243H7.3585C9.00721 14.0243 10.5695 13.3073 11.6176 12.0695L13.8615 9.41952C14.0557 9.19015 14.0391 8.85482 13.823 8.6447Z" fill="url(#paint1_linear_7416_32468)"/>
</g>
<defs>
<linearGradient id="paint0_linear_7416_32468" x1="9.26571" y1="0" x2="13.7006" y2="7.16018" gradientUnits="userSpaceOnUse">
<stop stop-color="#FE5468"/>
<stop offset="1" stop-color="#FFDF27"/>
</linearGradient>
<linearGradient id="paint1_linear_7416_32468" x1="7.5" y1="7.5" x2="7.5" y2="15" gradientUnits="userSpaceOnUse">
<stop stop-color="#10808C"/>
<stop offset="1" stop-color="#1DF7EF"/>
</linearGradient>
<clipPath id="clip0_7416_32468">
<rect width="15" height="15" fill="white"/>
</clipPath>
</defs>
</svg>
