<svg width="15" height="15" viewBox="0 0 15 15" fill="none" xmlns="http://www.w3.org/2000/svg">
<path fill-rule="evenodd" clip-rule="evenodd" d="M12 8H3C2.44772 8 2 8.44772 2 9V13C2 13.5523 2.44772 14 3 14H12C12.5523 14 13 13.5523 13 13V9C13 8.44772 12.5523 8 12 8ZM3 7C1.89543 7 1 7.89543 1 9V13C1 14.1046 1.89543 15 3 15H12C13.1046 15 14 14.1046 14 13V9C14 7.89543 13.1046 7 12 7H3Z" fill="url(#paint0_linear_2071_69508)"/>
<path d="M11 4.5C11 2.567 9.433 1 7.5 1C5.567 1 4 2.567 4 4.5V6.99966H3V4.5C3 2.01472 5.01472 0 7.5 0C9.98528 0 12 2.01472 12 4.5V6.99966H11V4.5Z" fill="url(#paint1_linear_2071_69508)"/>
<path d="M7.495 9C8.25439 9 8.87 9.61561 8.87 10.375C8.87 10.9735 8.48707 11.481 7.95333 11.6699V12.8958C7.95333 13.149 7.74813 13.3542 7.495 13.3542C7.24186 13.3542 7.03666 13.149 7.03666 12.8958V11.6699C6.50292 11.481 6.12 10.9735 6.12 10.375C6.12 9.61561 6.7356 9 7.495 9Z" fill="url(#paint2_linear_2071_69508)"/>
<defs>
<linearGradient id="paint0_linear_2071_69508" x1="7.5" y1="7" x2="7.5" y2="15" gradientUnits="userSpaceOnUse">
<stop stop-color="#10808C"/>
<stop offset="1" stop-color="#1DF7EF"/>
</linearGradient>
<linearGradient id="paint1_linear_2071_69508" x1="7.5" y1="0" x2="7.5" y2="6.99966" gradientUnits="userSpaceOnUse">
<stop stop-color="#FE5468"/>
<stop offset="1" stop-color="#FFDF27"/>
</linearGradient>
<linearGradient id="paint2_linear_2071_69508" x1="7.495" y1="9" x2="7.495" y2="13.3542" gradientUnits="userSpaceOnUse">
<stop stop-color="#FE5468"/>
<stop offset="1" stop-color="#FFDF27"/>
</linearGradient>
</defs>
</svg>
