<svg width="24" height="24" viewBox="0 0 24 24" fill="none" xmlns="http://www.w3.org/2000/svg">
<path fill-rule="evenodd" clip-rule="evenodd" d="M1.22039 15.2814C2.00179 14.4609 3.0616 14 4.16667 14H10.8333C11.9384 14 12.9982 14.4609 13.7796 15.2814C14.561 16.1019 15 17.2147 15 18.375V20.125C15 20.6082 14.6269 21 14.1667 21C13.7064 21 13.3333 20.6082 13.3333 20.125V18.375C13.3333 17.6788 13.0699 17.0111 12.6011 16.5188C12.1323 16.0266 11.4964 15.75 10.8333 15.75H4.16667C3.50363 15.75 2.86774 16.0266 2.3989 16.5188C1.93006 17.0111 1.66667 17.6788 1.66667 18.375V20.125C1.66667 20.6082 1.29357 21 0.833333 21C0.373096 21 0 20.6082 0 20.125V18.375C0 17.2147 0.438987 16.1019 1.22039 15.2814Z" fill="url(#paint0_linear_3218_87768)"/>
<path fill-rule="evenodd" clip-rule="evenodd" d="M7.5 5.8C6.00883 5.8 4.8 7.00883 4.8 8.5C4.8 9.99117 6.00883 11.2 7.5 11.2C8.99117 11.2 10.2 9.99117 10.2 8.5C10.2 7.00883 8.99117 5.8 7.5 5.8ZM3 8.5C3 6.01472 5.01472 4 7.5 4C9.98528 4 12 6.01472 12 8.5C12 10.9853 9.98528 13 7.5 13C5.01472 13 3 10.9853 3 8.5Z" fill="url(#paint1_linear_3218_87768)"/>
<path fill-rule="evenodd" clip-rule="evenodd" d="M10.2204 15.2814C11.0018 14.4609 12.0616 14 13.1667 14H19.8333C20.9384 14 21.9982 14.4609 22.7796 15.2814C23.561 16.1019 24 17.2147 24 18.375V20.125C24 20.6082 23.6269 21 23.1667 21C22.7064 21 22.3333 20.6082 22.3333 20.125V18.375C22.3333 17.6788 22.0699 17.0111 21.6011 16.5188C21.1323 16.0266 20.4964 15.75 19.8333 15.75H13.1667C12.5036 15.75 11.8677 16.0266 11.3989 16.5188C10.9301 17.0111 10.6667 17.6788 10.6667 18.375V20.125C10.6667 20.6082 10.2936 21 9.83333 21C9.3731 21 9 20.6082 9 20.125V18.375C9 17.2147 9.43899 16.1019 10.2204 15.2814Z" fill="url(#paint2_linear_3218_87768)"/>
<path fill-rule="evenodd" clip-rule="evenodd" d="M16.5 5.8C15.0088 5.8 13.8 7.00883 13.8 8.5C13.8 9.99117 15.0088 11.2 16.5 11.2C17.9912 11.2 19.2 9.99117 19.2 8.5C19.2 7.00883 17.9912 5.8 16.5 5.8ZM12 8.5C12 6.01472 14.0147 4 16.5 4C18.9853 4 21 6.01472 21 8.5C21 10.9853 18.9853 13 16.5 13C14.0147 13 12 10.9853 12 8.5Z" fill="url(#paint3_linear_3218_87768)"/>
<defs>
<linearGradient id="paint0_linear_3218_87768" x1="7.5" y1="14" x2="7.5" y2="21" gradientUnits="userSpaceOnUse">
<stop stop-color="#10808C"/>
<stop offset="1" stop-color="#1DF7EF"/>
</linearGradient>
<linearGradient id="paint1_linear_3218_87768" x1="7.5" y1="4" x2="7.5" y2="13" gradientUnits="userSpaceOnUse">
<stop stop-color="#10808C"/>
<stop offset="1" stop-color="#1DF7EF"/>
</linearGradient>
<linearGradient id="paint2_linear_3218_87768" x1="16.5" y1="14" x2="16.5" y2="21" gradientUnits="userSpaceOnUse">
<stop stop-color="#FE5468"/>
<stop offset="1" stop-color="#FFDF27"/>
</linearGradient>
<linearGradient id="paint3_linear_3218_87768" x1="16.5" y1="4" x2="16.5" y2="13" gradientUnits="userSpaceOnUse">
<stop stop-color="#FE5468"/>
<stop offset="1" stop-color="#FFDF27"/>
</linearGradient>
</defs>
</svg>
