<svg width="15" height="15" viewBox="0 0 15 15" fill="none" xmlns="http://www.w3.org/2000/svg">
<g clip-path="url(#clip0_10815_37746)">
<path d="M8.24091 3.48536L9.29562 2.43065C9.08605 2.08068 8.83329 1.75577 8.54165 1.46412C7.82312 0.745598 6.90268 0.263113 5.90299 0.0809677C4.9033 -0.101178 3.87184 0.0256661 2.94607 0.444596C2.73249 0.541245 2.57995 0.736563 2.53793 0.967194C2.49591 1.19782 2.56976 1.43439 2.73552 1.60016L5.42267 4.2873C5.90125 4.05049 6.30156 4.03272 6.82208 4.00154C6.76742 3.73393 6.63669 3.48546 6.44268 3.28754L6.43768 3.28244L4.60601 1.45082C4.9509 1.41184 5.3016 1.42314 5.64698 1.48607C6.36104 1.61617 7.0185 1.96081 7.53173 2.47404C7.82674 2.76904 8.06604 3.1117 8.24091 3.48536Z" fill="url(#paint0_linear_10815_37746)"/>
<path d="M2.19992 7.21735C1.83913 6.76063 1.59408 6.2208 1.489 5.64405C1.42607 5.29867 1.41478 4.94797 1.45375 4.60308L3.13397 6.2833L4.14388 5.27339L1.60309 2.73259C1.43732 2.56683 1.20076 2.49298 0.970125 2.535C0.739494 2.57702 0.544175 2.72956 0.447527 2.94314C0.0285969 3.86891 -0.0982485 4.90037 0.0838985 5.90006C0.241078 6.76273 0.621908 7.56638 1.18507 8.2322L2.19992 7.21735Z" fill="url(#paint1_linear_10815_37746)"/>
<path d="M10.6727 9.5373L13.3402 12.2048C13.4903 12.355 13.5747 12.5586 13.5747 12.771C13.5747 12.9834 13.4903 13.1871 13.3402 13.3372C13.19 13.4874 12.9863 13.5718 12.7739 13.5718C12.5616 13.5718 12.3579 13.4874 12.2077 13.3372L9.7287 10.8582L8.71879 11.8681L11.1978 14.3471C11.6158 14.7652 12.1828 15 12.7739 15C13.3651 15 13.9321 14.7652 14.3501 14.3471C14.7681 13.9291 15.0029 13.3622 15.0029 12.771C15.0029 12.1798 14.7681 11.6129 14.3501 11.1949L11.0066 7.85141C11.0198 8.42479 10.9086 9.00172 10.6727 9.5373Z" fill="url(#paint2_linear_10815_37746)"/>
<path fill-rule="evenodd" clip-rule="evenodd" d="M14.8643 0.740077C15.0265 0.902311 15.0575 1.15414 14.9395 1.35088L13.5733 3.62781C13.4896 3.76727 13.2972 3.79097 13.1822 3.67596L12.8313 3.32512L9.76934 6.38712C9.46965 6.6868 9.41207 7.14166 9.47797 7.56033C9.59559 8.30765 9.36647 9.09899 8.79058 9.67488L4.17258 14.2929C3.21616 15.2493 1.6655 15.2493 0.709076 14.2929C-0.247344 13.3365 -0.247344 11.7858 0.709077 10.8294L5.32708 6.21137C5.90296 5.63549 6.6943 5.40636 7.44163 5.52399C7.86029 5.58988 8.31515 5.5323 8.61484 5.23262L11.6768 2.17062L11.326 1.81978C11.211 1.70478 11.2347 1.51231 11.3741 1.42863L13.6511 0.0624755C13.8478 -0.0555674 14.0996 -0.0245657 14.2619 0.137669L14.8643 0.740077ZM7.6363 7.36453C7.9551 7.68334 7.9551 8.20023 7.63629 8.51903L3.01829 13.137C2.69949 13.4558 2.1826 13.4558 1.86379 13.137C1.54499 12.8182 1.54499 12.3013 1.86379 11.9825L6.4818 7.36453C6.8006 7.04573 7.31749 7.04572 7.6363 7.36453Z" fill="url(#paint3_linear_10815_37746)"/>
</g>
<defs>
<linearGradient id="paint0_linear_10815_37746" x1="7.50293" y1="0" x2="7.50293" y2="15" gradientUnits="userSpaceOnUse">
<stop stop-color="#10808C"/>
<stop offset="1" stop-color="#1DF7EF"/>
</linearGradient>
<linearGradient id="paint1_linear_10815_37746" x1="7.50293" y1="0" x2="7.50293" y2="15" gradientUnits="userSpaceOnUse">
<stop stop-color="#10808C"/>
<stop offset="1" stop-color="#1DF7EF"/>
</linearGradient>
<linearGradient id="paint2_linear_10815_37746" x1="7.50293" y1="0" x2="7.50293" y2="15" gradientUnits="userSpaceOnUse">
<stop stop-color="#10808C"/>
<stop offset="1" stop-color="#1DF7EF"/>
</linearGradient>
<linearGradient id="paint3_linear_10815_37746" x1="7.50125" y1="-0.00878906" x2="-2.62327" y2="14.2253" gradientUnits="userSpaceOnUse">
<stop stop-color="#FE5468"/>
<stop offset="1" stop-color="#FFDF27"/>
</linearGradient>
<clipPath id="clip0_10815_37746">
<rect width="15" height="15" fill="white"/>
</clipPath>
</defs>
</svg>
