<svg width="16" height="15" viewBox="0 0 16 15" fill="none" xmlns="http://www.w3.org/2000/svg">
<g clip-path="url(#clip0_7416_32453)">
<path fill-rule="evenodd" clip-rule="evenodd" d="M8 14.0625C11.6244 14.0625 14.5625 11.1244 14.5625 7.5C14.5625 3.87563 11.6244 0.9375 8 0.9375C4.37563 0.9375 1.4375 3.87563 1.4375 7.5C1.4375 11.1244 4.37563 14.0625 8 14.0625ZM8 15C12.1421 15 15.5 11.6421 15.5 7.5C15.5 3.35786 12.1421 0 8 0C3.85786 0 0.5 3.35786 0.5 7.5C0.5 11.6421 3.85786 15 8 15Z" fill="url(#paint0_linear_7416_32453)"/>
<path fill-rule="evenodd" clip-rule="evenodd" d="M10.0049 5.9472C10.0049 4.79664 9.10712 3.86393 7.99967 3.86393C6.89223 3.86393 5.99447 4.79664 5.99447 5.9472V10.3034H10.0049V5.9472ZM10.9163 5.94747V10.9347C10.9163 11.109 10.7803 11.2503 10.6125 11.2503H5.38683C5.21903 11.2503 5.08301 11.109 5.08301 10.9347V5.94747C5.08301 4.27393 6.38884 2.91699 7.99967 2.91699C9.61051 2.91699 10.9163 4.27393 10.9163 5.94747Z" fill="url(#paint1_linear_7416_32453)"/>
</g>
<defs>
<linearGradient id="paint0_linear_7416_32453" x1="8" y1="0" x2="8" y2="15" gradientUnits="userSpaceOnUse">
<stop stop-color="#10808C"/>
<stop offset="1" stop-color="#1DF7EF"/>
</linearGradient>
<linearGradient id="paint1_linear_7416_32453" x1="7.99967" y1="2.91699" x2="13.9457" y2="8.76864" gradientUnits="userSpaceOnUse">
<stop stop-color="#FE5468"/>
<stop offset="1" stop-color="#FFDF27"/>
</linearGradient>
<clipPath id="clip0_7416_32453">
<rect width="15" height="15" fill="white" transform="translate(0.5)"/>
</clipPath>
</defs>
</svg>
