<svg width="24" height="24" viewBox="0 0 24 24" fill="none" xmlns="http://www.w3.org/2000/svg">
<g clip-path="url(#clip0_3218_87113)">
<path fill-rule="evenodd" clip-rule="evenodd" d="M18.1934 0C21.4003 0 24 2.59964 24 5.80645C24 9.01327 21.4003 11.6129 18.1934 11.6129C17.3072 11.6129 16.4666 11.4142 15.7145 11.0586C15.2873 12.1639 14.6255 13.1525 13.79 13.9633C13.9649 13.9449 14.1425 13.9355 14.3223 13.9355C17.1016 13.9355 19.3547 16.1885 19.3547 18.9677C19.3547 21.747 17.1016 24 14.3223 24C11.543 24 9.28986 21.747 9.28986 18.9677C9.28986 17.8449 9.65763 16.8079 10.2793 15.9707C9.59448 16.1581 8.87359 16.2581 8.12929 16.2581C3.6396 16.2581 0 12.6186 0 8.12903C0 3.63949 3.6396 0 8.12929 0C10.2668 0 12.2122 0.825425 13.663 2.17408C14.7267 0.849161 16.3608 0 18.1934 0ZM21.6773 5.80645C21.6773 3.88236 20.1175 2.32258 18.1934 2.32258C16.2692 2.32258 14.7094 3.88236 14.7094 5.80645C14.7094 7.73054 16.2692 9.29032 18.1934 9.29032C20.1175 9.29032 21.6773 7.73054 21.6773 5.80645ZM10.839 5.80645C10.839 4.91252 10.9993 4.0537 11.2928 3.25883C10.3827 2.66603 9.2973 2.32258 8.12929 2.32258C4.92237 2.32258 2.32265 4.92222 2.32265 8.12903C2.32265 11.3358 4.92237 13.9355 8.12929 13.9355C10.2405 13.9355 12.0914 12.8083 13.1083 11.1193C11.7119 9.78215 10.839 7.89663 10.839 5.80645ZM17.032 18.9677C17.032 17.4712 15.8188 16.2581 14.3223 16.2581C12.8257 16.2581 11.6125 17.4712 11.6125 18.9677C11.6125 20.4643 12.8257 21.6774 14.3223 21.6774C15.8188 21.6774 17.032 20.4643 17.032 18.9677Z" fill="url(#paint0_linear_3218_87113)"/>
</g>
<defs>
<linearGradient id="paint0_linear_3218_87113" x1="12" y1="0" x2="12" y2="24" gradientUnits="userSpaceOnUse">
<stop stop-color="#FE5468"/>
<stop offset="1" stop-color="#FFDF27"/>
</linearGradient>
<clipPath id="clip0_3218_87113">
<rect width="24" height="24" fill="white"/>
</clipPath>
</defs>
</svg>
