<svg width="15" height="15" viewBox="0 0 15 15" fill="none" xmlns="http://www.w3.org/2000/svg">
<g clip-path="url(#clip0_6590_27427)">
<path fill-rule="evenodd" clip-rule="evenodd" d="M14.7256 14.8095C14.4716 15.0635 14.0597 15.0635 13.8057 14.8095L9.06256 10.0663C8.80854 9.81231 8.80854 9.40046 9.06256 9.14643L9.14643 9.06256C9.40046 8.80854 9.81231 8.80854 10.0663 9.06256L14.8095 13.8057C15.0635 14.0597 15.0635 14.4716 14.8095 14.7256L14.7256 14.8095Z" fill="url(#paint0_linear_6590_27427)"/>
<path fill-rule="evenodd" clip-rule="evenodd" d="M11.8751 5.93754C11.8751 9.21675 9.21675 11.8751 5.93754 11.8751C2.65833 11.8751 0 9.21675 0 5.93754C0 2.65833 2.65833 0 5.93754 0C9.21675 0 11.8751 2.65833 11.8751 5.93754ZM5.93754 10.2557C8.32242 10.2557 10.2557 8.32242 10.2557 5.93754C10.2557 3.55266 8.32242 1.61933 5.93754 1.61933C3.55266 1.61933 1.61933 3.55266 1.61933 5.93754C1.61933 8.32242 3.55266 10.2557 5.93754 10.2557Z" fill="url(#paint1_linear_6590_27427)"/>
<path d="M4.51953 4.22464C4.58176 4.08698 4.88119 3.50597 6.13281 3.50589C7.61938 3.50589 8.80663 4.68333 8.80664 6.11331C8.80664 6.87746 8.59457 7.19618 8.4502 7.33011C8.30732 7.46254 8.14872 7.48978 8.07812 7.49319C8.04111 7.41421 8.01 7.27698 7.96484 7.01566C7.88727 6.56669 7.78463 5.84057 7.27734 5.25687L7.16992 5.14261C6.56031 4.533 5.66907 4.43076 5.12793 4.35159C4.81899 4.3064 4.63334 4.2738 4.51953 4.22464Z" fill="url(#paint2_linear_6590_27427)" stroke="url(#paint3_linear_6590_27427)" stroke-width="1.01208"/>
</g>
<defs>
<linearGradient id="paint0_linear_6590_27427" x1="11.9361" y1="8.87213" x2="16.067" y2="14.6797" gradientUnits="userSpaceOnUse">
<stop stop-color="#FE5468"/>
<stop offset="1" stop-color="#FFDF27"/>
</linearGradient>
<linearGradient id="paint1_linear_6590_27427" x1="5.93754" y1="0" x2="13.9427" y2="11.2545" gradientUnits="userSpaceOnUse">
<stop stop-color="#FE5468"/>
<stop offset="1" stop-color="#FFDF27"/>
</linearGradient>
<linearGradient id="paint2_linear_6590_27427" x1="4" y1="5.50001" x2="9.31254" y2="5.50001" gradientUnits="userSpaceOnUse">
<stop stop-color="#10808C"/>
<stop offset="1" stop-color="#1DF7EF"/>
</linearGradient>
<linearGradient id="paint3_linear_6590_27427" x1="4" y1="5.50001" x2="9.31254" y2="5.50001" gradientUnits="userSpaceOnUse">
<stop stop-color="#10808C"/>
<stop offset="1" stop-color="#1DF7EF"/>
</linearGradient>
<clipPath id="clip0_6590_27427">
<rect width="15" height="15" fill="white"/>
</clipPath>
</defs>
</svg>
