<svg width="24" height="24" viewBox="0 0 24 24" fill="none" xmlns="http://www.w3.org/2000/svg">
<g clip-path="url(#clip0_3218_86714)">
<path d="M19.3333 19.7578C19.3333 20.5293 19.0756 21.269 18.6172 21.8145C18.1588 22.36 17.537 22.6667 16.8887 22.6667H10.6673C11.1031 22.0865 11.4448 21.4324 11.6738 20.7272H16.8887C17.1047 20.7272 17.312 20.6251 17.4648 20.4434C17.6176 20.2616 17.7037 20.0149 17.7038 19.7578V19.3848H19.3333V19.7578Z" fill="url(#paint0_linear_3218_86714)"/>
<path d="M13.6296 1.33334C13.8457 1.33334 14.2919 1.43534 14.4447 1.6172L18.8919 6.36004C19.0448 6.54187 19.3333 6.81978 19.3333 7.07683V11.1797H17.7038V7.07683L13.5306 2.97462H7.11133C6.89525 2.97462 6.68796 3.07665 6.53516 3.25847C6.38236 3.44032 6.29623 3.68686 6.29622 3.94402V6.25652H4.66667V4.2422C4.66672 3.47075 4.92444 2.73106 5.38281 2.18556C5.84123 1.64 6.46302 1.33334 7.11133 1.33334H13.6296Z" fill="url(#paint1_linear_3218_86714)"/>
<path fill-rule="evenodd" clip-rule="evenodd" d="M14.0833 1.33334C14.4975 1.33334 14.8333 1.66913 14.8333 2.08334V5.83334H18.5833C18.9975 5.83334 19.3333 6.16913 19.3333 6.58334C19.3333 6.99756 19.3333 7.33334 19.3333 7.33334H14.8333C14.0049 7.33334 13.3333 6.66177 13.3333 5.83334V1.33382C13.3333 1.33382 13.6691 1.33334 14.0833 1.33334Z" fill="url(#paint2_linear_3218_86714)"/>
<path fill-rule="evenodd" clip-rule="evenodd" d="M20.8003 11.635L23.7322 14.9388C24.0893 15.341 24.0893 15.9932 23.7322 16.3954L20.8003 19.6983C20.4432 20.1006 19.8643 20.1006 19.5073 19.6983C19.1502 19.2961 19.1502 18.6439 19.5073 18.2417L20.8784 16.6971L13.6667 16.6972C13.4826 16.6972 13.3333 16.5479 13.3333 16.3638V14.9705C13.3333 14.7864 13.4826 14.6372 13.6667 14.6372L20.8784 14.6371L19.5073 13.0917C19.1502 12.6894 19.1502 12.0373 19.5073 11.635C19.8643 11.2328 20.4432 11.2328 20.8003 11.635Z" fill="url(#paint3_linear_3218_86714)"/>
<path d="M3.39979 6.30201C3.77916 5.89978 4.39412 5.89978 4.77349 6.30201C5.15271 6.70426 5.15281 7.35621 4.77349 7.75839L3.31646 9.30267H11.0001C11.1841 9.30269 11.3333 9.45202 11.3334 9.636V11.0292C11.3334 11.2133 11.1841 11.3625 11.0001 11.3626L3.31646 11.3632L4.03651 12.1269C3.31088 12.27 2.6282 12.5314 2.00787 12.8893L0.284558 11.0611C-0.0947474 10.6589 -0.0947421 10.007 0.284558 9.60475L3.39979 6.30201Z" fill="url(#paint4_linear_3218_86714)"/>
<path fill-rule="evenodd" clip-rule="evenodd" d="M5.33333 14.303C2.92336 14.303 0.969697 16.2567 0.969697 18.6667C0.969697 21.0766 2.92336 23.0303 5.33333 23.0303C7.7433 23.0303 9.69697 21.0766 9.69697 18.6667C9.69697 16.2567 7.7433 14.303 5.33333 14.303ZM0 18.6667C0 15.7212 2.38781 13.3333 5.33333 13.3333C8.27885 13.3333 10.6667 15.7212 10.6667 18.6667C10.6667 21.6122 8.27885 24 5.33333 24C2.38781 24 0 21.6122 0 18.6667Z" fill="url(#paint5_linear_3218_86714)"/>
<path d="M4.83333 15.3333C4.83333 15.0572 5.05719 14.8333 5.33333 14.8333C5.60948 14.8333 5.83333 15.0572 5.83333 15.3333V18.9238L3.29036 20.7402C3.06567 20.9006 2.75356 20.8484 2.5931 20.6237C2.43275 20.399 2.48499 20.0869 2.70963 19.9264L4.83333 18.4095V15.3333Z" fill="url(#paint6_linear_3218_86714)"/>
<path d="M9.66668 16C10.219 16 10.6667 16.4477 10.6667 17C10.6667 17.5523 10.219 18 9.66668 18C9.38872 18 9.13763 17.8862 8.95639 17.7031L5.44728 18.9798C5.27429 19.0427 5.08313 18.9536 5.02019 18.7806C4.95729 18.6076 5.04644 18.4164 5.21941 18.3535L8.67124 17.0977C8.66812 17.0655 8.66668 17.0329 8.66668 17C8.66668 16.4477 9.11439 16 9.66668 16Z" fill="url(#paint7_linear_3218_86714)"/>
</g>
<defs>
<linearGradient id="paint0_linear_3218_86714" x1="12" y1="1.33334" x2="12" y2="22.6667" gradientUnits="userSpaceOnUse">
<stop stop-color="#10808C"/>
<stop offset="1" stop-color="#1DF7EF"/>
</linearGradient>
<linearGradient id="paint1_linear_3218_86714" x1="12" y1="1.33334" x2="12" y2="22.6667" gradientUnits="userSpaceOnUse">
<stop stop-color="#10808C"/>
<stop offset="1" stop-color="#1DF7EF"/>
</linearGradient>
<linearGradient id="paint2_linear_3218_86714" x1="16.3333" y1="1.33334" x2="16.3333" y2="7.33334" gradientUnits="userSpaceOnUse">
<stop stop-color="#FE5468"/>
<stop offset="1" stop-color="#FFDF27"/>
</linearGradient>
<linearGradient id="paint3_linear_3218_86714" x1="18.6667" y1="11.3333" x2="18.6667" y2="20" gradientUnits="userSpaceOnUse">
<stop stop-color="#FE5468"/>
<stop offset="1" stop-color="#FFDF27"/>
</linearGradient>
<linearGradient id="paint4_linear_3218_86714" x1="5.66673" y1="6.00034" x2="5.66673" y2="12.8893" gradientUnits="userSpaceOnUse">
<stop stop-color="#FE5468"/>
<stop offset="1" stop-color="#FFDF27"/>
</linearGradient>
<linearGradient id="paint5_linear_3218_86714" x1="5.33333" y1="13.3333" x2="5.33333" y2="24" gradientUnits="userSpaceOnUse">
<stop stop-color="#FE5468"/>
<stop offset="1" stop-color="#FFDF27"/>
</linearGradient>
<linearGradient id="paint6_linear_3218_86714" x1="4.16672" y1="14.8333" x2="4.16672" y2="20.8332" gradientUnits="userSpaceOnUse">
<stop stop-color="#FE5468"/>
<stop offset="1" stop-color="#FFDF27"/>
</linearGradient>
<linearGradient id="paint7_linear_3218_86714" x1="7.83335" y1="16" x2="7.83335" y2="19" gradientUnits="userSpaceOnUse">
<stop stop-color="#10808C"/>
<stop offset="1" stop-color="#1DF7EF"/>
</linearGradient>
<clipPath id="clip0_3218_86714">
<rect width="24" height="24" fill="white"/>
</clipPath>
</defs>
</svg>
