<svg width="15" height="15" viewBox="0 0 15 15" fill="none" xmlns="http://www.w3.org/2000/svg">
<g clip-path="url(#clip0_10823_38518)">
<path fill-rule="evenodd" clip-rule="evenodd" d="M11.3709 0C13.3752 0 15 1.62477 15 3.62903C15 5.63329 13.3752 7.25806 11.3709 7.25806C10.817 7.25806 10.2916 7.13384 9.82158 6.91165C9.55457 7.60246 9.14092 8.22034 8.61875 8.72706C8.72807 8.71557 8.83906 8.70968 8.95142 8.70968C10.6885 8.70968 12.0967 10.1178 12.0967 11.8548C12.0967 13.5919 10.6885 15 8.95142 15C7.21434 15 5.80616 13.5919 5.80616 11.8548C5.80616 11.1531 6.03602 10.505 6.42455 9.98171C5.99655 10.0988 5.54599 10.1613 5.0808 10.1613C2.27475 10.1613 0 7.88661 0 5.08065C0 2.27468 2.27475 0 5.0808 0C6.41678 0 7.63262 0.515891 8.53938 1.3588C9.2042 0.530725 10.2255 0 11.3709 0ZM13.5483 3.62903C13.5483 2.42648 12.5734 1.45161 11.3709 1.45161C10.1683 1.45161 9.19337 2.42648 9.19337 3.62903C9.19337 4.83159 10.1683 5.80645 11.3709 5.80645C12.5734 5.80645 13.5483 4.83159 13.5483 3.62903ZM6.77441 3.62903C6.77441 3.07033 6.87456 2.53356 7.05802 2.03677C6.48917 1.66627 5.81081 1.45161 5.0808 1.45161C3.07648 1.45161 1.45166 3.07639 1.45166 5.08065C1.45166 7.0849 3.07648 8.70968 5.0808 8.70968C6.40029 8.70968 7.55714 8.00517 8.19267 6.94957C7.31991 6.11384 6.77441 4.9354 6.77441 3.62903ZM10.645 11.8548C10.645 10.9195 9.88677 10.1613 8.95142 10.1613C8.01607 10.1613 7.25782 10.9195 7.25782 11.8548C7.25782 12.7902 8.01607 13.5484 8.95142 13.5484C9.88677 13.5484 10.645 12.7902 10.645 11.8548Z" fill="url(#paint0_linear_10823_38518)"/>
</g>
<defs>
<linearGradient id="paint0_linear_10823_38518" x1="7.5" y1="0" x2="-2.61173" y2="14.2161" gradientUnits="userSpaceOnUse">
<stop stop-color="#FE5468"/>
<stop offset="1" stop-color="#FFDF27"/>
</linearGradient>
<clipPath id="clip0_10823_38518">
<rect width="15" height="15" fill="white"/>
</clipPath>
</defs>
</svg>
