<svg width="15" height="15" viewBox="0 0 15 15" fill="none" xmlns="http://www.w3.org/2000/svg">
<path fill-rule="evenodd" clip-rule="evenodd" d="M0.00274869 3.82918C-0.0529535 2.83579 0.745065 2 1.74925 2H13.2507C14.2549 2 15.053 2.83579 14.9973 3.82918L14.6653 9.74917C14.6256 10.4566 14.0097 10.9953 13.2963 10.9466L7.67812 10.5627C7.64588 10.5605 7.61416 10.5716 7.59053 10.5935L4.95427 13.0313C4.45253 13.4952 3.63198 13.1759 3.58308 12.4977L3.45549 10.7278C3.45063 10.6605 3.38879 10.6116 3.32144 10.6219L1.80593 10.8529C1.05713 10.967 0.372134 10.4167 0.33011 9.66727L0.00274869 3.82918ZM1.74925 2.69322C1.14674 2.69322 0.667928 3.19469 0.701349 3.79072L1.02871 9.62881C1.04781 9.96948 1.35917 10.2196 1.69954 10.1677L3.21505 9.93673C3.68648 9.86487 4.1194 10.2071 4.15339 10.6785L4.28098 12.4483C4.28796 12.5452 4.40519 12.5908 4.47686 12.5245L7.11313 10.0867C7.27852 9.93375 7.50056 9.85568 7.72626 9.8711L13.3444 10.255C13.6687 10.2771 13.9487 10.0323 13.9667 9.71071L14.2987 3.79072C14.3321 3.19469 13.8533 2.69322 13.2507 2.69322H1.74925Z" fill="url(#paint0_linear_177_31075)"/>
<path fill-rule="evenodd" clip-rule="evenodd" d="M11.3692 3.97955C11.4598 3.97955 11.5426 4.03095 11.5827 4.11214L12.263 5.48918L13.7846 5.71136C13.8742 5.72445 13.9487 5.78725 13.9766 5.87336C14.0045 5.95947 13.9812 6.05396 13.9162 6.11713L12.8155 7.18825L13.0753 8.70147C13.0906 8.79072 13.0539 8.88091 12.9805 8.93413C12.9072 8.98735 12.81 8.99436 12.7298 8.95221L11.3692 8.23737L10.0086 8.95221C9.92835 8.99436 9.83114 8.98735 9.75781 8.93413C9.68448 8.88091 9.64776 8.79072 9.66308 8.70147L9.92286 7.18825L8.8221 6.11713C8.75719 6.05396 8.73379 5.95947 8.76174 5.87336C8.78968 5.78725 8.86413 5.72445 8.95379 5.71136L10.4753 5.48918L11.1557 4.11214C11.1958 4.03095 11.2785 3.97955 11.3692 3.97955ZM11.3692 4.75483L10.847 5.81177C10.8123 5.8819 10.7454 5.93054 10.6679 5.94185L9.49975 6.11243L10.3448 6.93475C10.401 6.9894 10.4266 7.06816 10.4134 7.14536L10.214 8.30678L11.2583 7.75808C11.3277 7.72163 11.4106 7.72163 11.48 7.75808L12.5244 8.30678L12.325 7.14536C12.3117 7.06816 12.3374 6.9894 12.3935 6.93475L13.2386 6.11243L12.0704 5.94185C11.993 5.93054 11.926 5.8819 11.8914 5.81177L11.3692 4.75483Z" fill="url(#paint1_linear_177_31075)"/>
<path fill-rule="evenodd" clip-rule="evenodd" d="M6.63666 4.91736C6.6933 4.91736 6.74503 4.94948 6.7701 5.00022L7.19533 5.86087L8.14627 5.99974C8.20231 6.00792 8.24884 6.04717 8.26631 6.10099C8.28377 6.15481 8.26915 6.21387 8.22858 6.25334L7.54061 6.92279L7.70297 7.86856C7.71254 7.92434 7.68959 7.98071 7.64376 8.01397C7.59793 8.04723 7.53717 8.05161 7.48704 8.02527L6.63666 7.57849L5.78628 8.02527C5.73615 8.05161 5.67539 8.04723 5.62956 8.01397C5.58373 7.98071 5.56078 7.92434 5.57035 7.86856L5.73272 6.92279L5.04474 6.25334C5.00417 6.21387 4.98955 6.15481 5.00702 6.10099C5.02448 6.04717 5.07101 6.00792 5.12705 5.99974L6.07799 5.86087L6.50322 5.00022C6.52829 4.94948 6.58002 4.91736 6.63666 4.91736Z" fill="url(#paint2_linear_177_31075)"/>
<path fill-rule="evenodd" clip-rule="evenodd" d="M2.88739 4.91736C2.94403 4.91736 2.99576 4.94948 3.02083 5.00022L3.44606 5.86087L4.39701 5.99974C4.45304 6.00792 4.49957 6.04717 4.51704 6.10099C4.53451 6.15481 4.51988 6.21387 4.47931 6.25334L3.79134 6.92279L3.9537 7.86856C3.96328 7.92434 3.94032 7.98071 3.89449 8.01397C3.84866 8.04723 3.78791 8.05161 3.73777 8.02527L2.88739 7.57849L2.03702 8.02527C1.98688 8.05161 1.92612 8.04723 1.88029 8.01397C1.83446 7.98071 1.81151 7.92434 1.82109 7.86856L1.98345 6.92279L1.29547 6.25334C1.2549 6.21387 1.24028 6.15481 1.25775 6.10099C1.27521 6.04717 1.32174 6.00792 1.37778 5.99974L2.32872 5.86087L2.75395 5.00022C2.77902 4.94948 2.83075 4.91736 2.88739 4.91736Z" fill="url(#paint3_linear_177_31075)"/>
<defs>
<linearGradient id="paint0_linear_177_31075" x1="7.5" y1="2" x2="7.5" y2="13.25" gradientUnits="userSpaceOnUse">
<stop stop-color="#10808C"/>
<stop offset="1" stop-color="#1DF7EF"/>
</linearGradient>
<linearGradient id="paint1_linear_177_31075" x1="11.3692" y1="3.97955" x2="11.3692" y2="8.97955" gradientUnits="userSpaceOnUse">
<stop stop-color="#FE5468"/>
<stop offset="1" stop-color="#FFDF27"/>
</linearGradient>
<linearGradient id="paint2_linear_177_31075" x1="6.63666" y1="4.91736" x2="6.63666" y2="8.04236" gradientUnits="userSpaceOnUse">
<stop stop-color="#FE5468"/>
<stop offset="1" stop-color="#FFDF27"/>
</linearGradient>
<linearGradient id="paint3_linear_177_31075" x1="2.88739" y1="4.91736" x2="2.88739" y2="8.04236" gradientUnits="userSpaceOnUse">
<stop stop-color="#FE5468"/>
<stop offset="1" stop-color="#FFDF27"/>
</linearGradient>
</defs>
</svg>
