<svg width="24" height="24" viewBox="0 0 24 24" fill="none" xmlns="http://www.w3.org/2000/svg">
<path d="M24 15.7794V12.9793C24 11.8116 23.4894 10.7021 22.6029 9.9422L17.7936 5.81981L17.7129 5.75405C16.8674 5.10133 15.6474 5.22802 14.9557 6.05809L14.1543 7.01903L14.1133 7.07371C13.9243 7.3538 13.9745 7.73749 14.2396 7.95848C14.5048 8.17946 14.8914 8.15973 15.1328 7.92332L15.179 7.87319L15.9798 6.9116C16.203 6.64378 16.5915 6.59534 16.8717 6.78986L16.9258 6.83218L21.7357 10.9546C22.3266 11.4612 22.6667 12.2009 22.6667 12.9793V15.7794C22.6667 16.1476 22.9651 16.4461 23.3333 16.4461C23.7015 16.4461 24 16.1476 24 15.7794Z" fill="url(#paint0_linear_3218_87499)"/>
<path d="M0 15.7794V12.9793C0 11.8116 0.510552 10.7021 1.39714 9.9422L6.20638 5.81981L6.28711 5.75405C7.13264 5.10133 8.35255 5.22802 9.04427 6.05809L9.8457 7.01903L9.88672 7.07371C10.0757 7.3538 10.0255 7.73749 9.76042 7.95848C9.49524 8.17946 9.10862 8.15973 8.86719 7.92332L8.82096 7.87319L8.02018 6.9116C7.797 6.64378 7.40851 6.59534 7.12825 6.78986L7.07422 6.83218L2.26432 10.9546C1.67336 11.4612 1.33333 12.2009 1.33333 12.9793V15.7794C1.33333 16.1476 1.03486 16.4461 0.666667 16.4461C0.298477 16.4461 0 16.1476 0 15.7794Z" fill="url(#paint1_linear_3218_87499)"/>
<path d="M9.33329 14.7794C9.33329 12.7544 7.69167 11.1128 5.66663 11.1128C3.64158 11.1128 1.99996 12.7544 1.99996 14.7794C1.99996 16.8045 3.64158 18.4461 5.66663 18.4461V19.7794C2.9052 19.7794 0.666626 17.5409 0.666626 14.7794C0.666626 12.018 2.9052 9.77944 5.66663 9.77944C8.42805 9.77944 10.6666 12.018 10.6666 14.7794C10.6666 17.5409 8.42805 19.7794 5.66663 19.7794V18.4461C7.69167 18.4461 9.33329 16.8045 9.33329 14.7794Z" fill="url(#paint2_linear_3218_87499)"/>
<path d="M22 14.7794C22 12.7544 20.3584 11.1128 18.3334 11.1128C16.3083 11.1128 14.6667 12.7544 14.6667 14.7794C14.6667 16.8045 16.3083 18.4461 18.3334 18.4461V19.7794C15.572 19.7794 13.3334 17.5409 13.3334 14.7794C13.3334 12.018 15.572 9.77944 18.3334 9.77944C21.0948 9.77944 23.3334 12.018 23.3334 14.7794C23.3334 17.5409 21.0948 19.7794 18.3334 19.7794V18.4461C20.3584 18.4461 22 16.8045 22 14.7794Z" fill="url(#paint3_linear_3218_87499)"/>
<path d="M18.7554 12.4461C19.926 12.4461 20.875 13.3754 20.875 14.5216C20.875 15.6679 20.231 15.7794 20.0417 15.7794C19.468 15.7794 19.8334 14.7378 19.2084 14.1128C18.5834 13.4878 17.3334 13.8639 17.3334 13.2794C17.3334 13.094 17.6311 12.4461 18.7554 12.4461Z" fill="url(#paint4_linear_3218_87499)"/>
<path d="M6.08866 12.4461C7.2593 12.4461 8.20829 13.3754 8.20829 14.5216C8.20829 15.6679 7.56425 15.7794 7.37496 15.7794C6.80124 15.7794 7.16663 14.7378 6.54163 14.1128C5.91663 13.4878 4.66663 13.8639 4.66663 13.2794C4.66663 13.094 4.96433 12.4461 6.08866 12.4461Z" fill="url(#paint5_linear_3218_87499)"/>
<path d="M12 11.3628C12.8436 11.3628 13.6469 11.6817 14.3997 12.2462L13.6002 13.3126C13.0197 12.8772 12.4896 12.6961 12 12.6961C11.5103 12.6961 10.9803 12.8772 10.3997 13.3126L9.60022 12.2462C10.353 11.6817 11.1563 11.3628 12 11.3628Z" fill="url(#paint6_linear_3218_87499)"/>
<defs>
<linearGradient id="paint0_linear_3218_87499" x1="18.9999" y1="5.33833" x2="18.9999" y2="16.4461" gradientUnits="userSpaceOnUse">
<stop stop-color="#10808C"/>
<stop offset="1" stop-color="#1DF7EF"/>
</linearGradient>
<linearGradient id="paint1_linear_3218_87499" x1="5.00013" y1="5.33833" x2="5.00013" y2="16.4461" gradientUnits="userSpaceOnUse">
<stop stop-color="#10808C"/>
<stop offset="1" stop-color="#1DF7EF"/>
</linearGradient>
<linearGradient id="paint2_linear_3218_87499" x1="5.66663" y1="9.77944" x2="5.66663" y2="19.7794" gradientUnits="userSpaceOnUse">
<stop stop-color="#FE5468"/>
<stop offset="1" stop-color="#FFDF27"/>
</linearGradient>
<linearGradient id="paint3_linear_3218_87499" x1="18.3334" y1="9.77944" x2="18.3334" y2="19.7794" gradientUnits="userSpaceOnUse">
<stop stop-color="#FE5468"/>
<stop offset="1" stop-color="#FFDF27"/>
</linearGradient>
<linearGradient id="paint4_linear_3218_87499" x1="17.3334" y1="14.1128" x2="20.875" y2="14.1128" gradientUnits="userSpaceOnUse">
<stop stop-color="#10808C"/>
<stop offset="1" stop-color="#1DF7EF"/>
</linearGradient>
<linearGradient id="paint5_linear_3218_87499" x1="4.66663" y1="14.1128" x2="8.20829" y2="14.1128" gradientUnits="userSpaceOnUse">
<stop stop-color="#10808C"/>
<stop offset="1" stop-color="#1DF7EF"/>
</linearGradient>
<linearGradient id="paint6_linear_3218_87499" x1="12" y1="11.3628" x2="12" y2="13.3126" gradientUnits="userSpaceOnUse">
<stop stop-color="#10808C"/>
<stop offset="1" stop-color="#1DF7EF"/>
</linearGradient>
</defs>
</svg>
