<svg width="15" height="15" viewBox="0 0 15 15" fill="none" xmlns="http://www.w3.org/2000/svg">
<g clip-path="url(#clip0_20110_62690)">
<path fill-rule="evenodd" clip-rule="evenodd" d="M11.6505 8.8877C13.2989 8.8877 14.8927 10.1295 14.8927 11.8416C14.8927 12.389 14.7499 12.8885 14.4641 13.3435C13.8485 14.2942 12.7695 14.816 11.6505 14.816C10.5315 14.816 9.46872 14.2965 8.83597 13.3627C8.55074 12.9081 8.4082 12.4091 8.4082 11.8622C8.4082 10.1458 9.98959 8.8877 11.6505 8.8877ZM11.6505 9.95457C11.3544 9.95457 11.0764 10.0487 10.8193 10.2299C10.2966 10.5897 10.0313 11.2205 10.0313 11.8416C10.0313 12.1935 10.1048 12.5143 10.2553 12.8003C10.538 13.3376 11.0184 13.7492 11.6505 13.7492C11.959 13.7492 12.2392 13.6558 12.486 13.4706C12.7263 13.2904 12.9134 13.0581 13.0472 12.7768C13.1956 12.4936 13.2697 12.1879 13.2697 11.8622C13.2697 11.5114 13.1966 11.1916 13.0472 10.9064C12.9125 10.6232 12.7168 10.3965 12.4611 10.2298C12.2169 10.048 11.9454 9.95457 11.6505 9.95457Z" fill="url(#paint0_linear_20110_62690)"/>
<path fill-rule="evenodd" clip-rule="evenodd" d="M3.44245 0.115234C4.53661 0.115234 5.65417 0.657531 6.25665 1.58864C6.54174 2.02924 6.68471 2.52133 6.68471 3.0691C6.68471 3.61654 6.54189 4.116 6.25608 4.57104C5.64046 5.52175 4.56148 6.04357 3.44245 6.04357C2.32345 6.04357 1.26071 5.52409 0.627962 4.59027C0.342728 4.1356 0.200195 3.63659 0.200195 3.0897C0.200195 2.52799 0.343271 2.02963 0.627384 1.58998C1.25506 0.663052 2.32869 0.115234 3.44245 0.115234ZM3.44245 1.18211C3.14639 1.18211 2.86836 1.27619 2.61133 1.45741C2.08857 1.81728 1.82325 2.44808 1.82325 3.0691C1.82325 3.42107 1.89676 3.74187 2.04727 4.02783C2.33004 4.56509 2.81036 4.97669 3.44245 4.97669C3.751 4.97669 4.03118 4.8833 4.27802 4.69817C4.5183 4.51796 4.70535 4.28567 4.83917 4.00431C4.98761 3.72114 5.06165 3.41547 5.06165 3.0897C5.06165 2.73892 4.98864 2.41912 4.83917 2.13389C4.70444 1.85077 4.50882 1.62403 4.25307 1.45738C4.00888 1.27553 3.73738 1.18211 3.44245 1.18211Z" fill="url(#paint1_linear_20110_62690)"/>
<path d="M1.37402 13.8222L7.16246 7.045L12.5183 0L13.7749 1.11237L8.13063 7.78658L2.60999 14.9346L1.37402 13.8222Z" fill="url(#paint2_linear_20110_62690)"/>
</g>
<defs>
<linearGradient id="paint0_linear_20110_62690" x1="11.6505" y1="8.8877" x2="15.5174" y2="14.8342" gradientUnits="userSpaceOnUse">
<stop stop-color="#FE5468"/>
<stop offset="1" stop-color="#FFDF27"/>
</linearGradient>
<linearGradient id="paint1_linear_20110_62690" x1="3.44245" y1="0.115234" x2="7.30936" y2="6.06174" gradientUnits="userSpaceOnUse">
<stop stop-color="#FE5468"/>
<stop offset="1" stop-color="#FFDF27"/>
</linearGradient>
<linearGradient id="paint2_linear_20110_62690" x1="7.57444" y1="0" x2="7.57444" y2="14.9346" gradientUnits="userSpaceOnUse">
<stop stop-color="#10808C"/>
<stop offset="1" stop-color="#1DF7EF"/>
</linearGradient>
<clipPath id="clip0_20110_62690">
<rect width="15" height="15" fill="white"/>
</clipPath>
</defs>
</svg>
