<svg width="15" height="15" viewBox="0 0 15 15" fill="none" xmlns="http://www.w3.org/2000/svg">
<path fill-rule="evenodd" clip-rule="evenodd" d="M5.33301 5.76389H4.66634C4.29815 5.76389 3.99967 6.10589 3.99967 6.52778V8.05556C3.99967 8.47744 4.29815 8.81944 4.66634 8.81944H5.33301C5.7012 8.81944 5.99967 8.47744 5.99967 8.05556V6.52778C5.99967 6.10589 5.7012 5.76389 5.33301 5.76389ZM4.66634 5C3.92996 5 3.33301 5.68401 3.33301 6.52778V8.05556C3.33301 8.89932 3.92996 9.58333 4.66634 9.58333H5.33301C6.06939 9.58333 6.66634 8.89932 6.66634 8.05556V6.52778C6.66634 5.68401 6.06939 5 5.33301 5H4.66634Z" fill="url(#paint0_linear_7416_32141)"/>
<path fill-rule="evenodd" clip-rule="evenodd" d="M5.33301 11.5275H4.66634C4.29815 11.5275 3.99967 11.8384 3.99967 12.2219V13.6108C3.99967 13.9943 4.29815 14.3052 4.66634 14.3052H5.33301C5.7012 14.3052 5.99967 13.9943 5.99967 13.6108V12.2219C5.99967 11.8384 5.7012 11.5275 5.33301 11.5275ZM4.66634 10.833C3.92996 10.833 3.33301 11.4548 3.33301 12.2219V13.6108C3.33301 14.3778 3.92996 14.9997 4.66634 14.9997H5.33301C6.06939 14.9997 6.66634 14.3778 6.66634 13.6108V12.2219C6.66634 11.4548 6.06939 10.833 5.33301 10.833H4.66634Z" fill="url(#paint1_linear_7416_32141)"/>
<path fill-rule="evenodd" clip-rule="evenodd" d="M10.333 9.86144H9.66634C9.29815 9.86144 8.99967 10.1723 8.99967 10.5559V11.9448C8.99967 12.3283 9.29815 12.6392 9.66634 12.6392H10.333C10.7012 12.6392 10.9997 12.3283 10.9997 11.9448V10.5559C10.9997 10.1724 10.7012 9.86144 10.333 9.86144ZM9.66634 9.16699C8.92996 9.16699 8.33301 9.78882 8.33301 10.5559V11.9448C8.33301 12.7118 8.92996 13.3337 9.66634 13.3337H10.333C11.0694 13.3337 11.6663 12.7118 11.6663 11.9448V10.5559C11.6663 9.78882 11.0694 9.16699 10.333 9.16699H9.66634Z" fill="url(#paint2_linear_7416_32141)"/>
<path fill-rule="evenodd" clip-rule="evenodd" d="M10.333 4.02745H9.66634C9.29815 4.02745 8.99967 4.33837 8.99967 4.7219V6.11079C8.99967 6.49432 9.29815 6.80523 9.66634 6.80523H10.333C10.7012 6.80523 10.9997 6.49432 10.9997 6.11079V4.7219C10.9997 4.33837 10.7012 4.02745 10.333 4.02745ZM9.66634 3.33301C8.92996 3.33301 8.33301 3.95483 8.33301 4.7219V6.11079C8.33301 6.87785 8.92996 7.49967 9.66634 7.49967H10.333C11.0694 7.49967 11.6663 6.87785 11.6663 6.11079V4.7219C11.6663 3.95483 11.0694 3.33301 10.333 3.33301H9.66634Z" fill="url(#paint3_linear_7416_32141)"/>
<path fill-rule="evenodd" clip-rule="evenodd" d="M5.33301 0.625H4.66634C4.29815 0.625 3.99967 0.904822 3.99967 1.25V2.5C3.99967 2.84518 4.29815 3.125 4.66634 3.125H5.33301C5.7012 3.125 5.99967 2.84518 5.99967 2.5V1.25C5.99967 0.904822 5.7012 0.625 5.33301 0.625ZM4.66634 0C3.92996 0 3.33301 0.559644 3.33301 1.25V2.5C3.33301 3.19036 3.92996 3.75 4.66634 3.75H5.33301C6.06939 3.75 6.66634 3.19036 6.66634 2.5V1.25C6.66634 0.559644 6.06939 0 5.33301 0H4.66634Z" fill="url(#paint4_linear_7416_32141)"/>
<path fill-rule="evenodd" clip-rule="evenodd" d="M4.58366 6.66667V2.5H5.41699V6.66667H4.58366Z" fill="url(#paint5_linear_7416_32141)"/>
<path fill-rule="evenodd" clip-rule="evenodd" d="M4.58366 12.083V8.33301H5.41699V12.083H4.58366Z" fill="url(#paint6_linear_7416_32141)"/>
<path fill-rule="evenodd" clip-rule="evenodd" d="M9.58366 10.833V5.83301H10.417V10.833H9.58366Z" fill="url(#paint7_linear_7416_32141)"/>
<defs>
<linearGradient id="paint0_linear_7416_32141" x1="4.99967" y1="5" x2="4.99967" y2="9.58333" gradientUnits="userSpaceOnUse">
<stop stop-color="#10808C"/>
<stop offset="1" stop-color="#1DF7EF"/>
</linearGradient>
<linearGradient id="paint1_linear_7416_32141" x1="4.99967" y1="10.833" x2="4.99967" y2="14.9997" gradientUnits="userSpaceOnUse">
<stop stop-color="#10808C"/>
<stop offset="1" stop-color="#1DF7EF"/>
</linearGradient>
<linearGradient id="paint2_linear_7416_32141" x1="9.99967" y1="9.16699" x2="9.99967" y2="13.3337" gradientUnits="userSpaceOnUse">
<stop stop-color="#10808C"/>
<stop offset="1" stop-color="#1DF7EF"/>
</linearGradient>
<linearGradient id="paint3_linear_7416_32141" x1="9.99967" y1="3.33301" x2="9.99967" y2="7.49967" gradientUnits="userSpaceOnUse">
<stop stop-color="#10808C"/>
<stop offset="1" stop-color="#1DF7EF"/>
</linearGradient>
<linearGradient id="paint4_linear_7416_32141" x1="4.99967" y1="0" x2="4.99967" y2="3.75" gradientUnits="userSpaceOnUse">
<stop stop-color="#10808C"/>
<stop offset="1" stop-color="#1DF7EF"/>
</linearGradient>
<linearGradient id="paint5_linear_7416_32141" x1="5.41699" y1="4.58333" x2="4.25123" y2="4.74917" gradientUnits="userSpaceOnUse">
<stop stop-color="#FE5468"/>
<stop offset="1" stop-color="#FFDF27"/>
</linearGradient>
<linearGradient id="paint6_linear_7416_32141" x1="5.41699" y1="10.208" x2="4.25663" y2="10.3914" gradientUnits="userSpaceOnUse">
<stop stop-color="#FE5468"/>
<stop offset="1" stop-color="#FFDF27"/>
</linearGradient>
<linearGradient id="paint7_linear_7416_32141" x1="10.417" y1="8.33301" x2="9.24412" y2="8.47205" gradientUnits="userSpaceOnUse">
<stop stop-color="#FE5468"/>
<stop offset="1" stop-color="#FFDF27"/>
</linearGradient>
</defs>
</svg>
