<svg width="24" height="24" viewBox="0 0 24 24" fill="none" xmlns="http://www.w3.org/2000/svg">
<g clip-path="url(#clip0_3218_86813)">
<path d="M16 19.2959V21H10.6145V19.2959H12.4981V15.0287C12.4185 15.1413 12.2947 15.2587 12.1267 15.3808C11.9587 15.4934 11.7686 15.6014 11.5563 15.7047C11.3441 15.8079 11.1319 15.8924 10.9196 15.9582C10.7074 16.0239 10.5173 16.0568 10.3492 16.0568V14.2963C10.5084 14.2963 10.6985 14.2447 10.9196 14.1414C11.1495 14.0288 11.375 13.8973 11.5961 13.7471C11.826 13.5969 12.0206 13.4513 12.1798 13.3105C12.3478 13.1603 12.4539 13.0429 12.4981 12.9584H14.3154V19.2959H16Z" fill="url(#paint0_linear_3218_86813)"/>
<path d="M3 20.9992V11H4.83053V19.2951H9.63235V20.9992H3Z" fill="url(#paint1_linear_3218_86813)"/>
<path d="M19 13.2104C18.7167 13.2435 18.4285 13.2604 18.1364 13.2604C17.7846 13.2604 17.4386 13.2358 17.1 13.1882V21.1364C17.1 21.3895 16.9999 21.6323 16.8218 21.8113C16.6436 21.9903 16.402 22.0909 16.15 22.0909H2.85C2.59804 22.0909 2.35641 21.9903 2.17825 21.8113C2.00009 21.6323 1.9 21.3895 1.9 21.1364V11.1032L9.5 5.16382L10.7987 6.17879C10.7966 6.10551 10.7955 6.03196 10.7955 5.95816C10.7955 5.26982 10.8912 4.60373 11.0702 3.97235L10.0832 3.20107C9.74019 2.93298 9.25981 2.93298 8.91676 3.20107L0.366756 9.88289C0.135349 10.0637 0 10.3418 0 10.6364V21.1364C0 21.8958 0.300267 22.6242 0.834746 23.1613C1.36922 23.6983 2.09413 24 2.85 24H16.15C16.9059 24 17.6308 23.6983 18.1653 23.1613C18.6997 22.6242 19 21.8958 19 21.1364V13.2104Z" fill="url(#paint2_linear_3218_86813)"/>
<path fill-rule="evenodd" clip-rule="evenodd" d="M18 10.2857C20.3669 10.2857 22.2857 8.36693 22.2857 6C22.2857 3.63307 20.3669 1.71429 18 1.71429C15.6331 1.71429 13.7143 3.63307 13.7143 6C13.7143 8.36693 15.6331 10.2857 18 10.2857ZM18 12C21.3137 12 24 9.31371 24 6C24 2.68629 21.3137 0 18 0C14.6863 0 12 2.68629 12 6C12 9.31371 14.6863 12 18 12Z" fill="url(#paint3_linear_3218_86813)"/>
<path fill-rule="evenodd" clip-rule="evenodd" d="M20.0827 4.4C20.0827 4.62091 19.8961 4.8 19.666 4.8H16.3327C16.1025 4.8 15.916 4.62091 15.916 4.4C15.916 4.17909 16.1025 4 16.3327 4H19.666C19.8961 4 20.0827 4.17909 20.0827 4.4ZM19.666 6C19.666 6.22091 19.4794 6.4 19.2493 6.4H16.7493C16.5192 6.4 16.3327 6.22091 16.3327 6C16.3327 5.77909 16.5192 5.6 16.7493 5.6H19.2493C19.4794 5.6 19.666 5.77909 19.666 6ZM20.5 7.6C20.5 7.82091 20.3135 8 20.0833 8H15.9167C15.6865 8 15.5 7.82091 15.5 7.6C15.5 7.37909 15.6865 7.2 15.9167 7.2H20.0833C20.3135 7.2 20.5 7.37909 20.5 7.6Z" fill="url(#paint4_linear_3218_86813)"/>
</g>
<defs>
<linearGradient id="paint0_linear_3218_86813" x1="9.5" y1="11" x2="9.5" y2="21" gradientUnits="userSpaceOnUse">
<stop stop-color="#FE5468"/>
<stop offset="1" stop-color="#FFDF27"/>
</linearGradient>
<linearGradient id="paint1_linear_3218_86813" x1="9.5" y1="11" x2="9.5" y2="21" gradientUnits="userSpaceOnUse">
<stop stop-color="#FE5468"/>
<stop offset="1" stop-color="#FFDF27"/>
</linearGradient>
<linearGradient id="paint2_linear_3218_86813" x1="9.5" y1="3" x2="9.5" y2="24" gradientUnits="userSpaceOnUse">
<stop stop-color="#10808C"/>
<stop offset="1" stop-color="#1DF7EF"/>
</linearGradient>
<linearGradient id="paint3_linear_3218_86813" x1="18" y1="0" x2="18" y2="12" gradientUnits="userSpaceOnUse">
<stop stop-color="#FE5468"/>
<stop offset="1" stop-color="#FFDF27"/>
</linearGradient>
<linearGradient id="paint4_linear_3218_86813" x1="18" y1="4" x2="18" y2="8" gradientUnits="userSpaceOnUse">
<stop stop-color="#10808C"/>
<stop offset="1" stop-color="#1DF7EF"/>
</linearGradient>
<clipPath id="clip0_3218_86813">
<rect width="24" height="24" fill="white"/>
</clipPath>
</defs>
</svg>
