<svg width="15" height="15" viewBox="0 0 15 15" fill="none" xmlns="http://www.w3.org/2000/svg">
<path d="M7.52923 0C6.31708 0 5.15457 0.481526 4.29745 1.33865C3.44033 2.19577 2.95881 3.35827 2.95881 4.57043C2.95881 6.75944 2.49062 9.01919 2.05915 9.81021C1.84252 10.2074 1.63157 10.4679 1.48504 10.6226C1.4116 10.7001 1.35389 10.7515 1.31915 10.7805C1.30176 10.7949 1.29011 10.8038 1.28508 10.8076L1.28321 10.809C1.04915 10.9697 0.945575 11.2638 1.02807 11.5363C1.11144 11.8117 1.36525 12 1.65297 12H13.4055C13.6932 12 13.947 11.8117 14.0304 11.5363C14.1129 11.2638 14.0093 10.9697 13.7752 10.8089L13.7734 10.8076C13.7684 10.8038 13.7567 10.7949 13.7393 10.7805C13.7046 10.7515 13.6469 10.7001 13.5734 10.6226C13.4269 10.4679 13.2159 10.2074 12.9993 9.81021C12.6471 9.16447 12.2704 7.53998 12.1439 5.7742C11.7914 5.91972 11.4051 6 11 6C10.9501 6 10.9005 5.99878 10.8512 5.99637C10.9995 7.88325 11.4144 9.63162 11.8529 10.4355C11.9026 10.5266 11.9525 10.6128 12.0022 10.6942H3.0563C3.10598 10.6128 3.15585 10.5266 3.20554 10.4355C3.75345 9.43101 4.26464 6.95184 4.26464 4.57043C4.26464 3.7046 4.60859 2.87424 5.22082 2.26201C5.83305 1.64978 6.66341 1.30584 7.52923 1.30584C7.84015 1.30584 8.1465 1.35019 8.43981 1.43539C8.69255 1.02272 9.04226 0.675875 9.45724 0.426562C8.85897 0.148217 8.20174 0 7.52923 0Z" fill="url(#paint0_linear_6590_27458)"/>
<circle cx="11" cy="3" r="2" fill="#FF3838"/>
<path d="M5.8531 13C5.49805 13 5.24296 13.3444 5.41461 13.6552C5.86221 14.4656 6.62909 15 7.49997 15C8.37085 15 9.13773 14.4656 9.58533 13.6552C9.75699 13.3444 9.50189 13 9.14684 13C8.93645 13 8.75144 13.1282 8.63451 13.3032C8.33055 13.7578 7.88671 14 7.49997 14C7.11323 14 6.66939 13.7578 6.36543 13.3032C6.2485 13.1282 6.06349 13 5.8531 13Z" fill="url(#paint1_linear_6590_27458)"/>
<defs>
<linearGradient id="paint0_linear_6590_27458" x1="7.52923" y1="0" x2="15.3728" y2="11.9999" gradientUnits="userSpaceOnUse">
<stop stop-color="#FE5468"/>
<stop offset="1" stop-color="#FFDF27"/>
</linearGradient>
<linearGradient id="paint1_linear_6590_27458" x1="7.49997" y1="13" x2="7.49997" y2="15" gradientUnits="userSpaceOnUse">
<stop stop-color="#10808C"/>
<stop offset="1" stop-color="#1DF7EF"/>
</linearGradient>
</defs>
</svg>
