<svg width="24" height="24" viewBox="0 0 24 24" fill="none" xmlns="http://www.w3.org/2000/svg">
<g clip-path="url(#clip0_3218_86288)">
<path d="M9.82704 9.13408C9.8028 8.79577 9.89493 8.48513 10.0926 8.1839C10.225 7.98365 10.4127 7.76742 10.6198 7.52923C11.1541 6.91394 11.8158 6.1523 11.9779 5.14307C12.3302 5.91668 12.1593 6.6689 11.7694 7.36065C11.5939 7.67158 11.3997 7.89493 11.2142 8.10802C10.996 8.35876 10.7904 8.59523 10.6426 8.94296C10.5613 9.13209 10.5151 9.31322 10.4934 9.49037L9.82704 9.13408Z" fill="url(#paint0_radial_3218_86288)"/>
<path d="M10.9658 9.74677C11.0471 9.4484 11.1877 9.16942 11.3746 8.89871C11.5292 8.67279 11.6741 8.50534 11.8042 8.35501C12.2418 7.84868 12.5133 7.53433 12.4337 5.83734C12.4848 5.94631 12.5353 6.05128 12.5844 6.15255L12.5846 6.15312C13.0114 7.03912 13.3109 7.66041 12.8077 8.51361C12.559 8.93522 12.3776 9.14488 12.2172 9.3303C12.0367 9.53882 11.8826 9.71711 11.6889 10.1319L10.9658 9.74677Z" fill="url(#paint1_radial_3218_86288)"/>
<path d="M12.8417 9.47983C12.6454 9.71231 12.3251 10.0329 12.3105 10.054L14.1233 9.04053C14.0854 8.70279 13.8364 8.30486 13.5303 7.7392C13.5922 8.48486 13.3012 8.93528 12.8417 9.47983Z" fill="url(#paint2_radial_3218_86288)"/>
<path d="M14.1161 9.37689C14.0673 9.59312 13.8003 10.043 13.6041 10.2766C12.9839 11.0143 12.661 11.3289 12.1304 12.4388C12.1005 12.3187 12.0691 12.2055 12.0391 12.0974C11.8911 11.5634 11.8001 11.1187 11.9775 10.7353L14.1161 9.37689Z" fill="url(#paint3_radial_3218_86288)"/>
<path d="M11.7194 11.878C11.5676 11.4339 11.4587 11.0625 11.538 10.5927L10.9041 10.1796C10.869 10.8708 11.1643 11.6778 11.9795 12.7167C11.9362 12.4594 11.8061 12.1319 11.7194 11.878Z" fill="url(#paint4_radial_3218_86288)"/>
<path d="M10.482 9.90427C10.4928 10.1291 10.6317 10.7232 10.7561 11.0376C10.4013 10.5849 10.0133 9.89029 9.90234 9.52631L10.482 9.90427Z" fill="url(#paint5_radial_3218_86288)"/>
<path d="M17.9431 13.282C17.9431 12.2537 16.0307 11.3888 13.4463 11.1466C13.1999 11.4233 12.9534 11.7668 12.7178 12.2731L12.3629 12.9471C12.2953 13.0715 12.1707 13.1531 12.0323 13.1639C11.8917 13.1748 11.7562 13.1132 11.6723 13.0005L11.4447 12.6947C10.9706 12.0894 10.6237 11.6099 10.3502 11.1612C7.8419 11.4222 6 12.2734 6 13.282C6 14.4981 8.67627 15.4854 11.973 15.4854C12.1321 15.4854 12.2902 15.4831 12.4465 15.4785L12.9303 14.109L12.9343 14.0993C13.041 13.8326 13.2977 13.658 13.5832 13.654H13.5852L17.8564 13.6654C17.9003 13.5579 17.9431 13.3941 17.9431 13.282Z" fill="url(#paint6_radial_3218_86288)"/>
<path d="M13.7604 15.515H17.1067L16.9604 15.8861H13.6317L12.8906 18.0001V15.7552L13.4089 14.2887C13.4383 14.2145 13.5102 14.1651 13.5909 14.164L17.6473 14.1651L17.4972 14.5308H14.1109L14.0071 14.8395H17.3814L17.2211 15.2063H13.8776L13.7604 15.515Z" fill="url(#paint7_radial_3218_86288)"/>
<path d="M6.20215 14.2548C6.58753 15.3445 7.53059 16.6244 7.73112 16.8116C8.42372 17.464 10.6553 18.0011 12.4127 18.0011V16.1643C9.36621 16.1643 6.98774 15.1776 6.20215 14.2548Z" fill="url(#paint8_radial_3218_86288)"/>
<circle cx="18.75" cy="5.25" r="1.5" fill="#FF5B66"/>
<circle cx="18.75" cy="18.75" r="1.5" fill="#FFA145"/>
<circle cx="12" cy="21.75" r="1.5" fill="#FFC634"/>
<circle cx="21.75" cy="12" r="1.5" fill="#FF8453"/>
<circle cx="12" cy="2.25" r="1.5" fill="#1DF7EF"/>
<circle cx="2.25" cy="12" r="1.5" fill="#BAE765"/>
<circle cx="5.25" cy="5.25" r="1.5" fill="#75EEA3"/>
<circle cx="5.25" cy="18.75" r="1.5" fill="#F9E02E"/>
</g>
<defs>
<radialGradient id="paint0_radial_3218_86288" cx="0" cy="0" r="1" gradientTransform="matrix(-1.73725 3.27942 -1.76995 -2.77754 11.7286 6.49342)" gradientUnits="userSpaceOnUse">
<stop stop-color="#1DF7EF"/>
<stop offset="1" stop-color="#10808C"/>
</radialGradient>
<radialGradient id="paint1_radial_3218_86288" cx="0" cy="0" r="1" gradientTransform="matrix(-1.55858 3.23961 -1.58791 -2.74382 12.6752 7.1713)" gradientUnits="userSpaceOnUse">
<stop stop-color="#1DF7EF"/>
<stop offset="1" stop-color="#10808C"/>
</radialGradient>
<radialGradient id="paint2_radial_3218_86288" cx="0" cy="0" r="1" gradientTransform="matrix(-1.34224 1.74623 -1.3675 -1.47898 13.7827 8.45823)" gradientUnits="userSpaceOnUse">
<stop stop-color="#1DF7EF"/>
<stop offset="1" stop-color="#10808C"/>
</radialGradient>
<radialGradient id="paint3_radial_3218_86288" cx="0" cy="0" r="1" gradientTransform="matrix(-1.65574 2.3098 -1.6869 -1.95631 13.6959 10.328)" gradientUnits="userSpaceOnUse">
<stop stop-color="#1DF7EF"/>
<stop offset="1" stop-color="#10808C"/>
</radialGradient>
<radialGradient id="paint4_radial_3218_86288" cx="0" cy="0" r="1" gradientTransform="matrix(-0.79831 1.91386 -0.813335 -1.62096 11.7769 10.9677)" gradientUnits="userSpaceOnUse">
<stop stop-color="#1DF7EF"/>
<stop offset="1" stop-color="#10808C"/>
</radialGradient>
<radialGradient id="paint5_radial_3218_86288" cx="0" cy="0" r="1" gradientTransform="matrix(-0.632151 1.14005 -0.644049 -0.965577 10.5957 9.99574)" gradientUnits="userSpaceOnUse">
<stop stop-color="#1DF7EF"/>
<stop offset="1" stop-color="#10808C"/>
</radialGradient>
<radialGradient id="paint6_radial_3218_86288" cx="0" cy="0" r="1" gradientTransform="matrix(-8.84294 3.27296 -9.00936 -2.77207 15.6987 12.4943)" gradientUnits="userSpaceOnUse">
<stop stop-color="#FFDF27"/>
<stop offset="0.9999" stop-color="#FE5468"/>
</radialGradient>
<radialGradient id="paint7_radial_3218_86288" cx="0" cy="0" r="1" gradientTransform="matrix(-3.52192 2.89381 -3.58821 -2.45094 16.7534 15.3556)" gradientUnits="userSpaceOnUse">
<stop stop-color="#1DF7EF"/>
<stop offset="0.9999" stop-color="#10808C"/>
</radialGradient>
<radialGradient id="paint8_radial_3218_86288" cx="0" cy="0" r="1" gradientTransform="matrix(-4.59846 2.82602 -4.68501 -2.39353 11.2456 15.4185)" gradientUnits="userSpaceOnUse">
<stop stop-color="#1DF7EF"/>
<stop offset="0.9999" stop-color="#10808C"/>
</radialGradient>
<clipPath id="clip0_3218_86288">
<rect width="24" height="24" fill="white"/>
</clipPath>
</defs>
</svg>
