<svg width="15" height="15" viewBox="0 0 15 15" fill="none" xmlns="http://www.w3.org/2000/svg">
<g clip-path="url(#clip0_20007_72079)">
<path fill-rule="evenodd" clip-rule="evenodd" d="M7.55681 2.37277C7.91554 2.37277 8.20635 2.66358 8.20635 3.02231V13.7009H12.9998C13.3585 13.7009 13.6494 13.9917 13.6494 14.3505C13.6494 14.7092 13.3585 15 12.9998 15H1.99994C1.64121 15 1.3504 14.7092 1.3504 14.3505C1.3504 13.9917 1.64121 13.7009 1.99994 13.7009H6.90728V3.02231C6.90728 2.66358 7.19808 2.37277 7.55681 2.37277Z" fill="url(#paint0_linear_20007_72079)"/>
<path fill-rule="evenodd" clip-rule="evenodd" d="M7.41526 13.5991C4.51451 13.5241 2.18607 11.1491 2.18607 8.23023C2.18607 7.80696 2.23503 7.3951 2.32762 7C5.22838 7.07502 7.55682 9.45004 7.55682 12.3689C7.55682 12.7922 7.50785 13.2041 7.41526 13.5991Z" fill="url(#paint1_linear_20007_72079)"/>
<path fill-rule="evenodd" clip-rule="evenodd" d="M7.43833 8.06412C4.99253 8.00086 3.0293 5.99831 3.0293 3.53727C3.0293 3.18036 3.07058 2.8331 3.14864 2.5C5.59443 2.56328 7.55768 4.56579 7.55768 7.0268C7.55768 7.38377 7.51639 7.73099 7.43833 8.06412Z" fill="url(#paint2_linear_20007_72079)"/>
<path fill-rule="evenodd" clip-rule="evenodd" d="M4.68261 0C6.27678 0.0412383 7.55643 1.34647 7.55643 2.95059C7.55643 3.1832 7.52951 3.40953 7.47864 3.62662C5.88448 3.58538 4.60483 2.28015 4.60483 0.676029C4.60483 0.443422 4.63174 0.217097 4.68261 0Z" fill="url(#paint3_linear_20007_72079)"/>
<path fill-rule="evenodd" clip-rule="evenodd" d="M12.7869 7C9.88615 7.07502 7.55768 9.45004 7.55768 12.3689C7.55768 12.7922 7.60664 13.204 7.69922 13.599C10.6 13.524 12.9284 11.149 12.9284 8.23015C12.9284 7.80688 12.8795 7.39502 12.7869 7Z" fill="url(#paint4_linear_20007_72079)"/>
<path fill-rule="evenodd" clip-rule="evenodd" d="M11.9666 2.5C9.52085 2.56328 7.55762 4.56579 7.55762 7.02681C7.55762 7.3837 7.5989 7.731 7.67696 8.06413C10.1227 8.00078 12.086 5.9983 12.086 3.53726C12.086 3.18036 12.0447 2.8331 11.9666 2.5Z" fill="url(#paint5_linear_20007_72079)"/>
<path fill-rule="evenodd" clip-rule="evenodd" d="M10.4311 0C8.83689 0.0412383 7.55725 1.34648 7.55725 2.95059C7.55725 3.1832 7.58416 3.40952 7.63503 3.62662C9.22922 3.58538 10.5089 2.28014 10.5089 0.676033C10.5089 0.443422 10.4819 0.217097 10.4311 0Z" fill="url(#paint6_linear_20007_72079)"/>
</g>
<defs>
<linearGradient id="paint0_linear_20007_72079" x1="7.49988" y1="2.37277" x2="7.49988" y2="15" gradientUnits="userSpaceOnUse">
<stop stop-color="#10808C"/>
<stop offset="1" stop-color="#1DF7EF"/>
</linearGradient>
<linearGradient id="paint1_linear_20007_72079" x1="4.87144" y1="7" x2="9.53826" y2="12.3398" gradientUnits="userSpaceOnUse">
<stop stop-color="#FE5468"/>
<stop offset="1" stop-color="#FFDF27"/>
</linearGradient>
<linearGradient id="paint2_linear_20007_72079" x1="5.29349" y1="2.5" x2="9.22837" y2="7.00227" gradientUnits="userSpaceOnUse">
<stop stop-color="#FE5468"/>
<stop offset="1" stop-color="#FFDF27"/>
</linearGradient>
<linearGradient id="paint3_linear_20007_72079" x1="6.08063" y1="0" x2="8.64532" y2="2.93457" gradientUnits="userSpaceOnUse">
<stop stop-color="#FE5468"/>
<stop offset="1" stop-color="#FFDF27"/>
</linearGradient>
<linearGradient id="paint4_linear_20007_72079" x1="10.243" y1="7" x2="14.9098" y2="12.3398" gradientUnits="userSpaceOnUse">
<stop stop-color="#FE5468"/>
<stop offset="1" stop-color="#FFDF27"/>
</linearGradient>
<linearGradient id="paint5_linear_20007_72079" x1="9.82183" y1="2.5" x2="13.7567" y2="7.00231" gradientUnits="userSpaceOnUse">
<stop stop-color="#FE5468"/>
<stop offset="1" stop-color="#FFDF27"/>
</linearGradient>
<linearGradient id="paint6_linear_20007_72079" x1="9.03306" y1="0" x2="11.5978" y2="2.93459" gradientUnits="userSpaceOnUse">
<stop stop-color="#FE5468"/>
<stop offset="1" stop-color="#FFDF27"/>
</linearGradient>
<clipPath id="clip0_20007_72079">
<rect width="15" height="15" fill="white"/>
</clipPath>
</defs>
</svg>
