<svg width="15" height="15" viewBox="0 0 15 15" fill="none" xmlns="http://www.w3.org/2000/svg">
<g clip-path="url(#clip0_177_29880)">
<path d="M8.90436 12.0923V12.9329H6.08383V12.0923H7.07032V9.98728C7.02864 10.0429 6.9638 10.1008 6.8758 10.161C6.78781 10.2165 6.68823 10.2698 6.57708 10.3207C6.46592 10.3717 6.35477 10.4134 6.24362 10.4458C6.13246 10.4782 6.03289 10.4944 5.94489 10.4944V9.62603C6.02826 9.62603 6.12783 9.60056 6.24362 9.54962C6.36403 9.49404 6.48213 9.4292 6.59792 9.3551C6.71834 9.28099 6.82023 9.20921 6.90359 9.13974C6.99159 9.06563 7.04717 9.00774 7.07032 8.96606H8.02208V12.0923H8.90436Z" fill="url(#paint0_linear_177_29880)"/>
<path d="M2.09589 12.9324V8H3.05459V12.0918H5.56944V12.9324H2.09589Z" fill="url(#paint1_linear_177_29880)"/>
<path d="M11 8.7209C10.836 8.74012 10.6692 8.75 10.5 8.75C10.2963 8.75 10.096 8.73567 9.9 8.70798V13.3339C9.9 13.4812 9.84205 13.6225 9.73891 13.7267C9.63576 13.8309 9.49587 13.8894 9.35 13.8894H1.65C1.50413 13.8894 1.36424 13.8309 1.26109 13.7267C1.15795 13.6225 1.1 13.4812 1.1 13.3339V7.49448L5.5 4.03769L6.2519 4.62841C6.25064 4.58576 6.25 4.54295 6.25 4.5C6.25 4.09938 6.30543 3.71171 6.40904 3.34424L5.83767 2.89535C5.63906 2.73931 5.36094 2.73931 5.16233 2.89535L0.212333 6.78424C0.0783601 6.88949 0 7.05133 0 7.22276V13.3339C0 13.7759 0.173839 14.1998 0.483274 14.5124C0.792709 14.8249 1.21239 15.0005 1.65 15.0005H9.35C9.78761 15.0005 10.2073 14.8249 10.5167 14.5124C10.8262 14.1998 11 13.7759 11 13.3339V8.7209Z" fill="url(#paint2_linear_177_29880)"/>
<path fill-rule="evenodd" clip-rule="evenodd" d="M10.5 7C11.8807 7 13 5.88071 13 4.5C13 3.11929 11.8807 2 10.5 2C9.11929 2 8 3.11929 8 4.5C8 5.88071 9.11929 7 10.5 7ZM10.5 8C12.433 8 14 6.433 14 4.5C14 2.567 12.433 1 10.5 1C8.567 1 7 2.567 7 4.5C7 6.433 8.567 8 10.5 8Z" fill="url(#paint3_linear_177_29880)"/>
<path fill-rule="evenodd" clip-rule="evenodd" d="M11.7496 3.5C11.7496 3.63807 11.6377 3.75 11.4996 3.75H9.49959C9.36152 3.75 9.24959 3.63807 9.24959 3.5C9.24959 3.36193 9.36152 3.25 9.49959 3.25H11.4996C11.6377 3.25 11.7496 3.36193 11.7496 3.5ZM11.4996 4.5C11.4996 4.63807 11.3877 4.75 11.2496 4.75H9.74959C9.61152 4.75 9.49959 4.63807 9.49959 4.5C9.49959 4.36193 9.61152 4.25 9.74959 4.25H11.2496C11.3877 4.25 11.4996 4.36193 11.4996 4.5ZM12 5.5C12 5.63807 11.8881 5.75 11.75 5.75H9.25C9.11193 5.75 9 5.63807 9 5.5C9 5.36193 9.11193 5.25 9.25 5.25H11.75C11.8881 5.25 12 5.36193 12 5.5Z" fill="url(#paint4_linear_177_29880)"/>
</g>
<defs>
<linearGradient id="paint0_linear_177_29880" x1="5.50012" y1="8" x2="5.50012" y2="12.9329" gradientUnits="userSpaceOnUse">
<stop stop-color="#FE5468"/>
<stop offset="1" stop-color="#FFDF27"/>
</linearGradient>
<linearGradient id="paint1_linear_177_29880" x1="5.50012" y1="8" x2="5.50012" y2="12.9329" gradientUnits="userSpaceOnUse">
<stop stop-color="#FE5468"/>
<stop offset="1" stop-color="#FFDF27"/>
</linearGradient>
<linearGradient id="paint2_linear_177_29880" x1="5.5" y1="2.77832" x2="5.5" y2="15.0005" gradientUnits="userSpaceOnUse">
<stop stop-color="#10808C"/>
<stop offset="1" stop-color="#1DF7EF"/>
</linearGradient>
<linearGradient id="paint3_linear_177_29880" x1="10.5" y1="1" x2="10.5" y2="8" gradientUnits="userSpaceOnUse">
<stop stop-color="#FE5468"/>
<stop offset="1" stop-color="#FFDF27"/>
</linearGradient>
<linearGradient id="paint4_linear_177_29880" x1="10.5" y1="3.25" x2="10.5" y2="5.75" gradientUnits="userSpaceOnUse">
<stop stop-color="#10808C"/>
<stop offset="1" stop-color="#1DF7EF"/>
</linearGradient>
<clipPath id="clip0_177_29880">
<rect width="15" height="15" fill="white"/>
</clipPath>
</defs>
</svg>
