<svg width="15" height="15" viewBox="0 0 15 15" fill="none" xmlns="http://www.w3.org/2000/svg">
<g clip-path="url(#clip0_177_29821)">
<path fill-rule="evenodd" clip-rule="evenodd" d="M8.55381 11.922L10.1399 11.9532C10.333 11.957 10.4927 12.1166 10.4965 12.3097L10.5275 13.8956C10.5312 14.0888 10.3777 14.2423 10.1846 14.2385C9.99146 14.2347 9.83183 14.0751 9.82806 13.882L9.81357 13.1403L8.06501 14.8889C7.92577 15.0281 7.70002 15.0281 7.56078 14.8889C7.42155 14.7497 7.42155 14.5239 7.56078 14.3847L9.30935 12.6361L8.56749 12.6214C8.37436 12.6176 8.21473 12.458 8.21095 12.2649C8.20718 12.0717 8.36068 11.9182 8.55381 11.922Z" fill="url(#paint0_linear_177_29821)"/>
<path d="M12.9776 15C12.725 12.1967 10.369 10 7.50001 10C4.63099 10 2.27504 12.1967 2.02243 15H1.01895C1.27426 11.6438 4.07839 9 7.50001 9C10.9216 9 13.7257 11.6438 13.9811 15H12.9776Z" fill="url(#paint1_linear_177_29821)"/>
<path fill-rule="evenodd" clip-rule="evenodd" d="M2 2H2.33077C2.88142 2 3.38781 2.30172 3.64993 2.78598L6.00211 7.13168C6.48881 7.0451 6.98935 7 7.49974 7C8.01034 7 8.51108 7.04513 8.99798 7.13179L11.3502 2.78598C11.6123 2.30172 12.1187 2 12.6694 2H13V1H2V2ZM9.51666 8.27431C8.87491 8.09555 8.19848 8 7.49974 8C6.80121 8 6.12498 8.0955 5.4834 8.27415L2.77049 3.26199C2.68312 3.10057 2.51432 3 2.33077 3H1.5C1.22386 3 1 2.77614 1 2.5V0H14V2.5C14 2.77614 13.7761 3 13.5 3H12.6694C12.4858 3 12.317 3.10057 12.2297 3.262L9.51666 8.27431Z" fill="url(#paint2_linear_177_29821)"/>
<circle cx="11" cy="11.5" r="0.5" fill="url(#paint3_linear_177_29821)"/>
<path d="M6.05462 6.10925C6.52592 6.03731 7.0086 6 7.5 6C7.9914 6 8.47408 6.03731 8.94537 6.10925L9.41307 5.17386C8.79275 5.05967 8.15334 5 7.5 5C6.84665 5 6.20725 5.05967 5.58693 5.17386L6.05462 6.10925Z" fill="url(#paint4_linear_177_29821)"/>
</g>
<defs>
<linearGradient id="paint0_linear_177_29821" x1="7.91421" y1="12.4139" x2="10.0355" y2="14.5352" gradientUnits="userSpaceOnUse">
<stop stop-color="#10808C"/>
<stop offset="1" stop-color="#1DF7EF"/>
</linearGradient>
<linearGradient id="paint1_linear_177_29821" x1="7.50001" y1="9" x2="7.50001" y2="15" gradientUnits="userSpaceOnUse">
<stop stop-color="#FE5468"/>
<stop offset="1" stop-color="#FFDF27"/>
</linearGradient>
<linearGradient id="paint2_linear_177_29821" x1="7.5" y1="0" x2="7.5" y2="8.27431" gradientUnits="userSpaceOnUse">
<stop stop-color="#10808C"/>
<stop offset="1" stop-color="#1DF7EF"/>
</linearGradient>
<linearGradient id="paint3_linear_177_29821" x1="11" y1="11" x2="11" y2="12" gradientUnits="userSpaceOnUse">
<stop stop-color="#10808C"/>
<stop offset="1" stop-color="#1DF7EF"/>
</linearGradient>
<linearGradient id="paint4_linear_177_29821" x1="7.5" y1="5" x2="7.5" y2="6.10925" gradientUnits="userSpaceOnUse">
<stop stop-color="#FE5468"/>
<stop offset="1" stop-color="#FFDF27"/>
</linearGradient>
<clipPath id="clip0_177_29821">
<rect width="15" height="15" fill="white"/>
</clipPath>
</defs>
</svg>
