<svg width="16" height="15" viewBox="0 0 16 15" fill="none" xmlns="http://www.w3.org/2000/svg">
<g clip-path="url(#clip0_7416_32351)">
<path fill-rule="evenodd" clip-rule="evenodd" d="M10.0267 7.32346L15.3911 7.33755C15.4463 7.20482 15.5 7.00274 15.5 6.86438C15.5 5.59522 13.121 4.52795 9.87504 4.22906C9.87504 4.22906 7.61443 4.07821 5.9636 4.24685C2.81334 4.56898 0.5 5.61951 0.5 6.86438C0.5 8.3652 3.86128 9.58366 8.00179 9.58366C8.2017 9.58366 8.40019 9.58084 8.59652 9.57521L9.20414 7.88499L9.20916 7.87302C9.34315 7.54385 9.66559 7.32839 10.0242 7.32346H10.0267ZM8.43923 7.55417C8.70399 6.90914 9.33035 6.49959 10.0128 6.49021L10.0185 6.49013H10.0289L14.4416 6.50172C14.2602 6.32676 13.9707 6.13154 13.5549 5.9392C12.6696 5.5297 11.3679 5.20437 9.8098 5.05992L9.79709 5.05911C9.78128 5.05812 9.75739 5.05665 9.72613 5.05483C9.66359 5.05118 9.5716 5.04609 9.45573 5.04048C9.22381 5.02926 8.89725 5.01598 8.52042 5.00786C7.75943 4.99145 6.8222 4.99682 6.04837 5.07586M8.43923 7.55417L8.42723 7.5828L8.00751 8.75032L8.00179 8.75032C6.00246 8.75032 4.2275 8.45478 2.98219 8.00337C2.35607 7.77641 1.90792 7.52583 1.63196 7.28948C1.35295 7.05054 1.33333 6.90386 1.33333 6.86438C1.33333 6.82989 1.34576 6.72649 1.51328 6.55112C1.6846 6.37176 1.97469 6.1667 2.40594 5.96329C3.26583 5.55772 4.53212 5.23091 6.04837 5.07586" fill="url(#paint0_linear_7416_32351)"/>
<path d="M10.3166 9.67785H14.4204L14.241 10.1616H10.1588L9.25 12.917V9.99091L9.88563 8.07947C9.92166 7.9828 10.0098 7.91848 10.1088 7.91699L15.0833 7.91848L14.8993 8.39513H10.7466L10.6192 8.79742H14.7573L14.5607 9.27556H10.4604L10.3166 9.67785Z" fill="url(#paint1_radial_7416_32351)"/>
<path fill-rule="evenodd" clip-rule="evenodd" d="M3.03414 10.7361C3.15162 10.8519 3.39081 11.0111 3.77789 11.1835C4.15242 11.3503 4.6159 11.5078 5.13464 11.6435C5.90634 11.8453 6.76589 11.9899 7.58333 12.0511V11.2795C5.8848 11.2001 4.35803 10.883 3.10014 10.4389C2.96353 10.3907 2.82928 10.3407 2.69763 10.2889C2.72716 10.3314 2.75565 10.3717 2.78291 10.4097C2.85527 10.5106 2.91684 10.5923 2.96475 10.6527C3.00301 10.7009 3.02421 10.7249 3.03066 10.7322C3.0333 10.7352 3.03347 10.7354 3.03136 10.7333L3.03414 10.7361ZM1.28885 9.61185C1.77654 10.4705 2.29177 11.1758 2.44899 11.3294C3.22526 12.095 5.51814 12.7416 7.58333 12.8866C7.86691 12.9065 8.14619 12.917 8.41667 12.917V10.4655C5.68959 10.4655 3.38247 9.81612 1.90351 9.00287C1.2764 8.65803 0.798184 8.28373 0.5 7.91699C0.689116 8.47688 0.983587 9.0744 1.28885 9.61185Z" fill="url(#paint2_linear_7416_32351)"/>
</g>
<defs>
<linearGradient id="paint0_linear_7416_32351" x1="8" y1="4.16699" x2="9.8628" y2="11.4193" gradientUnits="userSpaceOnUse">
<stop stop-color="#FE5468"/>
<stop offset="1" stop-color="#FFDF27"/>
</linearGradient>
<radialGradient id="paint1_radial_7416_32351" cx="0" cy="0" r="1" gradientUnits="userSpaceOnUse" gradientTransform="translate(13.9871 9.47008) rotate(138.87) scale(5.73422 5.30066)">
<stop stop-color="#1DF7EF"/>
<stop offset="0.9999" stop-color="#10808C"/>
</radialGradient>
<linearGradient id="paint2_linear_7416_32351" x1="4.45833" y1="7.91699" x2="4.45833" y2="12.917" gradientUnits="userSpaceOnUse">
<stop stop-color="#10808C"/>
<stop offset="1" stop-color="#1DF7EF"/>
</linearGradient>
<clipPath id="clip0_7416_32351">
<rect width="15" height="15" fill="white" transform="translate(0.5)"/>
</clipPath>
</defs>
</svg>
