<svg width="15" height="15" viewBox="0 0 15 15" fill="none" xmlns="http://www.w3.org/2000/svg">
<g clip-path="url(#clip0_7416_31956)">
<path fill-rule="evenodd" clip-rule="evenodd" d="M6.20909 11.2426C6.20745 11.241 6.205 11.2385 6.20336 11.2369L6.05336 11.0875C6.01483 11.1446 5.96975 11.1985 5.91975 11.2491C5.7132 11.4548 5.43862 11.5675 5.14682 11.5675C4.8542 11.5675 4.57962 11.4548 4.37307 11.2491L1.55673 8.44325C0.901826 7.79178 0.539538 6.90602 0.545276 5.98924L0.12971 5.57534C-0.0432368 5.40308 -0.0432368 5.1247 0.12971 4.95245C0.302658 4.78019 0.58298 4.78019 0.755107 4.95245L1.30674 5.50105C1.3969 5.59085 1.44362 5.71494 1.43542 5.84147C1.38706 6.57784 1.65919 7.29951 2.18213 7.82036L4.99928 10.6254C5.03863 10.6646 5.09108 10.6866 5.14682 10.6866C5.20256 10.6866 5.25501 10.6654 5.29436 10.6254C5.3337 10.5862 5.35583 10.534 5.35583 10.4785C5.35583 10.4229 5.3337 10.3707 5.29436 10.3315L4.00422 9.04655C3.83127 8.87511 3.83127 8.59591 4.00422 8.42366C4.17717 8.2514 4.45749 8.2514 4.63044 8.42366L6.83531 10.6197C6.87465 10.6589 6.92711 10.6809 6.98285 10.6809C7.03859 10.6809 7.09104 10.6589 7.13039 10.6197C7.16973 10.5805 7.19186 10.5283 7.19186 10.4727C7.19186 10.4172 7.16973 10.365 7.13039 10.3258L4.92551 8.12895C4.75257 7.95751 4.75257 7.67831 4.92551 7.50605C5.09846 7.3338 5.37878 7.3338 5.55091 7.50605L8.13692 10.0817C8.17627 10.1209 8.22872 10.1421 8.28446 10.1421C8.3402 10.1421 8.39266 10.1209 8.432 10.0817C8.51396 10.0001 8.51314 9.86863 8.432 9.787L7.93365 9.29064C7.93119 9.28819 7.92873 9.28574 7.92791 9.28574L5.87221 7.23747C5.69927 7.06521 5.69927 6.78602 5.87221 6.61458C6.04434 6.44232 6.32467 6.44232 6.49761 6.61458L8.55659 8.66449C8.63773 8.74367 8.76888 8.74286 8.8492 8.66204C8.88855 8.62285 8.91068 8.5706 8.91068 8.51509C8.91068 8.45958 8.88855 8.40733 8.8492 8.36814L5.98615 5.51656C5.84189 5.37288 5.81484 5.14838 5.92139 4.9753C6.02795 4.80142 6.24024 4.72305 6.4345 4.78509L7.74103 5.2047C7.75005 5.20715 7.75988 5.21124 7.7689 5.2145C7.82054 5.23491 7.87709 5.23409 7.92873 5.21205C7.98037 5.19001 8.01971 5.15001 8.0402 5.09858C8.0607 5.04633 8.05988 4.99 8.03774 4.93857C8.01561 4.88795 7.97545 4.84877 7.92299 4.82754L6.0009 4.06587L5.46567 3.88627C5.43206 3.87565 5.40009 3.86014 5.36977 3.84137C5.31649 3.80789 5.26075 3.77524 5.20502 3.74585C4.74355 3.50175 4.22225 3.40542 3.69931 3.46665C3.56489 3.48216 3.43046 3.43563 3.33456 3.34011C3.33374 3.3393 3.33292 3.33766 3.33128 3.33685L2.08869 1.99963C1.9182 1.82738 1.91902 1.54981 2.09115 1.37919C2.26409 1.20694 2.54441 1.20694 2.71654 1.37919C2.71818 1.38001 2.719 1.38164 2.72064 1.38246L3.81816 2.57191C4.4452 2.53844 5.06404 2.67396 5.61976 2.96785C5.67878 2.99887 5.73779 3.03234 5.79517 3.06745L6.29352 3.23399C6.30089 3.23643 6.30909 3.2397 6.31647 3.24215L7.773 3.82014C8.2025 3.44706 8.85576 3.4642 9.26395 3.87157L10.9049 5.50513C10.9033 5.35492 10.9328 5.2047 10.9942 5.06266C11.1098 4.7957 11.3229 4.58916 11.5942 4.4814C11.8655 4.37446 12.1631 4.37772 12.4311 4.49283C12.6999 4.60794 12.9073 4.82019 13.0155 5.09123L13.7852 7.01705C13.7884 7.0244 13.7909 7.03256 13.7934 7.03991C13.7934 7.03991 13.9606 7.53626 13.9598 7.53463C13.995 7.59259 14.0294 7.65137 14.0606 7.71096C14.3565 8.2661 14.4925 8.88327 14.4573 9.51025L14.8704 9.93639L14.872 9.93802C15.0433 10.1103 15.0425 10.3878 14.8704 10.5593C14.6974 10.7315 14.4171 10.7315 14.245 10.5593L14.2434 10.5576C14.2434 10.5576 13.6852 9.98537 13.6868 9.98701C13.5909 9.89149 13.5442 9.75761 13.5606 9.62372C13.6212 9.10288 13.5245 8.58448 13.2794 8.12405C13.2499 8.06853 13.2171 8.01302 13.1835 7.95996C13.1647 7.92975 13.1499 7.89791 13.1385 7.86526L12.959 7.33217L12.1934 5.41696C12.1729 5.36471 12.1327 5.32471 12.0819 5.30267C12.0303 5.28063 11.9737 5.27981 11.9221 5.30022C11.8147 5.34267 11.7623 5.46431 11.8049 5.57044C11.809 5.58024 11.8123 5.59003 11.8147 5.5982L12.236 6.89949C12.236 6.90112 12.2377 6.90602 12.2377 6.90765C12.2467 6.94276 12.2393 6.9795 12.218 7.00888C12.1975 7.03664 12.1672 7.0546 12.1327 7.05868C12.1327 7.0595 12.1327 7.06032 12.1327 7.06195C12.1606 7.05868 12.186 7.04644 12.2057 7.02684C12.2106 7.02195 12.2147 7.01786 12.218 7.01297C12.2409 6.98276 12.2483 6.94357 12.2377 6.90765C12.2442 6.92725 12.2483 6.94684 12.2516 6.96643C12.2516 6.96888 12.2516 6.97215 12.2508 6.97541L12.2524 6.97296C12.2557 6.99419 12.2565 7.01623 12.2565 7.03827C12.2565 7.04236 12.2565 7.04644 12.2565 7.05052C12.2557 7.07093 12.2532 7.09215 12.25 7.11338C12.2491 7.1142 12.2475 7.12236 12.2475 7.12481C12.2426 7.14603 12.2368 7.16808 12.2295 7.18849C12.2213 7.2089 12.2122 7.22849 12.2016 7.24727L12.1967 7.25706C12.1877 7.27176 12.1778 7.28727 12.1672 7.30115C12.1532 7.31911 12.036 7.4783 11.9286 7.72158C11.7655 8.09384 11.6237 8.66612 11.9295 9.23513C11.9877 9.34452 12.0614 9.45392 12.1557 9.56168C12.3163 9.74454 12.2967 10.0229 12.1131 10.1829C12.0286 10.2556 11.9254 10.2915 11.8221 10.2915C11.6991 10.2915 11.5762 10.2401 11.4885 10.1405C10.5508 9.06777 10.8475 7.82199 11.25 7.09542L8.90904 4.76386C8.95576 4.95245 8.95002 5.14919 8.89264 5.33614L10.3992 6.83663C10.5721 7.00888 10.5721 7.28808 10.3992 7.46034C10.227 7.63178 9.94672 7.63178 9.77377 7.46034L8.31397 6.00557C8.30249 6.01128 8.2902 6.01618 8.27872 6.02189C8.1361 6.08312 7.98529 6.11251 7.83447 6.11088L9.4746 7.74525C9.68115 7.95098 9.79509 8.22446 9.79509 8.51509C9.79509 8.80653 9.68197 9.08002 9.47542 9.28574C9.41067 9.34942 9.34018 9.40412 9.26395 9.44983C9.4664 9.8572 9.39837 10.3658 9.05739 10.7046C9.00658 10.7552 8.95084 10.8001 8.89183 10.8393L9.18854 11.1348C9.71148 11.6557 10.4352 11.9267 11.1754 11.8785C11.3024 11.8712 11.427 11.9169 11.5155 12.0059L13.1926 13.6207L13.1942 13.6223C13.3671 13.7946 13.3671 14.0738 13.1942 14.246C13.1081 14.3317 12.995 14.375 12.8819 14.375C12.7688 14.375 12.6549 14.3317 12.5704 14.2468C12.5704 14.2468 11.0287 12.7659 11.0295 12.7659C10.1066 12.7716 9.21805 12.4108 8.56314 11.7585L7.88693 11.085C7.84922 11.1414 7.80496 11.1936 7.75578 11.2426C7.54923 11.4483 7.27465 11.5618 6.98285 11.5618C6.69105 11.5618 6.41647 11.4483 6.20909 11.2426Z" fill="url(#paint0_linear_7416_31956)"/>
<path fill-rule="evenodd" clip-rule="evenodd" d="M4.26812 11.6138C4.45909 11.7613 4.48973 12.0283 4.3357 12.211L3.28497 13.4626C3.19696 13.5672 3.06886 13.6213 2.9384 13.6213C2.84095 13.6213 2.74271 13.5913 2.66098 13.5281C2.47001 13.3806 2.43936 13.1136 2.5934 12.9309L3.64412 11.6793C3.79737 11.4965 4.07715 11.4672 4.26812 11.6138ZM2.14308 10.6308C2.38435 10.5924 2.61304 10.7496 2.65312 10.9805C2.69242 11.2122 2.52895 11.4311 2.2869 11.4687L1.14108 11.6499C1.11672 11.6537 1.09236 11.6552 1.068 11.6552C0.855021 11.6552 0.666409 11.5078 0.631044 11.2994C0.590964 11.0685 0.754428 10.8496 0.99648 10.8113L2.14308 10.6308ZM6.18724 12.8173L6.24933 13.9275C6.26269 14.1614 6.07486 14.3615 5.83045 14.3742C5.82181 14.375 5.81395 14.375 5.80609 14.375C5.5719 14.375 5.37543 14.1997 5.36285 13.9733L5.30077 12.8624C5.28741 12.6285 5.47523 12.4284 5.72043 12.4156C5.96484 12.4028 6.17388 12.5826 6.18724 12.8173Z" fill="url(#paint1_linear_7416_31956)"/>
<path fill-rule="evenodd" clip-rule="evenodd" d="M7.70695 3.38078C7.49175 3.25013 7.40505 2.93509 7.5142 2.67751L8.25965 0.912371C8.36879 0.654781 8.63198 0.551004 8.84718 0.681652C9.06237 0.8123 9.14907 1.12641 9.03993 1.38493L8.29448 3.15006C8.21784 3.33167 8.0638 3.4373 7.90434 3.4373C7.83777 3.4373 7.77042 3.41877 7.70695 3.38078ZM9.74667 4.375C9.57172 4.375 9.40684 4.24899 9.3395 4.04236C9.25125 3.77272 9.36272 3.46973 9.58721 3.3641L10.6539 2.86653C10.8784 2.7609 11.1323 2.89433 11.2198 3.16303C11.308 3.43267 11.1965 3.73566 10.9713 3.84129L9.90535 4.33886C9.85349 4.36388 9.7993 4.375 9.74667 4.375ZM5.93661 2.60709L5.64013 1.28393C5.57743 1.00503 5.71522 0.717789 5.94899 0.642736C6.18199 0.568609 6.42196 0.733541 6.48466 1.01244L6.78114 2.3356C6.84384 2.6145 6.70528 2.90174 6.47228 2.97679C6.43435 2.98884 6.39642 2.9944 6.35849 2.9944C6.16574 2.9944 5.98925 2.84058 5.93661 2.60709Z" fill="url(#paint2_linear_7416_31956)"/>
</g>
<defs>
<linearGradient id="paint0_linear_7416_31956" x1="7.5" y1="1.25" x2="7.5" y2="14.375" gradientUnits="userSpaceOnUse">
<stop stop-color="#10808C"/>
<stop offset="1" stop-color="#1DF7EF"/>
</linearGradient>
<linearGradient id="paint1_linear_7416_31956" x1="3.4375" y1="10.625" x2="5.50952" y2="14.9946" gradientUnits="userSpaceOnUse">
<stop stop-color="#FE5468"/>
<stop offset="1" stop-color="#FFDF27"/>
</linearGradient>
<linearGradient id="paint2_linear_7416_31956" x1="8.4375" y1="0.625" x2="10.5095" y2="4.99457" gradientUnits="userSpaceOnUse">
<stop stop-color="#FE5468"/>
<stop offset="1" stop-color="#FFDF27"/>
</linearGradient>
<clipPath id="clip0_7416_31956">
<rect width="15" height="15" fill="white"/>
</clipPath>
</defs>
</svg>
