<svg width="24" height="24" viewBox="0 0 24 24" fill="none" xmlns="http://www.w3.org/2000/svg">
<g clip-path="url(#clip0_3218_88113)">
<path fill-rule="evenodd" clip-rule="evenodd" d="M9.58495 0.795047C10.8043 -0.265016 12.6036 -0.265016 13.823 0.795047L14.8251 1.66618L15.8271 0.795047C17.0465 -0.265016 18.8458 -0.265016 20.0652 0.795047C21.5053 2.04699 21.5897 4.27739 20.2486 5.63766L14.8567 11.1063L14.8251 11.0743L14.7935 11.1063L9.40158 5.63766C8.06041 4.27739 8.14487 2.04699 9.58495 0.795047ZM14.8251 8.90007L19.1451 4.5185C19.8435 3.81015 19.7995 2.64869 19.0496 1.99675C18.4146 1.44474 17.4777 1.44474 16.8427 1.99675L14.9057 3.68069L14.8374 3.76149L14.8251 3.75077L14.8127 3.76149L14.7445 3.68069L12.8075 1.99675C12.1725 1.44474 11.2355 1.44474 10.6005 1.99675C9.85061 2.64869 9.80663 3.81015 10.505 4.5185L14.8251 8.90007Z" fill="url(#paint0_linear_3218_88113)"/>
<path fill-rule="evenodd" clip-rule="evenodd" d="M20.0287 12.4173C21.0418 11.7604 22.3908 11.8903 23.2518 12.7277C24.182 13.6323 24.2536 15.0761 23.4174 16.0636L19.8273 20.3035C17.8454 22.6441 14.8912 24 11.7736 24H7.11209C4.92172 24 2.80068 23.2531 1.11799 21.8894L1.05882 21.8414C0.387912 21.2977 0 20.4922 0 19.6428V17.3129C0 17.0053 0.0509904 16.6997 0.151009 16.4079L0.275355 16.0451C0.538719 15.2767 1.12454 14.6528 1.88755 14.3281L5.37823 12.8428C8.15693 11.6605 11.407 12.6239 13.0354 15.1125L13.1467 15.2827C13.5493 15.898 14.3932 16.0712 15.0172 15.6667L20.0287 12.4173ZM22.1169 13.8315C21.7969 13.5203 21.2956 13.4721 20.9191 13.7162L15.9075 16.9656C15.8355 17.0123 15.7621 17.0555 15.6876 17.0952L15.6936 17.104L13.0226 18.8359C12.5392 19.1493 11.9712 19.3165 11.3903 19.3165H6.15288V17.7555H11.3903C11.6543 17.7555 11.9125 17.6794 12.1322 17.537L12.8355 17.081C12.4248 16.8575 12.0633 16.5346 11.7926 16.1208L11.6812 15.9506C10.4777 14.1112 8.07541 13.3991 6.02159 14.273L2.5309 15.7583C2.18408 15.9059 1.9178 16.1895 1.79809 16.5388L1.67374 16.9016C1.62828 17.0342 1.6051 17.1731 1.6051 17.3129V19.6428C1.6051 20.0289 1.78142 20.395 2.08638 20.6422L2.14555 20.6901C3.53978 21.8201 5.29721 22.4389 7.11209 22.4389H11.7736C14.4115 22.4389 16.9113 21.2916 18.5882 19.3111L22.1784 15.0712C22.4891 14.7042 22.4625 14.1677 22.1169 13.8315Z" fill="url(#paint1_linear_3218_88113)"/>
</g>
<defs>
<linearGradient id="paint0_linear_3218_88113" x1="14.8251" y1="0" x2="14.8251" y2="11.1063" gradientUnits="userSpaceOnUse">
<stop stop-color="#FE5468"/>
<stop offset="1" stop-color="#FFDF27"/>
</linearGradient>
<linearGradient id="paint1_linear_3218_88113" x1="12" y1="12" x2="12" y2="24" gradientUnits="userSpaceOnUse">
<stop stop-color="#10808C"/>
<stop offset="1" stop-color="#1DF7EF"/>
</linearGradient>
<clipPath id="clip0_3218_88113">
<rect width="24" height="24" fill="white"/>
</clipPath>
</defs>
</svg>
