<svg width="15" height="15" viewBox="0 0 15 15" fill="none" xmlns="http://www.w3.org/2000/svg">
<g clip-path="url(#clip0_6688_53816)">
<path fill-rule="evenodd" clip-rule="evenodd" d="M0.75 9C1.16421 9 1.5 9.33579 1.5 9.75V12.75C1.5 12.9489 1.57902 13.1397 1.71967 13.2803C1.86032 13.421 2.05109 13.5 2.25 13.5H12.75C12.9489 13.5 13.1397 13.421 13.2803 13.2803C13.421 13.1397 13.5 12.9489 13.5 12.75V9.75C13.5 9.33579 13.8358 9 14.25 9C14.6642 9 15 9.33579 15 9.75V12.75C15 13.3467 14.7629 13.919 14.341 14.341C13.919 14.7629 13.3467 15 12.75 15H2.25C1.65326 15 1.08097 14.7629 0.65901 14.341C0.237053 13.919 0 13.3467 0 12.75V9.75C0 9.33579 0.335786 9 0.75 9Z" fill="url(#paint0_linear_6688_53816)"/>
<path d="M8 0.499966C8 0.224017 7.7763 0.000368764 7.50035 0.000335697C7.22413 0.000302605 7 0.224132 7 0.500354V9.3673C6.887 9.30219 6.78433 9.21316 6.69961 9.1002L3.69961 5.1002C3.53393 4.87928 3.22053 4.83451 2.99961 5.0002C2.7787 5.16588 2.73393 5.47928 2.89961 5.7002L6.69961 10.7669C7.09961 11.3002 7.89961 11.3002 8.29961 10.7669L12.0996 5.7002C12.2653 5.47928 12.2205 5.16588 11.9996 5.0002C11.7787 4.83451 11.4653 4.87928 11.2996 5.1002L8.29961 9.1002C8.21509 9.2129 8.1127 9.30178 8 9.36685V0.499966Z" fill="url(#paint1_linear_6688_53816)"/>
</g>
<defs>
<linearGradient id="paint0_linear_6688_53816" x1="7.5" y1="9" x2="9.75396" y2="16.9221" gradientUnits="userSpaceOnUse">
<stop stop-color="#FE5468"/>
<stop offset="1" stop-color="#FFDF27"/>
</linearGradient>
<linearGradient id="paint1_linear_6688_53816" x1="7.49961" y1="0.000335693" x2="7.49961" y2="11.1669" gradientUnits="userSpaceOnUse">
<stop stop-color="#10808C"/>
<stop offset="1" stop-color="#1DF7EF"/>
</linearGradient>
<clipPath id="clip0_6688_53816">
<rect width="15" height="15" fill="white"/>
</clipPath>
</defs>
</svg>
