<svg width="15" height="15" viewBox="0 0 15 15" fill="none" xmlns="http://www.w3.org/2000/svg">
<path fill-rule="evenodd" clip-rule="evenodd" d="M5.33334 5.76389H4.66667C4.29848 5.76389 4 6.10589 4 6.52778V8.05556C4 8.47744 4.29848 8.81944 4.66667 8.81944H5.33334C5.70153 8.81944 6 8.47744 6 8.05556V6.52778C6 6.10589 5.70153 5.76389 5.33334 5.76389ZM4.66667 5C3.93029 5 3.33334 5.68401 3.33334 6.52778V8.05556C3.33334 8.89932 3.93029 9.58333 4.66667 9.58333H5.33334C6.06972 9.58333 6.66667 8.89932 6.66667 8.05556V6.52778C6.66667 5.68401 6.06972 5 5.33334 5H4.66667Z" fill="url(#paint0_linear_7416_32141)"/>
<path fill-rule="evenodd" clip-rule="evenodd" d="M5.33334 11.5278H4.66667C4.29848 11.5278 4 11.8387 4 12.2222V13.6111C4 13.9946 4.29848 14.3056 4.66667 14.3056H5.33334C5.70153 14.3056 6 13.9946 6 13.6111V12.2222C6 11.8387 5.70153 11.5278 5.33334 11.5278ZM4.66667 10.8333C3.93029 10.8333 3.33334 11.4552 3.33334 12.2222V13.6111C3.33334 14.3782 3.93029 15 4.66667 15H5.33334C6.06972 15 6.66667 14.3782 6.66667 13.6111V12.2222C6.66667 11.4552 6.06972 10.8333 5.33334 10.8333H4.66667Z" fill="url(#paint1_linear_7416_32141)"/>
<path fill-rule="evenodd" clip-rule="evenodd" d="M10.3333 9.86111H9.66667C9.29848 9.86111 9 10.172 9 10.5556V11.9444C9 12.328 9.29848 12.6389 9.66667 12.6389H10.3333C10.7015 12.6389 11 12.328 11 11.9444V10.5556C11 10.172 10.7015 9.86111 10.3333 9.86111ZM9.66667 9.16667C8.93029 9.16667 8.33334 9.78849 8.33334 10.5556V11.9444C8.33334 12.7115 8.93029 13.3333 9.66667 13.3333H10.3333C11.0697 13.3333 11.6667 12.7115 11.6667 11.9444V10.5556C11.6667 9.78849 11.0697 9.16667 10.3333 9.16667H9.66667Z" fill="url(#paint2_linear_7416_32141)"/>
<path fill-rule="evenodd" clip-rule="evenodd" d="M10.3333 4.02778H9.66667C9.29848 4.02778 9 4.33869 9 4.72222V6.11111C9 6.49464 9.29848 6.80556 9.66667 6.80556H10.3333C10.7015 6.80556 11 6.49464 11 6.11111V4.72222C11 4.33869 10.7015 4.02778 10.3333 4.02778ZM9.66667 3.33333C8.93029 3.33333 8.33334 3.95516 8.33334 4.72222V6.11111C8.33334 6.87817 8.93029 7.5 9.66667 7.5H10.3333C11.0697 7.5 11.6667 6.87817 11.6667 6.11111V4.72222C11.6667 3.95516 11.0697 3.33333 10.3333 3.33333H9.66667Z" fill="url(#paint3_linear_7416_32141)"/>
<path fill-rule="evenodd" clip-rule="evenodd" d="M5.33334 0.625H4.66667C4.29848 0.625 4 0.904822 4 1.25V2.5C4 2.84518 4.29848 3.125 4.66667 3.125H5.33334C5.70153 3.125 6 2.84518 6 2.5V1.25C6 0.904822 5.70153 0.625 5.33334 0.625ZM4.66667 0C3.93029 0 3.33334 0.559644 3.33334 1.25V2.5C3.33334 3.19036 3.93029 3.75 4.66667 3.75H5.33334C6.06972 3.75 6.66667 3.19036 6.66667 2.5V1.25C6.66667 0.559644 6.06972 0 5.33334 0H4.66667Z" fill="url(#paint4_linear_7416_32141)"/>
<path fill-rule="evenodd" clip-rule="evenodd" d="M4.58333 6.66667V2.5H5.41666V6.66667H4.58333Z" fill="url(#paint5_linear_7416_32141)"/>
<path fill-rule="evenodd" clip-rule="evenodd" d="M4.58333 12.0833V8.33333H5.41666V12.0833H4.58333Z" fill="url(#paint6_linear_7416_32141)"/>
<path fill-rule="evenodd" clip-rule="evenodd" d="M9.58333 10.8333V5.83333H10.4167V10.8333H9.58333Z" fill="url(#paint7_linear_7416_32141)"/>
<defs>
<linearGradient id="paint0_linear_7416_32141" x1="5" y1="5" x2="5" y2="9.58333" gradientUnits="userSpaceOnUse">
<stop stop-color="#10808C"/>
<stop offset="1" stop-color="#1DF7EF"/>
</linearGradient>
<linearGradient id="paint1_linear_7416_32141" x1="5" y1="10.8333" x2="5" y2="15" gradientUnits="userSpaceOnUse">
<stop stop-color="#10808C"/>
<stop offset="1" stop-color="#1DF7EF"/>
</linearGradient>
<linearGradient id="paint2_linear_7416_32141" x1="10" y1="9.16667" x2="10" y2="13.3333" gradientUnits="userSpaceOnUse">
<stop stop-color="#10808C"/>
<stop offset="1" stop-color="#1DF7EF"/>
</linearGradient>
<linearGradient id="paint3_linear_7416_32141" x1="10" y1="3.33333" x2="10" y2="7.5" gradientUnits="userSpaceOnUse">
<stop stop-color="#10808C"/>
<stop offset="1" stop-color="#1DF7EF"/>
</linearGradient>
<linearGradient id="paint4_linear_7416_32141" x1="5" y1="0" x2="5" y2="3.75" gradientUnits="userSpaceOnUse">
<stop stop-color="#10808C"/>
<stop offset="1" stop-color="#1DF7EF"/>
</linearGradient>
<linearGradient id="paint5_linear_7416_32141" x1="5.41666" y1="4.58333" x2="4.2509" y2="4.74917" gradientUnits="userSpaceOnUse">
<stop stop-color="#FE5468"/>
<stop offset="1" stop-color="#FFDF27"/>
</linearGradient>
<linearGradient id="paint6_linear_7416_32141" x1="5.41666" y1="10.2083" x2="4.2563" y2="10.3917" gradientUnits="userSpaceOnUse">
<stop stop-color="#FE5468"/>
<stop offset="1" stop-color="#FFDF27"/>
</linearGradient>
<linearGradient id="paint7_linear_7416_32141" x1="10.4167" y1="8.33333" x2="9.24379" y2="8.47238" gradientUnits="userSpaceOnUse">
<stop stop-color="#FE5468"/>
<stop offset="1" stop-color="#FFDF27"/>
</linearGradient>
</defs>
</svg>
