<svg width="15" height="15" viewBox="0 0 15 15" fill="none" xmlns="http://www.w3.org/2000/svg">
<path fill-rule="evenodd" clip-rule="evenodd" d="M7.31632 1.80962C6.66515 1.1845 5.78198 0.833313 4.86109 0.833313H0.694425C0.310893 0.833313 -2.00272e-05 1.13179 -2.00272e-05 1.49998V11.5C-2.00272e-05 11.8682 0.310893 12.1666 0.694425 12.1666H5.27776C5.64611 12.1666 5.99938 12.3071 6.25985 12.5572C6.52032 12.8072 6.63351 12.9797 6.63351 13.3333C6.63351 13.75 6.94442 14.1666 7.49998 14.1666C8.05554 14.1666 8.33331 13.75 8.33331 13.3333V4.16665C8.33331 3.28259 7.96749 2.43474 7.31632 1.80962ZM6.66665 11.1906C6.24796 10.9585 5.90847 10.8333 5.41665 10.8333H1.38887V2.16665H4.58331C5.13585 2.16665 5.66575 2.37736 6.05645 2.75243C6.44715 3.12751 6.66665 3.63621 6.66665 4.16665V11.1906Z" fill="url(#paint0_linear_177_31327)"/>
<path fill-rule="evenodd" clip-rule="evenodd" d="M7.68368 1.80962C8.33485 1.1845 9.21802 0.833313 10.1389 0.833313H14.3056C14.6891 0.833313 15 1.13179 15 1.49998V11.5C15 11.8682 14.6891 12.1666 14.3056 12.1666H9.72224C9.35389 12.1666 9.00062 12.3071 8.74015 12.5572C8.47968 12.8072 8.36649 12.9797 8.36649 13.3333C8.36649 13.75 8.05558 14.1666 7.50002 14.1666C6.94446 14.1666 6.66669 13.75 6.66669 13.3333V4.16665C6.66669 3.28259 7.03251 2.43474 7.68368 1.80962ZM8.33335 11.1906C8.75204 10.9585 9.09153 10.8333 9.58335 10.8333H13.6111V2.16665H10.4167C9.86415 2.16665 9.33425 2.37736 8.94355 2.75243C8.55285 3.12751 8.33335 3.63621 8.33335 4.16665V11.1906Z" fill="url(#paint1_linear_177_31327)"/>
<defs>
<linearGradient id="paint0_linear_177_31327" x1="4.16665" y1="0.833313" x2="4.16665" y2="14.1666" gradientUnits="userSpaceOnUse">
<stop stop-color="#10808C"/>
<stop offset="1" stop-color="#1DF7EF"/>
</linearGradient>
<linearGradient id="paint1_linear_177_31327" x1="10.8334" y1="0.833313" x2="10.8334" y2="14.1666" gradientUnits="userSpaceOnUse">
<stop stop-color="#FE5468"/>
<stop offset="1" stop-color="#FFDF27"/>
</linearGradient>
</defs>
</svg>
