<svg width="24" height="24" viewBox="0 0 24 24" fill="none" xmlns="http://www.w3.org/2000/svg">
<path fill-rule="evenodd" clip-rule="evenodd" d="M7.41667 1.95806L6.4901 4.25149C6.00276 5.45775 4.24724 5.45774 3.7599 4.25148L3.66667 4.02072V20.3391L3.7917 20.0738C4.31456 18.9645 5.93545 18.9645 6.45829 20.0738L7.41667 22.107L8.37504 20.0738C8.89789 18.9645 10.5188 18.9645 11.0416 20.0738L12 22.107L12.9584 20.0738C13.4812 18.9645 15.1021 18.9645 15.625 20.0738L16.5833 22.107L17.5417 20.0738C18.0646 18.9645 19.6854 18.9645 20.2083 20.0738L20.3333 20.3391V4.02072L20.2401 4.25149C19.7528 5.45775 17.9972 5.45774 17.5099 4.25148L16.5833 1.95806L15.6568 4.25149C15.1694 5.45775 13.4139 5.45774 12.9266 4.25148L12 1.95806L11.0734 4.25149C10.5861 5.45775 8.83057 5.45774 8.34323 4.25148L7.41667 1.95806ZM6.05156 0.904698C6.5389 -0.301561 8.29443 -0.301571 8.78177 0.904697L9.70833 3.19813L10.6349 0.904698C11.1222 -0.301561 12.8778 -0.301571 13.3651 0.904697L14.2917 3.19813L15.2182 0.904698C15.7056 -0.301561 17.4611 -0.301571 17.9484 0.904697L18.875 3.19813L19.844 0.799676C20.295 -0.316599 22 -0.00263793 22 1.19672V22.7895C22 23.9554 20.3678 24.3018 19.8682 23.242L18.875 21.1348L17.9166 23.168C17.3938 24.2773 15.7729 24.2773 15.25 23.168L14.2917 21.1348L13.3333 23.168C12.8104 24.2773 11.1896 24.2773 10.6667 23.168L9.70833 21.1348L8.74996 23.168C8.22711 24.2773 6.60622 24.2773 6.08337 23.168L5.125 21.1348L4.13179 23.242C3.63223 24.3018 2 23.9554 2 22.7895V1.19672C2 -0.00262769 3.70502 -0.31661 4.15601 0.799675L5.125 3.19813L6.05156 0.904698Z" fill="url(#paint0_linear_3218_86963)"/>
<path fill-rule="evenodd" clip-rule="evenodd" d="M15.6513 18.0336C17.2496 18.0336 18.5453 16.7379 18.5453 15.1396C18.5453 13.5412 17.2496 12.2455 15.6513 12.2455C14.0529 12.2455 12.7572 13.5412 12.7572 15.1396C12.7572 16.7379 14.0529 18.0336 15.6513 18.0336ZM15.6513 19.1912C17.8889 19.1912 19.7029 17.3772 19.7029 15.1396C19.7029 12.9019 17.8889 11.0879 15.6513 11.0879C13.4136 11.0879 11.5996 12.9019 11.5996 15.1396C11.5996 17.3772 13.4136 19.1912 15.6513 19.1912Z" fill="url(#paint1_linear_3218_86963)"/>
<path fill-rule="evenodd" clip-rule="evenodd" d="M17.1712 13.9607C17.1712 14.1234 17.0393 14.2553 16.8766 14.2553H14.421C14.2583 14.2553 14.1263 14.1234 14.1263 13.9607C14.1263 13.7979 14.2583 13.666 14.421 13.666H16.8766C17.0393 13.666 17.1712 13.7979 17.1712 13.9607ZM16.8766 15.1393C16.8766 15.3021 16.7446 15.434 16.5819 15.434H14.7157C14.5529 15.434 14.421 15.3021 14.421 15.1393C14.421 14.9766 14.5529 14.8447 14.7157 14.8447H16.5819C16.7446 14.8447 16.8766 14.9766 16.8766 15.1393ZM17.4909 16.318C17.4909 16.4808 17.359 16.6127 17.1963 16.6127H14.1023C13.9395 16.6127 13.8076 16.4808 13.8076 16.318C13.8076 16.1553 13.9395 16.0233 14.1023 16.0233H17.1963C17.359 16.0233 17.4909 16.1553 17.4909 16.318Z" fill="url(#paint2_linear_3218_86963)"/>
<rect x="5.2002" y="6.40039" width="12.8" height="1.6" fill="url(#paint3_linear_3218_86963)"/>
<rect x="5.2002" y="9.59961" width="8" height="1.6" fill="url(#paint4_linear_3218_86963)"/>
<defs>
<linearGradient id="paint0_linear_3218_86963" x1="12" y1="0" x2="12" y2="24" gradientUnits="userSpaceOnUse">
<stop stop-color="#10808C"/>
<stop offset="1" stop-color="#1DF7EF"/>
</linearGradient>
<linearGradient id="paint1_linear_3218_86963" x1="15.6513" y1="11.0879" x2="15.6513" y2="19.1912" gradientUnits="userSpaceOnUse">
<stop stop-color="#FE5468"/>
<stop offset="1" stop-color="#FFDF27"/>
</linearGradient>
<linearGradient id="paint2_linear_3218_86963" x1="15.6493" y1="13.666" x2="15.6493" y2="16.6127" gradientUnits="userSpaceOnUse">
<stop stop-color="#10808C"/>
<stop offset="1" stop-color="#1DF7EF"/>
</linearGradient>
<linearGradient id="paint3_linear_3218_86963" x1="11.6002" y1="6.40039" x2="11.6002" y2="8.00039" gradientUnits="userSpaceOnUse">
<stop stop-color="#FE5468"/>
<stop offset="1" stop-color="#FFDF27"/>
</linearGradient>
<linearGradient id="paint4_linear_3218_86963" x1="9.2002" y1="9.59961" x2="9.2002" y2="11.1996" gradientUnits="userSpaceOnUse">
<stop stop-color="#FE5468"/>
<stop offset="1" stop-color="#FFDF27"/>
</linearGradient>
</defs>
</svg>
