<svg width="15" height="15" viewBox="0 0 15 15" fill="none" xmlns="http://www.w3.org/2000/svg">
<path d="M5.19354 4.2261C5.16786 3.86786 5.26543 3.53892 5.47476 3.21994C5.61491 3.0079 5.81366 2.77894 6.03296 2.52672C6.59871 1.87518 7.29949 1.06868 7.47106 0C7.8441 0.819182 7.66317 1.61571 7.25025 2.3482C7.06449 2.67745 6.85879 2.91396 6.66245 3.13959C6.43137 3.4051 6.21359 3.65551 6.05712 4.02372C5.97104 4.22398 5.9221 4.41579 5.89915 4.60337L5.19354 4.2261Z" fill="url(#paint0_radial_177_29462)"/>
<path d="M6.40424 4.87433C6.49032 4.55838 6.63924 4.26296 6.83709 3.97631C7.0008 3.73708 7.15425 3.55977 7.29199 3.40059C7.75534 2.86443 8.0429 2.53156 7.95863 0.734619C8.0127 0.850005 8.06616 0.961163 8.11811 1.06839L8.11842 1.069C8.5703 2.00719 8.88746 2.66507 8.35463 3.56853C8.09123 4.01497 7.89912 4.23699 7.72937 4.43332C7.53816 4.65413 7.37505 4.84291 7.16995 5.28211L6.40424 4.87433Z" fill="url(#paint1_radial_177_29462)"/>
<path d="M8.38848 4.59121C8.18067 4.83738 7.84145 5.1769 7.82605 5.19925L9.74563 4.12604C9.70546 3.7684 9.44176 3.34703 9.11765 2.74805C9.1832 3.53763 8.8751 4.01458 8.38848 4.59121Z" fill="url(#paint2_radial_177_29462)"/>
<path d="M9.73146 4.48291C9.6798 4.71187 9.39708 5.18822 9.18926 5.4356C8.53259 6.21673 8.19066 6.5499 7.62883 7.7252C7.59711 7.59804 7.56389 7.47812 7.53217 7.36364C7.3754 6.79819 7.27905 6.32728 7.46693 5.92131L9.73146 4.48291Z" fill="url(#paint3_radial_177_29462)"/>
<path d="M7.19568 7.13073C7.03499 6.66043 6.9196 6.26715 7.00357 5.76966L6.3324 5.33228C6.29524 6.06416 6.60788 6.91869 7.47116 8.01878C7.42525 7.74633 7.28751 7.39956 7.19568 7.13073Z" fill="url(#paint4_radial_177_29462)"/>
<path d="M5.88502 5.04085C5.8965 5.27887 6.0436 5.90806 6.1753 6.24093C5.79954 5.76156 5.38874 5.02605 5.27124 4.64062L5.88502 5.04085Z" fill="url(#paint5_radial_177_29462)"/>
<path d="M13.7902 8.6179C13.7902 7.52898 11.7652 6.61314 9.02855 6.35669C8.76757 6.64969 8.50659 7.01336 8.25709 7.54952L7.88133 8.26328C7.80974 8.39498 7.67774 8.48137 7.53124 8.49285C7.38233 8.50432 7.23885 8.43908 7.15005 8.31977L6.909 7.99596C6.40698 7.35499 6.03968 6.84723 5.75001 6.37209C3.09401 6.64848 1.14362 7.54982 1.14362 8.6179C1.14362 9.90557 3.97753 10.951 7.46842 10.951C7.63696 10.951 7.8043 10.9486 7.96983 10.9437L8.48212 9.49357L8.48635 9.4833C8.59932 9.20087 8.87117 9.01601 9.17353 9.01178H9.17565L13.6984 9.02386C13.7449 8.90999 13.7902 8.73661 13.7902 8.6179Z" fill="url(#paint6_radial_177_29462)"/>
<path d="M9.36012 10.9826H12.9036L12.7486 11.3755H9.2239L8.43915 13.6141V11.2369L8.98799 9.684C9.0191 9.60547 9.09522 9.55321 9.1807 9.552L13.476 9.55321L13.3171 9.94045H9.73135L9.6214 10.2673H13.1945L13.0247 10.6557H9.48427L9.36012 10.9826Z" fill="url(#paint7_radial_177_29462)"/>
<path d="M1.36115 9.64722C1.76923 10.8011 2.76783 12.1564 2.98018 12.3546C3.71358 13.0454 6.07658 13.6141 7.93756 13.6141V11.6692C4.71158 11.6692 2.19301 10.6244 1.36115 9.64722Z" fill="url(#paint8_radial_177_29462)"/>
<defs>
<radialGradient id="paint0_radial_177_29462" cx="0" cy="0" r="1" gradientUnits="userSpaceOnUse" gradientTransform="translate(7.20712 1.42989) rotate(117.912) scale(3.92975 3.03297)">
<stop stop-color="#1DF7EF"/>
<stop offset="1" stop-color="#10808C"/>
</radialGradient>
<radialGradient id="paint1_radial_177_29462" cx="0" cy="0" r="1" gradientUnits="userSpaceOnUse" gradientTransform="translate(8.21433 2.14715) rotate(115.692) scale(3.80679 2.77483)">
<stop stop-color="#1DF7EF"/>
<stop offset="1" stop-color="#10808C"/>
</radialGradient>
<radialGradient id="paint2_radial_177_29462" cx="0" cy="0" r="1" gradientUnits="userSpaceOnUse" gradientTransform="translate(9.3849 3.50943) rotate(127.548) scale(2.33221 2.1025)">
<stop stop-color="#1DF7EF"/>
<stop offset="1" stop-color="#10808C"/>
</radialGradient>
<radialGradient id="paint3_radial_177_29462" cx="0" cy="0" r="1" gradientUnits="userSpaceOnUse" gradientTransform="translate(9.28647 5.49002) rotate(125.634) scale(3.00934 2.65869)">
<stop stop-color="#1DF7EF"/>
<stop offset="1" stop-color="#10808C"/>
</radialGradient>
<radialGradient id="paint4_radial_177_29462" cx="0" cy="0" r="1" gradientUnits="userSpaceOnUse" gradientTransform="translate(7.25661 6.16675) rotate(112.642) scale(2.19582 1.45565)">
<stop stop-color="#1DF7EF"/>
<stop offset="1" stop-color="#10808C"/>
</radialGradient>
<radialGradient id="paint5_radial_177_29462" cx="0" cy="0" r="1" gradientUnits="userSpaceOnUse" gradientTransform="translate(6.00541 5.13771) rotate(119.008) scale(1.38037 1.09225)">
<stop stop-color="#1DF7EF"/>
<stop offset="1" stop-color="#10808C"/>
</radialGradient>
<radialGradient id="paint6_radial_177_29462" cx="0" cy="0" r="1" gradientUnits="userSpaceOnUse" gradientTransform="translate(11.4136 7.78376) rotate(159.689) scale(9.98461 6.06428)">
<stop stop-color="#FFDF27"/>
<stop offset="0.9999" stop-color="#FE5468"/>
</radialGradient>
<radialGradient id="paint7_radial_177_29462" cx="0" cy="0" r="1" gradientUnits="userSpaceOnUse" gradientTransform="translate(12.5294 10.8138) rotate(140.592) scale(4.82679 4.41737)">
<stop stop-color="#1DF7EF"/>
<stop offset="0.9999" stop-color="#10808C"/>
</radialGradient>
<radialGradient id="paint8_radial_177_29462" cx="0" cy="0" r="1" gradientUnits="userSpaceOnUse" gradientTransform="translate(6.70169 10.8794) rotate(148.427) scale(5.71535 4.75684)">
<stop stop-color="#1DF7EF"/>
<stop offset="0.9999" stop-color="#10808C"/>
</radialGradient>
</defs>
</svg>
