<svg width="24" height="24" viewBox="0 0 24 24" fill="none" xmlns="http://www.w3.org/2000/svg">
<circle cx="5.58366" cy="6.66667" r="0.666667" fill="url(#paint0_linear_3218_87126)"/>
<circle cx="5.58366" cy="13.3337" r="0.666667" fill="url(#paint1_linear_3218_87126)"/>
<circle cx="5.58366" cy="19.9997" r="0.666667" fill="url(#paint2_linear_3218_87126)"/>
<path d="M3.5487 3.58763C3.5487 3.4512 3.63601 3.22103 4.03646 2.92096C4.429 2.62681 5.0371 2.33455 5.84582 2.07747C7.45645 1.56546 9.72157 1.23711 12.25 1.23711C14.7784 1.23711 17.0436 1.56546 18.6542 2.07747C19.4629 2.33455 20.071 2.62681 20.4635 2.92096C20.864 3.22103 20.9513 3.4512 20.9513 3.58763V5.54819C21.3542 5.3396 21.7944 5.20413 22.25 5.15212V3.58763C22.25 2.90756 21.8133 2.35835 21.2665 1.94863C20.7118 1.53298 19.9494 1.18503 19.0653 0.903975C17.2902 0.339691 14.88 0 12.25 0C9.61999 0 7.20979 0.339691 5.4347 0.903975C4.55057 1.18503 3.7882 1.53298 3.23351 1.94863C2.68672 2.35835 2.25 2.90756 2.25 3.58763V6.5567C2.25 7.23677 2.68672 7.78598 3.23351 8.1957C3.7882 8.61135 4.55057 8.9593 5.4347 9.24036C7.20979 9.80464 9.61999 10.1443 12.25 10.1443C14.5822 10.1443 16.7416 9.87721 18.4385 9.42323L19.0177 7.94421C18.9014 7.98587 18.7802 8.02679 18.6542 8.06686C17.0436 8.57887 14.7784 8.90722 12.25 8.90722C9.72157 8.90722 7.45645 8.57887 5.84582 8.06686C5.0371 7.80978 4.429 7.51752 4.03646 7.22337C3.63601 6.9233 3.5487 6.69313 3.5487 6.5567V3.58763Z" fill="url(#paint3_linear_3218_87126)"/>
<path d="M17.9207 10.7455C17.8923 10.7528 17.8638 10.76 17.8352 10.7672C16.3164 11.1485 14.3784 11.3814 12.25 11.3814C10.1216 11.3814 8.18361 11.1485 6.66483 10.7672C5.90529 10.5765 5.26329 10.3519 4.75963 10.1082C4.24872 9.86106 3.91849 9.61267 3.73887 9.39305L3.24364 8.78753L2.72778 9.37721C2.60426 9.5184 2.51596 9.66977 2.45881 9.77863C2.37047 9.94694 2.25 10.2026 2.25 10.5155V13.4845C2.25 14.1646 2.68672 14.7138 3.23351 15.1235C3.7882 15.5392 4.55057 15.8871 5.4347 16.1682C6.8179 16.6079 8.58674 16.9112 10.5447 17.0237C10.4696 16.6113 10.4653 16.1918 10.5282 15.7833C8.7002 15.6718 7.08065 15.3872 5.84582 14.9947C5.0371 14.7376 4.429 14.4454 4.03646 14.1512C3.63601 13.8511 3.5487 13.621 3.5487 13.4845V10.8667C3.74198 10.9899 3.95106 11.1046 4.17154 11.2112C4.77827 11.5048 5.5116 11.7571 6.33387 11.9635C7.97873 12.3764 10.0303 12.6186 12.25 12.6186C14.1259 12.6186 15.8818 12.4456 17.3735 12.1428L17.9207 10.7455Z" fill="url(#paint4_linear_3218_87126)"/>
<path d="M11.0221 18.2831C9.37797 18.2123 7.8859 18.0016 6.66483 17.6951C5.90529 17.5044 5.26329 17.2798 4.75963 17.0361C4.24872 16.7889 3.91849 16.5405 3.73887 16.3209L3.21682 15.6826L2.70714 16.3299C2.49817 16.5953 2.25 16.9838 2.25 17.4433V20.4124C2.25 21.0924 2.68672 21.6416 3.23351 22.0514C3.7882 22.467 4.55057 22.815 5.4347 23.096C7.20979 23.6603 9.61999 24 12.25 24C13.3612 24 14.4332 23.9394 15.4346 23.8268C14.9089 23.5646 14.4226 23.1933 14.0089 22.7088C13.4411 22.7442 12.853 22.7629 12.25 22.7629C9.72157 22.7629 7.45645 22.4345 5.84582 21.9225C5.0371 21.6654 4.429 21.3732 4.03646 21.079C3.63601 20.779 3.5487 20.5488 3.5487 20.4124V17.7946C3.74198 17.9177 3.95106 18.0324 4.17154 18.1391C4.77827 18.4326 5.5116 18.6849 6.33387 18.8913C7.88147 19.2799 9.78911 19.5172 11.8581 19.5439L11.1129 18.4261C11.0814 18.3789 11.0511 18.3312 11.0221 18.2831Z" fill="url(#paint5_linear_3218_87126)"/>
<path fill-rule="evenodd" clip-rule="evenodd" d="M12.25 1.48454C10.4906 1.48454 8.8767 1.65458 7.68381 1.93915C7.09235 2.08025 6.56789 2.25792 6.17565 2.47864C5.82758 2.67451 5.36688 3.02917 5.36688 3.58763C5.36688 4.14609 5.82758 4.50075 6.17565 4.69662C6.56789 4.91734 7.09235 5.09501 7.68381 5.23611C8.8767 5.52068 10.4906 5.69072 12.25 5.69072C14.0094 5.69072 15.6233 5.52068 16.8162 5.23611C17.4077 5.09501 17.9321 4.91734 18.3243 4.69662C18.6724 4.50075 19.1331 4.14609 19.1331 3.58763C19.1331 3.02917 18.6724 2.67451 18.3243 2.47864C17.9321 2.25792 17.4077 2.08025 16.8162 1.93915C15.6233 1.65458 14.0094 1.48454 12.25 1.48454ZM6.6437 3.68354C6.64361 3.68353 6.64421 3.68254 6.64574 3.68059L6.6437 3.68354ZM6.8362 3.54378C6.80799 3.55965 6.78372 3.57429 6.76288 3.58763C6.78372 3.60097 6.80799 3.6156 6.8362 3.63147C7.07465 3.76565 7.46285 3.90808 7.99931 4.03606C9.06226 4.28963 10.5653 4.45361 12.25 4.45361C13.9347 4.45361 15.4377 4.28963 16.5007 4.03606C17.0372 3.90808 17.4254 3.76565 17.6638 3.63147C17.692 3.6156 17.7163 3.60097 17.7371 3.58763C17.7163 3.57429 17.692 3.55965 17.6638 3.54378C17.4254 3.4096 17.0372 3.26718 16.5007 3.1392C15.4377 2.88563 13.9347 2.72165 12.25 2.72165C10.5653 2.72165 9.06226 2.88563 7.99931 3.1392C7.46285 3.26718 7.07465 3.4096 6.8362 3.54378ZM17.8563 3.68354C17.8564 3.68354 17.8567 3.68416 17.8563 3.68354V3.68354ZM17.8543 3.49466L17.8563 3.49171C17.8564 3.49172 17.8558 3.49272 17.8543 3.49466ZM6.64574 3.49467C6.64421 3.49272 6.64361 3.49172 6.6437 3.49171L6.64574 3.49467Z" fill="url(#paint6_linear_3218_87126)"/>
<path fill-rule="evenodd" clip-rule="evenodd" d="M22.9666 7.43352C23.5387 7.63785 23.8369 8.26729 23.6325 8.83941L19.295 19.952C18.7474 21.4854 16.6861 21.7392 15.7829 20.3844L13.2347 16.562C12.8977 16.0565 13.0343 15.3736 13.5398 15.0366C14.0452 14.6996 14.7282 14.8362 15.0652 15.3417L17.3705 18.7997L21.5607 8.09947C21.765 7.52735 22.3945 7.2292 22.9666 7.43352Z" fill="url(#paint7_linear_3218_87126)"/>
<defs>
<linearGradient id="paint0_linear_3218_87126" x1="5.58366" y1="6" x2="5.58366" y2="7.33333" gradientUnits="userSpaceOnUse">
<stop stop-color="#FE5468"/>
<stop offset="1" stop-color="#FFDF27"/>
</linearGradient>
<linearGradient id="paint1_linear_3218_87126" x1="5.58366" y1="12.667" x2="5.58366" y2="14.0003" gradientUnits="userSpaceOnUse">
<stop stop-color="#FE5468"/>
<stop offset="1" stop-color="#FFDF27"/>
</linearGradient>
<linearGradient id="paint2_linear_3218_87126" x1="5.58366" y1="19.333" x2="5.58366" y2="20.6663" gradientUnits="userSpaceOnUse">
<stop stop-color="#FE5468"/>
<stop offset="1" stop-color="#FFDF27"/>
</linearGradient>
<linearGradient id="paint3_linear_3218_87126" x1="12.25" y1="0" x2="12.25" y2="24" gradientUnits="userSpaceOnUse">
<stop stop-color="#10808C"/>
<stop offset="1" stop-color="#1DF7EF"/>
</linearGradient>
<linearGradient id="paint4_linear_3218_87126" x1="12.25" y1="0" x2="12.25" y2="24" gradientUnits="userSpaceOnUse">
<stop stop-color="#10808C"/>
<stop offset="1" stop-color="#1DF7EF"/>
</linearGradient>
<linearGradient id="paint5_linear_3218_87126" x1="12.25" y1="0" x2="12.25" y2="24" gradientUnits="userSpaceOnUse">
<stop stop-color="#10808C"/>
<stop offset="1" stop-color="#1DF7EF"/>
</linearGradient>
<linearGradient id="paint6_linear_3218_87126" x1="12.25" y1="0" x2="12.25" y2="24" gradientUnits="userSpaceOnUse">
<stop stop-color="#10808C"/>
<stop offset="1" stop-color="#1DF7EF"/>
</linearGradient>
<linearGradient id="paint7_linear_3218_87126" x1="18.3734" y1="7.36914" x2="18.3734" y2="21.2665" gradientUnits="userSpaceOnUse">
<stop stop-color="#FE5468"/>
<stop offset="1" stop-color="#FFDF27"/>
</linearGradient>
</defs>
</svg>
