<svg width="24" height="24" viewBox="0 0 24 24" fill="none" xmlns="http://www.w3.org/2000/svg">
<g clip-path="url(#clip0_3218_88145)">
<path d="M22.2637 0C23.7167 0 24.5051 1.66717 23.641 2.78506L23.5516 2.892L15.5978 11.7291C15.5397 11.7936 15.5083 11.8778 15.5091 11.9646L15.5876 19.3398L15.5843 19.5029C15.5412 20.2612 15.1443 20.956 14.5136 21.3791L14.3755 21.4657L10.5623 23.6667C9.44823 24.3098 8.06333 23.5572 7.96882 22.3022L7.9634 22.1797L7.88354 11.9389C7.88304 11.8789 7.86711 11.8204 7.83752 11.769L7.80368 11.7203L0.404813 2.84192C-0.535542 1.71341 0.267128 0 1.73609 0H22.2637ZM9.40094 10.389L9.52751 10.5555C9.80631 10.9557 9.95893 11.4323 9.96269 11.9233L10.0378 21.5686L13.3359 19.6647L13.3745 19.639C13.4475 19.5825 13.4951 19.4991 13.5065 19.4075L13.5092 19.3615L13.43 11.9863C13.4237 11.3784 13.646 10.7901 14.0526 10.3382L21.486 2.07915H2.47584L9.40094 10.389Z" fill="url(#paint0_linear_3218_88145)"/>
<path d="M5.69221 3.25928C6.45842 2.93987 6.69061 4.33334 9.00004 5.66684C11.3095 7.00035 12 6.30794 12 7.66684C12 9.64128 8.5424 7.50264 8.49632 7.47604C7.33665 6.8065 6.5522 5.98387 6.05656 5.3259C5.11038 4.06981 5.16492 3.47912 5.69221 3.25928Z" fill="url(#paint1_linear_3218_88145)"/>
</g>
<defs>
<linearGradient id="paint0_linear_3218_88145" x1="12" y1="0" x2="12" y2="23.9013" gradientUnits="userSpaceOnUse">
<stop stop-color="#FE5468"/>
<stop offset="1" stop-color="#FFDF27"/>
</linearGradient>
<linearGradient id="paint1_linear_3218_88145" x1="7.86082" y1="2.67193" x2="9.55241" y2="8.98504" gradientUnits="userSpaceOnUse">
<stop stop-color="#10808C"/>
<stop offset="1" stop-color="#1DF7EF"/>
</linearGradient>
<clipPath id="clip0_3218_88145">
<rect width="24" height="24" fill="white"/>
</clipPath>
</defs>
</svg>
