<svg width="15" height="15" viewBox="0 0 15 15" fill="none" xmlns="http://www.w3.org/2000/svg">
<path fill-rule="evenodd" clip-rule="evenodd" d="M11 7.5C11 6.67157 11.6716 6 12.5 6C13.3284 6 14 6.67157 14 7.5C14 8.32843 13.3284 9 12.5 9C11.6716 9 11 8.32843 11 7.5Z" fill="url(#paint0_linear_177_31230)"/>
<path fill-rule="evenodd" clip-rule="evenodd" d="M6 7.5C6 6.67157 6.67157 6 7.5 6C8.32843 6 9 6.67157 9 7.5C9 8.32843 8.32843 9 7.5 9C6.67157 9 6 8.32843 6 7.5Z" fill="url(#paint1_linear_177_31230)"/>
<path fill-rule="evenodd" clip-rule="evenodd" d="M1 7.5C1 6.67157 1.67157 6 2.5 6C3.32843 6 4 6.67157 4 7.5C4 8.32843 3.32843 9 2.5 9C1.67157 9 1 8.32843 1 7.5Z" fill="url(#paint2_linear_177_31230)"/>
<path fill-rule="evenodd" clip-rule="evenodd" d="M12.5 6H2.5C1.67157 6 1 6.67157 1 7.5C1 8.32843 1.67157 9 2.5 9H12.5C13.3284 9 14 8.32843 14 7.5C14 6.67157 13.3284 6 12.5 6ZM2.5 5C1.11929 5 0 6.11929 0 7.5C0 8.88071 1.11929 10 2.5 10H12.5C13.8807 10 15 8.88071 15 7.5C15 6.11929 13.8807 5 12.5 5H2.5Z" fill="url(#paint3_linear_177_31230)"/>
<defs>
<linearGradient id="paint0_linear_177_31230" x1="12.5" y1="6" x2="12.5" y2="9" gradientUnits="userSpaceOnUse">
<stop stop-color="#FE5468"/>
<stop offset="1" stop-color="#FFDF27"/>
</linearGradient>
<linearGradient id="paint1_linear_177_31230" x1="7.5" y1="6" x2="7.5" y2="9" gradientUnits="userSpaceOnUse">
<stop stop-color="#FE5468"/>
<stop offset="1" stop-color="#FFDF27"/>
</linearGradient>
<linearGradient id="paint2_linear_177_31230" x1="2.5" y1="6" x2="2.5" y2="9" gradientUnits="userSpaceOnUse">
<stop stop-color="#FE5468"/>
<stop offset="1" stop-color="#FFDF27"/>
</linearGradient>
<linearGradient id="paint3_linear_177_31230" x1="7.5" y1="5" x2="7.5" y2="10" gradientUnits="userSpaceOnUse">
<stop stop-color="#10808C"/>
<stop offset="1" stop-color="#1DF7EF"/>
</linearGradient>
</defs>
</svg>
