<svg width="15" height="15" viewBox="0 0 15 15" fill="none" xmlns="http://www.w3.org/2000/svg">
<g clip-path="url(#clip0_15010_54070)">
<path d="M15 10.2225H13.4228L13.0772 11.7662H14.4923V12.893H12.8179L12.321 15H11.1543L11.662 12.893H10.3657L9.87963 15H8.71296L9.20988 12.893H8V11.7662H9.46914L9.82562 10.2225H8.50772V9.16338H10.0741L10.5818 7H11.7485L11.2299 9.16338H12.5262L13.0231 7H14.1898L13.6821 9.16338H15V10.2225ZM11.9213 11.7662L12.267 10.2225H10.9815L10.625 11.7662H11.9213Z" fill="url(#paint0_linear_15010_54070)"/>
<path fill-rule="evenodd" clip-rule="evenodd" d="M12 2.90323C12 1.29982 10.7001 0 9.09668 0C8.18041 0 7.36336 0.42458 6.8315 1.08704C6.10609 0.412712 5.13342 0 4.06464 0C1.8198 0 0 1.81975 0 4.06452C0 6.30929 1.8198 8.12903 4.06464 8.12903C4.43679 8.12903 4.79724 8.07903 5.13964 7.98537C4.82881 8.40397 4.64493 8.92244 4.64493 9.48387C4.64493 10.8194 5.68542 11.9118 7 11.9949V10.8292C6.32768 10.7496 5.80626 10.1776 5.80626 9.48387C5.80626 8.73561 6.41286 8.12903 7.16114 8.12903C7.26583 8.12903 7.36775 8.14091 7.46562 8.16338H9.3034C8.86015 7.44587 8.06648 6.96774 7.16114 6.96774C7.07125 6.96774 6.98246 6.97246 6.895 6.98165C7.31273 6.57627 7.64366 6.08197 7.85726 5.52932C8.23331 5.70708 8.6536 5.80645 9.09668 5.80645C10.7001 5.80645 12 4.50663 12 2.90323ZM9.09668 1.16129C10.0588 1.16129 10.8387 1.94118 10.8387 2.90323C10.8387 3.86527 10.0588 4.64516 9.09668 4.64516C8.13461 4.64516 7.35469 3.86527 7.35469 2.90323C7.35469 1.94118 8.13461 1.16129 9.09668 1.16129ZM5.64642 1.62941C5.49965 2.02685 5.41952 2.45626 5.41952 2.90323C5.41952 3.94832 5.85593 4.89107 6.55413 5.55966C6.04572 6.40413 5.12023 6.96774 4.06464 6.96774C2.46119 6.96774 1.16133 5.66792 1.16133 4.06452C1.16133 2.46111 2.46119 1.16129 4.06464 1.16129C4.64865 1.16129 5.19134 1.33301 5.64642 1.62941Z" fill="url(#paint1_linear_15010_54070)"/>
</g>
<defs>
<linearGradient id="paint0_linear_15010_54070" x1="11.5" y1="7" x2="11.5" y2="15" gradientUnits="userSpaceOnUse">
<stop stop-color="#10808C"/>
<stop offset="1" stop-color="#1DF7EF"/>
</linearGradient>
<linearGradient id="paint1_linear_15010_54070" x1="6" y1="0" x2="14.0848" y2="11.3713" gradientUnits="userSpaceOnUse">
<stop stop-color="#FE5468"/>
<stop offset="1" stop-color="#FFDF27"/>
</linearGradient>
<clipPath id="clip0_15010_54070">
<rect width="15" height="15" fill="white"/>
</clipPath>
</defs>
</svg>
