<svg width="15" height="15" viewBox="0 0 15 15" fill="none" xmlns="http://www.w3.org/2000/svg">
<path fill-rule="evenodd" clip-rule="evenodd" d="M4.52083 1.22378L3.91857 2.65718C3.60179 3.4111 2.4607 3.41109 2.14393 2.65718L2.08333 2.51295V12.7119L2.16461 12.5461C2.50446 11.8528 3.55804 11.8528 3.89789 12.5461L4.52083 13.8169L5.14377 12.5461C5.48363 11.8528 6.53721 11.8528 6.87706 12.5461L7.5 13.8169L8.12294 12.5461C8.46279 11.8528 9.51637 11.8528 9.85623 12.5461L10.4792 13.8169L11.1021 12.5461C11.442 11.8528 12.4955 11.8528 12.8354 12.5461L12.9167 12.7119V2.51295L12.8561 2.65718C12.5393 3.4111 11.3982 3.41109 11.0814 2.65718L10.4792 1.22378L9.8769 2.65718C9.56013 3.4111 8.41904 3.41109 8.10227 2.65718L7.5 1.22378L6.89773 2.65718C6.58096 3.4111 5.43987 3.41109 5.1231 2.65718L4.52083 1.22378ZM3.63352 0.565436C3.95029 -0.188475 5.09138 -0.188482 5.40815 0.565435L6.01042 1.99883L6.61268 0.565436C6.92945 -0.188475 8.07054 -0.188482 8.38732 0.565435L8.98958 1.99883L9.59185 0.565436C9.90862 -0.188475 11.0497 -0.188482 11.3665 0.565435L11.9688 1.99883L12.5986 0.499797C12.8917 -0.197874 14 -0.00164871 14 0.747948V14.2435C14 14.9721 12.9391 15.1887 12.6143 14.5262L11.9688 13.2092L11.3458 14.48C11.006 15.1733 9.95238 15.1733 9.61252 14.48L8.98958 13.2092L8.36664 14.48C8.02679 15.1733 6.97321 15.1733 6.63336 14.48L6.01042 13.2092L5.38748 14.48C5.04762 15.1733 3.99404 15.1733 3.65419 14.48L3.03125 13.2092L2.38566 14.5262C2.06095 15.1886 1 14.9721 1 14.2435V0.747948C1 -0.00164231 2.10826 -0.197881 2.4014 0.499797L3.03125 1.99883L3.63352 0.565436Z" fill="url(#paint0_linear_15032_54155)"/>
<path fill-rule="evenodd" clip-rule="evenodd" d="M9.53229 11.2708C10.5312 11.2708 11.3411 10.4609 11.3411 9.46198C11.3411 8.46302 10.5312 7.6532 9.53229 7.6532C8.53333 7.6532 7.72351 8.46302 7.72351 9.46198C7.72351 10.4609 8.53333 11.2708 9.53229 11.2708ZM9.53229 11.9943C10.9308 11.9943 12.0646 10.8605 12.0646 9.46198C12.0646 8.06343 10.9308 6.92969 9.53229 6.92969C8.13374 6.92969 7 8.06343 7 9.46198C7 10.8605 8.13374 11.9943 9.53229 11.9943Z" fill="url(#paint1_linear_15032_54155)"/>
<path fill-rule="evenodd" clip-rule="evenodd" d="M10.4821 8.72518C10.4821 8.82689 10.3997 8.90935 10.298 8.90935H8.76325C8.66154 8.90935 8.57908 8.82689 8.57908 8.72518C8.57908 8.62347 8.66154 8.54102 8.76325 8.54102H10.298C10.3997 8.54102 10.4821 8.62347 10.4821 8.72518ZM10.298 9.46185C10.298 9.56356 10.2155 9.64601 10.1138 9.64601H8.94742C8.8457 9.64601 8.76325 9.56356 8.76325 9.46185C8.76325 9.36014 8.8457 9.27768 8.94742 9.27768H10.1138C10.2155 9.27768 10.298 9.36014 10.298 9.46185ZM10.682 10.1985C10.682 10.3002 10.5995 10.3827 10.4978 10.3827H8.56405C8.46234 10.3827 8.37988 10.3002 8.37988 10.1985C8.37988 10.0968 8.46234 10.0143 8.56405 10.0143H10.4978C10.5995 10.0143 10.682 10.0968 10.682 10.1985Z" fill="url(#paint2_linear_15032_54155)"/>
<rect x="3" y="4" width="8" height="1" fill="url(#paint3_linear_15032_54155)"/>
<rect x="3" y="6" width="5" height="1" fill="url(#paint4_linear_15032_54155)"/>
<defs>
<linearGradient id="paint0_linear_15032_54155" x1="7.5" y1="0" x2="7.5" y2="15" gradientUnits="userSpaceOnUse">
<stop stop-color="#10808C"/>
<stop offset="1" stop-color="#1DF7EF"/>
</linearGradient>
<linearGradient id="paint1_linear_15032_54155" x1="9.53229" y1="6.92969" x2="12.9464" y2="11.7296" gradientUnits="userSpaceOnUse">
<stop stop-color="#FE5468"/>
<stop offset="1" stop-color="#FFDF27"/>
</linearGradient>
<linearGradient id="paint2_linear_15032_54155" x1="9.53092" y1="8.54102" x2="9.53092" y2="10.3827" gradientUnits="userSpaceOnUse">
<stop stop-color="#10808C"/>
<stop offset="1" stop-color="#1DF7EF"/>
</linearGradient>
<linearGradient id="paint3_linear_15032_54155" x1="7" y1="4" x2="7.1259" y2="5.41603" gradientUnits="userSpaceOnUse">
<stop stop-color="#FE5468"/>
<stop offset="1" stop-color="#FFDF27"/>
</linearGradient>
<linearGradient id="paint4_linear_15032_54155" x1="5.5" y1="6" x2="5.69901" y2="7.39892" gradientUnits="userSpaceOnUse">
<stop stop-color="#FE5468"/>
<stop offset="1" stop-color="#FFDF27"/>
</linearGradient>
</defs>
</svg>
