<svg width="15" height="15" viewBox="0 0 15 15" fill="none" xmlns="http://www.w3.org/2000/svg">
<circle cx="7.5" cy="7.5" r="7.5" fill="transparent"/>
<path d="M6.6713 2.951C6.80527 2.951 6.91388 2.84239 6.91388 2.70841C6.91388 2.57443 6.80527 2.46582 6.6713 2.46582C6.53732 2.46582 6.42871 2.57443 6.42871 2.70841C6.42871 2.84239 6.53732 2.951 6.6713 2.951Z" fill="url(#paint0_linear_21391_71701)"/>
<path d="M6.06483 2.74884C6.06483 2.88282 5.95622 2.99143 5.82224 2.99143C5.68826 2.99143 5.57965 2.88282 5.57965 2.74884C5.57965 2.61486 5.68826 2.50625 5.82224 2.50625C5.95622 2.50625 6.06483 2.61486 6.06483 2.74884Z" fill="url(#paint1_linear_21391_71701)"/>
<path d="M5.2562 2.91056C5.2562 3.04454 5.14759 3.15315 5.01362 3.15315C4.87964 3.15315 4.77103 3.04454 4.77103 2.91056C4.77103 2.77659 4.87964 2.66798 5.01362 2.66798C5.14759 2.66798 5.2562 2.77659 5.2562 2.91056Z" fill="url(#paint2_linear_21391_71701)"/>
<path d="M7.76294 2.70841C7.76294 2.84239 7.65433 2.951 7.52035 2.951C7.38638 2.951 7.27777 2.84239 7.27777 2.70841C7.27777 2.57443 7.38638 2.46582 7.52035 2.46582C7.65433 2.46582 7.76294 2.57443 7.76294 2.70841Z" fill="url(#paint3_linear_21391_71701)"/>
<path d="M9.7845 2.91056C9.7845 3.04454 9.89311 3.15315 10.0271 3.15315C10.1611 3.15315 10.2697 3.04454 10.2697 2.91056C10.2697 2.77659 10.1611 2.66798 10.0271 2.66798C9.89311 2.66798 9.7845 2.77659 9.7845 2.91056Z" fill="url(#paint4_linear_21391_71701)"/>
<path d="M10.5931 3.80005C10.4592 3.80005 10.3505 3.69144 10.3505 3.55746C10.3505 3.42349 10.4592 3.31488 10.5931 3.31488C10.7271 3.31488 10.8357 3.42349 10.8357 3.55746C10.8357 3.69144 10.7271 3.80005 10.5931 3.80005Z" fill="url(#paint5_linear_21391_71701)"/>
<path d="M10.5527 4.52781C10.5527 4.66179 10.6613 4.7704 10.7953 4.7704C10.9293 4.7704 11.0379 4.66179 11.0379 4.52781C11.0379 4.39384 10.9293 4.28523 10.7953 4.28523C10.6613 4.28523 10.5527 4.39384 10.5527 4.52781Z" fill="url(#paint6_linear_21391_71701)"/>
<path d="M10.8357 5.70032C10.7017 5.70032 10.5931 5.59171 10.5931 5.45773C10.5931 5.32376 10.7017 5.21515 10.8357 5.21515C10.9697 5.21515 11.0783 5.32376 11.0783 5.45773C11.0783 5.59171 10.9697 5.70032 10.8357 5.70032Z" fill="url(#paint7_linear_21391_71701)"/>
<path d="M10.5931 6.38765C10.5931 6.52163 10.7017 6.63024 10.8357 6.63024C10.9697 6.63024 11.0783 6.52163 11.0783 6.38765C11.0783 6.25368 10.9697 6.14507 10.8357 6.14507C10.7017 6.14507 10.5931 6.25368 10.5931 6.38765Z" fill="url(#paint8_linear_21391_71701)"/>
<path d="M10.8357 7.56016C10.7017 7.56016 10.5931 7.45155 10.5931 7.31757C10.5931 7.18359 10.7017 7.07498 10.8357 7.07498C10.9697 7.07498 11.0783 7.18359 11.0783 7.31757C11.0783 7.45155 10.9697 7.56016 10.8357 7.56016Z" fill="url(#paint9_linear_21391_71701)"/>
<path d="M10.5931 8.20706C10.5931 8.34104 10.7017 8.44965 10.8357 8.44965C10.9697 8.44965 11.0783 8.34104 11.0783 8.20706C11.0783 8.07308 10.9697 7.96447 10.8357 7.96447C10.7017 7.96447 10.5931 8.07308 10.5931 8.20706Z" fill="url(#paint10_linear_21391_71701)"/>
<path d="M10.8357 9.33914C10.7017 9.33914 10.5931 9.23053 10.5931 9.09655C10.5931 8.96257 10.7017 8.85396 10.8357 8.85396C10.9697 8.85396 11.0783 8.96257 11.0783 9.09655C11.0783 9.23053 10.9697 9.33914 10.8357 9.33914Z" fill="url(#paint11_linear_21391_71701)"/>
<path d="M10.5931 9.98604C10.5931 10.12 10.7017 10.2286 10.8357 10.2286C10.9697 10.2286 11.0783 10.12 11.0783 9.98604C11.0783 9.85206 10.9697 9.74345 10.8357 9.74345C10.7017 9.74345 10.5931 9.85206 10.5931 9.98604Z" fill="url(#paint12_linear_21391_71701)"/>
<path d="M10.7549 11.2394C10.6209 11.2394 10.5123 11.1308 10.5123 10.9968C10.5123 10.8628 10.6209 10.7542 10.7549 10.7542C10.8888 10.7542 10.9974 10.8628 10.9974 10.9968C10.9974 11.1308 10.8888 11.2394 10.7549 11.2394Z" fill="url(#paint13_linear_21391_71701)"/>
<path d="M8.97588 2.74884C8.97588 2.88282 9.08449 2.99143 9.21847 2.99143C9.35244 2.99143 9.46105 2.88282 9.46105 2.74884C9.46105 2.61486 9.35244 2.50625 9.21847 2.50625C9.08449 2.50625 8.97588 2.61486 8.97588 2.74884Z" fill="url(#paint14_linear_21391_71701)"/>
<path d="M8.36941 2.951C8.23543 2.951 8.12682 2.84239 8.12682 2.70841C8.12682 2.57443 8.23543 2.46582 8.36941 2.46582C8.50339 2.46582 8.612 2.57443 8.612 2.70841C8.612 2.84239 8.50339 2.951 8.36941 2.951Z" fill="url(#paint15_linear_21391_71701)"/>
<path d="M4.44758 3.65854C4.55923 3.65854 4.64973 3.56803 4.64973 3.45639C4.64973 3.34474 4.55923 3.25423 4.44758 3.25423C4.33593 3.25423 4.24542 3.34474 4.24542 3.45639C4.24542 3.56803 4.33593 3.65854 4.44758 3.65854Z" fill="url(#paint16_linear_21391_71701)"/>
<path d="M4.45162 3.96178C4.45162 4.07343 4.36111 4.16393 4.24947 4.16393C4.13782 4.16393 4.04731 4.07343 4.04731 3.96178C4.04731 3.85013 4.13782 3.75962 4.24947 3.75962C4.36111 3.75962 4.45162 3.85013 4.45162 3.96178Z" fill="url(#paint17_linear_21391_71701)"/>
<path d="M4.40715 4.48738C4.40715 4.59903 4.31664 4.68954 4.20499 4.68954C4.09334 4.68954 4.00283 4.59903 4.00283 4.48738C4.00283 4.37574 4.09334 4.28523 4.20499 4.28523C4.31664 4.28523 4.40715 4.37574 4.40715 4.48738Z" fill="url(#paint18_linear_21391_71701)"/>
<path d="M4.36671 4.97256C4.36671 5.08421 4.27621 5.17472 4.16456 5.17472C4.05291 5.17472 3.9624 5.08421 3.9624 4.97256C3.9624 4.86091 4.05291 4.7704 4.16456 4.7704C4.27621 4.7704 4.36671 4.86091 4.36671 4.97256Z" fill="url(#paint19_linear_21391_71701)"/>
<path d="M4.36671 5.45773C4.36671 5.56938 4.27621 5.65989 4.16456 5.65989C4.05291 5.65989 3.9624 5.56938 3.9624 5.45773C3.9624 5.34609 4.05291 5.25558 4.16456 5.25558C4.27621 5.25558 4.36671 5.34609 4.36671 5.45773Z" fill="url(#paint20_linear_21391_71701)"/>
<path d="M4.36671 5.94291C4.36671 6.05456 4.27621 6.14507 4.16456 6.14507C4.05291 6.14507 3.9624 6.05456 3.9624 5.94291C3.9624 5.83126 4.05291 5.74075 4.16456 5.74075C4.27621 5.74075 4.36671 5.83126 4.36671 5.94291Z" fill="url(#paint21_linear_21391_71701)"/>
<path d="M4.36671 6.38765C4.36671 6.4993 4.27621 6.58981 4.16456 6.58981C4.05291 6.58981 3.9624 6.4993 3.9624 6.38765C3.9624 6.27601 4.05291 6.1855 4.16456 6.1855C4.27621 6.1855 4.36671 6.27601 4.36671 6.38765Z" fill="url(#paint22_linear_21391_71701)"/>
<path d="M4.36671 6.8324C4.36671 6.94404 4.27621 7.03455 4.16456 7.03455C4.05291 7.03455 3.9624 6.94404 3.9624 6.8324C3.9624 6.72075 4.05291 6.63024 4.16456 6.63024C4.27621 6.63024 4.36671 6.72075 4.36671 6.8324Z" fill="url(#paint23_linear_21391_71701)"/>
<path d="M4.36671 7.31757C4.36671 7.42922 4.27621 7.51973 4.16456 7.51973C4.05291 7.51973 3.9624 7.42922 3.9624 7.31757C3.9624 7.20592 4.05291 7.11542 4.16456 7.11542C4.27621 7.11542 4.36671 7.20592 4.36671 7.31757Z" fill="url(#paint24_linear_21391_71701)"/>
<path d="M4.36671 7.76232C4.36671 7.87396 4.27621 7.96447 4.16456 7.96447C4.05291 7.96447 3.9624 7.87396 3.9624 7.76232C3.9624 7.65067 4.05291 7.56016 4.16456 7.56016C4.27621 7.56016 4.36671 7.65067 4.36671 7.76232Z" fill="url(#paint25_linear_21391_71701)"/>
<path d="M4.36671 8.20706C4.36671 8.31871 4.27621 8.40922 4.16456 8.40922C4.05291 8.40922 3.9624 8.31871 3.9624 8.20706C3.9624 8.09541 4.05291 8.0049 4.16456 8.0049C4.27621 8.0049 4.36671 8.09541 4.36671 8.20706Z" fill="url(#paint26_linear_21391_71701)"/>
<path d="M4.36671 8.6518C4.36671 8.76345 4.27621 8.85396 4.16456 8.85396C4.05291 8.85396 3.9624 8.76345 3.9624 8.6518C3.9624 8.54016 4.05291 8.44965 4.16456 8.44965C4.27621 8.44965 4.36671 8.54016 4.36671 8.6518Z" fill="url(#paint27_linear_21391_71701)"/>
<path d="M4.36671 9.09655C4.36671 9.2082 4.27621 9.2987 4.16456 9.2987C4.05291 9.2987 3.9624 9.2082 3.9624 9.09655C3.9624 8.9849 4.05291 8.89439 4.16456 8.89439C4.27621 8.89439 4.36671 8.9849 4.36671 9.09655Z" fill="url(#paint28_linear_21391_71701)"/>
<path d="M4.36671 9.54129C4.36671 9.65294 4.27621 9.74345 4.16456 9.74345C4.05291 9.74345 3.9624 9.65294 3.9624 9.54129C3.9624 9.42964 4.05291 9.33914 4.16456 9.33914C4.27621 9.33914 4.36671 9.42964 4.36671 9.54129Z" fill="url(#paint29_linear_21391_71701)"/>
<path d="M4.36671 9.98604C4.36671 10.0977 4.27621 10.1882 4.16456 10.1882C4.05291 10.1882 3.9624 10.0977 3.9624 9.98604C3.9624 9.87439 4.05291 9.78388 4.16456 9.78388C4.27621 9.78388 4.36671 9.87439 4.36671 9.98604Z" fill="url(#paint30_linear_21391_71701)"/>
<path d="M4.36671 10.4712C4.36671 10.5829 4.27621 10.6734 4.16456 10.6734C4.05291 10.6734 3.9624 10.5829 3.9624 10.4712C3.9624 10.3596 4.05291 10.2691 4.16456 10.2691C4.27621 10.2691 4.36671 10.3596 4.36671 10.4712Z" fill="url(#paint31_linear_21391_71701)"/>
<path d="M4.40715 10.9564C4.40715 11.068 4.31664 11.1585 4.20499 11.1585C4.09334 11.1585 4.00283 11.068 4.00283 10.9564C4.00283 10.8447 4.09334 10.7542 4.20499 10.7542C4.31664 10.7542 4.40715 10.8447 4.40715 10.9564Z" fill="url(#paint32_linear_21391_71701)"/>
<path d="M4.56887 11.4416C4.56887 11.5532 4.47836 11.6437 4.36671 11.6437C4.25507 11.6437 4.16456 11.5532 4.16456 11.4416C4.16456 11.3299 4.25507 11.2394 4.36671 11.2394C4.47836 11.2394 4.56887 11.3299 4.56887 11.4416Z" fill="url(#paint33_linear_21391_71701)"/>
<path d="M4.85189 11.8459C4.85189 11.9575 4.76138 12.048 4.64973 12.048C4.53809 12.048 4.44758 11.9575 4.44758 11.8459C4.44758 11.7342 4.53809 11.6437 4.64973 11.6437C4.76138 11.6437 4.85189 11.7342 4.85189 11.8459Z" fill="url(#paint34_linear_21391_71701)"/>
<path d="M5.29663 12.0885C5.29663 12.2001 5.20613 12.2906 5.09448 12.2906C4.98283 12.2906 4.89232 12.2001 4.89232 12.0885C4.89232 11.9768 4.98283 11.8863 5.09448 11.8863C5.20613 11.8863 5.29663 11.9768 5.29663 12.0885Z" fill="url(#paint35_linear_21391_71701)"/>
<path d="M5.78181 12.2502C5.78181 12.3618 5.6913 12.4523 5.57965 12.4523C5.46801 12.4523 5.3775 12.3618 5.3775 12.2502C5.3775 12.1385 5.46801 12.048 5.57965 12.048C5.6913 12.048 5.78181 12.1385 5.78181 12.2502Z" fill="url(#paint36_linear_21391_71701)"/>
<path d="M6.26698 12.2906C6.26698 12.4023 6.17648 12.4928 6.06483 12.4928C5.95318 12.4928 5.86267 12.4023 5.86267 12.2906C5.86267 12.179 5.95318 12.0885 6.06483 12.0885C6.17648 12.0885 6.26698 12.179 6.26698 12.2906Z" fill="url(#paint37_linear_21391_71701)"/>
<path d="M6.75216 12.331C6.75216 12.4427 6.66165 12.5332 6.55 12.5332C6.43836 12.5332 6.34785 12.4427 6.34785 12.331C6.34785 12.2194 6.43836 12.1289 6.55 12.1289C6.66165 12.1289 6.75216 12.2194 6.75216 12.331Z" fill="url(#paint38_linear_21391_71701)"/>
<path d="M7.23733 12.331C7.23733 12.4427 7.14683 12.5332 7.03518 12.5332C6.92353 12.5332 6.83302 12.4427 6.83302 12.331C6.83302 12.2194 6.92353 12.1289 7.03518 12.1289C7.14683 12.1289 7.23733 12.2194 7.23733 12.331Z" fill="url(#paint39_linear_21391_71701)"/>
<path d="M7.72251 12.331C7.72251 12.4427 7.632 12.5332 7.52035 12.5332C7.40871 12.5332 7.3182 12.4427 7.3182 12.331C7.3182 12.2194 7.40871 12.1289 7.52035 12.1289C7.632 12.1289 7.72251 12.2194 7.72251 12.331Z" fill="url(#paint40_linear_21391_71701)"/>
<path d="M10.1888 11.7852C10.1888 11.8969 10.2793 11.9874 10.391 11.9874C10.5026 11.9874 10.5931 11.8969 10.5931 11.7852C10.5931 11.6736 10.5026 11.5831 10.391 11.5831C10.2793 11.5831 10.1888 11.6736 10.1888 11.7852Z" fill="url(#paint41_linear_21391_71701)"/>
<path d="M9.74407 12.0885C9.74407 12.2001 9.83458 12.2906 9.94623 12.2906C10.0579 12.2906 10.1484 12.2001 10.1484 12.0885C10.1484 11.9768 10.0579 11.8863 9.94623 11.8863C9.83458 11.8863 9.74407 11.9768 9.74407 12.0885Z" fill="url(#paint42_linear_21391_71701)"/>
<path d="M9.2589 12.2502C9.2589 12.3618 9.34941 12.4523 9.46105 12.4523C9.5727 12.4523 9.66321 12.3618 9.66321 12.2502C9.66321 12.1385 9.5727 12.048 9.46105 12.048C9.34941 12.048 9.2589 12.1385 9.2589 12.2502Z" fill="url(#paint43_linear_21391_71701)"/>
<path d="M8.77372 12.2906C8.77372 12.4023 8.86423 12.4928 8.97588 12.4928C9.08753 12.4928 9.17804 12.4023 9.17804 12.2906C9.17804 12.179 9.08753 12.0885 8.97588 12.0885C8.86423 12.0885 8.77372 12.179 8.77372 12.2906Z" fill="url(#paint44_linear_21391_71701)"/>
<path d="M8.28855 12.331C8.28855 12.4427 8.37906 12.5332 8.4907 12.5332C8.60235 12.5332 8.69286 12.4427 8.69286 12.331C8.69286 12.2194 8.60235 12.1289 8.4907 12.1289C8.37906 12.1289 8.28855 12.2194 8.28855 12.331Z" fill="url(#paint45_linear_21391_71701)"/>
<path d="M7.80337 12.331C7.80337 12.4427 7.89388 12.5332 8.00553 12.5332C8.11718 12.5332 8.20768 12.4427 8.20768 12.331C8.20768 12.2194 8.11718 12.1289 8.00553 12.1289C7.89388 12.1289 7.80337 12.2194 7.80337 12.331Z" fill="url(#paint46_linear_21391_71701)"/>
<path d="M8.11784 3.95037C8.11784 4.27902 7.85034 4.54544 7.52035 4.54544C7.19037 4.54544 6.92287 4.27902 6.92287 3.95037C6.92287 3.62173 7.19037 3.35531 7.52035 3.35531C7.85034 3.35531 8.11784 3.62173 8.11784 3.95037Z" fill="url(#paint47_linear_21391_71701)"/>
<path d="M8.16052 4.29041C8.23123 4.29041 8.28855 4.3475 8.28855 4.41792V7.56327C8.28855 7.98581 7.94462 8.32835 7.52035 8.32835C7.09609 8.32835 6.75216 7.98581 6.75216 7.56327V4.41792C6.75216 4.3475 6.80948 4.29041 6.88019 4.29041C6.9509 4.29041 7.00822 4.3475 7.00822 4.41792V7.56327C7.00822 7.84497 7.23751 8.07333 7.52035 8.07333C7.80319 8.07333 8.03248 7.84497 8.03248 7.56327V4.41792C8.03248 4.3475 8.08981 4.29041 8.16052 4.29041Z" fill="url(#paint48_linear_21391_71701)"/>
<defs>
<linearGradient id="paint0_linear_21391_71701" x1="3.07291" y1="14.0784" x2="12.5512" y2="3.82771" gradientUnits="userSpaceOnUse">
<stop stop-color="#5C44C2"/>
<stop offset="0.499384" stop-color="#69ADDA"/>
<stop offset="0.945" stop-color="#FF1684"/>
</linearGradient>
<linearGradient id="paint1_linear_21391_71701" x1="3.07291" y1="14.0784" x2="12.5512" y2="3.82771" gradientUnits="userSpaceOnUse">
<stop stop-color="#5C44C2"/>
<stop offset="0.499384" stop-color="#69ADDA"/>
<stop offset="0.945" stop-color="#FF1684"/>
</linearGradient>
<linearGradient id="paint2_linear_21391_71701" x1="3.07291" y1="14.0784" x2="12.5512" y2="3.82771" gradientUnits="userSpaceOnUse">
<stop stop-color="#5C44C2"/>
<stop offset="0.499384" stop-color="#69ADDA"/>
<stop offset="0.945" stop-color="#FF1684"/>
</linearGradient>
<linearGradient id="paint3_linear_21391_71701" x1="3.07291" y1="14.0784" x2="12.5512" y2="3.82771" gradientUnits="userSpaceOnUse">
<stop stop-color="#5C44C2"/>
<stop offset="0.499384" stop-color="#69ADDA"/>
<stop offset="0.945" stop-color="#FF1684"/>
</linearGradient>
<linearGradient id="paint4_linear_21391_71701" x1="3.07291" y1="14.0784" x2="12.5512" y2="3.82771" gradientUnits="userSpaceOnUse">
<stop stop-color="#5C44C2"/>
<stop offset="0.499384" stop-color="#69ADDA"/>
<stop offset="0.945" stop-color="#FF1684"/>
</linearGradient>
<linearGradient id="paint5_linear_21391_71701" x1="3.07291" y1="14.0784" x2="12.5512" y2="3.82771" gradientUnits="userSpaceOnUse">
<stop stop-color="#5C44C2"/>
<stop offset="0.499384" stop-color="#69ADDA"/>
<stop offset="0.945" stop-color="#FF1684"/>
</linearGradient>
<linearGradient id="paint6_linear_21391_71701" x1="3.07291" y1="14.0784" x2="12.5512" y2="3.82771" gradientUnits="userSpaceOnUse">
<stop stop-color="#5C44C2"/>
<stop offset="0.499384" stop-color="#69ADDA"/>
<stop offset="0.945" stop-color="#FF1684"/>
</linearGradient>
<linearGradient id="paint7_linear_21391_71701" x1="3.07291" y1="14.0784" x2="12.5512" y2="3.82771" gradientUnits="userSpaceOnUse">
<stop stop-color="#5C44C2"/>
<stop offset="0.499384" stop-color="#69ADDA"/>
<stop offset="0.945" stop-color="#FF1684"/>
</linearGradient>
<linearGradient id="paint8_linear_21391_71701" x1="3.07291" y1="14.0784" x2="12.5512" y2="3.82771" gradientUnits="userSpaceOnUse">
<stop stop-color="#5C44C2"/>
<stop offset="0.499384" stop-color="#69ADDA"/>
<stop offset="0.945" stop-color="#FF1684"/>
</linearGradient>
<linearGradient id="paint9_linear_21391_71701" x1="3.07291" y1="14.0784" x2="12.5512" y2="3.82771" gradientUnits="userSpaceOnUse">
<stop stop-color="#5C44C2"/>
<stop offset="0.499384" stop-color="#69ADDA"/>
<stop offset="0.945" stop-color="#FF1684"/>
</linearGradient>
<linearGradient id="paint10_linear_21391_71701" x1="3.07291" y1="14.0784" x2="12.5512" y2="3.82771" gradientUnits="userSpaceOnUse">
<stop stop-color="#5C44C2"/>
<stop offset="0.499384" stop-color="#69ADDA"/>
<stop offset="0.945" stop-color="#FF1684"/>
</linearGradient>
<linearGradient id="paint11_linear_21391_71701" x1="3.07291" y1="14.0784" x2="12.5512" y2="3.82771" gradientUnits="userSpaceOnUse">
<stop stop-color="#5C44C2"/>
<stop offset="0.499384" stop-color="#69ADDA"/>
<stop offset="0.945" stop-color="#FF1684"/>
</linearGradient>
<linearGradient id="paint12_linear_21391_71701" x1="3.07291" y1="14.0784" x2="12.5512" y2="3.82771" gradientUnits="userSpaceOnUse">
<stop stop-color="#5C44C2"/>
<stop offset="0.499384" stop-color="#69ADDA"/>
<stop offset="0.945" stop-color="#FF1684"/>
</linearGradient>
<linearGradient id="paint13_linear_21391_71701" x1="3.07291" y1="14.0784" x2="12.5512" y2="3.82771" gradientUnits="userSpaceOnUse">
<stop stop-color="#5C44C2"/>
<stop offset="0.499384" stop-color="#69ADDA"/>
<stop offset="0.945" stop-color="#FF1684"/>
</linearGradient>
<linearGradient id="paint14_linear_21391_71701" x1="3.07291" y1="14.0784" x2="12.5512" y2="3.82771" gradientUnits="userSpaceOnUse">
<stop stop-color="#5C44C2"/>
<stop offset="0.499384" stop-color="#69ADDA"/>
<stop offset="0.945" stop-color="#FF1684"/>
</linearGradient>
<linearGradient id="paint15_linear_21391_71701" x1="3.07291" y1="14.0784" x2="12.5512" y2="3.82771" gradientUnits="userSpaceOnUse">
<stop stop-color="#5C44C2"/>
<stop offset="0.499384" stop-color="#69ADDA"/>
<stop offset="0.945" stop-color="#FF1684"/>
</linearGradient>
<linearGradient id="paint16_linear_21391_71701" x1="3.07291" y1="14.0784" x2="12.5512" y2="3.82771" gradientUnits="userSpaceOnUse">
<stop stop-color="#5C44C2"/>
<stop offset="0.499384" stop-color="#69ADDA"/>
<stop offset="0.945" stop-color="#FF1684"/>
</linearGradient>
<linearGradient id="paint17_linear_21391_71701" x1="3.07291" y1="14.0784" x2="12.5512" y2="3.82771" gradientUnits="userSpaceOnUse">
<stop stop-color="#5C44C2"/>
<stop offset="0.499384" stop-color="#69ADDA"/>
<stop offset="0.945" stop-color="#FF1684"/>
</linearGradient>
<linearGradient id="paint18_linear_21391_71701" x1="3.07291" y1="14.0784" x2="12.5512" y2="3.82771" gradientUnits="userSpaceOnUse">
<stop stop-color="#5C44C2"/>
<stop offset="0.499384" stop-color="#69ADDA"/>
<stop offset="0.945" stop-color="#FF1684"/>
</linearGradient>
<linearGradient id="paint19_linear_21391_71701" x1="3.07291" y1="14.0784" x2="12.5512" y2="3.82771" gradientUnits="userSpaceOnUse">
<stop stop-color="#5C44C2"/>
<stop offset="0.499384" stop-color="#69ADDA"/>
<stop offset="0.945" stop-color="#FF1684"/>
</linearGradient>
<linearGradient id="paint20_linear_21391_71701" x1="3.07291" y1="14.0784" x2="12.5512" y2="3.82771" gradientUnits="userSpaceOnUse">
<stop stop-color="#5C44C2"/>
<stop offset="0.499384" stop-color="#69ADDA"/>
<stop offset="0.945" stop-color="#FF1684"/>
</linearGradient>
<linearGradient id="paint21_linear_21391_71701" x1="3.07291" y1="14.0784" x2="12.5512" y2="3.82771" gradientUnits="userSpaceOnUse">
<stop stop-color="#5C44C2"/>
<stop offset="0.499384" stop-color="#69ADDA"/>
<stop offset="0.945" stop-color="#FF1684"/>
</linearGradient>
<linearGradient id="paint22_linear_21391_71701" x1="3.07291" y1="14.0784" x2="12.5512" y2="3.82771" gradientUnits="userSpaceOnUse">
<stop stop-color="#5C44C2"/>
<stop offset="0.499384" stop-color="#69ADDA"/>
<stop offset="0.945" stop-color="#FF1684"/>
</linearGradient>
<linearGradient id="paint23_linear_21391_71701" x1="3.07291" y1="14.0784" x2="12.5512" y2="3.82771" gradientUnits="userSpaceOnUse">
<stop stop-color="#5C44C2"/>
<stop offset="0.499384" stop-color="#69ADDA"/>
<stop offset="0.945" stop-color="#FF1684"/>
</linearGradient>
<linearGradient id="paint24_linear_21391_71701" x1="3.07291" y1="14.0784" x2="12.5512" y2="3.82771" gradientUnits="userSpaceOnUse">
<stop stop-color="#5C44C2"/>
<stop offset="0.499384" stop-color="#69ADDA"/>
<stop offset="0.945" stop-color="#FF1684"/>
</linearGradient>
<linearGradient id="paint25_linear_21391_71701" x1="3.07291" y1="14.0784" x2="12.5512" y2="3.82771" gradientUnits="userSpaceOnUse">
<stop stop-color="#5C44C2"/>
<stop offset="0.499384" stop-color="#69ADDA"/>
<stop offset="0.945" stop-color="#FF1684"/>
</linearGradient>
<linearGradient id="paint26_linear_21391_71701" x1="3.07291" y1="14.0784" x2="12.5512" y2="3.82771" gradientUnits="userSpaceOnUse">
<stop stop-color="#5C44C2"/>
<stop offset="0.499384" stop-color="#69ADDA"/>
<stop offset="0.945" stop-color="#FF1684"/>
</linearGradient>
<linearGradient id="paint27_linear_21391_71701" x1="3.07291" y1="14.0784" x2="12.5512" y2="3.82771" gradientUnits="userSpaceOnUse">
<stop stop-color="#5C44C2"/>
<stop offset="0.499384" stop-color="#69ADDA"/>
<stop offset="0.945" stop-color="#FF1684"/>
</linearGradient>
<linearGradient id="paint28_linear_21391_71701" x1="3.07291" y1="14.0784" x2="12.5512" y2="3.82771" gradientUnits="userSpaceOnUse">
<stop stop-color="#5C44C2"/>
<stop offset="0.499384" stop-color="#69ADDA"/>
<stop offset="0.945" stop-color="#FF1684"/>
</linearGradient>
<linearGradient id="paint29_linear_21391_71701" x1="3.07291" y1="14.0784" x2="12.5512" y2="3.82771" gradientUnits="userSpaceOnUse">
<stop stop-color="#5C44C2"/>
<stop offset="0.499384" stop-color="#69ADDA"/>
<stop offset="0.945" stop-color="#FF1684"/>
</linearGradient>
<linearGradient id="paint30_linear_21391_71701" x1="3.07291" y1="14.0784" x2="12.5512" y2="3.82771" gradientUnits="userSpaceOnUse">
<stop stop-color="#5C44C2"/>
<stop offset="0.499384" stop-color="#69ADDA"/>
<stop offset="0.945" stop-color="#FF1684"/>
</linearGradient>
<linearGradient id="paint31_linear_21391_71701" x1="3.07291" y1="14.0784" x2="12.5512" y2="3.82771" gradientUnits="userSpaceOnUse">
<stop stop-color="#5C44C2"/>
<stop offset="0.499384" stop-color="#69ADDA"/>
<stop offset="0.945" stop-color="#FF1684"/>
</linearGradient>
<linearGradient id="paint32_linear_21391_71701" x1="3.07291" y1="14.0784" x2="12.5512" y2="3.82771" gradientUnits="userSpaceOnUse">
<stop stop-color="#5C44C2"/>
<stop offset="0.499384" stop-color="#69ADDA"/>
<stop offset="0.945" stop-color="#FF1684"/>
</linearGradient>
<linearGradient id="paint33_linear_21391_71701" x1="3.07291" y1="14.0784" x2="12.5512" y2="3.82771" gradientUnits="userSpaceOnUse">
<stop stop-color="#5C44C2"/>
<stop offset="0.499384" stop-color="#69ADDA"/>
<stop offset="0.945" stop-color="#FF1684"/>
</linearGradient>
<linearGradient id="paint34_linear_21391_71701" x1="3.07291" y1="14.0784" x2="12.5512" y2="3.82771" gradientUnits="userSpaceOnUse">
<stop stop-color="#5C44C2"/>
<stop offset="0.499384" stop-color="#69ADDA"/>
<stop offset="0.945" stop-color="#FF1684"/>
</linearGradient>
<linearGradient id="paint35_linear_21391_71701" x1="3.07291" y1="14.0784" x2="12.5512" y2="3.82771" gradientUnits="userSpaceOnUse">
<stop stop-color="#5C44C2"/>
<stop offset="0.499384" stop-color="#69ADDA"/>
<stop offset="0.945" stop-color="#FF1684"/>
</linearGradient>
<linearGradient id="paint36_linear_21391_71701" x1="3.07291" y1="14.0784" x2="12.5512" y2="3.82771" gradientUnits="userSpaceOnUse">
<stop stop-color="#5C44C2"/>
<stop offset="0.499384" stop-color="#69ADDA"/>
<stop offset="0.945" stop-color="#FF1684"/>
</linearGradient>
<linearGradient id="paint37_linear_21391_71701" x1="3.07291" y1="14.0784" x2="12.5512" y2="3.82771" gradientUnits="userSpaceOnUse">
<stop stop-color="#5C44C2"/>
<stop offset="0.499384" stop-color="#69ADDA"/>
<stop offset="0.945" stop-color="#FF1684"/>
</linearGradient>
<linearGradient id="paint38_linear_21391_71701" x1="3.07291" y1="14.0784" x2="12.5512" y2="3.82771" gradientUnits="userSpaceOnUse">
<stop stop-color="#5C44C2"/>
<stop offset="0.499384" stop-color="#69ADDA"/>
<stop offset="0.945" stop-color="#FF1684"/>
</linearGradient>
<linearGradient id="paint39_linear_21391_71701" x1="3.07291" y1="14.0784" x2="12.5512" y2="3.82771" gradientUnits="userSpaceOnUse">
<stop stop-color="#5C44C2"/>
<stop offset="0.499384" stop-color="#69ADDA"/>
<stop offset="0.945" stop-color="#FF1684"/>
</linearGradient>
<linearGradient id="paint40_linear_21391_71701" x1="3.07291" y1="14.0784" x2="12.5512" y2="3.82771" gradientUnits="userSpaceOnUse">
<stop stop-color="#5C44C2"/>
<stop offset="0.499384" stop-color="#69ADDA"/>
<stop offset="0.945" stop-color="#FF1684"/>
</linearGradient>
<linearGradient id="paint41_linear_21391_71701" x1="3.07291" y1="14.0784" x2="12.5512" y2="3.82771" gradientUnits="userSpaceOnUse">
<stop stop-color="#5C44C2"/>
<stop offset="0.499384" stop-color="#69ADDA"/>
<stop offset="0.945" stop-color="#FF1684"/>
</linearGradient>
<linearGradient id="paint42_linear_21391_71701" x1="3.07291" y1="14.0784" x2="12.5512" y2="3.82771" gradientUnits="userSpaceOnUse">
<stop stop-color="#5C44C2"/>
<stop offset="0.499384" stop-color="#69ADDA"/>
<stop offset="0.945" stop-color="#FF1684"/>
</linearGradient>
<linearGradient id="paint43_linear_21391_71701" x1="3.07291" y1="14.0784" x2="12.5512" y2="3.82771" gradientUnits="userSpaceOnUse">
<stop stop-color="#5C44C2"/>
<stop offset="0.499384" stop-color="#69ADDA"/>
<stop offset="0.945" stop-color="#FF1684"/>
</linearGradient>
<linearGradient id="paint44_linear_21391_71701" x1="3.07291" y1="14.0784" x2="12.5512" y2="3.82771" gradientUnits="userSpaceOnUse">
<stop stop-color="#5C44C2"/>
<stop offset="0.499384" stop-color="#69ADDA"/>
<stop offset="0.945" stop-color="#FF1684"/>
</linearGradient>
<linearGradient id="paint45_linear_21391_71701" x1="3.07291" y1="14.0784" x2="12.5512" y2="3.82771" gradientUnits="userSpaceOnUse">
<stop stop-color="#5C44C2"/>
<stop offset="0.499384" stop-color="#69ADDA"/>
<stop offset="0.945" stop-color="#FF1684"/>
</linearGradient>
<linearGradient id="paint46_linear_21391_71701" x1="3.07291" y1="14.0784" x2="12.5512" y2="3.82771" gradientUnits="userSpaceOnUse">
<stop stop-color="#5C44C2"/>
<stop offset="0.499384" stop-color="#69ADDA"/>
<stop offset="0.945" stop-color="#FF1684"/>
</linearGradient>
<linearGradient id="paint47_linear_21391_71701" x1="3.07291" y1="14.0784" x2="12.5512" y2="3.82771" gradientUnits="userSpaceOnUse">
<stop stop-color="#5C44C2"/>
<stop offset="0.499384" stop-color="#69ADDA"/>
<stop offset="0.945" stop-color="#FF1684"/>
</linearGradient>
<linearGradient id="paint48_linear_21391_71701" x1="3.07291" y1="14.0784" x2="12.5512" y2="3.82771" gradientUnits="userSpaceOnUse">
<stop stop-color="#5C44C2"/>
<stop offset="0.499384" stop-color="#69ADDA"/>
<stop offset="0.945" stop-color="#FF1684"/>
</linearGradient>
</defs>
</svg>
