<svg width="15" height="15" viewBox="0 0 15 15" fill="none" xmlns="http://www.w3.org/2000/svg">
<g clip-path="url(#clip0_9599_35713)">
<path fill-rule="evenodd" clip-rule="evenodd" d="M11 2C11.3945 2 11.7143 2.3198 11.7143 2.71429V5.28571H14.2857C14.6802 5.28571 15 5.60551 15 6C15 6.39449 14.6802 6.71429 14.2857 6.71429H11.7143V9.28571C11.7143 9.6802 11.3945 10 11 10C10.6055 10 10.2857 9.6802 10.2857 9.28571V6.71429H7.71429C7.3198 6.71429 7 6.39449 7 6C7 5.60551 7.3198 5.28571 7.71429 5.28571H10.2857V2.71429C10.2857 2.3198 10.6055 2 11 2Z" fill="url(#paint0_linear_9599_35713)"/>
<path fill-rule="evenodd" clip-rule="evenodd" d="M1.4237 0C0.637411 0 0 0.637389 0 1.42365V7.25463C0 7.63221 0.149996 7.99432 0.416991 8.2613L6.73893 14.583C7.29491 15.139 8.19635 15.139 8.75234 14.583L12.3355 11H10.5677L7.86847 13.6991C7.80063 13.767 7.69063 13.767 7.62279 13.6991L1.30086 7.3774C1.26829 7.34484 1.25 7.30067 1.25 7.25463V3.85462C1.48161 3.94837 1.73477 4 2 4C3.10457 4 4 3.10457 4 2C4 1.73477 3.94837 1.48161 3.85462 1.25H7.25385C7.29993 1.25 7.34412 1.26831 7.37669 1.30088L9 2.92413V1.1564L8.26056 0.416978C7.99356 0.149992 7.63144 0 7.25385 0H1.4237ZM1.25 2C1.25 1.58579 1.58579 1.25 2 1.25C2.41421 1.25 2.75 1.58579 2.75 2C2.75 2.41421 2.41421 2.75 2 2.75C1.58579 2.75 1.25 2.41421 1.25 2Z" fill="url(#paint1_linear_9599_35713)"/>
</g>
<defs>
<linearGradient id="paint0_linear_9599_35713" x1="11" y1="2" x2="16.3929" y2="9.5819" gradientUnits="userSpaceOnUse">
<stop stop-color="#FE5468"/>
<stop offset="1" stop-color="#FFDF27"/>
</linearGradient>
<linearGradient id="paint1_linear_9599_35713" x1="6.16774" y1="0" x2="6.16774" y2="15" gradientUnits="userSpaceOnUse">
<stop stop-color="#10808C"/>
<stop offset="1" stop-color="#1DF7EF"/>
</linearGradient>
<clipPath id="clip0_9599_35713">
<rect width="15" height="15" fill="white"/>
</clipPath>
</defs>
</svg>
