<svg width="24" height="24" viewBox="0 0 24 24" fill="none" xmlns="http://www.w3.org/2000/svg">
<path fill-rule="evenodd" clip-rule="evenodd" d="M0.00439791 6.25949C-0.0847257 4.67008 1.1921 3.33281 2.7988 3.33281H21.2012C22.8079 3.33281 24.0847 4.67008 23.9956 6.25949L23.4645 15.7315C23.401 16.8634 22.4156 17.7253 21.274 17.6473L12.285 17.0331C12.2334 17.0296 12.1827 17.0474 12.1449 17.0824L7.92683 20.9828C7.12405 21.7252 5.81117 21.2143 5.73293 20.1291L5.52878 17.2974C5.52101 17.1896 5.42206 17.1114 5.3143 17.1278L2.88948 17.4974C1.6914 17.68 0.595415 16.7996 0.528175 15.6004L0.00439791 6.25949ZM2.7988 4.44196C1.83478 4.44196 1.06868 5.24432 1.12216 6.19797L1.64594 15.5389C1.6765 16.084 2.17468 16.4842 2.71926 16.4012L5.14408 16.0316C5.89837 15.9166 6.59105 16.4641 6.64542 17.2183L6.84957 20.05C6.86074 20.2051 7.0483 20.278 7.16298 20.172L11.381 16.2715C11.6456 16.0268 12.0009 15.9019 12.362 15.9266L21.3511 16.5408C21.8699 16.5762 22.3179 16.1845 22.3467 15.67L22.8778 6.19797C22.9313 5.24432 22.1652 4.44196 21.2012 4.44196H2.7988Z" fill="url(#paint0_linear_3218_88084)"/>
<path fill-rule="evenodd" clip-rule="evenodd" d="M18.1905 6.5C18.3355 6.5 18.4679 6.58223 18.5321 6.71213L19.6207 8.9154L22.0551 9.27089C22.1985 9.29184 22.3177 9.39232 22.3624 9.53009C22.4071 9.66787 22.3696 9.81906 22.2658 9.92012L20.5046 11.6339L20.9202 14.0551C20.9447 14.1979 20.886 14.3422 20.7687 14.4273C20.6513 14.5125 20.4958 14.5237 20.3674 14.4563L18.1905 13.3125L16.0135 14.4563C15.8852 14.5237 15.7296 14.5125 15.6123 14.4273C15.495 14.3422 15.4362 14.1979 15.4607 14.0551L15.8764 11.6339L14.1152 9.92012C14.0113 9.81906 13.9739 9.66787 14.0186 9.53009C14.0633 9.39232 14.1824 9.29184 14.3259 9.27089L16.7603 8.9154L17.8489 6.71213C17.9131 6.58223 18.0455 6.5 18.1905 6.5ZM18.1905 7.74044L17.3549 9.43154C17.2995 9.54376 17.1924 9.62157 17.0684 9.63967L15.1994 9.9126L16.5515 11.2283C16.6414 11.3157 16.6824 11.4418 16.6612 11.5653L16.3422 13.4236L18.0132 12.5456C18.1242 12.4873 18.2568 12.4873 18.3678 12.5456L20.0388 13.4236L19.7198 11.5653C19.6986 11.4418 19.7396 11.3157 19.8294 11.2283L21.1815 9.9126L19.3125 9.63967C19.1886 9.62157 19.0815 9.54376 19.026 9.43154L18.1905 7.74044Z" fill="url(#paint1_linear_3218_88084)"/>
<path fill-rule="evenodd" clip-rule="evenodd" d="M10.619 8C10.7097 8 10.7924 8.0514 10.8325 8.13258L11.5129 9.50963L13.0344 9.73181C13.1241 9.7449 13.1985 9.8077 13.2265 9.89381C13.2544 9.97992 13.231 10.0744 13.1661 10.1376L12.0654 11.2087L12.3251 12.7219C12.3405 12.8112 12.3037 12.9014 12.2304 12.9546C12.1571 13.0078 12.0599 13.0148 11.9797 12.9727L10.619 12.2578L9.25844 12.9727C9.17823 13.0148 9.08101 13.0078 9.00769 12.9546C8.93436 12.9014 8.89763 12.8112 8.91295 12.7219L9.17274 11.2087L8.07198 10.1376C8.00707 10.0744 7.98367 9.97992 8.01161 9.89381C8.03956 9.8077 8.11401 9.7449 8.20367 9.73181L9.72518 9.50963L10.4055 8.13258C10.4457 8.0514 10.5284 8 10.619 8Z" fill="url(#paint2_linear_3218_88084)"/>
<path fill-rule="evenodd" clip-rule="evenodd" d="M4.61905 8C4.70967 8 4.79244 8.0514 4.83255 8.13258L5.51292 9.50963L7.03443 9.73181C7.12409 9.7449 7.19853 9.8077 7.22648 9.89381C7.25443 9.97992 7.23103 10.0744 7.16612 10.1376L6.06536 11.2087L6.32514 12.7219C6.34046 12.8112 6.30374 12.9014 6.23041 12.9546C6.15708 13.0078 6.05987 13.0148 5.97965 12.9727L4.61905 12.2578L3.25844 12.9727C3.17823 13.0148 3.08101 13.0078 3.00769 12.9546C2.93436 12.9014 2.89763 12.8112 2.91295 12.7219L3.17274 11.2087L2.07198 10.1376C2.00707 10.0744 1.98367 9.97992 2.01161 9.89381C2.03956 9.8077 2.11401 9.7449 2.20367 9.73181L3.72518 9.50963L4.40555 8.13258C4.44566 8.0514 4.52842 8 4.61905 8Z" fill="url(#paint3_linear_3218_88084)"/>
<defs>
<linearGradient id="paint0_linear_3218_88084" x1="12" y1="3.33281" x2="12" y2="21.3328" gradientUnits="userSpaceOnUse">
<stop stop-color="#10808C"/>
<stop offset="1" stop-color="#1DF7EF"/>
</linearGradient>
<linearGradient id="paint1_linear_3218_88084" x1="18.1905" y1="6.5" x2="18.1905" y2="14.5" gradientUnits="userSpaceOnUse">
<stop stop-color="#FE5468"/>
<stop offset="1" stop-color="#FFDF27"/>
</linearGradient>
<linearGradient id="paint2_linear_3218_88084" x1="10.619" y1="8" x2="10.619" y2="13" gradientUnits="userSpaceOnUse">
<stop stop-color="#FE5468"/>
<stop offset="1" stop-color="#FFDF27"/>
</linearGradient>
<linearGradient id="paint3_linear_3218_88084" x1="4.61905" y1="8" x2="4.61905" y2="13" gradientUnits="userSpaceOnUse">
<stop stop-color="#FE5468"/>
<stop offset="1" stop-color="#FFDF27"/>
</linearGradient>
</defs>
</svg>
