<svg width="15" height="15" viewBox="0 0 15 15" fill="none" xmlns="http://www.w3.org/2000/svg">
<g clip-path="url(#clip0_177_30358)">
<path d="M3.61793 1.79808C3.24917 1.39949 3.23462 0.778498 3.6016 0.362551C3.96864 -0.0534296 4.58692 -0.116599 5.02834 0.199746L5.11414 0.267964L10.5788 5.08974C11.9836 6.32932 12.0272 8.49007 10.7102 9.78722L10.5788 9.91026L5.11414 14.732L5.02834 14.8003C4.58692 15.1166 3.96864 15.0534 3.6016 14.6375C3.23462 14.2215 3.24917 13.6005 3.61793 13.2019L3.69619 13.1249L9.16081 8.30356L9.20476 8.26255C9.64384 7.83017 9.62912 7.10965 9.16081 6.69644L3.69619 1.87508L3.61793 1.79808Z" fill="url(#paint0_linear_177_30358)"/>
</g>
<defs>
<linearGradient id="paint0_linear_177_30358" x1="3.33374" y1="7.5" x2="11.6662" y2="7.5" gradientUnits="userSpaceOnUse">
<stop stop-color="#FE5468"/>
<stop offset="1" stop-color="#FFDF27"/>
</linearGradient>
<clipPath id="clip0_177_30358">
<rect width="15" height="15" fill="white"/>
</clipPath>
</defs>
</svg>
