<svg width="24" height="24" viewBox="0 0 24 24" fill="none" xmlns="http://www.w3.org/2000/svg">
<g clip-path="url(#clip0_3218_86433)">
<path d="M13.1808 5.57658L14.8683 3.88905C14.533 3.32909 14.1286 2.80923 13.6619 2.3426C12.5123 1.19296 11.0396 0.420982 9.4401 0.129548C7.8406 -0.161885 6.19026 0.0410659 4.70903 0.711354C4.3673 0.865992 4.12324 1.1785 4.056 1.54751C3.98877 1.91652 4.10693 2.29503 4.37215 2.56025L8.67158 6.85968C9.43732 6.48078 10.0778 6.45235 10.9106 6.40246C10.8232 5.97428 10.614 5.57674 10.3036 5.26006L10.2956 5.2519L7.36493 2.32131C7.91676 2.25895 8.47787 2.27702 9.03048 2.37771C10.173 2.58588 11.2249 3.13729 12.0461 3.95846C12.5181 4.43047 12.901 4.97871 13.1808 5.57658Z" fill="url(#paint0_linear_3218_86433)"/>
<path d="M3.51519 11.5478C2.93791 10.817 2.54585 9.95328 2.37771 9.03048C2.27702 8.47787 2.25895 7.91676 2.32131 7.36493L5.00966 10.0533L6.62552 8.43742L2.56025 4.37215C2.29503 4.10693 1.91652 3.98877 1.54751 4.056C1.1785 4.12324 0.865992 4.3673 0.711355 4.70902C0.0410671 6.19026 -0.161886 7.8406 0.129549 9.4401C0.381037 10.8204 0.990364 12.1062 1.89142 13.1715L3.51519 11.5478Z" fill="url(#paint1_linear_3218_86433)"/>
<path d="M17.0716 15.2597L21.3396 19.5277C21.5798 19.7679 21.7148 20.0938 21.7148 20.4336C21.7148 20.7734 21.5798 21.0993 21.3396 21.3396C21.0993 21.5798 20.7734 21.7148 20.4336 21.7148C20.0938 21.7148 19.7679 21.5798 19.5277 21.3396L15.5612 17.3731L13.9454 18.989L17.9118 22.9554C18.5806 23.6243 19.4878 24 20.4336 24C21.3795 24 22.2866 23.6243 22.9554 22.9554C23.6243 22.2866 24 21.3795 24 20.4336C24 19.4878 23.6243 18.5806 22.9554 17.9118L17.6059 12.5623C17.627 13.4797 17.4491 14.4028 17.0716 15.2597Z" fill="url(#paint2_linear_3218_86433)"/>
<path fill-rule="evenodd" clip-rule="evenodd" d="M23.766 1.19667C24.0252 1.45592 24.0748 1.85834 23.8861 2.17272L21.703 5.8112C21.5693 6.03407 21.2618 6.07193 21.078 5.88815L20.5173 5.32752L15.6244 10.2205C15.1455 10.6994 15.0534 11.4263 15.1587 12.0953C15.3467 13.2895 14.9806 14.554 14.0603 15.4743L6.68085 22.8537C5.15251 24.3821 2.67459 24.3821 1.14625 22.8537C-0.382084 21.3254 -0.382084 18.8475 1.14626 17.3191L8.52572 9.93968C9.44597 9.01943 10.7105 8.65329 11.9047 8.84125C12.5737 8.94656 13.3006 8.85454 13.7795 8.37565L18.6725 3.48265L18.1118 2.92202C17.9281 2.73824 17.9659 2.43069 18.1888 2.29697L21.8273 0.113879C22.1417 -0.0747507 22.5441 -0.0252107 22.8033 0.234036L23.766 1.19667ZM12.2158 11.7824C12.7252 12.2918 12.7252 13.1178 12.2158 13.6273L4.83633 21.0067C4.32689 21.5162 3.50091 21.5162 2.99147 21.0067C2.48202 20.4973 2.48202 19.6713 2.99147 19.1619L10.3709 11.7824C10.8804 11.273 11.7064 11.273 12.2158 11.7824Z" fill="url(#paint3_linear_3218_86433)"/>
</g>
<defs>
<linearGradient id="paint0_linear_3218_86433" x1="12" y1="0" x2="12" y2="24" gradientUnits="userSpaceOnUse">
<stop stop-color="#10808C"/>
<stop offset="1" stop-color="#1DF7EF"/>
</linearGradient>
<linearGradient id="paint1_linear_3218_86433" x1="12" y1="0" x2="12" y2="24" gradientUnits="userSpaceOnUse">
<stop stop-color="#10808C"/>
<stop offset="1" stop-color="#1DF7EF"/>
</linearGradient>
<linearGradient id="paint2_linear_3218_86433" x1="12" y1="0" x2="12" y2="24" gradientUnits="userSpaceOnUse">
<stop stop-color="#10808C"/>
<stop offset="1" stop-color="#1DF7EF"/>
</linearGradient>
<linearGradient id="paint3_linear_3218_86433" x1="12" y1="0" x2="12" y2="24" gradientUnits="userSpaceOnUse">
<stop stop-color="#FE5468"/>
<stop offset="1" stop-color="#FFDF27"/>
</linearGradient>
<clipPath id="clip0_3218_86433">
<rect width="24" height="24" fill="white"/>
</clipPath>
</defs>
</svg>
