<svg width="15" height="15" viewBox="0 0 15 15" fill="none" xmlns="http://www.w3.org/2000/svg">
<g clip-path="url(#clip0_177_29685)">
<path d="M0 0.75C0 0.335787 0.335786 0 0.75 0H6.25C6.66421 0 7 0.335786 7 0.75V6.25C7 6.66421 6.66421 7 6.25 7H0.75C0.335787 7 0 6.66421 0 6.25V0.75Z" fill="url(#paint0_linear_177_29685)"/>
<path d="M10.8194 0.470599C11.0878 -0.109378 11.9122 -0.109378 12.1806 0.470599L12.5965 1.36905C12.7057 1.60514 12.9295 1.76774 13.1878 1.7987L14.1708 1.91654C14.8053 1.99261 15.0601 2.77667 14.5915 3.21119L13.8655 3.8843C13.6747 4.06117 13.5892 4.32427 13.6396 4.57949L13.8313 5.55077C13.955 6.17776 13.2881 6.66234 12.73 6.3509L11.8655 5.86846C11.6383 5.74169 11.3617 5.74169 11.1345 5.86846L10.27 6.3509C9.71194 6.66234 9.04498 6.17776 9.16872 5.55077L9.3604 4.57949C9.41077 4.32427 9.32528 4.06117 9.13452 3.8843L8.40854 3.21119C7.9399 2.77667 8.19466 1.99261 8.8292 1.91654L9.81217 1.7987C10.0705 1.76774 10.2943 1.60514 10.4035 1.36905L10.8194 0.470599Z" fill="url(#paint1_linear_177_29685)"/>
<path d="M15 11.5C15 13.433 13.433 15 11.5 15C9.567 15 8 13.433 8 11.5C8 9.567 9.567 8 11.5 8C13.433 8 15 9.567 15 11.5Z" fill="url(#paint2_linear_177_29685)"/>
<path d="M3.02369 8.825C3.23538 8.45833 3.76462 8.45833 3.97631 8.825L6.9208 13.925C7.1325 14.2917 6.86788 14.75 6.44449 14.75H0.555513C0.132123 14.75 -0.132495 14.2917 0.0791997 13.925L3.02369 8.825Z" fill="url(#paint3_linear_177_29685)"/>
</g>
<defs>
<linearGradient id="paint0_linear_177_29685" x1="7.5" y1="0" x2="7.5" y2="15" gradientUnits="userSpaceOnUse">
<stop stop-color="#FE5468"/>
<stop offset="1" stop-color="#FFDF27"/>
</linearGradient>
<linearGradient id="paint1_linear_177_29685" x1="7.5" y1="0" x2="7.5" y2="15" gradientUnits="userSpaceOnUse">
<stop stop-color="#10808C"/>
<stop offset="1" stop-color="#1DF7EF"/>
</linearGradient>
<linearGradient id="paint2_linear_177_29685" x1="7.5" y1="0" x2="7.5" y2="15" gradientUnits="userSpaceOnUse">
<stop stop-color="#FE5468"/>
<stop offset="1" stop-color="#FFDF27"/>
</linearGradient>
<linearGradient id="paint3_linear_177_29685" x1="7.5" y1="0" x2="7.5" y2="15" gradientUnits="userSpaceOnUse">
<stop stop-color="#10808C"/>
<stop offset="1" stop-color="#1DF7EF"/>
</linearGradient>
<clipPath id="clip0_177_29685">
<rect width="15" height="15" fill="white"/>
</clipPath>
</defs>
</svg>
