<svg width="15" height="15" viewBox="0 0 15 15" fill="none" xmlns="http://www.w3.org/2000/svg">
<g clip-path="url(#clip0_7416_31969)">
<path fill-rule="evenodd" clip-rule="evenodd" d="M10.9181 1.875C10.8533 1.86427 10.7848 1.85371 10.7125 1.84338C9.95836 1.73565 8.89596 1.66667 7.70833 1.66667C6.52071 1.66667 5.45831 1.73565 4.70419 1.84338C4.63189 1.85371 4.56333 1.86427 4.49852 1.875C4.56333 1.88573 4.63189 1.89629 4.70419 1.90662C5.45831 2.01435 6.52071 2.08333 7.70833 2.08333C8.89596 2.08333 9.95836 2.01435 10.7125 1.90662C10.7848 1.89629 10.8533 1.88573 10.9181 1.875ZM7.70833 2.5C10.1246 2.5 12.0833 2.22018 12.0833 1.875C12.0833 1.52982 10.1246 1.25 7.70833 1.25C5.29209 1.25 3.33333 1.52982 3.33333 1.875C3.33333 2.22018 5.29209 2.5 7.70833 2.5Z" fill="url(#paint0_linear_7416_31969)"/>
<path fill-rule="evenodd" clip-rule="evenodd" d="M10.7729 13.9281C10.6889 13.9438 10.6017 13.9588 10.5114 13.9732C9.75222 14.094 8.77484 14.1667 7.70833 14.1667C6.64183 14.1667 5.66445 14.094 4.90531 13.9732C4.81498 13.9588 4.72773 13.9438 4.6438 13.9281C3.83502 13.7769 3.33333 13.5663 3.33333 13.3333C3.33333 13.1004 3.83502 12.8898 4.6438 12.7386C4.72773 12.7229 4.81498 12.7078 4.90531 12.6935C5.66445 12.5727 6.64183 12.5 7.70833 12.5C8.77484 12.5 9.75222 12.5727 10.5114 12.6935C10.6017 12.7078 10.6889 12.7229 10.7729 12.7386C11.5816 12.8898 12.0833 13.1004 12.0833 13.3333C12.0833 13.5663 11.5816 13.7769 10.7729 13.9281Z" fill="url(#paint1_linear_7416_31969)"/>
<path fill-rule="evenodd" clip-rule="evenodd" d="M11.3649 2.68116H3.63514C2.36502 2.68116 1.31532 3.72915 1.24181 5.07061L0.962252 10.1724C0.898425 11.3372 1.77406 12.3188 2.87691 12.3188H12.1231C13.2259 12.3188 14.1016 11.3372 14.0377 10.1724L13.7582 5.07061C13.6847 3.72916 12.635 2.68116 11.3649 2.68116ZM3.63514 1.66667C1.85697 1.66667 0.387393 3.13386 0.284483 5.01189L0.00492101 10.1137C-0.0908181 11.8609 1.22264 13.3333 2.87691 13.3333H12.1231C13.7774 13.3333 15.0908 11.8609 14.9951 10.1137L14.7155 5.0119C14.6126 3.13386 13.143 1.66667 11.3649 1.66667H3.63514Z" fill="url(#paint2_linear_7416_31969)"/>
<path fill-rule="evenodd" clip-rule="evenodd" d="M12.3611 4.48864H2.63889C2.50465 4.48864 2.39583 4.59887 2.39583 4.73485V8.18182C2.39583 8.3178 2.50465 8.42803 2.63889 8.42803H12.3611C12.4953 8.42803 12.6042 8.3178 12.6042 8.18182V4.73485C12.6042 4.59887 12.4953 4.48864 12.3611 4.48864ZM2.63889 3.75C2.10194 3.75 1.66667 4.19093 1.66667 4.73485V8.18182C1.66667 8.72573 2.10194 9.16667 2.63889 9.16667H12.3611C12.8981 9.16667 13.3333 8.72573 13.3333 8.18182V4.73485C13.3333 4.19093 12.8981 3.75 12.3611 3.75H2.63889Z" fill="url(#paint3_linear_7416_31969)"/>
<path d="M3.79975 7.08333C3.69699 7.08333 3.60424 7.05822 3.5215 7.00799C3.43876 6.95776 3.37604 6.88927 3.33333 6.80251L3.48747 6.61986C3.52484 6.67922 3.57155 6.72641 3.6276 6.76141C3.68365 6.79642 3.7417 6.81393 3.80175 6.81393C3.8498 6.81393 3.89183 6.80251 3.92786 6.77968C3.96523 6.75685 3.99459 6.72488 4.01594 6.68379C4.0373 6.64269 4.04797 6.59551 4.04797 6.54224C4.04797 6.48896 4.03796 6.44254 4.01795 6.40297C3.99793 6.36339 3.97057 6.33295 3.93587 6.31164C3.90117 6.28881 3.86181 6.2774 3.81777 6.2774C3.77373 6.2774 3.73236 6.28881 3.69366 6.31164C3.65629 6.33295 3.62626 6.36415 3.60358 6.40525H3.36937L3.53351 5.4395H4.23414V5.71804H3.72769L3.66963 6.08105C3.68698 6.06278 3.711 6.04756 3.7417 6.03539C3.77239 6.02169 3.81043 6.01484 3.8558 6.01484C3.94521 6.01484 4.02529 6.03691 4.09602 6.08105C4.16675 6.12519 4.22213 6.18683 4.26216 6.26598C4.3022 6.34361 4.32222 6.43341 4.32222 6.53539C4.32222 6.64345 4.29953 6.73858 4.25416 6.82078C4.20878 6.90449 4.14673 6.96918 4.06799 7.01484C3.98925 7.0605 3.89984 7.08333 3.79975 7.08333Z" fill="url(#paint4_linear_7416_31969)"/>
<path d="M4.90816 7.08333C4.8054 7.08333 4.71265 7.05822 4.62991 7.00799C4.54717 6.95776 4.48445 6.88927 4.44175 6.80251L4.59588 6.61986C4.63325 6.67922 4.67996 6.72641 4.73601 6.76141C4.79206 6.79642 4.85011 6.81393 4.91016 6.81393C4.95821 6.81393 5.00024 6.80251 5.03628 6.77968C5.07364 6.75685 5.103 6.72488 5.12436 6.68379C5.14571 6.64269 5.15638 6.59551 5.15638 6.54224C5.15638 6.48896 5.14638 6.44254 5.12636 6.40297C5.10634 6.36339 5.07898 6.33295 5.04428 6.31164C5.00959 6.28881 4.97022 6.2774 4.92618 6.2774C4.88214 6.2774 4.84077 6.28881 4.80207 6.31164C4.7647 6.33295 4.73467 6.36415 4.71199 6.40525H4.47778L4.64192 5.4395H5.34255V5.71804H4.8361L4.77805 6.08105C4.7954 6.06278 4.81942 6.04756 4.85011 6.03539C4.8808 6.02169 4.91884 6.01484 4.96421 6.01484C5.05363 6.01484 5.1337 6.03691 5.20443 6.08105C5.27516 6.12519 5.33054 6.18683 5.37058 6.26598C5.41061 6.34361 5.43063 6.43341 5.43063 6.53539C5.43063 6.64345 5.40794 6.73858 5.36257 6.82078C5.31719 6.90449 5.25514 6.96918 5.1764 7.01484C5.09767 7.0605 5.00825 7.08333 4.90816 7.08333Z" fill="url(#paint5_linear_7416_31969)"/>
<path d="M6.01657 7.08333C5.91382 7.08333 5.82107 7.05822 5.73833 7.00799C5.65559 6.95776 5.59286 6.88927 5.55016 6.80251L5.7043 6.61986C5.74166 6.67922 5.78837 6.72641 5.84442 6.76141C5.90047 6.79642 5.95852 6.81393 6.01858 6.81393C6.06662 6.81393 6.10866 6.80251 6.14469 6.77968C6.18206 6.75685 6.21141 6.72488 6.23277 6.68379C6.25412 6.64269 6.2648 6.59551 6.2648 6.54224C6.2648 6.48896 6.25479 6.44254 6.23477 6.40297C6.21475 6.36339 6.18739 6.33295 6.1527 6.31164C6.118 6.28881 6.07863 6.2774 6.03459 6.2774C5.99055 6.2774 5.94918 6.28881 5.91048 6.31164C5.87311 6.33295 5.84309 6.36415 5.8204 6.40525H5.58619L5.75034 5.4395H6.45096V5.71804H5.94451L5.88646 6.08105C5.90381 6.06278 5.92783 6.04756 5.95852 6.03539C5.98922 6.02169 6.02725 6.01484 6.07262 6.01484C6.16204 6.01484 6.24211 6.03691 6.31284 6.08105C6.38357 6.12519 6.43895 6.18683 6.47899 6.26598C6.51902 6.34361 6.53904 6.43341 6.53904 6.53539C6.53904 6.64345 6.51635 6.73858 6.47098 6.82078C6.42561 6.90449 6.36355 6.96918 6.28481 7.01484C6.20608 7.0605 6.11666 7.08333 6.01657 7.08333Z" fill="url(#paint6_linear_7416_31969)"/>
<path d="M6.71662 6.25457V5.97831H7.32316V6.25457H6.71662Z" fill="url(#paint7_linear_7416_31969)"/>
<path d="M8.1471 6.20434C8.20315 6.21499 8.25186 6.23934 8.29323 6.2774C8.3346 6.31393 8.36663 6.36111 8.38932 6.41895C8.41334 6.47679 8.42535 6.54071 8.42535 6.61073C8.42535 6.7051 8.404 6.78729 8.36129 6.85731C8.31859 6.92732 8.25787 6.98135 8.17913 7.01941C8.10173 7.05898 8.01031 7.07877 7.90489 7.07877C7.80346 7.07877 7.71338 7.05974 7.63464 7.02169C7.55724 6.98516 7.49252 6.93113 7.44047 6.85959L7.59261 6.64269C7.6273 6.6914 7.66867 6.72945 7.71672 6.75685C7.76609 6.78577 7.82615 6.80023 7.89688 6.80023C7.97828 6.80023 8.04034 6.7812 8.08305 6.74315C8.12575 6.70662 8.1471 6.65106 8.1471 6.57648C8.1471 6.49734 8.12241 6.43645 8.07304 6.39383C8.02366 6.35122 7.94893 6.32991 7.84884 6.32991H7.79279V6.1016H7.85484C7.93625 6.1016 7.99964 6.08029 8.04501 6.03767C8.09172 5.99505 8.11507 5.94178 8.11507 5.87785C8.11507 5.83676 8.1064 5.80251 8.08905 5.77511C8.0717 5.74772 8.04768 5.72717 8.01699 5.71347C7.98763 5.69977 7.95293 5.69292 7.91289 5.69292C7.85284 5.69292 7.79812 5.7089 7.74875 5.74087C7.69937 5.77283 7.65933 5.81773 7.62864 5.87557L7.46049 5.66096C7.48851 5.61377 7.52655 5.57344 7.57459 5.53995C7.62397 5.50495 7.68002 5.47755 7.74274 5.45776C7.8068 5.43798 7.87352 5.42808 7.94292 5.42808C8.03367 5.42808 8.11307 5.44482 8.18113 5.47831C8.25053 5.5118 8.30458 5.55898 8.34328 5.61986C8.38198 5.68075 8.40133 5.75152 8.40133 5.83219C8.40133 5.89155 8.39065 5.94787 8.3693 6.00114C8.34795 6.05441 8.31792 6.09931 8.27922 6.13584C8.24185 6.17085 8.19781 6.19368 8.1471 6.20434Z" fill="url(#paint8_linear_7416_31969)"/>
<path d="M8.57672 6.74315C8.57672 6.67466 8.58139 6.61301 8.59073 6.55822C8.60007 6.50342 8.61609 6.45243 8.63878 6.40525C8.6628 6.35807 8.69483 6.31393 8.73486 6.27283C8.77623 6.23021 8.82828 6.18912 8.891 6.14954C8.94572 6.11606 8.99376 6.08714 9.03513 6.06278C9.0765 6.03691 9.1112 6.01332 9.13922 5.99201C9.16858 5.9707 9.1906 5.94939 9.20528 5.92808C9.21996 5.90525 9.2273 5.87938 9.2273 5.85046C9.2273 5.82001 9.21996 5.79262 9.20528 5.76826C9.1906 5.74239 9.16992 5.72184 9.14323 5.70662C9.11654 5.6914 9.08317 5.68379 9.04314 5.68379C9.01111 5.68379 8.98108 5.68836 8.95306 5.69749C8.92637 5.70662 8.90101 5.71956 8.87699 5.7363C8.8543 5.75304 8.83295 5.77207 8.81293 5.79338C8.79291 5.81317 8.7749 5.83447 8.75888 5.85731L8.58873 5.63356C8.60741 5.61225 8.6321 5.58942 8.6628 5.56507C8.69483 5.53919 8.73219 5.5156 8.7749 5.49429C8.81894 5.47146 8.86698 5.4532 8.91903 5.4395C8.97241 5.42428 9.02912 5.41667 9.08918 5.41667C9.17993 5.41667 9.25733 5.43341 9.32139 5.46689C9.38544 5.49886 9.43415 5.54376 9.46752 5.6016C9.50221 5.65944 9.51956 5.72717 9.51956 5.80479C9.51956 5.85807 9.51089 5.90525 9.49354 5.94635C9.47619 5.98744 9.45417 6.02397 9.42748 6.05594C9.40079 6.08638 9.37143 6.11377 9.3394 6.13813C9.30871 6.16248 9.27868 6.18379 9.24932 6.20205C9.20795 6.22641 9.17058 6.24924 9.13722 6.27055C9.10386 6.29033 9.0745 6.31088 9.04914 6.33219C9.02379 6.35198 9.0011 6.37253 8.98108 6.39383C8.9624 6.41514 8.94572 6.4395 8.93104 6.46689H9.54158V6.74315H8.57672Z" fill="url(#paint9_linear_7416_31969)"/>
<path d="M10.5714 6.46689V6.74315H9.75868V6.46689H10.0429V5.77511C10.0309 5.79338 10.0122 5.8124 9.98689 5.83219C9.96153 5.85046 9.93284 5.86796 9.90081 5.8847C9.86878 5.90145 9.83675 5.91514 9.80472 5.9258C9.77269 5.93645 9.744 5.94178 9.71865 5.94178V5.65639C9.74267 5.65639 9.77136 5.64802 9.80472 5.63128C9.83942 5.61301 9.87345 5.5917 9.90681 5.56735C9.94151 5.543 9.97087 5.51941 9.99489 5.49657C10.0202 5.47222 10.0363 5.4532 10.0429 5.4395H10.3172V6.46689H10.5714Z" fill="url(#paint10_linear_7416_31969)"/>
<path d="M11.1442 7.08333C11.0414 7.08333 10.9487 7.05822 10.866 7.00799C10.7832 6.95776 10.7205 6.88927 10.6778 6.80251L10.8319 6.61986C10.8693 6.67922 10.916 6.72641 10.972 6.76141C11.0281 6.79642 11.0861 6.81393 11.1462 6.81393C11.1942 6.81393 11.2363 6.80251 11.2723 6.77968C11.3097 6.75685 11.339 6.72488 11.3604 6.68379C11.3817 6.64269 11.3924 6.59551 11.3924 6.54224C11.3924 6.48896 11.3824 6.44254 11.3624 6.40297C11.3424 6.36339 11.315 6.33295 11.2803 6.31164C11.2456 6.28881 11.2063 6.2774 11.1622 6.2774C11.1182 6.2774 11.0768 6.28881 11.0381 6.31164C11.0007 6.33295 10.9707 6.36415 10.948 6.40525H10.7138L10.878 5.4395H11.5786V5.71804H11.0721L11.0141 6.08105C11.0314 6.06278 11.0555 6.04756 11.0861 6.03539C11.1168 6.02169 11.1549 6.01484 11.2003 6.01484C11.2897 6.01484 11.3697 6.03691 11.4405 6.08105C11.5112 6.12519 11.5666 6.18683 11.6066 6.26598C11.6467 6.34361 11.6667 6.43341 11.6667 6.53539C11.6667 6.64345 11.644 6.73858 11.5986 6.82078C11.5532 6.90449 11.4912 6.96918 11.4124 7.01484C11.3337 7.0605 11.2443 7.08333 11.1442 7.08333Z" fill="url(#paint11_linear_7416_31969)"/>
<rect x="2.5" y="9.58333" width="4.58333" height="1.66667" rx="0.833333" fill="url(#paint12_linear_7416_31969)"/>
<rect x="10.4167" y="9.58333" width="2.08333" height="1.66667" rx="0.833333" fill="url(#paint13_linear_7416_31969)"/>
<rect x="7.91667" y="9.58333" width="2.08333" height="1.66667" rx="0.833333" fill="url(#paint14_linear_7416_31969)"/>
</g>
<defs>
<linearGradient id="paint0_linear_7416_31969" x1="7.70833" y1="1.25" x2="7.88776" y2="3.0158" gradientUnits="userSpaceOnUse">
<stop stop-color="#FE5468"/>
<stop offset="1" stop-color="#FFDF27"/>
</linearGradient>
<linearGradient id="paint1_linear_7416_31969" x1="7.70833" y1="12.5" x2="8.0248" y2="14.8358" gradientUnits="userSpaceOnUse">
<stop stop-color="#FE5468"/>
<stop offset="1" stop-color="#FFDF27"/>
</linearGradient>
<linearGradient id="paint2_linear_7416_31969" x1="7.5" y1="1.66667" x2="7.5" y2="13.3333" gradientUnits="userSpaceOnUse">
<stop stop-color="#10808C"/>
<stop offset="1" stop-color="#1DF7EF"/>
</linearGradient>
<linearGradient id="paint3_linear_7416_31969" x1="7.5" y1="3.75" x2="7.5" y2="9.16667" gradientUnits="userSpaceOnUse">
<stop stop-color="#10808C"/>
<stop offset="1" stop-color="#1DF7EF"/>
</linearGradient>
<linearGradient id="paint4_linear_7416_31969" x1="7.5" y1="5.41667" x2="7.83168" y2="7.7482" gradientUnits="userSpaceOnUse">
<stop stop-color="#FE5468"/>
<stop offset="1" stop-color="#FFDF27"/>
</linearGradient>
<linearGradient id="paint5_linear_7416_31969" x1="7.5" y1="5.41667" x2="7.83168" y2="7.7482" gradientUnits="userSpaceOnUse">
<stop stop-color="#FE5468"/>
<stop offset="1" stop-color="#FFDF27"/>
</linearGradient>
<linearGradient id="paint6_linear_7416_31969" x1="7.5" y1="5.41667" x2="7.83168" y2="7.7482" gradientUnits="userSpaceOnUse">
<stop stop-color="#FE5468"/>
<stop offset="1" stop-color="#FFDF27"/>
</linearGradient>
<linearGradient id="paint7_linear_7416_31969" x1="7.5" y1="5.41667" x2="7.83168" y2="7.7482" gradientUnits="userSpaceOnUse">
<stop stop-color="#FE5468"/>
<stop offset="1" stop-color="#FFDF27"/>
</linearGradient>
<linearGradient id="paint8_linear_7416_31969" x1="7.5" y1="5.41667" x2="7.83168" y2="7.7482" gradientUnits="userSpaceOnUse">
<stop stop-color="#FE5468"/>
<stop offset="1" stop-color="#FFDF27"/>
</linearGradient>
<linearGradient id="paint9_linear_7416_31969" x1="7.5" y1="5.41667" x2="7.83168" y2="7.7482" gradientUnits="userSpaceOnUse">
<stop stop-color="#FE5468"/>
<stop offset="1" stop-color="#FFDF27"/>
</linearGradient>
<linearGradient id="paint10_linear_7416_31969" x1="7.5" y1="5.41667" x2="7.83168" y2="7.7482" gradientUnits="userSpaceOnUse">
<stop stop-color="#FE5468"/>
<stop offset="1" stop-color="#FFDF27"/>
</linearGradient>
<linearGradient id="paint11_linear_7416_31969" x1="7.5" y1="5.41667" x2="7.83168" y2="7.7482" gradientUnits="userSpaceOnUse">
<stop stop-color="#FE5468"/>
<stop offset="1" stop-color="#FFDF27"/>
</linearGradient>
<linearGradient id="paint12_linear_7416_31969" x1="4.79167" y1="9.58333" x2="5.36834" y2="11.8129" gradientUnits="userSpaceOnUse">
<stop stop-color="#FE5468"/>
<stop offset="1" stop-color="#FFDF27"/>
</linearGradient>
<linearGradient id="paint13_linear_7416_31969" x1="11.4583" y1="9.58333" x2="12.4808" y2="11.3802" gradientUnits="userSpaceOnUse">
<stop stop-color="#FE5468"/>
<stop offset="1" stop-color="#FFDF27"/>
</linearGradient>
<linearGradient id="paint14_linear_7416_31969" x1="8.95833" y1="9.58333" x2="9.98082" y2="11.3802" gradientUnits="userSpaceOnUse">
<stop stop-color="#FE5468"/>
<stop offset="1" stop-color="#FFDF27"/>
</linearGradient>
<clipPath id="clip0_7416_31969">
<rect width="15" height="15" fill="white"/>
</clipPath>
</defs>
</svg>
