<svg width="16" height="15" viewBox="0 0 16 15" fill="none" xmlns="http://www.w3.org/2000/svg">
<g clip-path="url(#clip0_7416_32488)">
<circle cx="8" cy="7.5" r="1.25" fill="url(#paint0_linear_7416_32488)"/>
<path fill-rule="evenodd" clip-rule="evenodd" d="M8 14.0625C11.6244 14.0625 14.5625 11.1244 14.5625 7.5C14.5625 3.87563 11.6244 0.9375 8 0.9375C4.37563 0.9375 1.4375 3.87563 1.4375 7.5C1.4375 11.1244 4.37563 14.0625 8 14.0625ZM8 15C12.1421 15 15.5 11.6421 15.5 7.5C15.5 3.35786 12.1421 0 8 0C3.85786 0 0.5 3.35786 0.5 7.5C0.5 11.6421 3.85786 15 8 15Z" fill="url(#paint1_linear_7416_32488)"/>
<path d="M8.04122 2.08301C5.02677 2.08301 2.58301 4.50813 2.58301 7.49967C2.58301 10.4912 5.0267 12.9163 8.04116 12.9163C9.93539 12.9163 11.6042 11.9587 12.583 10.5047L11.8842 10.0424C11.0561 11.2727 9.64396 12.083 8.04116 12.083C5.49047 12.083 3.42272 10.031 3.42272 7.49967C3.42272 4.96837 5.49047 2.91634 8.04116 2.91634L8.04122 2.08301Z" fill="url(#paint2_linear_7416_32488)"/>
<path d="M8.04122 4.58301C6.41806 4.58301 5.10215 5.88884 5.10215 7.49967C5.10215 9.11051 6.41799 10.4163 8.04116 10.4163C9.0611 10.4163 9.9597 9.90074 10.4867 9.11785L9.78797 8.65555C9.41152 9.21474 8.76967 9.58301 8.04116 9.58301C6.88175 9.58301 5.94187 8.65027 5.94187 7.49967C5.94187 6.34908 6.88175 5.41634 8.04116 5.41634L8.04122 4.58301Z" fill="url(#paint3_linear_7416_32488)"/>
<path fill-rule="evenodd" clip-rule="evenodd" d="M12.1552 11.1496L7.16699 7.54657L7.78828 6.66699L12.7765 10.27C13.0167 10.4435 13.0723 10.7811 12.9007 11.024C12.7292 11.2668 12.3954 11.3231 12.1552 11.1496Z" fill="url(#paint4_linear_7416_32488)"/>
<path fill-rule="evenodd" clip-rule="evenodd" d="M11.333 5.20801C11.6782 5.20801 11.958 4.92819 11.958 4.58301C11.958 4.23783 11.6782 3.95801 11.333 3.95801C10.9878 3.95801 10.708 4.23783 10.708 4.58301C10.708 4.92819 10.9878 5.20801 11.333 5.20801ZM11.333 5.83301C12.0234 5.83301 12.583 5.27336 12.583 4.58301C12.583 3.89265 12.0234 3.33301 11.333 3.33301C10.6427 3.33301 10.083 3.89265 10.083 4.58301C10.083 5.27336 10.6427 5.83301 11.333 5.83301Z" fill="url(#paint5_linear_7416_32488)"/>
<circle cx="3.83333" cy="5.00033" r="0.833333" fill="url(#paint6_linear_7416_32488)"/>
</g>
<defs>
<linearGradient id="paint0_linear_7416_32488" x1="8" y1="6.25" x2="8" y2="8.75" gradientUnits="userSpaceOnUse">
<stop stop-color="#10808C"/>
<stop offset="1" stop-color="#1DF7EF"/>
</linearGradient>
<linearGradient id="paint1_linear_7416_32488" x1="8" y1="0" x2="8" y2="15" gradientUnits="userSpaceOnUse">
<stop stop-color="#10808C"/>
<stop offset="1" stop-color="#1DF7EF"/>
</linearGradient>
<linearGradient id="paint2_linear_7416_32488" x1="7.58301" y1="2.08301" x2="7.58301" y2="12.9163" gradientUnits="userSpaceOnUse">
<stop stop-color="#10808C"/>
<stop offset="1" stop-color="#1DF7EF"/>
</linearGradient>
<linearGradient id="paint3_linear_7416_32488" x1="7.58301" y1="2.08301" x2="7.58301" y2="12.9163" gradientUnits="userSpaceOnUse">
<stop stop-color="#10808C"/>
<stop offset="1" stop-color="#1DF7EF"/>
</linearGradient>
<linearGradient id="paint4_linear_7416_32488" x1="10.0837" y1="6.66699" x2="12.8694" y2="11.6516" gradientUnits="userSpaceOnUse">
<stop stop-color="#FE5468"/>
<stop offset="1" stop-color="#FFDF27"/>
</linearGradient>
<linearGradient id="paint5_linear_7416_32488" x1="11.333" y1="3.33301" x2="13.0183" y2="5.70235" gradientUnits="userSpaceOnUse">
<stop stop-color="#FE5468"/>
<stop offset="1" stop-color="#FFDF27"/>
</linearGradient>
<linearGradient id="paint6_linear_7416_32488" x1="3.83333" y1="4.16699" x2="4.95686" y2="5.74655" gradientUnits="userSpaceOnUse">
<stop stop-color="#FE5468"/>
<stop offset="1" stop-color="#FFDF27"/>
</linearGradient>
<clipPath id="clip0_7416_32488">
<rect width="15" height="15" fill="white" transform="translate(0.5)"/>
</clipPath>
</defs>
</svg>
