<svg width="24" height="24" viewBox="0 0 24 24" fill="none" xmlns="http://www.w3.org/2000/svg">
<path fill-rule="evenodd" clip-rule="evenodd" d="M17.469 3C17.3653 2.98284 17.2556 2.96594 17.14 2.94942C15.9334 2.77705 14.2335 2.66667 12.3333 2.66667C10.4331 2.66667 8.73329 2.77705 7.5267 2.94942C7.41102 2.96594 7.30132 2.98284 7.19763 3C7.30132 3.01716 7.41102 3.03406 7.5267 3.05058C8.73329 3.22295 10.4331 3.33333 12.3333 3.33333C14.2335 3.33333 15.9334 3.22295 17.14 3.05058C17.2556 3.03406 17.3653 3.01716 17.469 3ZM12.3333 4C16.1993 4 19.3333 3.55228 19.3333 3C19.3333 2.44772 16.1993 2 12.3333 2C8.46733 2 5.33333 2.44772 5.33333 3C5.33333 3.55228 8.46733 4 12.3333 4Z" fill="url(#paint0_linear_3218_87731)"/>
<path fill-rule="evenodd" clip-rule="evenodd" d="M17.2366 22.2849C17.1023 22.31 16.9627 22.3341 16.8182 22.3571C15.6035 22.5504 14.0397 22.6667 12.3333 22.6667C10.6269 22.6667 9.06312 22.5504 7.84849 22.3571C7.70396 22.3341 7.56437 22.31 7.43007 22.2849C6.13603 22.043 5.33333 21.706 5.33333 21.3333C5.33333 20.9607 6.13603 20.6237 7.43007 20.3818C7.56437 20.3566 7.70396 20.3326 7.84849 20.3096C9.06312 20.1163 10.6269 20 12.3333 20C14.0397 20 15.6035 20.1163 16.8182 20.3096C16.9627 20.3326 17.1023 20.3566 17.2366 20.3818C18.5306 20.6237 19.3333 20.9607 19.3333 21.3333C19.3333 21.706 18.5306 22.043 17.2366 22.2849Z" fill="url(#paint1_linear_3218_87731)"/>
<path fill-rule="evenodd" clip-rule="evenodd" d="M18.1838 4.28986H5.81622C3.78402 4.28986 2.10451 5.96665 1.9869 8.11297L1.5396 16.2759C1.43748 18.1395 2.8385 19.7101 4.60306 19.7101H19.3969C21.1615 19.7101 22.5625 18.1395 22.4604 16.2759L22.0131 8.11298C21.8955 5.96665 20.216 4.28986 18.1838 4.28986ZM5.81622 2.66667C2.97115 2.66667 0.619828 5.01418 0.455173 8.01903L0.00787362 16.1819C-0.145309 18.9774 1.95622 21.3333 4.60306 21.3333H19.3969C22.0438 21.3333 24.1453 18.9774 23.9921 16.182L23.5448 8.01904C23.3802 5.01418 21.0289 2.66667 18.1838 2.66667H5.81622Z" fill="url(#paint2_linear_3218_87731)"/>
<path fill-rule="evenodd" clip-rule="evenodd" d="M19.7778 7.18182H4.22223C4.00745 7.18182 3.83334 7.35819 3.83334 7.57576V13.0909C3.83334 13.3085 4.00745 13.4848 4.22223 13.4848H19.7778C19.9926 13.4848 20.1667 13.3085 20.1667 13.0909V7.57576C20.1667 7.35819 19.9926 7.18182 19.7778 7.18182ZM4.22223 6C3.36312 6 2.66667 6.70549 2.66667 7.57576V13.0909C2.66667 13.9612 3.36312 14.6667 4.22223 14.6667H19.7778C20.6369 14.6667 21.3333 13.9612 21.3333 13.0909V7.57576C21.3333 6.70549 20.6369 6 19.7778 6H4.22223Z" fill="url(#paint3_linear_3218_87731)"/>
<path d="M6.07959 11.3333C5.91518 11.3333 5.76678 11.2932 5.6344 11.2128C5.50201 11.1324 5.40166 11.0228 5.33333 10.884L5.57995 10.5918C5.63974 10.6868 5.71447 10.7623 5.80415 10.8183C5.89383 10.8743 5.98671 10.9023 6.0828 10.9023C6.15967 10.9023 6.22693 10.884 6.28458 10.8475C6.34436 10.811 6.39134 10.7598 6.4255 10.6941C6.45967 10.6283 6.47675 10.5528 6.47675 10.4676C6.47675 10.3823 6.46074 10.3081 6.42871 10.2448C6.39668 10.1814 6.35291 10.1327 6.29739 10.0986C6.24187 10.0621 6.17888 10.0438 6.10842 10.0438C6.03796 10.0438 5.97177 10.0621 5.90984 10.0986C5.85006 10.1327 5.80201 10.1826 5.76571 10.2484H5.39098L5.65361 8.7032H6.77462V9.14886H5.96429L5.87141 9.72968C5.89917 9.70046 5.9376 9.6761 5.98671 9.65662C6.03582 9.6347 6.09668 9.62375 6.16927 9.62375C6.31234 9.62375 6.44045 9.65906 6.55362 9.72968C6.66679 9.80031 6.7554 9.89894 6.81946 10.0256C6.88351 10.1498 6.91554 10.2935 6.91554 10.4566C6.91554 10.6295 6.87924 10.7817 6.80664 10.9132C6.73405 11.0472 6.63476 11.1507 6.50878 11.2237C6.3828 11.2968 6.23974 11.3333 6.07959 11.3333Z" fill="url(#paint4_linear_3218_87731)"/>
<path d="M7.85305 11.3333C7.68864 11.3333 7.54024 11.2932 7.40786 11.2128C7.27547 11.1324 7.17512 11.0228 7.10679 10.884L7.35341 10.5918C7.41319 10.6868 7.48793 10.7623 7.57761 10.8183C7.66729 10.8743 7.76017 10.9023 7.85626 10.9023C7.93313 10.9023 8.00039 10.884 8.05804 10.8475C8.11782 10.811 8.1648 10.7598 8.19896 10.6941C8.23313 10.6283 8.25021 10.5528 8.25021 10.4676C8.25021 10.3823 8.23419 10.3081 8.20217 10.2448C8.17014 10.1814 8.12636 10.1327 8.07085 10.0986C8.01533 10.0621 7.95234 10.0438 7.88188 10.0438C7.81142 10.0438 7.74522 10.0621 7.6833 10.0986C7.62352 10.1327 7.57547 10.1826 7.53917 10.2484H7.16444L7.42707 8.7032H8.54807V9.14886H7.73775L7.64487 9.72968C7.67263 9.70046 7.71106 9.6761 7.76017 9.65662C7.80928 9.6347 7.87014 9.62375 7.94273 9.62375C8.08579 9.62375 8.21391 9.65906 8.32708 9.72968C8.44025 9.80031 8.52886 9.89894 8.59291 10.0256C8.65697 10.1498 8.689 10.2935 8.689 10.4566C8.689 10.6295 8.6527 10.7817 8.5801 10.9132C8.5075 11.0472 8.40822 11.1507 8.28224 11.2237C8.15626 11.2968 8.0132 11.3333 7.85305 11.3333Z" fill="url(#paint5_linear_3218_87731)"/>
<path d="M9.62651 11.3333C9.4621 11.3333 9.3137 11.2932 9.18132 11.2128C9.04893 11.1324 8.94857 11.0228 8.88025 10.884L9.12687 10.5918C9.18665 10.6868 9.26139 10.7623 9.35107 10.8183C9.44075 10.8743 9.53363 10.9023 9.62972 10.9023C9.70658 10.9023 9.77384 10.884 9.8315 10.8475C9.89128 10.811 9.93826 10.7598 9.97242 10.6941C10.0066 10.6283 10.0237 10.5528 10.0237 10.4676C10.0237 10.3823 10.0077 10.3081 9.97562 10.2448C9.9436 10.1814 9.89982 10.1327 9.84431 10.0986C9.78879 10.0621 9.7258 10.0438 9.65534 10.0438C9.58488 10.0438 9.51868 10.0621 9.45676 10.0986C9.39697 10.1327 9.34893 10.1826 9.31263 10.2484H8.9379L9.20053 8.7032H10.3215V9.14886H9.51121L9.41833 9.72968C9.44608 9.70046 9.48452 9.6761 9.53363 9.65662C9.58274 9.6347 9.64359 9.62375 9.71619 9.62375C9.85925 9.62375 9.98737 9.65906 10.1005 9.72968C10.2137 9.80031 10.3023 9.89894 10.3664 10.0256C10.4304 10.1498 10.4625 10.2935 10.4625 10.4566C10.4625 10.6295 10.4262 10.7817 10.3536 10.9132C10.281 11.0472 10.1817 11.1507 10.0557 11.2237C9.92972 11.2968 9.78666 11.3333 9.62651 11.3333Z" fill="url(#paint6_linear_3218_87731)"/>
<path d="M10.7466 10.0073V9.5653H11.7171V10.0073H10.7466Z" fill="url(#paint7_linear_3218_87731)"/>
<path d="M13.0354 9.92694C13.125 9.94399 13.203 9.98295 13.2692 10.0438C13.3354 10.1023 13.3866 10.1778 13.4229 10.2703C13.4613 10.3629 13.4806 10.4651 13.4806 10.5772C13.4806 10.7282 13.4464 10.8597 13.3781 10.9717C13.3097 11.0837 13.2126 11.1702 13.0866 11.2311C12.9628 11.2944 12.8165 11.326 12.6478 11.326C12.4855 11.326 12.3414 11.2956 12.2154 11.2347C12.0916 11.1763 11.988 11.0898 11.9047 10.9753L12.1482 10.6283C12.2037 10.7062 12.2699 10.7671 12.3467 10.811C12.4257 10.8572 12.5218 10.8804 12.635 10.8804C12.7652 10.8804 12.8645 10.8499 12.9329 10.789C13.0012 10.7306 13.0354 10.6417 13.0354 10.5224C13.0354 10.3957 12.9959 10.2983 12.9169 10.2301C12.8378 10.1619 12.7183 10.1279 12.5581 10.1279H12.4685V9.76256H12.5677C12.698 9.76256 12.7994 9.72846 12.872 9.66028C12.9467 9.59209 12.9841 9.50685 12.9841 9.40457C12.9841 9.33881 12.9702 9.28402 12.9425 9.24018C12.9147 9.19635 12.8763 9.16347 12.8272 9.14155C12.7802 9.11964 12.7247 9.10868 12.6606 9.10868C12.5645 9.10868 12.477 9.13425 12.398 9.18539C12.319 9.23653 12.2549 9.30837 12.2058 9.40091L11.9368 9.05754C11.9816 8.98204 12.0425 8.91751 12.1193 8.86393C12.1983 8.80792 12.288 8.76408 12.3884 8.73242C12.4909 8.70076 12.5976 8.68493 12.7087 8.68493C12.8539 8.68493 12.9809 8.71172 13.0898 8.7653C13.2008 8.81887 13.2873 8.89437 13.3492 8.99178C13.4112 9.08919 13.4421 9.20244 13.4421 9.33151C13.4421 9.42649 13.425 9.51659 13.3909 9.60183C13.3567 9.68706 13.3087 9.75891 13.2467 9.81735C13.187 9.87336 13.1165 9.90989 13.0354 9.92694Z" fill="url(#paint8_linear_3218_87731)"/>
<path d="M13.7227 10.789C13.7227 10.6795 13.7302 10.5808 13.7452 10.4932C13.7601 10.4055 13.7857 10.3239 13.822 10.2484C13.8605 10.1729 13.9117 10.1023 13.9758 10.0365C14.042 9.96834 14.1252 9.90259 14.2256 9.83927C14.3131 9.78569 14.39 9.73942 14.4562 9.70046C14.5224 9.65906 14.5779 9.62131 14.6228 9.58722C14.6697 9.55312 14.705 9.51903 14.7284 9.48493C14.7519 9.4484 14.7637 9.407 14.7637 9.36073C14.7637 9.31203 14.7519 9.26819 14.7284 9.22922C14.705 9.18782 14.6719 9.15495 14.6292 9.13059C14.5865 9.10624 14.5331 9.09407 14.469 9.09407C14.4178 9.09407 14.3697 9.10137 14.3249 9.11598C14.2822 9.13059 14.2416 9.1513 14.2032 9.17808C14.1669 9.20487 14.1327 9.23531 14.1007 9.26941C14.0687 9.30107 14.0398 9.33516 14.0142 9.37169L13.742 9.0137C13.7719 8.97961 13.8114 8.94308 13.8605 8.90411C13.9117 8.86271 13.9715 8.82496 14.0398 8.79087C14.1103 8.75434 14.1872 8.72512 14.2704 8.7032C14.3558 8.67884 14.4466 8.66667 14.5427 8.66667C14.6879 8.66667 14.8117 8.69346 14.9142 8.74703C15.0167 8.79817 15.0946 8.87002 15.148 8.96256C15.2035 9.0551 15.2313 9.16347 15.2313 9.28767C15.2313 9.37291 15.2174 9.4484 15.1897 9.51416C15.1619 9.57991 15.1267 9.63836 15.084 9.6895C15.0413 9.73821 14.9943 9.78204 14.943 9.82101C14.8939 9.85997 14.8459 9.89407 14.7989 9.92329C14.7327 9.96225 14.6729 9.99878 14.6195 10.0329C14.5662 10.0645 14.5192 10.0974 14.4786 10.1315C14.4381 10.1632 14.4018 10.196 14.3697 10.2301C14.3398 10.2642 14.3131 10.3032 14.2897 10.347H15.2665V10.789H13.7227Z" fill="url(#paint9_linear_3218_87731)"/>
<path d="M16.9142 10.347V10.789H15.6139V10.347H16.0687V9.24018C16.0495 9.26941 16.0196 9.29985 15.979 9.33151C15.9384 9.36073 15.8925 9.38874 15.8413 9.41553C15.79 9.44231 15.7388 9.46423 15.6876 9.48128C15.6363 9.49833 15.5904 9.50685 15.5498 9.50685V9.05023C15.5883 9.05023 15.6342 9.03684 15.6876 9.01005C15.7431 8.98082 15.7975 8.94673 15.8509 8.90776C15.9064 8.8688 15.9534 8.83105 15.9918 8.79452C16.0324 8.75556 16.058 8.72512 16.0687 8.7032H16.5075V10.347H16.9142Z" fill="url(#paint10_linear_3218_87731)"/>
<path d="M17.8307 11.3333C17.6663 11.3333 17.5179 11.2932 17.3855 11.2128C17.2531 11.1324 17.1528 11.0228 17.0844 10.884L17.3311 10.5918C17.3909 10.6868 17.4656 10.7623 17.5553 10.8183C17.6449 10.8743 17.7378 10.9023 17.8339 10.9023C17.9108 10.9023 17.978 10.884 18.0357 10.8475C18.0955 10.811 18.1425 10.7598 18.1766 10.6941C18.2108 10.6283 18.2279 10.5528 18.2279 10.4676C18.2279 10.3823 18.2119 10.3081 18.1798 10.2448C18.1478 10.1814 18.104 10.1327 18.0485 10.0986C17.993 10.0621 17.93 10.0438 17.8595 10.0438C17.7891 10.0438 17.7229 10.0621 17.661 10.0986C17.6012 10.1327 17.5531 10.1826 17.5168 10.2484H17.1421L17.4047 8.7032H18.5257V9.14886H17.7154L17.6225 9.72968C17.6503 9.70046 17.6887 9.6761 17.7378 9.65662C17.7869 9.6347 17.8478 9.62375 17.9204 9.62375C18.0635 9.62375 18.1916 9.65906 18.3047 9.72968C18.4179 9.80031 18.5065 9.89894 18.5706 10.0256C18.6346 10.1498 18.6667 10.2935 18.6667 10.4566C18.6667 10.6295 18.6304 10.7817 18.5578 10.9132C18.4852 11.0472 18.3859 11.1507 18.2599 11.2237C18.1339 11.2968 17.9909 11.3333 17.8307 11.3333Z" fill="url(#paint11_linear_3218_87731)"/>
<rect x="4" y="15.3333" width="7.33333" height="2.66667" rx="1.33333" fill="url(#paint12_linear_3218_87731)"/>
<rect x="16.6667" y="15.3333" width="3.33333" height="2.66667" rx="1.33333" fill="url(#paint13_linear_3218_87731)"/>
<rect x="12.6667" y="15.3333" width="3.33333" height="2.66667" rx="1.33333" fill="url(#paint14_linear_3218_87731)"/>
<defs>
<linearGradient id="paint0_linear_3218_87731" x1="12.3333" y1="2" x2="12.3333" y2="4" gradientUnits="userSpaceOnUse">
<stop stop-color="#FE5468"/>
<stop offset="1" stop-color="#FFDF27"/>
</linearGradient>
<linearGradient id="paint1_linear_3218_87731" x1="12.3333" y1="20" x2="12.3333" y2="22.6667" gradientUnits="userSpaceOnUse">
<stop stop-color="#FE5468"/>
<stop offset="1" stop-color="#FFDF27"/>
</linearGradient>
<linearGradient id="paint2_linear_3218_87731" x1="12" y1="2.66667" x2="12" y2="21.3333" gradientUnits="userSpaceOnUse">
<stop stop-color="#10808C"/>
<stop offset="1" stop-color="#1DF7EF"/>
</linearGradient>
<linearGradient id="paint3_linear_3218_87731" x1="12" y1="6" x2="12" y2="14.6667" gradientUnits="userSpaceOnUse">
<stop stop-color="#10808C"/>
<stop offset="1" stop-color="#1DF7EF"/>
</linearGradient>
<linearGradient id="paint4_linear_3218_87731" x1="12" y1="8.66667" x2="12" y2="11.3333" gradientUnits="userSpaceOnUse">
<stop stop-color="#FE5468"/>
<stop offset="1" stop-color="#FFDF27"/>
</linearGradient>
<linearGradient id="paint5_linear_3218_87731" x1="12" y1="8.66667" x2="12" y2="11.3333" gradientUnits="userSpaceOnUse">
<stop stop-color="#FE5468"/>
<stop offset="1" stop-color="#FFDF27"/>
</linearGradient>
<linearGradient id="paint6_linear_3218_87731" x1="12" y1="8.66667" x2="12" y2="11.3333" gradientUnits="userSpaceOnUse">
<stop stop-color="#FE5468"/>
<stop offset="1" stop-color="#FFDF27"/>
</linearGradient>
<linearGradient id="paint7_linear_3218_87731" x1="12" y1="8.66667" x2="12" y2="11.3333" gradientUnits="userSpaceOnUse">
<stop stop-color="#FE5468"/>
<stop offset="1" stop-color="#FFDF27"/>
</linearGradient>
<linearGradient id="paint8_linear_3218_87731" x1="12" y1="8.66667" x2="12" y2="11.3333" gradientUnits="userSpaceOnUse">
<stop stop-color="#FE5468"/>
<stop offset="1" stop-color="#FFDF27"/>
</linearGradient>
<linearGradient id="paint9_linear_3218_87731" x1="12" y1="8.66667" x2="12" y2="11.3333" gradientUnits="userSpaceOnUse">
<stop stop-color="#FE5468"/>
<stop offset="1" stop-color="#FFDF27"/>
</linearGradient>
<linearGradient id="paint10_linear_3218_87731" x1="12" y1="8.66667" x2="12" y2="11.3333" gradientUnits="userSpaceOnUse">
<stop stop-color="#FE5468"/>
<stop offset="1" stop-color="#FFDF27"/>
</linearGradient>
<linearGradient id="paint11_linear_3218_87731" x1="12" y1="8.66667" x2="12" y2="11.3333" gradientUnits="userSpaceOnUse">
<stop stop-color="#FE5468"/>
<stop offset="1" stop-color="#FFDF27"/>
</linearGradient>
<linearGradient id="paint12_linear_3218_87731" x1="7.66667" y1="15.3333" x2="7.66667" y2="18" gradientUnits="userSpaceOnUse">
<stop stop-color="#FE5468"/>
<stop offset="1" stop-color="#FFDF27"/>
</linearGradient>
<linearGradient id="paint13_linear_3218_87731" x1="18.3333" y1="15.3333" x2="18.3333" y2="18" gradientUnits="userSpaceOnUse">
<stop stop-color="#FE5468"/>
<stop offset="1" stop-color="#FFDF27"/>
</linearGradient>
<linearGradient id="paint14_linear_3218_87731" x1="14.3333" y1="15.3333" x2="14.3333" y2="18" gradientUnits="userSpaceOnUse">
<stop stop-color="#FE5468"/>
<stop offset="1" stop-color="#FFDF27"/>
</linearGradient>
</defs>
</svg>
