<svg width="15" height="15" viewBox="0 0 15 15" fill="none" xmlns="http://www.w3.org/2000/svg">
<g clip-path="url(#clip0_10823_38518)">
<path fill-rule="evenodd" clip-rule="evenodd" d="M3.62915 0C1.62482 0 0 1.62477 0 3.62903C0 5.63329 1.62482 7.25806 3.62915 7.25806C4.183 7.25806 4.70836 7.13384 5.17842 6.91165C5.44543 7.60246 5.85908 8.22034 6.38125 8.72706C6.27193 8.71557 6.16094 8.70968 6.04858 8.70968C4.3115 8.70968 2.90332 10.1178 2.90332 11.8548C2.90332 13.5919 4.3115 15 6.04858 15C7.78566 15 9.19384 13.5919 9.19384 11.8548C9.19384 11.1531 8.96398 10.505 8.57545 9.98171C9.00345 10.0988 9.45401 10.1613 9.9192 10.1613C12.7252 10.1613 15 7.88661 15 5.08065C15 2.27468 12.7252 0 9.9192 0C8.58322 0 7.36738 0.515891 6.46062 1.3588C5.7958 0.530725 4.77448 0 3.62915 0ZM1.45166 3.62903C1.45166 2.42648 2.42655 1.45161 3.62915 1.45161C4.83174 1.45161 5.80663 2.42648 5.80663 3.62903C5.80663 4.83159 4.83174 5.80645 3.62915 5.80645C2.42655 5.80645 1.45166 4.83159 1.45166 3.62903ZM8.22559 3.62903C8.22559 3.07033 8.12544 2.53356 7.94198 2.03677C8.51083 1.66627 9.18919 1.45161 9.9192 1.45161C11.9235 1.45161 13.5483 3.07639 13.5483 5.08065C13.5483 7.0849 11.9235 8.70968 9.9192 8.70968C8.59971 8.70968 7.44286 8.00517 6.80733 6.94957C7.68009 6.11384 8.22559 4.9354 8.22559 3.62903ZM4.35497 11.8548C4.35497 10.9195 5.11323 10.1613 6.04858 10.1613C6.98393 10.1613 7.74218 10.9195 7.74218 11.8548C7.74218 12.7902 6.98393 13.5484 6.04858 13.5484C5.11323 13.5484 4.35497 12.7902 4.35497 11.8548Z" fill="url(#paint0_linear_10823_38518)"/>
</g>
<defs>
<linearGradient id="paint0_linear_10823_38518" x1="7.5" y1="0" x2="7.5" y2="15" gradientUnits="userSpaceOnUse">
<stop stop-color="#10808C"/>
<stop offset="1" stop-color="#1DF7EF"/>
</linearGradient>
<clipPath id="clip0_10823_38518">
<rect width="15" height="15" fill="white"/>
</clipPath>
</defs>
</svg>
