<svg width="24" height="24" viewBox="0 0 24 24" fill="none" xmlns="http://www.w3.org/2000/svg">
<path fill-rule="evenodd" clip-rule="evenodd" d="M7 10.2727C3.83691 10.2727 1.27273 12.8369 1.27273 16C1.27273 19.1631 3.83691 21.7273 7 21.7273C10.1631 21.7273 12.7273 19.1631 12.7273 16C12.7273 12.8369 10.1631 10.2727 7 10.2727ZM0 16C0 12.134 3.13401 9 7 9C10.866 9 14 12.134 14 16C14 19.866 10.866 23 7 23C3.13401 23 0 19.866 0 16Z" fill="url(#paint0_linear_3218_86697)"/>
<path fill-rule="evenodd" clip-rule="evenodd" d="M6.8333 12C7.29352 12 7.66661 12.2686 7.66661 12.6V15.8291L10.5392 16.8632C10.9508 17.0114 11.1177 17.3718 10.9118 17.6682C10.706 17.9646 10.2055 18.0847 9.79385 17.9365L6.46064 16.7366C6.17833 16.6349 6 16.4272 6 16.1999V12.6C6 12.2686 6.37308 12 6.8333 12Z" fill="url(#paint1_linear_3218_86697)"/>
<path fill-rule="evenodd" clip-rule="evenodd" d="M18.7802 1.08881C18.4075 0.985966 18.0182 0.972265 17.64 1.04864L7.14999 2.97199L7.13791 2.97433C6.53626 3.0975 5.99349 3.44235 5.6032 3.9494C5.21301 4.45634 4.99969 5.09383 5 5.75161V7.84917H6.2753V7.35994H6.29095V7.09724C6.29095 6.34456 6.86893 5.7344 7.58191 5.7344H20.4915C21.2044 5.7344 21.7824 6.34456 21.7824 7.09724V8.82688L18.439 8.82688C17.4152 8.82688 16.5853 9.70302 16.5853 10.7838V11.7622C16.5853 12.843 17.4152 13.7191 18.439 13.7191H21.7824V15.2743C21.7824 16.027 21.2044 16.6372 20.4915 16.6372H15.1063V18H20.4915C21.9174 18 23.0734 16.7797 23.0734 15.2743V13.4572C23.6273 13.1188 24 12.4865 24 11.7622V10.7838C24 10.0595 23.6273 9.42719 23.0734 9.0888V7.09724C23.0734 5.68627 22.0578 4.5257 20.7563 4.38571V3.82466C20.7561 3.40885 20.6706 2.9982 20.5057 2.622C20.3408 2.2458 20.1007 1.91333 19.8024 1.64831C19.5042 1.38328 19.1552 1.19224 18.7802 1.08881ZM21.7824 9.80534V12.7407H18.439C17.9271 12.7407 17.5121 12.3026 17.5121 11.7622V10.7838C17.5121 10.2434 17.9271 9.80534 18.439 9.80534H21.7824ZM19.481 4.37155V3.8251C19.4809 3.61097 19.4368 3.39928 19.3519 3.20555C19.267 3.01175 19.1433 2.84047 18.9896 2.70395C18.836 2.56742 18.6562 2.469 18.463 2.41572C18.2699 2.36244 18.0682 2.3556 17.8723 2.3957L17.8602 2.39805L7.37118 4.32121C7.26602 4.34322 7.1644 4.37839 7.06819 4.42551C7.23421 4.39012 7.40601 4.37155 7.58191 4.37155H19.481Z" fill="url(#paint2_linear_3218_86697)"/>
<defs>
<linearGradient id="paint0_linear_3218_86697" x1="7" y1="9" x2="7" y2="23" gradientUnits="userSpaceOnUse">
<stop stop-color="#FE5468"/>
<stop offset="1" stop-color="#FFDF27"/>
</linearGradient>
<linearGradient id="paint1_linear_3218_86697" x1="8.5" y1="12" x2="8.5" y2="18" gradientUnits="userSpaceOnUse">
<stop stop-color="#10808C"/>
<stop offset="1" stop-color="#1DF7EF"/>
</linearGradient>
<linearGradient id="paint2_linear_3218_86697" x1="14.5" y1="1" x2="14.5" y2="18" gradientUnits="userSpaceOnUse">
<stop stop-color="#10808C"/>
<stop offset="1" stop-color="#1DF7EF"/>
</linearGradient>
</defs>
</svg>
