<svg width="37" height="36" viewBox="0 0 37 36" fill="none" xmlns="http://www.w3.org/2000/svg">
  <path fill-rule="evenodd" clip-rule="evenodd" d="M9.51302 4.76585C9.96448 4.03393 10.9651 3.78275 11.748 4.20482L26.4748 12.1446C27.2577 12.5667 27.5263 13.5022 27.0749 14.2341C26.6234 14.9661 25.6228 15.2173 24.8399 14.7952L10.1131 6.85535C9.33023 6.43328 9.06157 5.49778 9.51302 4.76585Z" fill="url(#paint0_linear_10288_46830)"/>
  <path fill-rule="evenodd" clip-rule="evenodd" d="M15.8974 0.655793C16.6262 0.226163 17.4527 0 18.2939 0C19.1352 0 19.9617 0.226181 20.6906 0.655846C20.6917 0.656502 20.6928 0.657159 20.6939 0.657816L31.894 7.20448C32.6229 7.635 33.2284 8.25404 33.6496 8.9995C34.0709 9.74495 34.2931 10.5906 34.2939 11.4516V24.5484C34.2931 25.4094 34.0709 26.255 33.6496 27.0005C33.2284 27.746 32.6229 28.365 31.8939 28.7955L31.8878 28.7991L20.6939 35.3422C20.693 35.3427 20.692 35.3433 20.6911 35.3439C19.9621 35.7737 19.1354 36 18.2939 36C17.4525 36 16.6259 35.7737 15.8969 35.3439C15.8959 35.3433 15.8949 35.3428 15.8939 35.3422L4.70012 28.7991L4.69395 28.7955C3.96497 28.365 3.3595 27.746 2.93825 27.0005C2.51701 26.255 2.29481 25.4094 2.29395 24.5484V11.4516C2.29481 10.5906 2.51701 9.74495 2.93825 8.9995C3.3595 8.25404 3.96498 7.63501 4.69395 7.20449L4.70011 7.20085L15.8974 0.655793ZM18.2939 3.27334C18.0131 3.27334 17.7372 3.34896 17.4939 3.49261L17.4878 3.49625L6.29394 10.0393C6.2931 10.0398 6.29226 10.0403 6.29142 10.0408C6.04956 10.1842 5.84864 10.39 5.70871 10.6376C5.56841 10.8859 5.49435 11.1675 5.49394 11.4543V24.5457C5.49435 24.8325 5.56841 25.1141 5.70871 25.3624C5.84864 25.61 6.04956 25.8158 6.29142 25.9592C6.29226 25.9597 6.2931 25.9602 6.29394 25.9607L17.494 32.5074C17.7372 32.651 18.0131 32.7267 18.2939 32.7267C18.5748 32.7267 18.8507 32.651 19.0939 32.5074L19.1001 32.5038L30.2939 25.9607C30.2948 25.9602 30.2956 25.9597 30.2965 25.9592C30.5383 25.8158 30.7393 25.61 30.8792 25.3624C31.0196 25.1139 31.0937 24.832 31.0939 24.545V11.455C31.0937 11.168 31.0196 10.8861 30.8792 10.6376C30.7393 10.39 30.5383 10.1842 30.2965 10.0408C30.2956 10.0403 30.2948 10.0398 30.2939 10.0393L19.0939 3.49262C18.8507 3.34898 18.5748 3.27334 18.2939 3.27334Z" fill="url(#paint1_linear_10288_46830)"/>
  <path fill-rule="evenodd" clip-rule="evenodd" d="M2.51521 8.85009C2.96995 8.03639 3.97585 7.75833 4.76196 8.22903L18.2939 16.3316L31.8259 8.22903C32.612 7.75833 33.6179 8.03639 34.0727 8.85009C34.5274 9.6638 34.2588 10.705 33.4727 11.1757L19.1173 19.7713C18.6079 20.0763 17.9799 20.0763 17.4706 19.7713L3.11521 11.1757C2.3291 10.705 2.06047 9.6638 2.51521 8.85009Z" fill="url(#paint2_linear_10288_46830)"/>
  <path fill-rule="evenodd" clip-rule="evenodd" d="M18.2939 16C19.3985 16 20.2939 16.7413 20.2939 17.6556V34.3444C20.2939 35.2588 19.3985 36 18.2939 36C17.1894 36 16.2939 35.2588 16.2939 34.3444V17.6556C16.2939 16.7413 17.1894 16 18.2939 16Z" fill="url(#paint3_linear_10288_46830)"/>
  <defs>
  <linearGradient id="paint0_linear_10288_46830" x1="18.2939" y1="4" x2="24.0337" y2="17.2046" gradientUnits="userSpaceOnUse">
  <stop stop-color="#FE5468"/>
  <stop offset="1" stop-color="#FFDF27"/>
  </linearGradient>
  <linearGradient id="paint1_linear_10288_46830" x1="18.2939" y1="0" x2="18.2939" y2="36" gradientUnits="userSpaceOnUse">
  <stop stop-color="#10808C"/>
  <stop offset="1" stop-color="#1DF7EF"/>
  </linearGradient>
  <linearGradient id="paint2_linear_10288_46830" x1="18.2939" y1="8" x2="22.5588" y2="23.9892" gradientUnits="userSpaceOnUse">
  <stop stop-color="#FE5468"/>
  <stop offset="1" stop-color="#FFDF27"/>
  </linearGradient>
  <linearGradient id="paint3_linear_10288_46830" x1="18.2939" y1="16" x2="25.732" y2="18.0914" gradientUnits="userSpaceOnUse">
  <stop stop-color="#FE5468"/>
  <stop offset="1" stop-color="#FFDF27"/>
  </linearGradient>
  </defs>
  </svg>  