<svg width="24" height="24" viewBox="0 0 24 24" fill="none" xmlns="http://www.w3.org/2000/svg">
<g clip-path="url(#clip0_3218_86443)">
<path fill-rule="evenodd" clip-rule="evenodd" d="M11.9 1.4C12.0857 1.4 12.2637 1.47375 12.395 1.60502C12.5263 1.7363 12.6 1.91435 12.6 2.1V11.61L10.995 10.005C10.8637 9.87374 10.6857 9.79999 10.5 9.79999H2.1C1.91435 9.79999 1.7363 9.72624 1.60503 9.59496C1.47375 9.46369 1.4 9.28564 1.4 9.09999V2.1C1.4 1.91435 1.47375 1.7363 1.60503 1.60502C1.7363 1.47375 1.91435 1.4 2.1 1.4H11.9ZM13.3849 0.615075C12.9911 0.221249 12.457 0 11.9 0H2.1C1.54305 0 1.0089 0.221249 0.615076 0.615075C0.22125 1.0089 0 1.54304 0 2.1V9.09999C0 9.65694 0.22125 10.1911 0.615076 10.5849C1.0089 10.9787 1.54305 11.2 2.1 11.2H10.2101L12.805 13.795C13.0052 13.9952 13.3063 14.055 13.5679 13.9467C13.8295 13.8383 14 13.5831 14 13.3V2.1C14 1.54304 13.7788 1.0089 13.3849 0.615075Z" fill="url(#paint0_linear_3218_86443)"/>
<path d="M6.39999 12.8V23.12C6.39999 23.4759 6.6144 23.7968 6.94323 23.933C7.27207 24.0692 7.65057 23.9939 7.90225 23.7422L11.1645 20.48H21.36C22.0602 20.48 22.7317 20.2018 23.2268 19.7067C23.7219 19.2116 24 18.5401 24 17.84V9.03999C24 8.33982 23.7219 7.66833 23.2268 7.17323C22.7317 6.67814 22.0602 6.39999 21.36 6.39999H16V8.15999H21.36C21.5934 8.15999 21.8172 8.25271 21.9822 8.41774C22.1473 8.58277 22.24 8.8066 22.24 9.03999V17.84C22.24 18.0734 22.1473 18.2972 21.9822 18.4622C21.8172 18.6273 21.5934 18.72 21.36 18.72H10.8C10.5666 18.72 10.3428 18.8127 10.1777 18.9777L8.15999 20.9955V12.8H6.39999Z" fill="url(#paint1_linear_3218_86443)"/>
</g>
<defs>
<linearGradient id="paint0_linear_3218_86443" x1="7" y1="0" x2="7" y2="14" gradientUnits="userSpaceOnUse">
<stop stop-color="#10808C"/>
<stop offset="1" stop-color="#1DF7EF"/>
</linearGradient>
<linearGradient id="paint1_linear_3218_86443" x1="15.2" y1="6.39999" x2="15.2" y2="24" gradientUnits="userSpaceOnUse">
<stop stop-color="#FE5468"/>
<stop offset="1" stop-color="#FFDF27"/>
</linearGradient>
<clipPath id="clip0_3218_86443">
<rect width="24" height="24" fill="white"/>
</clipPath>
</defs>
</svg>
