<svg width="24" height="24" viewBox="0 0 24 24" fill="none" xmlns="http://www.w3.org/2000/svg">
<g clip-path="url(#clip0_5529_92962)">
<path d="M11.3536 0.229951C11.7302 -0.0764468 12.2698 -0.0764468 12.6465 0.229951L14.3496 1.6149C14.5761 1.79888 14.8701 1.8773 15.1582 1.83104L17.3257 1.48281C17.8049 1.40606 18.2725 1.67674 18.4454 2.13025L19.227 4.18065C19.331 4.45343 19.5466 4.66902 19.8194 4.77305L21.8698 5.55459C22.3233 5.72752 22.594 6.19515 22.5172 6.67435L22.169 8.84183C22.1227 9.12991 22.2011 9.42396 22.3851 9.65039L23.7701 11.3535C24.0765 11.7302 24.0765 12.2698 23.7701 12.6464L22.3851 14.3496C22.2011 14.576 22.1227 14.8701 22.169 15.1581L22.5172 17.3256C22.594 17.8048 22.3233 18.2725 21.8698 18.4454L19.8194 19.2269C19.5466 19.331 19.331 19.5465 19.227 19.8193L18.4454 21.8697L18.4094 21.9528C18.2268 22.3292 17.832 22.5573 17.4147 22.5272L17.3257 22.5172L15.1582 22.1689C14.8701 22.1227 14.5761 22.2011 14.3496 22.3851L12.6465 23.77C12.2933 24.0573 11.7967 24.0756 11.4256 23.8241L11.3536 23.77L9.65042 22.3851C9.42399 22.2011 9.12994 22.1227 8.84186 22.1689L6.67438 22.5172L6.58532 22.5272C6.13825 22.5594 5.71681 22.2951 5.55462 21.8697L4.77308 19.8193C4.682 19.5805 4.50535 19.3856 4.27975 19.271L4.18068 19.2269L2.13028 18.4454C1.67677 18.2725 1.40609 17.8048 1.48284 17.3256L1.83107 15.1581C1.87159 14.9058 1.81695 14.6487 1.67897 14.4367L1.61493 14.3496L0.229981 12.6464C-0.0764163 12.2698 -0.0764163 11.7302 0.229981 11.3535L1.61493 9.65039C1.77592 9.45225 1.85649 9.2023 1.84308 8.94991L1.83107 8.84183L1.48284 6.67435C1.40609 6.19515 1.67677 5.72752 2.13028 5.55459L4.18068 4.77305C4.41951 4.68197 4.61442 4.50532 4.72905 4.27972L4.77308 4.18065L5.55462 2.13025C5.72755 1.67674 6.19518 1.40606 6.67438 1.48281L8.84186 1.83104C9.09417 1.87156 9.35131 1.81692 9.56336 1.67894L9.65042 1.6149L11.3536 0.229951ZM10.7822 3.00585C10.1594 3.51231 9.35022 3.72945 8.55767 3.60225L7.00761 3.35308L6.44823 4.81909C6.16213 5.56939 5.56942 6.1621 4.81912 6.4482L3.35311 7.00758L3.60228 8.55764C3.72949 9.35019 3.51234 10.1594 3.00588 10.7822L2.0152 12L3.00588 13.2178C3.51234 13.8406 3.72949 14.6498 3.60228 15.4423L3.35311 16.9914L4.81912 17.5518C5.52253 17.82 6.0876 18.3574 6.39119 19.0418L6.44823 19.1809L7.00761 20.6459L8.55767 20.3977L8.70577 20.3787C9.45024 20.2994 10.1982 20.5192 10.7822 20.9941L12 21.9838L13.2179 20.9941L13.3369 20.9031C13.9419 20.4623 14.6993 20.2785 15.4424 20.3977L16.9914 20.6459L17.5518 19.1809L17.6089 19.0418C17.9124 18.3574 18.4775 17.82 19.1809 17.5518L20.6459 16.9914L20.3978 15.4423C20.2706 14.6498 20.4877 13.8406 20.9942 13.2178L21.9838 12L20.9942 10.7822C20.4877 10.1594 20.2706 9.35019 20.3978 8.55764L20.6459 7.00758L19.1809 6.4482C18.4306 6.1621 17.8379 5.56939 17.5518 4.81909L16.9914 3.35308L15.4424 3.60225C14.6498 3.72946 13.8406 3.51231 13.2179 3.00585L12 2.01517L10.7822 3.00585Z" fill="url(#paint0_linear_5529_92962)"/>
<path d="M10.185 14.306C10.185 13.8976 10.2233 13.5146 10.2999 13.1572C10.3893 12.787 10.5489 12.4487 10.7786 12.1423C11.0084 11.8359 11.3339 11.5615 11.7552 11.3189C11.9339 11.204 12.1637 11.07 12.4445 10.9168C12.7381 10.7636 13.019 10.5913 13.2871 10.3998C13.5551 10.1956 13.7785 9.9594 13.9573 9.69132C14.1487 9.41048 14.2445 9.09134 14.2445 8.73391C14.2445 8.37647 14.1551 8.07648 13.9764 7.83394C13.8104 7.5914 13.5871 7.4063 13.3062 7.27864C13.0381 7.15099 12.7445 7.08716 12.4254 7.08716C12.0552 7.08716 11.7233 7.17014 11.4297 7.33609C11.1361 7.48927 10.8871 7.68076 10.6829 7.91053C10.4787 8.14031 10.3063 8.37648 10.1659 8.61902L8.5 7.47012C8.72978 6.94674 9.04253 6.49995 9.43826 6.12975C9.84676 5.75955 10.3127 5.47871 10.8361 5.28722C11.3722 5.09574 11.9275 5 12.502 5C12.9871 5 13.4658 5.07659 13.9381 5.22978C14.4104 5.3702 14.8381 5.5936 15.221 5.89997C15.604 6.20634 15.9104 6.59569 16.1402 7.06801C16.3699 7.54033 16.4848 8.1084 16.4848 8.77221C16.4848 9.1807 16.4338 9.54452 16.3316 9.86365C16.2423 10.1828 16.1082 10.47 15.9295 10.7253C15.7636 10.9679 15.5529 11.1913 15.2976 11.3955C15.0423 11.5998 14.7679 11.7976 14.4743 11.9891C14.1423 12.1934 13.8041 12.3912 13.4594 12.5827C13.1275 12.7742 12.8467 13.004 12.6169 13.272C12.3999 13.5274 12.2914 13.872 12.2914 14.306H10.185ZM10.2233 18.7676V16.1251H12.3488V18.7676H10.2233Z" fill="url(#paint1_linear_5529_92962)"/>
</g>
<defs>
<linearGradient id="paint0_linear_5529_92962" x1="12" y1="0.000152588" x2="12" y2="24" gradientUnits="userSpaceOnUse">
<stop stop-color="#10808C"/>
<stop offset="1" stop-color="#1DF7EF"/>
</linearGradient>
<linearGradient id="paint1_linear_5529_92962" x1="12.4924" y1="5" x2="12.4924" y2="18.7676" gradientUnits="userSpaceOnUse">
<stop stop-color="#FE5468"/>
<stop offset="1" stop-color="#FFDF27"/>
</linearGradient>
<clipPath id="clip0_5529_92962">
<rect width="24" height="24" fill="white"/>
</clipPath>
</defs>
</svg>
