<svg width="24" height="24" viewBox="0 0 24 24" fill="none" xmlns="http://www.w3.org/2000/svg">
<g clip-path="url(#clip0_3218_87010)">
<path d="M24 16.3561H21.4765L20.9235 18.8259H23.1877V20.6287H20.5086L19.7136 24H17.8469L18.6593 20.6287H16.5852L15.8074 24H13.9407L14.7358 20.6287H12.8V18.8259H15.1506L15.721 16.3561H13.6123V14.6614H16.1185L16.9309 11.2H18.7975L17.9679 14.6614H20.042L20.837 11.2H22.7037L21.8914 14.6614H24V16.3561ZM19.0741 18.8259L19.6272 16.3561H17.5704L17 18.8259H19.0741Z" fill="url(#paint0_linear_3218_87010)"/>
<path fill-rule="evenodd" clip-rule="evenodd" d="M19.2 4.64516C19.2 2.07971 17.1202 0 14.5547 0C13.0887 0 11.7814 0.679329 10.9304 1.73926C9.76975 0.66034 8.21348 0 6.50343 0C2.91168 0 0 2.91159 0 6.50323C0 10.0949 2.91168 13.0065 6.50343 13.0065C7.09887 13.0065 7.67559 12.9264 8.22343 12.7766C7.7261 13.4463 7.43189 14.2759 7.43189 15.1742C7.43189 17.311 9.09668 19.059 11.2 19.1919V17.3268C10.1243 17.1993 9.29001 16.2842 9.29001 15.1742C9.29001 13.977 10.2606 13.0065 11.4578 13.0065C11.6253 13.0065 11.7884 13.0254 11.945 13.0614H14.8854C14.1762 11.9134 12.9064 11.1484 11.4578 11.1484C11.314 11.1484 11.1719 11.1559 11.032 11.1706C11.7004 10.522 12.2299 9.73114 12.5716 8.84691C13.1733 9.13132 13.8458 9.29032 14.5547 9.29032C17.1202 9.29032 19.2 7.21061 19.2 4.64516ZM14.5547 1.85806C16.094 1.85806 17.3419 3.10589 17.3419 4.64516C17.3419 6.18443 16.094 7.43226 14.5547 7.43226C13.0154 7.43226 11.7675 6.18443 11.7675 4.64516C11.7675 3.10589 13.0154 1.85806 14.5547 1.85806ZM9.03427 2.60706C8.79943 3.24296 8.67124 3.93002 8.67124 4.64516C8.67124 6.31731 9.36949 7.82572 10.4866 8.89545C9.67315 10.2466 8.19237 11.1484 6.50343 11.1484C3.9379 11.1484 1.85812 9.06868 1.85812 6.50323C1.85812 3.93777 3.9379 1.85806 6.50343 1.85806C7.43784 1.85806 8.30614 2.13282 9.03427 2.60706Z" fill="url(#paint1_linear_3218_87010)"/>
</g>
<defs>
<linearGradient id="paint0_linear_3218_87010" x1="18.4" y1="11.2" x2="18.4" y2="24" gradientUnits="userSpaceOnUse">
<stop stop-color="#10808C"/>
<stop offset="1" stop-color="#1DF7EF"/>
</linearGradient>
<linearGradient id="paint1_linear_3218_87010" x1="9.6" y1="0" x2="9.6" y2="19.1919" gradientUnits="userSpaceOnUse">
<stop stop-color="#FE5468"/>
<stop offset="1" stop-color="#FFDF27"/>
</linearGradient>
<clipPath id="clip0_3218_87010">
<rect width="24" height="24" fill="white"/>
</clipPath>
</defs>
</svg>
