<svg width="15" height="15" viewBox="0 0 15 15" fill="none" xmlns="http://www.w3.org/2000/svg">
<g clip-path="url(#clip0_21859_51468)">
<path d="M6.1419 5.70874C6.12675 5.49729 6.18433 5.30314 6.30789 5.11487C6.39061 4.98972 6.50792 4.85458 6.63736 4.70571C6.97128 4.32115 7.38491 3.84513 7.48617 3.21436C7.70635 3.69786 7.59956 4.168 7.35584 4.60034C7.2462 4.79467 7.12479 4.93427 7.0089 5.06745C6.87251 5.22416 6.74397 5.37196 6.65162 5.58929C6.60081 5.70749 6.57193 5.8207 6.55838 5.93142L6.1419 5.70874Z" fill="url(#paint0_radial_21859_51468)"/>
<path d="M6.85364 6.09171C6.90445 5.90522 6.99234 5.73086 7.10912 5.56167C7.20575 5.42047 7.29632 5.31581 7.37762 5.22186C7.65111 4.9054 7.82083 4.70893 7.77109 3.64832C7.80301 3.71642 7.83456 3.78203 7.86523 3.84532L7.8654 3.84568C8.13212 4.39943 8.31932 4.78773 8.00482 5.32099C7.84936 5.58449 7.73597 5.71553 7.63577 5.83142C7.52292 5.96174 7.42665 6.07317 7.30559 6.3324L6.85364 6.09171Z" fill="url(#paint1_radial_21859_51468)"/>
<path d="M8.02606 5.92481C7.9034 6.07011 7.70318 6.2705 7.69409 6.2837L8.82709 5.65025C8.80338 5.43916 8.64774 5.19045 8.45644 4.83691C8.49513 5.30295 8.31328 5.58446 8.02606 5.92481Z" fill="url(#paint2_radial_21859_51468)"/>
<path d="M8.82256 5.86047C8.79207 5.99561 8.6252 6.27677 8.50254 6.42278C8.11495 6.88383 7.91313 7.08048 7.58152 7.77419C7.5628 7.69913 7.54319 7.62835 7.52447 7.56078C7.43194 7.22703 7.37506 6.94908 7.48596 6.70947L8.82256 5.86047Z" fill="url(#paint3_radial_21859_51468)"/>
<path d="M7.32462 7.42369C7.22977 7.1461 7.16167 6.91397 7.21123 6.62034L6.81508 6.36218C6.79316 6.79417 6.97768 7.29854 7.48722 7.94785C7.46012 7.78704 7.37882 7.58237 7.32462 7.42369Z" fill="url(#paint4_radial_21859_51468)"/>
<path d="M6.55124 6.19009C6.55801 6.33057 6.64484 6.70194 6.72257 6.89841C6.50079 6.61547 6.25832 6.18135 6.18896 5.95386L6.55124 6.19009Z" fill="url(#paint5_radial_21859_51468)"/>
<path d="M11.2144 8.30119C11.2144 7.65848 10.0192 7.11792 8.40395 6.96655C8.24991 7.13949 8.09588 7.35414 7.94861 7.6706L7.72683 8.09189C7.68457 8.16962 7.60666 8.22061 7.52019 8.22738C7.4323 8.23416 7.34761 8.19565 7.2952 8.12523L7.15293 7.93411C6.85662 7.55578 6.63982 7.25609 6.46885 6.97565C4.90119 7.13878 3.75 7.67078 3.75 8.30119C3.75 9.06122 5.42267 9.67827 7.48311 9.67827C7.58259 9.67827 7.68136 9.67684 7.77906 9.67399L8.08143 8.81804L8.08393 8.81198C8.15061 8.64528 8.31107 8.53617 8.48953 8.53368H8.49078L11.1602 8.54081C11.1877 8.4736 11.2144 8.37126 11.2144 8.30119Z" fill="url(#paint6_radial_21859_51468)"/>
<path d="M8.60023 9.69678H10.6917L10.6002 9.92872H8.51982L8.05664 11.25V9.84689L8.38058 8.93033C8.39895 8.88397 8.44388 8.85313 8.49433 8.85242L11.0295 8.85313L10.9358 9.08169H8.81934L8.75445 9.2746H10.8634L10.7632 9.50387H8.67351L8.60023 9.69678Z" fill="url(#paint7_radial_21859_51468)"/>
<path d="M3.87634 8.90918C4.11721 9.59023 4.70662 10.3902 4.83195 10.5071C5.26483 10.9149 6.65955 11.2506 7.75796 11.2506V10.1026C5.85388 10.1026 4.36734 9.48593 3.87634 8.90918Z" fill="url(#paint8_radial_21859_51468)"/>
<circle cx="11.7188" cy="3.28125" r="0.9375" fill="#FF5B66"/>
<circle cx="11.7188" cy="11.7188" r="0.9375" fill="#FFA145"/>
<circle cx="7.5" cy="13.5938" r="0.9375" fill="#FFC634"/>
<circle cx="13.5938" cy="7.5" r="0.9375" fill="#FF8453"/>
<circle cx="7.5" cy="1.40625" r="0.9375" fill="#1DF7EF"/>
<circle cx="1.40625" cy="7.5" r="0.9375" fill="#BAE765"/>
<circle cx="3.28125" cy="3.28125" r="0.9375" fill="#75EEA3"/>
<circle cx="3.28125" cy="11.7188" r="0.9375" fill="#F9E02E"/>
</g>
<defs>
<radialGradient id="paint0_radial_21859_51468" cx="0" cy="0" r="1" gradientUnits="userSpaceOnUse" gradientTransform="translate(7.33039 4.05832) rotate(117.912) scale(2.31947 1.79016)">
<stop stop-color="#1DF7EF"/>
<stop offset="1" stop-color="#10808C"/>
</radialGradient>
<radialGradient id="paint1_radial_21859_51468" cx="0" cy="0" r="1" gradientUnits="userSpaceOnUse" gradientTransform="translate(7.92202 4.48204) rotate(115.692) scale(2.24689 1.6378)">
<stop stop-color="#1DF7EF"/>
<stop offset="1" stop-color="#10808C"/>
</radialGradient>
<radialGradient id="paint2_radial_21859_51468" cx="0" cy="0" r="1" gradientUnits="userSpaceOnUse" gradientTransform="translate(8.61418 5.28631) rotate(127.548) scale(1.37655 1.24096)">
<stop stop-color="#1DF7EF"/>
<stop offset="1" stop-color="#10808C"/>
</radialGradient>
<radialGradient id="paint3_radial_21859_51468" cx="0" cy="0" r="1" gradientUnits="userSpaceOnUse" gradientTransform="translate(8.55991 6.45491) rotate(125.634) scale(1.77621 1.56925)">
<stop stop-color="#1DF7EF"/>
<stop offset="1" stop-color="#10808C"/>
</radialGradient>
<radialGradient id="paint4_radial_21859_51468" cx="0" cy="0" r="1" gradientUnits="userSpaceOnUse" gradientTransform="translate(7.36058 6.85472) rotate(112.642) scale(1.29605 0.859172)">
<stop stop-color="#1DF7EF"/>
<stop offset="1" stop-color="#10808C"/>
</radialGradient>
<radialGradient id="paint5_radial_21859_51468" cx="0" cy="0" r="1" gradientUnits="userSpaceOnUse" gradientTransform="translate(6.62229 6.24725) rotate(119.008) scale(0.81474 0.644684)">
<stop stop-color="#1DF7EF"/>
<stop offset="1" stop-color="#10808C"/>
</radialGradient>
<radialGradient id="paint6_radial_21859_51468" cx="0" cy="0" r="1" gradientUnits="userSpaceOnUse" gradientTransform="translate(9.81169 7.80886) rotate(159.689) scale(5.89325 3.57935)">
<stop stop-color="#FFDF27"/>
<stop offset="0.9999" stop-color="#FE5468"/>
</radialGradient>
<radialGradient id="paint7_radial_21859_51468" cx="0" cy="0" r="1" gradientUnits="userSpaceOnUse" gradientTransform="translate(10.4709 9.59715) rotate(140.592) scale(2.84894 2.60728)">
<stop stop-color="#1DF7EF"/>
<stop offset="0.9999" stop-color="#10808C"/>
</radialGradient>
<radialGradient id="paint8_radial_21859_51468" cx="0" cy="0" r="1" gradientUnits="userSpaceOnUse" gradientTransform="translate(7.02851 9.63647) rotate(148.427) scale(3.37339 2.80764)">
<stop stop-color="#1DF7EF"/>
<stop offset="0.9999" stop-color="#10808C"/>
</radialGradient>
<clipPath id="clip0_21859_51468">
<rect width="15" height="15" fill="white"/>
</clipPath>
</defs>
</svg>
