<svg width="24" height="24" viewBox="0 0 24 24" fill="none" xmlns="http://www.w3.org/2000/svg">
<g clip-path="url(#clip0_3218_86603)">
<path fill-rule="evenodd" clip-rule="evenodd" d="M18.5242 14.25C21.155 14.25 23.6987 16.2319 23.6987 18.9643C23.6987 19.838 23.4708 20.6351 23.0146 21.3613C22.0321 22.8787 20.3101 23.7115 18.5242 23.7115C16.7383 23.7115 15.0422 22.8824 14.0323 21.392C13.5771 20.6664 13.3496 19.87 13.3496 18.9972C13.3496 16.258 15.8735 14.25 18.5242 14.25ZM18.5242 15.9527C18.0517 15.9527 17.6079 16.1029 17.1977 16.3921C16.3634 16.9664 15.94 17.9732 15.94 18.9643C15.94 19.526 16.0573 20.038 16.2975 20.4944C16.7488 21.3519 17.5154 22.0088 18.5242 22.0088C19.0166 22.0088 19.4637 21.8597 19.8577 21.5642C20.2412 21.2766 20.5397 20.9059 20.7533 20.4569C20.9902 20.0049 21.1084 19.5171 21.1084 18.9972C21.1084 18.4373 20.9918 17.9269 20.7533 17.4717C20.5383 17.0199 20.2261 16.658 19.8179 16.392C19.4282 16.1018 18.9949 15.9527 18.5242 15.9527Z" fill="url(#paint0_linear_3218_86603)"/>
<path fill-rule="evenodd" clip-rule="evenodd" d="M5.42455 0.25C7.1708 0.25 8.95439 1.11549 9.91594 2.60152C10.3709 3.3047 10.5991 4.09006 10.5991 4.96429C10.5991 5.838 10.3712 6.63512 9.91503 7.36134C8.93252 8.87866 7.21049 9.71146 5.42455 9.71146C3.63865 9.71146 1.94256 8.88238 0.932705 7.39204C0.477478 6.6664 0.25 5.87 0.25 4.99717C0.25 4.1007 0.478345 3.30533 0.931781 2.60366C1.93354 1.1243 3.64701 0.25 5.42455 0.25ZM5.42455 1.9527C4.95205 1.9527 4.50832 2.10285 4.09811 2.39208C3.26379 2.96642 2.84035 3.97316 2.84035 4.96429C2.84035 5.52603 2.95768 6.03801 3.19788 6.4944C3.64918 7.35186 4.41575 8.00876 5.42455 8.00876C5.917 8.00876 6.36414 7.85971 6.75809 7.56424C7.14158 7.27663 7.44011 6.90591 7.65368 6.45685C7.89059 6.00492 8.00876 5.51709 8.00876 4.99717C8.00876 4.43734 7.89223 3.92694 7.65367 3.47172C7.43866 3.01987 7.12644 2.658 6.71828 2.39202C6.32855 2.1018 5.89525 1.9527 5.42455 1.9527Z" fill="url(#paint1_linear_3218_86603)"/>
<path d="M2.12396 22.1256L11.3621 11.3094L19.9099 0.0657654L21.9154 1.84107L12.9073 12.4929L4.09653 23.9009L2.12396 22.1256Z" fill="url(#paint2_linear_3218_86603)"/>
</g>
<defs>
<linearGradient id="paint0_linear_3218_86603" x1="18.5242" y1="14.25" x2="18.5242" y2="23.7115" gradientUnits="userSpaceOnUse">
<stop stop-color="#FE5468"/>
<stop offset="1" stop-color="#FFDF27"/>
</linearGradient>
<linearGradient id="paint1_linear_3218_86603" x1="5.42455" y1="0.25" x2="5.42455" y2="9.71146" gradientUnits="userSpaceOnUse">
<stop stop-color="#FE5468"/>
<stop offset="1" stop-color="#FFDF27"/>
</linearGradient>
<linearGradient id="paint2_linear_3218_86603" x1="12.0197" y1="0.0657654" x2="12.0197" y2="23.9009" gradientUnits="userSpaceOnUse">
<stop stop-color="#10808C"/>
<stop offset="1" stop-color="#1DF7EF"/>
</linearGradient>
<clipPath id="clip0_3218_86603">
<rect width="24" height="24" fill="white"/>
</clipPath>
</defs>
</svg>
