<svg width="24" height="24" viewBox="0 0 24 24" fill="none" xmlns="http://www.w3.org/2000/svg">
<g clip-path="url(#clip0_5529_92952)">
<path fill-rule="evenodd" clip-rule="evenodd" d="M16.0153 6.05854C16.5354 6.2443 16.8064 6.81651 16.6207 7.33662L12.6775 17.439C12.1796 18.833 10.3057 19.0637 9.48466 17.8321L7.16806 14.3572C6.8617 13.8976 6.98588 13.2768 7.44541 12.9704C7.90493 12.6641 8.5258 12.7882 8.83216 13.2478L10.9279 16.3914L14.7372 6.66395C14.9229 6.14384 15.4951 5.87279 16.0153 6.05854Z" fill="url(#paint0_linear_5529_92952)"/>
<path d="M11.3536 0.229951C11.7302 -0.0764468 12.2698 -0.0764468 12.6465 0.229951L14.3496 1.6149C14.5761 1.79888 14.8701 1.8773 15.1582 1.83104L17.3257 1.48281C17.8049 1.40606 18.2725 1.67674 18.4454 2.13025L19.227 4.18065C19.331 4.45343 19.5466 4.66902 19.8194 4.77305L21.8698 5.55459C22.3233 5.72752 22.594 6.19515 22.5172 6.67435L22.169 8.84183C22.1227 9.12991 22.2011 9.42396 22.3851 9.65039L23.7701 11.3535C24.0765 11.7302 24.0765 12.2698 23.7701 12.6464L22.3851 14.3496C22.2011 14.576 22.1227 14.8701 22.169 15.1581L22.5172 17.3256C22.594 17.8048 22.3233 18.2725 21.8698 18.4454L19.8194 19.2269C19.5466 19.331 19.331 19.5465 19.227 19.8193L18.4454 21.8697L18.4094 21.9528C18.2268 22.3292 17.832 22.5573 17.4147 22.5272L17.3257 22.5172L15.1582 22.1689C14.8701 22.1227 14.5761 22.2011 14.3496 22.3851L12.6465 23.77C12.2933 24.0573 11.7967 24.0756 11.4256 23.8241L11.3536 23.77L9.65042 22.3851C9.42399 22.2011 9.12994 22.1227 8.84186 22.1689L6.67438 22.5172L6.58532 22.5272C6.13825 22.5594 5.71681 22.2951 5.55462 21.8697L4.77308 19.8193C4.682 19.5805 4.50535 19.3856 4.27975 19.271L4.18068 19.2269L2.13028 18.4454C1.67677 18.2725 1.40609 17.8048 1.48284 17.3256L1.83107 15.1581C1.87159 14.9058 1.81695 14.6487 1.67897 14.4367L1.61493 14.3496L0.229981 12.6464C-0.0764163 12.2698 -0.0764163 11.7302 0.229981 11.3535L1.61493 9.65039C1.77592 9.45225 1.85649 9.2023 1.84308 8.94991L1.83107 8.84183L1.48284 6.67435C1.40609 6.19515 1.67677 5.72752 2.13028 5.55459L4.18068 4.77305C4.41951 4.68197 4.61442 4.50532 4.72905 4.27972L4.77308 4.18065L5.55462 2.13025C5.72755 1.67674 6.19518 1.40606 6.67438 1.48281L8.84186 1.83104C9.09417 1.87156 9.35131 1.81692 9.56336 1.67894L9.65042 1.6149L11.3536 0.229951ZM10.7822 3.00585C10.1594 3.51231 9.35022 3.72945 8.55767 3.60225L7.00761 3.35308L6.44823 4.81909C6.16213 5.56939 5.56942 6.1621 4.81912 6.4482L3.35311 7.00758L3.60228 8.55764C3.72949 9.35019 3.51234 10.1594 3.00588 10.7822L2.0152 12L3.00588 13.2178C3.51234 13.8406 3.72949 14.6498 3.60228 15.4423L3.35311 16.9914L4.81912 17.5518C5.52253 17.82 6.0876 18.3574 6.39119 19.0418L6.44823 19.1809L7.00761 20.6459L8.55767 20.3977L8.70577 20.3787C9.45024 20.2994 10.1982 20.5192 10.7822 20.9941L12 21.9838L13.2179 20.9941L13.3369 20.9031C13.9419 20.4623 14.6993 20.2785 15.4424 20.3977L16.9914 20.6459L17.5518 19.1809L17.6089 19.0418C17.9124 18.3574 18.4775 17.82 19.1809 17.5518L20.6459 16.9914L20.3978 15.4423C20.2706 14.6498 20.4877 13.8406 20.9942 13.2178L21.9838 12L20.9942 10.7822C20.4877 10.1594 20.2706 9.35019 20.3978 8.55764L20.6459 7.00758L19.1809 6.4482C18.4306 6.1621 17.8379 5.56939 17.5518 4.81909L16.9914 3.35308L15.4424 3.60225C14.6498 3.72946 13.8406 3.51231 13.2179 3.00585L12 2.01517L10.7822 3.00585Z" fill="url(#paint1_linear_5529_92952)"/>
</g>
<defs>
<linearGradient id="paint0_linear_5529_92952" x1="11.8396" y1="6" x2="11.8396" y2="18.6339" gradientUnits="userSpaceOnUse">
<stop stop-color="#FE5468"/>
<stop offset="1" stop-color="#FFDF27"/>
</linearGradient>
<linearGradient id="paint1_linear_5529_92952" x1="12" y1="0.000152588" x2="12" y2="24" gradientUnits="userSpaceOnUse">
<stop stop-color="#10808C"/>
<stop offset="1" stop-color="#1DF7EF"/>
</linearGradient>
<clipPath id="clip0_5529_92952">
<rect width="24" height="24" fill="white"/>
</clipPath>
</defs>
</svg>
