<svg width="24" height="24" viewBox="0 0 24 24" fill="none" xmlns="http://www.w3.org/2000/svg">
<path fill-rule="evenodd" clip-rule="evenodd" d="M6.59948 2.98037C6.90045 2.44806 7.56753 2.26538 8.08944 2.57235L17.4539 7.92338C17.9758 8.23035 18.1549 8.91071 17.854 9.44302C17.553 9.97533 16.8859 10.158 16.364 9.85104L6.99954 4.50001C6.47762 4.19304 6.29851 3.51268 6.59948 2.98037Z" fill="url(#paint0_linear_3218_88350)"/>
<path fill-rule="evenodd" clip-rule="evenodd" d="M10.3524 0.437195C10.8534 0.150775 11.4216 0 12 0C12.5784 0 13.1466 0.150788 13.6477 0.437231C13.6485 0.437668 13.6492 0.438106 13.65 0.438544L21.35 4.80298C21.8512 5.09 22.2674 5.50269 22.557 5.99966C22.8466 6.49663 22.9994 7.06041 23 7.63443V16.3656C22.9994 16.9396 22.8466 17.5034 22.557 18.0003C22.2674 18.4973 21.8512 18.91 21.35 19.197L21.3458 19.1994L13.65 23.5615C13.6493 23.5618 13.6487 23.5622 13.648 23.5626C13.1468 23.8491 12.5785 24 12 24C11.4215 24 10.8532 23.8492 10.352 23.5626C10.3514 23.5622 10.3507 23.5618 10.35 23.5615L2.65425 19.1994L2.65 19.197C2.14883 18.91 1.73257 18.4973 1.44296 18.0003C1.15336 17.5034 1.00059 16.9396 1 16.3656V7.63443C1.00059 7.06041 1.15336 6.49663 1.44296 5.99966C1.73257 5.50269 2.14883 5.09 2.65 4.80299L2.65424 4.80056L10.3524 0.437195ZM12 2.18222C11.8069 2.18222 11.6172 2.23264 11.45 2.32841L11.4458 2.33084L3.75 6.69286C3.74942 6.69319 3.74884 6.69352 3.74827 6.69385C3.58198 6.78948 3.44385 6.92666 3.34765 7.09175C3.2512 7.25727 3.20028 7.44502 3.2 7.6362V16.3638C3.20028 16.555 3.2512 16.7427 3.34765 16.9083C3.44385 17.0733 3.58198 17.2105 3.74827 17.3061C3.74884 17.3065 3.74942 17.3068 3.75 17.3071L11.45 21.6716C11.6172 21.7674 11.8069 21.8178 12 21.8178C12.1931 21.8178 12.3828 21.7674 12.55 21.6716L12.5542 21.6692L20.25 17.3071C20.2506 17.3068 20.2512 17.3065 20.2517 17.3061C20.418 17.2105 20.5561 17.0733 20.6523 16.9083C20.7489 16.7426 20.7998 16.5547 20.8 16.3633V7.63667C20.7998 7.44533 20.7489 7.2574 20.6523 7.09175C20.5561 6.92667 20.418 6.78948 20.2517 6.69386C20.2512 6.69352 20.2506 6.69319 20.25 6.69286L12.55 2.32842C12.3828 2.23265 12.1931 2.18222 12 2.18222Z" fill="url(#paint1_linear_3218_88350)"/>
<path fill-rule="evenodd" clip-rule="evenodd" d="M1.50045 6C1.81308 5.45753 2.50464 5.27216 3.04509 5.58596L12 10.5544L20.9551 5.58634C21.4955 5.27254 22.1871 5.45791 22.4997 6.00038C22.8123 6.54285 22.6276 7.23699 22.0872 7.55079L12.5661 12.8475C12.2159 13.0508 11.7841 13.0508 11.4339 12.8475L1.91295 7.55041C1.3725 7.23661 1.18782 6.54247 1.50045 6Z" fill="url(#paint2_linear_3218_88350)"/>
<path fill-rule="evenodd" clip-rule="evenodd" d="M12 11C12.5523 11 13 11.4818 13 12.0762V22.9238C13 23.5182 12.5523 24 12 24C11.4477 24 11 23.5182 11 22.9238V12.0762C11 11.4818 11.4477 11 12 11Z" fill="url(#paint3_linear_3218_88350)"/>
<defs>
<linearGradient id="paint0_linear_3218_88350" x1="12.2267" y1="2.42339" x2="12.2267" y2="10" gradientUnits="userSpaceOnUse">
<stop stop-color="#FE5468"/>
<stop offset="1" stop-color="#FFDF27"/>
</linearGradient>
<linearGradient id="paint1_linear_3218_88350" x1="12" y1="0" x2="12" y2="24" gradientUnits="userSpaceOnUse">
<stop stop-color="#10808C"/>
<stop offset="1" stop-color="#1DF7EF"/>
</linearGradient>
<linearGradient id="paint2_linear_3218_88350" x1="12.0001" y1="5.43327" x2="12.0001" y2="13" gradientUnits="userSpaceOnUse">
<stop stop-color="#FE5468"/>
<stop offset="1" stop-color="#FFDF27"/>
</linearGradient>
<linearGradient id="paint3_linear_3218_88350" x1="12" y1="11" x2="12" y2="24" gradientUnits="userSpaceOnUse">
<stop stop-color="#FE5468"/>
<stop offset="1" stop-color="#FFDF27"/>
</linearGradient>
</defs>
</svg>
