<svg width="15" height="15" viewBox="0 0 15 15" fill="none" xmlns="http://www.w3.org/2000/svg">
<path d="M14.9573 9.50712V7.76202C14.9573 7.03429 14.6391 6.34283 14.0866 5.86923L11.0893 3.30007L11.039 3.25909C10.5121 2.8523 9.75179 2.93126 9.3207 3.44857L8.82123 4.04745L8.79567 4.08153C8.6779 4.25609 8.70916 4.49521 8.87438 4.63293C9.03965 4.77065 9.28059 4.75836 9.43106 4.61102L9.45987 4.57978L9.95893 3.9805C10.098 3.81359 10.3401 3.7834 10.5148 3.90463L10.5485 3.931L13.5461 6.50016C13.9144 6.81589 14.1263 7.2769 14.1263 7.76202V9.50712C14.1263 9.73658 14.3123 9.9226 14.5418 9.9226C14.7713 9.9226 14.9573 9.73658 14.9573 9.50712Z" fill="url(#paint0_linear_22417_53124)"/>
<path d="M0 9.50712V7.76202C0 7.03429 0.318186 6.34283 0.870723 5.86923L3.86794 3.30007L3.91826 3.25909C4.44521 2.8523 5.20548 2.93126 5.63658 3.44857L6.13604 4.04745L6.16161 4.08153C6.27938 4.25609 6.24812 4.49521 6.08289 4.63293C5.91763 4.77065 5.67668 4.75836 5.52621 4.61102L5.49741 4.57978L4.99834 3.9805C4.85925 3.81359 4.61714 3.7834 4.44247 3.90463L4.4088 3.931L1.41117 6.50016C1.04287 6.81589 0.830961 7.2769 0.830961 7.76202V9.50712C0.830961 9.73658 0.644944 9.9226 0.41548 9.9226C0.186017 9.9226 0 9.73658 0 9.50712Z" fill="url(#paint1_linear_22417_53124)"/>
<path d="M5.81665 8.8839C5.81665 7.62185 4.79356 6.59876 3.53151 6.59876C2.26946 6.59876 1.24637 7.62185 1.24637 8.8839C1.24637 10.1459 2.26946 11.169 3.53151 11.169V12C1.81053 12 0.415405 10.6049 0.415405 8.8839C0.415405 7.16292 1.81053 5.7678 3.53151 5.7678C5.25248 5.7678 6.64761 7.16292 6.64761 8.8839C6.64761 10.6049 5.25248 12 3.53151 12V11.169C4.79356 11.169 5.81665 10.1459 5.81665 8.8839Z" fill="url(#paint2_linear_22417_53124)"/>
<path d="M13.7109 8.8839C13.7109 7.62185 12.6878 6.59876 11.4258 6.59876C10.1637 6.59876 9.14065 7.62185 9.14065 8.8839C9.14065 10.1459 10.1637 11.169 11.4258 11.169V12C9.70482 12 8.30969 10.6049 8.30969 8.8839C8.30969 7.16292 9.70482 5.7678 11.4258 5.7678C13.1468 5.7678 14.5419 7.16292 14.5419 8.8839C14.5419 10.6049 13.1468 12 11.4258 12V11.169C12.6878 11.169 13.7109 10.1459 13.7109 8.8839Z" fill="url(#paint3_linear_22417_53124)"/>
<path d="M11.6889 7.42972C12.4184 7.42972 13.0099 8.00885 13.0099 8.72324C13.0099 9.43763 12.6085 9.50712 12.4905 9.50712C12.1329 9.50712 12.3607 8.85793 11.9712 8.46842C11.5816 8.07891 10.8026 8.31334 10.8026 7.94907C10.8026 7.83348 10.9881 7.42972 11.6889 7.42972Z" fill="url(#paint4_linear_22417_53124)"/>
<path d="M3.79444 7.42972C4.52401 7.42972 5.11544 8.00885 5.11544 8.72324C5.11544 9.43763 4.71406 9.50712 4.59609 9.50712C4.23854 9.50712 4.46625 8.85793 4.07674 8.46842C3.68723 8.07891 2.9082 8.31334 2.9082 7.94907C2.9082 7.83348 3.09374 7.42972 3.79444 7.42972Z" fill="url(#paint5_linear_22417_53124)"/>
<path d="M7.4786 6.75456C8.00436 6.75456 8.50504 6.95332 8.97417 7.30515L8.47591 7.96976C8.1141 7.6984 7.78377 7.58552 7.4786 7.58552C7.17343 7.58552 6.8431 7.6984 6.48128 7.96976L5.98303 7.30515C6.45216 6.95332 6.95283 6.75456 7.4786 6.75456Z" fill="url(#paint6_linear_22417_53124)"/>
<defs>
<linearGradient id="paint0_linear_22417_53124" x1="11.8411" y1="3" x2="11.8411" y2="9.9226" gradientUnits="userSpaceOnUse">
<stop stop-color="#10808C"/>
<stop offset="1" stop-color="#1DF7EF"/>
</linearGradient>
<linearGradient id="paint1_linear_22417_53124" x1="3.11618" y1="3" x2="3.11618" y2="9.9226" gradientUnits="userSpaceOnUse">
<stop stop-color="#10808C"/>
<stop offset="1" stop-color="#1DF7EF"/>
</linearGradient>
<linearGradient id="paint2_linear_22417_53124" x1="3.53151" y1="5.7678" x2="3.53151" y2="12" gradientUnits="userSpaceOnUse">
<stop stop-color="#FE5468"/>
<stop offset="1" stop-color="#FFDF27"/>
</linearGradient>
<linearGradient id="paint3_linear_22417_53124" x1="11.4258" y1="5.7678" x2="11.4258" y2="12" gradientUnits="userSpaceOnUse">
<stop stop-color="#FE5468"/>
<stop offset="1" stop-color="#FFDF27"/>
</linearGradient>
<linearGradient id="paint4_linear_22417_53124" x1="10.8026" y1="8.46842" x2="13.0099" y2="8.46842" gradientUnits="userSpaceOnUse">
<stop stop-color="#10808C"/>
<stop offset="1" stop-color="#1DF7EF"/>
</linearGradient>
<linearGradient id="paint5_linear_22417_53124" x1="2.9082" y1="8.46842" x2="5.11544" y2="8.46842" gradientUnits="userSpaceOnUse">
<stop stop-color="#10808C"/>
<stop offset="1" stop-color="#1DF7EF"/>
</linearGradient>
<linearGradient id="paint6_linear_22417_53124" x1="7.4786" y1="6.75456" x2="7.4786" y2="7.96976" gradientUnits="userSpaceOnUse">
<stop stop-color="#10808C"/>
<stop offset="1" stop-color="#1DF7EF"/>
</linearGradient>
</defs>
</svg>
