<svg width="15" height="15" viewBox="0 0 15 15" fill="none" xmlns="http://www.w3.org/2000/svg">
<g clip-path="url(#clip0_15032_54209)">
<path fill-rule="evenodd" clip-rule="evenodd" d="M4.0625 1.22378L3.36758 2.65718C3.00207 3.4111 1.68543 3.41109 1.31992 2.65718L1.25 2.51295V12.7119L1.34378 12.5461C1.73592 11.8528 2.95158 11.8528 3.34372 12.5461L4.0625 13.8169L4.78128 12.5461C5.17342 11.8528 6.38908 11.8528 6.78122 12.5461L7.5 13.8169L8.21878 12.5461C8.61092 11.8528 9.82658 11.8528 10.2187 12.5461L10.9375 13.8169L11.6563 12.5461C12.0484 11.8528 13.2641 11.8528 13.6562 12.5461L13.75 12.7119V2.51295L13.6801 2.65718C13.3146 3.4111 11.9979 3.41109 11.6324 2.65718L10.9375 1.22378L10.2426 2.65718C9.87707 3.4111 8.56043 3.41109 8.19492 2.65718L7.5 1.22378L6.80508 2.65718C6.43957 3.4111 5.12293 3.41109 4.75742 2.65718L4.0625 1.22378ZM3.03867 0.565436C3.40418 -0.188475 4.72082 -0.188482 5.08633 0.565435L5.78125 1.99883L6.47617 0.565436C6.84168 -0.188475 8.15832 -0.188482 8.52383 0.565435L9.21875 1.99883L9.91367 0.565436C10.2792 -0.188475 11.5958 -0.188482 11.9613 0.565435L12.6562 1.99883L13.383 0.499797C13.7212 -0.197874 15 -0.00164871 15 0.747948V14.2435C15 14.9721 13.7758 15.1887 13.4012 14.5262L12.6562 13.2092L11.9375 14.48C11.5453 15.1733 10.3297 15.1733 9.93753 14.48L9.21875 13.2092L8.49997 14.48C8.10783 15.1733 6.89217 15.1733 6.50003 14.48L5.78125 13.2092L5.06247 14.48C4.67033 15.1733 3.45467 15.1733 3.06253 14.48L2.34375 13.2092L1.59884 14.5262C1.22417 15.1886 0 14.9721 0 14.2435V0.747948C0 -0.00164231 1.27876 -0.197881 1.617 0.499797L2.34375 1.99883L3.03867 0.565436Z" fill="url(#paint0_linear_15032_54209)"/>
<path fill-rule="evenodd" clip-rule="evenodd" d="M4.375 8.03571C5.36122 8.03571 6.16071 7.23622 6.16071 6.25C6.16071 5.26378 5.36122 4.46429 4.375 4.46429C3.38878 4.46429 2.58929 5.26378 2.58929 6.25C2.58929 7.23622 3.38878 8.03571 4.375 8.03571ZM4.375 8.75C5.75571 8.75 6.875 7.63071 6.875 6.25C6.875 4.86929 5.75571 3.75 4.375 3.75C2.99429 3.75 1.875 4.86929 1.875 6.25C1.875 7.63071 2.99429 8.75 4.375 8.75Z" fill="url(#paint1_linear_15032_54209)"/>
<path fill-rule="evenodd" clip-rule="evenodd" d="M5.31275 5.52239C5.31275 5.62281 5.23135 5.70421 5.13093 5.70421H3.61578C3.51537 5.70421 3.43397 5.62281 3.43397 5.52239C3.43397 5.42198 3.51537 5.34058 3.61578 5.34058H5.13093C5.23135 5.34058 5.31275 5.42198 5.31275 5.52239ZM5.13093 6.24967C5.13093 6.35008 5.04953 6.43149 4.94912 6.43149H3.7976C3.69719 6.43149 3.61578 6.35008 3.61578 6.24967C3.61578 6.14925 3.69719 6.06785 3.7976 6.06785H4.94912C5.04953 6.06785 5.13093 6.14925 5.13093 6.24967ZM5.51003 6.97694C5.51003 7.07736 5.42863 7.15876 5.32821 7.15876H3.41912C3.31871 7.15876 3.2373 7.07736 3.2373 6.97694C3.2373 6.87652 3.31871 6.79512 3.41912 6.79512H5.32821C5.42863 6.79512 5.51003 6.87652 5.51003 6.97694Z" fill="url(#paint2_linear_15032_54209)"/>
<rect x="5.46692" y="11.0236" width="7.73299" height="0.926512" transform="rotate(-65 5.46692 11.0236)" fill="url(#paint3_linear_15032_54209)"/>
<path d="M13.395 10.7256C13.395 10.8756 13.3562 11.0019 13.2787 11.1044C13.2012 11.2044 13.0962 11.2806 12.9637 11.3331C12.8337 11.3856 12.6912 11.4119 12.5362 11.4119H11.25V8.74939H12.675C12.8 8.74939 12.9075 8.78314 12.9975 8.85064C13.09 8.91564 13.16 9.00064 13.2075 9.10564C13.2575 9.20814 13.2825 9.31564 13.2825 9.42814C13.2825 9.55564 13.25 9.67689 13.185 9.79189C13.12 9.90689 13.025 9.99189 12.9 10.0469C13.0525 10.0919 13.1725 10.1731 13.26 10.2906C13.35 10.4081 13.395 10.5531 13.395 10.7256ZM12.8737 10.6281C12.8737 10.5606 12.86 10.5006 12.8325 10.4481C12.805 10.3931 12.7675 10.3506 12.72 10.3206C12.675 10.2881 12.6225 10.2719 12.5625 10.2719H11.7675V10.9731H12.5362C12.5987 10.9731 12.655 10.9581 12.705 10.9281C12.7575 10.8956 12.7987 10.8531 12.8287 10.8006C12.8587 10.7481 12.8737 10.6906 12.8737 10.6281ZM11.7675 9.19189V9.86314H12.4575C12.515 9.86314 12.5675 9.84939 12.615 9.82189C12.6625 9.79439 12.7 9.75564 12.7275 9.70564C12.7575 9.65564 12.7725 9.59564 12.7725 9.52564C12.7725 9.45814 12.7587 9.39939 12.7312 9.34939C12.7062 9.29939 12.6712 9.26064 12.6262 9.23314C12.5837 9.20564 12.535 9.19189 12.48 9.19189H11.7675Z" fill="url(#paint4_linear_15032_54209)"/>
<path d="M10.2962 11.4119V9.66439L9.61375 10.9656H9.325L8.6425 9.66439V11.4119H8.125V8.74939H8.68L9.4675 10.2644L10.2625 8.74939H10.8137V11.4119H10.2962Z" fill="url(#paint5_linear_15032_54209)"/>
</g>
<defs>
<linearGradient id="paint0_linear_15032_54209" x1="7.5" y1="0" x2="7.5" y2="15" gradientUnits="userSpaceOnUse">
<stop stop-color="#10808C"/>
<stop offset="1" stop-color="#1DF7EF"/>
</linearGradient>
<linearGradient id="paint1_linear_15032_54209" x1="4.375" y1="3.75" x2="7.74558" y2="8.48869" gradientUnits="userSpaceOnUse">
<stop stop-color="#FE5468"/>
<stop offset="1" stop-color="#FFDF27"/>
</linearGradient>
<linearGradient id="paint2_linear_15032_54209" x1="4.37367" y1="5.34058" x2="4.37367" y2="7.15876" gradientUnits="userSpaceOnUse">
<stop stop-color="#10808C"/>
<stop offset="1" stop-color="#1DF7EF"/>
</linearGradient>
<linearGradient id="paint3_linear_15032_54209" x1="9.33341" y1="11.0236" x2="9.33341" y2="11.9501" gradientUnits="userSpaceOnUse">
<stop stop-color="#10808C"/>
<stop offset="1" stop-color="#1DF7EF"/>
</linearGradient>
<linearGradient id="paint4_linear_15032_54209" x1="12.3225" y1="8.74939" x2="14.2078" y2="10.8848" gradientUnits="userSpaceOnUse">
<stop stop-color="#FE5468"/>
<stop offset="1" stop-color="#FFDF27"/>
</linearGradient>
<linearGradient id="paint5_linear_15032_54209" x1="9.46937" y1="8.74939" x2="11.2584" y2="11.2893" gradientUnits="userSpaceOnUse">
<stop stop-color="#FE5468"/>
<stop offset="1" stop-color="#FFDF27"/>
</linearGradient>
<clipPath id="clip0_15032_54209">
<rect width="15" height="15" fill="white"/>
</clipPath>
</defs>
</svg>
