<svg width="24" height="24" viewBox="0 0 24 24" fill="none" xmlns="http://www.w3.org/2000/svg">
<g clip-path="url(#clip0_3218_87301)">
<path d="M18.2113 21.1231C18.8013 21.7608 18.8246 22.7544 18.2374 23.4199C17.6501 24.0855 16.6609 24.1866 15.9546 23.6804L15.8174 23.5713L7.07395 15.8564C4.82622 13.8731 4.75642 10.4159 6.86369 8.34046L7.07395 8.14358L15.8174 0.428741L15.9546 0.319591C16.6609 -0.186561 17.6501 -0.0854896 18.2374 0.580078C18.8246 1.24559 18.8013 2.23918 18.2113 2.87692L18.0861 3.00013L9.34267 10.7143L9.27236 10.7799C8.56983 11.4717 8.59338 12.6246 9.34267 13.2857L18.0861 20.9999L18.2113 21.1231Z" fill="url(#paint0_linear_3218_87301)"/>
</g>
<defs>
<linearGradient id="paint0_linear_3218_87301" x1="18.666" y1="12" x2="5.33401" y2="12" gradientUnits="userSpaceOnUse">
<stop stop-color="#FE5468"/>
<stop offset="1" stop-color="#FFDF27"/>
</linearGradient>
<clipPath id="clip0_3218_87301">
<rect width="24" height="24" fill="white"/>
</clipPath>
</defs>
</svg>
