<svg width="16" height="16" viewBox="0 0 16 16" fill="none" xmlns="http://www.w3.org/2000/svg">
<path fill-rule="evenodd" clip-rule="evenodd" d="M8.66336 1.62746C9.4242 0.895834 10.4432 0.491001 11.5009 0.500152C12.5587 0.509303 13.5705 0.931706 14.3184 1.67638C15.0664 2.42106 15.4907 3.42843 15.4998 4.48152C15.509 5.53461 15.1024 6.54917 14.3676 7.30668L14.3594 7.31498L12.3424 9.3231C11.9335 9.73042 11.4413 10.0454 10.8993 10.2467C10.3573 10.448 9.77818 10.5309 9.20119 10.4897C8.6242 10.4486 8.06284 10.2844 7.55519 10.0083C7.04755 9.73212 6.60549 9.35052 6.259 8.88933C6.03658 8.59328 6.09732 8.17378 6.39467 7.95233C6.69201 7.73089 7.11337 7.79137 7.33579 8.08741C7.56678 8.39487 7.86149 8.64927 8.19992 8.83336C8.53835 9.01745 8.91259 9.12692 9.29725 9.15435C9.68191 9.18178 10.068 9.12652 10.4293 8.99233C10.7906 8.85813 11.1188 8.64814 11.3914 8.37659L11.3915 8.37651L13.4042 6.37264C13.8917 5.86806 14.1613 5.19339 14.1552 4.49316C14.1491 3.79109 13.8662 3.11951 13.3676 2.62306C12.869 2.12661 12.1944 1.84501 11.4893 1.83891C10.7856 1.83282 10.1077 2.10152 9.60085 2.58727L8.44804 3.72835C8.18471 3.989 7.759 3.98777 7.4972 3.72559C7.23539 3.46341 7.23664 3.03957 7.49997 2.77891L8.65641 1.63423L8.66336 1.62746Z" fill="url(#paint0_linear_7416_31908)"/>
<path fill-rule="evenodd" clip-rule="evenodd" d="M5.1007 5.7533C5.64269 5.55201 6.22182 5.46912 6.79881 5.51026C7.3758 5.5514 7.93716 5.71561 8.44481 5.99175C8.95245 6.26788 9.39451 6.64948 9.741 7.11067C9.96342 7.40672 9.90268 7.82622 9.60533 8.04767C9.30799 8.26911 8.88663 8.20863 8.66421 7.91259C8.43322 7.60513 8.13851 7.35073 7.80008 7.16664C7.46165 6.98255 7.08741 6.87308 6.70275 6.84565C6.31809 6.81822 5.932 6.87348 5.57068 7.00767C5.20935 7.14187 4.88124 7.35186 4.6086 7.62341L2.59582 9.62736C2.10834 10.1319 1.83869 10.8066 1.8448 11.5068C1.85093 12.2089 2.13377 12.8805 2.63241 13.3769C3.13105 13.8734 3.80558 14.155 4.51073 14.1611C5.21404 14.1672 5.89168 13.8987 6.39848 13.4134L7.54385 12.273C7.80642 12.0116 8.23213 12.0116 8.4947 12.273C8.75727 12.5344 8.75727 12.9583 8.4947 13.2197L7.34498 14.3644L7.33664 14.3725C6.5758 15.1042 5.55678 15.509 4.49905 15.4998C3.44132 15.4907 2.42952 15.0683 1.68156 14.3236C0.933606 13.5789 0.509344 12.5716 0.500152 11.5185C0.490961 10.4654 0.897576 9.45083 1.63242 8.69332L1.64061 8.68502L3.65758 6.6769C3.65755 6.67693 3.65761 6.67687 3.65758 6.6769C4.06653 6.26962 4.55875 5.95457 5.1007 5.7533Z" fill="url(#paint1_linear_7416_31908)"/>
<defs>
<linearGradient id="paint0_linear_7416_31908" x1="10.8125" y1="0.5" x2="17.685" y2="9.55809" gradientUnits="userSpaceOnUse">
<stop stop-color="#FE5468"/>
<stop offset="1" stop-color="#FFDF27"/>
</linearGradient>
<linearGradient id="paint1_linear_7416_31908" x1="5.1875" y1="5.5" x2="5.1875" y2="15.5" gradientUnits="userSpaceOnUse">
<stop stop-color="#10808C"/>
<stop offset="1" stop-color="#1DF7EF"/>
</linearGradient>
</defs>
</svg>
