<svg width="24" height="24" viewBox="0 0 24 24" fill="none" xmlns="http://www.w3.org/2000/svg">
<path fill-rule="evenodd" clip-rule="evenodd" d="M1.60619 13.8306C2.63461 12.6585 4.02946 12 5.48387 12H11.5161C12.9705 12 14.3654 12.6585 15.3938 13.8306C16.4222 15.0027 17 16.5924 17 18.25V20.75C17 21.4404 16.509 22 15.9032 22C15.2975 22 14.8065 21.4404 14.8065 20.75V18.25C14.8065 17.2554 14.4598 16.3016 13.8427 15.5984C13.2257 14.8951 12.3888 14.5 11.5161 14.5H5.48387C4.61122 14.5 3.77432 14.8951 3.15726 15.5984C2.54021 16.3016 2.19355 17.2554 2.19355 18.25V20.75C2.19355 21.4404 1.70251 22 1.09677 22C0.491043 22 0 21.4404 0 20.75V18.25C0 16.5924 0.577764 15.0027 1.60619 13.8306Z" fill="url(#paint0_linear_3218_87827)"/>
<path fill-rule="evenodd" clip-rule="evenodd" d="M8 3C6.34315 3 5 4.34315 5 6C5 7.65685 6.34315 9 8 9C9.65685 9 11 7.65685 11 6C11 4.34315 9.65685 3 8 3ZM3 6C3 3.23858 5.23858 1 8 1C10.7614 1 13 3.23858 13 6C13 8.76142 10.7614 11 8 11C5.23858 11 3 8.76142 3 6Z" fill="url(#paint1_linear_3218_87827)"/>
<path fill-rule="evenodd" clip-rule="evenodd" d="M18.0384 12.9533C18.2041 12.2738 18.8586 11.8652 19.5002 12.0407C20.7873 12.3926 21.9277 13.1872 22.7421 14.2997C23.5566 15.4122 23.999 16.7796 24 18.1872L24 20.7294C24 21.4311 23.4628 22 22.8001 22C22.1373 22 21.6001 21.4311 21.6001 20.7294L21.6001 18.1891C21.6001 18.189 21.6001 18.1892 21.6001 18.1891C21.5994 17.3447 21.334 16.524 20.8454 15.8566C20.3567 15.1891 19.6725 14.7123 18.9002 14.5012C18.2586 14.3257 17.8727 13.6327 18.0384 12.9533Z" fill="url(#paint2_linear_3218_87827)"/>
<path d="M13.8856 9.1989C13.4119 9.66415 13.4819 10.446 14.1087 10.6787C14.6682 10.8863 15.2748 11 15.9085 11C18.7204 11 21 8.76142 21 6C21 3.23858 18.7204 1 15.9085 1C15.0014 1 14.1498 1.23291 13.4122 1.64114C12.8927 1.92869 12.8755 2.61644 13.2972 3.03056C13.6755 3.40205 14.2757 3.40982 14.7723 3.21433C15.1235 3.07607 15.5069 3 15.9085 3C17.5956 3 18.9634 4.34315 18.9634 6C18.9634 7.65685 17.5956 9 15.9085 9C15.6667 9 15.4315 8.97242 15.2059 8.92028C14.7407 8.81277 14.2236 8.86705 13.8856 9.1989Z" fill="url(#paint3_linear_3218_87827)"/>
<defs>
<linearGradient id="paint0_linear_3218_87827" x1="8.5" y1="12" x2="8.5" y2="22" gradientUnits="userSpaceOnUse">
<stop stop-color="#10808C"/>
<stop offset="1" stop-color="#1DF7EF"/>
</linearGradient>
<linearGradient id="paint1_linear_3218_87827" x1="8" y1="1" x2="8" y2="11" gradientUnits="userSpaceOnUse">
<stop stop-color="#10808C"/>
<stop offset="1" stop-color="#1DF7EF"/>
</linearGradient>
<linearGradient id="paint2_linear_3218_87827" x1="21" y1="12" x2="21" y2="22" gradientUnits="userSpaceOnUse">
<stop stop-color="#FE5468"/>
<stop offset="1" stop-color="#FFDF27"/>
</linearGradient>
<linearGradient id="paint3_linear_3218_87827" x1="17" y1="1" x2="17" y2="11" gradientUnits="userSpaceOnUse">
<stop stop-color="#FE5468"/>
<stop offset="1" stop-color="#FFDF27"/>
</linearGradient>
</defs>
</svg>
