<svg width="15" height="15" viewBox="0 0 15 15" fill="none" xmlns="http://www.w3.org/2000/svg">
<path fill-rule="evenodd" clip-rule="evenodd" d="M10 11.5C9.5 10.5 15 12.8853 15 14.223C15 14.6521 14.6453 15 14.2078 15H0.792183C0.354673 15 0 14.6521 0 14.223C0 12.8853 5.5 10.5 5 11.5C4.5 12.5 5.13247 14.2416 7.52103 14.2415C9.9096 14.2414 10.5 12.5 10 11.5Z" fill="url(#paint0_linear_21087_70084)"/>
<path fill-rule="evenodd" clip-rule="evenodd" d="M8.97248 10C7.43838 10.0331 5.31375 11.3128 6.20695 12.3664C6.4336 12.6338 6.61527 12.7752 6.97391 12.9087C8.22762 13.3753 9.04738 11.8288 9.04738 10.5422C9.04738 10.3557 9.02145 10.1741 8.97248 10Z" fill="url(#paint1_linear_21087_70084)"/>
<defs>
<linearGradient id="paint0_linear_21087_70084" x1="7.5" y1="11.2616" x2="7.5" y2="15" gradientUnits="userSpaceOnUse">
<stop stop-color="#10808C"/>
<stop offset="1" stop-color="#1DF7EF"/>
</linearGradient>
<linearGradient id="paint1_linear_21087_70084" x1="7.52123" y1="10" x2="9.52625" y2="12.874" gradientUnits="userSpaceOnUse">
<stop stop-color="#FE5468"/>
<stop offset="1" stop-color="#FFDF27"/>
</linearGradient>
</defs>
</svg>
