<svg width="24" height="24" viewBox="0 0 24 24" fill="none" xmlns="http://www.w3.org/2000/svg">
<path fill-rule="evenodd" clip-rule="evenodd" d="M12 24C18.6274 24 24 18.6274 24 12C24 5.37258 18.6274 0 12 0C5.37258 0 0 5.37258 0 12C0 18.6274 5.37258 24 12 24ZM7.59734 5.6C7.10299 5.6 6.70224 6.00934 6.70224 6.51429C6.70224 7.01923 7.10299 7.42857 7.59734 7.42857H16.5484C17.0427 7.42857 17.4435 7.01923 17.4435 6.51429C17.4435 6.00934 17.0427 5.6 16.5484 5.6H7.59734ZM8.49245 11.0857C7.9981 11.0857 7.59734 11.4951 7.59734 12C7.59734 12.5049 7.9981 12.9143 8.49245 12.9143H15.6533C16.1476 12.9143 16.5484 12.5049 16.5484 12C16.5484 11.4951 16.1476 11.0857 15.6533 11.0857H8.49245ZM7.14979 16.5714C6.65544 16.5714 6.25469 16.9808 6.25469 17.4857C6.25469 17.9907 6.65544 18.4 7.14979 18.4H16.9959C17.4903 18.4 17.8911 17.9907 17.8911 17.4857C17.8911 16.9808 17.4903 16.5714 16.9959 16.5714H7.14979Z" fill="url(#paint0_linear_3218_87817)"/>
<defs>
<linearGradient id="paint0_linear_3218_87817" x1="12" y1="0" x2="12" y2="24" gradientUnits="userSpaceOnUse">
<stop stop-color="#FE5468"/>
<stop offset="1" stop-color="#FFDF27"/>
</linearGradient>
</defs>
</svg>
