<svg width="24" height="24" viewBox="0 0 24 24" fill="none" xmlns="http://www.w3.org/2000/svg">
<path d="M14.9833 3.85866C14.9833 3.29437 15.2125 2.75319 15.6204 2.35418C16.0283 1.95517 16.5815 1.731 17.1583 1.731C17.7352 1.731 18.2884 1.95517 18.6963 2.35418C19.1042 2.75319 19.3333 3.29437 19.3333 3.85866V19.4615C19.3333 20.0258 19.1042 20.567 18.6963 20.966C18.2884 21.365 17.7352 21.5892 17.1583 21.5892C16.5815 21.5892 16.0283 21.365 15.6204 20.966C15.2125 20.567 14.9833 20.0258 14.9833 19.4615V19.158C11.8484 17.3977 10.8533 16.7622 8.8276 16.2033L9.41485 20.0502C9.45429 20.2551 9.44705 20.466 9.39364 20.6679C9.34024 20.8698 9.24199 21.0577 9.10588 21.2182C8.96978 21.3787 8.79917 21.5078 8.60621 21.5965C8.41325 21.6851 8.20268 21.7311 7.9895 21.731H7.1949C6.91305 21.731 6.63732 21.6506 6.40143 21.4997C6.16554 21.3488 5.97972 21.1339 5.8667 20.8814L3.1842 15.931C3.08657 15.9294 2.98894 15.928 2.8913 15.9267C2.12333 15.9193 1.38927 15.6162 0.848112 15.0831C0.306951 14.55 0.00225017 13.8298 0 13.0785V10.2416C0.00258794 9.49028 0.306776 8.76998 0.847036 8.23591C1.3873 7.70184 2.12039 7.39673 2.8884 7.38632C4.08904 7.3704 5.28932 7.33493 6.48875 7.27994C9.41485 7.27994 11.5367 6.07568 14.9833 4.16079V3.85866ZM16.4333 3.85866V19.4615C16.4333 19.6496 16.5097 19.83 16.6457 19.963C16.7816 20.096 16.9661 20.1707 17.1583 20.1707C17.3506 20.1707 17.535 20.096 17.671 19.963C17.8069 19.83 17.8833 19.6496 17.8833 19.4615V3.85866C17.8833 3.67057 17.8069 3.49017 17.671 3.35717C17.535 3.22416 17.3506 3.14944 17.1583 3.14944C16.9661 3.14944 16.7816 3.22416 16.6457 3.35717C16.5097 3.49017 16.4333 3.67057 16.4333 3.85866ZM14.9833 5.77356C11.5845 7.48278 9.8107 8.60476 7.25 8.65724V14.6615C7.511 14.6757 7.77055 14.6927 8.02865 14.7126C10.266 15.1991 11.5468 15.7679 14.9833 17.5395V5.77356ZM5.8 14.5892V8.731C4.83749 8.76546 3.87464 8.79004 2.9116 8.80476C2.52412 8.80921 2.1539 8.96225 1.88057 9.23096C1.60724 9.49966 1.45263 9.86258 1.45 10.2416V13.0785C1.45 13.8587 2.0996 14.4998 2.9087 14.5097C3.87285 14.5207 4.83675 14.5471 5.8 14.5892ZM4.84735 15.9721L7.1804 20.2799L7.1949 20.314H7.9895L7.9866 20.2941L7.34425 16.087C6.51249 16.0379 5.68012 15.9992 4.84735 15.9707V15.9721Z" fill="url(#paint0_linear_3218_88168)"/>
<path d="M20.9997 6.25907L22.4445 5.423C22.7632 5.23858 23.171 5.34743 23.3554 5.6661C23.5398 5.98478 23.431 6.39262 23.1123 6.57703L21.6675 7.41311C21.3488 7.59752 20.941 7.48868 20.7566 7.17C20.5722 6.85132 20.681 6.44349 20.9997 6.25907Z" fill="url(#paint1_linear_3218_88168)"/>
<path d="M20.9997 17.2438L22.4445 18.0799C22.7632 18.2643 23.171 18.1555 23.3554 17.8368C23.5398 17.5181 23.431 17.1103 23.1123 16.9259L21.6675 16.0898C21.3488 15.9054 20.941 16.0142 20.7566 16.3329C20.5722 16.6516 20.681 17.0594 20.9997 17.2438Z" fill="url(#paint2_linear_3218_88168)"/>
<path d="M21.3334 12.6667H22.6667C23.0349 12.6667 23.3334 12.9652 23.3334 13.3333C23.3334 13.7015 23.0349 14 22.6667 14H21.3334C20.9652 14 20.6667 13.7015 20.6667 13.3333C20.6667 12.9652 20.9652 12.6667 21.3334 12.6667Z" fill="url(#paint3_linear_3218_88168)"/>
<path d="M21.3334 9.33335H22.6667C23.0349 9.33335 23.3334 9.63182 23.3334 10C23.3334 10.3682 23.0349 10.6667 22.6667 10.6667H21.3334C20.9652 10.6667 20.6667 10.3682 20.6667 10C20.6667 9.63182 20.9652 9.33335 21.3334 9.33335Z" fill="url(#paint4_linear_3218_88168)"/>
<defs>
<linearGradient id="paint0_linear_3218_88168" x1="9.66667" y1="1.731" x2="9.66667" y2="21.731" gradientUnits="userSpaceOnUse">
<stop stop-color="#10808C"/>
<stop offset="1" stop-color="#1DF7EF"/>
</linearGradient>
<linearGradient id="paint1_linear_3218_88168" x1="22.0559" y1="5.33324" x2="22.0559" y2="18.1697" gradientUnits="userSpaceOnUse">
<stop stop-color="#FE5468"/>
<stop offset="1" stop-color="#FFDF27"/>
</linearGradient>
<linearGradient id="paint2_linear_3218_88168" x1="22.0559" y1="5.33324" x2="22.0559" y2="18.1697" gradientUnits="userSpaceOnUse">
<stop stop-color="#FE5468"/>
<stop offset="1" stop-color="#FFDF27"/>
</linearGradient>
<linearGradient id="paint3_linear_3218_88168" x1="22.0559" y1="5.33324" x2="22.0559" y2="18.1697" gradientUnits="userSpaceOnUse">
<stop stop-color="#FE5468"/>
<stop offset="1" stop-color="#FFDF27"/>
</linearGradient>
<linearGradient id="paint4_linear_3218_88168" x1="22.0559" y1="5.33324" x2="22.0559" y2="18.1697" gradientUnits="userSpaceOnUse">
<stop stop-color="#FE5468"/>
<stop offset="1" stop-color="#FFDF27"/>
</linearGradient>
</defs>
</svg>
