<svg width="24" height="24" viewBox="0 0 24 24" fill="none" xmlns="http://www.w3.org/2000/svg">
<g clip-path="url(#clip0_3218_87376)">
<path d="M17.9943 22.3928C16.2302 23.4126 14.1826 23.9967 11.9984 23.9967C9.81887 23.9967 7.77506 23.4157 6.01351 22.4L7.67474 20.7374C8.97775 21.3833 10.4455 21.747 11.9984 21.747C13.5562 21.747 15.0282 21.3807 16.3344 20.7309L17.9943 22.3928Z" fill="url(#paint0_linear_3218_87376)"/>
<path d="M3.26974 7.65196C2.61687 8.96053 2.24969 10.4366 2.24969 11.9984C2.24969 13.5603 2.61744 15.0361 3.27039 16.3448L1.61046 18.0067C0.586311 16.2398 0 14.1876 0 11.9984C0 9.8095 0.585936 7.75741 1.60981 5.99072L3.26974 7.65196Z" fill="url(#paint1_linear_3218_87376)"/>
<path d="M22.3928 6.00244C23.4126 7.76657 23.9967 9.81417 23.9967 11.9984C23.9967 14.1826 23.4126 16.2302 22.3928 17.9943L20.7322 16.3324C21.3813 15.0268 21.747 13.5554 21.747 11.9984C21.747 10.4416 21.3812 8.97045 20.7322 7.66497L22.3928 6.00244Z" fill="url(#paint2_linear_3218_87376)"/>
<path d="M11.9984 0C14.183 0 16.2313 0.583779 17.9956 1.60395L16.3357 3.26583C15.0293 2.61572 13.5566 2.24969 11.9984 2.24969C10.4451 2.24969 8.97671 2.6131 7.67344 3.25932L6.01286 1.59679C7.77452 0.580865 9.81867 0 11.9984 0Z" fill="url(#paint3_linear_3218_87376)"/>
<path d="M22.0996 0.325527C22.5332 -0.108185 23.2369 -0.108403 23.671 0.324876C24.105 0.758141 24.1052 1.46063 23.6716 1.89432L13.5773 11.9991L23.6716 22.1045C24.1008 22.5338 24.1057 23.2281 23.6827 23.6635C23.2509 24.1078 22.539 24.1127 22.1009 23.6746L12.0078 13.5705L1.9148 23.6746C1.4767 24.1127 0.764759 24.1079 0.332986 23.6635C-0.0899445 23.2281 -0.0845145 22.5337 0.344703 22.1045L10.4384 11.9991L0.344052 1.89432C-0.0893607 1.46059 -0.0886443 0.75808 0.345354 0.324876C0.779422 -0.108293 1.48249 -0.108113 1.9161 0.325527L12.0078 10.4277L22.0996 0.325527Z" fill="url(#paint4_linear_3218_87376)"/>
</g>
<defs>
<linearGradient id="paint0_linear_3218_87376" x1="11.9984" y1="0" x2="11.9984" y2="23.9967" gradientUnits="userSpaceOnUse">
<stop stop-color="#10808C"/>
<stop offset="1" stop-color="#1DF7EF"/>
</linearGradient>
<linearGradient id="paint1_linear_3218_87376" x1="11.9984" y1="0" x2="11.9984" y2="23.9967" gradientUnits="userSpaceOnUse">
<stop stop-color="#10808C"/>
<stop offset="1" stop-color="#1DF7EF"/>
</linearGradient>
<linearGradient id="paint2_linear_3218_87376" x1="11.9984" y1="0" x2="11.9984" y2="23.9967" gradientUnits="userSpaceOnUse">
<stop stop-color="#10808C"/>
<stop offset="1" stop-color="#1DF7EF"/>
</linearGradient>
<linearGradient id="paint3_linear_3218_87376" x1="11.9984" y1="0" x2="11.9984" y2="23.9967" gradientUnits="userSpaceOnUse">
<stop stop-color="#10808C"/>
<stop offset="1" stop-color="#1DF7EF"/>
</linearGradient>
<linearGradient id="paint4_linear_3218_87376" x1="12.008" y1="8.01086e-05" x2="12.008" y2="24" gradientUnits="userSpaceOnUse">
<stop stop-color="#FE5468"/>
<stop offset="1" stop-color="#FFDF27"/>
</linearGradient>
<clipPath id="clip0_3218_87376">
<rect width="24" height="24" fill="white"/>
</clipPath>
</defs>
</svg>
