<svg width="24" height="24" viewBox="0 0 24 24" fill="none" xmlns="http://www.w3.org/2000/svg">
<g clip-path="url(#clip0_3478_79849)">
<path fill-rule="evenodd" clip-rule="evenodd" d="M3.27262 5.18179C2.67512 5.18179 2.18172 5.67518 2.18172 6.27268L2.18157 18.7273C2.18157 19.3248 2.67497 19.8182 3.27246 19.8182L20.7266 19.8182C21.3241 19.8182 21.8175 19.3248 21.8175 18.7273L21.8176 6.27268C21.8176 5.67518 21.3242 5.18179 20.7267 5.18179L3.27262 5.18179ZM-6.10352e-05 6.27268C-6.10352e-05 4.47021 1.47015 3 3.27262 3L20.7267 3C22.5292 3 23.9994 4.47021 23.9994 6.27268L23.9993 18.7273C23.9993 20.5298 22.5291 22 20.7266 22L3.27246 22C1.47 22 -0.000213623 20.5298 -0.000213623 18.7273L-6.10352e-05 6.27268Z" fill="url(#paint0_linear_3478_79849)"/>
<path fill-rule="evenodd" clip-rule="evenodd" d="M0.197414 5.4654C0.542916 4.97183 1.22312 4.85179 1.71669 5.19729L12 12.3956L22.2834 5.19729C22.777 4.85179 23.4572 4.97183 23.8027 5.4654C24.1482 5.95897 24.0281 6.63918 23.5345 6.98468L12.6256 14.6209C12.25 14.8839 11.7501 14.8839 11.3745 14.6209L0.465523 6.98468C-0.0280511 6.63918 -0.148087 5.95897 0.197414 5.4654Z" fill="url(#paint1_linear_3478_79849)"/>
</g>
<defs>
<linearGradient id="paint0_linear_3478_79849" x1="11.9996" y1="3" x2="11.9996" y2="22" gradientUnits="userSpaceOnUse">
<stop stop-color="#FE5468"/>
<stop offset="1" stop-color="#FFDF27"/>
</linearGradient>
<linearGradient id="paint1_linear_3478_79849" x1="12" y1="5" x2="12" y2="14.8181" gradientUnits="userSpaceOnUse">
<stop stop-color="#10808C"/>
<stop offset="1" stop-color="#1DF7EF"/>
</linearGradient>
<clipPath id="clip0_3478_79849">
<rect width="24" height="24" fill="white"/>
</clipPath>
</defs>
</svg>
