<svg width="15" height="15" viewBox="0 0 15 15" fill="none" xmlns="http://www.w3.org/2000/svg">
<path fill-rule="evenodd" clip-rule="evenodd" d="M10.5 1.61815C10.5 1.24646 10.1089 1.00471 9.77642 1.17093L3.22363 4.44733L3.22358 3.14456L9.32921 0.276505C10.3266 -0.222171 11.5 0.503074 11.5 1.61815V2.50011H10.5V1.61815Z" fill="url(#paint0_linear_10678_38269)"/>
<path fill-rule="evenodd" clip-rule="evenodd" d="M3.83333 4.22222C3.49583 4.22222 3.22222 4.49583 3.22222 4.83333V13.1667C3.22222 13.5042 3.49583 13.7778 3.83333 13.7778H11.1667C11.5042 13.7778 11.7778 13.5042 11.7778 13.1667V4.83333C11.7778 4.49583 11.5042 4.22222 11.1667 4.22222H3.83333ZM2 4.83333C2 3.82081 2.82081 3 3.83333 3H11.1667C12.1792 3 13 3.82081 13 4.83333V13.1667C13 14.1792 12.1792 15 11.1667 15H3.83333C2.82081 15 2 14.1792 2 13.1667V4.83333Z" fill="url(#paint1_linear_10678_38269)"/>
<path d="M8 11V9.5L8.46 8.53472C8.47853 8.49605 8.54909 8.47032 8.6 8.46973H11L10.7972 9H8.82913L8 11Z" fill="url(#paint2_radial_10678_38269)"/>
<path fill-rule="evenodd" clip-rule="evenodd" d="M4.98475 10.3647C5.37697 10.671 6.53548 10.9296 7.57895 10.9876C7.72223 10.9956 7.86334 10.9998 8 10.9998V9.5C6.62211 9.5 5.4564 9.24024 4.70914 8.91494C4.39228 8.777 4.15066 8.62728 4 8.48058C4 9 4.31939 9.85008 4.98475 10.3647Z" fill="url(#paint3_linear_10678_38269)"/>
<path d="M11 8C11 7.44772 9.433 7 7.5 7C5.567 7 4 7.44772 4 8C4 8.55229 5.567 9 7.5 9L8 8H11Z" fill="url(#paint4_linear_10678_38269)"/>
<defs>
<linearGradient id="paint0_linear_10678_38269" x1="7.36183" y1="0.116211" x2="7.36183" y2="4.44733" gradientUnits="userSpaceOnUse">
<stop stop-color="#10808C"/>
<stop offset="1" stop-color="#1DF7EF"/>
</linearGradient>
<linearGradient id="paint1_linear_10678_38269" x1="7.5" y1="3" x2="7.5" y2="15" gradientUnits="userSpaceOnUse">
<stop stop-color="#10808C"/>
<stop offset="1" stop-color="#1DF7EF"/>
</linearGradient>
<radialGradient id="paint2_radial_10678_38269" cx="0" cy="0" r="1" gradientUnits="userSpaceOnUse" gradientTransform="translate(10.4362 9.62124) rotate(145.815) scale(2.68519 2.32859)">
<stop stop-color="#1DF7EF"/>
<stop offset="0.9999" stop-color="#10808C"/>
</radialGradient>
<linearGradient id="paint3_linear_10678_38269" x1="6" y1="8.48047" x2="6" y2="10.9998" gradientUnits="userSpaceOnUse">
<stop stop-color="#10808C"/>
<stop offset="1" stop-color="#1DF7EF"/>
</linearGradient>
<linearGradient id="paint4_linear_10678_38269" x1="7.5" y1="7" x2="8.05709" y2="9.74124" gradientUnits="userSpaceOnUse">
<stop stop-color="#FE5468"/>
<stop offset="1" stop-color="#FFDF27"/>
</linearGradient>
</defs>
</svg>
