<svg width="15" height="15" viewBox="0 0 15 15" fill="none" xmlns="http://www.w3.org/2000/svg">
<path d="M14.9573 9.50712V7.76202C14.9573 7.03429 14.6391 6.34283 14.0866 5.86923L11.0893 3.30007L11.039 3.25909C10.5121 2.8523 9.75179 2.93126 9.3207 3.44857L8.82123 4.04745L8.79567 4.08153C8.6779 4.25609 8.70916 4.49521 8.87438 4.63293C9.03965 4.77065 9.28059 4.75836 9.43106 4.61102L9.45987 4.57978L9.95893 3.9805C10.098 3.81359 10.3401 3.7834 10.5148 3.90463L10.5485 3.931L13.5461 6.50016C13.9144 6.81589 14.1263 7.2769 14.1263 7.76202V9.50712C14.1263 9.73658 14.3123 9.9226 14.5418 9.9226C14.7713 9.9226 14.9573 9.73658 14.9573 9.50712Z" fill="url(#paint0_linear_177_30523)"/>
<path d="M0 9.50712V7.76202C0 7.03429 0.318186 6.34283 0.870723 5.86923L3.86794 3.30007L3.91826 3.25909C4.44521 2.8523 5.20548 2.93126 5.63658 3.44857L6.13604 4.04745L6.16161 4.08153C6.27938 4.25609 6.24812 4.49521 6.08289 4.63293C5.91763 4.77065 5.67668 4.75836 5.52621 4.61102L5.49741 4.57978L4.99834 3.9805C4.85925 3.81359 4.61714 3.7834 4.44247 3.90463L4.4088 3.931L1.41117 6.50016C1.04287 6.81589 0.830961 7.2769 0.830961 7.76202V9.50712C0.830961 9.73658 0.644944 9.9226 0.41548 9.9226C0.186017 9.9226 0 9.73658 0 9.50712Z" fill="url(#paint1_linear_177_30523)"/>
<path d="M5.81665 8.88392C5.81665 7.62188 4.79356 6.59878 3.53151 6.59878C2.26946 6.59878 1.24637 7.62188 1.24637 8.88392C1.24637 10.146 2.26946 11.1691 3.53151 11.1691V12C1.81053 12 0.415405 10.6049 0.415405 8.88392C0.415405 7.16295 1.81053 5.76782 3.53151 5.76782C5.25248 5.76782 6.64761 7.16295 6.64761 8.88392C6.64761 10.6049 5.25248 12 3.53151 12V11.1691C4.79356 11.1691 5.81665 10.146 5.81665 8.88392Z" fill="url(#paint2_linear_177_30523)"/>
<path d="M13.7109 8.88392C13.7109 7.62188 12.6878 6.59878 11.4258 6.59878C10.1637 6.59878 9.14065 7.62188 9.14065 8.88392C9.14065 10.146 10.1637 11.1691 11.4258 11.1691V12C9.70482 12 8.30969 10.6049 8.30969 8.88392C8.30969 7.16295 9.70482 5.76782 11.4258 5.76782C13.1468 5.76782 14.5419 7.16295 14.5419 8.88392C14.5419 10.6049 13.1468 12 11.4258 12V11.1691C12.6878 11.1691 13.7109 10.146 13.7109 8.88392Z" fill="url(#paint3_linear_177_30523)"/>
<path d="M11.6889 7.42968C12.4184 7.42968 13.0099 8.00881 13.0099 8.7232C13.0099 9.43759 12.6085 9.50708 12.4905 9.50708C12.1329 9.50708 12.3607 8.85789 11.9712 8.46838C11.5816 8.07887 10.8026 8.31331 10.8026 7.94903C10.8026 7.83344 10.9881 7.42968 11.6889 7.42968Z" fill="url(#paint4_linear_177_30523)"/>
<path d="M3.79444 7.42968C4.52401 7.42968 5.11544 8.00881 5.11544 8.7232C5.11544 9.43759 4.71406 9.50708 4.59609 9.50708C4.23854 9.50708 4.46625 8.85789 4.07674 8.46838C3.68723 8.07887 2.9082 8.31331 2.9082 7.94903C2.9082 7.83344 3.09374 7.42968 3.79444 7.42968Z" fill="url(#paint5_linear_177_30523)"/>
<path d="M7.4786 6.75452C8.00436 6.75452 8.50504 6.95328 8.97417 7.30511L8.47591 7.96972C8.1141 7.69836 7.78377 7.58548 7.4786 7.58548C7.17343 7.58548 6.8431 7.69836 6.48128 7.96972L5.98303 7.30511C6.45216 6.95328 6.95283 6.75452 7.4786 6.75452Z" fill="url(#paint6_linear_177_30523)"/>
<defs>
<linearGradient id="paint0_linear_177_30523" x1="11.8411" y1="3" x2="11.8411" y2="9.9226" gradientUnits="userSpaceOnUse">
<stop stop-color="#10808C"/>
<stop offset="1" stop-color="#1DF7EF"/>
</linearGradient>
<linearGradient id="paint1_linear_177_30523" x1="3.11618" y1="3" x2="3.11618" y2="9.9226" gradientUnits="userSpaceOnUse">
<stop stop-color="#10808C"/>
<stop offset="1" stop-color="#1DF7EF"/>
</linearGradient>
<linearGradient id="paint2_linear_177_30523" x1="3.53151" y1="5.76782" x2="3.53151" y2="12" gradientUnits="userSpaceOnUse">
<stop stop-color="#FE5468"/>
<stop offset="1" stop-color="#FFDF27"/>
</linearGradient>
<linearGradient id="paint3_linear_177_30523" x1="11.4258" y1="5.76782" x2="11.4258" y2="12" gradientUnits="userSpaceOnUse">
<stop stop-color="#FE5468"/>
<stop offset="1" stop-color="#FFDF27"/>
</linearGradient>
<linearGradient id="paint4_linear_177_30523" x1="10.8026" y1="8.46838" x2="13.0099" y2="8.46838" gradientUnits="userSpaceOnUse">
<stop stop-color="#10808C"/>
<stop offset="1" stop-color="#1DF7EF"/>
</linearGradient>
<linearGradient id="paint5_linear_177_30523" x1="2.9082" y1="8.46838" x2="5.11544" y2="8.46838" gradientUnits="userSpaceOnUse">
<stop stop-color="#10808C"/>
<stop offset="1" stop-color="#1DF7EF"/>
</linearGradient>
<linearGradient id="paint6_linear_177_30523" x1="7.4786" y1="6.75452" x2="7.4786" y2="7.96972" gradientUnits="userSpaceOnUse">
<stop stop-color="#10808C"/>
<stop offset="1" stop-color="#1DF7EF"/>
</linearGradient>
</defs>
</svg>
