<svg width="15" height="15" viewBox="0 0 15 15" fill="none" xmlns="http://www.w3.org/2000/svg">
<g clip-path="url(#clip0_177_30228)">
<path fill-rule="evenodd" clip-rule="evenodd" d="M7.55681 4.99976C7.91554 4.99976 8.20635 5.29056 8.20635 5.64929V13.701H12.9998C13.3585 13.701 13.6494 13.9918 13.6494 14.3505C13.6494 14.7092 13.3585 15 12.9998 15H1.99994C1.64121 15 1.3504 14.7092 1.3504 14.3505C1.3504 13.9918 1.64121 13.701 1.99994 13.701H6.90728V5.64929C6.90728 5.29056 7.19808 4.99976 7.55681 4.99976Z" fill="url(#paint0_linear_177_30228)"/>
<path fill-rule="evenodd" clip-rule="evenodd" d="M10.9093 8.36938C9.05006 8.41747 7.55762 9.93974 7.55762 11.8106C7.55762 12.0819 7.589 12.3459 7.64834 12.5991C9.50761 12.551 11 11.0287 11 9.15785C11 8.88656 10.9686 8.62257 10.9093 8.36938Z" fill="url(#paint1_linear_177_30228)"/>
</g>
<defs>
<linearGradient id="paint0_linear_177_30228" x1="7.49988" y1="4.99976" x2="7.49988" y2="15" gradientUnits="userSpaceOnUse">
<stop stop-color="#10808C"/>
<stop offset="1" stop-color="#1DF7EF"/>
</linearGradient>
<linearGradient id="paint1_linear_177_30228" x1="9.27881" y1="8.36938" x2="9.27881" y2="12.5991" gradientUnits="userSpaceOnUse">
<stop stop-color="#FE5468"/>
<stop offset="1" stop-color="#FFDF27"/>
</linearGradient>
<clipPath id="clip0_177_30228">
<rect width="15" height="15" fill="white"/>
</clipPath>
</defs>
</svg>
