<svg width="15" height="15" viewBox="0 0 15 15" fill="none" xmlns="http://www.w3.org/2000/svg">
<path d="M1 0.321429C1 0.143909 1.14551 0 1.325 0H3.70833C3.88783 0 4.03333 0.143909 4.03333 0.321429V2.67857C4.03333 2.85609 3.88783 3 3.70833 3H1.325C1.14551 3 1 2.85609 1 2.67857V0.321429Z" fill="url(#paint0_linear_10760_37409)"/>
<path d="M5.68839 0.201685C5.80471 -0.0468765 6.16196 -0.0468762 6.27828 0.201685L6.45847 0.586736C6.50582 0.687915 6.6028 0.757601 6.71473 0.770872L7.14068 0.821375C7.41565 0.853976 7.52604 1.19 7.32297 1.37622L7.00837 1.6647C6.92571 1.7405 6.88867 1.85326 6.91049 1.96264L6.99356 2.3789C7.04718 2.64761 6.75816 2.85529 6.51633 2.72182L6.14171 2.51505C6.04327 2.46072 5.9234 2.46072 5.82496 2.51505L5.45034 2.72182C5.20851 2.85529 4.91949 2.64761 4.97311 2.3789L5.05617 1.96264C5.078 1.85326 5.04096 1.7405 4.95829 1.6647L4.6437 1.37622C4.44062 1.19 4.55102 0.853976 4.82598 0.821375L5.25194 0.770872C5.36387 0.757601 5.46085 0.687915 5.5082 0.586736L5.68839 0.201685Z" fill="url(#paint1_linear_10760_37409)"/>
<path d="M14 1.5C14 2.32843 13.321 3 12.4833 3C11.6457 3 10.9667 2.32843 10.9667 1.5C10.9667 0.671573 11.6457 0 12.4833 0C13.321 0 14 0.671573 14 1.5Z" fill="url(#paint2_linear_10760_37409)"/>
<path d="M8.81026 0.353571C8.902 0.196429 9.13134 0.196429 9.22307 0.353571L10.499 2.53929C10.5907 2.69643 10.4761 2.89286 10.2926 2.89286H7.74072C7.55725 2.89286 7.44259 2.69643 7.53432 2.53929L8.81026 0.353571Z" fill="url(#paint3_linear_10760_37409)"/>
<path d="M4 11C4 11.5523 3.55228 12 3 12C2.44772 12 2 11.5523 2 11C2 10.4477 2.44772 10 3 10C3.55228 10 4 10.4477 4 11Z" fill="url(#paint4_linear_10760_37409)"/>
<path d="M7 11C7 11.5523 6.55228 12 6 12C5.44772 12 5 11.5523 5 11C5 10.4477 5.44772 10 6 10C6.55228 10 7 10.4477 7 11Z" fill="url(#paint5_linear_10760_37409)"/>
<path d="M10 11C10 11.5523 9.55228 12 9 12C8.44772 12 8 11.5523 8 11C8 10.4477 8.44772 10 9 10C9.55228 10 10 10.4477 10 11Z" fill="url(#paint6_linear_10760_37409)"/>
<path d="M13 11C13 11.5523 12.5523 12 12 12C11.4477 12 11 11.5523 11 11C11 10.4477 11.4477 10 12 10C12.5523 10 13 10.4477 13 11Z" fill="url(#paint7_linear_10760_37409)"/>
<path d="M13 14C13 14.5523 12.5523 15 12 15C11.4477 15 11 14.5523 11 14C11 13.4477 11.4477 13 12 13C12.5523 13 13 13.4477 13 14Z" fill="url(#paint8_linear_10760_37409)"/>
<path d="M10 14C10 14.5523 9.55228 15 9 15C8.44772 15 8 14.5523 8 14C8 13.4477 8.44772 13 9 13C9.55228 13 10 13.4477 10 14Z" fill="url(#paint9_linear_10760_37409)"/>
<path d="M7 14C7 14.5523 6.55228 15 6 15C5.44772 15 5 14.5523 5 14C5 13.4477 5.44772 13 6 13C6.55228 13 7 13.4477 7 14Z" fill="url(#paint10_linear_10760_37409)"/>
<path d="M4 14C4 14.5523 3.55228 15 3 15C2.44772 15 2 14.5523 2 14C2 13.4477 2.44772 13 3 13C3.55228 13 4 13.4477 4 14Z" fill="url(#paint11_linear_10760_37409)"/>
<path d="M7.99999 4.25C7.99999 4.11193 7.88806 4 7.74999 4H7.24999C7.11192 4 6.99999 4.11193 6.99999 4.25V6.75C6.99999 6.88807 6.88806 7 6.74999 7H6.4045C6.21865 7 6.09778 7.19558 6.18089 7.3618L7.27638 9.55279C7.36851 9.73705 7.63146 9.73705 7.7236 9.55279L8.81909 7.3618C8.9022 7.19558 8.78133 7 8.59548 7H8.24999C8.11192 7 7.99999 6.88807 7.99999 6.75V4.25Z" fill="url(#paint12_linear_10760_37409)"/>
<defs>
<linearGradient id="paint0_linear_10760_37409" x1="7.5" y1="0" x2="8.18437" y2="4.16935" gradientUnits="userSpaceOnUse">
<stop stop-color="#FE5468"/>
<stop offset="1" stop-color="#FFDF27"/>
</linearGradient>
<linearGradient id="paint1_linear_10760_37409" x1="7.5" y1="0" x2="7.5" y2="3" gradientUnits="userSpaceOnUse">
<stop stop-color="#10808C"/>
<stop offset="1" stop-color="#1DF7EF"/>
</linearGradient>
<linearGradient id="paint2_linear_10760_37409" x1="7.5" y1="0" x2="8.18437" y2="4.16935" gradientUnits="userSpaceOnUse">
<stop stop-color="#FE5468"/>
<stop offset="1" stop-color="#FFDF27"/>
</linearGradient>
<linearGradient id="paint3_linear_10760_37409" x1="7.5" y1="0" x2="7.5" y2="3" gradientUnits="userSpaceOnUse">
<stop stop-color="#10808C"/>
<stop offset="1" stop-color="#1DF7EF"/>
</linearGradient>
<linearGradient id="paint4_linear_10760_37409" x1="3" y1="10" x2="4.34823" y2="11.8955" gradientUnits="userSpaceOnUse">
<stop stop-color="#FE5468"/>
<stop offset="1" stop-color="#FFDF27"/>
</linearGradient>
<linearGradient id="paint5_linear_10760_37409" x1="6" y1="10" x2="7.34823" y2="11.8955" gradientUnits="userSpaceOnUse">
<stop stop-color="#FE5468"/>
<stop offset="1" stop-color="#FFDF27"/>
</linearGradient>
<linearGradient id="paint6_linear_10760_37409" x1="9" y1="10" x2="10.3482" y2="11.8955" gradientUnits="userSpaceOnUse">
<stop stop-color="#FE5468"/>
<stop offset="1" stop-color="#FFDF27"/>
</linearGradient>
<linearGradient id="paint7_linear_10760_37409" x1="12" y1="10" x2="13.3482" y2="11.8955" gradientUnits="userSpaceOnUse">
<stop stop-color="#FE5468"/>
<stop offset="1" stop-color="#FFDF27"/>
</linearGradient>
<linearGradient id="paint8_linear_10760_37409" x1="12" y1="13" x2="13.3482" y2="14.8955" gradientUnits="userSpaceOnUse">
<stop stop-color="#FE5468"/>
<stop offset="1" stop-color="#FFDF27"/>
</linearGradient>
<linearGradient id="paint9_linear_10760_37409" x1="9" y1="13" x2="10.3482" y2="14.8955" gradientUnits="userSpaceOnUse">
<stop stop-color="#FE5468"/>
<stop offset="1" stop-color="#FFDF27"/>
</linearGradient>
<linearGradient id="paint10_linear_10760_37409" x1="6" y1="13" x2="7.34823" y2="14.8955" gradientUnits="userSpaceOnUse">
<stop stop-color="#FE5468"/>
<stop offset="1" stop-color="#FFDF27"/>
</linearGradient>
<linearGradient id="paint11_linear_10760_37409" x1="3" y1="13" x2="4.34823" y2="14.8955" gradientUnits="userSpaceOnUse">
<stop stop-color="#FE5468"/>
<stop offset="1" stop-color="#FFDF27"/>
</linearGradient>
<linearGradient id="paint12_linear_10760_37409" x1="7.49999" y1="4" x2="7.49999" y2="9.69098" gradientUnits="userSpaceOnUse">
<stop stop-color="#10808C"/>
<stop offset="1" stop-color="#1DF7EF"/>
</linearGradient>
</defs>
</svg>
