<svg width="24" height="24" viewBox="0 0 24 24" fill="none" xmlns="http://www.w3.org/2000/svg">
<g clip-path="url(#clip0_3218_87926)">
<path fill-rule="evenodd" clip-rule="evenodd" d="M9 0C9.55228 0 10 0.447715 10 1V4C10 4.55228 9.55228 5 9 5C8.44772 5 8 4.55228 8 4V1C8 0.447715 8.44772 0 9 0Z" fill="url(#paint0_linear_3218_87926)"/>
<path fill-rule="evenodd" clip-rule="evenodd" d="M15 0C15.5523 0 16 0.447715 16 1V4C16 4.55228 15.5523 5 15 5C14.4477 5 14 4.55228 14 4V1C14 0.447715 14.4477 0 15 0Z" fill="url(#paint1_linear_3218_87926)"/>
<path fill-rule="evenodd" clip-rule="evenodd" d="M9 19C9.55228 19 10 19.4477 10 20V23C10 23.5523 9.55228 24 9 24C8.44772 24 8 23.5523 8 23V20C8 19.4477 8.44772 19 9 19Z" fill="url(#paint2_linear_3218_87926)"/>
<path fill-rule="evenodd" clip-rule="evenodd" d="M15 19C15.5523 19 16 19.4477 16 20V23C16 23.5523 15.5523 24 15 24C14.4477 24 14 23.5523 14 23V20C14 19.4477 14.4477 19 15 19Z" fill="url(#paint3_linear_3218_87926)"/>
<path fill-rule="evenodd" clip-rule="evenodd" d="M19 9C19 8.44772 19.4477 8 20 8H23C23.5523 8 24 8.44772 24 9C24 9.55228 23.5523 10 23 10H20C19.4477 10 19 9.55228 19 9Z" fill="url(#paint4_linear_3218_87926)"/>
<path fill-rule="evenodd" clip-rule="evenodd" d="M19 15C19 14.4477 19.4477 14 20 14H23C23.5523 14 24 14.4477 24 15C24 15.5523 23.5523 16 23 16H20C19.4477 16 19 15.5523 19 15Z" fill="url(#paint5_linear_3218_87926)"/>
<path fill-rule="evenodd" clip-rule="evenodd" d="M0 9C0 8.44772 0.447715 8 1 8H4C4.55228 8 5 8.44772 5 9C5 9.55228 4.55228 10 4 10H1C0.447715 10 0 9.55228 0 9Z" fill="url(#paint6_linear_3218_87926)"/>
<path fill-rule="evenodd" clip-rule="evenodd" d="M0 15C0 14.4477 0.447715 14 1 14H4C4.55228 14 5 14.4477 5 15C5 15.5523 4.55228 16 4 16H1C0.447715 16 0 15.5523 0 15Z" fill="url(#paint7_linear_3218_87926)"/>
<path fill-rule="evenodd" clip-rule="evenodd" d="M6 5C5.44772 5 5 5.44772 5 6V18C5 18.5523 5.44772 19 6 19H18C18.5523 19 19 18.5523 19 18V6C19 5.44772 18.5523 5 18 5H6ZM3 6C3 4.34315 4.34315 3 6 3H18C19.6569 3 21 4.34315 21 6V18C21 19.6569 19.6569 21 18 21H6C4.34315 21 3 19.6569 3 18V6Z" fill="url(#paint8_linear_3218_87926)"/>
<path fill-rule="evenodd" clip-rule="evenodd" d="M8 9C8 8.44772 8.44772 8 9 8H15C15.5523 8 16 8.44772 16 9V15C16 15.5523 15.5523 16 15 16H9C8.44772 16 8 15.5523 8 15V9ZM10 10V14H14V10H10Z" fill="url(#paint9_linear_3218_87926)"/>
</g>
<defs>
<linearGradient id="paint0_linear_3218_87926" x1="9" y1="0" x2="9" y2="5" gradientUnits="userSpaceOnUse">
<stop stop-color="#FE5468"/>
<stop offset="1" stop-color="#FFDF27"/>
</linearGradient>
<linearGradient id="paint1_linear_3218_87926" x1="15" y1="0" x2="15" y2="5" gradientUnits="userSpaceOnUse">
<stop stop-color="#FE5468"/>
<stop offset="1" stop-color="#FFDF27"/>
</linearGradient>
<linearGradient id="paint2_linear_3218_87926" x1="9" y1="19" x2="9" y2="24" gradientUnits="userSpaceOnUse">
<stop stop-color="#FE5468"/>
<stop offset="1" stop-color="#FFDF27"/>
</linearGradient>
<linearGradient id="paint3_linear_3218_87926" x1="15" y1="19" x2="15" y2="24" gradientUnits="userSpaceOnUse">
<stop stop-color="#FE5468"/>
<stop offset="1" stop-color="#FFDF27"/>
</linearGradient>
<linearGradient id="paint4_linear_3218_87926" x1="21.5" y1="8" x2="21.5" y2="10" gradientUnits="userSpaceOnUse">
<stop stop-color="#FE5468"/>
<stop offset="1" stop-color="#FFDF27"/>
</linearGradient>
<linearGradient id="paint5_linear_3218_87926" x1="21.5" y1="14" x2="21.5" y2="16" gradientUnits="userSpaceOnUse">
<stop stop-color="#FE5468"/>
<stop offset="1" stop-color="#FFDF27"/>
</linearGradient>
<linearGradient id="paint6_linear_3218_87926" x1="2.5" y1="8" x2="2.5" y2="10" gradientUnits="userSpaceOnUse">
<stop stop-color="#FE5468"/>
<stop offset="1" stop-color="#FFDF27"/>
</linearGradient>
<linearGradient id="paint7_linear_3218_87926" x1="2.5" y1="14" x2="2.5" y2="16" gradientUnits="userSpaceOnUse">
<stop stop-color="#FE5468"/>
<stop offset="1" stop-color="#FFDF27"/>
</linearGradient>
<linearGradient id="paint8_linear_3218_87926" x1="12" y1="3" x2="12" y2="21" gradientUnits="userSpaceOnUse">
<stop stop-color="#10808C"/>
<stop offset="1" stop-color="#1DF7EF"/>
</linearGradient>
<linearGradient id="paint9_linear_3218_87926" x1="12" y1="8" x2="12" y2="16" gradientUnits="userSpaceOnUse">
<stop stop-color="#FE5468"/>
<stop offset="1" stop-color="#FFDF27"/>
</linearGradient>
<clipPath id="clip0_3218_87926">
<rect width="24" height="24" fill="white"/>
</clipPath>
</defs>
</svg>
