<svg width="24" height="24" viewBox="0 0 24 24" fill="none" xmlns="http://www.w3.org/2000/svg">
<g clip-path="url(#clip0_3218_86899)">
<path fill-rule="evenodd" clip-rule="evenodd" d="M3.29972 7.72153L0.276156 4.6719C-0.0920525 4.30061 -0.0920525 3.69862 0.276156 3.32732L3.29972 0.278472C3.66793 -0.0928249 4.26491 -0.0928249 4.63312 0.278472C5.00133 0.649768 5.00133 1.25176 4.63312 1.62306L3.21911 3.04885L10.5 3.0488C10.7761 3.04879 11 3.27265 11 3.5488V4.45032C11 4.72647 10.7761 4.95032 10.5 4.95032L3.21911 4.95037L4.63312 6.37694C5.00133 6.74824 5.00133 7.35023 4.63312 7.72153C4.26491 8.09282 3.66793 8.09282 3.29972 7.72153Z" fill="url(#paint0_linear_3218_86899)"/>
<path fill-rule="evenodd" clip-rule="evenodd" d="M20.7003 16.2785L23.7238 19.3281C24.0921 19.6994 24.0921 20.3014 23.7238 20.6727L20.7003 23.7215C20.3321 24.0928 19.7351 24.0928 19.3669 23.7215C18.9987 23.3502 18.9987 22.7482 19.3669 22.3769L20.7809 20.9512L13.5 20.9512C13.2239 20.9512 13 20.7274 13 20.4512V19.5497C13 19.2736 13.2239 19.0497 13.5 19.0497L20.7809 19.0496L19.3669 17.6231C18.9987 17.2518 18.9987 16.6498 19.3669 16.2785C19.7351 15.9072 20.3321 15.9072 20.7003 16.2785Z" fill="url(#paint1_linear_3218_86899)"/>
<path fill-rule="evenodd" clip-rule="evenodd" d="M8.30901 8.67797C8.30901 8.30354 8.58452 8 8.92439 8H15.0782C15.4181 8 15.6936 8.30354 15.6936 8.67797C15.6936 9.0524 15.4181 9.35593 15.0782 9.35593H8.92439C8.58452 9.35593 8.30901 9.0524 8.30901 8.67797ZM8.92439 12.0678C8.92439 11.6934 9.19991 11.3898 9.53978 11.3898H14.4629C14.8027 11.3898 15.0782 11.6934 15.0782 12.0678C15.0782 12.4422 14.8027 12.7458 14.4629 12.7458H9.53978C9.19991 12.7458 8.92439 12.4422 8.92439 12.0678ZM8 15.322C8 14.9476 8.27552 14.6441 8.61538 14.6441H15.3846C15.7245 14.6441 16 14.9476 16 15.322C16 15.6965 15.7245 16 15.3846 16H8.61538C8.27552 16 8 15.6965 8 15.322Z" fill="url(#paint2_linear_3218_86899)"/>
<path d="M3.33878 9.53541C3.11809 10.3189 3 11.1456 3 12C3 16.714 6.59468 20.5849 11.1818 21V19.3487C7.50004 18.94 4.63636 15.8058 4.63636 12C4.63636 11.1358 4.78401 10.3063 5.05537 9.53541H3.33878Z" fill="url(#paint3_linear_3218_86899)"/>
<path d="M12.8182 4.65135V3C17.4053 3.41506 21 7.28602 21 12C21 12.8544 20.8819 13.6811 20.6612 14.4646H18.9446C19.216 13.6937 19.3636 12.8642 19.3636 12C19.3636 8.19421 16.5 5.06001 12.8182 4.65135Z" fill="url(#paint4_linear_3218_86899)"/>
</g>
<defs>
<linearGradient id="paint0_linear_3218_86899" x1="5.5" y1="8" x2="5.5" y2="0" gradientUnits="userSpaceOnUse">
<stop stop-color="#FE5468"/>
<stop offset="1" stop-color="#FFDF27"/>
</linearGradient>
<linearGradient id="paint1_linear_3218_86899" x1="18.5" y1="16" x2="18.5" y2="24" gradientUnits="userSpaceOnUse">
<stop stop-color="#FE5468"/>
<stop offset="1" stop-color="#FFDF27"/>
</linearGradient>
<linearGradient id="paint2_linear_3218_86899" x1="12" y1="8" x2="12" y2="16" gradientUnits="userSpaceOnUse">
<stop stop-color="#FE5468"/>
<stop offset="1" stop-color="#FFDF27"/>
</linearGradient>
<linearGradient id="paint3_linear_3218_86899" x1="12" y1="3" x2="12" y2="21" gradientUnits="userSpaceOnUse">
<stop stop-color="#10808C"/>
<stop offset="1" stop-color="#1DF7EF"/>
</linearGradient>
<linearGradient id="paint4_linear_3218_86899" x1="12" y1="3" x2="12" y2="21" gradientUnits="userSpaceOnUse">
<stop stop-color="#10808C"/>
<stop offset="1" stop-color="#1DF7EF"/>
</linearGradient>
<clipPath id="clip0_3218_86899">
<rect width="24" height="24" fill="white"/>
</clipPath>
</defs>
</svg>
