<svg width="24" height="24" viewBox="0 0 24 24" fill="none" xmlns="http://www.w3.org/2000/svg">
<g clip-path="url(#clip0_3218_86915)">
<path fill-rule="evenodd" clip-rule="evenodd" d="M17.3529 0.117022C16.8782 -0.0184918 16.3826 -0.0365449 15.901 0.0640883L2.7378 2.59838L2.72241 2.60147C1.95628 2.76376 1.26511 3.21815 0.768123 3.88627C0.271249 4.55423 -0.000398457 5.39422 4.38689e-07 6.26094V10C4.38689e-07 10 0.5 9 1.62396 8.5L1.64391 8.03401C1.64391 7.04225 2.37991 6.23826 3.28781 6.23826H19.532C20.4399 6.23826 21.1759 7.04225 21.1759 8.03401V9.5H17.3529C16.9383 9.5 16.5486 9.61677 16.21 9.82186C16.4199 10.1884 16.5923 10.5792 16.7219 10.989C16.9044 10.8626 17.1208 10.7895 17.3528 10.7895H21.1758V14.6572H17.3528C17.137 14.6572 16.9347 14.5939 16.7606 14.4834C16.6401 14.8965 16.4763 15.2911 16.2746 15.6621C16.5978 15.8437 16.9644 15.9463 17.3529 15.9463H21.1759V18.8085C21.1759 19.8003 20.4399 20.6043 19.532 20.6043H19C19 20.6043 19.5 21.5 18.5 22.4H19.532C21.3478 22.4 22.8198 20.792 22.8198 18.8085V15.6013C23.5253 15.1555 24 14.3222 24 13.3678V12.0785C24 11.1241 23.5253 10.2908 22.8198 9.84496V8.03401C22.8198 6.17485 21.5266 4.64563 19.8692 4.46118V3.7219C19.869 3.17402 19.7601 2.63292 19.5501 2.13722C19.3402 1.64152 19.0344 1.20345 18.6546 0.854239C18.2748 0.505032 17.8303 0.253306 17.3529 0.117022ZM18.2454 3.72203V4.44206H3.28796C3.06397 4.44206 2.8452 4.46653 2.63379 4.51316C2.7563 4.45107 2.88571 4.40474 3.01962 4.37574L16.1969 1.83859C16.4463 1.78576 16.7032 1.79476 16.9491 1.86497C17.195 1.93518 17.424 2.06486 17.6197 2.24475C17.8153 2.42464 17.9728 2.65032 18.081 2.90568C18.081 2.90568 18.2454 3.28125 18.2454 3.72203Z" fill="url(#paint0_linear_3218_86915)"/>
<path fill-rule="evenodd" clip-rule="evenodd" d="M15 12.6306C15 10.6255 13.3752 9 11.3709 9C10.2255 9 9.2042 9.53095 8.53938 10.3594C7.63261 9.51611 6.41678 9 5.0808 9C2.27475 9 0 11.2756 0 14.0828C0 16.8899 2.27475 19.1656 5.0808 19.1656C5.54599 19.1656 5.99655 19.1031 6.42455 18.9859C6.03602 19.5094 5.80616 20.1578 5.80616 20.8599C5.80616 22.5299 7.10678 23.8961 8.75 24V22.5423C7.9096 22.4426 7.25782 21.7274 7.25782 20.8599C7.25782 19.9241 8.01607 19.1656 8.95142 19.1656C9.08229 19.1656 9.20969 19.1804 9.33203 19.2085H11.6292C11.0752 18.3113 10.0831 17.7134 8.95142 17.7134C8.83906 17.7134 8.72807 17.7193 8.61875 17.7308C9.14092 17.2238 9.55457 16.6057 9.82158 15.9146C10.2916 16.1369 10.817 16.2611 11.3709 16.2611C13.3752 16.2611 15 14.6357 15 12.6306ZM11.3709 10.4522C12.5734 10.4522 13.5483 11.4275 13.5483 12.6306C13.5483 13.8336 12.5734 14.8089 11.3709 14.8089C10.1683 14.8089 9.19337 13.8336 9.19337 12.6306C9.19337 11.4275 10.1683 10.4522 11.3709 10.4522ZM7.05802 11.0376C6.87456 11.5346 6.77441 12.0716 6.77441 12.6306C6.77441 13.9375 7.31991 15.1164 8.19267 15.9525C7.55715 17.0086 6.40029 17.7134 5.0808 17.7134C3.07648 17.7134 1.45166 16.0879 1.45166 14.0828C1.45166 12.0777 3.07648 10.4522 5.0808 10.4522C5.81081 10.4522 6.48917 10.667 7.05802 11.0376Z" fill="url(#paint1_linear_3218_86915)"/>
<path fill-rule="evenodd" clip-rule="evenodd" d="M14 17.35C14.3945 17.35 14.7143 17.6573 14.7143 18.0363V20.5069H17.2857C17.6802 20.5069 18 20.8141 18 21.1931C18 21.5722 17.6802 21.8794 17.2857 21.8794H14.7143V24.0004L13.2857 24.0004V21.8794H10.7143C10.3198 21.8794 10 21.5722 10 21.1931C10 20.8141 10.3198 20.5069 10.7143 20.5069H13.2857V18.0363C13.2857 17.6573 13.6055 17.35 14 17.35Z" fill="url(#paint2_linear_3218_86915)"/>
</g>
<defs>
<linearGradient id="paint0_linear_3218_86915" x1="12" y1="0" x2="12" y2="22.4" gradientUnits="userSpaceOnUse">
<stop stop-color="#10808C"/>
<stop offset="1" stop-color="#1DF7EF"/>
</linearGradient>
<linearGradient id="paint1_linear_3218_86915" x1="7.5" y1="9" x2="7.5" y2="24" gradientUnits="userSpaceOnUse">
<stop stop-color="#FE5468"/>
<stop offset="1" stop-color="#FFDF27"/>
</linearGradient>
<linearGradient id="paint2_linear_3218_86915" x1="14" y1="17.35" x2="14" y2="24.0004" gradientUnits="userSpaceOnUse">
<stop stop-color="#10808C"/>
<stop offset="1" stop-color="#1DF7EF"/>
</linearGradient>
<clipPath id="clip0_3218_86915">
<rect width="24" height="24" fill="white"/>
</clipPath>
</defs>
</svg>
