<svg width="15" height="15" viewBox="0 0 15 15" fill="none" xmlns="http://www.w3.org/2000/svg">
<path fill-rule="evenodd" clip-rule="evenodd" d="M0.976311 9.09835C1.60143 8.39509 2.44928 8 3.33333 8H7C7.88406 8 8.7319 8.39509 9.35702 9.09835C9.98214 9.80161 10.3333 10.7554 10.3333 11.75V13.25C10.3333 13.6642 10.0349 14 9.66667 14C9.29848 14 9 13.6642 9 13.25V11.75C9 11.1533 8.78929 10.581 8.41421 10.159C8.03914 9.73705 7.53043 9.5 7 9.5H3.33333C2.8029 9.5 2.29419 9.73705 1.91912 10.159C1.54405 10.581 1.33333 11.1533 1.33333 11.75V13.25C1.33333 13.6642 1.03486 14 0.666667 14C0.298477 14 0 13.6642 0 13.25V11.75C0 10.7554 0.35119 9.80161 0.976311 9.09835Z" fill="url(#paint0_linear_11105_37367)"/>
<path fill-rule="evenodd" clip-rule="evenodd" d="M5 2.2C4.00589 2.2 3.2 3.00589 3.2 4C3.2 4.99411 4.00589 5.8 5 5.8C5.99411 5.8 6.8 4.99411 6.8 4C6.8 3.00589 5.99411 2.2 5 2.2ZM2 4C2 2.34315 3.34315 1 5 1C6.65685 1 8 2.34315 8 4C8 5.65685 6.65685 7 5 7C3.34315 7 2 5.65685 2 4Z" fill="url(#paint1_linear_11105_37367)"/>
<path fill-rule="evenodd" clip-rule="evenodd" d="M11.0256 8.57196C11.136 8.16429 11.5724 7.91913 12.0001 8.02439C12.8582 8.23554 13.6184 8.71229 14.1614 9.3798C14.7044 10.0473 14.9993 10.8678 15 11.7123L15 13.2376C15 13.6587 14.6418 14 14.2 14C13.7582 14 13.4001 13.6587 13.4001 13.2376L13.4001 11.7135C13.4001 11.7134 13.4001 11.7135 13.4001 11.7135C13.3996 11.2068 13.2227 10.7144 12.8969 10.3139C12.5711 9.91345 12.115 9.62739 11.6002 9.50071C11.1724 9.39545 10.9151 8.97963 11.0256 8.57196Z" fill="url(#paint2_linear_11105_37367)"/>
<path d="M8.80814 5.91934C8.52899 6.19849 8.57028 6.66762 8.93957 6.80719C9.26927 6.93181 9.62668 7 10 7C11.6569 7 13 5.65685 13 4C13 2.34315 11.6569 1 10 1C9.46558 1 8.96379 1.13974 8.52919 1.38469C8.22307 1.55722 8.21297 1.96986 8.46144 2.21834C8.68434 2.44123 9.038 2.44589 9.33058 2.3286C9.53751 2.24564 9.76343 2.2 10 2.2C10.9941 2.2 11.8 3.00589 11.8 4C11.8 4.99411 10.9941 5.8 10 5.8C9.85755 5.8 9.71896 5.78345 9.58605 5.75217C9.31196 5.68766 9.00725 5.72023 8.80814 5.91934Z" fill="url(#paint3_linear_11105_37367)"/>
<defs>
<linearGradient id="paint0_linear_11105_37367" x1="5.16667" y1="8" x2="5.16667" y2="14" gradientUnits="userSpaceOnUse">
<stop stop-color="#10808C"/>
<stop offset="1" stop-color="#1DF7EF"/>
</linearGradient>
<linearGradient id="paint1_linear_11105_37367" x1="5" y1="1" x2="5" y2="7" gradientUnits="userSpaceOnUse">
<stop stop-color="#10808C"/>
<stop offset="1" stop-color="#1DF7EF"/>
</linearGradient>
<linearGradient id="paint2_linear_11105_37367" x1="13" y1="8" x2="17.2727" y2="12.0047" gradientUnits="userSpaceOnUse">
<stop stop-color="#FE5468"/>
<stop offset="1" stop-color="#FFDF27"/>
</linearGradient>
<linearGradient id="paint3_linear_11105_37367" x1="10.6432" y1="1" x2="14.9038" y2="5.70584" gradientUnits="userSpaceOnUse">
<stop stop-color="#FE5468"/>
<stop offset="1" stop-color="#FFDF27"/>
</linearGradient>
</defs>
</svg>
