<svg width="24" height="24" viewBox="0 0 24 24" fill="none" xmlns="http://www.w3.org/2000/svg">
<g clip-path="url(#clip0_3218_86988)">
<path fill-rule="evenodd" clip-rule="evenodd" d="M10 1.48454C8.24058 1.48454 6.6267 1.65458 5.43381 1.93915C4.84235 2.08025 4.31789 2.25792 3.92565 2.47864C3.57758 2.67451 3.11688 3.02917 3.11688 3.58763C3.11688 4.14609 3.57758 4.50075 3.92565 4.69662C4.31789 4.91734 4.84235 5.09501 5.43381 5.23611C6.6267 5.52068 8.24058 5.69072 10 5.69072C11.7594 5.69072 13.3733 5.52068 14.5662 5.23611C15.1577 5.09501 15.6821 4.91734 16.0743 4.69662C16.4224 4.50075 16.8831 4.14609 16.8831 3.58763C16.8831 3.02917 16.4224 2.67451 16.0743 2.47864C15.6821 2.25792 15.1577 2.08025 14.5662 1.93915C13.3733 1.65458 11.7594 1.48454 10 1.48454ZM4.3937 3.68354C4.39361 3.68353 4.39421 3.68254 4.39574 3.68059L4.3937 3.68354ZM4.5862 3.54378C4.55799 3.55965 4.53372 3.57429 4.51288 3.58763C4.53372 3.60097 4.55799 3.6156 4.5862 3.63147C4.82465 3.76565 5.21285 3.90808 5.74931 4.03606C6.81226 4.28963 8.31527 4.45361 10 4.45361C11.6847 4.45361 13.1877 4.28963 14.2507 4.03606C14.7872 3.90808 15.1754 3.76565 15.4138 3.63147C15.442 3.6156 15.4663 3.60097 15.4871 3.58763C15.4663 3.57429 15.442 3.55965 15.4138 3.54378C15.1754 3.4096 14.7872 3.26718 14.2507 3.1392C13.1877 2.88563 11.6847 2.72165 10 2.72165C8.31527 2.72165 6.81226 2.88563 5.74931 3.1392C5.21285 3.26718 4.82465 3.4096 4.5862 3.54378ZM15.6063 3.68354C15.6064 3.68354 15.6067 3.68416 15.6063 3.68354V3.68354ZM15.6043 3.49466L15.6063 3.49171C15.6064 3.49172 15.6058 3.49272 15.6043 3.49466ZM4.39574 3.49467C4.39421 3.49272 4.39361 3.49172 4.3937 3.49171L4.39574 3.49467Z" fill="url(#paint0_linear_3218_86988)"/>
<path fill-rule="evenodd" clip-rule="evenodd" d="M10 0C7.36999 0 4.95979 0.339691 3.1847 0.903975C2.30057 1.18503 1.5382 1.53298 0.983511 1.94863C0.43672 2.35835 0 2.90756 0 3.58763V6.5567C0 7.23677 0.43672 7.78598 0.983511 8.1957C1.5382 8.61135 2.30057 8.9593 3.1847 9.24036C4.95979 9.80464 7.36999 10.1443 10 10.1443C12.63 10.1443 15.0402 9.80464 16.8153 9.24036C17.6994 8.9593 18.4618 8.61135 19.0165 8.1957C19.5633 7.78598 20 7.23677 20 6.5567V3.58763C20 2.90756 19.5633 2.35835 19.0165 1.94863C18.4618 1.53298 17.6994 1.18503 16.8153 0.903975C15.0402 0.339691 12.63 0 10 0ZM1.2987 3.58763C1.2987 3.4512 1.38601 3.22103 1.78646 2.92096C2.179 2.62681 2.7871 2.33455 3.59582 2.07747C5.20645 1.56546 7.47157 1.23711 10 1.23711C12.5284 1.23711 14.7936 1.56546 16.4042 2.07747C17.2129 2.33455 17.821 2.62681 18.2135 2.92096C18.614 3.22103 18.7013 3.4512 18.7013 3.58763V6.5567C18.7013 6.69313 18.614 6.9233 18.2135 7.22337C17.821 7.51752 17.2129 7.80978 16.4042 8.06686C14.7936 8.57887 12.5284 8.90722 10 8.90722C7.47157 8.90722 5.20645 8.57887 3.59582 8.06686C2.7871 7.80978 2.179 7.51752 1.78646 7.22337C1.38601 6.9233 1.2987 6.69313 1.2987 6.5567V3.58763Z" fill="url(#paint1_linear_3218_86988)"/>
<path d="M1.48887 9.39305L0.993642 8.78753L0.477778 9.37721C0.354258 9.5184 0.265955 9.66977 0.208814 9.77863C0.120472 9.94694 0 10.2026 0 10.5155V13.4845C0 14.1646 0.43672 14.7138 0.983511 15.1235C1.5382 15.5392 2.30057 15.8871 3.1847 16.1682C4.92565 16.7216 7.27752 17.059 9.84851 17.0718C9.6898 16.7693 9.6 16.4249 9.6 16.0596V15.8323C7.23315 15.7997 5.12103 15.4795 3.59582 14.9947C2.7871 14.7376 2.179 14.4454 1.78646 14.1512C1.38601 13.8511 1.2987 13.621 1.2987 13.4845V10.8667C1.49198 10.9899 1.70106 11.1046 1.92154 11.2112C2.52827 11.5048 3.2616 11.7571 4.08387 11.9635C5.72873 12.3764 7.7803 12.6186 10 12.6186C12.2197 12.6186 14.2713 12.3764 15.9161 11.9635C16.1869 11.8955 16.448 11.8226 16.6981 11.7448C16.7493 11.1677 16.9846 10.6039 17.4039 10.1493C16.914 10.3771 16.3019 10.5873 15.5852 10.7672C14.0664 11.1485 12.1284 11.3814 10 11.3814C7.87165 11.3814 5.93361 11.1485 4.41483 10.7672C3.65529 10.5765 3.01329 10.3519 2.50963 10.1082C1.99872 9.86106 1.66849 9.61267 1.48887 9.39305Z" fill="url(#paint2_linear_3218_86988)"/>
<path d="M11.9644 18.2414C11.3337 18.2857 10.6765 18.3093 10 18.3093C7.87165 18.3093 5.93361 18.0764 4.41483 17.6951C3.65529 17.5044 3.01329 17.2798 2.50963 17.0361C1.99872 16.7889 1.66849 16.5405 1.48887 16.3209L0.966815 15.6826L0.457143 16.3299C0.248165 16.5953 0 16.9838 0 17.4433V20.4124C0 21.0924 0.43672 21.6416 0.983511 22.0514C1.5382 22.467 2.30057 22.815 3.1847 23.096C4.95979 23.6603 7.36999 24 10 24C12.63 24 15.0402 23.6603 16.8153 23.096C17.6994 22.815 18.4618 22.467 19.0165 22.0514C19.126 21.9693 19.2311 21.8817 19.3291 21.7885C18.8125 21.7779 18.2983 21.6193 17.8552 21.3125C17.4836 21.526 16.998 21.7338 16.4042 21.9225C14.7936 22.4345 12.5284 22.7629 10 22.7629C7.47157 22.7629 5.20645 22.4345 3.59582 21.9225C2.7871 21.6654 2.179 21.3732 1.78646 21.079C1.38601 20.779 1.2987 20.5488 1.2987 20.4124V17.7946C1.49198 17.9177 1.70106 18.0324 1.92154 18.1391C2.52827 18.4326 3.2616 18.6849 4.08387 18.8913C5.72873 19.3043 7.7803 19.5464 10 19.5464C12.2197 19.5464 14.2713 19.3043 15.9161 18.8913C16.1946 18.8214 16.4628 18.7463 16.7194 18.666C16.7415 18.5225 16.7752 18.3805 16.8204 18.2413L11.9644 18.2414Z" fill="url(#paint3_linear_3218_86988)"/>
<circle cx="4.53385" cy="6.66667" r="0.666667" fill="url(#paint4_linear_3218_86988)"/>
<circle cx="4.53385" cy="13.3339" r="0.666667" fill="url(#paint5_linear_3218_86988)"/>
<circle cx="4.53385" cy="19.9995" r="0.666667" fill="url(#paint6_linear_3218_86988)"/>
<path fill-rule="evenodd" clip-rule="evenodd" d="M20.1603 11.2037L23.6787 14.7524C24.1071 15.1844 24.1071 15.8849 23.6787 16.317L20.1603 19.8647C19.7319 20.2968 19.0372 20.2968 18.6087 19.8647C18.1803 19.4327 18.1803 18.7322 18.6087 18.3001L20.2541 16.641L11.7818 16.6411C11.4605 16.6411 11.2 16.3806 11.2 16.0593V15.0103C11.2 14.6889 11.4605 14.4284 11.7818 14.4284L20.2541 14.4283L18.6087 12.7683C18.1803 12.3363 18.1803 11.6358 18.6087 11.2037C19.0372 10.7717 19.7319 10.7717 20.1603 11.2037Z" fill="url(#paint7_linear_3218_86988)"/>
</g>
<defs>
<linearGradient id="paint0_linear_3218_86988" x1="10" y1="0" x2="10" y2="24" gradientUnits="userSpaceOnUse">
<stop stop-color="#10808C"/>
<stop offset="1" stop-color="#1DF7EF"/>
</linearGradient>
<linearGradient id="paint1_linear_3218_86988" x1="10" y1="0" x2="10" y2="24" gradientUnits="userSpaceOnUse">
<stop stop-color="#10808C"/>
<stop offset="1" stop-color="#1DF7EF"/>
</linearGradient>
<linearGradient id="paint2_linear_3218_86988" x1="10" y1="0" x2="10" y2="24" gradientUnits="userSpaceOnUse">
<stop stop-color="#10808C"/>
<stop offset="1" stop-color="#1DF7EF"/>
</linearGradient>
<linearGradient id="paint3_linear_3218_86988" x1="10" y1="0" x2="10" y2="24" gradientUnits="userSpaceOnUse">
<stop stop-color="#10808C"/>
<stop offset="1" stop-color="#1DF7EF"/>
</linearGradient>
<linearGradient id="paint4_linear_3218_86988" x1="4.53385" y1="6" x2="4.53385" y2="7.33333" gradientUnits="userSpaceOnUse">
<stop stop-color="#FE5468"/>
<stop offset="1" stop-color="#FFDF27"/>
</linearGradient>
<linearGradient id="paint5_linear_3218_86988" x1="4.53385" y1="12.6672" x2="4.53385" y2="14.0005" gradientUnits="userSpaceOnUse">
<stop stop-color="#FE5468"/>
<stop offset="1" stop-color="#FFDF27"/>
</linearGradient>
<linearGradient id="paint6_linear_3218_86988" x1="4.53385" y1="19.3328" x2="4.53385" y2="20.6661" gradientUnits="userSpaceOnUse">
<stop stop-color="#FE5468"/>
<stop offset="1" stop-color="#FFDF27"/>
</linearGradient>
<linearGradient id="paint7_linear_3218_86988" x1="17.6" y1="10.8797" x2="17.6" y2="20.1888" gradientUnits="userSpaceOnUse">
<stop stop-color="#FE5468"/>
<stop offset="1" stop-color="#FFDF27"/>
</linearGradient>
<clipPath id="clip0_3218_86988">
<rect width="24" height="24" fill="white"/>
</clipPath>
</defs>
</svg>
