<svg width="24" height="24" viewBox="0 0 24 24" fill="none" xmlns="http://www.w3.org/2000/svg">
<g clip-path="url(#clip0_3218_88289)">
<path fill-rule="evenodd" clip-rule="evenodd" d="M1.2 14C1.86274 14 2.4 14.5596 2.4 15.25V20.25C2.4 20.5815 2.52643 20.8995 2.75147 21.1339C2.97652 21.3683 3.28174 21.5 3.6 21.5H20.4C20.7183 21.5 21.0235 21.3683 21.2485 21.1339C21.4736 20.8995 21.6 20.5815 21.6 20.25V15.25C21.6 14.5596 22.1373 14 22.8 14C23.4627 14 24 14.5596 24 15.25V20.25C24 21.2446 23.6207 22.1984 22.9456 22.9016C22.2705 23.6049 21.3548 24 20.4 24H3.6C2.64522 24 1.72955 23.6049 1.05442 22.9016C0.379285 22.1984 0 21.2446 0 20.25V15.25C0 14.5596 0.537258 14 1.2 14Z" fill="url(#paint0_linear_3218_88289)"/>
<path d="M12.8517 0.805384C12.8517 0.360565 12.471 5.3308e-05 12.0013 5.91412e-09C11.5311 -5.33372e-05 11.1496 0.36075 11.1496 0.80601V15.0992C10.9573 14.9942 10.7825 14.8507 10.6383 14.6686L5.53196 8.22078C5.24994 7.86467 4.71649 7.7925 4.34047 8.05958C3.96445 8.32666 3.88825 8.83185 4.17026 9.18795L10.6383 17.3552C11.3192 18.2149 12.6808 18.2149 13.3617 17.3552L19.8297 9.18795C20.1118 8.83185 20.0355 8.32666 19.6595 8.05958C19.2835 7.7925 18.7501 7.86467 18.468 8.22078L13.3617 14.6686C13.2178 14.8503 13.0435 14.9936 12.8517 15.0985V0.805384Z" fill="url(#paint1_linear_3218_88289)"/>
</g>
<defs>
<linearGradient id="paint0_linear_3218_88289" x1="12" y1="14" x2="12" y2="24" gradientUnits="userSpaceOnUse">
<stop stop-color="#FE5468"/>
<stop offset="1" stop-color="#FFDF27"/>
</linearGradient>
<linearGradient id="paint1_linear_3218_88289" x1="12" y1="0" x2="12" y2="18" gradientUnits="userSpaceOnUse">
<stop stop-color="#10808C"/>
<stop offset="1" stop-color="#1DF7EF"/>
</linearGradient>
<clipPath id="clip0_3218_88289">
<rect width="24" height="24" fill="white"/>
</clipPath>
</defs>
</svg>
