<svg width="15" height="15" viewBox="0 0 15 15" fill="none" xmlns="http://www.w3.org/2000/svg">
<g clip-path="url(#clip0_177_30240)">
<path fill-rule="evenodd" clip-rule="evenodd" d="M7.55681 2.99976C7.91554 2.99976 8.20635 3.29056 8.20635 3.64929V13.701H12.9998C13.3585 13.701 13.6494 13.9918 13.6494 14.3505C13.6494 14.7092 13.3585 15 12.9998 15H1.99994C1.64121 15 1.3504 14.7092 1.3504 14.3505C1.3504 13.9918 1.64121 13.701 1.99994 13.701H6.90728V3.64929C6.90728 3.29056 7.19808 2.99976 7.55681 2.99976Z" fill="url(#paint0_linear_177_30240)"/>
<path fill-rule="evenodd" clip-rule="evenodd" d="M7.45883 12.5991C5.43721 12.5468 3.81445 10.8916 3.81445 8.85738C3.81445 8.56239 3.84858 8.27535 3.91311 8C5.93473 8.05229 7.55749 9.7075 7.55749 11.7417C7.55749 12.0368 7.52336 12.3238 7.45883 12.5991Z" fill="url(#paint1_linear_177_30240)"/>
<path fill-rule="evenodd" clip-rule="evenodd" d="M11.202 8C9.1804 8.05229 7.55762 9.7075 7.55762 11.7417C7.55762 12.0367 7.59174 12.3238 7.65626 12.5991C9.67791 12.5468 11.3006 10.8916 11.3006 8.85733C11.3006 8.56234 11.2665 8.2753 11.202 8Z" fill="url(#paint2_linear_177_30240)"/>
</g>
<defs>
<linearGradient id="paint0_linear_177_30240" x1="7.49988" y1="2.99976" x2="7.49988" y2="15" gradientUnits="userSpaceOnUse">
<stop stop-color="#10808C"/>
<stop offset="1" stop-color="#1DF7EF"/>
</linearGradient>
<linearGradient id="paint1_linear_177_30240" x1="5.68597" y1="8" x2="5.68597" y2="12.5991" gradientUnits="userSpaceOnUse">
<stop stop-color="#FE5468"/>
<stop offset="1" stop-color="#FFDF27"/>
</linearGradient>
<linearGradient id="paint2_linear_177_30240" x1="9.42913" y1="8" x2="9.42913" y2="12.5991" gradientUnits="userSpaceOnUse">
<stop stop-color="#FE5468"/>
<stop offset="1" stop-color="#FFDF27"/>
</linearGradient>
<clipPath id="clip0_177_30240">
<rect width="15" height="15" fill="white"/>
</clipPath>
</defs>
</svg>
