<svg width="15" height="15" viewBox="0 0 15 15" fill="none" xmlns="http://www.w3.org/2000/svg">
<path d="M3.52715 5.88541C3.23601 5.88541 3 6.13491 3 6.44269L3 7.55726C3 7.86504 3.23601 8.11454 3.52715 8.11454L9 8.11457C9.29114 8.11457 9.52715 8.36407 9.52715 8.67185V9.442C9.52715 9.85627 9.93955 10.1257 10.29 9.94045L13.9869 7.49845C14.3754 7.29308 14.3754 6.70692 13.9869 6.50155L10.29 4.05955C9.93955 3.87428 9.52715 4.14373 9.52715 4.558V5.32815C9.52715 5.63593 9.29114 5.88543 9 5.88543L3.52715 5.88541Z" fill="url(#paint0_linear_177_29528)"/>
<path d="M0 13.7101C0.633709 13.8987 1.30503 14 2 14C5.17102 14 7.84957 11.8915 8.71012 9H6.58396C5.8124 10.7659 4.05032 12 2 12C1.2889 12 0.612462 11.8516 0 11.584V13.7101Z" fill="url(#paint1_linear_177_29528)"/>
<path d="M0 2.41604C0.612462 2.14845 1.2889 2 2 2C4.05032 2 5.8124 3.2341 6.58396 5H8.71012C7.84957 2.10851 5.17102 0 2 0C1.30503 0 0.633709 0.101278 0 0.289879V2.41604Z" fill="url(#paint2_linear_177_29528)"/>
<path d="M0 10.4649C0.588347 10.8052 1.27143 11 2 11C3.48057 11 4.77325 10.1956 5.46487 9H3.25C2.55964 9 2 8.44036 2 7.75V6.25C2 5.55964 2.55964 5 3.25 5H5.46487C4.77325 3.8044 3.48057 3 2 3C1.27143 3 0.588347 3.19479 0 3.53513V10.4649Z" fill="url(#paint3_linear_177_29528)"/>
<defs>
<linearGradient id="paint0_linear_177_29528" x1="8.63914" y1="4" x2="8.63914" y2="10" gradientUnits="userSpaceOnUse">
<stop stop-color="#10808C"/>
<stop offset="1" stop-color="#1DF7EF"/>
</linearGradient>
<linearGradient id="paint1_linear_177_29528" x1="4.35506" y1="0" x2="4.35506" y2="14" gradientUnits="userSpaceOnUse">
<stop stop-color="#10808C"/>
<stop offset="1" stop-color="#1DF7EF"/>
</linearGradient>
<linearGradient id="paint2_linear_177_29528" x1="4.35506" y1="0" x2="4.35506" y2="14" gradientUnits="userSpaceOnUse">
<stop stop-color="#10808C"/>
<stop offset="1" stop-color="#1DF7EF"/>
</linearGradient>
<linearGradient id="paint3_linear_177_29528" x1="2.73244" y1="3" x2="2.73244" y2="11" gradientUnits="userSpaceOnUse">
<stop stop-color="#FE5468"/>
<stop offset="1" stop-color="#FFDF27"/>
</linearGradient>
</defs>
</svg>
