<svg width="15" height="15" viewBox="0 0 15 15" fill="none" xmlns="http://www.w3.org/2000/svg">
<g clip-path="url(#clip0_6290_25305)">
<path d="M11 7.5C11 9.433 9.433 11 7.5 11C5.567 11 4 9.433 4 7.5C4 5.567 5.567 4 7.5 4C9.433 4 11 5.567 11 7.5Z" fill="url(#paint0_linear_6290_25305)"/>
<path d="M14.875 13.8814L14.875 9.88184C14.875 9.39859 14.4832 9.00684 14 9.00684C13.5168 9.00684 13.125 9.39859 13.125 9.88184L13.125 11.769L12.0079 10.6519C11.6711 11.1328 11.2593 11.5572 10.7895 11.9084L11.8876 13.0064H10C9.51675 13.0064 9.125 13.3982 9.125 13.8814C9.125 14.3647 9.51675 14.7564 10 14.7564L14 14.7564C14.4832 14.7564 14.875 14.3647 14.875 13.8814Z" fill="url(#paint1_linear_6290_25305)"/>
<path d="M4.27912 11.959C3.80379 11.6151 3.38563 11.197 3.04162 10.7217L0.500422 13.2629C0.158714 13.6046 0.158713 14.1586 0.500422 14.5003C0.842131 14.842 1.39615 14.842 1.73786 14.5003L4.27912 11.959Z" fill="url(#paint2_linear_6290_25305)"/>
<path d="M14.0004 0.125H10.0008C9.5176 0.125 9.12584 0.516751 9.12584 1C9.12584 1.48325 9.5176 1.875 10.0008 1.875H11.888L10.7214 3.04162C11.1967 3.38563 11.6148 3.80379 11.9587 4.27912L13.1254 3.11244V5C13.1254 5.48325 13.5172 5.875 14.0004 5.875C14.4837 5.875 14.8754 5.48325 14.8754 5V1C14.8754 0.516751 14.4837 0.125 14.0004 0.125Z" fill="url(#paint3_linear_6290_25305)"/>
<path d="M4.34864 2.99206L1.73786 0.381282C1.39615 0.039573 0.842131 0.0395726 0.500422 0.381281C0.158714 0.72299 0.158713 1.27701 0.500422 1.61872L3.09217 4.21047C3.44332 3.74067 3.86779 3.32888 4.34864 2.99206Z" fill="url(#paint4_linear_6290_25305)"/>
</g>
<defs>
<linearGradient id="paint0_linear_6290_25305" x1="7.5" y1="4" x2="12.2188" y2="10.6342" gradientUnits="userSpaceOnUse">
<stop stop-color="#FE5468"/>
<stop offset="1" stop-color="#FFDF27"/>
</linearGradient>
<linearGradient id="paint1_linear_6290_25305" x1="7.55957" y1="9.00684" x2="7.55957" y2="14.7566" gradientUnits="userSpaceOnUse">
<stop stop-color="#10808C"/>
<stop offset="1" stop-color="#1DF7EF"/>
</linearGradient>
<linearGradient id="paint2_linear_6290_25305" x1="7.55957" y1="9.00684" x2="7.55957" y2="14.7566" gradientUnits="userSpaceOnUse">
<stop stop-color="#10808C"/>
<stop offset="1" stop-color="#1DF7EF"/>
</linearGradient>
<linearGradient id="paint3_linear_6290_25305" x1="7.55978" y1="0.125" x2="9.68752" y2="7.73679" gradientUnits="userSpaceOnUse">
<stop stop-color="#FE5468"/>
<stop offset="1" stop-color="#FFDF27"/>
</linearGradient>
<linearGradient id="paint4_linear_6290_25305" x1="7.55978" y1="0.125" x2="9.68752" y2="7.73679" gradientUnits="userSpaceOnUse">
<stop stop-color="#FE5468"/>
<stop offset="1" stop-color="#FFDF27"/>
</linearGradient>
<clipPath id="clip0_6290_25305">
<rect width="15" height="15" fill="white"/>
</clipPath>
</defs>
</svg>
