<svg width="15" height="15" viewBox="0 0 15 15" fill="none" xmlns="http://www.w3.org/2000/svg">
<g clip-path="url(#clip0_22419_49288)">
<path d="M3.61793 1.46432C3.24917 1.06573 3.23462 0.444742 3.6016 0.0287952C3.96864 -0.387185 4.58692 -0.450355 5.02834 -0.134009L5.11414 -0.0657911L10.5788 4.75598C11.9836 5.99556 12.0272 8.15631 10.7102 9.45346L10.5788 9.57651L5.11414 14.3983L5.02834 14.4665C4.58692 14.7828 3.96864 14.7197 3.6016 14.3037C3.23462 13.8877 3.24917 13.2668 3.61793 12.8682L3.69619 12.7912L9.16081 7.9698L9.20476 7.92879C9.64384 7.49641 9.62912 6.7759 9.16081 6.36269L3.69619 1.54133L3.61793 1.46432Z" fill="url(#paint0_linear_22419_49288)"/>
</g>
<defs>
<linearGradient id="paint0_linear_22419_49288" x1="3.33374" y1="7.16624" x2="11.6662" y2="7.16624" gradientUnits="userSpaceOnUse">
<stop stop-color="#FE5468"/>
<stop offset="1" stop-color="#FFDF27"/>
</linearGradient>
<clipPath id="clip0_22419_49288">
<rect width="15" height="15" fill="white"/>
</clipPath>
</defs>
</svg>
