<svg width="15" height="15" viewBox="0 0 15 15" fill="none" xmlns="http://www.w3.org/2000/svg">
<g clip-path="url(#clip0_177_30365)">
<path d="M11.3821 12.8682C11.7508 13.2668 11.7654 13.8878 11.3984 14.3037C11.0313 14.7197 10.4131 14.7829 9.97164 14.4665L9.88585 14.3983L4.42122 9.57652C3.01639 8.33694 2.97277 6.17619 4.28981 4.87904L4.42122 4.756L9.88585 -0.065777L9.97164 -0.133996C10.4131 -0.450341 11.0313 -0.387171 11.3984 0.0288087C11.7654 0.444756 11.7508 1.06575 11.3821 1.46433L11.3038 1.54134L5.83917 6.3627L5.79523 6.40371C5.35615 6.83609 5.37087 7.55661 5.83917 7.96982L11.3038 12.7912L11.3821 12.8682Z" fill="url(#paint0_linear_177_30365)"/>
</g>
<defs>
<linearGradient id="paint0_linear_177_30365" x1="11.6662" y1="7.16626" x2="3.33376" y2="7.16626" gradientUnits="userSpaceOnUse">
<stop stop-color="#FE5468"/>
<stop offset="1" stop-color="#FFDF27"/>
</linearGradient>
<clipPath id="clip0_177_30365">
<rect width="15" height="15" fill="white"/>
</clipPath>
</defs>
</svg>
