<svg width="15" height="15" viewBox="0 0 15 15" fill="none" xmlns="http://www.w3.org/2000/svg">
<path fill-rule="evenodd" clip-rule="evenodd" d="M11.5 1.25C10.8096 1.25 10.25 1.80964 10.25 2.5C10.25 3.19036 10.8096 3.75 11.5 3.75C12.1904 3.75 12.75 3.19036 12.75 2.5C12.75 1.80964 12.1904 1.25 11.5 1.25ZM9 2.5C9 1.11929 10.1193 0 11.5 0C12.8807 0 14 1.11929 14 2.5C14 3.88071 12.8807 5 11.5 5C10.1193 5 9 3.88071 9 2.5Z" fill="url(#paint0_linear_7643_31153)"/>
<path fill-rule="evenodd" clip-rule="evenodd" d="M11.5 11.25C10.8096 11.25 10.25 11.8096 10.25 12.5C10.25 13.1904 10.8096 13.75 11.5 13.75C12.1904 13.75 12.75 13.1904 12.75 12.5C12.75 11.8096 12.1904 11.25 11.5 11.25ZM9 12.5C9 11.1193 10.1193 10 11.5 10C12.8807 10 14 11.1193 14 12.5C14 13.8807 12.8807 15 11.5 15C10.1193 15 9 13.8807 9 12.5Z" fill="url(#paint1_linear_7643_31153)"/>
<path fill-rule="evenodd" clip-rule="evenodd" d="M5.09534 8.34918C5.29006 8.01371 5.71878 7.90023 6.05293 8.09572L10.2475 10.5386C10.5817 10.7341 10.6947 11.1645 10.5 11.5C10.3053 11.8355 9.87656 11.9489 9.54241 11.7535L5.34781 9.31056C5.01366 9.11508 4.90063 8.68465 5.09534 8.34918Z" fill="url(#paint2_linear_7643_31153)"/>
<path fill-rule="evenodd" clip-rule="evenodd" d="M10.4995 3.5C10.7204 3.81905 10.5926 4.22862 10.2141 4.41481L6.49991 6.49999C6.12135 6.68618 5.63538 6.57847 5.41446 6.25943C5.19354 5.94038 5.32134 5.5308 5.6999 5.34462L9.41406 3.25944C9.79262 3.07325 10.2786 3.18095 10.4995 3.5Z" fill="url(#paint3_linear_7643_31153)"/>
<path fill-rule="evenodd" clip-rule="evenodd" d="M4 5.5C3.17157 5.5 2.5 6.17157 2.5 7C2.5 7.82843 3.17157 8.5 4 8.5C4.82843 8.5 5.5 7.82843 5.5 7C5.5 6.17157 4.82843 5.5 4 5.5ZM1 7C1 5.34315 2.34315 4 4 4C5.65685 4 7 5.34315 7 7C7 8.65685 5.65685 10 4 10C2.34315 10 1 8.65685 1 7Z" fill="url(#paint4_linear_7643_31153)"/>
<defs>
<linearGradient id="paint0_linear_7643_31153" x1="11.5" y1="0" x2="14.8706" y2="4.73869" gradientUnits="userSpaceOnUse">
<stop stop-color="#FE5468"/>
<stop offset="1" stop-color="#FFDF27"/>
</linearGradient>
<linearGradient id="paint1_linear_7643_31153" x1="11.5" y1="10" x2="14.8706" y2="14.7387" gradientUnits="userSpaceOnUse">
<stop stop-color="#FE5468"/>
<stop offset="1" stop-color="#FFDF27"/>
</linearGradient>
<linearGradient id="paint2_linear_7643_31153" x1="7.79767" y1="8" x2="7.79767" y2="11.8492" gradientUnits="userSpaceOnUse">
<stop stop-color="#10808C"/>
<stop offset="1" stop-color="#1DF7EF"/>
</linearGradient>
<linearGradient id="paint3_linear_7643_31153" x1="7.95699" y1="3.16797" x2="7.95699" y2="6.59127" gradientUnits="userSpaceOnUse">
<stop stop-color="#10808C"/>
<stop offset="1" stop-color="#1DF7EF"/>
</linearGradient>
<linearGradient id="paint4_linear_7643_31153" x1="4" y1="4" x2="8.04469" y2="9.68642" gradientUnits="userSpaceOnUse">
<stop stop-color="#FE5468"/>
<stop offset="1" stop-color="#FFDF27"/>
</linearGradient>
</defs>
</svg>
