<svg width="24" height="24" viewBox="0 0 24 24" fill="none" xmlns="http://www.w3.org/2000/svg">
<path fill-rule="evenodd" clip-rule="evenodd" d="M19 2C17.8954 2 17 2.89543 17 4C17 5.10457 17.8954 6 19 6C20.1046 6 21 5.10457 21 4C21 2.89543 20.1046 2 19 2ZM15 4C15 1.79086 16.7909 0 19 0C21.2091 0 23 1.79086 23 4C23 6.20914 21.2091 8 19 8C16.7909 8 15 6.20914 15 4Z" fill="url(#paint0_linear_3218_88263)"/>
<path fill-rule="evenodd" clip-rule="evenodd" d="M19 18C17.8954 18 17 18.8954 17 20C17 21.1046 17.8954 22 19 22C20.1046 22 21 21.1046 21 20C21 18.8954 20.1046 18 19 18ZM15 20C15 17.7909 16.7909 16 19 16C21.2091 16 23 17.7909 23 20C23 22.2091 21.2091 24 19 24C16.7909 24 15 22.2091 15 20Z" fill="url(#paint1_linear_3218_88263)"/>
<path fill-rule="evenodd" clip-rule="evenodd" d="M8.14301 13.5238C8.43509 13.0206 9.07818 12.8504 9.5794 13.1436L16.4783 17.0342C16.9795 17.3274 17.1491 17.973 16.857 18.4762C16.5649 18.9794 15.9218 19.1496 15.4206 18.8564L8.52171 14.9658C8.02049 14.6726 7.85094 14.027 8.14301 13.5238Z" fill="url(#paint2_linear_3218_88263)"/>
<path fill-rule="evenodd" clip-rule="evenodd" d="M16.8607 5.49777C17.1448 5.97634 16.9805 6.5907 16.4938 6.86998L9.53483 10.8631C9.04811 11.1424 8.42329 10.9808 8.13926 10.5022C7.85522 10.0237 8.01952 9.4093 8.50624 9.13002L15.4652 5.13692C15.9519 4.85764 16.5767 5.0192 16.8607 5.49777Z" fill="url(#paint3_linear_3218_88263)"/>
<path fill-rule="evenodd" clip-rule="evenodd" d="M6 9.5C4.61929 9.5 3.5 10.6193 3.5 12C3.5 13.3807 4.61929 14.5 6 14.5C7.38071 14.5 8.5 13.3807 8.5 12C8.5 10.6193 7.38071 9.5 6 9.5ZM1 12C1 9.23858 3.23858 7 6 7C8.76142 7 11 9.23858 11 12C11 14.7614 8.76142 17 6 17C3.23858 17 1 14.7614 1 12Z" fill="url(#paint4_linear_3218_88263)"/>
<defs>
<linearGradient id="paint0_linear_3218_88263" x1="19" y1="0" x2="19" y2="8" gradientUnits="userSpaceOnUse">
<stop stop-color="#FE5468"/>
<stop offset="1" stop-color="#FFDF27"/>
</linearGradient>
<linearGradient id="paint1_linear_3218_88263" x1="19" y1="16" x2="19" y2="24" gradientUnits="userSpaceOnUse">
<stop stop-color="#FE5468"/>
<stop offset="1" stop-color="#FFDF27"/>
</linearGradient>
<linearGradient id="paint2_linear_3218_88263" x1="12.5" y1="13" x2="12.5" y2="19" gradientUnits="userSpaceOnUse">
<stop stop-color="#10808C"/>
<stop offset="1" stop-color="#1DF7EF"/>
</linearGradient>
<linearGradient id="paint3_linear_3218_88263" x1="12.5" y1="5" x2="12.5" y2="11" gradientUnits="userSpaceOnUse">
<stop stop-color="#10808C"/>
<stop offset="1" stop-color="#1DF7EF"/>
</linearGradient>
<linearGradient id="paint4_linear_3218_88263" x1="6" y1="7" x2="6" y2="17" gradientUnits="userSpaceOnUse">
<stop stop-color="#FE5468"/>
<stop offset="1" stop-color="#FFDF27"/>
</linearGradient>
</defs>
</svg>
