<svg width="15" height="15" viewBox="0 0 15 15" fill="none" xmlns="http://www.w3.org/2000/svg">
<g clip-path="url(#clip0_11753_40600)">
<path d="M3.00003 7.51573H4.35225C4.90039 7.51573 5.19983 6.87642 4.84892 6.45532L2.99667 4.23263C2.73819 3.92246 2.26181 3.92246 2.00333 4.23263L0.151084 6.45532C-0.199828 6.87642 0.0996119 7.51573 0.647754 7.51573H2.00002C2.00851 10.5461 4.46768 13 7.5 13V12C5.01996 12 3.00851 9.99378 3.00003 7.51573Z" fill="url(#paint0_linear_11753_40600)"/>
<path d="M12 7.48427C11.9915 5.00622 9.98003 3 7.5 3V2C10.5323 2 12.9915 4.45394 13 7.48427H14.3522C14.9004 7.48427 15.1998 8.12358 14.8489 8.54468L12.9967 10.7674C12.7382 11.0775 12.2618 11.0775 12.0033 10.7674L10.1511 8.54468C9.80017 8.12358 10.0996 7.48427 10.6478 7.48427H12Z" fill="url(#paint1_linear_11753_40600)"/>
<path fill-rule="evenodd" clip-rule="evenodd" d="M8.29035 4.92593C8.46704 4.10138 9.52223 3.85228 10.049 4.51076L11.3905 6.18767C11.563 6.4033 11.5281 6.71795 11.3125 6.89045C11.0968 7.06295 10.7822 7.02799 10.6097 6.81236L9.59739 5.54701C9.46569 5.38239 9.20189 5.44466 9.15772 5.6508L8.26308 9.8258C8.07078 10.7232 6.87236 10.9092 6.41703 10.1124L5.76127 8.96483C5.66221 8.79146 5.4099 8.79847 5.3206 8.97706L4.94732 9.72362C4.82383 9.97061 4.52349 10.0707 4.2765 9.94723C4.02951 9.82373 3.9294 9.5234 4.0529 9.27641L4.63508 8.11203C4.99227 7.39766 6.00149 7.36965 6.39775 8.06311L6.9608 9.04844C7.07463 9.24764 7.37423 9.20113 7.42231 8.97678L8.29035 4.92593Z" fill="url(#paint2_linear_11753_40600)"/>
</g>
<defs>
<linearGradient id="paint0_linear_11753_40600" x1="7.5" y1="2" x2="13.9375" y2="14.3416" gradientUnits="userSpaceOnUse">
<stop stop-color="#FE5468"/>
<stop offset="1" stop-color="#FFDF27"/>
</linearGradient>
<linearGradient id="paint1_linear_11753_40600" x1="7.5" y1="2" x2="13.9375" y2="14.3416" gradientUnits="userSpaceOnUse">
<stop stop-color="#FE5468"/>
<stop offset="1" stop-color="#FFDF27"/>
</linearGradient>
<linearGradient id="paint2_linear_11753_40600" x1="7.75006" y1="4.13477" x2="7.75006" y2="10.6167" gradientUnits="userSpaceOnUse">
<stop stop-color="#10808C"/>
<stop offset="1" stop-color="#1DF7EF"/>
</linearGradient>
<clipPath id="clip0_11753_40600">
<rect width="15" height="15" fill="white"/>
</clipPath>
</defs>
</svg>
