<svg width="15" height="15" viewBox="0 0 15 15" fill="none" xmlns="http://www.w3.org/2000/svg">
<g clip-path="url(#clip0_177_29643)">
<path fill-rule="evenodd" clip-rule="evenodd" d="M3.5 0C1.58723 0.000253659 0.0329508 1.53489 0.000976562 3.44009L0 3.44141V12.5C0 13.5 1 15 2.5 15H15V3H4V0H3.5C3.50016 0 3.49984 0 3.5 0ZM3 1.05011C2.82627 1.08541 2.65908 1.13872 2.50047 1.20802C1.61752 1.5938 1.00047 2.47484 1.00047 3.5L1 10.051C1.52509 9.51494 2.22118 9.14702 3 9.03551V1.05011ZM3.50047 10C3.14492 10 2.80671 10.0742 2.50047 10.208C1.61752 10.5938 1.00047 11.4748 1.00047 12.5C1.00047 12.7098 1.12735 13.1091 1.44008 13.4665C1.73626 13.805 2.10473 14 2.5 14H14V4H4V10H3.50047Z" fill="url(#paint0_linear_177_29643)"/>
<path fill-rule="evenodd" clip-rule="evenodd" d="M6 6C5.44772 6 5 6.44772 5 7V11C5 11.5523 5.44772 12 6 12H10C10.5523 12 11 11.5523 11 11V7C11 6.44772 10.5523 6 10 6H6ZM8.40849 7.27134C8.24739 6.90955 7.75261 6.90955 7.59151 7.27134L7.34195 7.8318C7.27637 7.97907 7.14205 8.0805 6.98703 8.09982L6.39709 8.17333C6.01626 8.22078 5.86337 8.70988 6.14463 8.98093L6.58033 9.40082C6.69482 9.51116 6.74613 9.67528 6.7159 9.83449L6.60086 10.4404C6.52659 10.8315 6.92688 11.1338 7.26181 10.9395L7.78065 10.6386C7.91699 10.5595 8.08301 10.5595 8.21935 10.6386L8.73819 10.9395C9.07312 11.1338 9.47341 10.8315 9.39914 10.4404L9.2841 9.83449C9.25387 9.67528 9.30518 9.51116 9.41967 9.40082L9.85537 8.98093C10.1366 8.70988 9.98374 8.22078 9.60291 8.17333L9.01297 8.09982C8.85795 8.0805 8.72363 7.97907 8.65805 7.8318L8.40849 7.27134Z" fill="url(#paint1_linear_177_29643)"/>
</g>
<defs>
<linearGradient id="paint0_linear_177_29643" x1="7.5" y1="0" x2="7.5" y2="15" gradientUnits="userSpaceOnUse">
<stop stop-color="#10808C"/>
<stop offset="1" stop-color="#1DF7EF"/>
</linearGradient>
<linearGradient id="paint1_linear_177_29643" x1="8" y1="6" x2="8" y2="12" gradientUnits="userSpaceOnUse">
<stop stop-color="#FE5468"/>
<stop offset="1" stop-color="#FFDF27"/>
</linearGradient>
<clipPath id="clip0_177_29643">
<rect width="15" height="15" fill="white"/>
</clipPath>
</defs>
</svg>
