<svg width="15" height="15" viewBox="0 0 15 15" fill="none" xmlns="http://www.w3.org/2000/svg">
<path fill-rule="evenodd" clip-rule="evenodd" d="M7.31602 1.80932C6.66485 1.1842 5.78168 0.833008 4.86079 0.833008H0.694119C0.310588 0.833008 -0.000325203 1.13148 -0.000325203 1.49967V11.4997C-0.000325203 11.8679 0.310588 12.1663 0.694119 12.1663H5.27745C5.64581 12.1663 5.99908 12.3068 6.25955 12.5569C6.52001 12.8069 6.63321 12.9794 6.63321 13.333C6.63321 13.7497 6.94412 14.1663 7.49967 14.1663C8.05523 14.1663 8.33301 13.7497 8.33301 13.333V4.16634C8.33301 3.28229 7.96719 2.43444 7.31602 1.80932ZM6.66634 11.1903C6.24766 10.9582 5.90817 10.833 5.41634 10.833H1.38856V2.16634H4.58301C5.13554 2.16634 5.66545 2.37705 6.05615 2.75213C6.44685 3.1272 6.66634 3.63591 6.66634 4.16634V11.1903Z" fill="url(#paint0_linear_7416_31915)"/>
<path fill-rule="evenodd" clip-rule="evenodd" d="M7.68398 1.80932C8.33515 1.1842 9.21832 0.833008 10.1392 0.833008H14.3059C14.6894 0.833008 15.0003 1.13148 15.0003 1.49967V11.4997C15.0003 11.8679 14.6894 12.1663 14.3059 12.1663H9.72255C9.35419 12.1663 9.00092 12.3068 8.74045 12.5569C8.47999 12.8069 8.36679 12.9794 8.36679 13.333C8.36679 13.7497 8.05588 14.1663 7.50033 14.1663C6.94477 14.1663 6.66699 13.7497 6.66699 13.333V4.16634C6.66699 3.28229 7.03281 2.43444 7.68398 1.80932ZM8.33366 11.1903C8.75234 10.9582 9.09183 10.833 9.58366 10.833H13.6114V2.16634H10.417C9.86446 2.16634 9.33455 2.37705 8.94385 2.75213C8.55315 3.1272 8.33366 3.63591 8.33366 4.16634V11.1903Z" fill="url(#paint1_linear_7416_31915)"/>
<defs>
<linearGradient id="paint0_linear_7416_31915" x1="4.16634" y1="0.833008" x2="4.16634" y2="14.1663" gradientUnits="userSpaceOnUse">
<stop stop-color="#10808C"/>
<stop offset="1" stop-color="#1DF7EF"/>
</linearGradient>
<linearGradient id="paint1_linear_7416_31915" x1="10.8337" y1="0.833008" x2="20.2695" y2="9.12414" gradientUnits="userSpaceOnUse">
<stop stop-color="#FE5468"/>
<stop offset="1" stop-color="#FFDF27"/>
</linearGradient>
</defs>
</svg>
