<svg width="15" height="15" viewBox="0 0 15 15" fill="none" xmlns="http://www.w3.org/2000/svg">
<path fill-rule="evenodd" clip-rule="evenodd" d="M2.2362 0.5991C2.60086 0.215502 3.09543 0 3.61113 0H8.79632C8.96822 0 9.13308 0.0718342 9.25463 0.1997L13.1435 4.29061C13.2651 4.41847 13.3334 4.5919 13.3334 4.77273V12.9545C13.3334 13.497 13.1285 14.0173 12.7638 14.4009C12.3992 14.7845 11.9046 15 11.3889 15H3.61113C3.09543 15 2.60086 14.7845 2.2362 14.4009C1.87155 14.0173 1.66669 13.497 1.66669 12.9545V2.04545C1.66669 1.50297 1.87155 0.982697 2.2362 0.5991ZM3.61113 1.36364C3.43923 1.36364 3.27437 1.43547 3.15282 1.56334C3.03127 1.6912 2.96298 1.86462 2.96298 2.04545V12.9545C2.96298 13.1354 3.03127 13.3088 3.15282 13.4367C3.27437 13.5645 3.43923 13.6364 3.61113 13.6364H11.3889C11.5608 13.6364 11.7257 13.5645 11.8472 13.4367C11.9688 13.3088 12.0371 13.1354 12.0371 12.9545V5.05515L8.52785 1.36364H3.61113Z" fill="url(#paint0_linear_177_31308)"/>
<path fill-rule="evenodd" clip-rule="evenodd" d="M8.95834 0C9.30352 0 9.58334 0.326459 9.58334 0.729167V4.16667H12.7083C13.0535 4.16667 13.3333 4.49313 13.3333 4.89583C13.3333 5.29854 13.0535 5.625 12.7083 5.625H8.95834C8.61317 5.625 8.33334 5.29854 8.33334 4.89583V0.729167C8.33334 0.326459 8.61317 0 8.95834 0Z" fill="url(#paint1_linear_177_31308)"/>
<path fill-rule="evenodd" clip-rule="evenodd" d="M4.16669 8.33333C4.16669 7.8731 4.46516 7.5 4.83335 7.5H10.1667C10.5349 7.5 10.8334 7.8731 10.8334 8.33333C10.8334 8.79357 10.5349 9.16667 10.1667 9.16667H4.83335C4.46516 9.16667 4.16669 8.79357 4.16669 8.33333Z" fill="url(#paint2_linear_177_31308)"/>
<path fill-rule="evenodd" clip-rule="evenodd" d="M4.16669 10.8333C4.16669 10.3731 4.46516 10 4.83335 10H10.1667C10.5349 10 10.8334 10.3731 10.8334 10.8333C10.8334 11.2936 10.5349 11.6667 10.1667 11.6667H4.83335C4.46516 11.6667 4.16669 11.2936 4.16669 10.8333Z" fill="url(#paint3_linear_177_31308)"/>
<path fill-rule="evenodd" clip-rule="evenodd" d="M4.16669 5.83333C4.16669 5.3731 4.44651 5 4.79169 5H6.04169C6.38686 5 6.66669 5.3731 6.66669 5.83333C6.66669 6.29357 6.38686 6.66667 6.04169 6.66667H4.79169C4.44651 6.66667 4.16669 6.29357 4.16669 5.83333Z" fill="url(#paint4_linear_177_31308)"/>
<defs>
<linearGradient id="paint0_linear_177_31308" x1="7.50002" y1="0" x2="7.50002" y2="15" gradientUnits="userSpaceOnUse">
<stop stop-color="#10808C"/>
<stop offset="1" stop-color="#1DF7EF"/>
</linearGradient>
<linearGradient id="paint1_linear_177_31308" x1="10.8333" y1="0" x2="10.8333" y2="5.625" gradientUnits="userSpaceOnUse">
<stop stop-color="#FE5468"/>
<stop offset="1" stop-color="#FFDF27"/>
</linearGradient>
<linearGradient id="paint2_linear_177_31308" x1="7.50002" y1="7.5" x2="7.50002" y2="9.16667" gradientUnits="userSpaceOnUse">
<stop stop-color="#FE5468"/>
<stop offset="1" stop-color="#FFDF27"/>
</linearGradient>
<linearGradient id="paint3_linear_177_31308" x1="7.50002" y1="10" x2="7.50002" y2="11.6667" gradientUnits="userSpaceOnUse">
<stop stop-color="#FE5468"/>
<stop offset="1" stop-color="#FFDF27"/>
</linearGradient>
<linearGradient id="paint4_linear_177_31308" x1="5.41669" y1="5" x2="5.41669" y2="6.66667" gradientUnits="userSpaceOnUse">
<stop stop-color="#FE5468"/>
<stop offset="1" stop-color="#FFDF27"/>
</linearGradient>
</defs>
</svg>
