<svg width="15" height="15" viewBox="0 0 15 15" fill="none" xmlns="http://www.w3.org/2000/svg">
<g clip-path="url(#clip0_177_30760)">
<path fill-rule="evenodd" clip-rule="evenodd" d="M10.9181 1.875C10.8533 1.86427 10.7848 1.85371 10.7125 1.84338C9.95835 1.73565 8.89595 1.66667 7.70833 1.66667C6.5207 1.66667 5.4583 1.73565 4.70418 1.84338C4.63189 1.85371 4.56332 1.86427 4.49852 1.875C4.56332 1.88573 4.63189 1.89629 4.70418 1.90662C5.4583 2.01435 6.5207 2.08333 7.70833 2.08333C8.89595 2.08333 9.95835 2.01435 10.7125 1.90662C10.7848 1.89629 10.8533 1.88573 10.9181 1.875ZM7.70833 2.5C10.1246 2.5 12.0833 2.22018 12.0833 1.875C12.0833 1.52982 10.1246 1.25 7.70833 1.25C5.29208 1.25 3.33333 1.52982 3.33333 1.875C3.33333 2.22018 5.29208 2.5 7.70833 2.5Z" fill="url(#paint0_linear_177_30760)"/>
<path fill-rule="evenodd" clip-rule="evenodd" d="M10.7729 13.9281C10.6889 13.9438 10.6017 13.9588 10.5114 13.9732C9.75221 14.094 8.77483 14.1667 7.70833 14.1667C6.64182 14.1667 5.66445 14.094 4.9053 13.9732C4.81497 13.9588 4.72773 13.9438 4.6438 13.9281C3.83502 13.7769 3.33333 13.5663 3.33333 13.3333C3.33333 13.1004 3.83502 12.8898 4.6438 12.7386C4.72773 12.7229 4.81497 12.7078 4.9053 12.6935C5.66445 12.5727 6.64182 12.5 7.70833 12.5C8.77483 12.5 9.75221 12.5727 10.5114 12.6935C10.6017 12.7078 10.6889 12.7229 10.7729 12.7386C11.5816 12.8898 12.0833 13.1004 12.0833 13.3333C12.0833 13.5663 11.5816 13.7769 10.7729 13.9281Z" fill="url(#paint1_linear_177_30760)"/>
<path fill-rule="evenodd" clip-rule="evenodd" d="M11.3649 2.68112H3.63514C2.36502 2.68112 1.31532 3.72911 1.24181 5.07057L0.962252 10.1724C0.898425 11.3372 1.77406 12.3188 2.87691 12.3188H12.1231C13.2259 12.3188 14.1016 11.3372 14.0377 10.1724L13.7582 5.07057C13.6847 3.72912 12.635 2.68112 11.3649 2.68112ZM3.63514 1.66663C1.85697 1.66663 0.387393 3.13382 0.284483 5.01185L0.00492101 10.1137C-0.0908181 11.8609 1.22264 13.3333 2.87691 13.3333H12.1231C13.7774 13.3333 15.0908 11.8609 14.9951 10.1137L14.7155 5.01186C14.6126 3.13382 13.143 1.66663 11.3649 1.66663H3.63514Z" fill="url(#paint2_linear_177_30760)"/>
<path fill-rule="evenodd" clip-rule="evenodd" d="M12.3611 4.48864H2.63889C2.50466 4.48864 2.39584 4.59887 2.39584 4.73485V8.18182C2.39584 8.3178 2.50466 8.42803 2.63889 8.42803H12.3611C12.4954 8.42803 12.6042 8.3178 12.6042 8.18182V4.73485C12.6042 4.59887 12.4954 4.48864 12.3611 4.48864ZM2.63889 3.75C2.10195 3.75 1.66667 4.19093 1.66667 4.73485V8.18182C1.66667 8.72573 2.10195 9.16667 2.63889 9.16667H12.3611C12.8981 9.16667 13.3333 8.72573 13.3333 8.18182V4.73485C13.3333 4.19093 12.8981 3.75 12.3611 3.75H2.63889Z" fill="url(#paint3_linear_177_30760)"/>
<path d="M3.79974 7.08329C3.69699 7.08329 3.60424 7.05818 3.5215 7.00795C3.43876 6.95772 3.37603 6.88923 3.33333 6.80247L3.48747 6.61982C3.52483 6.67918 3.57154 6.72637 3.62759 6.76137C3.68364 6.79638 3.74169 6.81389 3.80175 6.81389C3.84979 6.81389 3.89183 6.80247 3.92786 6.77964C3.96523 6.75681 3.99459 6.72484 4.01594 6.68375C4.03729 6.64265 4.04797 6.59547 4.04797 6.5422C4.04797 6.48892 4.03796 6.4425 4.01794 6.40293C3.99792 6.36335 3.97056 6.33291 3.93587 6.3116C3.90117 6.28877 3.8618 6.27736 3.81776 6.27736C3.77372 6.27736 3.73235 6.28877 3.69365 6.3116C3.65628 6.33291 3.62626 6.36411 3.60357 6.40521H3.36936L3.53351 5.43946H4.23413V5.718H3.72768L3.66963 6.08101C3.68698 6.06274 3.711 6.04752 3.74169 6.03535C3.77239 6.02165 3.81042 6.0148 3.85579 6.0148C3.94521 6.0148 4.02528 6.03687 4.09601 6.08101C4.16674 6.12515 4.22212 6.18679 4.26216 6.26594C4.30219 6.34357 4.32221 6.43337 4.32221 6.53535C4.32221 6.64341 4.29952 6.73854 4.25415 6.82074C4.20878 6.90445 4.14672 6.96914 4.06798 7.0148C3.98925 7.06046 3.89983 7.08329 3.79974 7.08329Z" fill="url(#paint4_linear_177_30760)"/>
<path d="M4.90816 7.08329C4.8054 7.08329 4.71265 7.05818 4.62991 7.00795C4.54717 6.95772 4.48444 6.88923 4.44174 6.80247L4.59588 6.61982C4.63324 6.67918 4.67995 6.72637 4.736 6.76137C4.79205 6.79638 4.8501 6.81389 4.91016 6.81389C4.9582 6.81389 5.00024 6.80247 5.03627 6.77964C5.07364 6.75681 5.103 6.72484 5.12435 6.68375C5.1457 6.64265 5.15638 6.59547 5.15638 6.5422C5.15638 6.48892 5.14637 6.4425 5.12635 6.40293C5.10633 6.36335 5.07898 6.33291 5.04428 6.3116C5.00958 6.28877 4.97021 6.27736 4.92617 6.27736C4.88213 6.27736 4.84076 6.28877 4.80206 6.3116C4.7647 6.33291 4.73467 6.36411 4.71198 6.40521H4.47777L4.64192 5.43946H5.34254V5.718H4.83609L4.77804 6.08101C4.79539 6.06274 4.81941 6.04752 4.8501 6.03535C4.8808 6.02165 4.91883 6.0148 4.96421 6.0148C5.05362 6.0148 5.13369 6.03687 5.20442 6.08101C5.27515 6.12515 5.33053 6.18679 5.37057 6.26594C5.41061 6.34357 5.43062 6.43337 5.43062 6.53535C5.43062 6.64341 5.40794 6.73854 5.36256 6.82074C5.31719 6.90445 5.25513 6.96914 5.1764 7.0148C5.09766 7.06046 5.00825 7.08329 4.90816 7.08329Z" fill="url(#paint5_linear_177_30760)"/>
<path d="M6.01657 7.08329C5.91381 7.08329 5.82106 7.05818 5.73832 7.00795C5.65558 6.95772 5.59286 6.88923 5.55015 6.80247L5.70429 6.61982C5.74166 6.67918 5.78836 6.72637 5.84441 6.76137C5.90047 6.79638 5.95852 6.81389 6.01857 6.81389C6.06661 6.81389 6.10865 6.80247 6.14468 6.77964C6.18205 6.75681 6.21141 6.72484 6.23276 6.68375C6.25411 6.64265 6.26479 6.59547 6.26479 6.5422C6.26479 6.48892 6.25478 6.4425 6.23476 6.40293C6.21475 6.36335 6.18739 6.33291 6.15269 6.3116C6.11799 6.28877 6.07862 6.27736 6.03458 6.27736C5.99055 6.27736 5.94918 6.28877 5.91047 6.3116C5.87311 6.33291 5.84308 6.36411 5.82039 6.40521H5.58618L5.75033 5.43946H6.45096V5.718H5.9445L5.88645 6.08101C5.9038 6.06274 5.92782 6.04752 5.95852 6.03535C5.98921 6.02165 6.02724 6.0148 6.07262 6.0148C6.16203 6.0148 6.2421 6.03687 6.31283 6.08101C6.38356 6.12515 6.43895 6.18679 6.47898 6.26594C6.51902 6.34357 6.53904 6.43337 6.53904 6.53535C6.53904 6.64341 6.51635 6.73854 6.47097 6.82074C6.4256 6.90445 6.36354 6.96914 6.28481 7.0148C6.20607 7.06046 6.11666 7.08329 6.01657 7.08329Z" fill="url(#paint6_linear_177_30760)"/>
<path d="M6.71662 6.25453V5.97827H7.32316V6.25453H6.71662Z" fill="url(#paint7_linear_177_30760)"/>
<path d="M8.1471 6.2043C8.20315 6.21495 8.25186 6.2393 8.29323 6.27736C8.3346 6.31389 8.36663 6.36107 8.38931 6.41891C8.41333 6.47675 8.42534 6.54067 8.42534 6.61069C8.42534 6.70506 8.40399 6.78725 8.36129 6.85726C8.31858 6.92728 8.25786 6.98131 8.17913 7.01937C8.10172 7.05894 8.01031 7.07873 7.90488 7.07873C7.80346 7.07873 7.71338 7.0597 7.63464 7.02165C7.55724 6.98512 7.49251 6.93109 7.44047 6.85955L7.5926 6.64265C7.6273 6.69136 7.66867 6.72941 7.71671 6.75681C7.76609 6.78573 7.82614 6.80019 7.89687 6.80019C7.97828 6.80019 8.04033 6.78116 8.08304 6.74311C8.12574 6.70658 8.1471 6.65102 8.1471 6.57644C8.1471 6.4973 8.12241 6.43641 8.07303 6.39379C8.02365 6.35118 7.94892 6.32987 7.84883 6.32987H7.79278V6.10156H7.85484C7.93624 6.10156 7.99963 6.08025 8.045 6.03763C8.09171 5.99501 8.11507 5.94174 8.11507 5.87781C8.11507 5.83672 8.10639 5.80247 8.08904 5.77507C8.0717 5.74768 8.04767 5.72713 8.01698 5.71343C7.98762 5.69973 7.95292 5.69288 7.91289 5.69288C7.85283 5.69288 7.79812 5.70886 7.74874 5.74083C7.69936 5.77279 7.65933 5.81769 7.62863 5.87553L7.46048 5.66092C7.48851 5.61373 7.52654 5.5734 7.57458 5.53991C7.62396 5.50491 7.68001 5.47751 7.74273 5.45772C7.80679 5.43793 7.87352 5.42804 7.94291 5.42804C8.03366 5.42804 8.11307 5.44478 8.18113 5.47827C8.25052 5.51176 8.30457 5.55894 8.34327 5.61982C8.38197 5.68071 8.40132 5.75148 8.40132 5.83215C8.40132 5.89151 8.39065 5.94783 8.3693 6.0011C8.34794 6.05437 8.31792 6.09927 8.27921 6.1358C8.24185 6.17081 8.19781 6.19364 8.1471 6.2043Z" fill="url(#paint8_linear_177_30760)"/>
<path d="M8.57671 6.74311C8.57671 6.67462 8.58139 6.61297 8.59073 6.55818C8.60007 6.50338 8.61608 6.45239 8.63877 6.40521C8.66279 6.35803 8.69482 6.31389 8.73486 6.27279C8.77623 6.23017 8.82827 6.18908 8.891 6.1495C8.94571 6.11602 8.99375 6.0871 9.03512 6.06274C9.07649 6.03687 9.11119 6.01328 9.13922 5.99197C9.16858 5.97066 9.1906 5.94935 9.20528 5.92804C9.21996 5.90521 9.2273 5.87934 9.2273 5.85042C9.2273 5.81997 9.21996 5.79258 9.20528 5.76822C9.1906 5.74235 9.16991 5.7218 9.14322 5.70658C9.11653 5.69136 9.08317 5.68375 9.04313 5.68375C9.0111 5.68375 8.98108 5.68832 8.95305 5.69745C8.92636 5.70658 8.901 5.71952 8.87698 5.73626C8.8543 5.753 8.83294 5.77203 8.81293 5.79334C8.79291 5.81313 8.77489 5.83443 8.75888 5.85727L8.58873 5.63352C8.60741 5.61221 8.6321 5.58938 8.66279 5.56503C8.69482 5.53915 8.73219 5.51556 8.77489 5.49425C8.81893 5.47142 8.86697 5.45316 8.91902 5.43946C8.9724 5.42424 9.02912 5.41663 9.08917 5.41663C9.17992 5.41663 9.25732 5.43337 9.32138 5.46685C9.38544 5.49882 9.43415 5.54372 9.46751 5.60156C9.50221 5.6594 9.51956 5.72713 9.51956 5.80475C9.51956 5.85803 9.51088 5.90521 9.49353 5.94631C9.47618 5.9874 9.45416 6.02393 9.42747 6.0559C9.40078 6.08634 9.37142 6.11373 9.3394 6.13809C9.3087 6.16244 9.27868 6.18375 9.24932 6.20201C9.20794 6.22637 9.17058 6.2492 9.13722 6.27051C9.10385 6.29029 9.07449 6.31084 9.04914 6.33215C9.02378 6.35194 9.00109 6.37249 8.98108 6.39379C8.96239 6.4151 8.94571 6.43946 8.93103 6.46685H9.54158V6.74311H8.57671Z" fill="url(#paint9_linear_177_30760)"/>
<path d="M10.5714 6.46685V6.74311H9.75868V6.46685H10.0429V5.77507C10.0309 5.79334 10.0122 5.81236 9.98688 5.83215C9.96152 5.85042 9.93283 5.86792 9.9008 5.88466C9.86877 5.90141 9.83675 5.9151 9.80472 5.92576C9.77269 5.93641 9.744 5.94174 9.71864 5.94174V5.65635C9.74266 5.65635 9.77135 5.64798 9.80472 5.63124C9.83942 5.61297 9.87345 5.59166 9.90681 5.56731C9.94151 5.54296 9.97087 5.51937 9.99489 5.49653C10.0202 5.47218 10.0363 5.45316 10.0429 5.43946H10.3172V6.46685H10.5714Z" fill="url(#paint10_linear_177_30760)"/>
<path d="M11.1442 7.08329C11.0414 7.08329 10.9487 7.05818 10.8659 7.00795C10.7832 6.95772 10.7205 6.88923 10.6778 6.80247L10.8319 6.61982C10.8693 6.67918 10.916 6.72637 10.972 6.76137C11.0281 6.79638 11.0861 6.81389 11.1462 6.81389C11.1942 6.81389 11.2363 6.80247 11.2723 6.77964C11.3097 6.75681 11.339 6.72484 11.3604 6.68375C11.3817 6.64265 11.3924 6.59547 11.3924 6.5422C11.3924 6.48892 11.3824 6.4425 11.3624 6.40293C11.3424 6.36335 11.315 6.33291 11.2803 6.3116C11.2456 6.28877 11.2063 6.27736 11.1622 6.27736C11.1182 6.27736 11.0768 6.28877 11.0381 6.3116C11.0007 6.33291 10.9707 6.36411 10.948 6.40521H10.7138L10.878 5.43946H11.5786V5.718H11.0721L11.0141 6.08101C11.0314 6.06274 11.0554 6.04752 11.0861 6.03535C11.1168 6.02165 11.1549 6.0148 11.2002 6.0148C11.2897 6.0148 11.3697 6.03687 11.4405 6.08101C11.5112 6.12515 11.5666 6.18679 11.6066 6.26594C11.6466 6.34357 11.6667 6.43337 11.6667 6.53535C11.6667 6.64341 11.644 6.73854 11.5986 6.82074C11.5532 6.90445 11.4912 6.96914 11.4124 7.0148C11.3337 7.06046 11.2443 7.08329 11.1442 7.08329Z" fill="url(#paint11_linear_177_30760)"/>
<rect x="2.5" y="9.58337" width="4.58333" height="1.66667" rx="0.833333" fill="url(#paint12_linear_177_30760)"/>
<rect x="10.4167" y="9.58337" width="2.08333" height="1.66667" rx="0.833333" fill="url(#paint13_linear_177_30760)"/>
<rect x="7.91667" y="9.58337" width="2.08333" height="1.66667" rx="0.833333" fill="url(#paint14_linear_177_30760)"/>
</g>
<defs>
<linearGradient id="paint0_linear_177_30760" x1="7.70833" y1="1.25" x2="7.70833" y2="2.5" gradientUnits="userSpaceOnUse">
<stop stop-color="#FE5468"/>
<stop offset="1" stop-color="#FFDF27"/>
</linearGradient>
<linearGradient id="paint1_linear_177_30760" x1="7.70833" y1="12.5" x2="7.70833" y2="14.1667" gradientUnits="userSpaceOnUse">
<stop stop-color="#FE5468"/>
<stop offset="1" stop-color="#FFDF27"/>
</linearGradient>
<linearGradient id="paint2_linear_177_30760" x1="7.5" y1="1.66663" x2="7.5" y2="13.3333" gradientUnits="userSpaceOnUse">
<stop stop-color="#10808C"/>
<stop offset="1" stop-color="#1DF7EF"/>
</linearGradient>
<linearGradient id="paint3_linear_177_30760" x1="7.50001" y1="3.75" x2="7.50001" y2="9.16667" gradientUnits="userSpaceOnUse">
<stop stop-color="#10808C"/>
<stop offset="1" stop-color="#1DF7EF"/>
</linearGradient>
<linearGradient id="paint4_linear_177_30760" x1="7.49999" y1="5.41663" x2="7.49999" y2="7.08329" gradientUnits="userSpaceOnUse">
<stop stop-color="#FE5468"/>
<stop offset="1" stop-color="#FFDF27"/>
</linearGradient>
<linearGradient id="paint5_linear_177_30760" x1="7.49999" y1="5.41663" x2="7.49999" y2="7.08329" gradientUnits="userSpaceOnUse">
<stop stop-color="#FE5468"/>
<stop offset="1" stop-color="#FFDF27"/>
</linearGradient>
<linearGradient id="paint6_linear_177_30760" x1="7.49999" y1="5.41663" x2="7.49999" y2="7.08329" gradientUnits="userSpaceOnUse">
<stop stop-color="#FE5468"/>
<stop offset="1" stop-color="#FFDF27"/>
</linearGradient>
<linearGradient id="paint7_linear_177_30760" x1="7.49999" y1="5.41663" x2="7.49999" y2="7.08329" gradientUnits="userSpaceOnUse">
<stop stop-color="#FE5468"/>
<stop offset="1" stop-color="#FFDF27"/>
</linearGradient>
<linearGradient id="paint8_linear_177_30760" x1="7.49999" y1="5.41663" x2="7.49999" y2="7.08329" gradientUnits="userSpaceOnUse">
<stop stop-color="#FE5468"/>
<stop offset="1" stop-color="#FFDF27"/>
</linearGradient>
<linearGradient id="paint9_linear_177_30760" x1="7.49999" y1="5.41663" x2="7.49999" y2="7.08329" gradientUnits="userSpaceOnUse">
<stop stop-color="#FE5468"/>
<stop offset="1" stop-color="#FFDF27"/>
</linearGradient>
<linearGradient id="paint10_linear_177_30760" x1="7.49999" y1="5.41663" x2="7.49999" y2="7.08329" gradientUnits="userSpaceOnUse">
<stop stop-color="#FE5468"/>
<stop offset="1" stop-color="#FFDF27"/>
</linearGradient>
<linearGradient id="paint11_linear_177_30760" x1="7.49999" y1="5.41663" x2="7.49999" y2="7.08329" gradientUnits="userSpaceOnUse">
<stop stop-color="#FE5468"/>
<stop offset="1" stop-color="#FFDF27"/>
</linearGradient>
<linearGradient id="paint12_linear_177_30760" x1="4.79167" y1="9.58337" x2="4.79167" y2="11.25" gradientUnits="userSpaceOnUse">
<stop stop-color="#FE5468"/>
<stop offset="1" stop-color="#FFDF27"/>
</linearGradient>
<linearGradient id="paint13_linear_177_30760" x1="11.4583" y1="9.58337" x2="11.4583" y2="11.25" gradientUnits="userSpaceOnUse">
<stop stop-color="#FE5468"/>
<stop offset="1" stop-color="#FFDF27"/>
</linearGradient>
<linearGradient id="paint14_linear_177_30760" x1="8.95834" y1="9.58337" x2="8.95834" y2="11.25" gradientUnits="userSpaceOnUse">
<stop stop-color="#FE5468"/>
<stop offset="1" stop-color="#FFDF27"/>
</linearGradient>
<clipPath id="clip0_177_30760">
<rect width="15" height="15" fill="white"/>
</clipPath>
</defs>
</svg>
