<svg width="24" height="24" viewBox="0 0 24 24" fill="none" xmlns="http://www.w3.org/2000/svg">
<path fill-rule="evenodd" clip-rule="evenodd" d="M21.3132 13.6902C20.5237 12.8958 19.2875 12.7729 18.359 13.3957L14.0308 16.299C13.5547 16.6184 12.9111 16.4809 12.6049 15.9967L12.5088 15.8446C11.0659 13.5633 8.18743 12.6814 5.72719 13.7644L2.7125 15.0915C2.01849 15.397 1.48496 15.9844 1.24499 16.7088L1.1376 17.0329C1.04647 17.308 1 17.5961 1 17.8861V19.9678C1 20.7687 1.35359 21.5277 1.96423 22.0397L2.01533 22.0826C3.4931 23.3216 5.35556 24 7.27862 24H11.3045C14.0369 24 16.6268 22.7705 18.3646 20.6473L21.4652 16.8591C22.2329 15.921 22.167 14.5492 21.3132 13.6902ZM19.2777 14.7888C19.5494 14.6066 19.9112 14.6429 20.1415 14.8746C20.3897 15.1243 20.4086 15.5218 20.1858 15.794L17.0852 19.5823C15.663 21.3198 13.5427 22.3269 11.3045 22.3269H7.27862C5.74261 22.3269 4.25547 21.7851 3.07591 20.7961L3.02481 20.7532C2.79265 20.5585 2.65895 20.2707 2.65895 19.9678V17.8861C2.65895 17.7764 2.67653 17.6673 2.71105 17.5631L2.81844 17.239C2.90931 16.9647 3.11168 16.7413 3.37616 16.6249L6.39084 15.2978C8.10413 14.5436 10.1072 15.1587 11.1101 16.7444L11.2063 16.8964C11.4102 17.2189 11.6708 17.4828 11.9664 17.6835L11.5393 17.97C11.3719 18.0823 11.175 18.1424 10.9734 18.1424H6.31385V19.8154H10.9734C11.5016 19.8154 12.0182 19.6581 12.458 19.3631L14.8797 17.7374C14.9031 17.7227 14.9264 17.7076 14.9496 17.692L19.2777 14.7888Z" fill="url(#paint0_linear_3218_86799)"/>
<path fill-rule="evenodd" clip-rule="evenodd" d="M16.5 9.42857C18.6697 9.42857 20.4286 7.66969 20.4286 5.5C20.4286 3.33031 18.6697 1.57143 16.5 1.57143C14.3303 1.57143 12.5714 3.33031 12.5714 5.5C12.5714 7.66969 14.3303 9.42857 16.5 9.42857ZM16.5 11C19.5376 11 22 8.53757 22 5.5C22 2.46243 19.5376 0 16.5 0C13.4624 0 11 2.46243 11 5.5C11 8.53757 13.4624 11 16.5 11Z" fill="url(#paint1_linear_3218_86799)"/>
<path fill-rule="evenodd" clip-rule="evenodd" d="M18.5663 3.9C18.5663 4.12091 18.3872 4.3 18.1663 4.3H14.833C14.6121 4.3 14.433 4.12091 14.433 3.9C14.433 3.67909 14.6121 3.5 14.833 3.5H18.1663C18.3872 3.5 18.5663 3.67909 18.5663 3.9ZM18.1663 5.5C18.1663 5.72091 17.9872 5.9 17.7663 5.9H15.233C15.0121 5.9 14.833 5.72091 14.833 5.5C14.833 5.27909 15.0121 5.1 15.233 5.1H17.7663C17.9872 5.1 18.1663 5.27909 18.1663 5.5ZM19.0003 7.1C19.0003 7.32091 18.8212 7.5 18.6003 7.5H14.4003C14.1794 7.5 14.0003 7.32091 14.0003 7.1C14.0003 6.87909 14.1794 6.7 14.4003 6.7H18.6003C18.8212 6.7 19.0003 6.87909 19.0003 7.1Z" fill="url(#paint2_linear_3218_86799)"/>
<defs>
<linearGradient id="paint0_linear_3218_86799" x1="11.5" y1="13" x2="11.5" y2="24" gradientUnits="userSpaceOnUse">
<stop stop-color="#10808C"/>
<stop offset="1" stop-color="#1DF7EF"/>
</linearGradient>
<linearGradient id="paint1_linear_3218_86799" x1="16.5" y1="0" x2="16.5" y2="11" gradientUnits="userSpaceOnUse">
<stop stop-color="#FE5468"/>
<stop offset="1" stop-color="#FFDF27"/>
</linearGradient>
<linearGradient id="paint2_linear_3218_86799" x1="16.5003" y1="3.5" x2="16.5003" y2="7.5" gradientUnits="userSpaceOnUse">
<stop stop-color="#10808C"/>
<stop offset="1" stop-color="#1DF7EF"/>
</linearGradient>
</defs>
</svg>
