<svg width="15" height="15" viewBox="0 0 15 15" fill="none" xmlns="http://www.w3.org/2000/svg">
<path fill-rule="evenodd" clip-rule="evenodd" d="M7.50002 0.625C7.73791 0.625 7.95517 0.760045 8.06046 0.97336L9.84643 4.59154L13.8404 5.17532C14.0758 5.20972 14.2712 5.37473 14.3445 5.60098C14.4179 5.82723 14.3565 6.07552 14.1861 6.24147L11.2966 9.05585L11.9785 13.0318C12.0187 13.2663 11.9223 13.5033 11.7299 13.6432C11.5374 13.783 11.2822 13.8014 11.0716 13.6907L7.50002 11.8124L3.92843 13.6907C3.71785 13.8014 3.46267 13.783 3.27018 13.6432C3.0777 13.5033 2.9813 13.2663 3.02151 13.0318L3.70344 9.05585L0.813935 6.24147C0.643549 6.07552 0.582128 5.82723 0.655489 5.60098C0.72885 5.37473 0.924276 5.20972 1.15963 5.17532L5.1536 4.59154L6.93958 0.97336C7.04487 0.760045 7.26213 0.625 7.50002 0.625ZM7.50002 2.66203L6.12921 5.43914C6.03825 5.62342 5.86251 5.75121 5.65916 5.78093L2.59278 6.22913L4.8111 8.38978C4.95852 8.53336 5.02581 8.74032 4.99102 8.94315L4.46763 11.9948L7.20911 10.5531C7.39123 10.4573 7.60881 10.4573 7.79093 10.5531L10.5324 11.9948L10.009 8.94315C9.97423 8.74032 10.0415 8.53336 10.1889 8.38978L12.4073 6.22913L9.34088 5.78093C9.13753 5.75121 8.96179 5.62342 8.87083 5.43914L7.50002 2.66203Z" fill="url(#paint0_linear_177_29777)"/>
<defs>
<linearGradient id="paint0_linear_177_29777" x1="7.50002" y1="0.625" x2="7.50002" y2="13.7625" gradientUnits="userSpaceOnUse">
<stop stop-color="#FE5468"/>
<stop offset="1" stop-color="#FFDF27"/>
</linearGradient>
</defs>
</svg>
