<svg width="15" height="15" viewBox="0 0 15 15" fill="none" xmlns="http://www.w3.org/2000/svg">
<g clip-path="url(#clip0_7416_32453)">
<path fill-rule="evenodd" clip-rule="evenodd" d="M7.5 14.0625C11.1244 14.0625 14.0625 11.1244 14.0625 7.5C14.0625 3.87563 11.1244 0.9375 7.5 0.9375C3.87563 0.9375 0.9375 3.87563 0.9375 7.5C0.9375 11.1244 3.87563 14.0625 7.5 14.0625ZM7.5 15C11.6421 15 15 11.6421 15 7.5C15 3.35786 11.6421 0 7.5 0C3.35786 0 0 3.35786 0 7.5C0 11.6421 3.35786 15 7.5 15Z" fill="url(#paint0_linear_7416_32453)"/>
<path fill-rule="evenodd" clip-rule="evenodd" d="M9.50525 5.94686C9.50525 4.79631 8.60749 3.8636 7.50004 3.8636C6.39259 3.8636 5.49483 4.79631 5.49483 5.94686V10.3031H9.50525V5.94686ZM10.4167 5.94713V10.9343C10.4167 11.1087 10.2807 11.25 10.1129 11.25H4.88719C4.7194 11.25 4.58337 11.1087 4.58337 10.9343V5.94713C4.58337 4.27359 5.88921 2.91666 7.50004 2.91666C9.11087 2.91666 10.4167 4.27359 10.4167 5.94713Z" fill="url(#paint1_linear_7416_32453)"/>
</g>
<defs>
<linearGradient id="paint0_linear_7416_32453" x1="7.5" y1="0" x2="7.5" y2="15" gradientUnits="userSpaceOnUse">
<stop stop-color="#10808C"/>
<stop offset="1" stop-color="#1DF7EF"/>
</linearGradient>
<linearGradient id="paint1_linear_7416_32453" x1="7.50004" y1="2.91666" x2="13.4461" y2="8.76831" gradientUnits="userSpaceOnUse">
<stop stop-color="#FE5468"/>
<stop offset="1" stop-color="#FFDF27"/>
</linearGradient>
<clipPath id="clip0_7416_32453">
<rect width="15" height="15" fill="white"/>
</clipPath>
</defs>
</svg>
