<svg width="16" height="16" viewBox="0 0 16 16" fill="none" xmlns="http://www.w3.org/2000/svg">
<g clip-path="url(#clip0_7416_31956)">
<path fill-rule="evenodd" clip-rule="evenodd" d="M6.70909 11.7426C6.70745 11.741 6.705 11.7385 6.70336 11.7369L6.55336 11.5875C6.51483 11.6446 6.46975 11.6985 6.41975 11.7491C6.2132 11.9548 5.93862 12.0675 5.64682 12.0675C5.3542 12.0675 5.07962 11.9548 4.87307 11.7491L2.05673 8.94325C1.40183 8.29178 1.03954 7.40602 1.04528 6.48924L0.62971 6.07534C0.456763 5.90308 0.456763 5.6247 0.62971 5.45245C0.802658 5.28019 1.08298 5.28019 1.25511 5.45245L1.80674 6.00105C1.8969 6.09085 1.94362 6.21494 1.93542 6.34147C1.88706 7.07784 2.15919 7.79951 2.68213 8.32036L5.49928 11.1254C5.53863 11.1646 5.59108 11.1866 5.64682 11.1866C5.70256 11.1866 5.75501 11.1654 5.79436 11.1254C5.8337 11.0862 5.85583 11.034 5.85583 10.9785C5.85583 10.9229 5.8337 10.8707 5.79436 10.8315L4.50422 9.54655C4.33127 9.37511 4.33127 9.09591 4.50422 8.92366C4.67717 8.7514 4.95749 8.7514 5.13044 8.92366L7.33531 11.1197C7.37465 11.1589 7.42711 11.1809 7.48285 11.1809C7.53859 11.1809 7.59104 11.1589 7.63039 11.1197C7.66973 11.0805 7.69186 11.0283 7.69186 10.9727C7.69186 10.9172 7.66973 10.865 7.63039 10.8258L5.42551 8.62895C5.25257 8.45751 5.25257 8.17831 5.42551 8.00605C5.59846 7.8338 5.87878 7.8338 6.05091 8.00605L8.63692 10.5817C8.67627 10.6209 8.72872 10.6421 8.78446 10.6421C8.8402 10.6421 8.89266 10.6209 8.932 10.5817C9.01396 10.5001 9.01314 10.3686 8.932 10.287L8.43365 9.79064C8.43119 9.78819 8.42873 9.78574 8.42791 9.78574L6.37221 7.73747C6.19927 7.56521 6.19927 7.28602 6.37221 7.11458C6.54434 6.94232 6.82467 6.94232 6.99761 7.11458L9.05659 9.16449C9.13773 9.24367 9.26888 9.24286 9.3492 9.16204C9.38855 9.12285 9.41068 9.0706 9.41068 9.01509C9.41068 8.95958 9.38855 8.90733 9.3492 8.86814L6.48615 6.01656C6.34189 5.87288 6.31484 5.64838 6.42139 5.4753C6.52795 5.30142 6.74024 5.22305 6.9345 5.28509L8.24103 5.7047C8.25005 5.70715 8.25988 5.71124 8.2689 5.7145C8.32054 5.73491 8.37709 5.73409 8.42873 5.71205C8.48037 5.69001 8.51971 5.65001 8.5402 5.59858C8.5607 5.54633 8.55988 5.49 8.53774 5.43857C8.51561 5.38795 8.47545 5.34877 8.42299 5.32754L6.5009 4.56587L5.96567 4.38627C5.93206 4.37565 5.90009 4.36014 5.86977 4.34137C5.81649 4.30789 5.76075 4.27524 5.70502 4.24585C5.24355 4.00175 4.72225 3.90542 4.19931 3.96665C4.06489 3.98216 3.93046 3.93563 3.83456 3.84011C3.83374 3.8393 3.83292 3.83766 3.83128 3.83685L2.58869 2.49963C2.4182 2.32738 2.41902 2.04981 2.59115 1.87919C2.76409 1.70694 3.04441 1.70694 3.21654 1.87919C3.21818 1.88001 3.219 1.88164 3.22064 1.88246L4.31816 3.07191C4.9452 3.03844 5.56404 3.17396 6.11976 3.46785C6.17878 3.49887 6.23779 3.53234 6.29517 3.56745L6.79352 3.73399C6.80089 3.73643 6.80909 3.7397 6.81647 3.74215L8.273 4.32014C8.7025 3.94706 9.35576 3.9642 9.76395 4.37157L11.4049 6.00513C11.4033 5.85492 11.4328 5.7047 11.4942 5.56266C11.6098 5.2957 11.8229 5.08916 12.0942 4.9814C12.3655 4.87446 12.6631 4.87772 12.9311 4.99283C13.1999 5.10794 13.4073 5.32019 13.5155 5.59123L14.2852 7.51705C14.2884 7.5244 14.2909 7.53256 14.2934 7.53991C14.2934 7.53991 14.4606 8.03626 14.4598 8.03463C14.495 8.09259 14.5294 8.15137 14.5606 8.21096C14.8565 8.7661 14.9925 9.38327 14.9573 10.0102L15.3704 10.4364L15.372 10.438C15.5433 10.6103 15.5425 10.8878 15.3704 11.0593C15.1974 11.2315 14.9171 11.2315 14.745 11.0593L14.7434 11.0576C14.7434 11.0576 14.1852 10.4854 14.1868 10.487C14.0909 10.3915 14.0442 10.2576 14.0606 10.1237C14.1212 9.60288 14.0245 9.08448 13.7794 8.62405C13.7499 8.56853 13.7171 8.51302 13.6835 8.45996C13.6647 8.42975 13.6499 8.39791 13.6385 8.36526L13.459 7.83217L12.6934 5.91696C12.6729 5.86471 12.6327 5.82471 12.5819 5.80267C12.5303 5.78063 12.4737 5.77981 12.4221 5.80022C12.3147 5.84267 12.2623 5.96431 12.3049 6.07044C12.309 6.08024 12.3123 6.09003 12.3147 6.0982L12.736 7.39949C12.736 7.40112 12.7377 7.40602 12.7377 7.40765C12.7467 7.44276 12.7393 7.4795 12.718 7.50888C12.6975 7.53664 12.6672 7.5546 12.6327 7.55868C12.6327 7.5595 12.6327 7.56032 12.6327 7.56195C12.6606 7.55868 12.686 7.54644 12.7057 7.52684C12.7106 7.52195 12.7147 7.51786 12.718 7.51297C12.7409 7.48276 12.7483 7.44357 12.7377 7.40765C12.7442 7.42725 12.7483 7.44684 12.7516 7.46643C12.7516 7.46888 12.7516 7.47215 12.7508 7.47541L12.7524 7.47296C12.7557 7.49419 12.7565 7.51623 12.7565 7.53827C12.7565 7.54236 12.7565 7.54644 12.7565 7.55052C12.7557 7.57093 12.7532 7.59215 12.75 7.61338C12.7491 7.6142 12.7475 7.62236 12.7475 7.62481C12.7426 7.64603 12.7368 7.66808 12.7295 7.68849C12.7213 7.7089 12.7122 7.72849 12.7016 7.74727L12.6967 7.75706C12.6877 7.77176 12.6778 7.78727 12.6672 7.80115C12.6532 7.81911 12.536 7.9783 12.4286 8.22158C12.2655 8.59384 12.1237 9.16612 12.4295 9.73513C12.4877 9.84452 12.5614 9.95392 12.6557 10.0617C12.8163 10.2445 12.7967 10.5229 12.6131 10.6829C12.5286 10.7556 12.4254 10.7915 12.3221 10.7915C12.1991 10.7915 12.0762 10.7401 11.9885 10.6405C11.0508 9.56777 11.3475 8.32199 11.75 7.59542L9.40904 5.26386C9.45576 5.45245 9.45002 5.64919 9.39264 5.83614L10.8992 7.33663C11.0721 7.50888 11.0721 7.78808 10.8992 7.96034C10.727 8.13178 10.4467 8.13178 10.2738 7.96034L8.81397 6.50557C8.80249 6.51128 8.7902 6.51618 8.77872 6.52189C8.6361 6.58312 8.48529 6.61251 8.33447 6.61088L9.9746 8.24525C10.1812 8.45098 10.2951 8.72446 10.2951 9.01509C10.2951 9.30653 10.182 9.58002 9.97542 9.78574C9.91067 9.84942 9.84018 9.90412 9.76395 9.94983C9.9664 10.3572 9.89837 10.8658 9.55739 11.2046C9.50658 11.2552 9.45084 11.3001 9.39183 11.3393L9.68854 11.6348C10.2115 12.1557 10.9352 12.4267 11.6754 12.3785C11.8024 12.3712 11.927 12.4169 12.0155 12.5059L13.6926 14.1207L13.6942 14.1223C13.8671 14.2946 13.8671 14.5738 13.6942 14.746C13.6081 14.8317 13.495 14.875 13.3819 14.875C13.2688 14.875 13.1549 14.8317 13.0704 14.7468C13.0704 14.7468 11.5287 13.2659 11.5295 13.2659C10.6066 13.2716 9.71805 12.9108 9.06314 12.2585L8.38693 11.585C8.34922 11.6414 8.30496 11.6936 8.25578 11.7426C8.04923 11.9483 7.77465 12.0618 7.48285 12.0618C7.19105 12.0618 6.91647 11.9483 6.70909 11.7426Z" fill="url(#paint0_linear_7416_31956)"/>
<path fill-rule="evenodd" clip-rule="evenodd" d="M4.76812 12.1138C4.95909 12.2613 4.98973 12.5283 4.8357 12.711L3.78497 13.9626C3.69696 14.0672 3.56886 14.1213 3.4384 14.1213C3.34095 14.1213 3.24271 14.0913 3.16098 14.0281C2.97001 13.8806 2.93936 13.6136 3.0934 13.4309L4.14412 12.1793C4.29737 11.9965 4.57715 11.9672 4.76812 12.1138ZM2.64308 11.1308C2.88435 11.0924 3.11304 11.2496 3.15312 11.4805C3.19242 11.7122 3.02895 11.9311 2.7869 11.9687L1.64108 12.1499C1.61672 12.1537 1.59236 12.1552 1.568 12.1552C1.35502 12.1552 1.16641 12.0078 1.13104 11.7994C1.09096 11.5685 1.25443 11.3496 1.49648 11.3113L2.64308 11.1308ZM6.68724 13.3173L6.74933 14.4275C6.76269 14.6614 6.57486 14.8615 6.33045 14.8742C6.32181 14.875 6.31395 14.875 6.30609 14.875C6.0719 14.875 5.87543 14.6997 5.86285 14.4733L5.80077 13.3624C5.78741 13.1285 5.97523 12.9284 6.22043 12.9156C6.46484 12.9028 6.67388 13.0826 6.68724 13.3173Z" fill="url(#paint1_linear_7416_31956)"/>
<path fill-rule="evenodd" clip-rule="evenodd" d="M8.20695 3.88078C7.99175 3.75013 7.90505 3.43509 8.0142 3.17751L8.75965 1.41237C8.86879 1.15478 9.13198 1.051 9.34718 1.18165C9.56237 1.3123 9.64907 1.62641 9.53993 1.88493L8.79448 3.65006C8.71784 3.83167 8.5638 3.9373 8.40434 3.9373C8.33777 3.9373 8.27042 3.91877 8.20695 3.88078ZM10.2467 4.875C10.0717 4.875 9.90684 4.74899 9.8395 4.54236C9.75125 4.27272 9.86272 3.96973 10.0872 3.8641L11.1539 3.36653C11.3784 3.2609 11.6323 3.39433 11.7198 3.66303C11.808 3.93267 11.6965 4.23566 11.4713 4.34129L10.4054 4.83886C10.3535 4.86388 10.2993 4.875 10.2467 4.875ZM6.43661 3.10709L6.14013 1.78393C6.07743 1.50503 6.21522 1.21779 6.44899 1.14274C6.68199 1.06861 6.92196 1.23354 6.98466 1.51244L7.28114 2.8356C7.34384 3.1145 7.20528 3.40174 6.97228 3.47679C6.93435 3.48884 6.89642 3.4944 6.85849 3.4944C6.66574 3.4944 6.48925 3.34058 6.43661 3.10709Z" fill="url(#paint2_linear_7416_31956)"/>
</g>
<defs>
<linearGradient id="paint0_linear_7416_31956" x1="8" y1="1.75" x2="8" y2="14.875" gradientUnits="userSpaceOnUse">
<stop stop-color="#10808C"/>
<stop offset="1" stop-color="#1DF7EF"/>
</linearGradient>
<linearGradient id="paint1_linear_7416_31956" x1="3.9375" y1="11.125" x2="6.00952" y2="15.4946" gradientUnits="userSpaceOnUse">
<stop stop-color="#FE5468"/>
<stop offset="1" stop-color="#FFDF27"/>
</linearGradient>
<linearGradient id="paint2_linear_7416_31956" x1="8.9375" y1="1.125" x2="11.0095" y2="5.49457" gradientUnits="userSpaceOnUse">
<stop stop-color="#FE5468"/>
<stop offset="1" stop-color="#FFDF27"/>
</linearGradient>
<clipPath id="clip0_7416_31956">
<rect width="15" height="15" fill="white" transform="translate(0.5 0.5)"/>
</clipPath>
</defs>
</svg>
