<svg width="24" height="24" viewBox="0 0 24 24" fill="none" xmlns="http://www.w3.org/2000/svg">
<path d="M5.87788 0C5.05416 0 4.26417 0.34422 3.68171 0.956936C3.09926 1.56965 2.77203 2.40067 2.77203 3.26718V8.7851H4.8426V3.26718C4.8426 2.97835 4.95167 2.70134 5.14582 2.4971C5.33997 2.29286 5.6033 2.17812 5.87788 2.17812H13.7313L19.3365 8.07454V8.7851H20.2454C20.887 8.7851 21.4071 8.265 21.4071 7.62343C21.4071 7.33459 21.298 7.05759 21.1039 6.85335L14.8922 0.318979C14.698 0.11474 14.4347 0 14.1601 0H5.87788Z" fill="url(#paint0_linear_3218_87591)"/>
<path d="M21.4071 19.9661H19.3365V20.6922C19.3365 20.981 19.2275 21.258 19.0333 21.4623C18.8391 21.6665 18.5758 21.7812 18.3012 21.7812H5.87788C5.6033 21.7812 5.33998 21.6665 5.14582 21.4623C4.95167 21.258 4.8426 20.981 4.8426 20.6922V19.9661H2.77203V20.6922C2.77203 21.5587 3.09926 22.3897 3.68171 23.0024C4.26417 23.6151 5.05416 23.9594 5.87788 23.9594H18.3012C19.125 23.9594 19.9149 23.6151 20.4974 23.0024C21.0799 22.3897 21.4071 21.5587 21.4071 20.6922V19.9661Z" fill="url(#paint1_linear_3218_87591)"/>
<path fill-rule="evenodd" clip-rule="evenodd" d="M14.4173 0C14.9687 0 15.4156 0.52145 15.4156 1.16469V6.65538H20.4072C20.9585 6.65538 21.4055 7.17683 21.4055 7.82007C21.4055 8.46331 20.9585 8.98476 20.4072 8.98476H14.4173C13.866 8.98476 13.419 8.46331 13.419 7.82007V1.16469C13.419 0.52145 13.866 0 14.4173 0Z" fill="url(#paint2_linear_3218_87591)"/>
<path d="M0.899994 18.3448V10.4559H4.24444C4.6074 10.4559 4.94073 10.53 5.24444 10.6782C5.54814 10.8263 5.81111 11.0263 6.03333 11.2782C6.26296 11.53 6.44073 11.8115 6.56666 12.1226C6.69259 12.4337 6.75555 12.7522 6.75555 13.0782C6.75555 13.5226 6.65185 13.9448 6.44444 14.3448C6.23703 14.7448 5.95185 15.0708 5.58888 15.3226C5.22592 15.5745 4.79629 15.7004 4.29999 15.7004H2.43333V18.3448H0.899994ZM2.43333 14.3559H4.2111C4.39629 14.3559 4.56296 14.3041 4.71111 14.2004C4.85925 14.0967 4.97777 13.9485 5.06666 13.7559C5.15555 13.5559 5.19999 13.33 5.19999 13.0782C5.19999 12.8041 5.14814 12.5708 5.04444 12.3782C4.94814 12.1856 4.81851 12.0411 4.65555 11.9448C4.49999 11.8485 4.32962 11.8004 4.14444 11.8004H2.43333V14.3559Z" fill="url(#paint3_linear_3218_87591)"/>
<path d="M9.1996 13.2782V18.3448H7.66627V10.4559H8.88849L12.9663 15.6559V10.4671H14.4996V18.3448H13.2218L9.1996 13.2782Z" fill="url(#paint4_linear_3218_87591)"/>
<path d="M18.9302 18.4004C18.419 18.4004 17.9339 18.2967 17.4746 18.0893C17.0227 17.8819 16.6227 17.5967 16.2746 17.2337C15.9339 16.8634 15.6672 16.4337 15.4746 15.9448C15.282 15.4559 15.1857 14.9263 15.1857 14.3559C15.1857 13.8152 15.282 13.3078 15.4746 12.8337C15.6672 12.3522 15.9376 11.93 16.2857 11.5671C16.6339 11.2041 17.0413 10.9189 17.5079 10.7115C17.9746 10.5041 18.482 10.4004 19.0302 10.4004C19.7709 10.4004 20.4042 10.5596 20.9302 10.8782C21.4635 11.1893 21.8635 11.6041 22.1302 12.1226L20.9857 12.9671C20.7857 12.5745 20.5042 12.2745 20.1413 12.0671C19.7857 11.8596 19.3968 11.7559 18.9746 11.7559C18.6413 11.7559 18.3376 11.8263 18.0635 11.9671C17.7894 12.1078 17.5524 12.3004 17.3524 12.5448C17.1524 12.7893 16.9968 13.0708 16.8857 13.3893C16.782 13.7078 16.7302 14.0448 16.7302 14.4004C16.7302 14.7782 16.7857 15.1263 16.8968 15.4448C17.0153 15.7634 17.1783 16.0411 17.3857 16.2782C17.6005 16.5152 17.8487 16.7041 18.1302 16.8448C18.4116 16.9782 18.7227 17.0448 19.0635 17.0448C19.4635 17.0448 19.845 16.9411 20.2079 16.7337C20.5783 16.5263 20.9227 16.2226 21.2413 15.8226V17.3337C20.582 18.0448 19.8116 18.4004 18.9302 18.4004ZM21.1302 15.4115H19.5413V14.2893H22.3968V18.3448H21.1302V15.4115Z" fill="url(#paint5_linear_3218_87591)"/>
<defs>
<linearGradient id="paint0_linear_3218_87591" x1="12.0896" y1="0" x2="12.0896" y2="23.9594" gradientUnits="userSpaceOnUse">
<stop stop-color="#10808C"/>
<stop offset="1" stop-color="#1DF7EF"/>
</linearGradient>
<linearGradient id="paint1_linear_3218_87591" x1="12.0896" y1="0" x2="12.0896" y2="23.9594" gradientUnits="userSpaceOnUse">
<stop stop-color="#10808C"/>
<stop offset="1" stop-color="#1DF7EF"/>
</linearGradient>
<linearGradient id="paint2_linear_3218_87591" x1="17.4123" y1="0" x2="17.4123" y2="8.98476" gradientUnits="userSpaceOnUse">
<stop stop-color="#FE5468"/>
<stop offset="1" stop-color="#FFDF27"/>
</linearGradient>
<linearGradient id="paint3_linear_3218_87591" x1="11.6484" y1="10.4004" x2="11.6484" y2="18.4004" gradientUnits="userSpaceOnUse">
<stop stop-color="#FE5468"/>
<stop offset="1" stop-color="#FFDF27"/>
</linearGradient>
<linearGradient id="paint4_linear_3218_87591" x1="11.6484" y1="10.4004" x2="11.6484" y2="18.4004" gradientUnits="userSpaceOnUse">
<stop stop-color="#FE5468"/>
<stop offset="1" stop-color="#FFDF27"/>
</linearGradient>
<linearGradient id="paint5_linear_3218_87591" x1="11.6484" y1="10.4004" x2="11.6484" y2="18.4004" gradientUnits="userSpaceOnUse">
<stop stop-color="#FE5468"/>
<stop offset="1" stop-color="#FFDF27"/>
</linearGradient>
</defs>
</svg>
