<svg width="24" height="24" viewBox="0 0 24 24" fill="none" xmlns="http://www.w3.org/2000/svg">
<path d="M1 8C1 7.44772 1.44772 7 2 7H4C4.55228 7 5 7.44772 5 8V10C5 10.5523 4.55228 11 4 11H2C1.44772 11 1 10.5523 1 10V8Z" fill="url(#paint0_linear_4135_68201)"/>
<path d="M1 20C1 19.4477 1.44772 19 2 19H4C4.55228 19 5 19.4477 5 20V22C5 22.5523 4.55228 23 4 23H2C1.44772 23 1 22.5523 1 22V20Z" fill="url(#paint1_linear_4135_68201)"/>
<path d="M7 2C7 1.44772 7.44772 1 8 1H10C10.5523 1 11 1.44772 11 2V4C11 4.55228 10.5523 5 10 5H8C7.44772 5 7 4.55228 7 4V2Z" fill="url(#paint2_linear_4135_68201)"/>
<path d="M7 14C7 13.4477 7.44772 13 8 13H10C10.5523 13 11 13.4477 11 14V16C11 16.5523 10.5523 17 10 17H8C7.44772 17 7 16.5523 7 16V14Z" fill="url(#paint3_linear_4135_68201)"/>
<path d="M13 8C13 7.44772 13.4477 7 14 7H16C16.5523 7 17 7.44772 17 8V10C17 10.5523 16.5523 11 16 11H14C13.4477 11 13 10.5523 13 10V8Z" fill="url(#paint4_linear_4135_68201)"/>
<path d="M13 20C13 19.4477 13.4477 19 14 19H16C16.5523 19 17 19.4477 17 20V22C17 22.5523 16.5523 23 16 23H14C13.4477 23 13 22.5523 13 22V20Z" fill="url(#paint5_linear_4135_68201)"/>
<path d="M19 2C19 1.44772 19.4477 1 20 1H22C22.5523 1 23 1.44772 23 2V4C23 4.55228 22.5523 5 22 5H20C19.4477 5 19 4.55228 19 4V2Z" fill="url(#paint6_linear_4135_68201)"/>
<path d="M19 14C19 13.4477 19.4477 13 20 13H22C22.5523 13 23 13.4477 23 14V16C23 16.5523 22.5523 17 22 17H20C19.4477 17 19 16.5523 19 16V14Z" fill="url(#paint7_linear_4135_68201)"/>
<path d="M1 2C1 1.44772 1.44772 1 2 1H4C4.55228 1 5 1.44772 5 2V4C5 4.55228 4.55228 5 4 5H2C1.44772 5 1 4.55228 1 4V2Z" fill="url(#paint8_linear_4135_68201)"/>
<path d="M1 14C1 13.4477 1.44772 13 2 13H4C4.55228 13 5 13.4477 5 14V16C5 16.5523 4.55228 17 4 17H2C1.44772 17 1 16.5523 1 16V14Z" fill="url(#paint9_linear_4135_68201)"/>
<path d="M7 8C7 7.44772 7.44772 7 8 7H10C10.5523 7 11 7.44772 11 8V10C11 10.5523 10.5523 11 10 11H8C7.44772 11 7 10.5523 7 10V8Z" fill="url(#paint10_linear_4135_68201)"/>
<path d="M7 20C7 19.4477 7.44772 19 8 19H10C10.5523 19 11 19.4477 11 20V22C11 22.5523 10.5523 23 10 23H8C7.44772 23 7 22.5523 7 22V20Z" fill="url(#paint11_linear_4135_68201)"/>
<path d="M13 2C13 1.44772 13.4477 1 14 1H16C16.5523 1 17 1.44772 17 2V4C17 4.55228 16.5523 5 16 5H14C13.4477 5 13 4.55228 13 4V2Z" fill="url(#paint12_linear_4135_68201)"/>
<path d="M13 14C13 13.4477 13.4477 13 14 13H16C16.5523 13 17 13.4477 17 14V16C17 16.5523 16.5523 17 16 17H14C13.4477 17 13 16.5523 13 16V14Z" fill="url(#paint13_linear_4135_68201)"/>
<path d="M19 8C19 7.44772 19.4477 7 20 7H22C22.5523 7 23 7.44772 23 8V10C23 10.5523 22.5523 11 22 11H20C19.4477 11 19 10.5523 19 10V8Z" fill="url(#paint14_linear_4135_68201)"/>
<path d="M19 20C19 19.4477 19.4477 19 20 19H22C22.5523 19 23 19.4477 23 20V22C23 22.5523 22.5523 23 22 23H20C19.4477 23 19 22.5523 19 22V20Z" fill="url(#paint15_linear_4135_68201)"/>
<defs>
<linearGradient id="paint0_linear_4135_68201" x1="12" y1="1" x2="12" y2="23" gradientUnits="userSpaceOnUse">
<stop stop-color="#10808C"/>
<stop offset="1" stop-color="#1DF7EF"/>
</linearGradient>
<linearGradient id="paint1_linear_4135_68201" x1="12" y1="1" x2="12" y2="23" gradientUnits="userSpaceOnUse">
<stop stop-color="#10808C"/>
<stop offset="1" stop-color="#1DF7EF"/>
</linearGradient>
<linearGradient id="paint2_linear_4135_68201" x1="12" y1="1" x2="12" y2="23" gradientUnits="userSpaceOnUse">
<stop stop-color="#10808C"/>
<stop offset="1" stop-color="#1DF7EF"/>
</linearGradient>
<linearGradient id="paint3_linear_4135_68201" x1="12" y1="1" x2="12" y2="23" gradientUnits="userSpaceOnUse">
<stop stop-color="#10808C"/>
<stop offset="1" stop-color="#1DF7EF"/>
</linearGradient>
<linearGradient id="paint4_linear_4135_68201" x1="12" y1="1" x2="12" y2="23" gradientUnits="userSpaceOnUse">
<stop stop-color="#10808C"/>
<stop offset="1" stop-color="#1DF7EF"/>
</linearGradient>
<linearGradient id="paint5_linear_4135_68201" x1="12" y1="1" x2="12" y2="23" gradientUnits="userSpaceOnUse">
<stop stop-color="#10808C"/>
<stop offset="1" stop-color="#1DF7EF"/>
</linearGradient>
<linearGradient id="paint6_linear_4135_68201" x1="12" y1="1" x2="12" y2="23" gradientUnits="userSpaceOnUse">
<stop stop-color="#10808C"/>
<stop offset="1" stop-color="#1DF7EF"/>
</linearGradient>
<linearGradient id="paint7_linear_4135_68201" x1="12" y1="1" x2="12" y2="23" gradientUnits="userSpaceOnUse">
<stop stop-color="#10808C"/>
<stop offset="1" stop-color="#1DF7EF"/>
</linearGradient>
<linearGradient id="paint8_linear_4135_68201" x1="12" y1="1" x2="12" y2="23" gradientUnits="userSpaceOnUse">
<stop stop-color="#FE5468"/>
<stop offset="1" stop-color="#FFDF27"/>
</linearGradient>
<linearGradient id="paint9_linear_4135_68201" x1="12" y1="1" x2="12" y2="23" gradientUnits="userSpaceOnUse">
<stop stop-color="#FE5468"/>
<stop offset="1" stop-color="#FFDF27"/>
</linearGradient>
<linearGradient id="paint10_linear_4135_68201" x1="12" y1="1" x2="12" y2="23" gradientUnits="userSpaceOnUse">
<stop stop-color="#FE5468"/>
<stop offset="1" stop-color="#FFDF27"/>
</linearGradient>
<linearGradient id="paint11_linear_4135_68201" x1="12" y1="1" x2="12" y2="23" gradientUnits="userSpaceOnUse">
<stop stop-color="#FE5468"/>
<stop offset="1" stop-color="#FFDF27"/>
</linearGradient>
<linearGradient id="paint12_linear_4135_68201" x1="12" y1="1" x2="12" y2="23" gradientUnits="userSpaceOnUse">
<stop stop-color="#FE5468"/>
<stop offset="1" stop-color="#FFDF27"/>
</linearGradient>
<linearGradient id="paint13_linear_4135_68201" x1="12" y1="1" x2="12" y2="23" gradientUnits="userSpaceOnUse">
<stop stop-color="#FE5468"/>
<stop offset="1" stop-color="#FFDF27"/>
</linearGradient>
<linearGradient id="paint14_linear_4135_68201" x1="12" y1="1" x2="12" y2="23" gradientUnits="userSpaceOnUse">
<stop stop-color="#FE5468"/>
<stop offset="1" stop-color="#FFDF27"/>
</linearGradient>
<linearGradient id="paint15_linear_4135_68201" x1="12" y1="1" x2="12" y2="23" gradientUnits="userSpaceOnUse">
<stop stop-color="#FE5468"/>
<stop offset="1" stop-color="#FFDF27"/>
</linearGradient>
</defs>
</svg>
