<svg width="15" height="15" viewBox="0 0 15 15" fill="none" xmlns="http://www.w3.org/2000/svg">
<g clip-path="url(#clip0_177_29334)">
<path d="M1.42383 0.486816H7.25391C7.50226 0.486835 7.7404 0.585619 7.91602 0.76123L14.2383 7.0835C14.604 7.44922 14.604 8.04199 14.2383 8.40771L8.4082 14.2388C8.04248 14.6045 7.44873 14.6045 7.08301 14.2388L0.761719 7.9165C0.586094 7.74088 0.487309 7.50276 0.487305 7.25439V1.42334C0.487305 0.906124 0.906613 0.486816 1.42383 0.486816ZM1.94922 0.486816C1.14201 0.486816 0.487305 1.14152 0.487305 1.94873C0.487544 2.75574 1.14216 3.40967 1.94922 3.40967C2.75608 3.40943 3.40992 2.75559 3.41016 1.94873C3.41016 1.14167 2.75622 0.487056 1.94922 0.486816Z" fill="#1F2726" stroke="url(#paint0_linear_177_29334)" stroke-width="0.974388"/>
<path d="M4.40982 6.54532C4.22945 6.38908 4.12075 6.1887 4.06924 5.9405C4.03546 5.77504 4.02127 5.5741 4.0058 5.35258C3.9655 4.78069 3.91583 4.07256 3.49437 3.48989C4.05448 3.69949 4.34369 4.1587 4.49383 4.69682C4.56123 4.93877 4.57571 5.14653 4.58947 5.34477C4.60565 5.57807 4.62098 5.79803 4.72046 6.04452C4.7741 6.17905 4.84122 6.29215 4.91856 6.39106L4.40982 6.54532Z" fill="url(#paint1_radial_177_29334)"/>
<path d="M5.28104 6.28226C5.17304 6.09338 5.10422 5.88463 5.0625 5.65701C5.02702 5.4677 5.01581 5.31231 5.00573 5.17282C4.97153 4.70324 4.95025 4.41176 4.06644 3.60714C4.14605 3.63595 4.22339 3.66305 4.29818 3.68902L4.2986 3.68916C4.95167 3.91764 5.40975 4.07771 5.58387 4.75248C5.66987 5.08597 5.68391 5.28053 5.6964 5.45252C5.71031 5.64608 5.72237 5.81141 5.83235 6.1141L5.28104 6.28226Z" fill="url(#paint2_radial_177_29334)"/>
<path d="M6.08121 5.21473C6.09923 5.42802 6.09937 5.74689 6.10264 5.76462L6.50026 4.3586C6.31337 4.20945 5.99152 4.13537 5.55785 4.00624C5.95959 4.34639 6.03892 4.71521 6.08121 5.21473Z" fill="url(#paint3_radial_177_29334)"/>
<path d="M6.66019 4.53475C6.7435 4.66658 6.83446 5.0232 6.85305 5.23706C6.91151 5.91254 6.9074 6.22971 7.19562 7.04582C7.12097 7.00098 7.04902 6.96025 6.98034 6.92137C6.64104 6.72937 6.37453 6.5534 6.27208 6.27441L6.66019 4.53475Z" fill="url(#paint4_radial_177_29334)"/>
<path d="M6.71385 6.96947C6.4174 6.82401 6.17843 6.69345 5.98416 6.42028L5.46335 6.53012C5.78974 6.89142 6.33808 7.146 7.26048 7.25726C7.11091 7.15082 6.88329 7.05262 6.71385 6.96947Z" fill="url(#paint5_radial_177_29334)"/>
<path d="M5.11628 6.60597C5.2335 6.7124 5.5982 6.93889 5.81646 7.0334C5.41471 6.98472 4.87617 6.83217 4.63989 6.7063L5.11628 6.60597Z" fill="url(#paint6_radial_177_29334)"/>
<path d="M10.5121 4.56963C10.0005 4.05805 8.61885 4.57914 7.21268 5.74435C7.22772 6.00461 7.27597 6.29808 7.41064 6.66718L7.56944 7.17905C7.59768 7.27455 7.57625 7.37715 7.51282 7.45137C7.44825 7.52672 7.35019 7.56348 7.25241 7.54914L6.98704 7.51026C6.45006 7.44498 6.03895 7.379 5.67964 7.29186C4.56169 8.66951 4.06884 10.0093 4.57063 10.5111C5.17558 11.116 6.99811 10.2758 8.63815 8.63574C8.71733 8.55655 8.79482 8.4768 8.87031 8.39676L8.42969 7.47478L8.42685 7.46797C8.34724 7.28221 8.38811 7.06765 8.52817 6.92361L8.52916 6.92262L10.6596 4.8035C10.628 4.72815 10.5678 4.6254 10.5121 4.56963Z" fill="url(#paint7_radial_177_29334)"/>
<path d="M9.5403 7.76064L11.205 6.09591L11.3169 6.35333L9.66093 8.00926L10.3439 9.42963L9.22711 8.31281L8.75541 7.32541C8.73313 7.27389 8.74434 7.21358 8.78393 7.17286L10.8024 5.15548L10.9097 5.41206L9.22513 7.09665L9.32702 7.30185L11.0057 5.62322L11.1084 5.88546L9.44508 7.54877L9.5403 7.76064Z" fill="url(#paint8_radial_177_29334)"/>
<path d="M5.15808 10.8926C5.89189 11.243 6.99778 11.4105 7.19064 11.4039C7.85973 11.3839 9.2371 10.5409 10.1114 9.66663L9.19765 8.75288C7.68207 10.2685 6.00797 10.9608 5.15808 10.8926Z" fill="url(#paint9_radial_177_29334)"/>
</g>
<defs>
<linearGradient id="paint0_linear_177_29334" x1="7.49999" y1="-0.000488281" x2="7.49999" y2="15" gradientUnits="userSpaceOnUse">
<stop stop-color="#10808C"/>
<stop offset="1" stop-color="#1DF7EF"/>
</linearGradient>
<radialGradient id="paint1_radial_177_29334" cx="0" cy="0" r="1" gradientTransform="matrix(0.767193 2.49568 -2.26227 -0.501254 4.04213 4.28566)" gradientUnits="userSpaceOnUse">
<stop stop-color="#1DF7EF"/>
<stop offset="1" stop-color="#10808C"/>
</radialGradient>
<radialGradient id="paint2_radial_177_29334" cx="0" cy="0" r="1" gradientTransform="matrix(0.836275 2.38699 -2.15494 -0.575039 4.85019 4.15062)" gradientUnits="userSpaceOnUse">
<stop stop-color="#1DF7EF"/>
<stop offset="1" stop-color="#10808C"/>
</radialGradient>
<radialGradient id="paint3_radial_177_29334" cx="0" cy="0" r="1" gradientTransform="matrix(0.200974 1.53644 -1.41606 -0.0554607 6.04111 4.23839)" gradientUnits="userSpaceOnUse">
<stop stop-color="#1DF7EF"/>
<stop offset="1" stop-color="#10808C"/>
</radialGradient>
<radialGradient id="paint4_radial_177_29334" cx="0" cy="0" r="1" gradientTransform="matrix(0.325377 1.97277 -1.81241 -0.134022 6.92428 5.21696)" gradientUnits="userSpaceOnUse">
<stop stop-color="#1DF7EF"/>
<stop offset="1" stop-color="#10808C"/>
</radialGradient>
<radialGradient id="paint5_radial_177_29334" cx="0" cy="0" r="1" gradientTransform="matrix(0.554958 1.34924 -1.21101 -0.401775 6.28959 6.48796)" gradientUnits="userSpaceOnUse">
<stop stop-color="#1DF7EF"/>
<stop offset="1" stop-color="#10808C"/>
</radialGradient>
<radialGradient id="paint6_radial_177_29334" cx="0" cy="0" r="1" gradientTransform="matrix(0.252668 0.88163 -0.800753 -0.159953 5.21834 6.59492)" gradientUnits="userSpaceOnUse">
<stop stop-color="#1DF7EF"/>
<stop offset="1" stop-color="#10808C"/>
</radialGradient>
<radialGradient id="paint7_radial_177_29334" cx="0" cy="0" r="1" gradientTransform="matrix(-2.77094 6.02739 -5.861 3.10291 9.00363 5.29429)" gradientUnits="userSpaceOnUse">
<stop stop-color="#FFDF27"/>
<stop offset="0.9999" stop-color="#FE5468"/>
</radialGradient>
<radialGradient id="paint8_radial_177_29334" cx="0" cy="0" r="1" gradientTransform="matrix(-0.312474 3.19168 -3.00434 0.565765 10.95 6.19238)" gradientUnits="userSpaceOnUse">
<stop stop-color="#1DF7EF"/>
<stop offset="0.9999" stop-color="#10808C"/>
</radialGradient>
<radialGradient id="paint9_radial_177_29334" cx="0" cy="0" r="1" gradientTransform="matrix(-0.881748 3.69352 -3.52141 1.13996 8.24599 8.96246)" gradientUnits="userSpaceOnUse">
<stop stop-color="#1DF7EF"/>
<stop offset="0.9999" stop-color="#10808C"/>
</radialGradient>
<clipPath id="clip0_177_29334">
<rect width="15" height="15" fill="white"/>
</clipPath>
</defs>
</svg>
