<svg width="15" height="15" viewBox="0 0 15 15" fill="none" xmlns="http://www.w3.org/2000/svg">
<g clip-path="url(#clip0_177_29515)">
<path d="M14.875 13.8814L14.875 9.88184C14.875 9.39859 14.4832 9.00684 14 9.00684C13.5168 9.00684 13.125 9.39859 13.125 9.88184L13.125 11.769L11.7184 10.2435C11.3816 10.7244 10.9698 11.1489 10.5 11.5L11.8876 13.0064H10C9.51675 13.0064 9.125 13.3982 9.125 13.8814C9.125 14.3647 9.51675 14.7564 10 14.7564L14 14.7564C14.4832 14.7564 14.875 14.3647 14.875 13.8814Z" fill="url(#paint0_linear_177_29515)"/>
<path d="M4.27912 11.959C3.80379 11.6151 3.38563 11.197 3.04162 10.7217L0.500422 13.2629C0.158714 13.6046 0.158713 14.1586 0.500422 14.5003C0.842131 14.842 1.39615 14.842 1.73786 14.5003L4.27912 11.959Z" fill="url(#paint1_linear_177_29515)"/>
<path d="M14.0004 0.125H10.0008C9.5176 0.125 9.12584 0.516751 9.12584 1C9.12584 1.48325 9.5176 1.875 10.0008 1.875H11.888L10.0008 4C10.4761 4.34402 10.8942 4.76217 11.2382 5.2375L13.1254 3.11244V5C13.1254 5.48325 13.5172 5.875 14.0004 5.875C14.4837 5.875 14.8754 5.48325 14.8754 5V1C14.8754 0.516751 14.4837 0.125 14.0004 0.125Z" fill="url(#paint2_linear_177_29515)"/>
<path d="M4.34864 2.99206L1.73786 0.381282C1.39615 0.039573 0.842131 0.0395726 0.500422 0.381281C0.158714 0.72299 0.158713 1.27701 0.500422 1.61872L3.09217 4.21047C3.44332 3.74067 3.86779 3.32888 4.34864 2.99206Z" fill="url(#paint3_linear_177_29515)"/>
<path fill-rule="evenodd" clip-rule="evenodd" d="M7.35714 5.52893C7.35714 6.22727 6.84547 6.79339 6.21429 6.79339L6.21429 8.05785C6.84547 8.05785 7.35714 8.62397 7.35714 9.32232V10.5868C7.35714 11.2851 6.84547 11.8512 6.21429 11.8512V12H5.64286V11.8512C5.01167 11.8512 4.5 11.2851 4.5 10.5868V9.32232C4.5 8.62397 5.01167 8.05785 5.64286 8.05785V6.79339C5.01167 6.79339 4.5 6.22727 4.5 5.52893V4.26446C4.5 3.56612 5.01167 3 5.64286 3H6.21429C6.84547 3 7.35714 3.56612 7.35714 4.26446V5.52893ZM5.64286 3.63223H6.21429C6.52988 3.63223 6.78571 3.91529 6.78571 4.26446V5.52893C6.78571 5.8781 6.52988 6.16116 6.21429 6.16116V5.52893H5.64286V6.16116C5.32727 6.16116 5.07143 5.8781 5.07143 5.52893V4.26446C5.07143 3.91529 5.32727 3.63223 5.64286 3.63223ZM6.21429 11.219C6.52988 11.219 6.78571 10.9359 6.78571 10.5868V9.32232C6.78571 8.97314 6.52988 8.69008 6.21429 8.69008L6.21429 9.32232H5.64286V8.69008C5.32727 8.69008 5.07143 8.97314 5.07143 9.32232V10.5868C5.07143 10.9359 5.32727 11.219 5.64286 11.219V10.5868H6.21429V11.219Z" fill="url(#paint4_linear_177_29515)"/>
<path fill-rule="evenodd" clip-rule="evenodd" d="M9.35714 11.219V9.32232C9.98833 9.32232 10.5 8.7562 10.5 8.05785V6.79339C10.5 6.09505 9.98833 5.52893 9.35714 5.52893H8.78571C8.15453 5.52893 7.64286 6.09505 7.64286 6.79339V8.05785C7.64286 8.75619 8.15453 9.32232 8.78571 9.32232V11.219C5.53929 11.219 12.6036 11.219 9.35714 11.219ZM9.35714 6.16116H8.78571C8.47012 6.16116 8.21429 6.44422 8.21429 6.79339V8.05785C8.21429 8.40702 8.47012 8.69008 8.78571 8.69008V8.05785H9.35714V8.69008C9.67273 8.69008 9.92857 8.40702 9.92857 8.05785V6.79339C9.92857 6.44422 9.67273 6.16116 9.35714 6.16116Z" fill="url(#paint5_linear_177_29515)"/>
</g>
<defs>
<linearGradient id="paint0_linear_177_29515" x1="7.55957" y1="9.00684" x2="7.55957" y2="14.7566" gradientUnits="userSpaceOnUse">
<stop stop-color="#10808C"/>
<stop offset="1" stop-color="#1DF7EF"/>
</linearGradient>
<linearGradient id="paint1_linear_177_29515" x1="7.55957" y1="9.00684" x2="7.55957" y2="14.7566" gradientUnits="userSpaceOnUse">
<stop stop-color="#10808C"/>
<stop offset="1" stop-color="#1DF7EF"/>
</linearGradient>
<linearGradient id="paint2_linear_177_29515" x1="7.55978" y1="0.125" x2="7.55978" y2="5.875" gradientUnits="userSpaceOnUse">
<stop stop-color="#FE5468"/>
<stop offset="1" stop-color="#FFDF27"/>
</linearGradient>
<linearGradient id="paint3_linear_177_29515" x1="7.55978" y1="0.125" x2="7.55978" y2="5.875" gradientUnits="userSpaceOnUse">
<stop stop-color="#FE5468"/>
<stop offset="1" stop-color="#FFDF27"/>
</linearGradient>
<linearGradient id="paint4_linear_177_29515" x1="7.5" y1="3" x2="7.5" y2="12" gradientUnits="userSpaceOnUse">
<stop stop-color="#10808C"/>
<stop offset="1" stop-color="#1DF7EF"/>
</linearGradient>
<linearGradient id="paint5_linear_177_29515" x1="7.5" y1="3" x2="7.5" y2="12" gradientUnits="userSpaceOnUse">
<stop stop-color="#10808C"/>
<stop offset="1" stop-color="#1DF7EF"/>
</linearGradient>
<clipPath id="clip0_177_29515">
<rect width="15" height="15" fill="white"/>
</clipPath>
</defs>
</svg>
