<svg width="24" height="24" viewBox="0 0 24 24" fill="none" xmlns="http://www.w3.org/2000/svg">
<path fill-rule="evenodd" clip-rule="evenodd" d="M9.93455 17.9881C9.93193 17.9855 9.92799 17.9816 9.92537 17.979L9.68537 17.74C9.62374 17.8314 9.55161 17.9176 9.47161 17.9986C9.14112 18.3277 8.70179 18.508 8.23491 18.508C7.76673 18.508 7.32739 18.3277 6.99691 17.9986L2.49077 13.5092C1.44292 12.4669 0.863261 11.0496 0.872441 9.58278L0.207537 8.92054C-0.0691789 8.64493 -0.0691789 8.19952 0.207537 7.92391C0.484252 7.64831 0.932768 7.64831 1.20817 7.92391L2.09078 8.80168C2.23504 8.94536 2.30979 9.1439 2.29667 9.34636C2.2193 10.5245 2.6547 11.6792 3.4914 12.5126L7.99885 17.0007C8.0618 17.0634 8.14573 17.0986 8.23491 17.0986C8.32409 17.0986 8.40802 17.0647 8.47097 17.0007C8.53392 16.938 8.56933 16.8544 8.56933 16.7655C8.56933 16.6767 8.53392 16.5931 8.47097 16.5304L6.40675 14.4745C6.13004 14.2002 6.13004 13.7535 6.40675 13.4778C6.68347 13.2022 7.13198 13.2022 7.4087 13.4778L10.9365 16.9915C10.9994 17.0542 11.0834 17.0895 11.1726 17.0895C11.2617 17.0895 11.3457 17.0542 11.4086 16.9915C11.4716 16.9288 11.507 16.8452 11.507 16.7564C11.507 16.6676 11.4716 16.584 11.4086 16.5213L7.88082 13.0063C7.60411 12.732 7.60411 12.2853 7.88082 12.0097C8.15754 11.7341 8.60605 11.7341 8.88146 12.0097L13.0191 16.1307C13.082 16.1934 13.166 16.2274 13.2551 16.2274C13.3443 16.2274 13.4282 16.1934 13.4912 16.1307C13.6223 16.0001 13.621 15.7898 13.4912 15.6592L12.6938 14.865C12.6899 14.8611 12.686 14.8572 12.6847 14.8572L9.39554 11.58C9.11883 11.3043 9.11883 10.8576 9.39554 10.5833C9.67095 10.3077 10.1195 10.3077 10.3962 10.5833L13.6905 13.8632C13.8204 13.9899 14.0302 13.9886 14.1587 13.8593C14.2217 13.7966 14.2571 13.713 14.2571 13.6241C14.2571 13.5353 14.2217 13.4517 14.1587 13.389L9.57784 8.82649C9.34702 8.5966 9.30374 8.2374 9.47423 7.96049C9.64472 7.68227 9.98438 7.55687 10.2952 7.65614L12.3856 8.32753C12.4001 8.33145 12.4158 8.33798 12.4302 8.3432C12.5129 8.37586 12.6033 8.37455 12.686 8.33928C12.7686 8.30402 12.8315 8.24001 12.8643 8.15772C12.8971 8.07413 12.8958 7.984 12.8604 7.90171C12.825 7.82072 12.7607 7.75803 12.6768 7.72407L9.60144 6.50539L8.74507 6.21803C8.6913 6.20105 8.64015 6.17623 8.59163 6.14618C8.50638 6.09263 8.4172 6.04038 8.32802 5.99336C7.58968 5.60281 6.7556 5.44868 5.91889 5.54664C5.70382 5.57146 5.48874 5.49701 5.3353 5.34418C5.33399 5.34288 5.33268 5.34026 5.33005 5.33896L3.3419 3.19941C3.06912 2.92381 3.07043 2.4797 3.34583 2.20671C3.62255 1.9311 4.07106 1.9311 4.34647 2.20671C4.34909 2.20801 4.3504 2.21062 4.35303 2.21193L6.10905 4.11505C7.11231 4.0615 8.10246 4.27833 8.99162 4.74856C9.08604 4.79819 9.18047 4.85175 9.27227 4.90791L10.0696 5.17438C10.0814 5.1783 10.0945 5.18352 10.1063 5.18744L12.4368 6.11222C13.124 5.51529 14.1692 5.54272 14.8223 6.19451L17.4478 8.80821C17.4452 8.56787 17.4924 8.32753 17.5908 8.10025C17.7757 7.67312 18.1167 7.34266 18.5508 7.17024C18.9849 6.99913 19.4609 7.00435 19.8898 7.18853C20.3199 7.3727 20.6517 7.71231 20.8248 8.14597L22.0563 11.2273C22.0615 11.239 22.0654 11.2521 22.0694 11.2639C22.0694 11.2639 22.3369 12.058 22.3356 12.0554C22.392 12.1481 22.4471 12.2422 22.4969 12.3375C22.9703 13.2258 23.188 14.2132 23.1317 15.2164L23.7926 15.8982L23.7952 15.9008C24.0693 16.1764 24.068 16.6206 23.7926 16.8949C23.5159 17.1705 23.0674 17.1705 22.792 16.8949L22.7894 16.8922C22.7894 16.8922 21.8963 15.9766 21.8989 15.9792C21.7455 15.8264 21.6707 15.6122 21.6969 15.398C21.794 14.5646 21.6392 13.7352 21.2471 12.9985C21.1999 12.9097 21.1474 12.8208 21.0937 12.7359C21.0635 12.6876 21.0399 12.6367 21.0215 12.5844L20.7343 11.7315L19.5094 8.66714C19.4766 8.58354 19.4124 8.51954 19.3311 8.48427C19.2485 8.449 19.158 8.4477 19.0753 8.48035C18.9035 8.54827 18.8196 8.7429 18.8878 8.9127C18.8944 8.92838 18.8996 8.94405 18.9035 8.95711L19.5776 11.0392C19.5776 11.0418 19.5803 11.0496 19.5803 11.0522C19.5947 11.1084 19.5829 11.1672 19.5488 11.2142C19.516 11.2586 19.4675 11.2874 19.4124 11.2939C19.4124 11.2952 19.4124 11.2965 19.4124 11.2991C19.457 11.2939 19.4976 11.2743 19.5291 11.243C19.537 11.2351 19.5435 11.2286 19.5488 11.2207C19.5855 11.1724 19.5973 11.1097 19.5803 11.0522C19.5907 11.0836 19.5973 11.1149 19.6026 11.1463C19.6026 11.1502 19.6025 11.1554 19.6012 11.1607L19.6039 11.1567C19.6091 11.1907 19.6104 11.226 19.6104 11.2612C19.6104 11.2678 19.6104 11.2743 19.6104 11.2808C19.6091 11.3135 19.6052 11.3474 19.5999 11.3814C19.5986 11.3827 19.596 11.3958 19.596 11.3997C19.5881 11.4337 19.5789 11.4689 19.5671 11.5016C19.554 11.5342 19.5396 11.5656 19.5226 11.5956L19.5147 11.6113C19.5003 11.6348 19.4845 11.6596 19.4675 11.6818C19.4452 11.7106 19.2576 11.9653 19.0858 12.3545C18.8249 12.9501 18.598 13.8658 19.0871 14.7762C19.1803 14.9512 19.2983 15.1263 19.4491 15.2987C19.7062 15.5913 19.6747 16.0367 19.3809 16.2927C19.2458 16.4089 19.0806 16.4664 18.9153 16.4664C18.7186 16.4664 18.5219 16.3841 18.3816 16.2248C16.8813 14.5084 17.356 12.5152 18 11.3527L14.2545 7.62218C14.3292 7.92391 14.32 8.23871 14.2282 8.53782L16.6387 10.9386C16.9154 11.2142 16.9154 11.6609 16.6387 11.9365C16.3633 12.2108 15.9148 12.2108 15.638 11.9365L13.3024 9.6089C13.284 9.61805 13.2643 9.62588 13.246 9.63503C13.0178 9.73299 12.7765 9.78002 12.5352 9.7774L15.1594 12.3924C15.4898 12.7216 15.6721 13.1591 15.6721 13.6241C15.6721 14.0905 15.4912 14.528 15.1607 14.8572C15.0571 14.9591 14.9443 15.0466 14.8223 15.1197C15.1462 15.7715 15.0374 16.5853 14.4918 17.1274C14.4105 17.2083 14.3213 17.2802 14.2269 17.3429L14.7017 17.8157C15.5384 18.6491 16.6964 19.0827 17.8806 19.0057C18.0839 18.9939 18.2832 19.0671 18.4249 19.2094L21.1081 21.7931L21.1107 21.7957C21.3874 22.0713 21.3874 22.518 21.1107 22.7936C20.973 22.9308 20.792 23 20.6111 23C20.4301 23 20.2478 22.9308 20.1127 22.7949C20.1127 22.7949 17.6459 20.4255 17.6472 20.4255C16.1705 20.4346 14.7489 19.8573 13.701 18.8137L12.6191 17.736C12.5588 17.8262 12.4879 17.9098 12.4093 17.9881C12.0788 18.3173 11.6394 18.4989 11.1726 18.4989C10.7057 18.4989 10.2663 18.3173 9.93455 17.9881Z" fill="url(#paint0_linear_3218_87754)"/>
<path fill-rule="evenodd" clip-rule="evenodd" d="M6.82899 18.5821C7.13454 18.818 7.18358 19.2452 6.93712 19.5377L5.25596 21.5402C5.11513 21.7075 4.91017 21.7941 4.70144 21.7941C4.54552 21.7941 4.38834 21.746 4.25757 21.6449C3.95202 21.409 3.90298 20.9818 4.14943 20.6894L5.8306 18.6868C6.07579 18.3944 6.52343 18.3475 6.82899 18.5821ZM3.42894 17.0092C3.81496 16.9478 4.18087 17.1994 4.245 17.5688C4.30787 17.9395 4.04633 18.2897 3.65904 18.3499L1.82573 18.6399C1.78675 18.6459 1.74777 18.6483 1.70879 18.6483C1.36803 18.6483 1.06625 18.4124 1.00967 18.0791C0.945543 17.7096 1.20708 17.3594 1.59437 17.2981L3.42894 17.0092ZM9.89959 20.5077L9.99893 22.2839C10.0203 22.6582 9.71978 22.9783 9.32872 22.9988C9.31489 23 9.30232 23 9.28975 23C8.91504 23 8.60068 22.7196 8.58056 22.3574L8.48123 20.5799C8.45985 20.2056 8.76037 19.8855 9.15269 19.865C9.54374 19.8446 9.87821 20.1322 9.89959 20.5077Z" fill="url(#paint1_linear_3218_87754)"/>
<path fill-rule="evenodd" clip-rule="evenodd" d="M12.3311 5.40925C11.9868 5.20021 11.8481 4.69615 12.0227 4.28401L13.2154 1.45979C13.3901 1.04765 13.8112 0.881607 14.1555 1.09064C14.4998 1.29968 14.6385 1.80226 14.4639 2.21588L13.2712 5.0401C13.1486 5.33067 12.9021 5.49968 12.6469 5.49968C12.5404 5.49968 12.4327 5.47003 12.3311 5.40925ZM15.5947 7C15.3148 7 15.0509 6.79838 14.9432 6.46777C14.802 6.03636 14.9804 5.55157 15.3395 5.38256L17.0462 4.58644C17.4054 4.41744 17.8117 4.63092 17.9516 5.06085C18.0928 5.49227 17.9145 5.97706 17.554 6.14606L15.8486 6.94218C15.7656 6.98221 15.6789 7 15.5947 7ZM9.49857 4.17134L9.02421 2.05429C8.92389 1.60805 9.14435 1.14846 9.51839 1.02838C9.89119 0.909775 10.2751 1.17366 10.3755 1.61991L10.8498 3.73696C10.9501 4.1832 10.7284 4.64278 10.3556 4.76287C10.295 4.78214 10.2343 4.79103 10.1736 4.79103C9.86518 4.79103 9.58279 4.54493 9.49857 4.17134Z" fill="url(#paint2_linear_3218_87754)"/>
<defs>
<linearGradient id="paint0_linear_3218_87754" x1="12" y1="2" x2="12" y2="23" gradientUnits="userSpaceOnUse">
<stop stop-color="#10808C"/>
<stop offset="1" stop-color="#1DF7EF"/>
</linearGradient>
<linearGradient id="paint1_linear_3218_87754" x1="5.5" y1="17" x2="5.5" y2="23" gradientUnits="userSpaceOnUse">
<stop stop-color="#FE5468"/>
<stop offset="1" stop-color="#FFDF27"/>
</linearGradient>
<linearGradient id="paint2_linear_3218_87754" x1="13.5" y1="1" x2="13.5" y2="7" gradientUnits="userSpaceOnUse">
<stop stop-color="#FE5468"/>
<stop offset="1" stop-color="#FFDF27"/>
</linearGradient>
</defs>
</svg>
