<svg width="16" height="15" viewBox="0 0 16 15" fill="none" xmlns="http://www.w3.org/2000/svg">
<path fill-rule="evenodd" clip-rule="evenodd" d="M2.86654 1.8256C2.61625 2.01314 2.56169 2.157 2.56169 2.24227V4.09794C2.56169 4.18321 2.61625 4.32706 2.86654 4.51461C3.11188 4.69845 3.49193 4.88111 3.99738 5.04179C5.00403 5.36179 6.41973 5.56701 8 5.56701C9.58027 5.56701 10.996 5.36179 12.0026 5.04179C12.5081 4.88111 12.8881 4.69845 13.1335 4.51461C13.3837 4.32706 13.4383 4.18321 13.4383 4.09794V2.24227C13.4383 2.157 13.3837 2.01314 13.1335 1.8256C12.8881 1.64176 12.5081 1.4591 12.0026 1.29842C10.996 0.978415 9.58027 0.773196 8 0.773196C6.41973 0.773196 5.00403 0.978415 3.99738 1.29842C3.49193 1.4591 3.11188 1.64176 2.86654 1.8256ZM3.74044 0.564984C4.84987 0.212307 6.35624 0 8 0C9.64376 0 11.1501 0.212307 12.2596 0.564984C12.8121 0.740646 13.2886 0.958114 13.6353 1.21789C13.977 1.47397 14.25 1.81723 14.25 2.24227V4.09794C14.25 4.52298 13.977 4.86623 13.6353 5.12231C13.2886 5.38209 12.8121 5.59956 12.2596 5.77522C11.1501 6.1279 9.64376 6.34021 8 6.34021C6.35624 6.34021 4.84987 6.1279 3.74044 5.77522C3.18785 5.59956 2.71138 5.38209 2.36469 5.12231C2.02295 4.86623 1.75 4.52298 1.75 4.09794V2.24227C1.75 1.81723 2.02295 1.47397 2.36469 1.21789C2.71138 0.958114 3.18785 0.740646 3.74044 0.564984ZM5.14613 1.21197C5.89169 1.03411 6.90036 0.927835 8 0.927835C9.09964 0.927835 10.1083 1.03411 10.8539 1.21197C11.2235 1.30015 11.5513 1.4112 11.7965 1.54915C12.014 1.67157 12.3019 1.89323 12.3019 2.24227C12.3019 2.59131 12.014 2.81297 11.7965 2.93539C11.5513 3.07333 11.2235 3.18438 10.8539 3.27257C10.1083 3.45043 9.09964 3.5567 8 3.5567C6.90036 3.5567 5.89169 3.45043 5.14613 3.27257C4.77647 3.18438 4.44868 3.07333 4.20353 2.93539C3.98599 2.81297 3.69805 2.59131 3.69805 2.24227C3.69805 1.89323 3.98599 1.67157 4.20353 1.54915C4.44868 1.4112 4.77647 1.30015 5.14613 1.21197ZM4.49606 2.30222C4.49601 2.30221 4.49638 2.30159 4.49734 2.30037C4.49659 2.30161 4.49611 2.30222 4.49606 2.30222ZM4.57055 2.24227C4.58358 2.23393 4.59875 2.22478 4.61637 2.21486C4.7654 2.131 5.00803 2.04199 5.34332 1.962C6.00766 1.80352 6.94704 1.70103 8 1.70103C9.05296 1.70103 9.99234 1.80352 10.6567 1.962C10.992 2.04199 11.2346 2.131 11.3836 2.21486C11.4013 2.22478 11.4164 2.23393 11.4295 2.24227C11.4164 2.2506 11.4013 2.25975 11.3836 2.26967C11.2346 2.35353 10.992 2.44255 10.6567 2.52253C9.99234 2.68102 9.05296 2.7835 8 2.7835C6.94704 2.7835 6.00766 2.68102 5.34332 2.52253C5.00803 2.44255 4.7654 2.35353 4.61637 2.26967C4.59875 2.25975 4.58358 2.25061 4.57055 2.24227ZM11.5039 2.30222C11.5039 2.30222 11.5034 2.30161 11.5027 2.30037C11.5036 2.30159 11.504 2.30221 11.5039 2.30222ZM11.5027 2.18416C11.5034 2.18292 11.5039 2.18231 11.5039 2.18232C11.504 2.18233 11.5036 2.18295 11.5027 2.18416ZM4.49734 2.18417C4.49638 2.18295 4.49601 2.18233 4.49606 2.18232C4.49611 2.18231 4.49659 2.18292 4.49734 2.18417ZM2.37103 5.4922L2.68054 5.87065C2.79281 6.00792 2.9992 6.16316 3.31852 6.31765C3.63331 6.46995 4.03455 6.61034 4.50927 6.72952C5.45851 6.96782 6.66978 7.1134 8 7.1134C9.33022 7.1134 10.5415 6.96782 11.4907 6.72952C11.9654 6.61034 12.3667 6.46995 12.6815 6.31765C13.0008 6.16316 13.2072 6.00792 13.3195 5.87065L13.629 5.4922L13.9514 5.86075C14.0286 5.949 14.0838 6.0436 14.1195 6.11164C14.1769 6.22107 14.25 6.38843 14.25 6.57216V8.42783C14.25 8.85288 13.977 9.19613 13.6353 9.45221C13.2886 9.71199 12.8121 9.92946 12.2596 10.1051C11.1501 10.4578 9.64376 10.6701 8 10.6701C6.35624 10.6701 4.84987 10.4578 3.74044 10.1051C3.18785 9.92946 2.71138 9.71199 2.36469 9.45221C2.02295 9.19613 1.75 8.85288 1.75 8.42783V6.57216C1.75 6.37663 1.8253 6.21683 1.88051 6.11164C1.91622 6.0436 1.97141 5.949 2.04861 5.86075L2.37103 5.4922ZM2.56169 6.79171V8.42783C2.56169 8.5131 2.61625 8.65696 2.86654 8.8445C3.11188 9.02835 3.49193 9.21101 3.99738 9.37169C5.00403 9.69169 6.41973 9.89691 8 9.89691C9.58027 9.89691 10.996 9.69169 12.0026 9.37169C12.5081 9.21101 12.8881 9.02835 13.1335 8.8445C13.3837 8.65696 13.4383 8.5131 13.4383 8.42783V6.79171C13.3175 6.8687 13.1868 6.94036 13.049 7.00703C12.6698 7.19049 12.2115 7.34817 11.6976 7.47718C10.6695 7.73527 9.38731 7.8866 8 7.8866C6.61269 7.8866 5.33045 7.73527 4.30242 7.47718C3.7885 7.34817 3.33017 7.19049 2.95096 7.00703C2.81316 6.94036 2.68249 6.8687 2.56169 6.79171ZM2.35426 9.8016L2.68054 10.2006C2.79281 10.3378 2.9992 10.4931 3.31852 10.6475C3.63331 10.7998 4.03455 10.9402 4.50927 11.0594C5.45851 11.2977 6.66978 11.4433 8 11.4433C9.33022 11.4433 10.5415 11.2977 11.4907 11.0594C11.9654 10.9402 12.3667 10.7998 12.6815 10.6475C13.0008 10.4931 13.2072 10.3378 13.3195 10.2006L13.6329 9.81725L13.9546 10.1944C14.1133 10.3805 14.25 10.6222 14.25 10.9021V12.7577C14.25 13.1828 13.977 13.526 13.6353 13.7821C13.2886 14.0419 12.8121 14.2594 12.2596 14.435C11.1501 14.7877 9.64376 15 8 15C6.35624 15 4.84987 14.7877 3.74044 14.435C3.18785 14.2594 2.71138 14.0419 2.36469 13.7821C2.02295 13.526 1.75 13.1828 1.75 12.7577V10.9021C1.75 10.6149 1.9051 10.3721 2.03571 10.2062L2.35426 9.8016ZM13.4383 11.1216C13.3175 11.1986 13.1868 11.2703 13.049 11.3369C12.6698 11.5204 12.2115 11.6781 11.6976 11.8071C10.6695 12.0652 9.38731 12.2165 8 12.2165C6.61269 12.2165 5.33045 12.0652 4.30242 11.8071C3.7885 11.6781 3.33017 11.5204 2.95096 11.3369C2.81316 11.2703 2.68249 11.1986 2.56169 11.1216V12.7577C2.56169 12.843 2.61625 12.9869 2.86654 13.1744C3.11188 13.3582 3.49193 13.5409 3.99738 13.7016C5.00403 14.0216 6.41973 14.2268 8 14.2268C9.58027 14.2268 10.996 14.0216 12.0026 13.7016C12.5081 13.5409 12.8881 13.3582 13.1335 13.1744C13.3837 12.9869 13.4383 12.843 13.4383 12.7577V11.1216Z" fill="url(#paint0_linear_7416_32443)"/>
<circle cx="3.83366" cy="4.16667" r="0.416667" fill="url(#paint1_linear_7416_32443)"/>
<circle cx="3.83366" cy="8.33366" r="0.416667" fill="url(#paint2_linear_7416_32443)"/>
<circle cx="3.83366" cy="12.4997" r="0.416667" fill="url(#paint3_linear_7416_32443)"/>
<defs>
<linearGradient id="paint0_linear_7416_32443" x1="8" y1="0" x2="8" y2="15" gradientUnits="userSpaceOnUse">
<stop stop-color="#10808C"/>
<stop offset="1" stop-color="#1DF7EF"/>
</linearGradient>
<linearGradient id="paint1_linear_7416_32443" x1="3.83366" y1="3.75" x2="4.39542" y2="4.53978" gradientUnits="userSpaceOnUse">
<stop stop-color="#FE5468"/>
<stop offset="1" stop-color="#FFDF27"/>
</linearGradient>
<linearGradient id="paint2_linear_7416_32443" x1="3.83366" y1="7.91699" x2="4.39542" y2="8.70677" gradientUnits="userSpaceOnUse">
<stop stop-color="#FE5468"/>
<stop offset="1" stop-color="#FFDF27"/>
</linearGradient>
<linearGradient id="paint3_linear_7416_32443" x1="3.83366" y1="12.083" x2="4.39542" y2="12.8728" gradientUnits="userSpaceOnUse">
<stop stop-color="#FE5468"/>
<stop offset="1" stop-color="#FFDF27"/>
</linearGradient>
</defs>
</svg>
