<svg width="24" height="24" viewBox="0 0 24 24" fill="none" xmlns="http://www.w3.org/2000/svg">
<path fill-rule="evenodd" clip-rule="evenodd" d="M12 1.70139L20.3333 4.75899V11.9586C20.3333 14.9457 18.2867 17.5138 16.0922 19.3926C15.0098 20.3193 13.9244 21.0497 13.1083 21.5488C12.7008 21.7979 12.362 21.9885 12.1263 22.1162C12.0822 22.1401 12.04 22.1631 12.0001 22.1851C11.9599 22.1631 11.9175 22.1399 11.8737 22.1162C11.638 21.9885 11.2992 21.7979 10.8917 21.5488C10.0756 21.0497 8.99022 20.3193 7.9078 19.3926C5.71331 17.5138 3.66667 14.9457 3.66667 11.9586V4.75899L12 1.70139ZM11.5858 22.4112C11.5858 22.4112 11.5866 22.4108 11.5882 22.4101C11.5867 22.4109 11.5859 22.4112 11.5858 22.4112ZM12.4096 22.4072C12.4113 22.408 12.4121 22.4083 12.412 22.4083C12.4119 22.4083 12.4111 22.4079 12.4096 22.4072ZM12.3901 0.0692197C12.1386 -0.0230732 11.8614 -0.0230732 11.6099 0.0692197L2.72097 3.33067C2.2873 3.48979 2 3.89543 2 4.3486V11.9586C2 15.7054 4.53527 18.6993 6.82388 20.6586C7.99153 21.6583 9.15394 22.4397 10.0222 22.9706C10.4575 23.2368 10.8219 23.4419 11.0799 23.5817C11.5993 23.863 11.8034 24.0015 12.0064 24C12.2086 23.9985 12.4097 23.8581 12.9201 23.5817C13.1781 23.4419 13.5425 23.2368 13.9778 22.9706C14.8461 22.4397 16.0085 21.6583 17.1761 20.6586C19.4647 18.6993 22 15.7054 22 11.9586V4.3486C22 3.89543 21.7127 3.48979 21.279 3.33067L12.3901 0.0692197Z" fill="url(#paint0_linear_3218_87559)"/>
<path fill-rule="evenodd" clip-rule="evenodd" d="M15.2304 11.417H8.76891C8.37239 11.417 8.05096 11.7528 8.05096 12.167V15.167C8.05096 15.5812 8.37239 15.917 8.76891 15.917H15.2304C15.627 15.917 15.9484 15.5812 15.9484 15.167V12.167C15.9484 11.7528 15.627 11.417 15.2304 11.417ZM8.76891 10.667C7.97588 10.667 7.33301 11.3386 7.33301 12.167V15.167C7.33301 15.9954 7.97588 16.667 8.76891 16.667H15.2304C16.0235 16.667 16.6663 15.9954 16.6663 15.167V12.167C16.6663 11.3386 16.0235 10.667 15.2304 10.667H8.76891Z" fill="url(#paint1_linear_3218_87559)"/>
<path d="M14.5929 8.52432C14.5929 6.86739 13.4322 5.52418 12.0003 5.52418C10.5685 5.52418 9.40773 6.86739 9.40773 8.52432V10.667H8.66699V8.52432C8.66699 6.39398 10.1594 4.66699 12.0003 4.66699C13.8413 4.66699 15.3337 6.39398 15.3337 8.52432V10.667H14.5929V8.52432Z" fill="url(#paint2_linear_3218_87559)"/>
<defs>
<linearGradient id="paint0_linear_3218_87559" x1="12" y1="0" x2="12" y2="24" gradientUnits="userSpaceOnUse">
<stop stop-color="#10808C"/>
<stop offset="1" stop-color="#1DF7EF"/>
</linearGradient>
<linearGradient id="paint1_linear_3218_87559" x1="11.9997" y1="10.667" x2="11.9997" y2="16.667" gradientUnits="userSpaceOnUse">
<stop stop-color="#FE5468"/>
<stop offset="1" stop-color="#FFDF27"/>
</linearGradient>
<linearGradient id="paint2_linear_3218_87559" x1="12.0003" y1="4.66699" x2="12.0003" y2="10.667" gradientUnits="userSpaceOnUse">
<stop stop-color="#FE5468"/>
<stop offset="1" stop-color="#FFDF27"/>
</linearGradient>
</defs>
</svg>
