<svg width="24" height="24" viewBox="0 0 24 24" fill="none" xmlns="http://www.w3.org/2000/svg">
<path fill-rule="evenodd" clip-rule="evenodd" d="M7.5 15.3333L7.5 6.33333H8.92105L8.92105 15.3333H7.5ZM11.2895 15.3333L11.2895 6.33333H12.7105L12.7105 15.3333H11.2895ZM15.0789 15.3333L15.0789 6.33333H16.5L16.5 15.3333H15.0789Z" fill="url(#paint0_linear_3218_87859)"/>
<path fill-rule="evenodd" clip-rule="evenodd" d="M19.5 3.2832C17.9473 5.05971 15.2891 6.3323 12 6.3323C8.71087 6.3323 6.05268 5.05971 4.5 3.2832V5.3561C6.40578 6.88418 9.06197 7.8323 12 7.8323C14.938 7.8323 17.5942 6.88418 19.5 5.3561V3.2832Z" fill="url(#paint1_linear_3218_87859)"/>
<path d="M4.5 4.08333C4.5 7.30408 3.5 10.1644 1.95275 12.1878C1.36469 12.9568 0.70669 13.5958 0 14.0926V15.8562C3.52343 13.9347 6 9.38723 6 4.08333C6 3.83156 5.99442 3.58149 5.98341 3.33333H4.48181C4.49386 3.58096 4.5 3.83104 4.5 4.08333Z" fill="url(#paint2_linear_3218_87859)"/>
<path d="M19.5182 3.33333C19.5061 3.58096 19.5 3.83104 19.5 4.08333C19.5 7.30408 20.5 10.1644 22.0472 12.1878C22.6353 12.9568 23.2933 13.5958 24 14.0926V15.8562C20.4766 13.9347 18 9.38723 18 4.08333C18 3.83156 18.0056 3.58149 18.0166 3.33333H19.5182Z" fill="url(#paint3_linear_3218_87859)"/>
<path d="M0 16.8333V14.5833H24V16.8333H0Z" fill="url(#paint4_linear_3218_87859)"/>
<path d="M2.73959 21.3333C4.23428 17.8851 5.0628 14.081 5.0628 10.0833C5.0628 7.75714 4.78227 5.49648 4.25319 3.33333H6.18028C6.67599 5.50356 6.9378 7.76287 6.9378 10.0833C6.9378 14.0597 6.16897 17.8566 4.77184 21.3333H2.73959Z" fill="url(#paint5_linear_3218_87859)"/>
<path d="M19.7471 3.33333C19.218 5.49648 18.9375 7.75714 18.9375 10.0833C18.9375 14.081 19.766 17.8851 21.2607 21.3333H19.2285C17.8313 17.8566 17.0625 14.0597 17.0625 10.0833C17.0625 7.76287 17.3243 5.50356 17.82 3.33333H19.7471Z" fill="url(#paint6_linear_3218_87859)"/>
<path d="M5.87221 21.3333H1.62827C1.93714 20.4594 2.77057 19.8333 3.75024 19.8333C4.7299 19.8333 5.56333 20.4594 5.87221 21.3333Z" fill="url(#paint7_linear_3218_87859)"/>
<path d="M22.3722 21.3333H18.1283C18.4371 20.4594 19.2706 19.8333 20.2502 19.8333C21.2299 19.8333 22.0633 20.4594 22.3722 21.3333Z" fill="url(#paint8_linear_3218_87859)"/>
<defs>
<linearGradient id="paint0_linear_3218_87859" x1="16.9737" y1="15.3333" x2="13.0411" y2="9.12397" gradientUnits="userSpaceOnUse">
<stop stop-color="#10808C"/>
<stop offset="1" stop-color="#1DF7EF"/>
</linearGradient>
<linearGradient id="paint1_linear_3218_87859" x1="12" y1="3.2832" x2="12" y2="7.8323" gradientUnits="userSpaceOnUse">
<stop stop-color="#FE5468"/>
<stop offset="1" stop-color="#FFDF27"/>
</linearGradient>
<linearGradient id="paint2_linear_3218_87859" x1="3" y1="3.33333" x2="3" y2="15.8562" gradientUnits="userSpaceOnUse">
<stop stop-color="#FE5468"/>
<stop offset="1" stop-color="#FFDF27"/>
</linearGradient>
<linearGradient id="paint3_linear_3218_87859" x1="21" y1="3.33333" x2="21" y2="15.8562" gradientUnits="userSpaceOnUse">
<stop stop-color="#FE5468"/>
<stop offset="1" stop-color="#FFDF27"/>
</linearGradient>
<linearGradient id="paint4_linear_3218_87859" x1="15" y1="15.5" x2="14.85" y2="18.2" gradientUnits="userSpaceOnUse">
<stop stop-color="#FE5468"/>
<stop offset="1" stop-color="#FFDF27"/>
</linearGradient>
<linearGradient id="paint5_linear_3218_87859" x1="4.8387" y1="3.33333" x2="4.8387" y2="21.3333" gradientUnits="userSpaceOnUse">
<stop stop-color="#10808C"/>
<stop offset="1" stop-color="#1DF7EF"/>
</linearGradient>
<linearGradient id="paint6_linear_3218_87859" x1="19.1616" y1="3.33333" x2="19.1616" y2="21.3333" gradientUnits="userSpaceOnUse">
<stop stop-color="#10808C"/>
<stop offset="1" stop-color="#1DF7EF"/>
</linearGradient>
<linearGradient id="paint7_linear_3218_87859" x1="3.75024" y1="19.8333" x2="3.75024" y2="21.3333" gradientUnits="userSpaceOnUse">
<stop stop-color="#FE5468"/>
<stop offset="1" stop-color="#FFDF27"/>
</linearGradient>
<linearGradient id="paint8_linear_3218_87859" x1="20.2502" y1="19.8333" x2="20.2502" y2="21.3333" gradientUnits="userSpaceOnUse">
<stop stop-color="#FE5468"/>
<stop offset="1" stop-color="#FFDF27"/>
</linearGradient>
</defs>
</svg>
