<svg width="24" height="24" viewBox="0 0 24 24" fill="none" xmlns="http://www.w3.org/2000/svg">
<g clip-path="url(#clip0_3218_87023)">
<path fill-rule="evenodd" clip-rule="evenodd" d="M6.04269 11.0579C6.04269 12.4545 4.96053 13.5868 3.62562 13.5868L3.62562 16.1157C4.96053 16.1157 6.04269 17.2479 6.04269 18.6446V21.1736C6.04269 22.5702 4.96053 23.7025 3.62562 23.7025V24H2.41708V23.7025C1.08216 23.7025 0 22.5702 0 21.1736V18.6446C0 17.2479 1.08216 16.1157 2.41708 16.1157L2.41708 13.5868C1.08216 13.5868 0 12.4545 0 11.0579V8.52893C0 7.13224 1.08216 6 2.41708 6H3.62562C4.96053 6 6.04269 7.13224 6.04269 8.52893V11.0579ZM2.41708 7.26446H3.62562C4.29307 7.26446 4.83415 7.83058 4.83415 8.52893V11.0579C4.83415 11.7562 4.29307 12.3223 3.62562 12.3223V11.0579H2.41708L2.41708 12.3223C1.74962 12.3223 1.20854 11.7562 1.20854 11.0579V8.52893C1.20854 7.83058 1.74962 7.26446 2.41708 7.26446ZM3.62562 22.438C4.29307 22.438 4.83415 21.8719 4.83415 21.1736V18.6446C4.83415 17.9463 4.29307 17.3802 3.62562 17.3802L3.62562 18.6446H2.41708V17.3802C1.74962 17.3802 1.20854 17.9463 1.20854 18.6446V21.1736C1.20854 21.8719 1.74962 22.438 2.41708 22.438L2.41708 21.1736H3.62562V22.438Z" fill="url(#paint0_linear_3218_87023)"/>
<path fill-rule="evenodd" clip-rule="evenodd" d="M12.5067 24C12.1437 23.0831 11.2802 22.438 10.2726 22.438V18.6446C11.6075 18.6446 12.6897 17.5124 12.6897 16.1157V13.5868C12.6897 12.1901 11.6075 11.0579 10.2726 11.0579H9.06404C7.72913 11.0579 6.64696 12.1901 6.64696 13.5868V16.1157C6.64696 17.5124 7.72913 18.6446 9.06404 18.6446V22.438C8.05646 22.438 7.19287 23.0831 6.82994 24H12.5067ZM10.2726 12.3223H9.06404C8.39658 12.3223 7.8555 12.8884 7.8555 13.5868V16.1157C7.8555 16.814 8.39658 17.3802 9.06404 17.3802V16.1157H10.2726V17.3802C10.94 17.3802 11.4811 16.814 11.4811 16.1157V13.5868C11.4811 12.8884 10.94 12.3223 10.2726 12.3223Z" fill="url(#paint1_linear_3218_87023)"/>
<path d="M23 22.3636H14.2759V24H23V22.3636Z" fill="url(#paint2_linear_3218_87023)"/>
<path d="M9.55453 3.37879C8.70337 4.21139 8.08178 5.50458 8.08178 7.35006H6C6 4.99546 6.80964 3.13861 8.10531 1.8712C9.38875 0.615747 11.0869 -1.1265e-05 12.7658 1.54566e-10C14.4447 1.13282e-05 16.1428 0.615791 17.4263 1.87124C18.7219 3.13866 19.5316 4.99549 19.5316 7.35006V17.4151L22.2231 14.7C22.6296 14.2899 23.2886 14.2899 23.6951 14.7C24.1016 15.11 24.1016 15.7749 23.6951 16.1849L19.2267 20.6925C18.8202 21.1025 18.1612 21.1025 17.7547 20.6925L13.2862 16.1849C12.8797 15.7749 12.8797 15.11 13.2862 14.7C13.6927 14.2899 14.3518 14.2899 14.7583 14.7L17.4498 17.4151V7.35006C17.4498 5.50463 16.8282 4.21144 15.977 3.37883C15.1136 2.53426 13.9493 2.10001 12.7658 2.1C11.5822 2.09999 10.4179 2.53422 9.55453 3.37879Z" fill="url(#paint3_linear_3218_87023)"/>
</g>
<defs>
<linearGradient id="paint0_linear_3218_87023" x1="11.5" y1="6" x2="11.5" y2="24" gradientUnits="userSpaceOnUse">
<stop stop-color="#10808C"/>
<stop offset="1" stop-color="#1DF7EF"/>
</linearGradient>
<linearGradient id="paint1_linear_3218_87023" x1="11.5" y1="6" x2="11.5" y2="24" gradientUnits="userSpaceOnUse">
<stop stop-color="#10808C"/>
<stop offset="1" stop-color="#1DF7EF"/>
</linearGradient>
<linearGradient id="paint2_linear_3218_87023" x1="11.5" y1="6" x2="11.5" y2="24" gradientUnits="userSpaceOnUse">
<stop stop-color="#10808C"/>
<stop offset="1" stop-color="#1DF7EF"/>
</linearGradient>
<linearGradient id="paint3_linear_3218_87023" x1="15" y1="0" x2="15" y2="21" gradientUnits="userSpaceOnUse">
<stop stop-color="#FE5468"/>
<stop offset="1" stop-color="#FFDF27"/>
</linearGradient>
<clipPath id="clip0_3218_87023">
<rect width="24" height="24" fill="white"/>
</clipPath>
</defs>
</svg>
