<svg width="15" height="15" viewBox="0 0 15 15" fill="none" xmlns="http://www.w3.org/2000/svg">
<g clip-path="url(#clip0_7416_32378)">
<path fill-rule="evenodd" clip-rule="evenodd" d="M0.00274869 3.91251C-0.0529535 2.91913 0.745065 2.08333 1.74925 2.08333H13.2507C14.2549 2.08333 15.053 2.91913 14.9973 3.91251L14.6653 9.8325C14.6256 10.5399 14.0097 11.0786 13.2963 11.0299L7.67812 10.646C7.64588 10.6438 7.61416 10.655 7.59053 10.6768L4.95427 13.1146C4.45253 13.5786 3.63198 13.2592 3.58308 12.581L3.45549 10.8112C3.45063 10.7438 3.38879 10.695 3.32144 10.7052L1.80593 10.9362C1.05713 11.0504 0.372134 10.5001 0.33011 9.7506L0.00274869 3.91251ZM1.74925 2.77655C1.14674 2.77655 0.667928 3.27803 0.701349 3.87406L1.02871 9.71215C1.04781 10.0528 1.35917 10.3029 1.69954 10.2511L3.21505 10.0201C3.68648 9.94821 4.1194 10.2904 4.15339 10.7618L4.28098 12.5316C4.28796 12.6285 4.40519 12.6741 4.47686 12.6078L7.11313 10.17C7.27852 10.0171 7.50056 9.93901 7.72626 9.95444L13.3444 10.3383C13.6687 10.3605 13.9487 10.1156 13.9667 9.79405L14.2987 3.87406C14.3321 3.27803 13.8533 2.77655 13.2507 2.77655H1.74925Z" fill="url(#paint0_linear_7416_32378)"/>
<path d="M3.33334 7.48264V5.01736H5.13153V5.51736H3.94517V6.04861H4.92261V6.51042H3.94517V7.48264H3.33334Z" fill="url(#paint1_linear_7416_32378)"/>
<path d="M6.97106 5.01736H7.63139L8.54168 7.48264H7.91492L7.70974 6.93056H6.88526L6.6838 7.48264H6.05705L6.97106 5.01736ZM7.60901 6.53819L7.29936 5.59028L6.98226 6.53819H7.60901Z" fill="url(#paint2_linear_7416_32378)"/>
<path d="M10.7254 7.5C10.5264 7.5 10.3461 7.46528 10.1844 7.39583C10.0253 7.32639 9.88722 7.23264 9.77033 7.11458C9.65592 6.99421 9.56763 6.85995 9.50545 6.71181C9.44327 6.56134 9.41218 6.40625 9.41218 6.24653C9.41218 6.08218 9.44452 5.92593 9.50918 5.77778C9.57633 5.62731 9.66836 5.49421 9.78525 5.37847C9.90463 5.26273 10.0452 5.1713 10.2068 5.10417C10.3685 5.03472 10.5451 5 10.7366 5C10.9331 5 11.1109 5.03588 11.2701 5.10764C11.4317 5.1794 11.5698 5.27546 11.6842 5.39583C11.8011 5.5162 11.8906 5.65162 11.9528 5.80208C12.0149 5.95023 12.046 6.10185 12.046 6.25694C12.046 6.4213 12.0137 6.57755 11.949 6.72569C11.8844 6.87384 11.7924 7.00694 11.673 7.125C11.5536 7.24074 11.4131 7.33218 11.2514 7.39931C11.0922 7.46643 10.9169 7.5 10.7254 7.5ZM10.7291 6.99306C10.846 6.99306 10.948 6.97222 11.035 6.93056C11.1221 6.88657 11.1942 6.82986 11.2514 6.76042C11.3086 6.68866 11.3509 6.6088 11.3782 6.52083C11.4081 6.43056 11.423 6.33912 11.423 6.24653C11.423 6.15162 11.4081 6.06019 11.3782 5.97222C11.3484 5.88194 11.3036 5.80208 11.2439 5.73264C11.1843 5.66319 11.1109 5.6088 11.0238 5.56944C10.9368 5.52778 10.8385 5.50694 10.7291 5.50694C10.6122 5.50694 10.5102 5.52894 10.4232 5.57292C10.3386 5.61458 10.2665 5.6713 10.2068 5.74306C10.1496 5.8125 10.1061 5.89236 10.0762 5.98264C10.0489 6.0706 10.0352 6.16088 10.0352 6.25347C10.0352 6.34838 10.0501 6.43981 10.08 6.52778C10.1098 6.61574 10.1533 6.6956 10.2105 6.76736C10.2702 6.83681 10.3436 6.89236 10.4307 6.93403C10.5177 6.97338 10.6172 6.99306 10.7291 6.99306ZM10.565 6.51042H11.1395L12.0833 7.48264H11.5088L10.565 6.51042Z" fill="url(#paint3_linear_7416_32378)"/>
</g>
<defs>
<linearGradient id="paint0_linear_7416_32378" x1="7.5" y1="2.08333" x2="7.5" y2="13.3333" gradientUnits="userSpaceOnUse">
<stop stop-color="#10808C"/>
<stop offset="1" stop-color="#1DF7EF"/>
</linearGradient>
<linearGradient id="paint1_linear_7416_32378" x1="7.70834" y1="5" x2="8.40471" y2="8.42655" gradientUnits="userSpaceOnUse">
<stop stop-color="#FE5468"/>
<stop offset="1" stop-color="#FFDF27"/>
</linearGradient>
<linearGradient id="paint2_linear_7416_32378" x1="7.70834" y1="5" x2="8.40471" y2="8.42655" gradientUnits="userSpaceOnUse">
<stop stop-color="#FE5468"/>
<stop offset="1" stop-color="#FFDF27"/>
</linearGradient>
<linearGradient id="paint3_linear_7416_32378" x1="7.70834" y1="5" x2="8.40471" y2="8.42655" gradientUnits="userSpaceOnUse">
<stop stop-color="#FE5468"/>
<stop offset="1" stop-color="#FFDF27"/>
</linearGradient>
<clipPath id="clip0_7416_32378">
<rect width="15" height="15" fill="white"/>
</clipPath>
</defs>
</svg>
