<svg width="15" height="15" viewBox="0 0 15 15" fill="none" xmlns="http://www.w3.org/2000/svg">
<g clip-path="url(#clip0_177_29921)">
<path d="M2 4V8.79289L3 9.79289V5C2.44772 5 2 4.55228 2 4Z" fill="url(#paint0_linear_177_29921)"/>
<path d="M12 5V6.79297L13 5.79297V4C13 4.55228 12.5523 5 12 5Z" fill="url(#paint1_linear_177_29921)"/>
<path d="M12 9.20718L13 8.20718V14C13 14.5523 12.5523 15 12 15H3C2.44772 15 2 14.5523 2 14V11.2071L3 12.2071V13.5C3 13.7761 3.22386 14 3.5 14H11.5C11.7761 14 12 13.7761 12 13.5V9.20718Z" fill="url(#paint2_linear_177_29921)"/>
<path fill-rule="evenodd" clip-rule="evenodd" d="M5 4V5H10V4H5ZM4.5 3C4.22386 3 4 3.22386 4 3.5V5.5C4 5.77614 4.22386 6 4.5 6H10.5C10.7761 6 11 5.77614 11 5.5V3.5C11 3.22386 10.7761 3 10.5 3H4.5Z" fill="url(#paint3_linear_177_29921)"/>
<path d="M13.6396 0.5L14.5 3.08105V4C14.5 4.27614 14.2761 4.5 14 4.5C13.7239 4.5 13.5 4.27614 13.5 4H12.5C12.5 4.26792 12.2892 4.48428 12.0244 4.49707V3.0752C12.0244 2.48149 11.5429 2 10.9492 2H4.0498C3.4561 2 2.97461 2.48149 2.97461 3.0752V4.49707C2.71032 4.48379 2.5 4.26759 2.5 4H1.5C1.5 4.27614 1.27614 4.5 1 4.5C0.723858 4.5 0.5 4.27614 0.5 4V3.08105L1.36035 0.5H13.6396Z" fill="url(#paint4_linear_177_29921)" stroke="url(#paint5_linear_177_29921)"/>
<path fill-rule="evenodd" clip-rule="evenodd" d="M14.3535 6.85359L9.03708 12.17L6.57033 10.1966L4.03358 13.2407L1.14642 10.3536L1.85353 9.64648L3.96638 11.7593L6.42962 8.80344L8.96287 10.83L13.6464 6.14648L14.3535 6.85359Z" fill="url(#paint6_linear_177_29921)"/>
</g>
<defs>
<linearGradient id="paint0_linear_177_29921" x1="7.5" y1="4" x2="7.5" y2="15" gradientUnits="userSpaceOnUse">
<stop stop-color="#10808C"/>
<stop offset="1" stop-color="#1DF7EF"/>
</linearGradient>
<linearGradient id="paint1_linear_177_29921" x1="7.5" y1="4" x2="7.5" y2="15" gradientUnits="userSpaceOnUse">
<stop stop-color="#10808C"/>
<stop offset="1" stop-color="#1DF7EF"/>
</linearGradient>
<linearGradient id="paint2_linear_177_29921" x1="7.5" y1="4" x2="7.5" y2="15" gradientUnits="userSpaceOnUse">
<stop stop-color="#10808C"/>
<stop offset="1" stop-color="#1DF7EF"/>
</linearGradient>
<linearGradient id="paint3_linear_177_29921" x1="7.5" y1="3" x2="7.5" y2="6" gradientUnits="userSpaceOnUse">
<stop stop-color="#10808C"/>
<stop offset="1" stop-color="#1DF7EF"/>
</linearGradient>
<linearGradient id="paint4_linear_177_29921" x1="7.5" y1="0" x2="7.5" y2="5" gradientUnits="userSpaceOnUse">
<stop stop-color="#FE5468"/>
<stop offset="1" stop-color="#FFDF27"/>
</linearGradient>
<linearGradient id="paint5_linear_177_29921" x1="7.5" y1="0" x2="7.5" y2="5" gradientUnits="userSpaceOnUse">
<stop stop-color="#FE5468"/>
<stop offset="1" stop-color="#FFDF27"/>
</linearGradient>
<linearGradient id="paint6_linear_177_29921" x1="7.74998" y1="6.14648" x2="7.74998" y2="13.2407" gradientUnits="userSpaceOnUse">
<stop stop-color="#FE5468"/>
<stop offset="1" stop-color="#FFDF27"/>
</linearGradient>
<clipPath id="clip0_177_29921">
<rect width="15" height="15" fill="white"/>
</clipPath>
</defs>
</svg>
