<svg width="15" height="15" viewBox="0 0 15 15" fill="none" xmlns="http://www.w3.org/2000/svg">
<path d="M9.36458 2.41164C9.36458 2.05895 9.5078 1.72072 9.76273 1.47133C10.0177 1.22195 10.3634 1.08185 10.724 1.08185C11.0845 1.08185 11.4302 1.22195 11.6852 1.47133C11.9401 1.72072 12.0833 2.05895 12.0833 2.41164V12.1634C12.0833 12.5161 11.9401 12.8543 11.6852 13.1037C11.4302 13.3531 11.0845 13.4932 10.724 13.4932C10.3634 13.4932 10.0177 13.3531 9.76273 13.1037C9.5078 12.8543 9.36458 12.5161 9.36458 12.1634V11.9737C7.40527 10.8735 6.78328 10.4764 5.51725 10.1271L5.88428 12.5313C5.90893 12.6594 5.9044 12.7912 5.87103 12.9174C5.83765 13.0436 5.77624 13.161 5.69118 13.2613C5.60611 13.3616 5.49948 13.4424 5.37888 13.4978C5.25828 13.5532 5.12667 13.5819 4.99344 13.5818H4.49681C4.32066 13.5818 4.14832 13.5316 4.00089 13.4373C3.85346 13.343 3.73733 13.2087 3.66669 13.0508L1.99012 9.95685C1.92911 9.95587 1.86808 9.95499 1.80706 9.95419C1.32708 9.94953 0.868296 9.76009 0.53007 9.4269C0.191845 9.09371 0.00140636 8.6436 0 8.17405V6.401C0.00161746 5.9314 0.191735 5.48121 0.529398 5.14741C0.86706 4.81362 1.32525 4.62293 1.80525 4.61642C2.55565 4.60647 3.30582 4.5843 4.05547 4.54993C5.88428 4.54993 7.21043 3.79727 9.36458 2.60047V2.41164ZM10.2708 2.41164V12.1634C10.2708 12.281 10.3186 12.3937 10.4036 12.4768C10.4885 12.56 10.6038 12.6067 10.724 12.6067C10.8441 12.6067 10.9594 12.56 11.0444 12.4768C11.1293 12.3937 11.1771 12.281 11.1771 12.1634V2.41164C11.1771 2.29407 11.1293 2.18133 11.0444 2.0982C10.9594 2.01507 10.8441 1.96837 10.724 1.96837C10.6038 1.96837 10.4885 2.01507 10.4036 2.0982C10.3186 2.18133 10.2708 2.29407 10.2708 2.41164ZM9.36458 3.60844C7.24033 4.67671 6.13169 5.37795 4.53125 5.41075V9.16341C4.69438 9.17227 4.85659 9.18291 5.01791 9.19532C6.41625 9.4994 7.21677 9.8549 9.36458 10.9622V3.60844ZM3.625 9.1182V5.45685C3.02343 5.47838 2.42165 5.49375 1.81975 5.50295C1.57757 5.50573 1.34619 5.60138 1.17536 5.76932C1.00453 5.93726 0.907895 6.16408 0.90625 6.401V8.17405C0.90625 8.66163 1.31225 9.06234 1.81794 9.06855C2.42053 9.07538 3.02297 9.09193 3.625 9.1182ZM3.02959 9.98256L4.48775 12.6749L4.49681 12.6962H4.99344L4.99162 12.6838L4.59016 10.0544C4.0703 10.0237 3.55007 9.99945 3.02959 9.98167V9.98256Z" fill="url(#paint0_linear_177_31167)"/>
<path d="M13.1248 3.9119L14.0278 3.38935C14.227 3.27409 14.4819 3.34212 14.5971 3.54129C14.7124 3.74047 14.6443 3.99537 14.4452 4.11062L13.5422 4.63317C13.343 4.74843 13.0881 4.6804 12.9728 4.48123C12.8576 4.28206 12.9256 4.02716 13.1248 3.9119Z" fill="url(#paint1_linear_177_31167)"/>
<path d="M13.1248 10.7774L14.0278 11.2999C14.227 11.4152 14.4819 11.3472 14.5971 11.148C14.7124 10.9488 14.6443 10.6939 14.4452 10.5787L13.5422 10.0561C13.343 9.94085 13.0881 10.0089 12.9728 10.2081C12.8576 10.4072 12.9256 10.6621 13.1248 10.7774Z" fill="url(#paint2_linear_177_31167)"/>
<path d="M13.3333 7.91665H14.1667C14.3968 7.91665 14.5833 8.1032 14.5833 8.33332C14.5833 8.56344 14.3968 8.74999 14.1667 8.74999H13.3333C13.1032 8.74999 12.9167 8.56344 12.9167 8.33332C12.9167 8.1032 13.1032 7.91665 13.3333 7.91665Z" fill="url(#paint3_linear_177_31167)"/>
<path d="M13.3333 5.83332H14.1667C14.3968 5.83332 14.5833 6.01987 14.5833 6.24999C14.5833 6.48011 14.3968 6.66665 14.1667 6.66665H13.3333C13.1032 6.66665 12.9167 6.48011 12.9167 6.24999C12.9167 6.01987 13.1032 5.83332 13.3333 5.83332Z" fill="url(#paint4_linear_177_31167)"/>
<defs>
<linearGradient id="paint0_linear_177_31167" x1="6.04167" y1="1.08185" x2="6.04167" y2="13.5818" gradientUnits="userSpaceOnUse">
<stop stop-color="#10808C"/>
<stop offset="1" stop-color="#1DF7EF"/>
</linearGradient>
<linearGradient id="paint1_linear_177_31167" x1="13.7849" y1="3.33325" x2="13.7849" y2="11.356" gradientUnits="userSpaceOnUse">
<stop stop-color="#FE5468"/>
<stop offset="1" stop-color="#FFDF27"/>
</linearGradient>
<linearGradient id="paint2_linear_177_31167" x1="13.7849" y1="3.33325" x2="13.7849" y2="11.356" gradientUnits="userSpaceOnUse">
<stop stop-color="#FE5468"/>
<stop offset="1" stop-color="#FFDF27"/>
</linearGradient>
<linearGradient id="paint3_linear_177_31167" x1="13.7849" y1="3.33325" x2="13.7849" y2="11.356" gradientUnits="userSpaceOnUse">
<stop stop-color="#FE5468"/>
<stop offset="1" stop-color="#FFDF27"/>
</linearGradient>
<linearGradient id="paint4_linear_177_31167" x1="13.7849" y1="3.33325" x2="13.7849" y2="11.356" gradientUnits="userSpaceOnUse">
<stop stop-color="#FE5468"/>
<stop offset="1" stop-color="#FFDF27"/>
</linearGradient>
</defs>
</svg>
