<svg width="24" height="24" viewBox="0 0 24 24" fill="none" xmlns="http://www.w3.org/2000/svg">
<g clip-path="url(#clip0_3218_86407)">
<path d="M24 22.6301L24 16.3696C24 15.6132 23.3574 15 22.5647 15C21.772 15 21.1294 15.6132 21.1294 16.3696L21.1294 19.3235L19.297 17.575C18.7445 18.3277 18.069 18.9921 17.2983 19.5417L19.0995 21.2605H16.0032C15.2105 21.2605 14.5679 21.8737 14.5679 22.6301C14.5679 23.3865 15.2105 23.9997 16.0032 23.9997L22.5647 23.9997C23.3574 23.9997 24 23.3865 24 22.6301Z" fill="url(#paint0_linear_3218_86407)"/>
<path d="M6.61885 19.6211C5.83914 19.0826 5.15321 18.4282 4.58889 17.6842L0.420397 21.6619C-0.140132 22.1968 -0.140133 23.064 0.420396 23.5988C0.980924 24.1337 1.88972 24.1337 2.45025 23.5988L6.61885 19.6211Z" fill="url(#paint1_linear_3218_86407)"/>
<path d="M24 22.6301L24 16.3696C24 15.6132 23.3574 15 22.5647 15C21.772 15 21.1294 15.6132 21.1294 16.3696L21.1294 19.3235L18.822 16.9358C18.2695 17.6884 17.594 18.3529 16.8234 18.9025L19.0995 21.2605H16.0032C15.2105 21.2605 14.5679 21.8737 14.5679 22.6301C14.5679 23.3865 15.2105 23.9997 16.0032 23.9997L22.5647 23.9997C23.3574 23.9997 24 23.3865 24 22.6301Z" fill="url(#paint2_linear_3218_86407)"/>
<path d="M6.61885 19.6211C5.83914 19.0826 5.15321 18.4282 4.58889 17.6842L0.420397 21.6619C-0.140132 22.1968 -0.140133 23.064 0.420396 23.5988C0.980924 24.1337 1.88972 24.1337 2.45025 23.5988L6.61885 19.6211Z" fill="url(#paint3_linear_3218_86407)"/>
<path d="M22.5647 0H16.0041C15.2114 0 14.5688 0.681306 14.5688 1.52174C14.5688 2.36217 15.2114 3.04348 16.0041 3.04348H19.0996L16.0041 6.73913C16.7838 7.33742 17.4696 8.06465 18.0338 8.89131L21.1294 5.19554V8.47826C21.1294 9.31869 21.772 10 22.5647 10C23.3574 10 24 9.31869 24 8.47826V1.52174C24 0.681306 23.3574 0 22.5647 0Z" fill="url(#paint4_linear_3218_86407)"/>
<path d="M6.7327 4.9862L2.45018 0.445707C1.88967 -0.148569 0.980896 -0.148569 0.420384 0.445707C-0.140128 1.03998 -0.140128 2.00349 0.420384 2.59777L4.67169 7.10517C5.24767 6.28812 5.94396 5.57196 6.7327 4.9862Z" fill="url(#paint5_linear_3218_86407)"/>
<path fill-rule="evenodd" clip-rule="evenodd" d="M11.7619 9.21488C11.7619 10.3788 10.9091 11.3223 9.85714 11.3223L9.85714 13.4298C10.9091 13.4298 11.7619 14.3733 11.7619 15.5372V17.6446C11.7619 18.8085 10.9091 19.7521 9.85714 19.7521V20H8.90476V19.7521C7.85279 19.7521 7 18.8085 7 17.6446V15.5372C7 14.3733 7.85279 13.4298 8.90476 13.4298V11.3223C7.85279 11.3223 7 10.3788 7 9.21488V7.10744C7 5.94353 7.85279 5 8.90476 5H9.85714C10.9091 5 11.7619 5.94353 11.7619 7.10744V9.21488ZM8.90476 6.05372H9.85714C10.3831 6.05372 10.8095 6.52549 10.8095 7.10744V9.21488C10.8095 9.79683 10.3831 10.2686 9.85714 10.2686V9.21488H8.90476V10.2686C8.37878 10.2686 7.95238 9.79683 7.95238 9.21488V7.10744C7.95238 6.52549 8.37878 6.05372 8.90476 6.05372ZM9.85714 18.6983C10.3831 18.6983 10.8095 18.2266 10.8095 17.6446V15.5372C10.8095 14.9552 10.3831 14.4835 9.85714 14.4835L9.85714 15.5372H8.90476V14.4835C8.37878 14.4835 7.95238 14.9552 7.95238 15.5372V17.6446C7.95238 18.2266 8.37878 18.6983 8.90476 18.6983V17.6446H9.85714V18.6983Z" fill="url(#paint6_linear_3218_86407)"/>
<path fill-rule="evenodd" clip-rule="evenodd" d="M15.0952 18.6983V15.5372C16.1472 15.5372 17 14.5937 17 13.4298V11.3223C17 10.1584 16.1472 9.21488 15.0952 9.21488H14.1429C13.0909 9.21488 12.2381 10.1584 12.2381 11.3223V13.4298C12.2381 14.5937 13.0909 15.5372 14.1429 15.5372V18.6983C8.73215 18.6983 20.5059 18.6983 15.0952 18.6983ZM15.0952 10.2686H14.1429C13.6169 10.2686 13.1905 10.7404 13.1905 11.3223V13.4298C13.1905 14.0117 13.6169 14.4835 14.1429 14.4835V13.4298H15.0952V14.4835C15.6212 14.4835 16.0476 14.0117 16.0476 13.4298V11.3223C16.0476 10.7404 15.6212 10.2686 15.0952 10.2686Z" fill="url(#paint7_linear_3218_86407)"/>
</g>
<defs>
<linearGradient id="paint0_linear_3218_86407" x1="12" y1="15" x2="12" y2="24" gradientUnits="userSpaceOnUse">
<stop stop-color="#10808C"/>
<stop offset="1" stop-color="#1DF7EF"/>
</linearGradient>
<linearGradient id="paint1_linear_3218_86407" x1="12" y1="15" x2="12" y2="24" gradientUnits="userSpaceOnUse">
<stop stop-color="#10808C"/>
<stop offset="1" stop-color="#1DF7EF"/>
</linearGradient>
<linearGradient id="paint2_linear_3218_86407" x1="12" y1="15" x2="12" y2="24" gradientUnits="userSpaceOnUse">
<stop stop-color="#10808C"/>
<stop offset="1" stop-color="#1DF7EF"/>
</linearGradient>
<linearGradient id="paint3_linear_3218_86407" x1="12" y1="15" x2="12" y2="24" gradientUnits="userSpaceOnUse">
<stop stop-color="#10808C"/>
<stop offset="1" stop-color="#1DF7EF"/>
</linearGradient>
<linearGradient id="paint4_linear_3218_86407" x1="12" y1="0" x2="12" y2="10" gradientUnits="userSpaceOnUse">
<stop stop-color="#FE5468"/>
<stop offset="1" stop-color="#FFDF27"/>
</linearGradient>
<linearGradient id="paint5_linear_3218_86407" x1="12" y1="0" x2="12" y2="10" gradientUnits="userSpaceOnUse">
<stop stop-color="#FE5468"/>
<stop offset="1" stop-color="#FFDF27"/>
</linearGradient>
<linearGradient id="paint6_linear_3218_86407" x1="12" y1="5" x2="12" y2="20" gradientUnits="userSpaceOnUse">
<stop stop-color="#10808C"/>
<stop offset="1" stop-color="#1DF7EF"/>
</linearGradient>
<linearGradient id="paint7_linear_3218_86407" x1="12" y1="5" x2="12" y2="20" gradientUnits="userSpaceOnUse">
<stop stop-color="#10808C"/>
<stop offset="1" stop-color="#1DF7EF"/>
</linearGradient>
<clipPath id="clip0_3218_86407">
<rect width="24" height="24" fill="white"/>
</clipPath>
</defs>
</svg>
