<svg width="15" height="15" viewBox="0 0 15 15" fill="none" xmlns="http://www.w3.org/2000/svg">
<g clip-path="url(#clip0_177_31288)">
<path fill-rule="evenodd" clip-rule="evenodd" d="M0.75 9C1.16421 9 1.5 9.33579 1.5 9.75V12.75C1.5 12.9489 1.57902 13.1397 1.71967 13.2803C1.86032 13.421 2.05109 13.5 2.25 13.5H12.75C12.9489 13.5 13.1397 13.421 13.2803 13.2803C13.421 13.1397 13.5 12.9489 13.5 12.75V9.75C13.5 9.33579 13.8358 9 14.25 9C14.6642 9 15 9.33579 15 9.75V12.75C15 13.3467 14.7629 13.919 14.341 14.341C13.919 14.7629 13.3467 15 12.75 15H2.25C1.65326 15 1.08097 14.7629 0.65901 14.341C0.237053 13.919 0 13.3467 0 12.75V9.75C0 9.33579 0.335786 9 0.75 9Z" fill="url(#paint0_linear_177_31288)"/>
<path d="M8.00001 0.499935C8.00001 0.223987 7.77631 0.000338246 7.50036 0.000305179C7.22414 0.000272087 7.00001 0.224101 7.00001 0.500323V9.36727C6.887 9.30216 6.78434 9.21313 6.69962 9.10017L3.69962 5.10017C3.53394 4.87925 3.22053 4.83448 2.99962 5.00017C2.77871 5.16585 2.73394 5.47925 2.89962 5.70017L6.69962 10.7668C7.09962 11.3002 7.89962 11.3002 8.29962 10.7668L12.0996 5.70017C12.2653 5.47925 12.2205 5.16585 11.9996 5.00017C11.7787 4.83448 11.4653 4.87925 11.2996 5.10017L8.29962 9.10017C8.2151 9.21287 8.11271 9.30175 8.00001 9.36682V0.499935Z" fill="url(#paint1_linear_177_31288)"/>
</g>
<defs>
<linearGradient id="paint0_linear_177_31288" x1="7.5" y1="9" x2="7.5" y2="15" gradientUnits="userSpaceOnUse">
<stop stop-color="#FE5468"/>
<stop offset="1" stop-color="#FFDF27"/>
</linearGradient>
<linearGradient id="paint1_linear_177_31288" x1="7.49962" y1="0.000305176" x2="7.49962" y2="11.1668" gradientUnits="userSpaceOnUse">
<stop stop-color="#10808C"/>
<stop offset="1" stop-color="#1DF7EF"/>
</linearGradient>
<clipPath id="clip0_177_31288">
<rect width="15" height="15" fill="white"/>
</clipPath>
</defs>
</svg>
