<svg width="15" height="15" viewBox="0 0 15 15" fill="none" xmlns="http://www.w3.org/2000/svg">
<path fill-rule="evenodd" clip-rule="evenodd" d="M7.49998 0.192871L11.1453 2.79666L10.8547 3.20353L7.49998 0.807323L4.14529 3.20353L3.85468 2.79666L7.49998 0.192871Z" fill="url(#paint0_linear_177_29565)"/>
<path d="M9.5 4C9.58437 4 9.66777 4.00418 9.75 4.01234V4.76772C9.66835 4.75604 9.58488 4.75 9.5 4.75C9.41512 4.75 9.33165 4.75604 9.25 4.76772V4.01234C9.33223 4.00418 9.41563 4 9.5 4Z" fill="url(#paint1_linear_177_29565)"/>
<path d="M11.082 4.5641C11.2113 4.66987 11.3298 4.78835 11.4356 4.91761L10.9014 5.45176C10.801 5.31775 10.6819 5.19861 10.5478 5.09825L11.082 4.5641Z" fill="url(#paint2_linear_177_29565)"/>
<path d="M11.9877 6.75C11.9958 6.66777 12 6.58437 12 6.5C12 6.41563 11.9958 6.33223 11.9877 6.25H11.2323C11.244 6.33165 11.25 6.41512 11.25 6.5C11.25 6.58488 11.244 6.66835 11.2323 6.75H11.9877Z" fill="url(#paint3_linear_177_29565)"/>
<path d="M11.4356 8.08231C11.3298 8.21158 11.2113 8.33006 11.0821 8.43584L10.5479 7.90169C10.682 7.80132 10.8011 7.68218 10.9015 7.54816L11.4356 8.08231Z" fill="url(#paint4_linear_177_29565)"/>
<path d="M7.91767 8.43562C7.7884 8.32982 7.66993 8.21132 7.56415 8.08204L8.09828 7.54788C8.19865 7.68192 8.31779 7.80108 8.4518 7.90148L7.91767 8.43562Z" fill="url(#paint5_linear_177_29565)"/>
<path d="M7.01234 6.25C7.00418 6.33223 7 6.41563 7 6.5C7 6.58437 7.00418 6.66777 7.01234 6.75H7.76772C7.75604 6.66835 7.75 6.58488 7.75 6.5C7.75 6.41512 7.75604 6.33165 7.76772 6.25H7.01234Z" fill="url(#paint6_linear_177_29565)"/>
<path d="M7.56421 4.91788C7.67 4.7886 7.78848 4.67011 7.91775 4.56432L8.45188 5.09846C8.31786 5.19885 8.19872 5.318 8.09835 5.45203L7.56421 4.91788Z" fill="url(#paint7_linear_177_29565)"/>
<path d="M9.5 7.75C8.80964 7.75 8.25 7.19036 8.25 6.5C8.25 5.80964 8.80964 5.25 9.5 5.25C10.1904 5.25 10.75 5.80964 10.75 6.5C10.75 7.19036 10.1904 7.75 9.5 7.75Z" fill="url(#paint8_linear_177_29565)"/>
<path d="M13 11.0638L9.57219 7.21442L7.73033 9.64326L5.27452 6L2 12.0145V12.5L2.53459 14L5.42653 8.41484L7.67135 11.7451L9.63608 9.15421L13 12.9677V11.0638Z" fill="url(#paint9_linear_177_29565)"/>
<circle cx="7.5" cy="0.5" r="0.5" fill="url(#paint10_linear_177_29565)"/>
<path fill-rule="evenodd" clip-rule="evenodd" d="M3.83333 3.32407C3.49583 3.32407 3.22222 3.62048 3.22222 3.98611V13.0139C3.22222 13.3795 3.49583 13.6759 3.83333 13.6759H11.1667C11.5042 13.6759 11.7778 13.3795 11.7778 13.0139V3.98611C11.7778 3.62048 11.5042 3.32407 11.1667 3.32407H3.83333ZM2 3.98611C2 2.88921 2.82081 2 3.83333 2H11.1667C12.1792 2 13 2.88921 13 3.98611V13.0139C13 14.1108 12.1792 15 11.1667 15H3.83333C2.82081 15 2 14.1108 2 13.0139V3.98611Z" fill="url(#paint11_linear_177_29565)"/>
<defs>
<linearGradient id="paint0_linear_177_29565" x1="7.49998" y1="0.192871" x2="7.49998" y2="3.20353" gradientUnits="userSpaceOnUse">
<stop stop-color="#FE5468"/>
<stop offset="1" stop-color="#FFDF27"/>
</linearGradient>
<linearGradient id="paint1_linear_177_29565" x1="9.5" y1="4" x2="9.5" y2="8.43584" gradientUnits="userSpaceOnUse">
<stop stop-color="#FE5468"/>
<stop offset="1" stop-color="#FFDF27"/>
</linearGradient>
<linearGradient id="paint2_linear_177_29565" x1="9.5" y1="4" x2="9.5" y2="8.43584" gradientUnits="userSpaceOnUse">
<stop stop-color="#FE5468"/>
<stop offset="1" stop-color="#FFDF27"/>
</linearGradient>
<linearGradient id="paint3_linear_177_29565" x1="9.5" y1="4" x2="9.5" y2="8.43584" gradientUnits="userSpaceOnUse">
<stop stop-color="#FE5468"/>
<stop offset="1" stop-color="#FFDF27"/>
</linearGradient>
<linearGradient id="paint4_linear_177_29565" x1="9.5" y1="4" x2="9.5" y2="8.43584" gradientUnits="userSpaceOnUse">
<stop stop-color="#FE5468"/>
<stop offset="1" stop-color="#FFDF27"/>
</linearGradient>
<linearGradient id="paint5_linear_177_29565" x1="9.5" y1="4" x2="9.5" y2="8.43584" gradientUnits="userSpaceOnUse">
<stop stop-color="#FE5468"/>
<stop offset="1" stop-color="#FFDF27"/>
</linearGradient>
<linearGradient id="paint6_linear_177_29565" x1="9.5" y1="4" x2="9.5" y2="8.43584" gradientUnits="userSpaceOnUse">
<stop stop-color="#FE5468"/>
<stop offset="1" stop-color="#FFDF27"/>
</linearGradient>
<linearGradient id="paint7_linear_177_29565" x1="9.5" y1="4" x2="9.5" y2="8.43584" gradientUnits="userSpaceOnUse">
<stop stop-color="#FE5468"/>
<stop offset="1" stop-color="#FFDF27"/>
</linearGradient>
<linearGradient id="paint8_linear_177_29565" x1="9.5" y1="4" x2="9.5" y2="8.43584" gradientUnits="userSpaceOnUse">
<stop stop-color="#FE5468"/>
<stop offset="1" stop-color="#FFDF27"/>
</linearGradient>
<linearGradient id="paint9_linear_177_29565" x1="7.5" y1="6" x2="7.5" y2="14" gradientUnits="userSpaceOnUse">
<stop stop-color="#10808C"/>
<stop offset="1" stop-color="#1DF7EF"/>
</linearGradient>
<linearGradient id="paint10_linear_177_29565" x1="7.5" y1="0" x2="7.5" y2="1" gradientUnits="userSpaceOnUse">
<stop stop-color="#10808C"/>
<stop offset="1" stop-color="#1DF7EF"/>
</linearGradient>
<linearGradient id="paint11_linear_177_29565" x1="7.5" y1="2" x2="7.5" y2="15" gradientUnits="userSpaceOnUse">
<stop stop-color="#10808C"/>
<stop offset="1" stop-color="#1DF7EF"/>
</linearGradient>
</defs>
</svg>
