<svg width="24" height="24" viewBox="0 0 24 24" fill="none" xmlns="http://www.w3.org/2000/svg">
<g clip-path="url(#clip0_3218_88127)">
<path d="M14 12C14 13.1046 13.1046 14 12 14C10.8954 14 10 13.1046 10 12C10 10.8954 10.8954 10 12 10C13.1046 10 14 10.8954 14 12Z" fill="url(#paint0_linear_3218_88127)"/>
<path fill-rule="evenodd" clip-rule="evenodd" d="M12 22.5C17.799 22.5 22.5 17.799 22.5 12C22.5 6.20101 17.799 1.5 12 1.5C6.20101 1.5 1.5 6.20101 1.5 12C1.5 17.799 6.20101 22.5 12 22.5ZM12 24C18.6274 24 24 18.6274 24 12C24 5.37258 18.6274 0 12 0C5.37258 0 0 5.37258 0 12C0 18.6274 5.37258 24 12 24Z" fill="url(#paint1_linear_3218_88127)"/>
<path d="M12.0665 3.33333C12.0664 3.33333 12.0665 3.33333 12.0665 3.33333C7.24335 3.33333 3.33333 7.21353 3.33333 12C3.33333 16.7865 7.24325 20.6667 12.0664 20.6667C15.0971 20.6667 17.7673 19.1345 19.3333 16.8081L18.2153 16.0684C16.8902 18.0369 14.6309 19.3333 12.0664 19.3333C7.98527 19.3333 4.67688 16.0501 4.67688 12C4.67688 7.94991 7.98527 4.66667 12.0664 4.66667C12.0663 4.66667 12.0664 4.66667 12.0664 4.66667L12.0665 3.33333Z" fill="url(#paint2_linear_3218_88127)"/>
<path d="M12.0665 7.33333C12.0664 7.33333 12.0665 7.33333 12.0665 7.33333C9.46941 7.33333 7.36397 9.42267 7.36397 12C7.36397 14.5773 9.46931 16.6667 12.0664 16.6667C13.6983 16.6667 15.136 15.8417 15.9793 14.5891L14.8613 13.8494C14.2589 14.7441 13.232 15.3333 12.0664 15.3333C10.2113 15.3333 8.70751 13.841 8.70751 12C8.70751 10.1591 10.2113 8.66667 12.0664 8.66667C12.0663 8.66667 12.0664 8.66667 12.0664 8.66667L12.0665 7.33333Z" fill="url(#paint3_linear_3218_88127)"/>
<path fill-rule="evenodd" clip-rule="evenodd" d="M18.6478 17.8389L10.6667 12.074L11.6607 10.6667L19.6419 16.4315C20.0262 16.7091 20.1152 17.2492 19.8407 17.6378C19.5662 18.0264 19.0321 18.1165 18.6478 17.8389Z" fill="url(#paint4_linear_3218_88127)"/>
<path fill-rule="evenodd" clip-rule="evenodd" d="M17.3333 8.33333C17.8856 8.33333 18.3333 7.88561 18.3333 7.33333C18.3333 6.78104 17.8856 6.33333 17.3333 6.33333C16.781 6.33333 16.3333 6.78104 16.3333 7.33333C16.3333 7.88561 16.781 8.33333 17.3333 8.33333ZM17.3333 9.33333C18.4379 9.33333 19.3333 8.4379 19.3333 7.33333C19.3333 6.22876 18.4379 5.33333 17.3333 5.33333C16.2287 5.33333 15.3333 6.22876 15.3333 7.33333C15.3333 8.4379 16.2287 9.33333 17.3333 9.33333Z" fill="url(#paint5_linear_3218_88127)"/>
<circle cx="5.33333" cy="8" r="1.33333" fill="url(#paint6_linear_3218_88127)"/>
</g>
<defs>
<linearGradient id="paint0_linear_3218_88127" x1="12" y1="0" x2="12" y2="24" gradientUnits="userSpaceOnUse">
<stop stop-color="#10808C"/>
<stop offset="1" stop-color="#1DF7EF"/>
</linearGradient>
<linearGradient id="paint1_linear_3218_88127" x1="12" y1="0" x2="12" y2="24" gradientUnits="userSpaceOnUse">
<stop stop-color="#10808C"/>
<stop offset="1" stop-color="#1DF7EF"/>
</linearGradient>
<linearGradient id="paint2_linear_3218_88127" x1="12" y1="0" x2="12" y2="24" gradientUnits="userSpaceOnUse">
<stop stop-color="#10808C"/>
<stop offset="1" stop-color="#1DF7EF"/>
</linearGradient>
<linearGradient id="paint3_linear_3218_88127" x1="12" y1="0" x2="12" y2="24" gradientUnits="userSpaceOnUse">
<stop stop-color="#10808C"/>
<stop offset="1" stop-color="#1DF7EF"/>
</linearGradient>
<linearGradient id="paint4_linear_3218_88127" x1="15.3334" y1="10.6667" x2="15.3334" y2="18" gradientUnits="userSpaceOnUse">
<stop stop-color="#FE5468"/>
<stop offset="1" stop-color="#FFDF27"/>
</linearGradient>
<linearGradient id="paint5_linear_3218_88127" x1="17.3333" y1="5.33333" x2="17.3333" y2="9.33333" gradientUnits="userSpaceOnUse">
<stop stop-color="#FE5468"/>
<stop offset="1" stop-color="#FFDF27"/>
</linearGradient>
<linearGradient id="paint6_linear_3218_88127" x1="5.33333" y1="6.66667" x2="5.33333" y2="9.33334" gradientUnits="userSpaceOnUse">
<stop stop-color="#FE5468"/>
<stop offset="1" stop-color="#FFDF27"/>
</linearGradient>
<clipPath id="clip0_3218_88127">
<rect width="24" height="24" fill="white"/>
</clipPath>
</defs>
</svg>
