<svg width="16" height="16" viewBox="0 0 16 16" fill="none" xmlns="http://www.w3.org/2000/svg">
<g clip-path="url(#clip0_7416_31969)">
<path fill-rule="evenodd" clip-rule="evenodd" d="M11.4178 2.375C11.353 2.36427 11.2844 2.35371 11.2122 2.34338C10.458 2.23565 9.39563 2.16667 8.20801 2.16667C7.02038 2.16667 5.95798 2.23565 5.20386 2.34338C5.13157 2.35371 5.063 2.36427 4.9982 2.375C5.063 2.38573 5.13157 2.39629 5.20386 2.40662C5.95798 2.51435 7.02038 2.58333 8.20801 2.58333C9.39563 2.58333 10.458 2.51435 11.2122 2.40662C11.2844 2.39629 11.353 2.38573 11.4178 2.375ZM8.20801 3C10.6243 3 12.583 2.72018 12.583 2.375C12.583 2.02982 10.6243 1.75 8.20801 1.75C5.79176 1.75 3.83301 2.02982 3.83301 2.375C3.83301 2.72018 5.79176 3 8.20801 3Z" fill="url(#paint0_linear_7416_31969)"/>
<path fill-rule="evenodd" clip-rule="evenodd" d="M11.2725 14.4281C11.1886 14.4438 11.1014 14.4588 11.011 14.4732C10.2519 14.594 9.27451 14.6667 8.20801 14.6667C7.1415 14.6667 6.16413 14.594 5.40498 14.4732C5.31465 14.4588 5.22741 14.4438 5.14347 14.4281C4.3347 14.2769 3.83301 14.0663 3.83301 13.8333C3.83301 13.6004 4.3347 13.3898 5.14347 13.2386C5.22741 13.2229 5.31465 13.2078 5.40498 13.1935C6.16413 13.0727 7.1415 13 8.20801 13C9.27451 13 10.2519 13.0727 11.011 13.1935C11.1014 13.2078 11.1886 13.2229 11.2725 13.2386C12.0813 13.3898 12.583 13.6004 12.583 13.8333C12.583 14.0663 12.0813 14.2769 11.2725 14.4281Z" fill="url(#paint1_linear_7416_31969)"/>
<path fill-rule="evenodd" clip-rule="evenodd" d="M11.8649 3.18148H4.13514C2.86502 3.18148 1.81532 4.22948 1.74181 5.57093L1.46225 10.6728C1.39843 11.8375 2.27406 12.8192 3.37691 12.8192H12.6231C13.7259 12.8192 14.6016 11.8375 14.5377 10.6728L14.2582 5.57094C14.1847 4.22948 13.135 3.18148 11.8649 3.18148ZM4.13514 2.16699C2.35697 2.16699 0.887393 3.63418 0.784483 5.51222L0.504921 10.614C0.409182 12.3612 1.72264 13.8337 3.37691 13.8337H12.6231C14.2774 13.8337 15.5908 12.3612 15.4951 10.614L15.2155 5.51222C15.1126 3.63419 13.643 2.16699 11.8649 2.16699H4.13514Z" fill="url(#paint2_linear_7416_31969)"/>
<path fill-rule="evenodd" clip-rule="evenodd" d="M12.8614 4.98864H3.13921C3.00498 4.98864 2.89616 5.09887 2.89616 5.23485V8.68182C2.89616 8.8178 3.00498 8.92803 3.13921 8.92803H12.8614C12.9957 8.92803 13.1045 8.8178 13.1045 8.68182V5.23485C13.1045 5.09887 12.9957 4.98864 12.8614 4.98864ZM3.13921 4.25C2.60227 4.25 2.16699 4.69093 2.16699 5.23485V8.68182C2.16699 9.22573 2.60227 9.66667 3.13921 9.66667H12.8614C13.3984 9.66667 13.8337 9.22573 13.8337 8.68182V5.23485C13.8337 4.69093 13.3984 4.25 12.8614 4.25H3.13921Z" fill="url(#paint3_linear_7416_31969)"/>
<path d="M4.29942 7.58366C4.19667 7.58366 4.10392 7.55854 4.02118 7.50832C3.93844 7.45809 3.87571 7.38959 3.83301 7.30284L3.98715 7.12019C4.02451 7.17955 4.07122 7.22673 4.12727 7.26174C4.18332 7.29675 4.24137 7.31425 4.30143 7.31425C4.34947 7.31425 4.39151 7.30284 4.42754 7.28001C4.46491 7.25717 4.49427 7.22521 4.51562 7.18412C4.53697 7.14302 4.54765 7.09584 4.54765 7.04256C4.54765 6.98929 4.53764 6.94287 4.51762 6.90329C4.4976 6.86372 4.47024 6.83328 4.43555 6.81197C4.40085 6.78914 4.36148 6.77772 4.31744 6.77772C4.2734 6.77772 4.23203 6.78914 4.19333 6.81197C4.15596 6.83328 4.12594 6.86448 4.10325 6.90558H3.86904L4.03319 5.93982H4.73381V6.21836H4.22736L4.16931 6.58138C4.18666 6.56311 4.21068 6.54789 4.24137 6.53571C4.27207 6.52201 4.3101 6.51517 4.35547 6.51517C4.44489 6.51517 4.52496 6.53724 4.59569 6.58138C4.66642 6.62552 4.7218 6.68716 4.76184 6.76631C4.80187 6.84393 4.82189 6.93373 4.82189 7.03571C4.82189 7.14378 4.7992 7.23891 4.75383 7.3211C4.70846 7.40482 4.6464 7.4695 4.56766 7.51517C4.48893 7.56083 4.39951 7.58366 4.29942 7.58366Z" fill="url(#paint4_linear_7416_31969)"/>
<path d="M5.40784 7.58366C5.30508 7.58366 5.21233 7.55854 5.12959 7.50832C5.04685 7.45809 4.98412 7.38959 4.94142 7.30284L5.09556 7.12019C5.13292 7.17955 5.17963 7.22673 5.23568 7.26174C5.29173 7.29675 5.34978 7.31425 5.40984 7.31425C5.45788 7.31425 5.49992 7.30284 5.53595 7.28001C5.57332 7.25717 5.60268 7.22521 5.62403 7.18412C5.64538 7.14302 5.65606 7.09584 5.65606 7.04256C5.65606 6.98929 5.64605 6.94287 5.62603 6.90329C5.60601 6.86372 5.57866 6.83328 5.54396 6.81197C5.50926 6.78914 5.46989 6.77772 5.42585 6.77772C5.38181 6.77772 5.34044 6.78914 5.30174 6.81197C5.26437 6.83328 5.23435 6.86448 5.21166 6.90558H4.97745L5.1416 5.93982H5.84222V6.21836H5.33577L5.27772 6.58138C5.29507 6.56311 5.31909 6.54789 5.34978 6.53571C5.38048 6.52201 5.41851 6.51517 5.46389 6.51517C5.5533 6.51517 5.63337 6.53724 5.7041 6.58138C5.77483 6.62552 5.83021 6.68716 5.87025 6.76631C5.91028 6.84393 5.9303 6.93373 5.9303 7.03571C5.9303 7.14378 5.90762 7.23891 5.86224 7.3211C5.81687 7.40482 5.75481 7.4695 5.67608 7.51517C5.59734 7.56083 5.50793 7.58366 5.40784 7.58366Z" fill="url(#paint5_linear_7416_31969)"/>
<path d="M6.51625 7.58366C6.41349 7.58366 6.32074 7.55854 6.238 7.50832C6.15526 7.45809 6.09254 7.38959 6.04983 7.30284L6.20397 7.12019C6.24134 7.17955 6.28804 7.22673 6.34409 7.26174C6.40014 7.29675 6.4582 7.31425 6.51825 7.31425C6.56629 7.31425 6.60833 7.30284 6.64436 7.28001C6.68173 7.25717 6.71109 7.22521 6.73244 7.18412C6.75379 7.14302 6.76447 7.09584 6.76447 7.04256C6.76447 6.98929 6.75446 6.94287 6.73444 6.90329C6.71443 6.86372 6.68707 6.83328 6.65237 6.81197C6.61767 6.78914 6.5783 6.77772 6.53426 6.77772C6.49022 6.77772 6.44885 6.78914 6.41015 6.81197C6.37279 6.83328 6.34276 6.86448 6.32007 6.90558H6.08586L6.25001 5.93982H6.95064V6.21836H6.44418L6.38613 6.58138C6.40348 6.56311 6.4275 6.54789 6.4582 6.53571C6.48889 6.52201 6.52692 6.51517 6.5723 6.51517C6.66171 6.51517 6.74178 6.53724 6.81251 6.58138C6.88324 6.62552 6.93863 6.68716 6.97866 6.76631C7.0187 6.84393 7.03871 6.93373 7.03871 7.03571C7.03871 7.14378 7.01603 7.23891 6.97065 7.3211C6.92528 7.40482 6.86322 7.4695 6.78449 7.51517C6.70575 7.56083 6.61634 7.58366 6.51625 7.58366Z" fill="url(#paint6_linear_7416_31969)"/>
<path d="M7.2163 6.75489V6.47864H7.82284V6.75489H7.2163Z" fill="url(#paint7_linear_7416_31969)"/>
<path d="M8.64678 6.70466C8.70283 6.71532 8.75154 6.73967 8.79291 6.77772C8.83428 6.81425 8.86631 6.86144 8.88899 6.91928C8.91301 6.97711 8.92502 7.04104 8.92502 7.11106C8.92502 7.20542 8.90367 7.28762 8.86097 7.35763C8.81826 7.42765 8.75754 7.48168 8.6788 7.51973C8.6014 7.55931 8.50999 7.57909 8.40456 7.57909C8.30314 7.57909 8.21306 7.56007 8.13432 7.52201C8.05692 7.48549 7.99219 7.43145 7.94015 7.35991L8.09228 7.14302C8.12698 7.19173 8.16835 7.22978 8.21639 7.25717C8.26577 7.28609 8.32582 7.30055 8.39655 7.30055C8.47796 7.30055 8.54001 7.28153 8.58272 7.24348C8.62542 7.20695 8.64678 7.15139 8.64678 7.07681C8.64678 6.99766 8.62209 6.93678 8.57271 6.89416C8.52333 6.85154 8.4486 6.83023 8.34851 6.83023H8.29246V6.60192H8.35452C8.43592 6.60192 8.49931 6.58061 8.54468 6.538C8.59139 6.49538 8.61475 6.44211 8.61475 6.37818C8.61475 6.33708 8.60607 6.30284 8.58872 6.27544C8.57138 6.24804 8.54735 6.22749 8.51666 6.2138C8.4873 6.2001 8.4526 6.19325 8.41257 6.19325C8.35251 6.19325 8.2978 6.20923 8.24842 6.24119C8.19904 6.27316 8.15901 6.31806 8.12831 6.3759L7.96016 6.16128C7.98819 6.1141 8.02622 6.07377 8.07426 6.04028C8.12364 6.00527 8.17969 5.97788 8.24241 5.95809C8.30647 5.9383 8.3732 5.92841 8.44259 5.92841C8.53334 5.92841 8.61275 5.94515 8.68081 5.97864C8.7502 6.01212 8.80425 6.05931 8.84295 6.12019C8.88165 6.18107 8.901 6.25185 8.901 6.33252C8.901 6.39188 8.89033 6.44819 8.86897 6.50147C8.84762 6.55474 8.8176 6.59964 8.77889 6.63617C8.74153 6.67118 8.69749 6.69401 8.64678 6.70466Z" fill="url(#paint8_linear_7416_31969)"/>
<path d="M9.07639 7.24348C9.07639 7.17498 9.08107 7.11334 9.09041 7.05854C9.09975 7.00375 9.11576 6.95276 9.13845 6.90558C9.16247 6.85839 9.1945 6.81425 9.23454 6.77316C9.27591 6.73054 9.32795 6.68944 9.39067 6.64987C9.44539 6.61638 9.49343 6.58746 9.5348 6.56311C9.57617 6.53724 9.61087 6.51364 9.6389 6.49233C9.66826 6.47103 9.69028 6.44972 9.70496 6.42841C9.71964 6.40558 9.72697 6.3797 9.72697 6.35078C9.72697 6.32034 9.71964 6.29294 9.70496 6.26859C9.69028 6.24272 9.66959 6.22217 9.6429 6.20695C9.61621 6.19173 9.58285 6.18412 9.54281 6.18412C9.51078 6.18412 9.48076 6.18868 9.45273 6.19781C9.42604 6.20695 9.40068 6.21988 9.37666 6.23663C9.35398 6.25337 9.33262 6.2724 9.3126 6.2937C9.29259 6.31349 9.27457 6.3348 9.25856 6.35763L9.0884 6.13389C9.10709 6.11258 9.13178 6.08975 9.16247 6.06539C9.1945 6.03952 9.23187 6.01593 9.27457 5.99462C9.31861 5.97179 9.36665 5.95352 9.4187 5.93982C9.47208 5.9246 9.5288 5.91699 9.58885 5.91699C9.6796 5.91699 9.757 5.93373 9.82106 5.96722C9.88512 5.99918 9.93383 6.04409 9.96719 6.10192C10.0019 6.15976 10.0192 6.22749 10.0192 6.30512C10.0192 6.35839 10.0106 6.40558 9.99321 6.44667C9.97586 6.48777 9.95384 6.5243 9.92715 6.55626C9.90046 6.5867 9.8711 6.6141 9.83908 6.63845C9.80838 6.66281 9.77835 6.68412 9.74899 6.70238C9.70762 6.72673 9.67026 6.74956 9.63689 6.77087C9.60353 6.79066 9.57417 6.81121 9.54882 6.83252C9.52346 6.8523 9.50077 6.87285 9.48076 6.89416C9.46207 6.91547 9.44539 6.93982 9.43071 6.96722H10.0413V7.24348H9.07639Z" fill="url(#paint9_linear_7416_31969)"/>
<path d="M11.0711 6.96722V7.24348H10.2584V6.96722H10.5426V6.27544C10.5306 6.2937 10.5119 6.31273 10.4866 6.33252C10.4612 6.35078 10.4325 6.36829 10.4005 6.38503C10.3685 6.40177 10.3364 6.41547 10.3044 6.42612C10.2724 6.43678 10.2437 6.44211 10.2183 6.44211V6.15672C10.2423 6.15672 10.271 6.14835 10.3044 6.1316C10.3391 6.11334 10.3731 6.09203 10.4065 6.06768C10.4412 6.04332 10.4705 6.01973 10.4946 5.9969C10.5199 5.97255 10.5359 5.95352 10.5426 5.93982H10.8169V6.96722H11.0711Z" fill="url(#paint10_linear_7416_31969)"/>
<path d="M11.6439 7.58366C11.5411 7.58366 11.4484 7.55854 11.3656 7.50832C11.2829 7.45809 11.2202 7.38959 11.1775 7.30284L11.3316 7.12019C11.369 7.17955 11.4157 7.22673 11.4717 7.26174C11.5278 7.29675 11.5858 7.31425 11.6459 7.31425C11.6939 7.31425 11.736 7.30284 11.772 7.28001C11.8094 7.25717 11.8387 7.22521 11.8601 7.18412C11.8814 7.14302 11.8921 7.09584 11.8921 7.04256C11.8921 6.98929 11.8821 6.94287 11.8621 6.90329C11.8421 6.86372 11.8147 6.83328 11.78 6.81197C11.7453 6.78914 11.7059 6.77772 11.6619 6.77772C11.6179 6.77772 11.5765 6.78914 11.5378 6.81197C11.5004 6.83328 11.4704 6.86448 11.4477 6.90558H11.2135L11.3776 5.93982H12.0783V6.21836H11.5718L11.5138 6.58138C11.5311 6.56311 11.5551 6.54789 11.5858 6.53571C11.6165 6.52201 11.6546 6.51517 11.6999 6.51517C11.7893 6.51517 11.8694 6.53724 11.9401 6.58138C12.0109 6.62552 12.0663 6.68716 12.1063 6.76631C12.1463 6.84393 12.1663 6.93373 12.1663 7.03571C12.1663 7.14378 12.1437 7.23891 12.0983 7.3211C12.0529 7.40482 11.9909 7.4695 11.9121 7.51517C11.8334 7.56083 11.744 7.58366 11.6439 7.58366Z" fill="url(#paint11_linear_7416_31969)"/>
<rect x="3" y="10.083" width="4.58333" height="1.66667" rx="0.833333" fill="url(#paint12_linear_7416_31969)"/>
<rect x="10.917" y="10.083" width="2.08333" height="1.66667" rx="0.833333" fill="url(#paint13_linear_7416_31969)"/>
<rect x="8.41699" y="10.083" width="2.08333" height="1.66667" rx="0.833333" fill="url(#paint14_linear_7416_31969)"/>
</g>
<defs>
<linearGradient id="paint0_linear_7416_31969" x1="8.20801" y1="1.75" x2="8.38744" y2="3.5158" gradientUnits="userSpaceOnUse">
<stop stop-color="#FE5468"/>
<stop offset="1" stop-color="#FFDF27"/>
</linearGradient>
<linearGradient id="paint1_linear_7416_31969" x1="8.20801" y1="13" x2="8.52448" y2="15.3358" gradientUnits="userSpaceOnUse">
<stop stop-color="#FE5468"/>
<stop offset="1" stop-color="#FFDF27"/>
</linearGradient>
<linearGradient id="paint2_linear_7416_31969" x1="8" y1="2.16699" x2="8" y2="13.8337" gradientUnits="userSpaceOnUse">
<stop stop-color="#10808C"/>
<stop offset="1" stop-color="#1DF7EF"/>
</linearGradient>
<linearGradient id="paint3_linear_7416_31969" x1="8.00033" y1="4.25" x2="8.00033" y2="9.66667" gradientUnits="userSpaceOnUse">
<stop stop-color="#10808C"/>
<stop offset="1" stop-color="#1DF7EF"/>
</linearGradient>
<linearGradient id="paint4_linear_7416_31969" x1="7.99967" y1="5.91699" x2="8.33135" y2="8.24852" gradientUnits="userSpaceOnUse">
<stop stop-color="#FE5468"/>
<stop offset="1" stop-color="#FFDF27"/>
</linearGradient>
<linearGradient id="paint5_linear_7416_31969" x1="7.99967" y1="5.91699" x2="8.33135" y2="8.24852" gradientUnits="userSpaceOnUse">
<stop stop-color="#FE5468"/>
<stop offset="1" stop-color="#FFDF27"/>
</linearGradient>
<linearGradient id="paint6_linear_7416_31969" x1="7.99967" y1="5.91699" x2="8.33135" y2="8.24852" gradientUnits="userSpaceOnUse">
<stop stop-color="#FE5468"/>
<stop offset="1" stop-color="#FFDF27"/>
</linearGradient>
<linearGradient id="paint7_linear_7416_31969" x1="7.99967" y1="5.91699" x2="8.33135" y2="8.24852" gradientUnits="userSpaceOnUse">
<stop stop-color="#FE5468"/>
<stop offset="1" stop-color="#FFDF27"/>
</linearGradient>
<linearGradient id="paint8_linear_7416_31969" x1="7.99967" y1="5.91699" x2="8.33135" y2="8.24852" gradientUnits="userSpaceOnUse">
<stop stop-color="#FE5468"/>
<stop offset="1" stop-color="#FFDF27"/>
</linearGradient>
<linearGradient id="paint9_linear_7416_31969" x1="7.99967" y1="5.91699" x2="8.33135" y2="8.24852" gradientUnits="userSpaceOnUse">
<stop stop-color="#FE5468"/>
<stop offset="1" stop-color="#FFDF27"/>
</linearGradient>
<linearGradient id="paint10_linear_7416_31969" x1="7.99967" y1="5.91699" x2="8.33135" y2="8.24852" gradientUnits="userSpaceOnUse">
<stop stop-color="#FE5468"/>
<stop offset="1" stop-color="#FFDF27"/>
</linearGradient>
<linearGradient id="paint11_linear_7416_31969" x1="7.99967" y1="5.91699" x2="8.33135" y2="8.24852" gradientUnits="userSpaceOnUse">
<stop stop-color="#FE5468"/>
<stop offset="1" stop-color="#FFDF27"/>
</linearGradient>
<linearGradient id="paint12_linear_7416_31969" x1="5.29167" y1="10.083" x2="5.86834" y2="12.3126" gradientUnits="userSpaceOnUse">
<stop stop-color="#FE5468"/>
<stop offset="1" stop-color="#FFDF27"/>
</linearGradient>
<linearGradient id="paint13_linear_7416_31969" x1="11.9587" y1="10.083" x2="12.9811" y2="11.8799" gradientUnits="userSpaceOnUse">
<stop stop-color="#FE5468"/>
<stop offset="1" stop-color="#FFDF27"/>
</linearGradient>
<linearGradient id="paint14_linear_7416_31969" x1="9.45866" y1="10.083" x2="10.4811" y2="11.8799" gradientUnits="userSpaceOnUse">
<stop stop-color="#FE5468"/>
<stop offset="1" stop-color="#FFDF27"/>
</linearGradient>
<clipPath id="clip0_7416_31969">
<rect width="15" height="15" fill="white" transform="translate(0.5 0.5)"/>
</clipPath>
</defs>
</svg>
