<svg width="15" height="15" viewBox="0 0 15 15" fill="none" xmlns="http://www.w3.org/2000/svg">
<g clip-path="url(#clip0_14914_47301)">
<path fill-rule="evenodd" clip-rule="evenodd" d="M12.8225 4C14.0251 4 15 4.97486 15 6.17742C15 7.37997 14.0251 8.35484 12.8225 8.35484C12.4902 8.35484 12.175 8.28031 11.8929 8.14699C11.7327 8.56147 11.4845 8.9322 11.1713 9.23624C11.2368 9.22934 11.3034 9.22581 11.3709 9.22581C12.4131 9.22581 13.258 10.0707 13.258 11.1129C13.258 12.1551 12.4131 13 11.3709 13C10.3286 13 9.4837 12.1551 9.4837 11.1129C9.4837 10.6918 9.62161 10.303 9.85473 9.98903C9.59793 10.0593 9.32759 10.0968 9.04848 10.0968C7.36485 10.0968 6 8.73196 6 7.04839C6 5.36481 7.36485 4 9.04848 4C9.85007 4 10.5796 4.30953 11.1236 4.81528C11.5225 4.31844 12.1353 4 12.8225 4ZM14.129 6.17742C14.129 5.45589 13.5441 4.87097 12.8225 4.87097C12.101 4.87097 11.516 5.45589 11.516 6.17742C11.516 6.89895 12.101 7.48387 12.8225 7.48387C13.5441 7.48387 14.129 6.89895 14.129 6.17742ZM10.0646 6.17742C10.0646 5.8422 10.1247 5.52014 10.2348 5.22206C9.8935 4.99976 9.48649 4.87097 9.04848 4.87097C7.84589 4.87097 6.87099 5.84583 6.87099 7.04839C6.87099 8.25094 7.84589 9.22581 9.04848 9.22581C9.84017 9.22581 10.5343 8.8031 10.9156 8.16974C10.3919 7.6683 10.0646 6.96124 10.0646 6.17742ZM12.387 11.1129C12.387 10.5517 11.9321 10.0968 11.3709 10.0968C10.8096 10.0968 10.3547 10.5517 10.3547 11.1129C10.3547 11.6741 10.8096 12.129 11.3709 12.129C11.9321 12.129 12.387 11.6741 12.387 11.1129Z" fill="url(#paint0_linear_14914_47301)"/>
<path d="M-4.86374e-05 7.64842L4.61991 0L6.35154 2.86679C5.93373 3.36684 5.59039 3.92632 5.33343 4.52804C4.97895 5.35812 4.7962 6.25139 4.7962 7.154C4.7962 7.86818 4.91062 8.57651 5.13399 9.25232L4.49978 9.5L-4.86374e-05 7.64842Z" fill="url(#paint1_linear_14914_47301)"/>
<path d="M6.87109 11.8442C6.6824 11.7572 6.50613 11.6259 6.35521 11.4456C6.12846 11.1747 5.92359 10.8863 5.74249 10.5831L4.61975 11.2441L-0.000378609 8.52434L4.61975 14.9996L6.87109 11.8442Z" fill="url(#paint2_linear_14914_47301)"/>
</g>
<defs>
<linearGradient id="paint0_linear_14914_47301" x1="10.5" y1="4" x2="4.43296" y2="12.5296" gradientUnits="userSpaceOnUse">
<stop stop-color="#FE5468"/>
<stop offset="1" stop-color="#FFDF27"/>
</linearGradient>
<linearGradient id="paint1_linear_14914_47301" x1="3.43536" y1="0" x2="3.43536" y2="14.9996" gradientUnits="userSpaceOnUse">
<stop stop-color="#10808C"/>
<stop offset="1" stop-color="#1DF7EF"/>
</linearGradient>
<linearGradient id="paint2_linear_14914_47301" x1="3.43536" y1="0" x2="3.43536" y2="14.9996" gradientUnits="userSpaceOnUse">
<stop stop-color="#10808C"/>
<stop offset="1" stop-color="#1DF7EF"/>
</linearGradient>
<clipPath id="clip0_14914_47301">
<rect width="15" height="15" fill="white"/>
</clipPath>
</defs>
</svg>
