<svg width="15" height="15" viewBox="0 0 15 15" fill="none" xmlns="http://www.w3.org/2000/svg">
<g clip-path="url(#clip0_7416_31969)">
<path fill-rule="evenodd" clip-rule="evenodd" d="M10.9178 1.875C10.853 1.86427 10.7844 1.85371 10.7122 1.84338C9.95803 1.73565 8.89563 1.66667 7.70801 1.66667C6.52038 1.66667 5.45798 1.73565 4.70386 1.84338C4.63157 1.85371 4.563 1.86427 4.4982 1.875C4.563 1.88573 4.63157 1.89629 4.70386 1.90662C5.45798 2.01435 6.52038 2.08333 7.70801 2.08333C8.89563 2.08333 9.95803 2.01435 10.7122 1.90662C10.7844 1.89629 10.853 1.88573 10.9178 1.875ZM7.70801 2.5C10.1243 2.5 12.083 2.22018 12.083 1.875C12.083 1.52982 10.1243 1.25 7.70801 1.25C5.29176 1.25 3.33301 1.52982 3.33301 1.875C3.33301 2.22018 5.29176 2.5 7.70801 2.5Z" fill="url(#paint0_linear_7416_31969)"/>
<path fill-rule="evenodd" clip-rule="evenodd" d="M10.7725 13.9281C10.6886 13.9438 10.6014 13.9588 10.511 13.9732C9.75189 14.094 8.77451 14.1667 7.70801 14.1667C6.6415 14.1667 5.66413 14.094 4.90498 13.9732C4.81465 13.9588 4.72741 13.9438 4.64347 13.9281C3.8347 13.7769 3.33301 13.5663 3.33301 13.3333C3.33301 13.1004 3.8347 12.8898 4.64347 12.7386C4.72741 12.7229 4.81465 12.7078 4.90498 12.6935C5.66413 12.5727 6.6415 12.5 7.70801 12.5C8.77451 12.5 9.75189 12.5727 10.511 12.6935C10.6014 12.7078 10.6886 12.7229 10.7725 12.7386C11.5813 12.8898 12.083 13.1004 12.083 13.3333C12.083 13.5663 11.5813 13.7769 10.7725 13.9281Z" fill="url(#paint1_linear_7416_31969)"/>
<path fill-rule="evenodd" clip-rule="evenodd" d="M11.3649 2.68148H3.63514C2.36502 2.68148 1.31532 3.72948 1.24181 5.07093L0.962252 10.1728C0.898425 11.3375 1.77406 12.3192 2.87691 12.3192H12.1231C13.2259 12.3192 14.1016 11.3375 14.0377 10.1728L13.7582 5.07094C13.6847 3.72948 12.635 2.68148 11.3649 2.68148ZM3.63514 1.66699C1.85697 1.66699 0.387393 3.13418 0.284483 5.01222L0.00492101 10.114C-0.0908181 11.8612 1.22264 13.3337 2.87691 13.3337H12.1231C13.7774 13.3337 15.0908 11.8612 14.9951 10.114L14.7155 5.01222C14.6126 3.13419 13.143 1.66699 11.3649 1.66699H3.63514Z" fill="url(#paint2_linear_7416_31969)"/>
<path fill-rule="evenodd" clip-rule="evenodd" d="M12.3614 4.48864H2.63921C2.50498 4.48864 2.39616 4.59887 2.39616 4.73485V8.18182C2.39616 8.3178 2.50498 8.42803 2.63921 8.42803H12.3614C12.4957 8.42803 12.6045 8.3178 12.6045 8.18182V4.73485C12.6045 4.59887 12.4957 4.48864 12.3614 4.48864ZM2.63921 3.75C2.10227 3.75 1.66699 4.19093 1.66699 4.73485V8.18182C1.66699 8.72573 2.10227 9.16667 2.63921 9.16667H12.3614C12.8984 9.16667 13.3337 8.72573 13.3337 8.18182V4.73485C13.3337 4.19093 12.8984 3.75 12.3614 3.75H2.63921Z" fill="url(#paint3_linear_7416_31969)"/>
<path d="M3.79942 7.08366C3.69667 7.08366 3.60392 7.05854 3.52118 7.00832C3.43844 6.95809 3.37571 6.88959 3.33301 6.80284L3.48715 6.62019C3.52451 6.67955 3.57122 6.72673 3.62727 6.76174C3.68332 6.79675 3.74137 6.81425 3.80143 6.81425C3.84947 6.81425 3.89151 6.80284 3.92754 6.78001C3.96491 6.75717 3.99427 6.72521 4.01562 6.68412C4.03697 6.64302 4.04765 6.59584 4.04765 6.54256C4.04765 6.48929 4.03764 6.44287 4.01762 6.40329C3.9976 6.36372 3.97024 6.33328 3.93555 6.31197C3.90085 6.28914 3.86148 6.27772 3.81744 6.27772C3.7734 6.27772 3.73203 6.28914 3.69333 6.31197C3.65596 6.33328 3.62594 6.36448 3.60325 6.40558H3.36904L3.53319 5.43982H4.23381V5.71836H3.72736L3.66931 6.08138C3.68666 6.06311 3.71068 6.04789 3.74137 6.03571C3.77207 6.02201 3.8101 6.01517 3.85547 6.01517C3.94489 6.01517 4.02496 6.03724 4.09569 6.08138C4.16642 6.12552 4.2218 6.18716 4.26184 6.26631C4.30187 6.34393 4.32189 6.43373 4.32189 6.53571C4.32189 6.64378 4.2992 6.73891 4.25383 6.8211C4.20846 6.90482 4.1464 6.9695 4.06766 7.01517C3.98893 7.06083 3.89951 7.08366 3.79942 7.08366Z" fill="url(#paint4_linear_7416_31969)"/>
<path d="M4.90784 7.08366C4.80508 7.08366 4.71233 7.05854 4.62959 7.00832C4.54685 6.95809 4.48412 6.88959 4.44142 6.80284L4.59556 6.62019C4.63292 6.67955 4.67963 6.72673 4.73568 6.76174C4.79173 6.79675 4.84978 6.81425 4.90984 6.81425C4.95788 6.81425 4.99992 6.80284 5.03595 6.78001C5.07332 6.75717 5.10268 6.72521 5.12403 6.68412C5.14538 6.64302 5.15606 6.59584 5.15606 6.54256C5.15606 6.48929 5.14605 6.44287 5.12603 6.40329C5.10601 6.36372 5.07866 6.33328 5.04396 6.31197C5.00926 6.28914 4.96989 6.27772 4.92585 6.27772C4.88181 6.27772 4.84044 6.28914 4.80174 6.31197C4.76437 6.33328 4.73435 6.36448 4.71166 6.40558H4.47745L4.6416 5.43982H5.34222V5.71836H4.83577L4.77772 6.08138C4.79507 6.06311 4.81909 6.04789 4.84978 6.03571C4.88048 6.02201 4.91851 6.01517 4.96389 6.01517C5.0533 6.01517 5.13337 6.03724 5.2041 6.08138C5.27483 6.12552 5.33021 6.18716 5.37025 6.26631C5.41028 6.34393 5.4303 6.43373 5.4303 6.53571C5.4303 6.64378 5.40762 6.73891 5.36224 6.8211C5.31687 6.90482 5.25481 6.9695 5.17608 7.01517C5.09734 7.06083 5.00793 7.08366 4.90784 7.08366Z" fill="url(#paint5_linear_7416_31969)"/>
<path d="M6.01625 7.08366C5.91349 7.08366 5.82074 7.05854 5.738 7.00832C5.65526 6.95809 5.59254 6.88959 5.54983 6.80284L5.70397 6.62019C5.74134 6.67955 5.78804 6.72673 5.84409 6.76174C5.90014 6.79675 5.9582 6.81425 6.01825 6.81425C6.06629 6.81425 6.10833 6.80284 6.14436 6.78001C6.18173 6.75717 6.21109 6.72521 6.23244 6.68412C6.25379 6.64302 6.26447 6.59584 6.26447 6.54256C6.26447 6.48929 6.25446 6.44287 6.23444 6.40329C6.21443 6.36372 6.18707 6.33328 6.15237 6.31197C6.11767 6.28914 6.0783 6.27772 6.03426 6.27772C5.99022 6.27772 5.94885 6.28914 5.91015 6.31197C5.87279 6.33328 5.84276 6.36448 5.82007 6.40558H5.58586L5.75001 5.43982H6.45064V5.71836H5.94418L5.88613 6.08138C5.90348 6.06311 5.9275 6.04789 5.9582 6.03571C5.98889 6.02201 6.02692 6.01517 6.0723 6.01517C6.16171 6.01517 6.24178 6.03724 6.31251 6.08138C6.38324 6.12552 6.43863 6.18716 6.47866 6.26631C6.5187 6.34393 6.53871 6.43373 6.53871 6.53571C6.53871 6.64378 6.51603 6.73891 6.47065 6.8211C6.42528 6.90482 6.36322 6.9695 6.28449 7.01517C6.20575 7.06083 6.11634 7.08366 6.01625 7.08366Z" fill="url(#paint6_linear_7416_31969)"/>
<path d="M6.7163 6.25489V5.97864H7.32284V6.25489H6.7163Z" fill="url(#paint7_linear_7416_31969)"/>
<path d="M8.14678 6.20466C8.20283 6.21532 8.25154 6.23967 8.29291 6.27772C8.33428 6.31425 8.36631 6.36144 8.38899 6.41928C8.41301 6.47711 8.42502 6.54104 8.42502 6.61106C8.42502 6.70542 8.40367 6.78762 8.36097 6.85763C8.31826 6.92765 8.25754 6.98168 8.1788 7.01973C8.1014 7.05931 8.00999 7.07909 7.90456 7.07909C7.80314 7.07909 7.71306 7.06007 7.63432 7.02201C7.55692 6.98549 7.49219 6.93145 7.44015 6.85991L7.59228 6.64302C7.62698 6.69173 7.66835 6.72978 7.71639 6.75717C7.76577 6.78609 7.82582 6.80055 7.89655 6.80055C7.97796 6.80055 8.04001 6.78153 8.08272 6.74348C8.12542 6.70695 8.14678 6.65139 8.14678 6.57681C8.14678 6.49766 8.12209 6.43678 8.07271 6.39416C8.02333 6.35154 7.9486 6.33023 7.84851 6.33023H7.79246V6.10192H7.85452C7.93592 6.10192 7.99931 6.08061 8.04468 6.038C8.09139 5.99538 8.11475 5.94211 8.11475 5.87818C8.11475 5.83708 8.10607 5.80284 8.08872 5.77544C8.07138 5.74804 8.04735 5.72749 8.01666 5.7138C7.9873 5.7001 7.9526 5.69325 7.91257 5.69325C7.85251 5.69325 7.7978 5.70923 7.74842 5.74119C7.69904 5.77316 7.65901 5.81806 7.62831 5.8759L7.46016 5.66128C7.48819 5.6141 7.52622 5.57377 7.57426 5.54028C7.62364 5.50527 7.67969 5.47788 7.74241 5.45809C7.80647 5.4383 7.8732 5.42841 7.94259 5.42841C8.03334 5.42841 8.11275 5.44515 8.18081 5.47864C8.2502 5.51212 8.30425 5.55931 8.34295 5.62019C8.38165 5.68107 8.401 5.75185 8.401 5.83252C8.401 5.89188 8.39033 5.94819 8.36897 6.00147C8.34762 6.05474 8.3176 6.09964 8.27889 6.13617C8.24153 6.17118 8.19749 6.19401 8.14678 6.20466Z" fill="url(#paint8_linear_7416_31969)"/>
<path d="M8.57639 6.74348C8.57639 6.67498 8.58107 6.61334 8.59041 6.55854C8.59975 6.50375 8.61576 6.45276 8.63845 6.40558C8.66247 6.35839 8.6945 6.31425 8.73454 6.27316C8.77591 6.23054 8.82795 6.18944 8.89067 6.14987C8.94539 6.11638 8.99343 6.08746 9.0348 6.06311C9.07617 6.03724 9.11087 6.01364 9.1389 5.99233C9.16826 5.97103 9.19028 5.94972 9.20496 5.92841C9.21964 5.90558 9.22697 5.8797 9.22697 5.85078C9.22697 5.82034 9.21964 5.79294 9.20496 5.76859C9.19028 5.74272 9.16959 5.72217 9.1429 5.70695C9.11621 5.69173 9.08285 5.68412 9.04281 5.68412C9.01078 5.68412 8.98076 5.68868 8.95273 5.69781C8.92604 5.70695 8.90068 5.71988 8.87666 5.73663C8.85398 5.75337 8.83262 5.7724 8.8126 5.7937C8.79259 5.81349 8.77457 5.8348 8.75856 5.85763L8.5884 5.63389C8.60709 5.61258 8.63178 5.58975 8.66247 5.56539C8.6945 5.53952 8.73187 5.51593 8.77457 5.49462C8.81861 5.47179 8.86665 5.45352 8.9187 5.43982C8.97208 5.4246 9.0288 5.41699 9.08885 5.41699C9.1796 5.41699 9.257 5.43373 9.32106 5.46722C9.38512 5.49918 9.43383 5.54409 9.46719 5.60192C9.50189 5.65976 9.51924 5.72749 9.51924 5.80512C9.51924 5.85839 9.51056 5.90558 9.49321 5.94667C9.47586 5.98777 9.45384 6.0243 9.42715 6.05626C9.40046 6.0867 9.3711 6.1141 9.33908 6.13845C9.30838 6.16281 9.27835 6.18412 9.24899 6.20238C9.20762 6.22673 9.17026 6.24956 9.13689 6.27087C9.10353 6.29066 9.07417 6.31121 9.04882 6.33252C9.02346 6.3523 9.00077 6.37285 8.98076 6.39416C8.96207 6.41547 8.94539 6.43982 8.93071 6.46722H9.54126V6.74348H8.57639Z" fill="url(#paint9_linear_7416_31969)"/>
<path d="M10.5711 6.46722V6.74348H9.75836V6.46722H10.0426V5.77544C10.0306 5.7937 10.0119 5.81273 9.98656 5.83252C9.9612 5.85078 9.93251 5.86829 9.90048 5.88503C9.86845 5.90177 9.83643 5.91547 9.8044 5.92612C9.77237 5.93678 9.74368 5.94211 9.71832 5.94211V5.65672C9.74234 5.65672 9.77103 5.64835 9.8044 5.6316C9.83909 5.61334 9.87313 5.59203 9.90649 5.56768C9.94119 5.54332 9.97055 5.51973 9.99457 5.4969C10.0199 5.47255 10.0359 5.45352 10.0426 5.43982H10.3169V6.46722H10.5711Z" fill="url(#paint10_linear_7416_31969)"/>
<path d="M11.1439 7.08366C11.0411 7.08366 10.9484 7.05854 10.8656 7.00832C10.7829 6.95809 10.7202 6.88959 10.6775 6.80284L10.8316 6.62019C10.869 6.67955 10.9157 6.72673 10.9717 6.76174C11.0278 6.79675 11.0858 6.81425 11.1459 6.81425C11.1939 6.81425 11.236 6.80284 11.272 6.78001C11.3094 6.75717 11.3387 6.72521 11.3601 6.68412C11.3814 6.64302 11.3921 6.59584 11.3921 6.54256C11.3921 6.48929 11.3821 6.44287 11.3621 6.40329C11.3421 6.36372 11.3147 6.33328 11.28 6.31197C11.2453 6.28914 11.2059 6.27772 11.1619 6.27772C11.1179 6.27772 11.0765 6.28914 11.0378 6.31197C11.0004 6.33328 10.9704 6.36448 10.9477 6.40558H10.7135L10.8776 5.43982H11.5783V5.71836H11.0718L11.0138 6.08138C11.0311 6.06311 11.0551 6.04789 11.0858 6.03571C11.1165 6.02201 11.1546 6.01517 11.1999 6.01517C11.2893 6.01517 11.3694 6.03724 11.4401 6.08138C11.5109 6.12552 11.5663 6.18716 11.6063 6.26631C11.6463 6.34393 11.6663 6.43373 11.6663 6.53571C11.6663 6.64378 11.6437 6.73891 11.5983 6.8211C11.5529 6.90482 11.4909 6.9695 11.4121 7.01517C11.3334 7.06083 11.244 7.08366 11.1439 7.08366Z" fill="url(#paint11_linear_7416_31969)"/>
<rect x="2.5" y="9.58301" width="4.58333" height="1.66667" rx="0.833333" fill="url(#paint12_linear_7416_31969)"/>
<rect x="10.417" y="9.58301" width="2.08333" height="1.66667" rx="0.833333" fill="url(#paint13_linear_7416_31969)"/>
<rect x="7.91699" y="9.58301" width="2.08333" height="1.66667" rx="0.833333" fill="url(#paint14_linear_7416_31969)"/>
</g>
<defs>
<linearGradient id="paint0_linear_7416_31969" x1="7.70801" y1="1.25" x2="7.88744" y2="3.0158" gradientUnits="userSpaceOnUse">
<stop stop-color="#FE5468"/>
<stop offset="1" stop-color="#FFDF27"/>
</linearGradient>
<linearGradient id="paint1_linear_7416_31969" x1="7.70801" y1="12.5" x2="8.02448" y2="14.8358" gradientUnits="userSpaceOnUse">
<stop stop-color="#FE5468"/>
<stop offset="1" stop-color="#FFDF27"/>
</linearGradient>
<linearGradient id="paint2_linear_7416_31969" x1="7.5" y1="1.66699" x2="7.5" y2="13.3337" gradientUnits="userSpaceOnUse">
<stop stop-color="#10808C"/>
<stop offset="1" stop-color="#1DF7EF"/>
</linearGradient>
<linearGradient id="paint3_linear_7416_31969" x1="7.50033" y1="3.75" x2="7.50033" y2="9.16667" gradientUnits="userSpaceOnUse">
<stop stop-color="#10808C"/>
<stop offset="1" stop-color="#1DF7EF"/>
</linearGradient>
<linearGradient id="paint4_linear_7416_31969" x1="7.49967" y1="5.41699" x2="7.83135" y2="7.74852" gradientUnits="userSpaceOnUse">
<stop stop-color="#FE5468"/>
<stop offset="1" stop-color="#FFDF27"/>
</linearGradient>
<linearGradient id="paint5_linear_7416_31969" x1="7.49967" y1="5.41699" x2="7.83135" y2="7.74852" gradientUnits="userSpaceOnUse">
<stop stop-color="#FE5468"/>
<stop offset="1" stop-color="#FFDF27"/>
</linearGradient>
<linearGradient id="paint6_linear_7416_31969" x1="7.49967" y1="5.41699" x2="7.83135" y2="7.74852" gradientUnits="userSpaceOnUse">
<stop stop-color="#FE5468"/>
<stop offset="1" stop-color="#FFDF27"/>
</linearGradient>
<linearGradient id="paint7_linear_7416_31969" x1="7.49967" y1="5.41699" x2="7.83135" y2="7.74852" gradientUnits="userSpaceOnUse">
<stop stop-color="#FE5468"/>
<stop offset="1" stop-color="#FFDF27"/>
</linearGradient>
<linearGradient id="paint8_linear_7416_31969" x1="7.49967" y1="5.41699" x2="7.83135" y2="7.74852" gradientUnits="userSpaceOnUse">
<stop stop-color="#FE5468"/>
<stop offset="1" stop-color="#FFDF27"/>
</linearGradient>
<linearGradient id="paint9_linear_7416_31969" x1="7.49967" y1="5.41699" x2="7.83135" y2="7.74852" gradientUnits="userSpaceOnUse">
<stop stop-color="#FE5468"/>
<stop offset="1" stop-color="#FFDF27"/>
</linearGradient>
<linearGradient id="paint10_linear_7416_31969" x1="7.49967" y1="5.41699" x2="7.83135" y2="7.74852" gradientUnits="userSpaceOnUse">
<stop stop-color="#FE5468"/>
<stop offset="1" stop-color="#FFDF27"/>
</linearGradient>
<linearGradient id="paint11_linear_7416_31969" x1="7.49967" y1="5.41699" x2="7.83135" y2="7.74852" gradientUnits="userSpaceOnUse">
<stop stop-color="#FE5468"/>
<stop offset="1" stop-color="#FFDF27"/>
</linearGradient>
<linearGradient id="paint12_linear_7416_31969" x1="4.79167" y1="9.58301" x2="5.36834" y2="11.8126" gradientUnits="userSpaceOnUse">
<stop stop-color="#FE5468"/>
<stop offset="1" stop-color="#FFDF27"/>
</linearGradient>
<linearGradient id="paint13_linear_7416_31969" x1="11.4587" y1="9.58301" x2="12.4811" y2="11.3799" gradientUnits="userSpaceOnUse">
<stop stop-color="#FE5468"/>
<stop offset="1" stop-color="#FFDF27"/>
</linearGradient>
<linearGradient id="paint14_linear_7416_31969" x1="8.95866" y1="9.58301" x2="9.98114" y2="11.3799" gradientUnits="userSpaceOnUse">
<stop stop-color="#FE5468"/>
<stop offset="1" stop-color="#FFDF27"/>
</linearGradient>
<clipPath id="clip0_7416_31969">
<rect width="15" height="15" fill="white"/>
</clipPath>
</defs>
</svg>
