<svg width="24" height="24" viewBox="0 0 24 24" fill="none" xmlns="http://www.w3.org/2000/svg">
<g clip-path="url(#clip0_3218_86395)">
<path d="M11.7719 14.035C11.483 13.7461 11.2393 13.4483 11.0407 13.1414C10.8421 12.8164 10.7158 12.4644 10.6616 12.0852C10.6075 11.7061 10.6436 11.2819 10.7699 10.8125C10.8151 10.6049 10.8828 10.3476 10.973 10.0407C11.0723 9.72479 11.149 9.40435 11.2032 9.07939C11.2483 8.74541 11.2393 8.42045 11.1761 8.10452C11.1129 7.77054 10.955 7.47718 10.7022 7.22443C10.4495 6.97169 10.1742 6.82275 9.8763 6.77762C9.58745 6.72346 9.2986 6.75054 9.00975 6.85886C8.72992 6.95815 8.47718 7.12063 8.25152 7.34629C7.98974 7.60806 7.81373 7.90143 7.72346 8.22638C7.62417 8.54231 7.58355 8.85373 7.6016 9.16063C7.61966 9.46754 7.66479 9.75639 7.737 10.0272L5.74664 10.3928C5.53903 9.86019 5.44425 9.32311 5.4623 8.78152C5.48938 8.2309 5.62027 7.70284 5.85496 7.19735C6.09868 6.68284 6.42363 6.22248 6.82983 5.81629C7.17284 5.47328 7.5655 5.18894 8.0078 4.96328C8.44107 4.72859 8.90143 4.58416 9.38886 4.53C9.8763 4.47584 10.3682 4.53452 10.8647 4.70602C11.3612 4.87753 11.8441 5.19797 12.3135 5.66735C12.6023 5.9562 12.8235 6.24956 12.9769 6.54744C13.1394 6.83629 13.2477 7.13417 13.3019 7.44107C13.356 7.72992 13.3651 8.03683 13.329 8.36178C13.2929 8.68674 13.2387 9.02072 13.1665 9.36373C13.0762 9.74285 12.9769 10.122 12.8686 10.5011C12.7693 10.8712 12.7332 11.2322 12.7603 11.5843C12.7874 11.9183 12.9544 12.2387 13.2613 12.5456L11.7719 14.035ZM14.9537 17.1627L13.0852 15.2942L14.5882 13.7913L16.4567 15.6598L14.9537 17.1627Z" fill="url(#paint0_linear_3218_86395)"/>
<path fill-rule="evenodd" clip-rule="evenodd" d="M0 2.27784C0 1.01982 1.01986 0 2.27792 0H11.6062C12.2103 0 12.7897 0.239987 13.2169 0.667164L11.8027 2.0814C11.7506 2.02929 11.6799 2 11.6062 2H6.16739C6.3174 2.37057 6.4 2.77564 6.4 3.2C6.4 4.96731 4.96731 6.4 3.2 6.4C2.77564 6.4 2.37057 6.3174 2 6.16739V11.6074C2 11.6811 2.02926 11.7517 2.08138 11.8038L12.1965 21.9186C12.305 22.0271 12.481 22.0271 12.5896 21.9186L21.9186 12.5898C22.0271 12.4814 22.0271 12.3055 21.9186 12.197L11.8027 2.0814L13.2169 0.667164L23.3328 10.7827C24.2224 11.6723 24.2224 13.1145 23.3328 14.0041L14.0037 23.3328C13.1142 24.2224 11.6719 24.2224 10.7823 23.3328L0.667186 13.2181C0.239994 12.7909 0 12.2115 0 11.6074V2.27784ZM3.2 2C2.53726 2 2 2.53726 2 3.2C2 3.86274 2.53726 4.4 3.2 4.4C3.86274 4.4 4.4 3.86274 4.4 3.2C4.4 2.53726 3.86274 2 3.2 2Z" fill="url(#paint1_linear_3218_86395)"/>
</g>
<defs>
<linearGradient id="paint0_linear_3218_86395" x1="6.82306" y1="5.82306" x2="16.5582" y2="15.5582" gradientUnits="userSpaceOnUse">
<stop stop-color="#FE5468"/>
<stop offset="1" stop-color="#FFDF27"/>
</linearGradient>
<linearGradient id="paint1_linear_3218_86395" x1="12" y1="0" x2="12" y2="24" gradientUnits="userSpaceOnUse">
<stop stop-color="#10808C"/>
<stop offset="1" stop-color="#1DF7EF"/>
</linearGradient>
<clipPath id="clip0_3218_86395">
<rect width="24" height="24" fill="white"/>
</clipPath>
</defs>
</svg>
