<svg width="24" height="24" viewBox="0 0 24 24" fill="none" xmlns="http://www.w3.org/2000/svg">
<path fill-rule="evenodd" clip-rule="evenodd" d="M0.00439791 6.25949C-0.0847257 4.67008 1.1921 3.33281 2.7988 3.33281H21.2012C22.8079 3.33281 24.0847 4.67008 23.9956 6.25949L23.4645 15.7315C23.401 16.8634 22.4156 17.7253 21.274 17.6473L12.285 17.0331C12.2334 17.0296 12.1827 17.0474 12.1449 17.0824L7.92683 20.9829C7.12405 21.7252 5.81117 21.2143 5.73293 20.1291L5.52878 17.2974C5.52101 17.1896 5.42206 17.1114 5.3143 17.1278L2.88948 17.4974C1.6914 17.6801 0.595415 16.7996 0.528175 15.6004L0.00439791 6.25949ZM2.7988 4.44196C1.83478 4.44196 1.06868 5.24432 1.12216 6.19797L1.64594 15.5389C1.6765 16.084 2.17468 16.4842 2.71926 16.4012L5.14408 16.0316C5.89837 15.9166 6.59105 16.4641 6.64542 17.2183L6.84957 20.05C6.86074 20.2051 7.0483 20.2781 7.16298 20.172L11.381 16.2715C11.6456 16.0268 12.0009 15.9019 12.362 15.9266L21.3511 16.5408C21.8699 16.5762 22.3179 16.1845 22.3467 15.67L22.8778 6.19797C22.9313 5.24432 22.1652 4.44196 21.2012 4.44196H2.7988Z" fill="url(#paint0_linear_3218_87665)"/>
<path d="M5.33281 11.9722V8.02778H8.2099V8.82778H6.31174V9.67778H7.87564V10.4167H6.31174V11.9722H5.33281Z" fill="url(#paint1_linear_3218_87665)"/>
<path d="M11.1532 8.02778H12.2097L13.6661 11.9722H12.6633L12.335 11.0889H11.0159L10.6935 11.9722H9.69074L11.1532 8.02778ZM12.1739 10.4611L11.6784 8.94444L11.1711 10.4611H12.1739Z" fill="url(#paint2_linear_3218_87665)"/>
<path d="M17.1601 12C16.8417 12 16.5532 11.9444 16.2946 11.8333C16.0399 11.7222 15.819 11.5722 15.632 11.3833C15.4489 11.1907 15.3077 10.9759 15.2082 10.7389C15.1087 10.4981 15.059 10.25 15.059 9.99444C15.059 9.73148 15.1107 9.48148 15.2141 9.24444C15.3216 9.0037 15.4688 8.79074 15.6559 8.60556C15.8469 8.42037 16.0717 8.27407 16.3304 8.16667C16.589 8.05556 16.8716 8 17.178 8C17.4923 8 17.7769 8.05741 18.0316 8.17222C18.2902 8.28704 18.5111 8.44074 18.6941 8.63333C18.8812 8.82593 19.0244 9.04259 19.1239 9.28333C19.2234 9.52037 19.2731 9.76296 19.2731 10.0111C19.2731 10.2741 19.2214 10.5241 19.1179 10.7611C19.0145 10.9981 18.8672 11.2111 18.6762 11.4C18.4852 11.5852 18.2604 11.7315 18.0017 11.8389C17.747 11.9463 17.4665 12 17.1601 12ZM17.166 11.1889C17.3531 11.1889 17.5162 11.1556 17.6555 11.0889C17.7948 11.0185 17.9102 10.9278 18.0017 10.8167C18.0932 10.7019 18.1609 10.5741 18.2047 10.4333C18.2524 10.2889 18.2763 10.1426 18.2763 9.99444C18.2763 9.84259 18.2524 9.6963 18.2047 9.55556C18.1569 9.41111 18.0853 9.28333 17.9898 9.17222C17.8943 9.06111 17.7769 8.97407 17.6376 8.91111C17.4983 8.84444 17.3411 8.81111 17.166 8.81111C16.979 8.81111 16.8158 8.8463 16.6766 8.91667C16.5413 8.98333 16.4259 9.07407 16.3304 9.18889C16.2388 9.3 16.1692 9.42778 16.1214 9.57222C16.0777 9.71296 16.0558 9.85741 16.0558 10.0056C16.0558 10.1574 16.0797 10.3037 16.1274 10.4444C16.1752 10.5852 16.2448 10.713 16.3363 10.8278C16.4318 10.9389 16.5492 11.0278 16.6885 11.0944C16.8278 11.1574 16.987 11.1889 17.166 11.1889ZM16.9034 10.4167H17.8226L19.3328 11.9722H18.4136L16.9034 10.4167Z" fill="url(#paint3_linear_3218_87665)"/>
<defs>
<linearGradient id="paint0_linear_3218_87665" x1="12" y1="3.33281" x2="12" y2="21.3328" gradientUnits="userSpaceOnUse">
<stop stop-color="#10808C"/>
<stop offset="1" stop-color="#1DF7EF"/>
</linearGradient>
<linearGradient id="paint1_linear_3218_87665" x1="12.3328" y1="8" x2="12.3328" y2="12" gradientUnits="userSpaceOnUse">
<stop stop-color="#FE5468"/>
<stop offset="1" stop-color="#FFDF27"/>
</linearGradient>
<linearGradient id="paint2_linear_3218_87665" x1="12.3328" y1="8" x2="12.3328" y2="12" gradientUnits="userSpaceOnUse">
<stop stop-color="#FE5468"/>
<stop offset="1" stop-color="#FFDF27"/>
</linearGradient>
<linearGradient id="paint3_linear_3218_87665" x1="12.3328" y1="8" x2="12.3328" y2="12" gradientUnits="userSpaceOnUse">
<stop stop-color="#FE5468"/>
<stop offset="1" stop-color="#FFDF27"/>
</linearGradient>
</defs>
</svg>
