<svg width="15" height="15" viewBox="0 0 15 15" fill="none" xmlns="http://www.w3.org/2000/svg">
<circle cx="3.33354" cy="4.16667" r="0.416667" fill="url(#paint0_linear_177_30194)"/>
<circle cx="3.33354" cy="8.33354" r="0.416667" fill="url(#paint1_linear_177_30194)"/>
<circle cx="3.33354" cy="12.4998" r="0.416667" fill="url(#paint2_linear_177_30194)"/>
<path d="M2.06169 2.24227C2.06169 2.157 2.11625 2.01314 2.36654 1.8256C2.61188 1.64176 2.99193 1.4591 3.49738 1.29842C4.50403 0.978415 5.91973 0.773196 7.5 0.773196C9.08027 0.773196 10.496 0.978415 11.5026 1.29842C12.0081 1.4591 12.3881 1.64176 12.6335 1.8256C12.8837 2.01314 12.9383 2.157 12.9383 2.24227V3.46762C13.1901 3.33725 13.4653 3.25258 13.75 3.22008V2.24227C13.75 1.81723 13.477 1.47397 13.1353 1.21789C12.7886 0.958114 12.3121 0.740646 11.7596 0.564984C10.6501 0.212307 9.14376 0 7.5 0C5.85624 0 4.34987 0.212307 3.24044 0.564984C2.68785 0.740646 2.21138 0.958114 1.86469 1.21789C1.52295 1.47397 1.25 1.81723 1.25 2.24227V4.09794C1.25 4.52298 1.52295 4.86623 1.86469 5.12231C2.21138 5.38209 2.68785 5.59956 3.24044 5.77522C4.34987 6.1279 5.85624 6.34021 7.5 6.34021C8.95763 6.34021 10.3072 6.17326 11.3678 5.88952L11.7298 4.96513C11.6571 4.99117 11.5814 5.01674 11.5026 5.04179C10.496 5.36179 9.08027 5.56701 7.5 5.56701C5.91973 5.56701 4.50403 5.36179 3.49738 5.04179C2.99193 4.88111 2.61188 4.69845 2.36654 4.51461C2.11625 4.32706 2.06169 4.18321 2.06169 4.09794V2.24227Z" fill="url(#paint3_linear_177_30194)"/>
<path d="M11.0442 6.71593C11.0265 6.72049 11.0086 6.72502 10.9907 6.72952C10.0415 6.96782 8.83022 7.1134 7.5 7.1134C6.16978 7.1134 4.95851 6.96782 4.00927 6.72952C3.53455 6.61034 3.13331 6.46995 2.81852 6.31765C2.4992 6.16316 2.29281 6.00792 2.18054 5.87065L1.87103 5.4922L1.54861 5.86075C1.47141 5.949 1.41622 6.0436 1.38051 6.11164C1.3253 6.21683 1.25 6.37663 1.25 6.57216V8.42783C1.25 8.85288 1.52295 9.19613 1.86469 9.45221C2.21138 9.71199 2.68785 9.92946 3.24044 10.1051C4.10494 10.3799 5.21046 10.5695 6.43419 10.6398C6.38724 10.382 6.38453 10.1199 6.42386 9.86454C5.28138 9.7949 4.26916 9.61702 3.49738 9.37169C2.99193 9.21101 2.61188 9.02835 2.36654 8.8445C2.11625 8.65696 2.06169 8.5131 2.06169 8.42783V6.79171C2.18249 6.8687 2.31316 6.94036 2.45096 7.00703C2.83017 7.19049 3.2885 7.34817 3.80242 7.47718C4.83045 7.73527 6.11269 7.8866 7.5 7.8866C8.67245 7.8866 9.76985 7.77852 10.7022 7.58925L11.0442 6.71593Z" fill="url(#paint4_linear_177_30194)"/>
<path d="M6.73254 11.4269C5.70498 11.3827 4.77244 11.251 4.00927 11.0594C3.53455 10.9402 3.13331 10.7998 2.81852 10.6475C2.4992 10.4931 2.29281 10.3378 2.18054 10.2006L1.85426 9.8016L1.53571 10.2062C1.4051 10.3721 1.25 10.6149 1.25 10.9021V12.7577C1.25 13.1828 1.52295 13.526 1.86469 13.7821C2.21138 14.0419 2.68785 14.2594 3.24044 14.435C4.34987 14.7877 5.85624 15 7.5 15C8.19452 15 8.86451 14.9621 9.49039 14.8917C9.16184 14.7279 8.8579 14.4958 8.59928 14.193C8.24443 14.2151 7.87689 14.2268 7.5 14.2268C5.91973 14.2268 4.50403 14.0216 3.49738 13.7016C2.99193 13.5409 2.61188 13.3582 2.36654 13.1744C2.11625 12.9869 2.06169 12.843 2.06169 12.7577V11.1216C2.18249 11.1986 2.31316 11.2703 2.45096 11.3369C2.83017 11.5204 3.2885 11.6781 3.80242 11.8071C4.76967 12.0499 5.96195 12.1982 7.25505 12.2149L6.78931 11.5163C6.76963 11.4868 6.75071 11.457 6.73254 11.4269Z" fill="url(#paint5_linear_177_30194)"/>
<path fill-rule="evenodd" clip-rule="evenodd" d="M7.5 0.927835C6.40036 0.927835 5.39169 1.03411 4.64613 1.21197C4.27647 1.30015 3.94868 1.4112 3.70353 1.54915C3.48599 1.67157 3.19805 1.89323 3.19805 2.24227C3.19805 2.59131 3.48599 2.81297 3.70353 2.93539C3.94868 3.07333 4.27647 3.18438 4.64613 3.27257C5.39169 3.45043 6.40036 3.5567 7.5 3.5567C8.59964 3.5567 9.60831 3.45043 10.3539 3.27257C10.7235 3.18438 11.0513 3.07333 11.2965 2.93539C11.514 2.81297 11.8019 2.59131 11.8019 2.24227C11.8019 1.89323 11.514 1.67157 11.2965 1.54915C11.0513 1.4112 10.7235 1.30015 10.3539 1.21197C9.60831 1.03411 8.59964 0.927835 7.5 0.927835ZM3.99606 2.30222C3.99601 2.30221 3.99638 2.30159 3.99734 2.30037L3.99606 2.30222ZM4.11637 2.21486C4.09875 2.22478 4.08358 2.23393 4.07055 2.24227C4.08358 2.25061 4.09875 2.25975 4.11637 2.26967C4.2654 2.35353 4.50803 2.44255 4.84332 2.52253C5.50766 2.68102 6.44704 2.7835 7.5 2.7835C8.55296 2.7835 9.49234 2.68102 10.1567 2.52253C10.492 2.44255 10.7346 2.35353 10.8836 2.26967C10.9013 2.25975 10.9164 2.2506 10.9295 2.24227C10.9164 2.23393 10.9013 2.22478 10.8836 2.21486C10.7346 2.131 10.492 2.04199 10.1567 1.962C9.49234 1.80352 8.55296 1.70103 7.5 1.70103C6.44704 1.70103 5.50766 1.80352 4.84332 1.962C4.50803 2.04199 4.2654 2.131 4.11637 2.21486ZM11.0039 2.30222C11.004 2.30221 11.0042 2.3026 11.0039 2.30222V2.30222ZM11.0027 2.18416L11.0039 2.18232C11.004 2.18233 11.0036 2.18295 11.0027 2.18416ZM3.99734 2.18417C3.99638 2.18295 3.99601 2.18233 3.99606 2.18232L3.99734 2.18417Z" fill="url(#paint6_linear_177_30194)"/>
<path fill-rule="evenodd" clip-rule="evenodd" d="M14.198 4.64571C14.5556 4.77341 14.7419 5.16681 14.6142 5.52439L11.9033 12.4698C11.561 13.4281 10.2727 13.5867 9.7082 12.74L8.11554 10.351C7.90492 10.0351 7.99029 9.60824 8.30622 9.39762C8.62214 9.187 9.04899 9.27237 9.25961 9.5883L10.7004 11.7495L13.3193 5.06193C13.447 4.70435 13.8404 4.518 14.198 4.64571Z" fill="url(#paint7_linear_177_30194)"/>
<defs>
<linearGradient id="paint0_linear_177_30194" x1="3.33354" y1="3.75" x2="3.33354" y2="4.58333" gradientUnits="userSpaceOnUse">
<stop stop-color="#FE5468"/>
<stop offset="1" stop-color="#FFDF27"/>
</linearGradient>
<linearGradient id="paint1_linear_177_30194" x1="3.33354" y1="7.91687" x2="3.33354" y2="8.7502" gradientUnits="userSpaceOnUse">
<stop stop-color="#FE5468"/>
<stop offset="1" stop-color="#FFDF27"/>
</linearGradient>
<linearGradient id="paint2_linear_177_30194" x1="3.33354" y1="12.0831" x2="3.33354" y2="12.9165" gradientUnits="userSpaceOnUse">
<stop stop-color="#FE5468"/>
<stop offset="1" stop-color="#FFDF27"/>
</linearGradient>
<linearGradient id="paint3_linear_177_30194" x1="7.5" y1="0" x2="7.5" y2="15" gradientUnits="userSpaceOnUse">
<stop stop-color="#10808C"/>
<stop offset="1" stop-color="#1DF7EF"/>
</linearGradient>
<linearGradient id="paint4_linear_177_30194" x1="7.5" y1="0" x2="7.5" y2="15" gradientUnits="userSpaceOnUse">
<stop stop-color="#10808C"/>
<stop offset="1" stop-color="#1DF7EF"/>
</linearGradient>
<linearGradient id="paint5_linear_177_30194" x1="7.5" y1="0" x2="7.5" y2="15" gradientUnits="userSpaceOnUse">
<stop stop-color="#10808C"/>
<stop offset="1" stop-color="#1DF7EF"/>
</linearGradient>
<linearGradient id="paint6_linear_177_30194" x1="7.5" y1="0" x2="7.5" y2="15" gradientUnits="userSpaceOnUse">
<stop stop-color="#10808C"/>
<stop offset="1" stop-color="#1DF7EF"/>
</linearGradient>
<linearGradient id="paint7_linear_177_30194" x1="11.3272" y1="4.60547" x2="11.3272" y2="13.2913" gradientUnits="userSpaceOnUse">
<stop stop-color="#FE5468"/>
<stop offset="1" stop-color="#FFDF27"/>
</linearGradient>
</defs>
</svg>
