<svg width="25" height="24" viewBox="0 0 25 24" fill="none" xmlns="http://www.w3.org/2000/svg">
<path fill-rule="evenodd" clip-rule="evenodd" d="M14.597 2.49886C14.0047 2.31231 13.3723 2.46678 12.9177 2.86467L12.8293 2.94739L9.13263 7.37424C9.98507 8.00021 10.5388 9.00949 10.5388 10.1481L10.5353 10.3171C10.4514 12.0488 9.08618 13.4432 7.36774 13.576C7.36774 16.6591 5.81709 18.5958 3.20117 18.5961V20.4851L3.20402 20.592C3.26533 21.6527 4.228 22.4364 5.27911 22.2813L5.38465 22.2628L21.8641 18.9184L21.9818 18.892C23.1094 18.6065 23.9283 17.635 24.0262 16.4839L24.0362 16.2515V9.98128C24.0361 9.7358 23.9866 9.48829 23.8843 9.26035L23.8372 9.16409C21.542 4.82779 18.09 3.65498 14.9036 2.59869L14.597 2.49886ZM22.523 16.2515L22.5187 16.3549C22.4753 16.865 22.1128 17.2958 21.6145 17.4238L21.5261 17.4437L21.4876 17.4537L5.06661 20.7817C4.88343 20.8126 4.71468 20.6729 4.71434 20.4851V19.9053C7.03292 19.2726 8.78071 17.2251 8.94152 14.7433L22.523 10.8135V16.2515ZM14.1406 3.94143L14.4273 4.03414C17.4335 5.03071 20.2133 6.00405 22.1928 9.3281L11.6199 12.1733C11.8975 11.5555 12.052 10.87 12.052 10.1481L12.0427 9.84295C11.9882 8.94875 11.6952 8.11931 11.2291 7.41631L13.8832 4.03271L13.9167 4.00133C13.9981 3.93143 14.0841 3.92431 14.1406 3.94143Z" fill="url(#paint0_linear_3218_87480)"/>
<path d="M3.17894 12.768L3.25596 12.7716C3.63759 12.8102 3.93553 13.1328 3.93553 13.5246C3.93539 13.9163 3.63749 14.2384 3.25596 14.2769L3.17894 14.2805H1.51103C1.09337 14.2805 0.754598 13.9423 0.754446 13.5246C0.754446 13.1069 1.09327 12.7681 1.51103 12.768H3.17894ZM4.38905 10.3471L4.46678 10.3507C4.84822 10.3895 5.14564 10.712 5.14564 11.1037C5.14557 11.4953 4.84815 11.8172 4.46678 11.856L4.38905 11.8603H0.756586C0.33883 11.8603 7.57266e-05 11.5214 0 11.1037C0 10.6859 0.338784 10.3471 0.756586 10.3471H4.38905ZM5.44513 7.92619L5.52215 7.93046C5.90366 7.96917 6.20172 8.29105 6.20172 8.68277C6.20172 9.07449 5.90366 9.39638 5.52215 9.43508L5.44513 9.43936H2.87303C2.45523 9.43936 2.11644 9.10057 2.11644 8.68277C2.11644 8.26497 2.45523 7.92619 2.87303 7.92619H5.44513Z" fill="url(#paint1_linear_3218_87480)"/>
<path d="M5.11133 14.1029C5.11133 13.6852 5.45015 13.3464 5.86791 13.3463C6.28571 13.3463 6.6245 13.6851 6.6245 14.1029C6.6245 14.9106 6.47446 15.7543 6.06258 16.4226C5.62531 17.1321 4.9072 17.6092 3.93188 17.6092C3.51408 17.6092 3.17529 17.2704 3.17529 16.8526C3.17548 16.435 3.51419 16.0967 3.93188 16.0967C4.33914 16.0967 4.58961 15.9293 4.77475 15.6289C4.98528 15.2873 5.11133 14.7557 5.11133 14.1029Z" fill="url(#paint2_linear_3218_87480)"/>
<path d="M7.95954 8.39467C8.2686 8.15429 8.70518 8.19109 8.96999 8.46812L9.02062 8.5273L9.14969 8.70557C9.74969 9.60948 9.71836 10.6738 9.25451 11.5116C8.76265 12.3999 7.7902 13.034 6.59826 13.034C6.18046 13.034 5.84167 12.6952 5.84167 12.2774C5.84167 11.8596 6.18046 11.5208 6.59826 11.5208C7.2318 11.5208 7.70172 11.1927 7.93102 10.7785C8.14315 10.3952 8.15463 9.9389 7.88467 9.53561L7.82691 9.45574L7.78199 9.39228C7.57858 9.06741 7.65045 8.63507 7.95954 8.39467Z" fill="url(#paint3_linear_3218_87480)"/>
<defs>
<linearGradient id="paint0_linear_3218_87480" x1="13.6187" y1="2.4202" x2="13.6187" y2="22.3009" gradientUnits="userSpaceOnUse">
<stop stop-color="#10808C"/>
<stop offset="1" stop-color="#1DF7EF"/>
</linearGradient>
<linearGradient id="paint1_linear_3218_87480" x1="3.10086" y1="7.92619" x2="3.10086" y2="14.2805" gradientUnits="userSpaceOnUse">
<stop stop-color="#10808C"/>
<stop offset="1" stop-color="#1DF7EF"/>
</linearGradient>
<linearGradient id="paint2_linear_3218_87480" x1="4.89989" y1="13.3463" x2="4.89989" y2="17.6092" gradientUnits="userSpaceOnUse">
<stop stop-color="#FE5468"/>
<stop offset="1" stop-color="#FFDF27"/>
</linearGradient>
<linearGradient id="paint3_linear_3218_87480" x1="7.7216" y1="8.23517" x2="7.7216" y2="13.034" gradientUnits="userSpaceOnUse">
<stop stop-color="#FE5468"/>
<stop offset="1" stop-color="#FFDF27"/>
</linearGradient>
</defs>
</svg>
