<svg width="15" height="15" viewBox="0 0 15 15" fill="none" xmlns="http://www.w3.org/2000/svg">
<g clip-path="url(#clip0_177_29902)">
<path fill-rule="evenodd" clip-rule="evenodd" d="M3.19319 7.8569C3.19319 7.65965 3.36539 7.49976 3.5778 7.49976H7.42397C7.63638 7.49976 7.80858 7.65965 7.80858 7.8569C7.80858 8.05414 7.63638 8.21404 7.42397 8.21404H3.5778C3.36539 8.21404 3.19319 8.05414 3.19319 7.8569ZM3.5778 9.64261C3.5778 9.44537 3.75 9.28547 3.96242 9.28547H7.03935C7.25177 9.28547 7.42397 9.44537 7.42397 9.64261C7.42397 9.83986 7.25177 9.99976 7.03935 9.99976H3.96242C3.75 9.99976 3.5778 9.83986 3.5778 9.64261ZM3.00006 11.3569C3.00006 11.1597 3.17226 10.9998 3.38468 10.9998H7.61545C7.82786 10.9998 8.00006 11.1597 8.00006 11.3569C8.00006 11.5541 7.82786 11.714 7.61545 11.714H3.38468C3.17226 11.714 3.00006 11.5541 3.00006 11.3569Z" fill="url(#paint0_linear_177_29902)"/>
<path fill-rule="evenodd" clip-rule="evenodd" d="M5.5 14C7.98528 14 10 11.9853 10 9.5C10 7.01472 7.98528 5 5.5 5C3.01472 5 1 7.01472 1 9.5C1 11.9853 3.01472 14 5.5 14ZM5.5 15C8.53757 15 11 12.5376 11 9.5C11 6.46243 8.53757 4 5.5 4C2.46243 4 0 6.46243 0 9.5C0 12.5376 2.46243 15 5.5 15Z" fill="url(#paint1_linear_177_29902)"/>
<path d="M11.7461 0.315442C11.9494 0.309992 12.1319 0.391633 12.2617 0.527356L14.7978 3.17872C15.0779 3.47157 15.0662 3.95928 14.7715 4.26759C14.4766 4.5759 14.0096 4.58783 13.7295 4.29493L12.418 2.92384L12.3535 11.4863C12.3493 12.0475 11.9127 12.4999 11.376 12.5H11.1963C11.8405 11.1356 12.0331 9.5306 11.6269 7.94533C11.4678 7.32432 11.227 6.74897 10.9209 6.22755L10.9453 2.96388L9.56542 4.40724C9.27053 4.71555 8.80358 4.72748 8.52343 4.43458C8.24365 4.14167 8.25606 3.65488 8.55078 3.34669L11.2207 0.5547C11.2929 0.4793 11.3754 0.421659 11.4629 0.381849C11.5505 0.341925 11.6464 0.318156 11.7461 0.315442Z" fill="url(#paint2_linear_177_29902)"/>
</g>
<defs>
<linearGradient id="paint0_linear_177_29902" x1="5.50006" y1="7.49976" x2="5.50006" y2="11.714" gradientUnits="userSpaceOnUse">
<stop stop-color="#10808C"/>
<stop offset="1" stop-color="#1DF7EF"/>
</linearGradient>
<linearGradient id="paint1_linear_177_29902" x1="5.5" y1="4" x2="5.5" y2="15" gradientUnits="userSpaceOnUse">
<stop stop-color="#FE5468"/>
<stop offset="1" stop-color="#FFDF27"/>
</linearGradient>
<linearGradient id="paint2_linear_177_29902" x1="11.6609" y1="0.315186" x2="11.6609" y2="12.5001" gradientUnits="userSpaceOnUse">
<stop stop-color="#10808C"/>
<stop offset="1" stop-color="#1DF7EF"/>
</linearGradient>
<clipPath id="clip0_177_29902">
<rect width="15" height="15" fill="white"/>
</clipPath>
</defs>
</svg>
