<svg width="24" height="24" viewBox="0 0 24 24" fill="none" xmlns="http://www.w3.org/2000/svg">
<path d="M2.87692 17.8773C2.23918 18.4673 1.2456 18.4906 0.58008 17.9034C-0.0854874 17.3161 -0.186558 16.3269 0.319593 15.6206L0.428743 15.4833L8.14358 6.73994C10.1269 4.49221 13.5841 4.42241 15.6595 6.52968L15.8564 6.73994L23.5713 15.4833L23.6804 15.6206C24.1866 16.3269 24.0855 17.3161 23.4199 17.9034C22.7544 18.4906 21.7608 18.4673 21.1231 17.8773L20.9999 17.7521L13.2857 9.00866L13.2201 8.93835C12.5283 8.23582 11.3754 8.25937 10.7143 9.00866L3.00013 17.7521L2.87692 17.8773Z" fill="url(#paint0_linear_3218_87308)"/>
<defs>
<linearGradient id="paint0_linear_3218_87308" x1="12" y1="18.332" x2="12" y2="5" gradientUnits="userSpaceOnUse">
<stop stop-color="#FE5468"/>
<stop offset="1" stop-color="#FFDF27"/>
</linearGradient>
</defs>
</svg>
