<svg width="15" height="15" viewBox="0 0 15 15" fill="none" xmlns="http://www.w3.org/2000/svg">
<g clip-path="url(#clip0_11753_40600)">
<path d="M3.00003 7.51573H4.35225C4.90039 7.51573 5.19983 6.87642 4.84892 6.45532L2.99667 4.23263C2.73819 3.92246 2.26181 3.92246 2.00333 4.23263L0.151084 6.45532C-0.199828 6.87642 0.0996119 7.51573 0.647754 7.51573H2.00002C2.00851 10.5461 4.46768 13 7.5 13V12C5.01996 12 3.00851 9.99378 3.00003 7.51573Z" fill="url(#paint0_linear_11753_40600)"/>
<path d="M12 7.48427C11.9915 5.00622 9.98003 3 7.5 3V2C10.5323 2 12.9915 4.45394 13 7.48427H14.3522C14.9004 7.48427 15.1998 8.12358 14.8489 8.54468L12.9967 10.7674C12.7382 11.0775 12.2618 11.0775 12.0033 10.7674L10.1511 8.54468C9.80017 8.12358 10.0996 7.48427 10.6478 7.48427H12Z" fill="url(#paint1_linear_11753_40600)"/>
<path fill-rule="evenodd" clip-rule="evenodd" d="M8.29023 4.9259C8.46692 4.10135 9.52211 3.85225 10.0489 4.51073L11.3904 6.18764C11.5629 6.40327 11.528 6.71791 11.3123 6.89042C11.0967 7.06292 10.7821 7.02796 10.6096 6.81233L9.59727 5.54698C9.46557 5.38236 9.20177 5.44463 9.1576 5.65077L8.26296 9.82577C8.07066 10.7231 6.87224 10.9092 6.41691 10.1124L5.76115 8.9648C5.66208 8.79143 5.40978 8.79844 5.32048 8.97703L4.9472 9.72359C4.82371 9.97058 4.52337 10.0707 4.27638 9.9472C4.02939 9.8237 3.92928 9.52337 4.05277 9.27638L4.63496 8.112C4.99215 7.39763 6.00137 7.36962 6.39763 8.06308L6.96067 9.04841C7.07451 9.24761 7.37411 9.2011 7.42219 8.97675L8.29023 4.9259Z" fill="url(#paint2_linear_11753_40600)"/>
</g>
<defs>
<linearGradient id="paint0_linear_11753_40600" x1="7.5" y1="2" x2="13.9375" y2="14.3416" gradientUnits="userSpaceOnUse">
<stop stop-color="#FE5468"/>
<stop offset="1" stop-color="#FFDF27"/>
</linearGradient>
<linearGradient id="paint1_linear_11753_40600" x1="7.5" y1="2" x2="13.9375" y2="14.3416" gradientUnits="userSpaceOnUse">
<stop stop-color="#FE5468"/>
<stop offset="1" stop-color="#FFDF27"/>
</linearGradient>
<linearGradient id="paint2_linear_11753_40600" x1="7.74994" y1="4.13474" x2="7.74994" y2="10.6167" gradientUnits="userSpaceOnUse">
<stop stop-color="#10808C"/>
<stop offset="1" stop-color="#1DF7EF"/>
</linearGradient>
<clipPath id="clip0_11753_40600">
<rect width="15" height="15" fill="white"/>
</clipPath>
</defs>
</svg>
