<svg width="24" height="24" viewBox="0 0 24 24" fill="none" xmlns="http://www.w3.org/2000/svg">
<path fill-rule="evenodd" clip-rule="evenodd" d="M5.33333 18H2.66667C2.29848 18 2 18.2985 2 18.6667V21.3333C2 21.7015 2.29848 22 2.66667 22H5.33333C5.70152 22 6 21.7015 6 21.3333V18.6667C6 18.2985 5.70152 18 5.33333 18ZM2.66667 16C1.19391 16 0 17.1939 0 18.6667V21.3333C0 22.8061 1.19391 24 2.66667 24H5.33333C6.80609 24 8 22.8061 8 21.3333V18.6667C8 17.1939 6.80609 16 5.33333 16H2.66667Z" fill="url(#paint0_linear_3218_88368)"/>
<path fill-rule="evenodd" clip-rule="evenodd" d="M13.3333 18H10.6667C10.2985 18 10 18.2985 10 18.6667V21.3333C10 21.7015 10.2985 22 10.6667 22H13.3333C13.7015 22 14 21.7015 14 21.3333V18.6667C14 18.2985 13.7015 18 13.3333 18ZM10.6667 16C9.19391 16 8 17.1939 8 18.6667V21.3333C8 22.8061 9.19391 24 10.6667 24H13.3333C14.8061 24 16 22.8061 16 21.3333V18.6667C16 17.1939 14.8061 16 13.3333 16H10.6667Z" fill="url(#paint1_linear_3218_88368)"/>
<path fill-rule="evenodd" clip-rule="evenodd" d="M21.3333 18H18.6667C18.2985 18 18 18.2985 18 18.6667V21.3333C18 21.7015 18.2985 22 18.6667 22H21.3333C21.7015 22 22 21.7015 22 21.3333V18.6667C22 18.2985 21.7015 18 21.3333 18ZM18.6667 16C17.1939 16 16 17.1939 16 18.6667V21.3333C16 22.8061 17.1939 24 18.6667 24H21.3333C22.8061 24 24 22.8061 24 21.3333V18.6667C24 17.1939 22.8061 16 21.3333 16H18.6667Z" fill="url(#paint2_linear_3218_88368)"/>
<path fill-rule="evenodd" clip-rule="evenodd" d="M21.3333 2H18.6667C18.2985 2 18 2.29848 18 2.66667V5.33333C18 5.70152 18.2985 6 18.6667 6H21.3333C21.7015 6 22 5.70152 22 5.33333V2.66667C22 2.29848 21.7015 2 21.3333 2ZM18.6667 0C17.1939 0 16 1.19391 16 2.66667V5.33333C16 6.80609 17.1939 8 18.6667 8H21.3333C22.8061 8 24 6.80609 24 5.33333V2.66667C24 1.19391 22.8061 0 21.3333 0H18.6667Z" fill="url(#paint3_linear_3218_88368)"/>
<path fill-rule="evenodd" clip-rule="evenodd" d="M13.3333 10H10.6667C10.2985 10 10 10.2985 10 10.6667V13.3333C10 13.7015 10.2985 14 10.6667 14H13.3333C13.7015 14 14 13.7015 14 13.3333V10.6667C14 10.2985 13.7015 10 13.3333 10ZM10.6667 8C9.19391 8 8 9.19391 8 10.6667V13.3333C8 14.8061 9.19391 16 10.6667 16H13.3333C14.8061 16 16 14.8061 16 13.3333V10.6667C16 9.19391 14.8061 8 13.3333 8H10.6667Z" fill="url(#paint4_linear_3218_88368)"/>
<path fill-rule="evenodd" clip-rule="evenodd" d="M21.3333 10H18.6667C18.2985 10 18 10.2985 18 10.6667V13.3333C18 13.7015 18.2985 14 18.6667 14H21.3333C21.7015 14 22 13.7015 22 13.3333V10.6667C22 10.2985 21.7015 10 21.3333 10ZM18.6667 8C17.1939 8 16 9.19391 16 10.6667V13.3333C16 14.8061 17.1939 16 18.6667 16H21.3333C22.8061 16 24 14.8061 24 13.3333V10.6667C24 9.19391 22.8061 8 21.3333 8H18.6667Z" fill="url(#paint5_linear_3218_88368)"/>
<defs>
<linearGradient id="paint0_linear_3218_88368" x1="4" y1="16" x2="4" y2="24" gradientUnits="userSpaceOnUse">
<stop stop-color="#10808C"/>
<stop offset="1" stop-color="#1DF7EF"/>
</linearGradient>
<linearGradient id="paint1_linear_3218_88368" x1="12" y1="16" x2="12" y2="24" gradientUnits="userSpaceOnUse">
<stop stop-color="#FE5468"/>
<stop offset="1" stop-color="#FFDF27"/>
</linearGradient>
<linearGradient id="paint2_linear_3218_88368" x1="20" y1="16" x2="20" y2="24" gradientUnits="userSpaceOnUse">
<stop stop-color="#10808C"/>
<stop offset="1" stop-color="#1DF7EF"/>
</linearGradient>
<linearGradient id="paint3_linear_3218_88368" x1="20" y1="0" x2="20" y2="8" gradientUnits="userSpaceOnUse">
<stop stop-color="#10808C"/>
<stop offset="1" stop-color="#1DF7EF"/>
</linearGradient>
<linearGradient id="paint4_linear_3218_88368" x1="12" y1="8" x2="12" y2="16" gradientUnits="userSpaceOnUse">
<stop stop-color="#10808C"/>
<stop offset="1" stop-color="#1DF7EF"/>
</linearGradient>
<linearGradient id="paint5_linear_3218_88368" x1="20" y1="8" x2="20" y2="16" gradientUnits="userSpaceOnUse">
<stop stop-color="#FE5468"/>
<stop offset="1" stop-color="#FFDF27"/>
</linearGradient>
</defs>
</svg>
