<svg width="15" height="15" viewBox="0 0 15 15" fill="none" xmlns="http://www.w3.org/2000/svg">
<g clip-path="url(#clip0_177_31247)">
<path d="M13.3968 0.763209C13.5819 0.652687 13.8241 0.698291 13.9556 0.874974C14.0871 1.05173 14.0612 1.29697 13.902 1.44252L13.8684 1.46994L5.19308 7.92654C5.0512 8.03213 4.98919 8.21434 5.03769 8.3844L6.15285 12.2866L6.1624 12.329C6.20036 12.5412 6.07214 12.7521 5.86035 12.8126C5.64863 12.873 5.42838 12.7618 5.34847 12.5617L5.33435 12.5201L4.21961 8.61832C4.07382 8.10799 4.25919 7.56079 4.68495 7.2439L13.3606 0.787723L13.3968 0.763209Z" fill="url(#paint0_linear_177_31247)"/>
<path d="M13.4982 0.858804C13.6472 0.677188 13.9156 0.65077 14.0973 0.799806C14.2789 0.948858 14.3053 1.21729 14.1563 1.39893L7.59831 9.39115C7.46648 9.55182 7.36489 9.73535 7.29916 9.93252L6.35976 12.7507C6.28541 12.9736 6.04458 13.0938 5.82171 13.0196C5.59888 12.9452 5.4786 12.7044 5.55289 12.4815L6.49188 9.66371L6.53135 9.5536C6.62918 9.29948 6.76714 9.06234 6.94019 8.85144L13.4982 0.858804Z" fill="url(#paint1_linear_177_31247)"/>
<path d="M13.2418 0.0961875C14.2298 -0.30434 15.2446 0.611339 14.9474 1.63513L12.0972 11.9474C11.8255 12.8829 10.6521 13.1774 9.96989 12.4942L7.1741 10.1783L7.14211 10.1488C6.99073 9.99517 6.97709 9.74883 7.1176 9.57915C7.2581 9.40953 7.50271 9.37686 7.68182 9.49689L7.71673 9.52307L10.5445 11.8651L10.5624 11.8838C10.7877 12.1217 11.1853 12.0262 11.2787 11.7131L14.1284 1.40329L14.1301 1.39789L14.1434 1.33432C14.1865 1.02102 13.8721 0.760996 13.5642 0.883527L1.18394 5.78568L1.1802 5.78734L1.17604 5.78858C0.823668 5.93155 0.828516 6.41695 1.15236 6.5672L1.22133 6.59254L1.23587 6.5967L1.25 6.60168L4.18512 7.5354L4.22542 7.55243C4.42005 7.64531 4.51662 7.8723 4.44231 8.07968C4.36798 8.28699 4.14926 8.40114 3.93999 8.34933L3.89844 8.33645L0.962901 7.40273C-0.145151 7.06676 -0.255746 5.55359 0.754329 5.04653L0.856538 5L13.2343 0.0995114L13.2418 0.0961875Z" fill="url(#paint2_linear_177_31247)"/>
<path d="M3.49168 11.4994C3.65783 11.3332 3.92715 11.3332 4.0933 11.4994C4.25945 11.6655 4.25945 11.9348 4.0933 12.101L1.32785 14.8664C1.1617 15.0326 0.892381 15.0326 0.726231 14.8664C0.560081 14.7003 0.560081 14.431 0.726231 14.2648L3.49168 11.4994ZM1.85884 9.09528C2.02594 8.95898 2.27228 8.9686 2.42805 9.12436C2.58381 9.28013 2.59343 9.52647 2.45713 9.69357L2.42805 9.72598L0.726231 11.4278C0.560081 11.5939 0.290763 11.5939 0.124613 11.4278C-0.0415375 11.2616 -0.0415375 10.9923 0.124613 10.8262L1.82643 9.12436L1.85884 9.09528Z" fill="url(#paint3_linear_177_31247)"/>
</g>
<defs>
<linearGradient id="paint0_linear_177_31247" x1="9.10516" y1="0.703369" x2="9.10516" y2="12.829" gradientUnits="userSpaceOnUse">
<stop stop-color="#FE5468"/>
<stop offset="1" stop-color="#FFDF27"/>
</linearGradient>
<linearGradient id="paint1_linear_177_31247" x1="9.89189" y1="0.703247" x2="9.89189" y2="13.0415" gradientUnits="userSpaceOnUse">
<stop stop-color="#10808C"/>
<stop offset="1" stop-color="#1DF7EF"/>
</linearGradient>
<linearGradient id="paint2_linear_177_31247" x1="7.52991" y1="0" x2="7.52991" y2="12.8681" gradientUnits="userSpaceOnUse">
<stop stop-color="#10808C"/>
<stop offset="1" stop-color="#1DF7EF"/>
</linearGradient>
<linearGradient id="paint3_linear_177_31247" x1="2.10896" y1="8.99982" x2="2.10896" y2="14.991" gradientUnits="userSpaceOnUse">
<stop stop-color="#FE5468"/>
<stop offset="1" stop-color="#FFDF27"/>
</linearGradient>
<clipPath id="clip0_177_31247">
<rect width="15" height="15" fill="white"/>
</clipPath>
</defs>
</svg>
