<svg width="24" height="24" viewBox="0 0 24 24" fill="none" xmlns="http://www.w3.org/2000/svg">
<g clip-path="url(#clip0_3218_87530)">
<path fill-rule="evenodd" clip-rule="evenodd" d="M0 20V7H1.5V20C1.5 21.3807 2.61929 22.5 4 22.5H16V20C16 17.7909 17.7909 16 20 16H22.5V7H24V16L16 24H4C1.79086 24 0 22.2091 0 20ZM17 20C17 18.3431 18.3431 17 20 17H21.5858L17 21.5858V20Z" fill="url(#paint0_linear_3218_87530)"/>
<path fill-rule="evenodd" clip-rule="evenodd" d="M20 0C22.2091 0 24 1.79086 24 4V7H0V4C2.57702e-07 1.79086 1.79086 0 4 0H20ZM6.67969 1.74023V3.97168C6.67969 4.21159 6.67038 4.41788 6.65039 4.58984C6.6344 4.76175 6.59794 4.90179 6.54199 5.00977C6.49006 5.11762 6.41426 5.19986 6.31445 5.25586C6.21445 5.30786 6.08569 5.33398 5.92969 5.33398C5.74982 5.33396 5.59384 5.30969 5.46191 5.26172C5.33001 5.20975 5.23752 5.16587 5.18555 5.12988L5 5.80176C5.12798 5.88974 5.26795 5.956 5.41992 6C5.5718 6.04396 5.74373 6.06637 5.93555 6.06641C6.2833 6.06641 6.56158 6.01401 6.76953 5.91016C6.98153 5.80616 7.14014 5.65782 7.24414 5.46582C7.34805 5.27391 7.41811 5.04605 7.4541 4.78223C7.49009 4.5183 7.5078 4.22615 7.50781 3.90625V1.74023H6.67969ZM8.28906 3.91211C8.28907 4.18807 8.32361 4.45399 8.3916 4.70996C8.45956 4.9618 8.56512 5.18779 8.70898 5.3877C8.85698 5.5877 9.04916 5.7463 9.28516 5.8623C9.52515 5.9743 9.81528 6.03027 10.1553 6.03027C10.4831 6.03027 10.765 5.97607 11.001 5.86816C11.2369 5.75619 11.4292 5.60405 11.5771 5.41211C11.7291 5.2162 11.8392 4.99023 11.9072 4.73438C11.9792 4.47841 12.0156 4.20407 12.0156 3.91211V1.74023H11.1934V3.91211C11.1934 4.08401 11.1756 4.25397 11.1396 4.42188C11.1036 4.58588 11.0448 4.73421 10.9648 4.86621C10.8889 4.99795 10.7832 5.10369 10.6475 5.18359C10.5155 5.25958 10.3494 5.29783 10.1494 5.29785C9.95341 5.29785 9.78923 5.25959 9.65723 5.18359C9.52532 5.1076 9.41882 5.004 9.33887 4.87207C9.25891 4.7401 9.20103 4.59168 9.16504 4.42773C9.13308 4.25986 9.11719 4.08797 9.11719 3.91211V1.74023H8.28906V3.91211ZM12.8496 6H15.8496V5.27441H13.6777V1.74023H12.8496V6ZM16.8545 4.5V6H17.6758V4.51172L19.2236 1.74023H18.3301L17.2617 3.74414L16.2119 1.74023H15.3125L16.8545 4.5Z" fill="url(#paint1_linear_3218_87530)"/>
<path d="M8.72433 10.9C9.20433 10.9 9.62099 10.98 9.97433 11.14C10.3343 11.2933 10.6077 11.5067 10.7943 11.78C10.9877 12.0467 11.0843 12.3433 11.0843 12.67C11.0843 13.1033 10.961 13.46 10.7143 13.74C10.4677 14.0133 10.121 14.2033 9.67433 14.31C10.7677 14.47 11.3143 15.05 11.3143 16.05C11.3143 16.4433 11.2043 16.8033 10.9843 17.13C10.7643 17.45 10.451 17.7033 10.0443 17.89C9.63766 18.0767 9.16433 18.17 8.62433 18.17C8.11766 18.17 7.65766 18.08 7.24433 17.9C6.83099 17.72 6.47766 17.4633 6.18433 17.13L7.04433 16.31C7.48433 16.75 7.97433 16.97 8.51433 16.97C8.86766 16.97 9.15099 16.88 9.36433 16.7C9.58433 16.5133 9.69433 16.26 9.69433 15.94C9.69433 15.2467 9.29766 14.9 8.50433 14.9H7.84433L8.02433 13.81H8.50433C8.82433 13.81 9.07766 13.7333 9.26433 13.58C9.45766 13.4267 9.55433 13.2033 9.55433 12.91C9.55433 12.65 9.46099 12.4467 9.27433 12.3C9.08766 12.1467 8.84433 12.07 8.54433 12.07C8.27766 12.07 8.03099 12.1233 7.80433 12.23C7.58433 12.33 7.37099 12.4767 7.16433 12.67L6.35433 11.82C7.00099 11.2067 7.79099 10.9 8.72433 10.9Z" fill="url(#paint2_linear_3218_87530)"/>
<path d="M15.05 10.9C15.85 10.9 16.4634 11.21 16.89 11.83C17.3234 12.45 17.54 13.35 17.54 14.53C17.54 15.71 17.3234 16.6133 16.89 17.24C16.4634 17.86 15.85 18.17 15.05 18.17C14.25 18.17 13.6334 17.86 13.2 17.24C12.7734 16.6133 12.56 15.71 12.56 14.53C12.56 13.3433 12.7734 12.4433 13.2 11.83C13.6267 11.21 14.2434 10.9 15.05 10.9ZM15.05 12.06C14.8434 12.06 14.6767 12.1367 14.55 12.29C14.4234 12.4433 14.33 12.7 14.27 13.06C14.21 13.4133 14.18 13.9033 14.18 14.53C14.18 15.1567 14.21 15.65 14.27 16.01C14.33 16.3633 14.4234 16.6167 14.55 16.77C14.6767 16.9233 14.8434 17 15.05 17C15.2567 17 15.42 16.9267 15.54 16.78C15.6667 16.6333 15.76 16.38 15.82 16.02C15.8867 15.66 15.92 15.1633 15.92 14.53C15.92 13.89 15.8867 13.3933 15.82 13.04C15.76 12.68 15.6667 12.4267 15.54 12.28C15.42 12.1333 15.2567 12.06 15.05 12.06Z" fill="url(#paint3_linear_3218_87530)"/>
</g>
<defs>
<linearGradient id="paint0_linear_3218_87530" x1="12" y1="7" x2="12" y2="24" gradientUnits="userSpaceOnUse">
<stop stop-color="#10808C"/>
<stop offset="1" stop-color="#1DF7EF"/>
</linearGradient>
<linearGradient id="paint1_linear_3218_87530" x1="12" y1="0" x2="12" y2="7" gradientUnits="userSpaceOnUse">
<stop stop-color="#FE5468"/>
<stop offset="1" stop-color="#FFDF27"/>
</linearGradient>
<linearGradient id="paint2_linear_3218_87530" x1="11.8622" y1="10.9" x2="11.8622" y2="18.17" gradientUnits="userSpaceOnUse">
<stop stop-color="#FE5468"/>
<stop offset="1" stop-color="#FFDF27"/>
</linearGradient>
<linearGradient id="paint3_linear_3218_87530" x1="11.8622" y1="10.9" x2="11.8622" y2="18.17" gradientUnits="userSpaceOnUse">
<stop stop-color="#FE5468"/>
<stop offset="1" stop-color="#FFDF27"/>
</linearGradient>
<clipPath id="clip0_3218_87530">
<rect width="24" height="24" fill="white"/>
</clipPath>
</defs>
</svg>
