<svg width="15" height="15" viewBox="0 0 15 15" fill="none" xmlns="http://www.w3.org/2000/svg">
<g clip-path="url(#clip0_10766_37588)">
<path fill-rule="evenodd" clip-rule="evenodd" d="M7.4997 0.972656L12.395 2.60442L14.0267 7.4997L12.395 12.395L7.4997 14.0267L2.60442 12.395L0.972656 7.4997L2.60442 2.60442L7.4997 0.972656ZM3.39499 3.39499L2.02675 7.4997L3.39499 11.6044L7.4997 12.9727L11.6044 11.6044L12.9727 7.4997L11.6044 3.39499L7.4997 2.02675L3.39499 3.39499Z" fill="url(#paint0_linear_10766_37588)"/>
<path fill-rule="evenodd" clip-rule="evenodd" d="M8 1.5V5H7V1.5H8ZM4.5 8H1.5V7H4.5V8ZM13.5 8H10.5V7H13.5V8ZM7 13.5V10.5H8V13.5H7Z" fill="url(#paint1_linear_10766_37588)"/>
<path fill-rule="evenodd" clip-rule="evenodd" d="M11 7.5C11 9.433 9.433 11 7.5 11C5.567 11 4 9.433 4 7.5C4 5.567 5.567 4 7.5 4C9.433 4 11 5.567 11 7.5ZM7.5 10C8.88071 10 10 8.88071 10 7.5C10 6.11929 8.88071 5 7.5 5C6.11929 5 5 6.11929 5 7.5C5 8.88071 6.11929 10 7.5 10Z" fill="url(#paint2_linear_10766_37588)"/>
<path d="M9 7.5C9 8.32843 8.32843 9 7.5 9C6.67157 9 6 8.32843 6 7.5C6 6.67157 6.67157 6 7.5 6C8.32843 6 9 6.67157 9 7.5Z" fill="url(#paint3_linear_10766_37588)"/>
<path d="M15 7.5C15 8.32843 14.3284 9 13.5 9C12.6716 9 12 8.32843 12 7.5C12 6.67157 12.6716 6 13.5 6C14.3284 6 15 6.67157 15 7.5Z" fill="url(#paint4_linear_10766_37588)"/>
<path d="M3 7.5C3 8.32843 2.32843 9 1.5 9C0.671573 9 0 8.32843 0 7.5C0 6.67157 0.671573 6 1.5 6C2.32843 6 3 6.67157 3 7.5Z" fill="url(#paint5_linear_10766_37588)"/>
<path d="M9 1.5C9 2.32843 8.32843 3 7.5 3C6.67157 3 6 2.32843 6 1.5C6 0.671573 6.67157 0 7.5 0C8.32843 0 9 0.671573 9 1.5Z" fill="url(#paint6_linear_10766_37588)"/>
<path d="M9 13.5C9 14.3284 8.32843 15 7.5 15C6.67157 15 6 14.3284 6 13.5C6 12.6716 6.67157 12 7.5 12C8.32843 12 9 12.6716 9 13.5Z" fill="url(#paint7_linear_10766_37588)"/>
<circle cx="3" cy="3" r="1" fill="url(#paint8_linear_10766_37588)"/>
<circle cx="3" cy="12" r="1" fill="url(#paint9_linear_10766_37588)"/>
<circle cx="12" cy="3" r="1" fill="url(#paint10_linear_10766_37588)"/>
<circle cx="12" cy="12" r="1" fill="url(#paint11_linear_10766_37588)"/>
</g>
<defs>
<linearGradient id="paint0_linear_10766_37588" x1="7.4997" y1="0.972656" x2="7.4997" y2="14.0267" gradientUnits="userSpaceOnUse">
<stop stop-color="#10808C"/>
<stop offset="1" stop-color="#1DF7EF"/>
</linearGradient>
<linearGradient id="paint1_linear_10766_37588" x1="7.5" y1="1.5" x2="7.5" y2="13.5" gradientUnits="userSpaceOnUse">
<stop stop-color="#10808C"/>
<stop offset="1" stop-color="#1DF7EF"/>
</linearGradient>
<linearGradient id="paint2_linear_10766_37588" x1="7.5" y1="4" x2="7.5" y2="11" gradientUnits="userSpaceOnUse">
<stop stop-color="#10808C"/>
<stop offset="1" stop-color="#1DF7EF"/>
</linearGradient>
<linearGradient id="paint3_linear_10766_37588" x1="7.5" y1="6" x2="9.52235" y2="8.84321" gradientUnits="userSpaceOnUse">
<stop stop-color="#FE5468"/>
<stop offset="1" stop-color="#FFDF27"/>
</linearGradient>
<linearGradient id="paint4_linear_10766_37588" x1="13.5" y1="6" x2="13.5" y2="9" gradientUnits="userSpaceOnUse">
<stop stop-color="#10808C"/>
<stop offset="1" stop-color="#1DF7EF"/>
</linearGradient>
<linearGradient id="paint5_linear_10766_37588" x1="1.5" y1="6" x2="1.5" y2="9" gradientUnits="userSpaceOnUse">
<stop stop-color="#10808C"/>
<stop offset="1" stop-color="#1DF7EF"/>
</linearGradient>
<linearGradient id="paint6_linear_10766_37588" x1="7.5" y1="0" x2="7.5" y2="3" gradientUnits="userSpaceOnUse">
<stop stop-color="#10808C"/>
<stop offset="1" stop-color="#1DF7EF"/>
</linearGradient>
<linearGradient id="paint7_linear_10766_37588" x1="7.5" y1="12" x2="7.5" y2="15" gradientUnits="userSpaceOnUse">
<stop stop-color="#10808C"/>
<stop offset="1" stop-color="#1DF7EF"/>
</linearGradient>
<linearGradient id="paint8_linear_10766_37588" x1="3" y1="2" x2="4.34823" y2="3.89547" gradientUnits="userSpaceOnUse">
<stop stop-color="#FE5468"/>
<stop offset="1" stop-color="#FFDF27"/>
</linearGradient>
<linearGradient id="paint9_linear_10766_37588" x1="3" y1="11" x2="4.34823" y2="12.8955" gradientUnits="userSpaceOnUse">
<stop stop-color="#FE5468"/>
<stop offset="1" stop-color="#FFDF27"/>
</linearGradient>
<linearGradient id="paint10_linear_10766_37588" x1="12" y1="2" x2="13.3482" y2="3.89547" gradientUnits="userSpaceOnUse">
<stop stop-color="#FE5468"/>
<stop offset="1" stop-color="#FFDF27"/>
</linearGradient>
<linearGradient id="paint11_linear_10766_37588" x1="12" y1="11" x2="13.3482" y2="12.8955" gradientUnits="userSpaceOnUse">
<stop stop-color="#FE5468"/>
<stop offset="1" stop-color="#FFDF27"/>
</linearGradient>
<clipPath id="clip0_10766_37588">
<rect width="15" height="15" fill="white"/>
</clipPath>
</defs>
</svg>
