<svg width="24" height="24" viewBox="0 0 24 24" fill="none" xmlns="http://www.w3.org/2000/svg">
<g clip-path="url(#clip0_3218_86647)">
<path fill-rule="evenodd" clip-rule="evenodd" d="M12 2.18182C6.57757 2.18182 2.18182 6.57757 2.18182 12C2.18182 17.4224 6.57757 21.8182 12 21.8182C17.4224 21.8182 21.8182 17.4224 21.8182 12C21.8182 6.57757 17.4224 2.18182 12 2.18182ZM0 12C0 5.37258 5.37258 0 12 0C18.6274 0 24 5.37258 24 12C24 18.6274 18.6274 24 12 24C5.37258 24 0 18.6274 0 12Z" fill="url(#paint0_linear_3218_86647)"/>
<path fill-rule="evenodd" clip-rule="evenodd" d="M12 4C12.5522 4 12.9999 4.49248 12.9999 5.09998V11.02L16.447 12.9159C16.941 13.1876 17.1412 13.8483 16.8942 14.3917C16.6472 14.9351 16.0466 15.1553 15.5526 14.8836L11.5528 12.6837C11.214 12.4974 11 12.1165 11 11.6998V5.09998C11 4.49248 11.4477 4 12 4Z" fill="url(#paint1_linear_3218_86647)"/>
</g>
<defs>
<linearGradient id="paint0_linear_3218_86647" x1="12" y1="0" x2="12" y2="24" gradientUnits="userSpaceOnUse">
<stop stop-color="#FE5468"/>
<stop offset="1" stop-color="#FFDF27"/>
</linearGradient>
<linearGradient id="paint1_linear_3218_86647" x1="14" y1="4" x2="14" y2="15" gradientUnits="userSpaceOnUse">
<stop stop-color="#10808C"/>
<stop offset="1" stop-color="#1DF7EF"/>
</linearGradient>
<clipPath id="clip0_3218_86647">
<rect width="24" height="24" fill="white"/>
</clipPath>
</defs>
</svg>
