<svg width="24" height="24" viewBox="0 0 24 24" fill="none" xmlns="http://www.w3.org/2000/svg">
<g clip-path="url(#clip0_3218_88045)">
<path fill-rule="evenodd" clip-rule="evenodd" d="M12.0772 0.612017C12.3099 1.02486 12.2784 1.53588 11.9966 1.91697C10.9694 3.30641 10.4751 5.01832 10.6036 6.74134C10.7321 8.46437 11.4749 10.084 12.6969 11.3058C13.9189 12.5275 15.5389 13.2702 17.2623 13.3987C18.9857 13.5272 20.2757 13.377 21.6654 12.35C22.8264 11.4921 24 12.0166 24 13.0834C24 15.6844 22.9362 17.5244 21.5391 19.3311C20.142 21.1377 18.2591 22.5091 16.1109 23.2849C13.9626 24.0607 11.6378 24.2088 9.40838 23.7118C7.17901 23.2148 5.13731 22.0933 3.52219 20.4786C1.90708 18.8638 0.785339 16.8225 0.288242 14.5936C-0.208855 12.3647 -0.0607535 10.0404 0.715218 7.89257C1.49119 5.74475 2.86293 3.8623 4.66994 2.46549C6.47695 1.06867 8.64449 0.215263 10.9189 0.00512144C11.3909 -0.038487 11.8445 0.19917 12.0772 0.612017ZM21.072 15.2495C19.8056 15.7075 18.4471 15.8983 17.0835 15.7966C14.7856 15.6253 12.6256 14.6351 10.9963 13.0061C9.36692 11.3771 8.3765 9.21753 8.20515 6.92016C8.10345 5.5568 8.29423 4.19865 8.75241 2.93249C7.81729 3.27075 6.93561 3.75361 6.14106 4.3678C4.69545 5.48525 3.59805 6.99121 2.97728 8.70947C2.3565 10.4277 2.23802 12.2872 2.6357 14.0703C3.03337 15.8534 3.93076 17.4864 5.22286 18.7783C6.51495 20.0701 8.14831 20.9673 9.93181 21.3649C11.7153 21.7625 13.5752 21.644 15.2938 21.0234C17.0124 20.4027 18.5187 19.3056 19.6364 17.8603C20.2507 17.0659 20.7337 16.1844 21.072 15.2495Z" fill="url(#paint0_linear_3218_88045)"/>
</g>
<defs>
<linearGradient id="paint0_linear_3218_88045" x1="12" y1="0" x2="12" y2="24" gradientUnits="userSpaceOnUse">
<stop stop-color="#10808C"/>
<stop offset="1" stop-color="#1DF7EF"/>
</linearGradient>
<clipPath id="clip0_3218_88045">
<rect width="24" height="24" fill="white"/>
</clipPath>
</defs>
</svg>
