<svg width="24" height="24" viewBox="0 0 24 24" fill="none" xmlns="http://www.w3.org/2000/svg">
<g clip-path="url(#clip0_3479_72545)">
<path fill-rule="evenodd" clip-rule="evenodd" d="M20.4 21.6C20.7183 21.6 21.0235 21.4736 21.2485 21.2485C21.4736 21.0235 21.6 20.7183 21.6 20.4V3.60003C21.6 3.28177 21.4736 2.97655 21.2485 2.75151C21.0235 2.52646 20.7183 2.40003 20.4 2.40003H15.6C14.9373 2.40003 14.4 1.86278 14.4 1.20004C14.4 0.537296 14.9373 3.8147e-05 15.6 3.8147e-05H20.4C21.3548 3.8147e-05 22.2705 0.379324 22.9456 1.05445C23.6207 1.72958 24 2.64526 24 3.60003V20.4C24 21.3548 23.6207 22.2705 22.9456 22.9456C22.2705 23.6207 21.3548 24 20.4 24H15.6C14.9373 24 14.4 23.4627 14.4 22.8C14.4 22.1373 14.9373 21.6 15.6 21.6H20.4Z" fill="url(#paint0_linear_3479_72545)"/>
<path fill-rule="evenodd" clip-rule="evenodd" d="M8.04841 18.8486C7.57978 19.3172 6.81999 19.3172 6.35136 18.8486L0.35137 12.8486C-0.117258 12.38 -0.117258 11.6202 0.35137 11.1515L6.35136 5.15154C6.81999 4.68291 7.57978 4.68291 8.04841 5.15154C8.51704 5.62016 8.51704 6.37996 8.04841 6.84859L2.89695 12.0001L8.04841 17.1515C8.51704 17.6201 8.51704 18.3799 8.04841 18.8486Z" fill="url(#paint1_linear_3479_72545)"/>
<path fill-rule="evenodd" clip-rule="evenodd" d="M16.8 12C16.8 12.6628 16.2628 13.2 15.6001 13.2H1.20007C0.537333 13.2 7.82013e-05 12.6628 7.82013e-05 12C7.82013e-05 11.3373 0.537333 10.8 1.20007 10.8H15.6001C16.2628 10.8 16.8 11.3373 16.8 12Z" fill="url(#paint2_linear_3479_72545)"/>
</g>
<defs>
<linearGradient id="paint0_linear_3479_72545" x1="19.2" y1="24" x2="19.2" y2="3.8147e-05" gradientUnits="userSpaceOnUse">
<stop stop-color="#FE5468"/>
<stop offset="1" stop-color="#FFDF27"/>
</linearGradient>
<linearGradient id="paint1_linear_3479_72545" x1="8.39997" y1="19.2" x2="8.39997" y2="4.80006" gradientUnits="userSpaceOnUse">
<stop stop-color="#10808C"/>
<stop offset="1" stop-color="#1DF7EF"/>
</linearGradient>
<linearGradient id="paint2_linear_3479_72545" x1="8.39997" y1="19.2" x2="8.39997" y2="4.80006" gradientUnits="userSpaceOnUse">
<stop stop-color="#10808C"/>
<stop offset="1" stop-color="#1DF7EF"/>
</linearGradient>
<clipPath id="clip0_3479_72545">
<rect width="24" height="24" fill="white"/>
</clipPath>
</defs>
</svg>
