<svg width="15" height="15" viewBox="0 0 15 15" fill="none" xmlns="http://www.w3.org/2000/svg">
<g clip-path="url(#clip0_6590_27427)">
<circle cx="5.5" cy="5.5" r="3.5" fill="url(#paint0_linear_6590_27427)"/>
<path fill-rule="evenodd" clip-rule="evenodd" d="M11 5.5C11 8.53757 8.53757 11 5.5 11C2.46243 11 0 8.53757 0 5.5C0 2.46243 2.46243 0 5.5 0C8.53757 0 11 2.46243 11 5.5ZM5.5 9.5C7.70914 9.5 9.5 7.70914 9.5 5.5C9.5 3.29086 7.70914 1.5 5.5 1.5C3.29086 1.5 1.5 3.29086 1.5 5.5C1.5 7.70914 3.29086 9.5 5.5 9.5Z" fill="url(#paint1_linear_6590_27427)"/>
<path fill-rule="evenodd" clip-rule="evenodd" d="M14.5095 14.5095C14.2383 14.7806 13.7986 14.7806 13.5275 14.5095L8.49147 9.47347C8.22029 9.2023 8.22029 8.76264 8.49147 8.49147C8.76264 8.22029 9.2023 8.22029 9.47347 8.49147L14.5095 13.5275C14.7806 13.7986 14.7806 14.2383 14.5095 14.5095Z" fill="url(#paint2_linear_6590_27427)"/>
</g>
<defs>
<linearGradient id="paint0_linear_6590_27427" x1="5.5" y1="9" x2="5.5" y2="2" gradientUnits="userSpaceOnUse">
<stop stop-color="#10808C"/>
<stop offset="1" stop-color="#1DF7EF"/>
</linearGradient>
<linearGradient id="paint1_linear_6590_27427" x1="5.5" y1="0" x2="12.9153" y2="10.4251" gradientUnits="userSpaceOnUse">
<stop stop-color="#FE5468"/>
<stop offset="1" stop-color="#FFDF27"/>
</linearGradient>
<linearGradient id="paint2_linear_6590_27427" x1="11.5005" y1="8.28809" x2="15.8315" y2="14.3771" gradientUnits="userSpaceOnUse">
<stop stop-color="#FE5468"/>
<stop offset="1" stop-color="#FFDF27"/>
</linearGradient>
<clipPath id="clip0_6590_27427">
<rect width="15" height="15" fill="white"/>
</clipPath>
</defs>
</svg>
