<svg width="24" height="24" viewBox="0 0 24 24" fill="none" xmlns="http://www.w3.org/2000/svg">
<g clip-path="url(#clip0_3218_87071)">
<path fill-rule="evenodd" clip-rule="evenodd" d="M20.5168 6.40018C22.441 6.40018 24.0009 7.96 24.0009 9.88414C24.0009 11.8083 22.441 13.3681 20.5168 13.3681C19.9851 13.3681 19.4807 13.2489 19.0295 13.0355C18.7731 13.6987 18.376 14.2919 17.8747 14.7784C17.9797 14.7674 18.0862 14.7617 18.1941 14.7617C19.8617 14.7617 21.2136 16.1135 21.2136 17.7811C21.2136 19.4487 19.8617 20.8006 18.1941 20.8006C16.5265 20.8006 15.1746 19.4487 15.1746 17.7811C15.1746 17.1074 15.3952 16.4852 15.7682 15.9829C15.3573 16.0953 14.9248 16.1553 14.4782 16.1553C11.7843 16.1553 9.6005 13.9715 9.6005 11.2777C9.6005 8.58393 11.7843 6.40018 14.4782 6.40018C15.7608 6.40018 16.928 6.89545 17.7985 7.70466C18.4368 6.90969 19.4173 6.40018 20.5168 6.40018ZM22.6073 9.88414C22.6073 8.72966 21.6713 7.79376 20.5168 7.79376C19.3623 7.79376 18.4264 8.72966 18.4264 9.88414C18.4264 11.0386 19.3623 11.9745 20.5168 11.9745C21.6713 11.9745 22.6073 11.0386 22.6073 9.88414ZM16.1041 9.88414C16.1041 9.34777 16.2003 8.83246 16.3764 8.35553C15.8303 7.99984 15.179 7.79376 14.4782 7.79376C12.554 7.79376 10.9941 9.35359 10.9941 11.2777C10.9941 13.2019 12.554 14.7617 14.4782 14.7617C15.7449 14.7617 16.8556 14.0853 17.4657 13.0719C16.6278 12.2696 16.1041 11.1383 16.1041 9.88414ZM19.82 17.7811C19.82 16.8832 19.0921 16.1553 18.1941 16.1553C17.2961 16.1553 16.5682 16.8832 16.5682 17.7811C16.5682 18.6791 17.2961 19.407 18.1941 19.407C19.0921 19.407 19.82 18.6791 19.82 17.7811Z" fill="url(#paint0_linear_3218_87071)"/>
<path d="M0.00014019 12.2378L7.39228 0L10.163 4.58699C9.49444 5.38708 8.94508 6.28228 8.53394 7.24506C7.96675 8.57323 7.67434 10.0025 7.67435 11.4467C7.67435 12.5894 7.85742 13.7228 8.21482 14.8041L7.20005 15.2004L0.00014019 12.2378Z" fill="url(#paint1_linear_3218_87071)"/>
<path d="M10.9943 18.9513C10.6923 18.8121 10.4103 18.6019 10.1688 18.3134C9.80602 17.8799 9.47821 17.4185 9.18845 16.9335L7.39202 17.991L-0.000388145 13.6393L7.39202 24L10.9943 18.9513Z" fill="url(#paint2_linear_3218_87071)"/>
</g>
<defs>
<linearGradient id="paint0_linear_3218_87071" x1="16.8007" y1="6.40018" x2="16.8007" y2="20.8006" gradientUnits="userSpaceOnUse">
<stop stop-color="#FE5468"/>
<stop offset="1" stop-color="#FFDF27"/>
</linearGradient>
<linearGradient id="paint1_linear_3218_87071" x1="5.49694" y1="0" x2="5.49694" y2="24" gradientUnits="userSpaceOnUse">
<stop stop-color="#10808C"/>
<stop offset="1" stop-color="#1DF7EF"/>
</linearGradient>
<linearGradient id="paint2_linear_3218_87071" x1="5.49694" y1="0" x2="5.49694" y2="24" gradientUnits="userSpaceOnUse">
<stop stop-color="#10808C"/>
<stop offset="1" stop-color="#1DF7EF"/>
</linearGradient>
<clipPath id="clip0_3218_87071">
<rect width="24" height="24" fill="white"/>
</clipPath>
</defs>
</svg>
