<svg width="15" height="15" viewBox="0 0 15 15" fill="none" xmlns="http://www.w3.org/2000/svg">
<circle cx="11" cy="3" r="2" fill="#FF3838"/>
<path d="M5.82623 12.5C5.4115 12.5 5.11351 12.9306 5.31402 13.319C5.83688 14.332 6.73269 15 7.75 15C8.76731 15 9.66312 14.332 10.186 13.319C10.3865 12.9306 10.0885 12.5 9.67377 12.5C9.428 12.5 9.21188 12.6603 9.07529 12.8789C8.72023 13.4473 8.20176 13.75 7.75 13.75C7.29824 13.75 6.77977 13.4473 6.42471 12.8789C6.28812 12.6603 6.072 12.5 5.82623 12.5Z" fill="url(#paint0_linear_6590_27458)"/>
<path d="M7.50278 0C8.1717 2.13245e-05 8.82443 0.159329 9.41489 0.456055C9.01777 0.704021 8.68426 1.04157 8.44028 1.44141C8.1396 1.34367 7.82377 1.29201 7.50278 1.29199C6.66673 1.31394 5.87925 1.63206 5.29282 2.23828C4.70688 2.84404 4.37787 3.66581 4.37778 4.52246C4.37778 6.87896 3.88856 9.33302 3.3641 10.3271C3.31659 10.4172 3.26805 10.5025 3.22055 10.583H11.784C11.7365 10.5026 11.6889 10.4171 11.6414 10.3271C11.2255 9.53863 10.8324 7.83153 10.6873 5.9834C10.7901 5.99404 10.8943 5.99999 10.9998 6C11.3249 6 11.6374 5.94621 11.9305 5.85059C12.0604 7.5445 12.4108 9.08557 12.7391 9.70801C12.9463 10.1006 13.1477 10.3587 13.2879 10.5117C13.5332 10.7794 13.8544 10.9756 13.7254 11.416C13.6456 11.6884 13.4031 11.8749 13.1278 11.875H1.87778C1.60238 11.875 1.35895 11.6885 1.27914 11.416C1.1503 10.9757 1.4714 10.7793 1.71664 10.5117C1.85688 10.3587 2.05913 10.1009 2.26645 9.70801C2.67943 8.92505 3.12778 6.68849 3.12778 4.52246C3.12787 3.32319 3.58881 2.17328 4.40903 1.3252C5.22949 0.477003 6.34246 0 7.50278 0Z" fill="url(#paint1_linear_6590_27458)"/>
<defs>
<linearGradient id="paint0_linear_6590_27458" x1="7.75" y1="12.5" x2="7.75" y2="15" gradientUnits="userSpaceOnUse">
<stop stop-color="#10808C"/>
<stop offset="1" stop-color="#1DF7EF"/>
</linearGradient>
<linearGradient id="paint1_linear_6590_27458" x1="7.5023" y1="0" x2="15.3635" y2="11.6386" gradientUnits="userSpaceOnUse">
<stop stop-color="#FE5468"/>
<stop offset="1" stop-color="#FFDF27"/>
</linearGradient>
</defs>
</svg>
