<svg width="24" height="24" viewBox="0 0 24 24" fill="none" xmlns="http://www.w3.org/2000/svg">
<g clip-path="url(#clip0_3218_88245)">
<path d="M21.4349 1.22114C21.731 1.04431 22.1186 1.11727 22.329 1.39996C22.5394 1.68277 22.4979 2.07516 22.2432 2.30804L22.1894 2.35192L8.30893 12.6825C8.08192 12.8514 7.98271 13.1429 8.06031 13.4151L9.84456 19.6586L9.85985 19.7264C9.92058 20.066 9.71542 20.4034 9.37656 20.5002C9.03782 20.5968 8.68542 20.4189 8.55756 20.0987L8.53496 20.0322L6.75137 13.7893C6.51811 12.9728 6.8147 12.0973 7.49592 11.5903L21.377 1.26036L21.4349 1.22114Z" fill="url(#paint0_linear_3218_88245)"/>
<path d="M21.5971 1.37404C21.8355 1.08346 22.265 1.04119 22.5557 1.27965C22.8462 1.51813 22.8885 1.94763 22.6501 2.23825L12.1573 15.0258C11.9464 15.2829 11.7838 15.5765 11.6787 15.892L10.1756 20.4011C10.0567 20.7577 9.67133 20.9501 9.31474 20.8313C8.9582 20.7123 8.76576 20.327 8.88463 19.9704L10.387 15.4619L10.4502 15.2857C10.6067 14.8791 10.8274 14.4997 11.1043 14.1623L21.5971 1.37404Z" fill="url(#paint1_linear_3218_88245)"/>
<path d="M21.1869 0.1539C22.7676 -0.486945 24.3914 0.978143 23.9158 2.61621L19.3554 19.1159C18.9207 20.6126 17.0433 21.0839 15.9518 19.9907L11.4786 16.2853L11.4274 16.2381C11.1852 15.9923 11.1634 15.5981 11.3882 15.3267C11.613 15.0552 12.0043 15.003 12.2909 15.195L12.3468 15.2369L16.8712 18.9842L16.8998 19.0141C17.2603 19.3947 17.8964 19.2419 18.0458 18.7409L22.6055 2.24527L22.6082 2.23663L22.6294 2.13492C22.6985 1.63364 22.1953 1.21759 21.7028 1.41364L1.8943 9.25708L1.88832 9.25974L1.88167 9.26174C1.31787 9.49047 1.32563 10.2671 1.84378 10.5075L1.95413 10.5481L1.9774 10.5547L2 10.5627L6.6962 12.0566L6.76068 12.0839C7.07208 12.2325 7.2266 12.5957 7.10769 12.9275C6.98877 13.2592 6.63881 13.4418 6.30398 13.3589L6.23751 13.3383L1.54064 11.8444C-0.232242 11.3068 -0.409194 8.88575 1.20693 8.07446L1.37046 8L21.1749 0.159218L21.1869 0.1539Z" fill="url(#paint2_linear_3218_88245)"/>
<path d="M5.58669 18.399C5.85253 18.1331 6.28344 18.1331 6.54928 18.399C6.81512 18.6648 6.81512 19.0957 6.54928 19.3616L2.12456 23.7863C1.85872 24.0521 1.42781 24.0521 1.16197 23.7863C0.89613 23.5204 0.89613 23.0895 1.16197 22.8237L5.58669 18.399ZM2.97414 14.5525C3.24151 14.3344 3.63565 14.3498 3.88488 14.599C4.1341 14.8482 4.14948 15.2424 3.93141 15.5097L3.88488 15.5616L1.16197 18.2845C0.89613 18.5503 0.46522 18.5503 0.19938 18.2845C-0.0664601 18.0186 -0.0664601 17.5877 0.19938 17.3219L2.92229 14.599L2.97414 14.5525Z" fill="url(#paint3_linear_3218_88245)"/>
</g>
<defs>
<linearGradient id="paint0_linear_3218_88245" x1="14.5683" y1="1.1254" x2="14.5683" y2="20.5265" gradientUnits="userSpaceOnUse">
<stop stop-color="#FE5468"/>
<stop offset="1" stop-color="#FFDF27"/>
</linearGradient>
<linearGradient id="paint1_linear_3218_88245" x1="15.827" y1="1.12515" x2="15.827" y2="20.8664" gradientUnits="userSpaceOnUse">
<stop stop-color="#10808C"/>
<stop offset="1" stop-color="#1DF7EF"/>
</linearGradient>
<linearGradient id="paint2_linear_3218_88245" x1="12.0479" y1="0" x2="12.0479" y2="20.5889" gradientUnits="userSpaceOnUse">
<stop stop-color="#10808C"/>
<stop offset="1" stop-color="#1DF7EF"/>
</linearGradient>
<linearGradient id="paint3_linear_3218_88245" x1="3.37433" y1="14.3997" x2="3.37433" y2="23.9857" gradientUnits="userSpaceOnUse">
<stop stop-color="#FE5468"/>
<stop offset="1" stop-color="#FFDF27"/>
</linearGradient>
<clipPath id="clip0_3218_88245">
<rect width="24" height="24" fill="white"/>
</clipPath>
</defs>
</svg>
