<svg width="15" height="15" viewBox="0 0 15 15" fill="none" xmlns="http://www.w3.org/2000/svg">
<path fill-rule="evenodd" clip-rule="evenodd" d="M7.31635 1.80965C6.66519 1.18453 5.78201 0.833344 4.86112 0.833344H0.694455C0.310924 0.833344 1.04904e-05 1.13182 1.04904e-05 1.50001V11.5C1.04904e-05 11.8682 0.310924 12.1667 0.694455 12.1667H5.27779C5.64614 12.1667 5.99941 12.3072 6.25988 12.5572C6.52035 12.8072 6.63354 12.9797 6.63354 13.3333C6.63354 13.75 6.94445 14.1667 7.50001 14.1667C8.05557 14.1667 8.33334 13.75 8.33334 13.3333V4.16668C8.33334 3.28262 7.96752 2.43478 7.31635 1.80965ZM6.66668 11.1906C6.24799 10.9586 5.9085 10.8333 5.41668 10.8333H1.3889V2.16668H4.58334C5.13588 2.16668 5.66578 2.37739 6.05648 2.75246C6.44718 3.12754 6.66668 3.63624 6.66668 4.16668V11.1906Z" fill="url(#paint0_linear_7416_31915)"/>
<path fill-rule="evenodd" clip-rule="evenodd" d="M7.68365 1.80965C8.33481 1.18453 9.21799 0.833344 10.1389 0.833344H14.3055C14.6891 0.833344 15 1.13182 15 1.50001V11.5C15 11.8682 14.6891 12.1667 14.3055 12.1667H9.72221C9.35386 12.1667 9.00059 12.3072 8.74012 12.5572C8.47965 12.8072 8.36646 12.9797 8.36646 13.3333C8.36646 13.75 8.05555 14.1667 7.49999 14.1667C6.94443 14.1667 6.66666 13.75 6.66666 13.3333V4.16668C6.66666 3.28262 7.03248 2.43478 7.68365 1.80965ZM8.33332 11.1906C8.75201 10.9586 9.0915 10.8333 9.58332 10.8333H13.6111V2.16668H10.4167C9.86412 2.16668 9.33422 2.37739 8.94352 2.75246C8.55282 3.12754 8.33332 3.63624 8.33332 4.16668V11.1906Z" fill="url(#paint1_linear_7416_31915)"/>
<defs>
<linearGradient id="paint0_linear_7416_31915" x1="4.16668" y1="0.833344" x2="4.16668" y2="14.1667" gradientUnits="userSpaceOnUse">
<stop stop-color="#10808C"/>
<stop offset="1" stop-color="#1DF7EF"/>
</linearGradient>
<linearGradient id="paint1_linear_7416_31915" x1="10.8333" y1="0.833344" x2="20.2692" y2="9.12448" gradientUnits="userSpaceOnUse">
<stop stop-color="#FE5468"/>
<stop offset="1" stop-color="#FFDF27"/>
</linearGradient>
</defs>
</svg>
