<svg width="24" height="24" viewBox="0 0 24 24" fill="none" xmlns="http://www.w3.org/2000/svg">
<g clip-path="url(#clip0_3218_87703)">
<path fill-rule="evenodd" clip-rule="evenodd" d="M8.53334 9.22222H7.46667C6.87756 9.22222 6.4 9.76943 6.4 10.4444V12.8889C6.4 13.5639 6.87757 14.1111 7.46667 14.1111H8.53334C9.12244 14.1111 9.6 13.5639 9.6 12.8889V10.4444C9.6 9.76943 9.12244 9.22222 8.53334 9.22222ZM7.46667 8C6.28846 8 5.33334 9.09441 5.33334 10.4444V12.8889C5.33334 14.2389 6.28846 15.3333 7.46667 15.3333H8.53334C9.71154 15.3333 10.6667 14.2389 10.6667 12.8889V10.4444C10.6667 9.09441 9.71154 8 8.53334 8H7.46667Z" fill="url(#paint0_linear_3218_87703)"/>
<path fill-rule="evenodd" clip-rule="evenodd" d="M8.53334 18.4444H7.46667C6.87757 18.4444 6.4 18.9419 6.4 19.5556V21.7778C6.4 22.3914 6.87757 22.8889 7.46667 22.8889H8.53334C9.12244 22.8889 9.6 22.3914 9.6 21.7778V19.5556C9.6 18.9419 9.12244 18.4444 8.53334 18.4444ZM7.46667 17.3333C6.28846 17.3333 5.33334 18.3283 5.33334 19.5556V21.7778C5.33334 23.0051 6.28846 24 7.46667 24H8.53334C9.71154 24 10.6667 23.0051 10.6667 21.7778V19.5556C10.6667 18.3283 9.71154 17.3333 8.53334 17.3333H7.46667Z" fill="url(#paint1_linear_3218_87703)"/>
<path fill-rule="evenodd" clip-rule="evenodd" d="M16.5333 15.7778H15.4667C14.8776 15.7778 14.4 16.2752 14.4 16.8889V19.1111C14.4 19.7248 14.8776 20.2222 15.4667 20.2222H16.5333C17.1224 20.2222 17.6 19.7248 17.6 19.1111V16.8889C17.6 16.2752 17.1224 15.7778 16.5333 15.7778ZM15.4667 14.6667C14.2885 14.6667 13.3333 15.6616 13.3333 16.8889V19.1111C13.3333 20.3384 14.2885 21.3333 15.4667 21.3333H16.5333C17.7115 21.3333 18.6667 20.3384 18.6667 19.1111V16.8889C18.6667 15.6616 17.7115 14.6667 16.5333 14.6667H15.4667Z" fill="url(#paint2_linear_3218_87703)"/>
<path fill-rule="evenodd" clip-rule="evenodd" d="M16.5333 6.44444H15.4667C14.8776 6.44444 14.4 6.9419 14.4 7.55555V9.77778C14.4 10.3914 14.8776 10.8889 15.4667 10.8889H16.5333C17.1224 10.8889 17.6 10.3914 17.6 9.77778V7.55555C17.6 6.9419 17.1224 6.44444 16.5333 6.44444ZM15.4667 5.33333C14.2885 5.33333 13.3333 6.32825 13.3333 7.55555V9.77778C13.3333 11.0051 14.2885 12 15.4667 12H16.5333C17.7115 12 18.6667 11.0051 18.6667 9.77778V7.55555C18.6667 6.32825 17.7115 5.33333 16.5333 5.33333H15.4667Z" fill="url(#paint3_linear_3218_87703)"/>
<path fill-rule="evenodd" clip-rule="evenodd" d="M8.53334 1H7.46667C6.87756 1 6.4 1.44772 6.4 2V4C6.4 4.55228 6.87757 5 7.46667 5H8.53334C9.12244 5 9.6 4.55228 9.6 4V2C9.6 1.44772 9.12244 1 8.53334 1ZM7.46667 0C6.28846 0 5.33334 0.89543 5.33334 2V4C5.33334 5.10457 6.28846 6 7.46667 6H8.53334C9.71154 6 10.6667 5.10457 10.6667 4V2C10.6667 0.89543 9.71154 0 8.53334 0H7.46667Z" fill="url(#paint4_linear_3218_87703)"/>
<path fill-rule="evenodd" clip-rule="evenodd" d="M7.33333 10.6667V4H8.66666V10.6667H7.33333Z" fill="url(#paint5_linear_3218_87703)"/>
<path fill-rule="evenodd" clip-rule="evenodd" d="M7.33333 19.3333V13.3333H8.66666V19.3333H7.33333Z" fill="url(#paint6_linear_3218_87703)"/>
<path fill-rule="evenodd" clip-rule="evenodd" d="M15.3333 17.3333V9.33333H16.6667V17.3333H15.3333Z" fill="url(#paint7_linear_3218_87703)"/>
</g>
<defs>
<linearGradient id="paint0_linear_3218_87703" x1="8" y1="8" x2="8" y2="15.3333" gradientUnits="userSpaceOnUse">
<stop stop-color="#10808C"/>
<stop offset="1" stop-color="#1DF7EF"/>
</linearGradient>
<linearGradient id="paint1_linear_3218_87703" x1="8" y1="17.3333" x2="8" y2="24" gradientUnits="userSpaceOnUse">
<stop stop-color="#10808C"/>
<stop offset="1" stop-color="#1DF7EF"/>
</linearGradient>
<linearGradient id="paint2_linear_3218_87703" x1="16" y1="14.6667" x2="16" y2="21.3333" gradientUnits="userSpaceOnUse">
<stop stop-color="#10808C"/>
<stop offset="1" stop-color="#1DF7EF"/>
</linearGradient>
<linearGradient id="paint3_linear_3218_87703" x1="16" y1="5.33333" x2="16" y2="12" gradientUnits="userSpaceOnUse">
<stop stop-color="#10808C"/>
<stop offset="1" stop-color="#1DF7EF"/>
</linearGradient>
<linearGradient id="paint4_linear_3218_87703" x1="8" y1="0" x2="8" y2="6" gradientUnits="userSpaceOnUse">
<stop stop-color="#10808C"/>
<stop offset="1" stop-color="#1DF7EF"/>
</linearGradient>
<linearGradient id="paint5_linear_3218_87703" x1="8.66666" y1="7.33333" x2="7.33333" y2="7.33333" gradientUnits="userSpaceOnUse">
<stop stop-color="#FE5468"/>
<stop offset="1" stop-color="#FFDF27"/>
</linearGradient>
<linearGradient id="paint6_linear_3218_87703" x1="8.66666" y1="16.3333" x2="7.33333" y2="16.3333" gradientUnits="userSpaceOnUse">
<stop stop-color="#FE5468"/>
<stop offset="1" stop-color="#FFDF27"/>
</linearGradient>
<linearGradient id="paint7_linear_3218_87703" x1="16.6667" y1="13.3333" x2="15.3333" y2="13.3333" gradientUnits="userSpaceOnUse">
<stop stop-color="#FE5468"/>
<stop offset="1" stop-color="#FFDF27"/>
</linearGradient>
<clipPath id="clip0_3218_87703">
<rect width="24" height="24" fill="white"/>
</clipPath>
</defs>
</svg>
