<svg width="24" height="24" viewBox="0 0 24 24" fill="none" xmlns="http://www.w3.org/2000/svg">
<g clip-path="url(#clip0_3218_87294)">
<path d="M5.78871 2.87692C5.19871 2.23918 5.17542 1.2456 5.7626 0.58008C6.34986 -0.0854874 7.33911 -0.186558 8.04537 0.319593L8.18265 0.428743L16.926 8.14358C19.1738 10.1269 19.2436 13.5841 17.1363 15.6595L16.926 15.8564L8.18265 23.5713L8.04537 23.6804C7.33911 24.1866 6.34986 24.0855 5.7626 23.4199C5.17542 22.7544 5.19871 21.7608 5.78871 21.1231L5.91393 20.9999L14.6573 13.2857L14.7276 13.2201C15.4302 12.5283 15.4066 11.3754 14.6573 10.7143L5.91393 3.00013L5.78871 2.87692Z" fill="url(#paint0_linear_3218_87294)"/>
</g>
<defs>
<linearGradient id="paint0_linear_3218_87294" x1="5.33402" y1="12" x2="18.666" y2="12" gradientUnits="userSpaceOnUse">
<stop stop-color="#FE5468"/>
<stop offset="1" stop-color="#FFDF27"/>
</linearGradient>
<clipPath id="clip0_3218_87294">
<rect width="24" height="24" fill="white"/>
</clipPath>
</defs>
</svg>
