<svg width="24" height="24" viewBox="0 0 24 24" fill="none" xmlns="http://www.w3.org/2000/svg">
<g clip-path="url(#clip0_3499_37585)">
<path d="M6.55256 12.8V14.9636C6.55256 15.8406 5.43376 16.3197 4.69684 15.7583L0.807121 12.7947C0.264325 12.3811 0.264326 11.6189 0.807122 11.2053L4.69684 8.24173C5.43376 7.68027 6.55256 8.15937 6.55256 9.0364V11.2L10 11.2V12.7947L6.55256 12.8Z" fill="url(#paint0_linear_3499_37585)"/>
<path d="M17.4474 12.8V14.9636C17.4474 15.8406 18.5662 16.3197 19.3032 15.7583L23.1929 12.7947C23.7357 12.3811 23.7357 11.6189 23.1929 11.2053L19.3032 8.24174C18.5662 7.68028 17.4474 8.15938 17.4474 9.03641V11.2H14V12.7947L17.4474 12.8Z" fill="url(#paint1_linear_3499_37585)"/>
<path fill-rule="evenodd" clip-rule="evenodd" d="M11 17.7692L11 21L13 21L13 17.7692L11 17.7692ZM11 8.07692L11 11.3077L13 11.3077L13 8.07692L11 8.07692ZM11 1.74845e-07L11 1.61539L13 1.61539L13 0L11 1.74845e-07Z" fill="url(#paint2_linear_3499_37585)"/>
<path d="M11 22.3846L11 24L13 24L13 22.3846L11 22.3846Z" fill="url(#paint3_linear_3499_37585)"/>
<path d="M11 12.6923L11 15.9231L13 15.9231L13 12.6923L11 12.6923Z" fill="url(#paint4_linear_3499_37585)"/>
<path d="M11 3L11 6.23077L13 6.23077L13 3L11 3Z" fill="url(#paint5_linear_3499_37585)"/>
</g>
<defs>
<linearGradient id="paint0_linear_3499_37585" x1="0.400024" y1="12" x2="10" y2="12" gradientUnits="userSpaceOnUse">
<stop stop-color="#FE5468"/>
<stop offset="1" stop-color="#FFDF27"/>
</linearGradient>
<linearGradient id="paint1_linear_3499_37585" x1="23.6" y1="12" x2="14" y2="12" gradientUnits="userSpaceOnUse">
<stop stop-color="#10808C"/>
<stop offset="1" stop-color="#1DF7EF"/>
</linearGradient>
<linearGradient id="paint2_linear_3499_37585" x1="13" y1="10.5" x2="11" y2="10.5" gradientUnits="userSpaceOnUse">
<stop stop-color="#10808C"/>
<stop offset="1" stop-color="#1DF7EF"/>
</linearGradient>
<linearGradient id="paint3_linear_3499_37585" x1="13" y1="13.5" x2="11" y2="13.5" gradientUnits="userSpaceOnUse">
<stop stop-color="#FE5468"/>
<stop offset="1" stop-color="#FFDF27"/>
</linearGradient>
<linearGradient id="paint4_linear_3499_37585" x1="13" y1="13.5" x2="11" y2="13.5" gradientUnits="userSpaceOnUse">
<stop stop-color="#FE5468"/>
<stop offset="1" stop-color="#FFDF27"/>
</linearGradient>
<linearGradient id="paint5_linear_3499_37585" x1="13" y1="13.5" x2="11" y2="13.5" gradientUnits="userSpaceOnUse">
<stop stop-color="#FE5468"/>
<stop offset="1" stop-color="#FFDF27"/>
</linearGradient>
<clipPath id="clip0_3499_37585">
<rect width="24" height="24" fill="white"/>
</clipPath>
</defs>
</svg>
