<svg width="16" height="16" viewBox="0 0 16 16" fill="none" xmlns="http://www.w3.org/2000/svg">
<g clip-path="url(#clip0_5243_25459)">
<path d="M7.0625 1.4375C6.71745 1.4375 6.37848 1.51996 6.07953 1.67659L1.48691 4.06281L1.48437 4.06414C1.18538 4.2211 0.937043 4.44679 0.764267 4.71857C0.59149 4.99035 0.500354 5.29866 0.5 5.61258V10.3874C0.500354 10.7013 0.591491 11.0097 0.764267 11.2814C0.937043 11.5532 1.18538 11.7789 1.48437 11.9359L1.48691 11.9372L6.07812 14.3227L6.07934 14.3233C6.37833 14.48 6.71738 14.5625 7.0625 14.5625C7.40763 14.5625 7.7467 14.48 8.04569 14.3233L8.04687 14.3227L9.9398 13.3392C9.51858 13.1502 9.14446 12.8751 8.83989 12.5361L7.39316 13.2878L7.39062 13.2892C7.29086 13.3415 7.17769 13.3691 7.0625 13.3691C6.9473 13.3691 6.83414 13.3415 6.73438 13.2891L2.14062 10.9023L2.13959 10.9018C2.04039 10.8495 1.95798 10.7745 1.90059 10.6842C1.84304 10.5937 1.81267 10.491 1.8125 10.3865V5.61355C1.81267 5.509 1.84304 5.40632 1.90059 5.3158C1.95798 5.22552 2.04039 5.1505 2.13959 5.0982L2.14062 5.09766L6.73184 2.71218L6.73437 2.71085C6.83414 2.65848 6.9473 2.6309 7.0625 2.6309C7.1777 2.6309 7.29086 2.65848 7.39062 2.71085L11.9844 5.09766L11.9854 5.0982C12.0846 5.1505 12.167 5.22552 12.2244 5.3158C12.282 5.40639 12.3124 5.50916 12.3125 5.6138V7.22783C12.8147 7.39394 13.2631 7.67807 13.625 8.04735V5.61258C13.6246 5.29866 13.5335 4.99035 13.3607 4.71857C13.188 4.44679 12.9396 4.2211 12.6406 4.06413L8.04687 1.67733L8.0455 1.67661C7.74655 1.51996 7.40756 1.4375 7.0625 1.4375Z" fill="url(#paint0_linear_5243_25459)"/>
<path fill-rule="evenodd" clip-rule="evenodd" d="M0.590753 5.45315C0.777267 5.19887 1.18985 5.11198 1.51227 5.25907L7.0625 7.79111L12.6127 5.25907C12.9352 5.11198 13.3477 5.19887 13.5342 5.45315C13.7208 5.70744 13.6106 6.03282 13.2882 6.17991L7.40021 8.86602C7.19129 8.96133 6.93371 8.96133 6.72479 8.86602L0.836849 6.17991C0.51442 6.03282 0.40424 5.70744 0.590753 5.45315Z" fill="url(#paint1_linear_5243_25459)"/>
<path fill-rule="evenodd" clip-rule="evenodd" d="M7.0625 8C7.58027 8 8 8.46875 8 8.9375V13.625C8 14.0938 7.58027 14.5625 7.0625 14.5625C6.54473 14.5625 6.125 14.0938 6.125 13.625V8.9375C6.125 8.46875 6.54473 8 7.0625 8Z" fill="url(#paint2_linear_5243_25459)"/>
<path fill-rule="evenodd" clip-rule="evenodd" d="M11.2812 11.75C12.0579 11.75 12.6875 11.1204 12.6875 10.3438C12.6875 9.5671 12.0579 8.9375 11.2812 8.9375C10.5046 8.9375 9.875 9.5671 9.875 10.3438C9.875 11.1204 10.5046 11.75 11.2812 11.75ZM11.2812 12.6875C12.5757 12.6875 13.625 11.6382 13.625 10.3438C13.625 9.04933 12.5757 8 11.2812 8C9.98683 8 8.9375 9.04933 8.9375 10.3438C8.9375 11.6382 9.98683 12.6875 11.2812 12.6875Z" fill="url(#paint3_linear_5243_25459)"/>
<path fill-rule="evenodd" clip-rule="evenodd" d="M12.0816 11.4184C12.2647 11.2353 12.5615 11.2353 12.7445 11.4184L14.8941 13.568C15.0772 13.751 15.0772 14.0478 14.8941 14.2309C14.7111 14.4139 14.4143 14.4139 14.2312 14.2309L12.0816 12.0813C11.8986 11.8982 11.8986 11.6014 12.0816 11.4184Z" fill="url(#paint4_linear_5243_25459)"/>
</g>
<defs>
<linearGradient id="paint0_linear_5243_25459" x1="7.0625" y1="1.4375" x2="7.0625" y2="14.5625" gradientUnits="userSpaceOnUse">
<stop stop-color="#10808C"/>
<stop offset="1" stop-color="#1DF7EF"/>
</linearGradient>
<linearGradient id="paint1_linear_5243_25459" x1="7.0625" y1="5.1875" x2="7.0625" y2="8.9375" gradientUnits="userSpaceOnUse">
<stop stop-color="#10808C"/>
<stop offset="1" stop-color="#1DF7EF"/>
</linearGradient>
<linearGradient id="paint2_linear_5243_25459" x1="7.0625" y1="14.5625" x2="7.0625" y2="7.63542" gradientUnits="userSpaceOnUse">
<stop stop-color="#10808C"/>
<stop offset="1" stop-color="#1DF7EF"/>
</linearGradient>
<linearGradient id="paint3_linear_5243_25459" x1="11.2812" y1="8" x2="14.4412" y2="12.4425" gradientUnits="userSpaceOnUse">
<stop stop-color="#FE5468"/>
<stop offset="1" stop-color="#FFDF27"/>
</linearGradient>
<linearGradient id="paint4_linear_5243_25459" x1="13.1564" y1="9.87483" x2="12.4935" y2="13.819" gradientUnits="userSpaceOnUse">
<stop stop-color="#FE5468"/>
<stop offset="1" stop-color="#FFDF27"/>
</linearGradient>
<clipPath id="clip0_5243_25459">
<rect width="15" height="15" fill="white" transform="translate(0.5 0.5)"/>
</clipPath>
</defs>
</svg>
