<svg width="15" height="15" viewBox="0 0 15 15" fill="none" xmlns="http://www.w3.org/2000/svg">
<g clip-path="url(#clip0_177_29712)">
<path d="M2.699 9.68649L0 8.09766L2.699 11.8804L5.39804 8.09766L2.699 9.68649Z" fill="url(#paint0_linear_177_29712)"/>
<path d="M2.69902 3.11816L5.39796 7.5863L2.69902 9.17954L0 7.58651L2.69902 3.11816Z" fill="url(#paint1_linear_177_29712)"/>
<path d="M7.92199 2.47154C6.55951 1.49358 4.66157 1.80126 3.67817 3.16147L3.12971 2.76495C4.33211 1.10183 6.65313 0.726116 8.31852 1.92308L8.85474 1.18141C9.07209 0.880769 9.54147 0.970045 9.63327 1.32948L10.1179 3.22673C10.1855 3.49149 9.9966 3.75277 9.72399 3.77154L7.77045 3.90607C7.40035 3.93156 7.16845 3.51382 7.3858 3.21318L7.92199 2.47154Z" fill="url(#paint2_linear_177_29712)"/>
<path d="M5.16768 12.9031L5.70388 12.1615C5.92123 11.8609 5.68933 11.4431 5.31922 11.4686L3.36569 11.6031C3.09308 11.6219 2.90418 11.8832 2.9718 12.148L3.4564 14.0452C3.54821 14.4046 4.01759 14.4939 4.23494 14.1933L4.77115 13.4516C6.43654 14.6486 8.75757 14.2729 9.95997 12.6097L9.41151 12.2132C8.4281 13.5734 6.53016 13.8811 5.16768 12.9031Z" fill="url(#paint3_linear_177_29712)"/>
<path fill-rule="evenodd" clip-rule="evenodd" d="M12.1591 6.03039C12.1591 6.66172 11.6966 7.17352 11.126 7.17352L11.126 8.31664C11.6966 8.31664 12.1591 8.82844 12.1591 9.45977V10.6029C12.1591 11.2342 11.6966 11.746 11.126 11.746V11.8805H10.6094V11.746C10.0387 11.746 9.57617 11.2342 9.57617 10.6029V9.45977C9.57617 8.82844 10.0387 8.31664 10.6094 8.31664V7.17352C10.0387 7.17352 9.57617 6.66172 9.57617 6.03039V4.88727C9.57617 4.25594 10.0387 3.74414 10.6094 3.74414H11.126C11.6966 3.74414 12.1591 4.25594 12.1591 4.88727V6.03039ZM10.6094 4.3157H11.126C11.4113 4.3157 11.6426 4.5716 11.6426 4.88727V6.03039C11.6426 6.34606 11.4113 6.60196 11.126 6.60196V6.03039H10.6094V6.60196C10.3241 6.60196 10.0928 6.34606 10.0928 6.03039V4.88727C10.0928 4.5716 10.3241 4.3157 10.6094 4.3157ZM11.126 11.1745C11.4113 11.1745 11.6426 10.9186 11.6426 10.6029V9.45977C11.6426 9.1441 11.4113 8.88821 11.126 8.88821L11.126 9.45977H10.6094V8.88821C10.3241 8.88821 10.0928 9.1441 10.0928 9.45977V10.6029C10.0928 10.9186 10.3241 11.1745 10.6094 11.1745V10.6029H11.126V11.1745Z" fill="url(#paint4_linear_177_29712)"/>
<path fill-rule="evenodd" clip-rule="evenodd" d="M13.9672 11.1745V9.45977C14.5378 9.45977 15.0004 8.94798 15.0004 8.31664V7.17352C15.0004 6.54219 14.5378 6.03039 13.9672 6.03039H13.4506C12.88 6.03039 12.4174 6.54219 12.4174 7.17352V8.31664C12.4174 8.94798 12.88 9.45977 13.4506 9.45977V11.1745C10.5157 11.1745 16.9021 11.1745 13.9672 11.1745ZM13.9672 6.60196H13.4506C13.1653 6.60196 12.934 6.85785 12.934 7.17352V8.31664C12.934 8.63231 13.1653 8.88821 13.4506 8.88821V8.31664H13.9672V8.88821C14.2525 8.88821 14.4838 8.63231 14.4838 8.31664V7.17352C14.4838 6.85785 14.2525 6.60196 13.9672 6.60196Z" fill="url(#paint5_linear_177_29712)"/>
</g>
<defs>
<linearGradient id="paint0_linear_177_29712" x1="2.69902" y1="8.09766" x2="2.69902" y2="11.8804" gradientUnits="userSpaceOnUse">
<stop stop-color="#10808C"/>
<stop offset="1" stop-color="#1DF7EF"/>
</linearGradient>
<linearGradient id="paint1_linear_177_29712" x1="2.69898" y1="3.11816" x2="2.69898" y2="9.17954" gradientUnits="userSpaceOnUse">
<stop stop-color="#FE5468"/>
<stop offset="1" stop-color="#FFDF27"/>
</linearGradient>
<linearGradient id="paint2_linear_177_29712" x1="6.54484" y1="1" x2="6.54484" y2="14.3747" gradientUnits="userSpaceOnUse">
<stop stop-color="#FE5468"/>
<stop offset="1" stop-color="#FFDF27"/>
</linearGradient>
<linearGradient id="paint3_linear_177_29712" x1="6.54484" y1="1" x2="6.54484" y2="14.3747" gradientUnits="userSpaceOnUse">
<stop stop-color="#FE5468"/>
<stop offset="1" stop-color="#FFDF27"/>
</linearGradient>
<linearGradient id="paint4_linear_177_29712" x1="12.2883" y1="3.74414" x2="12.2883" y2="11.8805" gradientUnits="userSpaceOnUse">
<stop stop-color="#10808C"/>
<stop offset="1" stop-color="#1DF7EF"/>
</linearGradient>
<linearGradient id="paint5_linear_177_29712" x1="12.2883" y1="3.74414" x2="12.2883" y2="11.8805" gradientUnits="userSpaceOnUse">
<stop stop-color="#10808C"/>
<stop offset="1" stop-color="#1DF7EF"/>
</linearGradient>
<clipPath id="clip0_177_29712">
<rect width="15" height="15" fill="white"/>
</clipPath>
</defs>
</svg>
