<svg width="15" height="15" viewBox="0 0 15 15" fill="none" xmlns="http://www.w3.org/2000/svg">
<g clip-path="url(#clip0_177_30554)">
<path fill-rule="evenodd" clip-rule="evenodd" d="M0 12.5V4.375H0.9375V12.5C0.9375 13.3629 1.63706 14.0625 2.5 14.0625H10V12.5C10 11.1193 11.1193 10 12.5 10H14.0625V4.375H15V10L10 15H2.5C1.11929 15 0 13.8807 0 12.5ZM10.625 12.5C10.625 11.4645 11.4645 10.625 12.5 10.625H13.4911L10.625 13.4911V12.5Z" fill="url(#paint0_linear_177_30554)"/>
<path fill-rule="evenodd" clip-rule="evenodd" d="M12.5 0C13.8807 0 15 1.11929 15 2.5V4.375H0V2.5C1.61064e-07 1.11929 1.11929 0 2.5 0H12.5ZM4.1748 1.08765V2.4823C4.1748 2.63224 4.16898 2.76118 4.15649 2.86865C4.1465 2.97609 4.12371 3.06362 4.08875 3.1311C4.05629 3.19851 4.00891 3.24992 3.94653 3.28491C3.88403 3.31741 3.80355 3.33374 3.70605 3.33374C3.59364 3.33372 3.49615 3.31856 3.4137 3.28857C3.33126 3.25609 3.27345 3.22867 3.24097 3.20618L3.125 3.6261C3.20499 3.68109 3.29247 3.7225 3.38745 3.75C3.48238 3.77748 3.58983 3.79148 3.70972 3.7915C3.92706 3.7915 4.10099 3.75876 4.23096 3.69385C4.36346 3.62885 4.46259 3.53614 4.52759 3.41614C4.59253 3.29619 4.63632 3.15378 4.65881 2.98889C4.68131 2.82393 4.69238 2.64135 4.69238 2.44141V1.08765H4.1748ZM5.18066 2.44507C5.18067 2.61754 5.20226 2.78375 5.24475 2.94373C5.28723 3.10113 5.3532 3.24237 5.44312 3.36731C5.53562 3.49231 5.65572 3.59144 5.80322 3.66394C5.95322 3.73394 6.13455 3.76892 6.34705 3.76892C6.55196 3.76892 6.72815 3.73504 6.87561 3.6676C7.02308 3.59762 7.14323 3.50253 7.23572 3.38257C7.33067 3.26013 7.39951 3.11889 7.44202 2.95898C7.48701 2.799 7.50976 2.62754 7.50977 2.44507V1.08765H6.99585V2.44507C6.99584 2.5525 6.98476 2.65873 6.96228 2.76367C6.93978 2.86617 6.90303 2.95888 6.85303 3.04138C6.80557 3.12372 6.73949 3.1898 6.65466 3.23975C6.57218 3.28724 6.46834 3.31115 6.34338 3.31116C6.22088 3.31116 6.11827 3.28725 6.03577 3.23975C5.95333 3.19225 5.88677 3.1275 5.83679 3.04504C5.78682 2.96256 5.75064 2.8698 5.72815 2.76733C5.70818 2.66242 5.69825 2.55498 5.69824 2.44507V1.08765H5.18066V2.44507ZM8.03101 3.75H9.90601V3.29651H8.54858V1.08765H8.03101V3.75ZM10.5341 2.8125V3.75H11.0474V2.81982L12.0148 1.08765H11.4563L10.7886 2.34009L10.1324 1.08765H9.57031L10.5341 2.8125Z" fill="url(#paint1_linear_177_30554)"/>
<path d="M5.45273 6.8125C5.75273 6.8125 6.01315 6.8625 6.23398 6.9625C6.45898 7.05833 6.62982 7.19167 6.74648 7.3625C6.86732 7.52917 6.92773 7.71458 6.92773 7.91875C6.92773 8.18958 6.85065 8.4125 6.69648 8.5875C6.54232 8.75833 6.32565 8.87708 6.04648 8.94375C6.72982 9.04375 7.07148 9.40625 7.07148 10.0312C7.07148 10.2771 7.00273 10.5021 6.86523 10.7063C6.72773 10.9063 6.5319 11.0646 6.27773 11.1813C6.02357 11.2979 5.72773 11.3563 5.39023 11.3563C5.07357 11.3563 4.78607 11.3 4.52773 11.1875C4.2694 11.075 4.04857 10.9146 3.86523 10.7063L4.40273 10.1938C4.67773 10.4688 4.98398 10.6063 5.32148 10.6063C5.54232 10.6063 5.7194 10.55 5.85273 10.4375C5.99023 10.3208 6.05898 10.1625 6.05898 9.9625C6.05898 9.52917 5.81107 9.3125 5.31523 9.3125H4.90273L5.01523 8.63125H5.31523C5.51523 8.63125 5.67357 8.58333 5.79023 8.4875C5.91107 8.39167 5.97148 8.25208 5.97148 8.06875C5.97148 7.90625 5.91315 7.77917 5.79648 7.6875C5.67982 7.59167 5.52773 7.54375 5.34023 7.54375C5.17357 7.54375 5.0194 7.57708 4.87773 7.64375C4.74023 7.70625 4.6069 7.79792 4.47773 7.91875L3.97148 7.3875C4.37565 7.00417 4.8694 6.8125 5.45273 6.8125Z" fill="url(#paint2_linear_177_30554)"/>
<path d="M9.4063 6.8125C9.9063 6.8125 10.2896 7.00625 10.5563 7.39375C10.8271 7.78125 10.9625 8.34375 10.9625 9.08125C10.9625 9.81875 10.8271 10.3833 10.5563 10.775C10.2896 11.1625 9.9063 11.3563 9.4063 11.3563C8.9063 11.3563 8.52088 11.1625 8.25005 10.775C7.98338 10.3833 7.85005 9.81875 7.85005 9.08125C7.85005 8.33958 7.98338 7.77708 8.25005 7.39375C8.51672 7.00625 8.90213 6.8125 9.4063 6.8125ZM9.4063 7.5375C9.27713 7.5375 9.17297 7.58542 9.0938 7.68125C9.01463 7.77708 8.9563 7.9375 8.9188 8.1625C8.8813 8.38333 8.86255 8.68958 8.86255 9.08125C8.86255 9.47292 8.8813 9.78125 8.9188 10.0063C8.9563 10.2271 9.01463 10.3854 9.0938 10.4813C9.17297 10.5771 9.27713 10.625 9.4063 10.625C9.53547 10.625 9.63755 10.5792 9.71255 10.4875C9.79172 10.3958 9.85005 10.2375 9.88755 10.0125C9.92922 9.7875 9.95005 9.47708 9.95005 9.08125C9.95005 8.68125 9.92922 8.37083 9.88755 8.15C9.85005 7.925 9.79172 7.76667 9.71255 7.675C9.63755 7.58333 9.53547 7.5375 9.4063 7.5375Z" fill="url(#paint3_linear_177_30554)"/>
</g>
<defs>
<linearGradient id="paint0_linear_177_30554" x1="7.5" y1="4.375" x2="7.5" y2="15" gradientUnits="userSpaceOnUse">
<stop stop-color="#10808C"/>
<stop offset="1" stop-color="#1DF7EF"/>
</linearGradient>
<linearGradient id="paint1_linear_177_30554" x1="7.5" y1="0" x2="7.5" y2="4.375" gradientUnits="userSpaceOnUse">
<stop stop-color="#FE5468"/>
<stop offset="1" stop-color="#FFDF27"/>
</linearGradient>
<linearGradient id="paint2_linear_177_30554" x1="7.41389" y1="6.8125" x2="7.41389" y2="11.3563" gradientUnits="userSpaceOnUse">
<stop stop-color="#FE5468"/>
<stop offset="1" stop-color="#FFDF27"/>
</linearGradient>
<linearGradient id="paint3_linear_177_30554" x1="7.41389" y1="6.8125" x2="7.41389" y2="11.3563" gradientUnits="userSpaceOnUse">
<stop stop-color="#FE5468"/>
<stop offset="1" stop-color="#FFDF27"/>
</linearGradient>
<clipPath id="clip0_177_30554">
<rect width="15" height="15" fill="white"/>
</clipPath>
</defs>
</svg>
