<svg width="15" height="15" viewBox="0 0 15 15" fill="none" xmlns="http://www.w3.org/2000/svg">
<path d="M3.61144 0C3.09574 0 2.60116 0.215502 2.23651 0.5991C1.87185 0.982697 1.66699 1.50297 1.66699 2.04545V5.5H2.96329V2.04545C2.96329 1.86462 3.03158 1.6912 3.15313 1.56334C3.27468 1.43547 3.43954 1.36364 3.61144 1.36364H8.52815L12.0374 5.05515V5.5H12.6064C13.008 5.5 13.3337 5.17439 13.3337 4.77273C13.3337 4.5919 13.2654 4.41848 13.1438 4.29061L9.25493 0.1997C9.13338 0.0718342 8.96852 0 8.79662 0H3.61144Z" fill="url(#paint0_linear_177_30620)"/>
<path d="M13.3337 12.5H12.0374V12.9545C12.0374 13.1354 11.9691 13.3088 11.8475 13.4367C11.726 13.5645 11.5611 13.6364 11.3892 13.6364H3.61144C3.43954 13.6364 3.27468 13.5645 3.15313 13.4367C3.03158 13.3088 2.96329 13.1354 2.96329 12.9545V12.5H1.66699V12.9545C1.66699 13.497 1.87185 14.0173 2.23651 14.4009C2.60116 14.7845 3.09574 15 3.61144 15H11.3892C11.9049 15 12.3995 14.7845 12.7641 14.4009C13.1288 14.0173 13.3337 13.497 13.3337 12.9545V12.5Z" fill="url(#paint1_linear_177_30620)"/>
<path d="M3.9793 7.837C3.94663 7.80433 3.88596 7.76 3.7973 7.704C3.7133 7.648 3.6083 7.59433 3.4823 7.543C3.36096 7.49167 3.22796 7.44733 3.0833 7.41C2.93863 7.368 2.79163 7.347 2.6423 7.347C2.38096 7.347 2.18263 7.396 2.0473 7.494C1.91663 7.592 1.8513 7.72967 1.8513 7.907C1.8513 8.04233 1.8933 8.14967 1.9773 8.229C2.0613 8.30833 2.1873 8.376 2.3553 8.432C2.5233 8.488 2.7333 8.54867 2.9853 8.614C3.31196 8.69333 3.5943 8.79133 3.8323 8.908C4.07496 9.02 4.2593 9.16933 4.3853 9.356C4.51596 9.538 4.5813 9.78067 4.5813 10.084C4.5813 10.35 4.5323 10.5787 4.4343 10.77C4.3363 10.9567 4.20096 11.1083 4.0283 11.225C3.85563 11.3417 3.65963 11.428 3.4403 11.484C3.22096 11.5353 2.98763 11.561 2.7403 11.561C2.49296 11.561 2.24563 11.5353 1.9983 11.484C1.75096 11.4327 1.51296 11.3603 1.2843 11.267C1.05563 11.169 0.84563 11.0523 0.654297 10.917L1.0813 10.084C1.1233 10.126 1.19796 10.182 1.3053 10.252C1.41263 10.3173 1.5433 10.385 1.6973 10.455C1.8513 10.5203 2.0193 10.5763 2.2013 10.623C2.3833 10.6697 2.56763 10.693 2.7543 10.693C3.01563 10.693 3.21396 10.6487 3.3493 10.56C3.48463 10.4713 3.5523 10.3453 3.5523 10.182C3.5523 10.0327 3.49863 9.916 3.3913 9.832C3.28396 9.748 3.13463 9.67567 2.9433 9.615C2.75196 9.54967 2.52563 9.47967 2.2643 9.405C1.95163 9.31633 1.6903 9.21833 1.4803 9.111C1.2703 8.999 1.11396 8.859 1.0113 8.691C0.90863 8.523 0.857297 8.313 0.857297 8.061C0.857297 7.72033 0.93663 7.43567 1.0953 7.207C1.25863 6.97367 1.47796 6.79867 1.7533 6.682C2.02863 6.56067 2.3343 6.5 2.6703 6.5C2.90363 6.5 3.12296 6.52567 3.3283 6.577C3.5383 6.62833 3.7343 6.696 3.9163 6.78C4.0983 6.864 4.26163 6.955 4.4063 7.053L3.9793 7.837Z" fill="url(#paint2_linear_177_30620)"/>
<path d="M5.70605 6.535L7.05006 10.357L8.38005 6.535H9.39505L7.51205 11.505H6.58105L4.69105 6.535H5.70605Z" fill="url(#paint3_linear_177_30620)"/>
<path d="M11.7991 11.54C11.4771 11.54 11.1715 11.4747 10.8821 11.344C10.5975 11.2133 10.3455 11.0337 10.1261 10.805C9.91145 10.5717 9.74345 10.301 9.62212 9.993C9.50078 9.685 9.44012 9.35133 9.44012 8.992C9.44012 8.65133 9.50078 8.33167 9.62212 8.033C9.74345 7.72967 9.91378 7.46367 10.1331 7.235C10.3525 7.00633 10.6091 6.82667 10.9031 6.696C11.1971 6.56533 11.5168 6.5 11.8621 6.5C12.3288 6.5 12.7278 6.60033 13.0591 6.801C13.3951 6.997 13.6471 7.25833 13.8151 7.585L13.0941 8.117C12.9681 7.86967 12.7908 7.68067 12.5621 7.55C12.3381 7.41933 12.0931 7.354 11.8271 7.354C11.6171 7.354 11.4258 7.39833 11.2531 7.487C11.0805 7.57567 10.9311 7.697 10.8051 7.851C10.6791 8.005 10.5811 8.18233 10.5111 8.383C10.4458 8.58367 10.4131 8.796 10.4131 9.02C10.4131 9.258 10.4481 9.47733 10.5181 9.678C10.5928 9.87867 10.6955 10.0537 10.8261 10.203C10.9615 10.3523 11.1178 10.4713 11.2951 10.56C11.4725 10.644 11.6685 10.686 11.8831 10.686C12.1351 10.686 12.3755 10.6207 12.6041 10.49C12.8375 10.3593 13.0545 10.168 13.2551 9.916V10.868C12.8398 11.316 12.3545 11.54 11.7991 11.54ZM13.1851 9.657H12.1841V8.95H13.9831V11.505H13.1851V9.657Z" fill="url(#paint4_linear_177_30620)"/>
<path fill-rule="evenodd" clip-rule="evenodd" d="M8.95834 0C9.30352 0 9.58334 0.326459 9.58334 0.729167V4.16667H12.7083C13.0535 4.16667 13.3333 4.49313 13.3333 4.89583C13.3333 5.29854 13.0535 5.625 12.7083 5.625H8.95834C8.61317 5.625 8.33334 5.29854 8.33334 4.89583V0.729167C8.33334 0.326459 8.61317 0 8.95834 0Z" fill="url(#paint5_linear_177_30620)"/>
<defs>
<linearGradient id="paint0_linear_177_30620" x1="7.50033" y1="0" x2="7.50033" y2="15" gradientUnits="userSpaceOnUse">
<stop stop-color="#10808C"/>
<stop offset="1" stop-color="#1DF7EF"/>
</linearGradient>
<linearGradient id="paint1_linear_177_30620" x1="7.50033" y1="0" x2="7.50033" y2="15" gradientUnits="userSpaceOnUse">
<stop stop-color="#10808C"/>
<stop offset="1" stop-color="#1DF7EF"/>
</linearGradient>
<linearGradient id="paint2_linear_177_30620" x1="7.31871" y1="6.5" x2="7.31871" y2="11.561" gradientUnits="userSpaceOnUse">
<stop stop-color="#FE5468"/>
<stop offset="1" stop-color="#FFDF27"/>
</linearGradient>
<linearGradient id="paint3_linear_177_30620" x1="7.31871" y1="6.5" x2="7.31871" y2="11.561" gradientUnits="userSpaceOnUse">
<stop stop-color="#FE5468"/>
<stop offset="1" stop-color="#FFDF27"/>
</linearGradient>
<linearGradient id="paint4_linear_177_30620" x1="7.31871" y1="6.5" x2="7.31871" y2="11.561" gradientUnits="userSpaceOnUse">
<stop stop-color="#FE5468"/>
<stop offset="1" stop-color="#FFDF27"/>
</linearGradient>
<linearGradient id="paint5_linear_177_30620" x1="10.8333" y1="0" x2="10.8333" y2="5.625" gradientUnits="userSpaceOnUse">
<stop stop-color="#FE5468"/>
<stop offset="1" stop-color="#FFDF27"/>
</linearGradient>
</defs>
</svg>
