<svg width="15" height="15" viewBox="0 0 15 15" fill="none" xmlns="http://www.w3.org/2000/svg">
<g clip-path="url(#clip0_6688_53816)">
<path fill-rule="evenodd" clip-rule="evenodd" d="M0.75 9C1.16421 9 1.5 9.33579 1.5 9.75V12.75C1.5 12.9489 1.57902 13.1397 1.71967 13.2803C1.86032 13.421 2.05109 13.5 2.25 13.5H12.75C12.9489 13.5 13.1397 13.421 13.2803 13.2803C13.421 13.1397 13.5 12.9489 13.5 12.75V9.75C13.5 9.33579 13.8358 9 14.25 9C14.6642 9 15 9.33579 15 9.75V12.75C15 13.3467 14.7629 13.919 14.341 14.341C13.919 14.7629 13.3467 15 12.75 15H2.25C1.65326 15 1.08097 14.7629 0.65901 14.341C0.237053 13.919 0 13.3467 0 12.75V9.75C0 9.33579 0.335786 9 0.75 9Z" fill="url(#paint0_linear_6688_53816)"/>
<path d="M8.00022 0.49963C8.00022 0.223681 7.77652 3.30703e-05 7.50058 3.6689e-09C7.22435 -3.30884e-05 7.00022 0.223796 7.00022 0.500018V9.36697C6.88722 9.30186 6.78455 9.21282 6.69983 9.09986L3.69983 5.09986C3.53415 4.87895 3.22075 4.83418 2.99983 4.99986C2.77892 5.16555 2.73415 5.47895 2.89983 5.69986L6.69983 10.7665C7.09983 11.2999 7.89983 11.2999 8.29983 10.7665L12.0998 5.69986C12.2655 5.47895 12.2207 5.16555 11.9998 4.99986C11.7789 4.83418 11.4655 4.87895 11.2998 5.09986L8.29983 9.09986C8.21531 9.21256 8.11292 9.30145 8.00022 9.36652V0.49963Z" fill="url(#paint1_linear_6688_53816)"/>
</g>
<defs>
<linearGradient id="paint0_linear_6688_53816" x1="7.5" y1="9" x2="9.75396" y2="16.9221" gradientUnits="userSpaceOnUse">
<stop stop-color="#FE5468"/>
<stop offset="1" stop-color="#FFDF27"/>
</linearGradient>
<linearGradient id="paint1_linear_6688_53816" x1="7.49983" y1="0" x2="7.49983" y2="11.1665" gradientUnits="userSpaceOnUse">
<stop stop-color="#10808C"/>
<stop offset="1" stop-color="#1DF7EF"/>
</linearGradient>
<clipPath id="clip0_6688_53816">
<rect width="15" height="15" fill="white"/>
</clipPath>
</defs>
</svg>
