<svg width="15" height="15" viewBox="0 0 15 15" fill="none" xmlns="http://www.w3.org/2000/svg">
<g clip-path="url(#clip0_177_30151)">
<path d="M7.03607 9.8997C6.8081 10.1886 6.79639 10.6104 7.0566 10.8706C7.30666 11.1207 7.71403 11.1273 7.94101 10.8561C8.3029 10.4237 8.60019 9.93972 8.82253 9.41909C9.12835 8.70294 9.28602 7.9323 9.28602 7.15358C9.28602 6.37487 9.12836 5.60423 8.82254 4.88809C8.60021 4.36746 8.30291 3.88347 7.94103 3.45111C7.71404 3.17991 7.30668 3.18652 7.05661 3.43659C6.7964 3.69679 6.80812 4.11861 7.03608 4.40748C7.2721 4.70656 7.46917 5.03555 7.62177 5.38668C7.86409 5.94423 7.98913 6.54566 7.98913 7.15359C7.98913 7.76152 7.86408 8.36295 7.62176 8.9205C7.46916 9.27163 7.27209 9.60063 7.03607 9.8997Z" fill="url(#paint0_linear_177_30151)"/>
<path d="M5.19163 5.30154C4.93592 5.55724 4.94763 5.96527 5.15042 6.26469C5.56032 6.86991 5.56032 7.43711 5.15041 8.04234C4.94763 8.34175 4.93592 8.74978 5.19162 9.00549C5.44733 9.26119 5.86774 9.26423 6.08782 8.97729C7.00106 7.78659 7.00106 6.52043 6.08783 5.32973C5.86775 5.04279 5.44733 5.04583 5.19163 5.30154Z" fill="url(#paint1_linear_177_30151)"/>
<path d="M14.9998 7.64842L10.3798 0L8.64821 2.86679C9.06602 3.36684 9.40937 3.92632 9.66633 4.52804C10.0208 5.35812 10.2036 6.25139 10.2036 7.154C10.2036 7.86818 10.0891 8.57651 9.86577 9.25232L10.5 9.5L14.9998 7.64842Z" fill="url(#paint2_linear_177_30151)"/>
<path d="M8.12866 11.8442C8.31735 11.7572 8.49362 11.6259 8.64454 11.4456C8.87129 11.1747 9.07617 10.8863 9.25726 10.5831L10.38 11.2441L15.0001 8.52434L10.38 14.9996L8.12866 11.8442Z" fill="url(#paint3_linear_177_30151)"/>
<path d="M5.15557 3.98202C5.15557 4.3765 4.8358 4.69629 4.44132 4.6963L2.8889 4.69633C2.67344 4.69634 2.46607 4.79141 2.34597 4.97027C1.48673 6.24986 1.48673 7.93504 2.34598 9.21464C2.4661 9.39352 2.67349 9.4886 2.88896 9.48859L4.44133 9.48855C4.83583 9.48854 5.15563 9.80834 5.15564 10.2028L5.15565 11.4692C5.15566 11.8637 4.83588 12.1835 4.4414 12.1835L2.67067 12.1836C2.5935 12.1836 2.5182 12.1588 2.4573 12.1114C2.25038 11.9504 2.05113 11.7747 1.86098 11.5846C-0.620281 9.10333 -0.62035 5.08037 1.86091 2.59911C2.05116 2.40886 2.25052 2.23323 2.45751 2.07214C2.51841 2.02475 2.59371 2.00001 2.67088 2.00001L4.44126 2C4.83575 2 5.15555 2.31979 5.15555 2.71428L5.15557 3.98202Z" fill="url(#paint4_linear_177_30151)"/>
</g>
<defs>
<linearGradient id="paint0_linear_177_30151" x1="9.56995" y1="5.07679" x2="5.41637" y2="9.23037" gradientUnits="userSpaceOnUse">
<stop stop-color="#FE5468"/>
<stop offset="1" stop-color="#FFDF27"/>
</linearGradient>
<linearGradient id="paint1_linear_177_30151" x1="9.56995" y1="5.07679" x2="5.41637" y2="9.23037" gradientUnits="userSpaceOnUse">
<stop stop-color="#FE5468"/>
<stop offset="1" stop-color="#FFDF27"/>
</linearGradient>
<linearGradient id="paint2_linear_177_30151" x1="11.5644" y1="0" x2="11.5644" y2="14.9996" gradientUnits="userSpaceOnUse">
<stop stop-color="#10808C"/>
<stop offset="1" stop-color="#1DF7EF"/>
</linearGradient>
<linearGradient id="paint3_linear_177_30151" x1="11.5644" y1="0" x2="11.5644" y2="14.9996" gradientUnits="userSpaceOnUse">
<stop stop-color="#10808C"/>
<stop offset="1" stop-color="#1DF7EF"/>
</linearGradient>
<linearGradient id="paint4_linear_177_30151" x1="2.57783" y1="2" x2="2.57783" y2="12.1836" gradientUnits="userSpaceOnUse">
<stop stop-color="#10808C"/>
<stop offset="1" stop-color="#1DF7EF"/>
</linearGradient>
<clipPath id="clip0_177_30151">
<rect width="15" height="15" fill="white"/>
</clipPath>
</defs>
</svg>
