<svg width="15" height="15" viewBox="0 0 15 15" fill="none" xmlns="http://www.w3.org/2000/svg">
<g clip-path="url(#clip0_22492_2136)">
<path d="M13.9148 0C14.823 0 15.3157 1.04198 14.7756 1.74067L14.7198 1.8075L9.74862 7.33068C9.71232 7.37101 9.69266 7.42362 9.69321 7.47788L9.74228 12.0874L9.74016 12.1893C9.71323 12.6633 9.46521 13.0975 9.07097 13.3619L8.98468 13.4161L6.60147 14.7917C5.90514 15.1936 5.03958 14.7233 4.98051 13.9389L4.97713 13.8623L4.92721 7.46181C4.9269 7.42431 4.91694 7.38778 4.89845 7.35563L4.8773 7.32518L0.253008 1.7762C-0.334714 1.07088 0.166955 0 1.08506 0H13.9148ZM5.87559 6.49313L5.95469 6.59719C6.12894 6.84734 6.22433 7.1452 6.22668 7.45208L6.27364 13.4804L8.33494 12.2904L8.35905 12.2744C8.40466 12.2391 8.43446 12.1869 8.44154 12.1297L8.44323 12.1009L8.39374 7.49142C8.38979 7.11148 8.52872 6.74382 8.7829 6.4614L13.4288 1.29947H1.5474L5.87559 6.49313Z" fill="url(#paint0_linear_22492_2136)"/>
<path d="M3.55761 2.03703C4.03649 1.8374 4.18161 2.70832 5.625 3.54176C7.0684 4.37519 7.5 3.94244 7.5 4.79176C7.5 6.02578 5.33898 4.68913 5.31018 4.6725C4.58538 4.25404 4.0951 3.7399 3.78533 3.32866C3.19396 2.54361 3.22805 2.17443 3.55761 2.03703Z" fill="url(#paint1_linear_22492_2136)"/>
</g>
<defs>
<linearGradient id="paint0_linear_22492_2136" x1="7.5" y1="0" x2="7.5" y2="14.9383" gradientUnits="userSpaceOnUse">
<stop stop-color="#FE5468"/>
<stop offset="1" stop-color="#FFDF27"/>
</linearGradient>
<linearGradient id="paint1_linear_22492_2136" x1="4.91299" y1="1.66994" x2="5.97023" y2="5.61563" gradientUnits="userSpaceOnUse">
<stop stop-color="#10808C"/>
<stop offset="1" stop-color="#1DF7EF"/>
</linearGradient>
<clipPath id="clip0_22492_2136">
<rect width="15" height="15" fill="white"/>
</clipPath>
</defs>
</svg>
