<svg width="15" height="15" viewBox="0 0 15 15" fill="none" xmlns="http://www.w3.org/2000/svg">
<path fill-rule="evenodd" clip-rule="evenodd" d="M0.762743 9.55088C1.25112 9.03809 1.9135 8.75 2.60417 8.75H6.77083C7.4615 8.75 8.12388 9.03809 8.61226 9.55088C9.10063 10.0637 9.375 10.7592 9.375 11.4844V12.5781C9.375 12.8802 9.14181 13.125 8.85417 13.125C8.56652 13.125 8.33333 12.8802 8.33333 12.5781V11.4844C8.33333 11.0493 8.16871 10.632 7.87569 10.3243C7.58266 10.0166 7.18523 9.84375 6.77083 9.84375H2.60417C2.18977 9.84375 1.79234 10.0166 1.49931 10.3243C1.20629 10.632 1.04167 11.0493 1.04167 11.4844V12.5781C1.04167 12.8802 0.808482 13.125 0.520833 13.125C0.233185 13.125 0 12.8802 0 12.5781V11.4844C0 10.7592 0.274367 10.0637 0.762743 9.55088Z" fill="url(#paint0_linear_7416_31947)"/>
<path fill-rule="evenodd" clip-rule="evenodd" d="M4.6875 3.625C3.75552 3.625 3 4.38052 3 5.3125C3 6.24448 3.75552 7 4.6875 7C5.61948 7 6.375 6.24448 6.375 5.3125C6.375 4.38052 5.61948 3.625 4.6875 3.625ZM1.875 5.3125C1.875 3.7592 3.1342 2.5 4.6875 2.5C6.2408 2.5 7.5 3.7592 7.5 5.3125C7.5 6.8658 6.2408 8.125 4.6875 8.125C3.1342 8.125 1.875 6.8658 1.875 5.3125Z" fill="url(#paint1_linear_7416_31947)"/>
<path fill-rule="evenodd" clip-rule="evenodd" d="M6.38774 9.55088C6.87612 9.03809 7.5385 8.75 8.22917 8.75H12.3958C13.0865 8.75 13.7489 9.03809 14.2373 9.55088C14.7256 10.0637 15 10.7592 15 11.4844V12.5781C15 12.8802 14.7668 13.125 14.4792 13.125C14.1915 13.125 13.9583 12.8802 13.9583 12.5781V11.4844C13.9583 11.0493 13.7937 10.632 13.5007 10.3243C13.2077 10.0166 12.8102 9.84375 12.3958 9.84375H8.22917C7.81477 9.84375 7.41734 10.0166 7.12431 10.3243C6.83129 10.632 6.66667 11.0493 6.66667 11.4844V12.5781C6.66667 12.8802 6.43348 13.125 6.14583 13.125C5.85819 13.125 5.625 12.8802 5.625 12.5781V11.4844C5.625 10.7592 5.89937 10.0637 6.38774 9.55088Z" fill="url(#paint2_linear_7416_31947)"/>
<path fill-rule="evenodd" clip-rule="evenodd" d="M10.3125 3.625C9.38052 3.625 8.625 4.38052 8.625 5.3125C8.625 6.24448 9.38052 7 10.3125 7C11.2445 7 12 6.24448 12 5.3125C12 4.38052 11.2445 3.625 10.3125 3.625ZM7.5 5.3125C7.5 3.7592 8.7592 2.5 10.3125 2.5C11.8658 2.5 13.125 3.7592 13.125 5.3125C13.125 6.8658 11.8658 8.125 10.3125 8.125C8.7592 8.125 7.5 6.8658 7.5 5.3125Z" fill="url(#paint3_linear_7416_31947)"/>
<defs>
<linearGradient id="paint0_linear_7416_31947" x1="4.6875" y1="8.75" x2="4.6875" y2="13.125" gradientUnits="userSpaceOnUse">
<stop stop-color="#10808C"/>
<stop offset="1" stop-color="#1DF7EF"/>
</linearGradient>
<linearGradient id="paint1_linear_7416_31947" x1="4.6875" y1="2.5" x2="4.6875" y2="8.125" gradientUnits="userSpaceOnUse">
<stop stop-color="#10808C"/>
<stop offset="1" stop-color="#1DF7EF"/>
</linearGradient>
<linearGradient id="paint2_linear_7416_31947" x1="10.3125" y1="8.75" x2="12.1794" y2="14.3744" gradientUnits="userSpaceOnUse">
<stop stop-color="#FE5468"/>
<stop offset="1" stop-color="#FFDF27"/>
</linearGradient>
<linearGradient id="paint3_linear_7416_31947" x1="10.3125" y1="2.5" x2="14.1044" y2="7.83102" gradientUnits="userSpaceOnUse">
<stop stop-color="#FE5468"/>
<stop offset="1" stop-color="#FFDF27"/>
</linearGradient>
</defs>
</svg>
