<svg width="24" height="24" viewBox="0 0 24 24" fill="none" xmlns="http://www.w3.org/2000/svg">
<g clip-path="url(#clip0_3218_88068)">
<path fill-rule="evenodd" clip-rule="evenodd" d="M0 18.1001C0 17.4373 0.53726 16.9001 1.2 16.9001H22.8001C23.4628 16.9001 24.0001 17.4373 24.0001 18.1001C24.0001 18.7628 23.4628 19.3001 22.8001 19.3001H1.2C0.53726 19.3001 0 18.7628 0 18.1001Z" fill="url(#paint0_linear_3218_88068)"/>
<path fill-rule="evenodd" clip-rule="evenodd" d="M0 11.9C0 11.2373 0.53726 10.7 1.2 10.7H22.8001C23.4628 10.7 24.0001 11.2373 24.0001 11.9C24.0001 12.5628 23.4628 13.1 22.8001 13.1H1.2C0.53726 13.1 0 12.5628 0 11.9Z" fill="url(#paint1_linear_3218_88068)"/>
<path fill-rule="evenodd" clip-rule="evenodd" d="M0 5.7C0 5.03726 0.53726 4.5 1.2 4.5H22.8001C23.4628 4.5 24.0001 5.03726 24.0001 5.7C24.0001 6.36275 23.4628 6.90001 22.8001 6.90001H1.2C0.53726 6.90001 0 6.36275 0 5.7Z" fill="url(#paint2_linear_3218_88068)"/>
</g>
<defs>
<linearGradient id="paint0_linear_3218_88068" x1="12" y1="16.9001" x2="12" y2="19.3001" gradientUnits="userSpaceOnUse">
<stop stop-color="#FE5468"/>
<stop offset="1" stop-color="#FFDF27"/>
</linearGradient>
<linearGradient id="paint1_linear_3218_88068" x1="12" y1="10.7" x2="12" y2="13.1" gradientUnits="userSpaceOnUse">
<stop stop-color="#10808C"/>
<stop offset="1" stop-color="#1DF7EF"/>
</linearGradient>
<linearGradient id="paint2_linear_3218_88068" x1="12" y1="4.5" x2="12" y2="6.90001" gradientUnits="userSpaceOnUse">
<stop stop-color="#FE5468"/>
<stop offset="1" stop-color="#FFDF27"/>
</linearGradient>
<clipPath id="clip0_3218_88068">
<rect width="24" height="24" fill="white"/>
</clipPath>
</defs>
</svg>
