<svg width="24" height="24" viewBox="0 0 24 24" fill="none" xmlns="http://www.w3.org/2000/svg">
<g clip-path="url(#clip0_3218_86208)">
<path d="M2.27832 0.778809H11.6064C12.0037 0.778884 12.3851 0.937323 12.666 1.21826L22.7812 11.3335C23.3664 11.9187 23.3664 12.8675 22.7812 13.4526L13.4521 22.7817C12.867 23.3668 11.9181 23.3669 11.333 22.7817L1.21875 12.6665C0.937745 12.3855 0.779297 12.0043 0.779297 11.6069V2.27783C0.779297 1.45029 1.45077 0.778809 2.27832 0.778809ZM3.11816 0.778809C1.82663 0.778809 0.779297 1.82614 0.779297 3.11768C0.77936 4.40916 1.82667 5.45654 3.11816 5.45654C4.40961 5.45648 5.45697 4.40912 5.45703 3.11768C5.45703 1.82618 4.40965 0.778872 3.11816 0.778809Z" fill="#1F2726" stroke="url(#paint0_linear_3218_86208)" stroke-width="1.55902"/>
<path d="M7.05571 10.4728C6.76713 10.2228 6.5932 9.90223 6.51078 9.50512C6.45675 9.24037 6.43404 8.91886 6.40929 8.56443C6.34481 7.6494 6.26534 6.5164 5.59099 5.58412C6.48717 5.91948 6.94991 6.65423 7.19013 7.51522C7.29798 7.90234 7.32114 8.23475 7.34316 8.55194C7.36905 8.92522 7.39357 9.27715 7.55273 9.67155C7.63856 9.88679 7.74596 10.0678 7.8697 10.226L7.05571 10.4728Z" fill="url(#paint1_radial_3218_86208)"/>
<path d="M8.44966 10.052C8.27688 9.74981 8.16676 9.41582 8.1 9.05162C8.04324 8.74873 8.0253 8.50011 8.00918 8.27691C7.95446 7.52559 7.9204 7.05922 6.50631 5.77183C6.63369 5.81792 6.75743 5.86129 6.87709 5.90284L6.87777 5.90306C7.92267 6.26862 8.6556 6.52474 8.9342 7.60438C9.07179 8.13796 9.09427 8.44925 9.11425 8.72444C9.1365 9.03414 9.1558 9.29866 9.33177 9.78296L8.44966 10.052Z" fill="url(#paint2_radial_3218_86208)"/>
<path d="M9.72995 8.34375C9.75879 8.68501 9.75901 9.1952 9.76423 9.22358L10.4004 6.97393C10.1014 6.7353 9.58645 6.61678 8.89257 6.41016C9.53536 6.95441 9.66229 7.54452 9.72995 8.34375Z" fill="url(#paint3_radial_3218_86208)"/>
<path d="M10.6564 7.25576C10.7896 7.46669 10.9352 8.03728 10.9649 8.37945C11.0585 9.46022 11.0519 9.96769 11.513 11.2735C11.3936 11.2017 11.2785 11.1366 11.1686 11.0744C10.6257 10.7671 10.1993 10.4856 10.0354 10.0392L10.6564 7.25576Z" fill="url(#paint4_radial_3218_86208)"/>
<path d="M10.7422 11.1515C10.2679 10.9188 9.88552 10.7099 9.57469 10.2728L8.7414 10.4485C9.26362 11.0266 10.141 11.434 11.6168 11.612C11.3775 11.4417 11.0133 11.2846 10.7422 11.1515Z" fill="url(#paint5_radial_3218_86208)"/>
<path d="M8.18605 10.57C8.37359 10.7403 8.95712 11.1027 9.30633 11.2539C8.66354 11.176 7.80187 10.9319 7.42383 10.7305L8.18605 10.57Z" fill="url(#paint6_radial_3218_86208)"/>
<path d="M16.8193 7.3119C16.0008 6.49337 13.7902 7.32711 11.5403 9.19145C11.5644 9.60787 11.6416 10.0774 11.857 10.668L12.1111 11.487C12.1563 11.6398 12.122 11.8039 12.0205 11.9227C11.9172 12.0433 11.7603 12.1021 11.6039 12.0791L11.1793 12.0169C10.3201 11.9125 9.66233 11.8069 9.08743 11.6675C7.2987 13.8717 6.51014 16.0153 7.31301 16.8182C8.28094 17.7861 11.197 16.4417 13.8211 13.8177C13.9477 13.691 14.0717 13.5634 14.1925 13.4353L13.4875 11.9601L13.483 11.9493C13.3556 11.652 13.421 11.3087 13.6451 11.0783L13.6467 11.0767L17.0554 7.68609C17.0048 7.56552 16.9085 7.40113 16.8193 7.3119Z" fill="url(#paint7_radial_3218_86208)"/>
<path d="M15.2645 12.4172L17.9281 9.75359L18.107 10.1655L15.4575 12.815L16.5503 15.0875L14.7634 13.3006L14.0087 11.7208C13.973 11.6384 13.991 11.5419 14.0543 11.4767L17.2839 8.2489L17.4556 8.65942L14.7602 11.3548L14.9232 11.6831L17.6091 8.99727L17.7734 9.41687L15.1121 12.0782L15.2645 12.4172Z" fill="url(#paint8_radial_3218_86208)"/>
<path d="M8.25293 17.4285C9.42703 17.9891 11.1965 18.2573 11.505 18.2466C12.5756 18.2146 14.7794 16.8659 16.1782 15.467L14.7162 14.005C12.2913 16.4299 9.61276 17.5377 8.25293 17.4285Z" fill="url(#paint9_radial_3218_86208)"/>
</g>
<defs>
<linearGradient id="paint0_linear_3218_86208" x1="12" y1="-0.000488281" x2="12" y2="24.0003" gradientUnits="userSpaceOnUse">
<stop stop-color="#10808C"/>
<stop offset="1" stop-color="#1DF7EF"/>
</linearGradient>
<radialGradient id="paint1_radial_3218_86208" cx="0" cy="0" r="1" gradientTransform="matrix(1.22751 3.9931 -3.61964 -0.802007 6.46742 6.85735)" gradientUnits="userSpaceOnUse">
<stop stop-color="#1DF7EF"/>
<stop offset="1" stop-color="#10808C"/>
</radialGradient>
<radialGradient id="paint2_radial_3218_86208" cx="0" cy="0" r="1" gradientTransform="matrix(1.33804 3.81919 -3.44791 -0.920064 7.7603 6.6414)" gradientUnits="userSpaceOnUse">
<stop stop-color="#1DF7EF"/>
<stop offset="1" stop-color="#10808C"/>
</radialGradient>
<radialGradient id="paint3_radial_3218_86208" cx="0" cy="0" r="1" gradientTransform="matrix(0.321559 2.45831 -2.2657 -0.0887373 9.66579 6.7816)" gradientUnits="userSpaceOnUse">
<stop stop-color="#1DF7EF"/>
<stop offset="1" stop-color="#10808C"/>
</radialGradient>
<radialGradient id="paint4_radial_3218_86208" cx="0" cy="0" r="1" gradientTransform="matrix(0.520605 3.15643 -2.89987 -0.214436 11.0789 8.34729)" gradientUnits="userSpaceOnUse">
<stop stop-color="#1DF7EF"/>
<stop offset="1" stop-color="#10808C"/>
</radialGradient>
<radialGradient id="paint5_radial_3218_86208" cx="0" cy="0" r="1" gradientTransform="matrix(0.887935 2.15879 -1.93761 -0.642841 10.0634 10.3811)" gradientUnits="userSpaceOnUse">
<stop stop-color="#1DF7EF"/>
<stop offset="1" stop-color="#10808C"/>
</radialGradient>
<radialGradient id="paint6_radial_3218_86208" cx="0" cy="0" r="1" gradientTransform="matrix(0.40427 1.41061 -1.28121 -0.255926 8.34934 10.5523)" gradientUnits="userSpaceOnUse">
<stop stop-color="#1DF7EF"/>
<stop offset="1" stop-color="#10808C"/>
</radialGradient>
<radialGradient id="paint7_radial_3218_86208" cx="0" cy="0" r="1" gradientTransform="matrix(-4.43351 9.64384 -9.37762 4.96467 14.4058 8.47135)" gradientUnits="userSpaceOnUse">
<stop stop-color="#FFDF27"/>
<stop offset="0.9999" stop-color="#FE5468"/>
</radialGradient>
<radialGradient id="paint8_radial_3218_86208" cx="0" cy="0" r="1" gradientTransform="matrix(-0.49996 5.1067 -4.80695 0.905226 17.52 9.90794)" gradientUnits="userSpaceOnUse">
<stop stop-color="#1DF7EF"/>
<stop offset="0.9999" stop-color="#10808C"/>
</radialGradient>
<radialGradient id="paint9_radial_3218_86208" cx="0" cy="0" r="1" gradientTransform="matrix(-1.4108 5.90964 -5.63427 1.82394 13.1936 14.3403)" gradientUnits="userSpaceOnUse">
<stop stop-color="#1DF7EF"/>
<stop offset="0.9999" stop-color="#10808C"/>
</radialGradient>
<clipPath id="clip0_3218_86208">
<rect width="24" height="24" fill="white"/>
</clipPath>
</defs>
</svg>
