<svg width="24" height="24" viewBox="0 0 24 24" fill="none" xmlns="http://www.w3.org/2000/svg">
<path fill-rule="evenodd" clip-rule="evenodd" d="M11.7061 2.89542C10.6642 1.89523 9.25117 1.33333 7.77775 1.33333H1.11109C0.497442 1.33333 -1.90735e-05 1.81089 -1.90735e-05 2.39999V18.4C-1.90735e-05 18.9891 0.497442 19.4666 1.11109 19.4666H8.44441C9.03378 19.4666 9.59901 19.6914 10.0158 20.0915C10.4325 20.4916 10.6136 20.7675 10.6136 21.3333C10.6136 22 11.1111 22.6666 12 22.6666C12.8889 22.6666 13.3333 22 13.3333 21.3333V6.66665C13.3333 5.25217 12.748 3.89561 11.7061 2.89542ZM10.6666 17.9049C9.99674 17.5337 9.45356 17.3333 8.66664 17.3333H2.2222V3.46666H7.3333C8.21736 3.46666 9.0652 3.8038 9.69032 4.40391C10.3154 5.00403 10.6666 5.81796 10.6666 6.66665V17.9049Z" fill="url(#paint0_linear_3218_88328)"/>
<path fill-rule="evenodd" clip-rule="evenodd" d="M12.2939 2.89542C13.3357 1.89523 14.7488 1.33333 16.2222 1.33333H22.8889C23.5025 1.33333 24 1.81089 24 2.39999V18.4C24 18.9891 23.5025 19.4666 22.8889 19.4666H15.5556C14.9662 19.4666 14.401 19.6914 13.9842 20.0915C13.5675 20.4916 13.3864 20.7675 13.3864 21.3333C13.3864 22 12.8889 22.6666 12 22.6666C11.1111 22.6666 10.6667 22 10.6667 21.3333V6.66665C10.6667 5.25217 11.252 3.89561 12.2939 2.89542ZM13.3333 17.9049C14.0032 17.5337 14.5464 17.3333 15.3333 17.3333H21.7778V3.46666H16.6667C15.7826 3.46666 14.9348 3.8038 14.3096 4.40391C13.6845 5.00403 13.3333 5.81796 13.3333 6.66665V17.9049Z" fill="url(#paint1_linear_3218_88328)"/>
<defs>
<linearGradient id="paint0_linear_3218_88328" x1="6.66664" y1="1.33333" x2="6.66664" y2="22.6666" gradientUnits="userSpaceOnUse">
<stop stop-color="#10808C"/>
<stop offset="1" stop-color="#1DF7EF"/>
</linearGradient>
<linearGradient id="paint1_linear_3218_88328" x1="17.3333" y1="1.33333" x2="17.3333" y2="22.6666" gradientUnits="userSpaceOnUse">
<stop stop-color="#FE5468"/>
<stop offset="1" stop-color="#FFDF27"/>
</linearGradient>
</defs>
</svg>
