<svg width="24" height="24" viewBox="0 0 24 24" fill="none" xmlns="http://www.w3.org/2000/svg">
<path d="M12 0C10.1435 0 8.36304 0.762416 7.05029 2.11952C5.73755 3.47663 5.00005 5.31727 5.00005 7.23651C5.00005 10.7024 4.28299 14.2804 3.62217 15.5328C3.29038 16.1617 2.9673 16.5742 2.74287 16.8191C2.63039 16.9418 2.54201 17.0232 2.4888 17.0691C2.46217 17.092 2.44432 17.1061 2.43662 17.112L2.43376 17.1142C2.07528 17.3687 1.91664 17.8344 2.04299 18.2658C2.17068 18.7018 2.55941 19 3.00007 19H20.9999C21.4406 19 21.8293 18.7018 21.957 18.2658C22.0834 17.8344 21.9247 17.3687 21.5662 17.1142L21.5634 17.112C21.5557 17.1061 21.5378 17.092 21.5112 17.0691C21.458 17.0232 21.3696 16.9418 21.2571 16.8191C21.0327 16.5742 20.7096 16.1617 20.3778 15.5328C19.7315 14.3078 19.0313 10.858 19.001 7.46431C18.4152 7.80338 17.7355 7.99814 17.0104 7.99998C17.1057 11.5254 17.8394 15.0396 18.6221 16.5229C18.6982 16.6671 18.7745 16.8035 18.8506 16.9324H5.14938C5.22546 16.8035 5.30185 16.6671 5.37795 16.5229C6.21711 14.9324 7.00004 11.0071 7.00004 7.23651C7.00004 5.86562 7.52682 4.55088 8.46449 3.58152C9.40217 2.61216 10.6739 2.06757 12 2.06757C12.4751 2.06757 12.9433 2.13748 13.3916 2.27179C13.7154 1.59691 14.223 1.02694 14.8495 0.626701C13.9611 0.217414 12.9914 0 12 0Z" fill="url(#paint0_linear_3218_88179)"/>
<path d="M20 4C20 5.65685 18.6569 7 17 7C15.3431 7 14 5.65685 14 4C14 2.34315 15.3431 1 17 1C18.6569 1 20 2.34315 20 4Z" fill="#FE5468"/>
<path d="M8.92197 20C8.25839 20 7.78161 20.6889 8.10244 21.3105C8.939 22.9313 10.3723 24 12 24C13.6277 24 15.061 22.9313 15.8976 21.3105C16.2184 20.6889 15.7416 20 15.078 20C14.6848 20 14.339 20.2565 14.1205 20.6063C13.5524 21.5157 12.7228 22 12 22C11.2772 22 10.4476 21.5157 9.87953 20.6063C9.661 20.2565 9.3152 20 8.92197 20Z" fill="url(#paint1_linear_3218_88179)"/>
<defs>
<linearGradient id="paint0_linear_3218_88179" x1="12" y1="0" x2="12" y2="19" gradientUnits="userSpaceOnUse">
<stop stop-color="#FE5468"/>
<stop offset="1" stop-color="#FFDF27"/>
</linearGradient>
<linearGradient id="paint1_linear_3218_88179" x1="12" y1="20" x2="12" y2="24" gradientUnits="userSpaceOnUse">
<stop stop-color="#10808C"/>
<stop offset="1" stop-color="#1DF7EF"/>
</linearGradient>
</defs>
</svg>
