<svg width="16" height="16" viewBox="0 0 16 16" fill="none" xmlns="http://www.w3.org/2000/svg">
<path fill-rule="evenodd" clip-rule="evenodd" d="M1.26274 10.0509C1.75112 9.53809 2.4135 9.25 3.10417 9.25H7.27083C7.9615 9.25 8.62388 9.53809 9.11226 10.0509C9.60063 10.5637 9.875 11.2592 9.875 11.9844V13.0781C9.875 13.3802 9.64181 13.625 9.35417 13.625C9.06652 13.625 8.83333 13.3802 8.83333 13.0781V11.9844C8.83333 11.5493 8.66871 11.132 8.37569 10.8243C8.08266 10.5166 7.68523 10.3438 7.27083 10.3438H3.10417C2.68977 10.3438 2.29234 10.5166 1.99931 10.8243C1.70629 11.132 1.54167 11.5493 1.54167 11.9844V13.0781C1.54167 13.3802 1.30848 13.625 1.02083 13.625C0.733185 13.625 0.5 13.3802 0.5 13.0781V11.9844C0.5 11.2592 0.774367 10.5637 1.26274 10.0509Z" fill="url(#paint0_linear_7416_31947)"/>
<path fill-rule="evenodd" clip-rule="evenodd" d="M5.1875 4.125C4.25552 4.125 3.5 4.88052 3.5 5.8125C3.5 6.74448 4.25552 7.5 5.1875 7.5C6.11948 7.5 6.875 6.74448 6.875 5.8125C6.875 4.88052 6.11948 4.125 5.1875 4.125ZM2.375 5.8125C2.375 4.2592 3.6342 3 5.1875 3C6.7408 3 8 4.2592 8 5.8125C8 7.3658 6.7408 8.625 5.1875 8.625C3.6342 8.625 2.375 7.3658 2.375 5.8125Z" fill="url(#paint1_linear_7416_31947)"/>
<path fill-rule="evenodd" clip-rule="evenodd" d="M6.88774 10.0509C7.37612 9.53809 8.0385 9.25 8.72917 9.25H12.8958C13.5865 9.25 14.2489 9.53809 14.7373 10.0509C15.2256 10.5637 15.5 11.2592 15.5 11.9844V13.0781C15.5 13.3802 15.2668 13.625 14.9792 13.625C14.6915 13.625 14.4583 13.3802 14.4583 13.0781V11.9844C14.4583 11.5493 14.2937 11.132 14.0007 10.8243C13.7077 10.5166 13.3102 10.3438 12.8958 10.3438H8.72917C8.31477 10.3438 7.91734 10.5166 7.62431 10.8243C7.33129 11.132 7.16667 11.5493 7.16667 11.9844V13.0781C7.16667 13.3802 6.93348 13.625 6.64583 13.625C6.35819 13.625 6.125 13.3802 6.125 13.0781V11.9844C6.125 11.2592 6.39937 10.5637 6.88774 10.0509Z" fill="url(#paint2_linear_7416_31947)"/>
<path fill-rule="evenodd" clip-rule="evenodd" d="M10.8125 4.125C9.88052 4.125 9.125 4.88052 9.125 5.8125C9.125 6.74448 9.88052 7.5 10.8125 7.5C11.7445 7.5 12.5 6.74448 12.5 5.8125C12.5 4.88052 11.7445 4.125 10.8125 4.125ZM8 5.8125C8 4.2592 9.2592 3 10.8125 3C12.3658 3 13.625 4.2592 13.625 5.8125C13.625 7.3658 12.3658 8.625 10.8125 8.625C9.2592 8.625 8 7.3658 8 5.8125Z" fill="url(#paint3_linear_7416_31947)"/>
<defs>
<linearGradient id="paint0_linear_7416_31947" x1="5.1875" y1="9.25" x2="5.1875" y2="13.625" gradientUnits="userSpaceOnUse">
<stop stop-color="#10808C"/>
<stop offset="1" stop-color="#1DF7EF"/>
</linearGradient>
<linearGradient id="paint1_linear_7416_31947" x1="5.1875" y1="3" x2="5.1875" y2="8.625" gradientUnits="userSpaceOnUse">
<stop stop-color="#10808C"/>
<stop offset="1" stop-color="#1DF7EF"/>
</linearGradient>
<linearGradient id="paint2_linear_7416_31947" x1="10.8125" y1="9.25" x2="12.6794" y2="14.8744" gradientUnits="userSpaceOnUse">
<stop stop-color="#FE5468"/>
<stop offset="1" stop-color="#FFDF27"/>
</linearGradient>
<linearGradient id="paint3_linear_7416_31947" x1="10.8125" y1="3" x2="14.6044" y2="8.33102" gradientUnits="userSpaceOnUse">
<stop stop-color="#FE5468"/>
<stop offset="1" stop-color="#FFDF27"/>
</linearGradient>
</defs>
</svg>
