<svg width="15" height="15" viewBox="0 0 15 15" fill="none" xmlns="http://www.w3.org/2000/svg">
<path fill-rule="evenodd" clip-rule="evenodd" d="M9.9381 0.0400552C10.2391 -0.0228406 10.5489 -0.0115573 10.8456 0.0731385C11.1439 0.158316 11.4217 0.315645 11.6591 0.533899C11.8965 0.752153 12.0876 1.02595 12.2188 1.33576C12.35 1.64558 12.4181 1.98376 12.4182 2.32619V2.78823C13.4541 2.90352 14.2624 3.85928 14.2624 5.02126V6.66187C14.7033 6.94052 15 7.46134 15 8.05784V8.86363C15 9.46014 14.7033 9.98095 14.2624 10.2596V11.7553C14.2624 12.995 13.3424 14 12.2075 14H6.27002V12.8777H12.2075C12.7749 12.8777 13.2349 12.3752 13.2349 11.7553V10.4752H10.5741C9.75932 10.4752 9.09881 9.75367 9.09881 8.86363V8.05784C9.09881 7.1678 9.75932 6.44628 10.5741 6.44628L13.2349 6.44627V5.02126C13.2349 4.4014 12.7749 3.89892 12.2075 3.89892H7.80179V2.77657H11.4033V2.32655C11.4032 2.15021 11.3681 1.97588 11.3005 1.81633C11.2329 1.65673 11.1345 1.51568 11.0122 1.40325C10.8899 1.29082 10.7468 1.20977 10.5931 1.16589C10.4394 1.12201 10.2789 1.11638 10.123 1.1494L10.1133 1.15133L1.88717 2.73512C1.80347 2.75324 1.72259 2.7822 1.64602 2.82101C1.77816 2.79187 1.91488 2.77657 2.05488 2.77657H4.75189V3.89892H2.05488C1.48744 3.89892 1.02744 4.4014 1.02744 5.02126V5.2376H1.01498V5.64049H2.75999e-07V3.91309C-0.00024986 3.37139 0.16953 2.84639 0.480076 2.42892C0.790696 2.01134 1.22267 1.72735 1.70151 1.62592L1.71113 1.62399L9.9381 0.0400552ZM13.2349 7.25206H10.5741C10.1667 7.25206 9.83646 7.61282 9.83646 8.05784V8.86363C9.83646 9.30865 10.1667 9.66941 10.5741 9.66941H13.2349V7.25206Z" fill="url(#paint0_linear_11107_37442)"/>
<path fill-rule="evenodd" clip-rule="evenodd" d="M2.30476 9.78023C2.30476 10.3436 1.89201 10.8002 1.38286 10.8002V11.8202C1.89201 11.8202 2.30476 12.2769 2.30476 12.8402V13.8602C2.30476 14.4236 1.89201 14.8802 1.38286 14.8802V15.0002H0.921905V14.8802C0.412751 14.8802 0 14.4236 0 13.8602V12.8402C0 12.2769 0.412751 11.8202 0.921905 11.8202L0.921905 10.8002C0.412751 10.8002 0 10.3436 0 9.78023V8.76023C0 8.1969 0.412751 7.74023 0.921905 7.74023H1.38286C1.89201 7.74023 2.30476 8.1969 2.30476 8.76023V9.78023ZM0.921905 8.25023H1.38286C1.63743 8.25023 1.84381 8.47857 1.84381 8.76023V9.78023C1.84381 10.0619 1.63743 10.2902 1.38286 10.2902V9.78023H0.921905L0.921905 10.2902C0.667328 10.2902 0.460952 10.0619 0.460952 9.78023V8.76023C0.460952 8.47857 0.667328 8.25023 0.921905 8.25023ZM1.38286 14.3702C1.63743 14.3702 1.84381 14.1419 1.84381 13.8602V12.8402C1.84381 12.5586 1.63743 12.3302 1.38286 12.3302V12.8402H0.921905V12.3302C0.667328 12.3302 0.460952 12.5586 0.460952 12.8402V13.8602C0.460952 14.1419 0.667328 14.3702 0.921905 14.3702L0.921905 13.8602H1.38286V14.3702Z" fill="url(#paint1_linear_11107_37442)"/>
<path fill-rule="evenodd" clip-rule="evenodd" d="M4.77021 15.0002C4.63178 14.6304 4.3024 14.3702 3.9181 14.3702V12.8402C4.42725 12.8402 4.84 12.3836 4.84 11.8202V10.8002C4.84 10.2369 4.42725 9.78023 3.9181 9.78023H3.45714C2.94799 9.78023 2.53524 10.2369 2.53524 10.8002V11.8202C2.53524 12.3836 2.94799 12.8402 3.45714 12.8402V14.3702C3.07284 14.3702 2.74346 14.6304 2.60503 15.0002H4.77021ZM3.9181 10.2902H3.45714C3.20257 10.2902 2.99619 10.5186 2.99619 10.8002V11.8202C2.99619 12.1019 3.20257 12.3302 3.45714 12.3302V11.8202H3.9181V12.3302C4.17267 12.3302 4.37905 12.1019 4.37905 11.8202V10.8002C4.37905 10.5186 4.17267 10.2902 3.9181 10.2902Z" fill="url(#paint2_linear_11107_37442)"/>
<path fill-rule="evenodd" clip-rule="evenodd" d="M5.59524 6.50058C5.59524 6.03502 5.93635 5.6576 6.35714 5.6576V4.81462C5.93635 4.81462 5.59524 4.43721 5.59524 3.97165L5.59524 3.12867C5.59524 2.66311 5.93635 2.2857 6.35714 2.2857V2.18652L6.73809 2.18652V2.2857C7.15888 2.2857 7.5 2.66311 7.5 3.12867L7.5 3.97165C7.5 4.43721 7.15888 4.81462 6.73809 4.81462L6.73809 5.6576C7.15888 5.6576 7.5 6.03502 7.5 6.50058V7.34355C7.5 7.80912 7.15888 8.18653 6.73809 8.18653H6.35714C5.93635 8.18653 5.59524 7.80912 5.59524 7.34355V6.50058ZM6.73809 7.76504H6.35714C6.14675 7.76504 5.97619 7.57633 5.97619 7.34355V6.50058C5.97619 6.2678 6.14675 6.07909 6.35714 6.07909V6.50058H6.73809L6.73809 6.07909C6.94849 6.07909 7.11905 6.2678 7.11905 6.50058L7.11905 7.34355C7.11905 7.57633 6.94849 7.76504 6.73809 7.76504ZM6.35714 2.70718C6.14675 2.70718 5.97619 2.89589 5.97619 3.12867L5.97619 3.97165C5.97619 4.20443 6.14675 4.39313 6.35714 4.39313V3.97165H6.73809V4.39313C6.94849 4.39313 7.11905 4.20443 7.11905 3.97165V3.12867C7.11905 2.89589 6.94849 2.70718 6.73809 2.70718L6.73809 3.12867L6.35714 3.12867V2.70718Z" fill="url(#paint3_linear_11107_37442)"/>
<path fill-rule="evenodd" clip-rule="evenodd" d="M3.55768 4.68662C3.67208 4.99226 3.9443 5.20728 4.2619 5.20728L4.2619 6.47174C3.84112 6.47174 3.5 6.84916 3.5 7.31472L3.5 8.15769C3.5 8.62326 3.84112 9.00067 4.2619 9.00067H4.64286C5.06365 9.00067 5.40476 8.62326 5.40476 8.15769L5.40476 7.31472C5.40476 6.84916 5.06365 6.47174 4.64286 6.47174L4.64286 5.20728C4.96046 5.20728 5.23268 4.99226 5.34709 4.68662H3.55768ZM4.2619 8.57918H4.64286C4.85325 8.57918 5.02381 8.39047 5.02381 8.15769L5.02381 7.31472C5.02381 7.08194 4.85325 6.89323 4.64286 6.89323V7.31472H4.2619L4.2619 6.89323C4.05151 6.89323 3.88095 7.08194 3.88095 7.31472L3.88095 8.15769C3.88095 8.39047 4.05151 8.57918 4.2619 8.57918Z" fill="url(#paint4_linear_11107_37442)"/>
<defs>
<linearGradient id="paint0_linear_11107_37442" x1="7.5" y1="0" x2="16.7071" y2="13.8689" gradientUnits="userSpaceOnUse">
<stop stop-color="#FE5468"/>
<stop offset="1" stop-color="#FFDF27"/>
</linearGradient>
<linearGradient id="paint1_linear_11107_37442" x1="2.42" y1="7.74023" x2="2.42" y2="15.0002" gradientUnits="userSpaceOnUse">
<stop stop-color="#10808C"/>
<stop offset="1" stop-color="#1DF7EF"/>
</linearGradient>
<linearGradient id="paint2_linear_11107_37442" x1="2.42" y1="7.74023" x2="2.42" y2="15.0002" gradientUnits="userSpaceOnUse">
<stop stop-color="#10808C"/>
<stop offset="1" stop-color="#1DF7EF"/>
</linearGradient>
<linearGradient id="paint3_linear_11107_37442" x1="5.5" y1="2.18652" x2="5.5" y2="9.00067" gradientUnits="userSpaceOnUse">
<stop stop-color="#10808C"/>
<stop offset="1" stop-color="#1DF7EF"/>
</linearGradient>
<linearGradient id="paint4_linear_11107_37442" x1="5.5" y1="2.18652" x2="5.5" y2="9.00067" gradientUnits="userSpaceOnUse">
<stop stop-color="#10808C"/>
<stop offset="1" stop-color="#1DF7EF"/>
</linearGradient>
</defs>
</svg>
