<svg width="24" height="24" viewBox="0 0 24 24" fill="none" xmlns="http://www.w3.org/2000/svg">
<path d="M5.87788 0C5.05416 0 4.26417 0.34422 3.68171 0.956936C3.09926 1.56965 2.77203 2.40067 2.77203 3.26718V8.7851H4.8426V3.26718C4.8426 2.97835 4.95167 2.70134 5.14582 2.4971C5.33997 2.29286 5.6033 2.17812 5.87788 2.17812H13.7313L19.3365 8.07454V8.7851H20.2454C20.887 8.7851 21.4071 8.265 21.4071 7.62343C21.4071 7.33459 21.298 7.05759 21.1039 6.85335L14.8922 0.318979C14.698 0.11474 14.4347 0 14.1601 0H5.87788Z" fill="url(#paint0_linear_3218_87604)"/>
<path d="M21.4071 19.9661H19.3365V20.6922C19.3365 20.981 19.2275 21.258 19.0333 21.4623C18.8391 21.6665 18.5758 21.7812 18.3012 21.7812H5.87788C5.6033 21.7812 5.33998 21.6665 5.14582 21.4623C4.95167 21.258 4.8426 20.981 4.8426 20.6922V19.9661H2.77203V20.6922C2.77203 21.5587 3.09926 22.3897 3.68171 23.0024C4.26417 23.6151 5.05416 23.9594 5.87788 23.9594H18.3012C19.125 23.9594 19.9149 23.6151 20.4974 23.0024C21.0799 22.3897 21.4071 21.5587 21.4071 20.6922V19.9661Z" fill="url(#paint1_linear_3218_87604)"/>
<path d="M6.46529 12.5183C6.41311 12.4661 6.31621 12.3953 6.17458 12.3058C6.04041 12.2164 5.87269 12.1307 5.67143 12.0487C5.47763 11.9667 5.26519 11.8959 5.03412 11.8362C4.80304 11.7691 4.56824 11.7356 4.32971 11.7356C3.91229 11.7356 3.59549 11.8139 3.37932 11.9704C3.17061 12.1269 3.06625 12.3468 3.06625 12.6301C3.06625 12.8462 3.13334 13.0177 3.26751 13.1444C3.40168 13.2711 3.60294 13.3792 3.87129 13.4687C4.13963 13.5581 4.47506 13.655 4.87758 13.7594C5.39936 13.8861 5.85033 14.0426 6.23049 14.229C6.61809 14.4079 6.91253 14.6464 7.11379 14.9446C7.3225 15.2353 7.42686 15.6229 7.42686 16.1074C7.42686 16.5323 7.34859 16.8975 7.19205 17.2031C7.03552 17.5013 6.81935 17.7435 6.54355 17.9299C6.26776 18.1162 5.95469 18.2541 5.60435 18.3436C5.25401 18.4256 4.88131 18.4666 4.48624 18.4666C4.09118 18.4666 3.69612 18.4256 3.30106 18.3436C2.90599 18.2616 2.52584 18.1461 2.16059 17.997C1.79534 17.8404 1.45991 17.6541 1.1543 17.4379L1.83634 16.1074C1.90343 16.1745 2.02269 16.2639 2.19413 16.3757C2.36558 16.4801 2.57429 16.5882 2.82027 16.7C3.06625 16.8043 3.3346 16.8938 3.62531 16.9683C3.91601 17.0429 4.21045 17.0801 4.50861 17.0801C4.92603 17.0801 5.24283 17.0093 5.45899 16.8677C5.67516 16.7261 5.78324 16.5248 5.78324 16.2639C5.78324 16.0254 5.69752 15.839 5.52608 15.7049C5.35464 15.5707 5.11611 15.4552 4.81049 15.3583C4.50488 15.2539 4.14336 15.1421 3.72593 15.0228C3.22652 14.8812 2.80909 14.7247 2.47366 14.5532C2.13823 14.3743 1.88852 14.1507 1.72453 13.8824C1.56054 13.614 1.47855 13.2786 1.47855 12.8761C1.47855 12.3319 1.60527 11.8772 1.8587 11.512C2.11959 11.1393 2.46993 10.8597 2.90972 10.6734C3.34951 10.4796 3.83774 10.3827 4.37443 10.3827C4.74714 10.3827 5.09747 10.4237 5.42545 10.5057C5.76088 10.5877 6.07395 10.6958 6.36466 10.8299C6.65537 10.9641 6.91626 11.1095 7.14733 11.266L6.46529 12.5183Z" fill="url(#paint2_linear_3218_87604)"/>
<path d="M9.22342 10.4386L11.3702 16.5434L13.4946 10.4386H15.1158L12.1081 18.3771H10.621L7.60217 10.4386H9.22342Z" fill="url(#paint3_linear_3218_87604)"/>
<path d="M18.9558 18.433C18.4415 18.433 17.9532 18.3287 17.4911 18.12C17.0364 17.9113 16.6339 17.6243 16.2835 17.259C15.9407 16.8863 15.6723 16.454 15.4785 15.962C15.2847 15.4701 15.1878 14.9371 15.1878 14.3631C15.1878 13.819 15.2847 13.3084 15.4785 12.8313C15.6723 12.3468 15.9444 11.9219 16.2947 11.5567C16.6451 11.1915 17.055 10.9045 17.5246 10.6958C17.9942 10.487 18.5048 10.3827 19.0564 10.3827C19.8018 10.3827 20.4392 10.543 20.9684 10.8635C21.5051 11.1765 21.9076 11.594 22.1759 12.1158L21.0243 12.9655C20.823 12.5704 20.5398 12.2686 20.1745 12.0598C19.8168 11.8511 19.4254 11.7468 19.0005 11.7468C18.6651 11.7468 18.3595 11.8176 18.0837 11.9592C17.8079 12.1008 17.5694 12.2946 17.3681 12.5406C17.1668 12.7866 17.0103 13.0699 16.8985 13.3904C16.7941 13.7109 16.742 14.0501 16.742 14.4079C16.742 14.788 16.7979 15.1384 16.9097 15.4589C17.0289 15.7794 17.1929 16.0589 17.4016 16.2975C17.6178 16.536 17.8675 16.7261 18.1508 16.8677C18.434 17.0019 18.7471 17.0689 19.09 17.0689C19.4925 17.0689 19.8764 16.9646 20.2416 16.7559C20.6143 16.5472 20.9609 16.2416 21.2815 15.839V17.3597C20.6181 18.0752 19.8428 18.433 18.9558 18.433ZM21.1697 15.4253H19.5708V14.2961H22.4443V18.3771H21.1697V15.4253Z" fill="url(#paint4_linear_3218_87604)"/>
<path fill-rule="evenodd" clip-rule="evenodd" d="M14.4173 0C14.9687 0 15.4156 0.52145 15.4156 1.16469V6.65538H20.4072C20.9585 6.65538 21.4055 7.17683 21.4055 7.82007C21.4055 8.46331 20.9585 8.98476 20.4072 8.98476H14.4173C13.866 8.98476 13.419 8.46331 13.419 7.82007V1.16469C13.419 0.52145 13.866 0 14.4173 0Z" fill="url(#paint5_linear_3218_87604)"/>
<defs>
<linearGradient id="paint0_linear_3218_87604" x1="12.0896" y1="0" x2="12.0896" y2="23.9594" gradientUnits="userSpaceOnUse">
<stop stop-color="#10808C"/>
<stop offset="1" stop-color="#1DF7EF"/>
</linearGradient>
<linearGradient id="paint1_linear_3218_87604" x1="12.0896" y1="0" x2="12.0896" y2="23.9594" gradientUnits="userSpaceOnUse">
<stop stop-color="#10808C"/>
<stop offset="1" stop-color="#1DF7EF"/>
</linearGradient>
<linearGradient id="paint2_linear_3218_87604" x1="11.7993" y1="10.3827" x2="11.7993" y2="18.4666" gradientUnits="userSpaceOnUse">
<stop stop-color="#FE5468"/>
<stop offset="1" stop-color="#FFDF27"/>
</linearGradient>
<linearGradient id="paint3_linear_3218_87604" x1="11.7993" y1="10.3827" x2="11.7993" y2="18.4666" gradientUnits="userSpaceOnUse">
<stop stop-color="#FE5468"/>
<stop offset="1" stop-color="#FFDF27"/>
</linearGradient>
<linearGradient id="paint4_linear_3218_87604" x1="11.7993" y1="10.3827" x2="11.7993" y2="18.4666" gradientUnits="userSpaceOnUse">
<stop stop-color="#FE5468"/>
<stop offset="1" stop-color="#FFDF27"/>
</linearGradient>
<linearGradient id="paint5_linear_3218_87604" x1="17.4123" y1="0" x2="17.4123" y2="8.98476" gradientUnits="userSpaceOnUse">
<stop stop-color="#FE5468"/>
<stop offset="1" stop-color="#FFDF27"/>
</linearGradient>
</defs>
</svg>
