<svg width="24" height="24" viewBox="0 0 24 24" fill="none" xmlns="http://www.w3.org/2000/svg">
<path fill-rule="evenodd" clip-rule="evenodd" d="M15.9005 0.0640863C16.382 -0.0365438 16.8777 -0.0184912 17.3524 0.117018C17.8297 0.253298 18.2742 0.505016 18.654 0.854212C19.0338 1.20341 19.3395 1.64147 19.5495 2.13715C19.7594 2.63284 19.8684 3.17391 19.8685 3.72178V4.46103C21.5259 4.64548 22.819 6.17465 22.819 8.03376V10.6587C23.5246 11.1045 23.9992 11.9378 23.9992 12.8921V14.1814C23.9992 15.1357 23.5246 15.969 22.819 16.4148V18.8079C22.819 20.7914 21.3471 22.3993 19.5313 22.3993H10.0317V20.6036H19.5313C20.4392 20.6036 21.1752 19.7996 21.1752 18.8079V16.7598H16.918C15.6144 16.7598 14.5576 15.6054 14.5576 14.1814V12.8921C14.5576 11.4681 15.6144 10.3137 16.918 10.3137H21.1752V8.03376C21.1752 7.04202 20.4392 6.23807 19.5313 6.23807H12.4825V4.44237H18.2446V3.72236C18.2445 3.44023 18.1884 3.1613 18.0803 2.90604C17.9721 2.65069 17.8146 2.42502 17.6189 2.24513C17.4233 2.06524 17.1943 1.93557 16.9484 1.86536C16.7025 1.79516 16.4456 1.78615 16.1962 1.83899L16.1808 1.84208L3.01937 4.37605C2.88547 4.40505 2.75606 4.45138 2.63355 4.51347C2.84496 4.46684 3.06371 4.44237 3.2877 4.44237H7.60278V6.23807H3.2877C2.37983 6.23807 1.64385 7.04202 1.64385 8.03376V8.37989H1.62391V9.0245H4.41584e-07V6.26074C-0.000399763 5.39405 0.271239 4.55409 0.768097 3.88615C1.26507 3.21805 1.95622 2.76367 2.72232 2.60139L2.73771 2.5983L15.9005 0.0640863ZM21.1752 11.6029H16.918C16.2662 11.6029 15.7378 12.1801 15.7378 12.8921V14.1814C15.7378 14.8934 16.2662 15.4706 16.918 15.4706H21.1752V11.6029Z" fill="url(#paint0_linear_3218_87783)"/>
<path fill-rule="evenodd" clip-rule="evenodd" d="M3.6875 15.6483C3.6875 16.5496 3.02712 17.2802 2.2125 17.2802V18.9122C3.02712 18.9122 3.6875 19.6428 3.6875 20.5441V22.1761C3.6875 23.0774 3.02712 23.808 2.2125 23.808V24H1.475V23.808C0.66038 23.808 0 23.0774 0 22.1761V20.5441C0 19.6428 0.66038 18.9122 1.475 18.9122L1.475 17.2802C0.66038 17.2802 0 16.5496 0 15.6483V14.0163C0 13.115 0.66038 12.3844 1.475 12.3844H2.2125C3.02712 12.3844 3.6875 13.115 3.6875 14.0163V15.6483ZM1.475 13.2003H2.2125C2.61981 13.2003 2.95 13.5657 2.95 14.0163V15.6483C2.95 16.0989 2.61981 16.4642 2.2125 16.4642V15.6483H1.475L1.475 16.4642C1.06769 16.4642 0.7375 16.0989 0.7375 15.6483V14.0163C0.7375 13.5657 1.06769 13.2003 1.475 13.2003ZM2.2125 22.992C2.61981 22.992 2.95 22.6267 2.95 22.1761V20.5441C2.95 20.0935 2.61981 19.7281 2.2125 19.7281V20.5441H1.475V19.7281C1.06769 19.7281 0.7375 20.0935 0.7375 20.5441V22.1761C0.7375 22.6267 1.06769 22.992 1.475 22.992L1.475 22.1761H2.2125V22.992Z" fill="url(#paint1_linear_3218_87783)"/>
<path fill-rule="evenodd" clip-rule="evenodd" d="M7.6321 24C7.41062 23.4083 6.88362 22.992 6.26875 22.992V20.5441C7.08337 20.5441 7.74375 19.8135 7.74375 18.9122V17.2802C7.74375 16.3789 7.08337 15.6483 6.26875 15.6483H5.53125C4.71663 15.6483 4.05625 16.3789 4.05625 17.2802V18.9122C4.05625 19.8135 4.71663 20.5441 5.53125 20.5441V22.992C4.91638 22.992 4.38939 23.4083 4.16791 24H7.6321ZM6.26875 16.4642H5.53125C5.12394 16.4642 4.79375 16.8296 4.79375 17.2802V18.9122C4.79375 19.3628 5.12394 19.7281 5.53125 19.7281V18.9122H6.26875V19.7281C6.67606 19.7281 7.00625 19.3628 7.00625 18.9122V17.2802C7.00625 16.8296 6.67606 16.4642 6.26875 16.4642Z" fill="url(#paint2_linear_3218_87783)"/>
<path fill-rule="evenodd" clip-rule="evenodd" d="M8.9517 10.4002C8.9517 9.65533 9.49747 9.05149 10.1707 9.05149V7.70276C9.49747 7.70276 8.9517 7.09892 8.9517 6.35404L8.9517 5.00532C8.9517 4.26045 9.49747 3.65661 10.1707 3.65661V3.49794L10.7802 3.49794V3.65661C11.4535 3.65661 11.9992 4.26045 11.9992 5.00532V6.35404C11.9992 7.09892 11.4535 7.70276 10.7802 7.70276V9.05149C11.4535 9.05149 11.9992 9.65533 11.9992 10.4002V11.7489C11.9992 12.4938 11.4535 13.0976 10.7802 13.0976H10.1707C9.49747 13.0976 8.9517 12.4938 8.9517 11.7489V10.4002ZM10.7802 12.4233H10.1707C9.83409 12.4233 9.56121 12.1214 9.56121 11.7489V10.4002C9.56121 10.0278 9.83409 9.72584 10.1707 9.72584V10.4002H10.7802V9.72584C11.1168 9.72584 11.3897 10.0278 11.3897 10.4002L11.3897 11.7489C11.3897 12.1214 11.1168 12.4233 10.7802 12.4233ZM10.1707 4.33097C9.83409 4.33097 9.56121 4.63289 9.56121 5.00532L9.56121 6.35404C9.56121 6.72648 9.83409 7.0284 10.1707 7.0284V6.35404H10.7802V7.0284C11.1168 7.0284 11.3897 6.72648 11.3897 6.35404V5.00532C11.3897 4.63289 11.1168 4.33097 10.7802 4.33097L10.7802 5.00532L10.1707 5.00532V4.33097Z" fill="url(#paint3_linear_3218_87783)"/>
<path fill-rule="evenodd" clip-rule="evenodd" d="M5.69171 7.49796C5.87475 7.98698 6.31028 8.33099 6.81844 8.33099L6.81844 10.3541C6.1452 10.3541 5.59943 10.9579 5.59943 11.7028L5.59943 13.0515C5.59943 13.7964 6.1452 14.4002 6.81844 14.4002H7.42794C8.10118 14.4002 8.64695 13.7964 8.64695 13.0515L8.64695 11.7028C8.64695 10.9579 8.10118 10.3541 7.42794 10.3541L7.42794 8.33099C7.9361 8.33099 8.37163 7.98698 8.55467 7.49796H5.69171ZM6.81844 13.7259H7.42794C7.76456 13.7259 8.03745 13.4239 8.03745 13.0515L8.03745 11.7028C8.03745 11.3303 7.76456 11.0284 7.42794 11.0284V11.7028H6.81844L6.81844 11.0284C6.48182 11.0284 6.20894 11.3303 6.20894 11.7028L6.20894 13.0515C6.20894 13.4239 6.48182 13.7259 6.81844 13.7259Z" fill="url(#paint4_linear_3218_87783)"/>
<defs>
<linearGradient id="paint0_linear_3218_87783" x1="11.9996" y1="0" x2="11.9996" y2="22.3993" gradientUnits="userSpaceOnUse">
<stop stop-color="#FE5468"/>
<stop offset="1" stop-color="#FFDF27"/>
</linearGradient>
<linearGradient id="paint1_linear_3218_87783" x1="3.87188" y1="12.3844" x2="3.87188" y2="24" gradientUnits="userSpaceOnUse">
<stop stop-color="#10808C"/>
<stop offset="1" stop-color="#1DF7EF"/>
</linearGradient>
<linearGradient id="paint2_linear_3218_87783" x1="3.87188" y1="12.3844" x2="3.87188" y2="24" gradientUnits="userSpaceOnUse">
<stop stop-color="#10808C"/>
<stop offset="1" stop-color="#1DF7EF"/>
</linearGradient>
<linearGradient id="paint3_linear_3218_87783" x1="8.79933" y1="3.49794" x2="8.79933" y2="14.4002" gradientUnits="userSpaceOnUse">
<stop stop-color="#10808C"/>
<stop offset="1" stop-color="#1DF7EF"/>
</linearGradient>
<linearGradient id="paint4_linear_3218_87783" x1="8.79933" y1="3.49794" x2="8.79933" y2="14.4002" gradientUnits="userSpaceOnUse">
<stop stop-color="#10808C"/>
<stop offset="1" stop-color="#1DF7EF"/>
</linearGradient>
</defs>
</svg>
