<svg width="24" height="24" viewBox="0 0 24 24" fill="none" xmlns="http://www.w3.org/2000/svg">
<g clip-path="url(#clip0_3218_86771)">
<path d="M2.28289 14.4H0C1.13454 19.8774 6.076 24 12 24C17.924 24 22.8655 19.8774 24 14.4H21.7171C20.6244 18.6623 16.6883 21.8182 12 21.8182C7.31172 21.8182 3.37558 18.6623 2.28289 14.4Z" fill="url(#paint0_linear_3218_86771)"/>
<path d="M0 9.6H2.28289C3.37558 5.3377 7.31172 2.18182 12 2.18182C16.6883 2.18182 20.6244 5.3377 21.7171 9.6H24C22.8655 4.12262 17.924 0 12 0C6.076 0 1.13454 4.12262 0 9.6Z" fill="url(#paint1_linear_3218_86771)"/>
<path fill-rule="evenodd" clip-rule="evenodd" d="M11.9642 3C11.5024 3 11.1281 3.37431 11.1281 3.83605V5.37058C10.5523 5.44547 10.0155 5.58757 9.51637 5.79563L9.51213 5.79739C8.74421 6.10518 8.1423 6.562 7.6953 7.16602L7.69337 7.16862C7.25822 7.74487 7.03066 8.47287 7.03066 9.37476C7.03066 10.0375 7.17314 10.5624 7.43615 10.9694C7.70255 11.3818 8.11693 11.74 8.70127 12.0352C9.30151 12.3251 10.0648 12.5944 10.9962 12.8406L10.9995 12.8414C11.0427 12.8533 11.0855 12.8652 11.1281 12.877V17.025C10.9603 16.9968 10.7927 16.9629 10.6252 16.9232L10.6233 16.9228C10.0672 16.7879 9.55101 16.6254 9.07538 16.4345L9.06429 16.4301C8.61163 16.2294 8.21821 16.0332 7.88554 15.8417L7.87674 15.8366C7.6675 15.7075 7.38789 15.7743 7.27075 15.9905L6.98141 16.5244C6.74094 16.9681 6.88544 17.5265 7.33552 17.7549C7.58017 17.879 7.83269 17.995 8.09312 18.1029C8.75471 18.3581 9.4439 18.5562 10.161 18.697C10.485 18.7594 10.8073 18.8079 11.1281 18.8426V20.5571C11.1281 21.0188 11.5024 21.3931 11.9642 21.3931C12.4259 21.3931 12.8002 21.0188 12.8002 20.5571V18.8971C13.3286 18.8726 13.8352 18.8065 14.3204 18.6992C14.955 18.5489 15.5097 18.3192 15.9884 18.0132C16.4565 17.7141 16.8207 17.3278 17.0854 16.8514C17.3452 16.3709 17.4823 15.784 17.4823 15.0782C17.4823 14.2722 17.299 13.6664 16.9662 13.2279L16.9602 13.2201C16.6268 12.7529 16.1306 12.3661 15.4505 12.0692L15.4436 12.0662C14.7602 11.7493 13.9418 11.4796 12.9849 11.2598L12.9801 11.2587C12.9193 11.2438 12.8594 11.2289 12.8002 11.2142V7.08259C13.0138 7.11377 13.2257 7.15815 13.4358 7.21564C13.8777 7.32371 14.2871 7.45264 14.6634 7.60309C15.05 7.75219 15.382 7.91158 15.6549 8.0832C15.8009 8.1705 15.9926 8.12491 16.0775 7.97749L16.3982 7.42048C16.6447 6.99245 16.5011 6.44322 16.0551 6.23109C15.94 6.17638 15.822 6.12259 15.7009 6.06973C15.1788 5.8418 14.6143 5.65723 14.0068 5.51675C13.6238 5.42619 13.2207 5.36458 12.8002 5.33312V3.83605C12.8002 3.37431 12.4259 3 11.9642 3ZM12.8002 17.1164V13.3687C12.8722 13.3914 12.9429 13.414 13.0121 13.4363C13.6142 13.6129 14.106 13.8304 14.4688 14.099C14.8796 14.403 15.0842 14.8346 15.0842 15.3545C15.0842 15.935 14.819 16.3958 14.3209 16.7044C13.9277 16.9481 13.4123 17.0771 12.8002 17.1164ZM11.1281 7.09993V10.7543C11.1124 10.7494 11.0969 10.7445 11.0814 10.7397C10.5583 10.5747 10.1326 10.3658 9.83255 10.0978C9.50108 9.80168 9.34538 9.40296 9.34538 8.94059C9.34538 8.33827 9.58783 7.84587 10.0705 7.50346L10.075 7.50028C10.3639 7.30235 10.7189 7.1726 11.1281 7.09993Z" fill="url(#paint2_linear_3218_86771)"/>
<rect y="11" width="5" height="2" fill="url(#paint3_linear_3218_86771)"/>
<rect x="19" y="11" width="5" height="2" fill="url(#paint4_linear_3218_86771)"/>
</g>
<defs>
<linearGradient id="paint0_linear_3218_86771" x1="12" y1="0" x2="12" y2="24" gradientUnits="userSpaceOnUse">
<stop stop-color="#FE5468"/>
<stop offset="1" stop-color="#FFDF27"/>
</linearGradient>
<linearGradient id="paint1_linear_3218_86771" x1="12" y1="0" x2="12" y2="24" gradientUnits="userSpaceOnUse">
<stop stop-color="#FE5468"/>
<stop offset="1" stop-color="#FFDF27"/>
</linearGradient>
<linearGradient id="paint2_linear_3218_86771" x1="12.1743" y1="3" x2="12.1743" y2="21.3931" gradientUnits="userSpaceOnUse">
<stop stop-color="#10808C"/>
<stop offset="1" stop-color="#1DF7EF"/>
</linearGradient>
<linearGradient id="paint3_linear_3218_86771" x1="2.5" y1="11" x2="2.5" y2="13" gradientUnits="userSpaceOnUse">
<stop stop-color="#10808C"/>
<stop offset="1" stop-color="#1DF7EF"/>
</linearGradient>
<linearGradient id="paint4_linear_3218_86771" x1="21.5" y1="11" x2="21.5" y2="13" gradientUnits="userSpaceOnUse">
<stop stop-color="#10808C"/>
<stop offset="1" stop-color="#1DF7EF"/>
</linearGradient>
<clipPath id="clip0_3218_86771">
<rect width="24" height="24" fill="white"/>
</clipPath>
</defs>
</svg>
