<svg width="15" height="15" viewBox="0 0 15 15" fill="none" xmlns="http://www.w3.org/2000/svg">
<path fill-rule="evenodd" clip-rule="evenodd" d="M4.12449 1.86301C4.31259 1.53031 4.72952 1.41614 5.05571 1.60799L10.9085 4.95239C11.2347 5.14424 11.3466 5.56947 11.1585 5.90216C10.9704 6.23486 10.5535 6.34903 10.2273 6.15718L4.37452 2.81278C4.04832 2.62093 3.93638 2.1957 4.12449 1.86301Z" fill="url(#paint0_linear_7416_31900)"/>
<path fill-rule="evenodd" clip-rule="evenodd" d="M6.47022 0.273247C6.7834 0.0942345 7.13852 0 7.5 0C7.86149 0 8.21663 0.0942423 8.52981 0.273269C8.53029 0.273543 8.53077 0.273816 8.53125 0.27409L13.3438 3.00187C13.657 3.18125 13.9171 3.43918 14.0981 3.74979C14.2792 4.0604 14.3746 4.41276 14.375 4.77152V10.2285C14.3746 10.5872 14.2792 10.9396 14.0981 11.2502C13.9171 11.5608 13.657 11.8187 13.3438 11.9981L13.3411 11.9996L8.53125 14.7259C8.53084 14.7261 8.53043 14.7264 8.53001 14.7266C8.21678 14.9057 7.86157 15 7.5 15C7.13844 15 6.78325 14.9057 6.47002 14.7266C6.4696 14.7264 6.46917 14.7262 6.46875 14.7259L1.6589 11.9996L1.65625 11.9981C1.34302 11.8187 1.08285 11.5608 0.901851 11.2502C0.720847 10.9396 0.625371 10.5872 0.625 10.2285V4.77152C0.625371 4.41276 0.720847 4.0604 0.901851 3.74979C1.08285 3.43918 1.34302 3.18125 1.65625 3.00187L1.6589 3.00035L6.47022 0.273247ZM7.5 1.36389C7.37932 1.36389 7.26076 1.3954 7.15625 1.45525L7.1536 1.45677L2.34375 4.18304C2.34339 4.18324 2.34303 4.18345 2.34267 4.18366C2.23874 4.24342 2.15241 4.32916 2.09228 4.43234C2.032 4.53579 2.00018 4.65314 2 4.77262V10.2274C2.00018 10.3469 2.032 10.4642 2.09228 10.5677C2.15241 10.6708 2.23874 10.7566 2.34267 10.8163C2.34303 10.8166 2.34339 10.8168 2.34375 10.817L7.15625 13.5447C7.26076 13.6046 7.37932 13.6361 7.5 13.6361C7.62068 13.6361 7.73924 13.6046 7.84375 13.5447L7.8464 13.5432L12.6562 10.817C12.6566 10.8168 12.657 10.8165 12.6573 10.8163C12.7613 10.7566 12.8476 10.6708 12.9077 10.5677C12.9681 10.4641 12.9999 10.3467 13 10.2271V4.77292C12.9999 4.65333 12.9681 4.53588 12.9077 4.43234C12.8476 4.32917 12.7613 4.24343 12.6573 4.18366C12.657 4.18345 12.6566 4.18324 12.6562 4.18304L7.84375 1.45526C7.73923 1.39541 7.62068 1.36389 7.5 1.36389Z" fill="url(#paint1_linear_7416_31900)"/>
<path fill-rule="evenodd" clip-rule="evenodd" d="M0.93797 3.7502C1.13337 3.41116 1.56559 3.2953 1.90337 3.49143L7.50019 6.59669L13.0971 3.49166C13.4349 3.29554 13.8671 3.41139 14.0625 3.75044C14.2579 4.08948 14.1425 4.52332 13.8047 4.71944L7.85399 8.02989C7.63511 8.15697 7.36527 8.15697 7.1464 8.02989L1.19578 4.71921C0.858003 4.52308 0.742575 4.08925 0.93797 3.7502Z" fill="url(#paint2_linear_7416_31900)"/>
<path fill-rule="evenodd" clip-rule="evenodd" d="M7.5 6.875C7.84518 6.875 8.125 7.17613 8.125 7.5476V14.3274C8.125 14.6989 7.84518 15 7.5 15C7.15482 15 6.875 14.6989 6.875 14.3274V7.5476C6.875 7.17613 7.15482 6.875 7.5 6.875Z" fill="url(#paint3_linear_7416_31900)"/>
<defs>
<linearGradient id="paint0_linear_7416_31900" x1="7.64151" y1="1.51489" x2="10.2317" y2="7.06446" gradientUnits="userSpaceOnUse">
<stop stop-color="#FE5468"/>
<stop offset="1" stop-color="#FFDF27"/>
</linearGradient>
<linearGradient id="paint1_linear_7416_31900" x1="7.5" y1="0" x2="7.5" y2="15" gradientUnits="userSpaceOnUse">
<stop stop-color="#10808C"/>
<stop offset="1" stop-color="#1DF7EF"/>
</linearGradient>
<linearGradient id="paint2_linear_7416_31900" x1="7.50023" y1="3.396" x2="9.10316" y2="9.74069" gradientUnits="userSpaceOnUse">
<stop stop-color="#FE5468"/>
<stop offset="1" stop-color="#FFDF27"/>
</linearGradient>
<linearGradient id="paint3_linear_7416_31900" x1="7.5" y1="6.875" x2="9.89608" y2="7.39325" gradientUnits="userSpaceOnUse">
<stop stop-color="#FE5468"/>
<stop offset="1" stop-color="#FFDF27"/>
</linearGradient>
</defs>
</svg>
