<svg width="15" height="15" viewBox="0 0 15 15" fill="none" xmlns="http://www.w3.org/2000/svg">
<g clip-path="url(#clip0_177_29697)">
<path fill-rule="evenodd" clip-rule="evenodd" d="M11.6503 8.8877C13.2987 8.8877 14.8925 10.1295 14.8925 11.8416C14.8925 12.389 14.7497 12.8885 14.4639 13.3435C13.8483 14.2942 12.7693 14.816 11.6503 14.816C10.5313 14.816 9.46854 14.2965 8.83579 13.3627C8.55055 12.9081 8.40802 12.4091 8.40802 11.8622C8.40802 10.1458 9.98941 8.8877 11.6503 8.8877ZM11.6503 9.95457C11.3542 9.95457 11.0762 10.0487 10.8192 10.2299C10.2964 10.5897 10.0311 11.2205 10.0311 11.8416C10.0311 12.1935 10.1046 12.5143 10.2551 12.8003C10.5379 13.3376 11.0182 13.7492 11.6503 13.7492C11.9588 13.7492 12.239 13.6558 12.4858 13.4706C12.7261 13.2904 12.9132 13.0581 13.047 12.7768C13.1954 12.4936 13.2695 12.1879 13.2695 11.8622C13.2695 11.5114 13.1965 11.1916 13.047 10.9064C12.9123 10.6232 12.7166 10.3965 12.4609 10.2298C12.2167 10.048 11.9452 9.95457 11.6503 9.95457Z" fill="url(#paint0_linear_177_29697)"/>
<path fill-rule="evenodd" clip-rule="evenodd" d="M3.44227 0.115234C4.53643 0.115234 5.65398 0.657531 6.25647 1.58864C6.54156 2.02924 6.68453 2.52133 6.68453 3.0691C6.68453 3.61654 6.54171 4.116 6.2559 4.57104C5.64028 5.52175 4.5613 6.04357 3.44227 6.04357C2.32326 6.04357 1.26053 5.52409 0.627779 4.59027C0.342545 4.1356 0.200012 3.63659 0.200012 3.0897C0.200012 2.52799 0.343088 2.02963 0.627201 1.58998C1.25488 0.663052 2.3285 0.115234 3.44227 0.115234ZM3.44227 1.18211C3.14621 1.18211 2.86818 1.27619 2.61115 1.45741C2.08839 1.81728 1.82307 2.44808 1.82307 3.0691C1.82307 3.42107 1.89658 3.74187 2.04709 4.02783C2.32986 4.56509 2.81018 4.97669 3.44227 4.97669C3.75082 4.97669 4.03099 4.8833 4.27783 4.69817C4.51812 4.51796 4.70517 4.28567 4.83899 4.00431C4.98743 3.72114 5.06147 3.41547 5.06147 3.0897C5.06147 2.73892 4.98846 2.41912 4.83898 2.13389C4.70426 1.85077 4.50863 1.62403 4.25289 1.45738C4.00869 1.27553 3.73719 1.18211 3.44227 1.18211Z" fill="url(#paint1_linear_177_29697)"/>
<path d="M1.37384 13.8222L7.16227 7.045L12.5181 0L13.7747 1.11237L8.13045 7.78658L2.6098 14.9346L1.37384 13.8222Z" fill="url(#paint2_linear_177_29697)"/>
</g>
<defs>
<linearGradient id="paint0_linear_177_29697" x1="11.6503" y1="8.8877" x2="11.6503" y2="14.816" gradientUnits="userSpaceOnUse">
<stop stop-color="#FE5468"/>
<stop offset="1" stop-color="#FFDF27"/>
</linearGradient>
<linearGradient id="paint1_linear_177_29697" x1="3.44227" y1="0.115234" x2="3.44227" y2="6.04357" gradientUnits="userSpaceOnUse">
<stop stop-color="#FE5468"/>
<stop offset="1" stop-color="#FFDF27"/>
</linearGradient>
<linearGradient id="paint2_linear_177_29697" x1="7.57426" y1="0" x2="7.57426" y2="14.9346" gradientUnits="userSpaceOnUse">
<stop stop-color="#10808C"/>
<stop offset="1" stop-color="#1DF7EF"/>
</linearGradient>
<clipPath id="clip0_177_29697">
<rect width="15" height="15" fill="white"/>
</clipPath>
</defs>
</svg>
