<svg width="15" height="15" viewBox="0 0 15 15" fill="none" xmlns="http://www.w3.org/2000/svg">
<g clip-path="url(#clip0_177_29838)">
<path fill-rule="evenodd" clip-rule="evenodd" d="M7.5 2C7.22386 2 7 2.22386 7 2.5V3.41773C6.65564 3.46251 6.3346 3.5475 6.0361 3.67192L6.03356 3.67298C5.57431 3.85705 5.21433 4.13026 4.94701 4.49149L4.94586 4.49304C4.68561 4.83767 4.54952 5.27305 4.54952 5.81243C4.54952 6.20878 4.63473 6.52267 4.79202 6.76613C4.95135 7.01273 5.19917 7.22695 5.54863 7.4035C5.9076 7.57687 6.36407 7.73794 6.92113 7.88516L6.92309 7.88568C6.94891 7.89278 6.97454 7.89986 7 7.90692V10.3877C6.89966 10.3708 6.7994 10.3505 6.69922 10.3268L6.6981 10.3265C6.36553 10.2459 6.05681 10.1487 5.77237 10.0345L5.76573 10.0319C5.49502 9.91183 5.25974 9.79451 5.06078 9.67996L5.05552 9.67693C4.93038 9.59973 4.76316 9.63968 4.69311 9.76895L4.52007 10.0882C4.37626 10.3536 4.46267 10.6876 4.73184 10.8242C4.87816 10.8984 5.02917 10.9678 5.18492 11.0323C5.58059 11.1849 5.99276 11.3034 6.42162 11.3876C6.61538 11.4249 6.80816 11.4539 7 11.4747V12.5C7 12.7761 7.22386 13 7.5 13C7.77614 13 8 12.7761 8 12.5V11.5073C8.316 11.4926 8.61898 11.4531 8.90916 11.3889C9.28866 11.299 9.6204 11.1617 9.9067 10.9787C10.1867 10.7998 10.4045 10.5687 10.5627 10.2839C10.7181 9.9965 10.8001 9.64548 10.8001 9.22337C10.8001 8.74135 10.6905 8.37905 10.4915 8.11682L10.4879 8.11213C10.2885 7.83272 9.99172 7.60139 9.58501 7.42383L9.58088 7.42203C9.17216 7.23252 8.68273 7.07121 8.11045 6.93975L8.10759 6.9391C8.07125 6.93018 8.03538 6.92132 8 6.9125V4.44159C8.12774 4.46024 8.25445 4.48678 8.3801 4.52117C8.64437 4.58579 8.88925 4.6629 9.11427 4.75288C9.34549 4.84205 9.54407 4.93737 9.70724 5.04001C9.79456 5.09222 9.9092 5.06495 9.95997 4.97679L10.1518 4.64367C10.2992 4.38769 10.2133 4.05922 9.94657 3.93236C9.87777 3.89964 9.80716 3.86747 9.73474 3.83585C9.42251 3.69954 9.08493 3.58915 8.72158 3.50514C8.49257 3.45098 8.25149 3.41414 8 3.39532V2.5C8 2.22386 7.77614 2 7.5 2ZM8 10.4423V8.201C8.04307 8.21459 8.08532 8.22807 8.12675 8.24144C8.48682 8.34708 8.78095 8.47711 8.99793 8.63773C9.24355 8.81956 9.36592 9.07771 9.36592 9.38861C9.36592 9.73577 9.20731 10.0113 8.90942 10.1959C8.6743 10.3417 8.36606 10.4188 8 10.4423ZM7 4.45196V6.63746C6.99063 6.63454 6.98133 6.63162 6.97209 6.62871C6.65923 6.53006 6.40462 6.40513 6.22519 6.24484C6.02696 6.06775 5.93384 5.82929 5.93384 5.55277C5.93384 5.19256 6.07884 4.89807 6.36749 4.6933L6.37018 4.69139C6.54299 4.57302 6.75526 4.49543 7 4.45196Z" fill="url(#paint0_linear_177_29838)"/>
<rect y="7" width="3" height="1" fill="url(#paint1_linear_177_29838)"/>
<rect x="12" y="7" width="3" height="1" fill="url(#paint2_linear_177_29838)"/>
<path d="M1.17393 6H0.150391C0.845296 2.57664 3.87193 0 7.50036 0C11.1288 0 14.1554 2.57664 14.8503 6H13.8261C13.1489 3.1333 10.5736 1 7.5 1C4.42642 1 1.8511 3.1333 1.17393 6Z" fill="url(#paint3_linear_177_29838)"/>
<path d="M1.17393 9H0.150391C0.845296 12.4234 3.87193 15 7.50036 15C11.1288 15 14.1554 12.4234 14.8503 9H13.8261C13.1489 11.8667 10.5736 14 7.5 14C4.42642 14 1.8511 11.8667 1.17393 9Z" fill="url(#paint4_linear_177_29838)"/>
</g>
<defs>
<linearGradient id="paint0_linear_177_29838" x1="7.62566" y1="2" x2="7.62566" y2="13" gradientUnits="userSpaceOnUse">
<stop stop-color="#10808C"/>
<stop offset="1" stop-color="#1DF7EF"/>
</linearGradient>
<linearGradient id="paint1_linear_177_29838" x1="1.5" y1="7" x2="1.5" y2="8" gradientUnits="userSpaceOnUse">
<stop stop-color="#10808C"/>
<stop offset="1" stop-color="#1DF7EF"/>
</linearGradient>
<linearGradient id="paint2_linear_177_29838" x1="13.5" y1="7" x2="13.5" y2="8" gradientUnits="userSpaceOnUse">
<stop stop-color="#10808C"/>
<stop offset="1" stop-color="#1DF7EF"/>
</linearGradient>
<linearGradient id="paint3_linear_177_29838" x1="7.50036" y1="0" x2="7.50036" y2="15" gradientUnits="userSpaceOnUse">
<stop stop-color="#FE5468"/>
<stop offset="1" stop-color="#FFDF27"/>
</linearGradient>
<linearGradient id="paint4_linear_177_29838" x1="7.50036" y1="0" x2="7.50036" y2="15" gradientUnits="userSpaceOnUse">
<stop stop-color="#FE5468"/>
<stop offset="1" stop-color="#FFDF27"/>
</linearGradient>
<clipPath id="clip0_177_29838">
<rect width="15" height="15" fill="white"/>
</clipPath>
</defs>
</svg>
