<svg width="15" height="15" viewBox="0 0 15 15" fill="none" xmlns="http://www.w3.org/2000/svg">
<g clip-path="url(#clip0_6542_28742)">
<path fill-rule="evenodd" clip-rule="evenodd" d="M2.09982 4.82595L0.175736 2.91994C-0.0585785 2.68788 -0.0585785 2.31163 0.175736 2.07957L2.09982 0.174045C2.33414 -0.0580153 2.71404 -0.0580153 2.94835 0.174045C3.18266 0.406106 3.18266 0.78235 2.94835 1.01441L2.04853 1.90553L6.5 1.9055C6.77614 1.9055 7 2.12936 7 2.4055V2.59395C7 2.8701 6.77615 3.09395 6.5 3.09395L2.04853 3.09398L2.94835 3.98559C3.18266 4.21765 3.18266 4.59389 2.94835 4.82595C2.71404 5.05802 2.33414 5.05802 2.09982 4.82595Z" fill="url(#paint0_linear_6542_28742)"/>
<path fill-rule="evenodd" clip-rule="evenodd" d="M12.9002 10.174L14.8243 12.0801C15.0586 12.3121 15.0586 12.6884 14.8243 12.9204L12.9002 14.826C12.6659 15.058 12.286 15.058 12.0516 14.826C11.8173 14.5939 11.8173 14.2177 12.0516 13.9856L12.9515 13.0945L8.50001 13.0945C8.22386 13.0945 8 12.8707 8 12.5945V12.4061C8 12.1299 8.22385 11.9061 8.49999 11.9061L12.9515 11.906L12.0516 11.0144C11.8173 10.7823 11.8173 10.4061 12.0516 10.174C12.286 9.94198 12.6659 9.94198 12.9002 10.174Z" fill="url(#paint1_linear_6542_28742)"/>
<path fill-rule="evenodd" clip-rule="evenodd" d="M5.19313 5.85714C5.19313 5.6599 5.36533 5.5 5.57774 5.5H9.42391C9.63632 5.5 9.80852 5.6599 9.80852 5.85714C9.80852 6.05439 9.63632 6.21429 9.42391 6.21429H5.57774C5.36533 6.21429 5.19313 6.05439 5.19313 5.85714ZM5.57774 7.64286C5.57774 7.44561 5.74994 7.28571 5.96236 7.28571H9.03929C9.25171 7.28571 9.42391 7.44561 9.42391 7.64286C9.42391 7.8401 9.25171 8 9.03929 8H5.96236C5.74994 8 5.57774 7.8401 5.57774 7.64286ZM5 9.35714C5 9.1599 5.1722 9 5.38462 9H9.61539C9.8278 9 10 9.1599 10 9.35714C10 9.55439 9.8278 9.71429 9.61539 9.71429H5.38462C5.1722 9.71429 5 9.55439 5 9.35714Z" fill="url(#paint2_linear_6542_28742)"/>
<path d="M2.20703 6.00004C2.07217 6.47687 2 6.98003 2 7.50004C2 10.3691 4.19675 12.725 7 12.9776V11.9726C4.75002 11.7239 3 9.81632 3 7.50004C3 6.97409 3.09023 6.46921 3.25606 6.00004H2.20703Z" fill="url(#paint3_linear_6542_28742)"/>
<path d="M8 3.0275V2.02246C10.8033 2.27508 13 4.63102 13 7.50004C13 8.02005 12.9278 8.52321 12.793 9.00004H11.7439C11.9098 8.53087 12 8.02599 12 7.50004C12 5.18376 10.25 3.27623 8 3.0275Z" fill="url(#paint4_linear_6542_28742)"/>
</g>
<defs>
<linearGradient id="paint0_linear_6542_28742" x1="3.5" y1="5" x2="0.618248" y2="-0.672027" gradientUnits="userSpaceOnUse">
<stop stop-color="#FE5468"/>
<stop offset="1" stop-color="#FFDF27"/>
</linearGradient>
<linearGradient id="paint1_linear_6542_28742" x1="11.5" y1="10" x2="14.3818" y2="15.672" gradientUnits="userSpaceOnUse">
<stop stop-color="#FE5468"/>
<stop offset="1" stop-color="#FFDF27"/>
</linearGradient>
<linearGradient id="paint2_linear_6542_28742" x1="7.5" y1="5.5" x2="10.1526" y2="9.9245" gradientUnits="userSpaceOnUse">
<stop stop-color="#FE5468"/>
<stop offset="1" stop-color="#FFDF27"/>
</linearGradient>
<linearGradient id="paint3_linear_6542_28742" x1="7.5" y1="2.02246" x2="7.5" y2="12.9776" gradientUnits="userSpaceOnUse">
<stop stop-color="#10808C"/>
<stop offset="1" stop-color="#1DF7EF"/>
</linearGradient>
<linearGradient id="paint4_linear_6542_28742" x1="7.5" y1="2.02246" x2="7.5" y2="12.9776" gradientUnits="userSpaceOnUse">
<stop stop-color="#10808C"/>
<stop offset="1" stop-color="#1DF7EF"/>
</linearGradient>
<clipPath id="clip0_6542_28742">
<rect width="15" height="15" fill="white"/>
</clipPath>
</defs>
</svg>
