<svg width="15" height="15" viewBox="0 0 15 15" fill="none" xmlns="http://www.w3.org/2000/svg">
<g clip-path="url(#clip0_177_30401)">
<path d="M6.5625 0.9375C6.21745 0.9375 5.87848 1.01996 5.57953 1.17659L0.986905 3.56281L0.984375 3.56414C0.685384 3.7211 0.437043 3.94679 0.264267 4.21857C0.0914905 4.49035 0.000354113 4.79866 0 5.11258V9.88742C0.000354113 10.2013 0.0914906 10.5097 0.264267 10.7814C0.437043 11.0532 0.685383 11.2789 0.984375 11.4359L0.986908 11.4372L5.57812 13.8227L5.57934 13.8233C5.87833 13.98 6.21738 14.0625 6.5625 14.0625C6.90763 14.0625 7.2467 13.98 7.54569 13.8233L7.54687 13.8227L9.4398 12.8392C9.01858 12.6502 8.64446 12.3751 8.33989 12.0361L6.89316 12.7878L6.89062 12.7892C6.79086 12.8415 6.67769 12.8691 6.5625 12.8691C6.4473 12.8691 6.33414 12.8415 6.23438 12.7891L1.64062 10.4023L1.63959 10.4018C1.54039 10.3495 1.45798 10.2745 1.40059 10.1842C1.34304 10.0937 1.31267 9.991 1.3125 9.88645V5.11355C1.31267 5.009 1.34304 4.90632 1.40059 4.8158C1.45798 4.72552 1.54039 4.6505 1.63959 4.5982L1.64062 4.59766L6.23184 2.21218L6.23437 2.21085C6.33414 2.15848 6.4473 2.1309 6.5625 2.1309C6.6777 2.1309 6.79086 2.15848 6.89062 2.21085L11.4844 4.59766L11.4854 4.5982C11.5846 4.6505 11.667 4.72552 11.7244 4.8158C11.782 4.90639 11.8124 5.00916 11.8125 5.1138V6.72783C12.3147 6.89394 12.7631 7.17807 13.125 7.54735V5.11258C13.1246 4.79866 13.0335 4.49035 12.8607 4.21857C12.688 3.94679 12.4396 3.7211 12.1406 3.56413L7.54687 1.17733L7.5455 1.17661C7.24655 1.01996 6.90756 0.9375 6.5625 0.9375Z" fill="url(#paint0_linear_177_30401)"/>
<path fill-rule="evenodd" clip-rule="evenodd" d="M0.0907531 4.95315C0.277267 4.69887 0.689845 4.61198 1.01227 4.75907L6.5625 7.29111L12.1127 4.75907C12.4352 4.61198 12.8477 4.69887 13.0342 4.95315C13.2208 5.20744 13.1106 5.53282 12.7882 5.67991L6.90021 8.36602C6.69129 8.46133 6.43371 8.46133 6.22479 8.36602L0.336849 5.67991C0.0144203 5.53282 -0.0957603 5.20744 0.0907531 4.95315Z" fill="url(#paint1_linear_177_30401)"/>
<path fill-rule="evenodd" clip-rule="evenodd" d="M6.5625 7.5C7.08027 7.5 7.5 7.96875 7.5 8.4375V13.125C7.5 13.5938 7.08027 14.0625 6.5625 14.0625C6.04473 14.0625 5.625 13.5938 5.625 13.125V8.4375C5.625 7.96875 6.04473 7.5 6.5625 7.5Z" fill="url(#paint2_linear_177_30401)"/>
<path fill-rule="evenodd" clip-rule="evenodd" d="M10.7812 11.25C11.5579 11.25 12.1875 10.6204 12.1875 9.84375C12.1875 9.0671 11.5579 8.4375 10.7812 8.4375C10.0046 8.4375 9.375 9.0671 9.375 9.84375C9.375 10.6204 10.0046 11.25 10.7812 11.25ZM10.7812 12.1875C12.0757 12.1875 13.125 11.1382 13.125 9.84375C13.125 8.54933 12.0757 7.5 10.7812 7.5C9.48683 7.5 8.4375 8.54933 8.4375 9.84375C8.4375 11.1382 9.48683 12.1875 10.7812 12.1875Z" fill="url(#paint3_linear_177_30401)"/>
<path fill-rule="evenodd" clip-rule="evenodd" d="M11.5814 10.9185C11.7645 10.7354 12.0613 10.7354 12.2444 10.9185L14.3939 13.0681C14.577 13.2511 14.577 13.5479 14.3939 13.731C14.2109 13.9141 13.9141 13.9141 13.731 13.731L11.5814 11.5814C11.3984 11.3983 11.3984 11.1016 11.5814 10.9185Z" fill="url(#paint4_linear_177_30401)"/>
</g>
<defs>
<linearGradient id="paint0_linear_177_30401" x1="6.5625" y1="0.9375" x2="6.5625" y2="14.0625" gradientUnits="userSpaceOnUse">
<stop stop-color="#10808C"/>
<stop offset="1" stop-color="#1DF7EF"/>
</linearGradient>
<linearGradient id="paint1_linear_177_30401" x1="6.5625" y1="4.6875" x2="6.5625" y2="8.4375" gradientUnits="userSpaceOnUse">
<stop stop-color="#10808C"/>
<stop offset="1" stop-color="#1DF7EF"/>
</linearGradient>
<linearGradient id="paint2_linear_177_30401" x1="6.5625" y1="14.0625" x2="6.5625" y2="7.13542" gradientUnits="userSpaceOnUse">
<stop stop-color="#10808C"/>
<stop offset="1" stop-color="#1DF7EF"/>
</linearGradient>
<linearGradient id="paint3_linear_177_30401" x1="10.7812" y1="7.5" x2="10.7812" y2="12.1875" gradientUnits="userSpaceOnUse">
<stop stop-color="#FE5468"/>
<stop offset="1" stop-color="#FFDF27"/>
</linearGradient>
<linearGradient id="paint4_linear_177_30401" x1="12.6562" y1="9.37495" x2="11.9933" y2="13.3191" gradientUnits="userSpaceOnUse">
<stop stop-color="#FE5468"/>
<stop offset="1" stop-color="#FFDF27"/>
</linearGradient>
<clipPath id="clip0_177_30401">
<rect width="15" height="15" fill="white"/>
</clipPath>
</defs>
</svg>
