<svg width="24" height="24" viewBox="0 0 24 24" fill="none" xmlns="http://www.w3.org/2000/svg">
<path d="M4.31237 15.4946L0 12.9561L4.31237 19.0001L8.6248 12.9561L4.31237 15.4946Z" fill="url(#paint0_linear_3218_86617)"/>
<path d="M4.3124 5L8.62468 12.139L4.3124 14.6847L0 12.1394L4.3124 5Z" fill="url(#paint1_linear_3218_86617)"/>
<path d="M12.6571 3.96717C10.4802 2.40462 7.44773 2.89623 5.87648 5.06952L5.00016 4.43596C6.92132 1.77869 10.6298 1.1784 13.2907 3.09085L14.1474 1.90584C14.4947 1.42549 15.2446 1.56814 15.3913 2.14243L16.1656 5.1738C16.2737 5.59681 15.9718 6.01428 15.5363 6.04427L12.415 6.25922C11.8236 6.29994 11.4531 5.63249 11.8004 5.15215L12.6571 3.96717Z" fill="url(#paint2_linear_3218_86617)"/>
<path d="M8.25637 20.6344L9.11308 19.4494C9.46036 18.9691 9.08983 18.3017 8.4985 18.3424L5.37721 18.5573C4.94164 18.5873 4.63982 19.0048 4.74787 19.4278L5.52215 22.4592C5.66884 23.0335 6.41879 23.1761 6.76607 22.6958L7.62281 21.5107C10.2837 23.4232 13.9922 22.8229 15.9133 20.1656L15.037 19.5321C13.4658 21.7054 10.4333 22.197 8.25637 20.6344Z" fill="url(#paint3_linear_3218_86617)"/>
<path fill-rule="evenodd" clip-rule="evenodd" d="M19.427 9.65289C19.427 10.6616 18.6879 11.4793 17.7762 11.4793L17.7762 13.3058C18.6879 13.3058 19.427 14.1235 19.427 15.1322V16.9587C19.427 17.9674 18.6879 18.7851 17.7762 18.7851V19H16.9508V18.7851C16.0391 18.7851 15.3 17.9674 15.3 16.9587V15.1322C15.3 14.1235 16.0391 13.3058 16.9508 13.3058V11.4793C16.0391 11.4793 15.3 10.6616 15.3 9.65289V7.82645C15.3 6.81773 16.0391 6 16.9508 6H17.7762C18.6879 6 19.427 6.81773 19.427 7.82645V9.65289ZM16.9508 6.91322H17.7762C18.232 6.91322 18.6016 7.32209 18.6016 7.82645V9.65289C18.6016 10.1573 18.232 10.5661 17.7762 10.5661V9.65289H16.9508V10.5661C16.4949 10.5661 16.1254 10.1573 16.1254 9.65289V7.82645C16.1254 7.32209 16.4949 6.91322 16.9508 6.91322ZM17.7762 17.8719C18.232 17.8719 18.6016 17.463 18.6016 16.9587V15.1322C18.6016 14.6279 18.232 14.219 17.7762 14.219L17.7762 15.1322H16.9508V14.219C16.4949 14.219 16.1254 14.6279 16.1254 15.1322V16.9587C16.1254 17.463 16.4949 17.8719 16.9508 17.8719V16.9587H17.7762V17.8719Z" fill="url(#paint4_linear_3218_86617)"/>
<path fill-rule="evenodd" clip-rule="evenodd" d="M22.3159 17.8719V15.1322C23.2276 15.1322 23.9667 14.3145 23.9667 13.3058V11.4793C23.9667 10.4706 23.2276 9.65289 22.3159 9.65289H21.4905C20.5788 9.65289 19.8397 10.4706 19.8397 11.4793V13.3058C19.8397 14.3145 20.5788 15.1322 21.4905 15.1322V17.8719C16.8012 17.8719 27.0051 17.8719 22.3159 17.8719ZM22.3159 10.5661H21.4905C21.0346 10.5661 20.6651 10.975 20.6651 11.4793V13.3058C20.6651 13.8101 21.0346 14.219 21.4905 14.219V13.3058H22.3159V14.219C22.7717 14.219 23.1413 13.8101 23.1413 13.3058V11.4793C23.1413 10.975 22.7717 10.5661 22.3159 10.5661Z" fill="url(#paint5_linear_3218_86617)"/>
<defs>
<linearGradient id="paint0_linear_3218_86617" x1="4.3124" y1="12.9561" x2="4.3124" y2="19.0001" gradientUnits="userSpaceOnUse">
<stop stop-color="#10808C"/>
<stop offset="1" stop-color="#1DF7EF"/>
</linearGradient>
<linearGradient id="paint1_linear_3218_86617" x1="4.31234" y1="5" x2="4.31234" y2="14.6847" gradientUnits="userSpaceOnUse">
<stop stop-color="#FE5468"/>
<stop offset="1" stop-color="#FFDF27"/>
</linearGradient>
<linearGradient id="paint2_linear_3218_86617" x1="10.4567" y1="1.616" x2="10.4567" y2="22.9856" gradientUnits="userSpaceOnUse">
<stop stop-color="#FE5468"/>
<stop offset="1" stop-color="#FFDF27"/>
</linearGradient>
<linearGradient id="paint3_linear_3218_86617" x1="10.4567" y1="1.616" x2="10.4567" y2="22.9856" gradientUnits="userSpaceOnUse">
<stop stop-color="#FE5468"/>
<stop offset="1" stop-color="#FFDF27"/>
</linearGradient>
<linearGradient id="paint4_linear_3218_86617" x1="19.6333" y1="6" x2="19.6333" y2="19" gradientUnits="userSpaceOnUse">
<stop stop-color="#10808C"/>
<stop offset="1" stop-color="#1DF7EF"/>
</linearGradient>
<linearGradient id="paint5_linear_3218_86617" x1="19.6333" y1="6" x2="19.6333" y2="19" gradientUnits="userSpaceOnUse">
<stop stop-color="#10808C"/>
<stop offset="1" stop-color="#1DF7EF"/>
</linearGradient>
</defs>
</svg>
