<svg width="24" height="24" viewBox="0 0 24 24" fill="none" xmlns="http://www.w3.org/2000/svg">
<path d="M5.68342 2.83874C6.121 2.3017 6.7145 2 7.33333 2H13.5556C13.7618 2 14.1875 2.10057 14.3333 2.27958L18.5786 6.94783C18.7245 7.12684 19 7.40068 19 7.65385V11.6923H17.4444V7.65385L13.4612 3.61538H7.33333C7.12705 3.61538 6.92922 3.71595 6.78336 3.89496C6.6375 4.07398 6.55556 4.31677 6.55556 4.56993V6.84615H5V4.86364C5 4.10415 5.24583 3.37578 5.68342 2.83874Z" fill="url(#paint0_linear_3218_86736)"/>
<path d="M5 14.9231V20.1364C5 20.8958 5.24583 21.6242 5.68342 22.1613C6.121 22.6983 6.71449 23 7.33333 23H16.6667C17.2855 23 17.879 22.6983 18.3166 22.1613C18.7542 21.6242 19 20.8958 19 20.1364V19.7692H17.4444V20.1364C17.4444 20.3895 17.3625 20.6323 17.2166 20.8113C17.0708 20.9903 16.8729 21.0909 16.6667 21.0909H7.33333C7.12705 21.0909 6.92922 20.9903 6.78336 20.8113C6.6375 20.6323 6.55556 20.3895 6.55556 20.1364V14.9231H5Z" fill="url(#paint1_linear_3218_86736)"/>
<path fill-rule="evenodd" clip-rule="evenodd" d="M13.75 2C14.1642 2 14.5 2.33579 14.5 2.75V6.5H18.25C18.6642 6.5 19 6.83579 19 7.25C19 7.66421 19 8 19 8H14.5C13.6716 8 13 7.32843 13 6.5V2.00048C13 2.00048 13.3358 2 13.75 2Z" fill="url(#paint2_linear_3218_86736)"/>
<path fill-rule="evenodd" clip-rule="evenodd" d="M3.29972 14.7215L0.276157 11.6719C-0.0920515 11.3006 -0.0920515 10.6986 0.276157 10.3273L3.29972 7.27847C3.66793 6.90718 4.26491 6.90718 4.63312 7.27847C5.00133 7.64977 5.00133 8.25176 4.63312 8.62306L3.21912 10.0488L10.5 10.0488C10.7761 10.0488 11 10.2727 11 10.5488V11.4503C11 11.7265 10.7761 11.9503 10.5 11.9503L3.21912 11.9504L4.63312 13.3769C5.00133 13.7482 5.00133 14.3502 4.63312 14.7215C4.26491 15.0928 3.66793 15.0928 3.29972 14.7215Z" fill="url(#paint3_linear_3218_86736)"/>
<path fill-rule="evenodd" clip-rule="evenodd" d="M20.7003 12.2785L23.7238 15.3281C24.0921 15.6994 24.0921 16.3014 23.7238 16.6727L20.7003 19.7215C20.3321 20.0928 19.7351 20.0928 19.3669 19.7215C18.9987 19.3502 18.9987 18.7482 19.3669 18.3769L20.7809 16.9512L13.5 16.9512C13.2239 16.9512 13 16.7274 13 16.4512V15.5497C13 15.2736 13.2239 15.0497 13.5 15.0497L20.7809 15.0496L19.3669 13.6231C18.9987 13.2518 18.9987 12.6498 19.3669 12.2785C19.7351 11.9072 20.3321 11.9072 20.7003 12.2785Z" fill="url(#paint4_linear_3218_86736)"/>
<defs>
<linearGradient id="paint0_linear_3218_86736" x1="12" y1="2" x2="12" y2="23" gradientUnits="userSpaceOnUse">
<stop stop-color="#10808C"/>
<stop offset="1" stop-color="#1DF7EF"/>
</linearGradient>
<linearGradient id="paint1_linear_3218_86736" x1="12" y1="2" x2="12" y2="23" gradientUnits="userSpaceOnUse">
<stop stop-color="#10808C"/>
<stop offset="1" stop-color="#1DF7EF"/>
</linearGradient>
<linearGradient id="paint2_linear_3218_86736" x1="16" y1="2" x2="16" y2="8" gradientUnits="userSpaceOnUse">
<stop stop-color="#FE5468"/>
<stop offset="1" stop-color="#FFDF27"/>
</linearGradient>
<linearGradient id="paint3_linear_3218_86736" x1="5.5" y1="15" x2="5.5" y2="7" gradientUnits="userSpaceOnUse">
<stop stop-color="#FE5468"/>
<stop offset="1" stop-color="#FFDF27"/>
</linearGradient>
<linearGradient id="paint4_linear_3218_86736" x1="18.5" y1="12" x2="18.5" y2="20" gradientUnits="userSpaceOnUse">
<stop stop-color="#FE5468"/>
<stop offset="1" stop-color="#FFDF27"/>
</linearGradient>
</defs>
</svg>
