<svg width="15" height="15" viewBox="0 0 15 15" fill="none" xmlns="http://www.w3.org/2000/svg">
<g clip-path="url(#clip0_177_30732)">
<path fill-rule="evenodd" clip-rule="evenodd" d="M5.33333 5.76389H4.66666C4.29847 5.76389 3.99999 6.10589 3.99999 6.52778V8.05556C3.99999 8.47744 4.29847 8.81944 4.66666 8.81944H5.33333C5.70152 8.81944 5.99999 8.47744 5.99999 8.05556V6.52778C5.99999 6.10589 5.70152 5.76389 5.33333 5.76389ZM4.66666 5C3.93028 5 3.33333 5.68401 3.33333 6.52778V8.05556C3.33333 8.89932 3.93028 9.58333 4.66666 9.58333H5.33333C6.06971 9.58333 6.66666 8.89932 6.66666 8.05556V6.52778C6.66666 5.68401 6.06971 5 5.33333 5H4.66666Z" fill="url(#paint0_linear_177_30732)"/>
<path fill-rule="evenodd" clip-rule="evenodd" d="M5.33333 11.5278H4.66666C4.29847 11.5278 3.99999 11.8387 3.99999 12.2223V13.6112C3.99999 13.9947 4.29847 14.3056 4.66666 14.3056H5.33333C5.70152 14.3056 5.99999 13.9947 5.99999 13.6112V12.2223C5.99999 11.8387 5.70152 11.5278 5.33333 11.5278ZM4.66666 10.8334C3.93028 10.8334 3.33333 11.4552 3.33333 12.2223V13.6112C3.33333 14.3782 3.93028 15 4.66666 15H5.33333C6.06971 15 6.66666 14.3782 6.66666 13.6112V12.2223C6.66666 11.4552 6.06971 10.8334 5.33333 10.8334H4.66666Z" fill="url(#paint1_linear_177_30732)"/>
<path fill-rule="evenodd" clip-rule="evenodd" d="M10.3333 9.86107H9.66666C9.29847 9.86107 8.99999 10.172 8.99999 10.5555V11.9444C8.99999 12.3279 9.29847 12.6388 9.66666 12.6388H10.3333C10.7015 12.6388 11 12.3279 11 11.9444V10.5555C11 10.172 10.7015 9.86107 10.3333 9.86107ZM9.66666 9.16663C8.93028 9.16663 8.33333 9.78845 8.33333 10.5555V11.9444C8.33333 12.7115 8.93028 13.3333 9.66666 13.3333H10.3333C11.0697 13.3333 11.6667 12.7115 11.6667 11.9444V10.5555C11.6667 9.78845 11.0697 9.16663 10.3333 9.16663H9.66666Z" fill="url(#paint2_linear_177_30732)"/>
<path fill-rule="evenodd" clip-rule="evenodd" d="M10.3333 4.02782H9.66666C9.29847 4.02782 8.99999 4.33873 8.99999 4.72226V6.11115C8.99999 6.49468 9.29847 6.8056 9.66666 6.8056H10.3333C10.7015 6.8056 11 6.49468 11 6.11115V4.72226C11 4.33873 10.7015 4.02782 10.3333 4.02782ZM9.66666 3.33337C8.93028 3.33337 8.33333 3.9552 8.33333 4.72226V6.11115C8.33333 6.87821 8.93028 7.50004 9.66666 7.50004H10.3333C11.0697 7.50004 11.6667 6.87821 11.6667 6.11115V4.72226C11.6667 3.9552 11.0697 3.33337 10.3333 3.33337H9.66666Z" fill="url(#paint3_linear_177_30732)"/>
<path fill-rule="evenodd" clip-rule="evenodd" d="M5.33333 0.625H4.66666C4.29847 0.625 3.99999 0.904822 3.99999 1.25V2.5C3.99999 2.84518 4.29847 3.125 4.66666 3.125H5.33333C5.70152 3.125 5.99999 2.84518 5.99999 2.5V1.25C5.99999 0.904822 5.70152 0.625 5.33333 0.625ZM4.66666 0C3.93028 0 3.33333 0.559644 3.33333 1.25V2.5C3.33333 3.19036 3.93028 3.75 4.66666 3.75H5.33333C6.06971 3.75 6.66666 3.19036 6.66666 2.5V1.25C6.66666 0.559644 6.06971 0 5.33333 0H4.66666Z" fill="url(#paint4_linear_177_30732)"/>
<path fill-rule="evenodd" clip-rule="evenodd" d="M4.58334 6.66667V2.5H5.41667V6.66667H4.58334Z" fill="url(#paint5_linear_177_30732)"/>
<path fill-rule="evenodd" clip-rule="evenodd" d="M4.58334 12.0834V8.33337H5.41667V12.0834H4.58334Z" fill="url(#paint6_linear_177_30732)"/>
<path fill-rule="evenodd" clip-rule="evenodd" d="M9.58334 10.8334V5.83337H10.4167V10.8334H9.58334Z" fill="url(#paint7_linear_177_30732)"/>
</g>
<defs>
<linearGradient id="paint0_linear_177_30732" x1="4.99999" y1="5" x2="4.99999" y2="9.58333" gradientUnits="userSpaceOnUse">
<stop stop-color="#10808C"/>
<stop offset="1" stop-color="#1DF7EF"/>
</linearGradient>
<linearGradient id="paint1_linear_177_30732" x1="4.99999" y1="10.8334" x2="4.99999" y2="15" gradientUnits="userSpaceOnUse">
<stop stop-color="#10808C"/>
<stop offset="1" stop-color="#1DF7EF"/>
</linearGradient>
<linearGradient id="paint2_linear_177_30732" x1="9.99999" y1="9.16663" x2="9.99999" y2="13.3333" gradientUnits="userSpaceOnUse">
<stop stop-color="#10808C"/>
<stop offset="1" stop-color="#1DF7EF"/>
</linearGradient>
<linearGradient id="paint3_linear_177_30732" x1="9.99999" y1="3.33337" x2="9.99999" y2="7.50004" gradientUnits="userSpaceOnUse">
<stop stop-color="#10808C"/>
<stop offset="1" stop-color="#1DF7EF"/>
</linearGradient>
<linearGradient id="paint4_linear_177_30732" x1="4.99999" y1="0" x2="4.99999" y2="3.75" gradientUnits="userSpaceOnUse">
<stop stop-color="#10808C"/>
<stop offset="1" stop-color="#1DF7EF"/>
</linearGradient>
<linearGradient id="paint5_linear_177_30732" x1="5.41667" y1="4.58333" x2="4.58334" y2="4.58333" gradientUnits="userSpaceOnUse">
<stop stop-color="#FE5468"/>
<stop offset="1" stop-color="#FFDF27"/>
</linearGradient>
<linearGradient id="paint6_linear_177_30732" x1="5.41667" y1="10.2084" x2="4.58334" y2="10.2084" gradientUnits="userSpaceOnUse">
<stop stop-color="#FE5468"/>
<stop offset="1" stop-color="#FFDF27"/>
</linearGradient>
<linearGradient id="paint7_linear_177_30732" x1="10.4167" y1="8.33337" x2="9.58334" y2="8.33337" gradientUnits="userSpaceOnUse">
<stop stop-color="#FE5468"/>
<stop offset="1" stop-color="#FFDF27"/>
</linearGradient>
<clipPath id="clip0_177_30732">
<rect width="15" height="15" fill="white"/>
</clipPath>
</defs>
</svg>
