<svg width="24" height="24" viewBox="0 0 24 24" fill="none" xmlns="http://www.w3.org/2000/svg">
<g clip-path="url(#clip0_3218_86590)">
<path fill-rule="evenodd" clip-rule="evenodd" d="M4.97786 9.06642H9.08919C9.22606 9.49634 9.39477 9.91202 9.5918 10.3112H4.97786V17.778H4.35612C3.91378 17.778 3.49298 17.87 3.11198 18.0365C2.01326 18.5165 1.24488 19.613 1.24479 20.8887C1.24479 21.1498 1.40314 21.647 1.79232 22.0918C2.16087 22.5129 2.61951 22.7559 3.11133 22.7559H17.4225V15.3294C17.5036 15.3316 17.585 15.3333 17.6667 15.3333C18.0047 15.3333 18.3383 15.3137 18.6667 15.2774V24H3.11133C1.24466 24 0 22.1331 0 20.8887V9.6159L0.00130208 9.61459C0.0410917 7.2437 1.97517 5.33371 4.35547 5.33334H4.97786V9.06642ZM3.73307 6.63998C3.51705 6.6839 3.30921 6.75044 3.11198 6.8366C2.01322 7.31667 1.24483 8.41309 1.24479 9.68881L1.24414 17.8412C1.89753 17.1741 2.76397 16.7163 3.73307 16.5775V6.63998Z" fill="url(#paint0_linear_3218_86590)"/>
<path fill-rule="evenodd" clip-rule="evenodd" d="M11.1999 12.5925C11.9941 13.4129 12.9433 14.082 14 14.554V19.0742C13.9999 19.7901 13.4196 20.3704 12.7038 20.3705H7.51823C6.80247 20.3703 6.22207 19.79 6.222 19.0742V13.8887C6.22213 13.173 6.80251 12.5926 7.51823 12.5925H11.1999ZM10.6406 14.2409C10.4318 13.7719 9.79021 13.7719 9.58138 14.2409L9.25781 14.9675C9.17278 15.1581 8.99893 15.2894 8.79818 15.3145L8.0332 15.4102C7.5396 15.4717 7.34116 16.1057 7.70573 16.457L8.27083 17.0013C8.41913 17.1443 8.48575 17.3569 8.44661 17.5632L8.29753 18.349C8.2015 18.8558 8.72021 19.2472 9.1543 18.9955L9.82682 18.6055C10.0035 18.5031 10.2185 18.5031 10.3952 18.6055L11.0677 18.9955C11.5018 19.2472 12.0205 18.8559 11.9245 18.349L11.7754 17.5632C11.7363 17.3569 11.803 17.1443 11.9512 17.0013L12.5163 16.457C12.8809 16.1057 12.6825 15.4717 12.1888 15.4102L11.4245 15.3145C11.2236 15.2894 11.0492 15.1582 10.9642 14.9675L10.6406 14.2409Z" fill="url(#paint1_linear_3218_86590)"/>
<path fill-rule="evenodd" clip-rule="evenodd" d="M17.6666 10.8571C20.1651 10.8571 22.1905 8.83177 22.1905 6.33333C22.1905 3.8349 20.1651 1.80952 17.6666 1.80952C15.1682 1.80952 13.1428 3.8349 13.1428 6.33333C13.1428 8.83177 15.1682 10.8571 17.6666 10.8571ZM17.6666 12.6667C21.1645 12.6667 24 9.83114 24 6.33333C24 2.83553 21.1645 0 17.6666 0C14.1688 0 11.3333 2.83553 11.3333 6.33333C11.3333 9.83114 14.1688 12.6667 17.6666 12.6667Z" fill="url(#paint2_linear_3218_86590)"/>
<path fill-rule="evenodd" clip-rule="evenodd" d="M19.7333 4.46667C19.7333 4.7244 19.5542 4.93333 19.3333 4.93333H16C15.7791 4.93333 15.6 4.7244 15.6 4.46667C15.6 4.20893 15.7791 4 16 4H19.3333C19.5542 4 19.7333 4.20893 19.7333 4.46667ZM19.2216 6.33333C19.2216 6.59107 19.0425 6.8 18.8216 6.8H16.5105C16.2895 6.8 16.1105 6.59107 16.1105 6.33333C16.1105 6.0756 16.2895 5.86667 16.5105 5.86667H18.8216C19.0425 5.86667 19.2216 6.0756 19.2216 6.33333ZM20 8.2C20 8.45773 19.8209 8.66667 19.6 8.66667H15.7333C15.5124 8.66667 15.3333 8.45773 15.3333 8.2C15.3333 7.94227 15.5124 7.73333 15.7333 7.73333H19.6C19.8209 7.73333 20 7.94227 20 8.2Z" fill="url(#paint3_linear_3218_86590)"/>
</g>
<defs>
<linearGradient id="paint0_linear_3218_86590" x1="9.33333" y1="5.33334" x2="9.33333" y2="24" gradientUnits="userSpaceOnUse">
<stop stop-color="#10808C"/>
<stop offset="1" stop-color="#1DF7EF"/>
</linearGradient>
<linearGradient id="paint1_linear_3218_86590" x1="9.33333" y1="5.33334" x2="9.33333" y2="24" gradientUnits="userSpaceOnUse">
<stop stop-color="#10808C"/>
<stop offset="1" stop-color="#1DF7EF"/>
</linearGradient>
<linearGradient id="paint2_linear_3218_86590" x1="17.6666" y1="0" x2="17.6666" y2="12.6667" gradientUnits="userSpaceOnUse">
<stop stop-color="#FE5468"/>
<stop offset="1" stop-color="#FFDF27"/>
</linearGradient>
<linearGradient id="paint3_linear_3218_86590" x1="17.6666" y1="4" x2="17.6666" y2="8.66667" gradientUnits="userSpaceOnUse">
<stop stop-color="#10808C"/>
<stop offset="1" stop-color="#1DF7EF"/>
</linearGradient>
<clipPath id="clip0_3218_86590">
<rect width="24" height="24" fill="white"/>
</clipPath>
</defs>
</svg>
