<svg width="15" height="15" viewBox="0 0 15 15" fill="none" xmlns="http://www.w3.org/2000/svg">
<g clip-path="url(#clip0_177_30421)">
<path fill-rule="evenodd" clip-rule="evenodd" d="M9.9975 1.89488C8.7888 1.35631 7.43839 1.22289 6.14766 1.51451C4.85694 1.80613 3.69506 2.50717 2.83531 3.51308C1.97556 4.51898 1.464 5.77586 1.37694 7.09625C1.28987 8.41664 1.63196 9.7298 2.35218 10.8399C3.0724 11.95 4.13217 12.7975 5.37342 13.2561C6.61468 13.7147 7.97092 13.7597 9.23988 13.3845C10.5088 13.0093 11.6225 12.234 12.4148 11.1742C13.2071 10.1143 13.6356 8.82677 13.6364 7.50351V6.87663C13.6364 6.50007 13.9416 6.19481 14.3182 6.19481C14.6947 6.19481 15 6.50007 15 6.87663V7.5039C14.9991 9.12122 14.4754 10.6953 13.507 11.9907C12.5386 13.286 11.1775 14.2336 9.62652 14.6922C8.07557 15.1508 6.41794 15.0957 4.90085 14.5352C3.38376 13.9747 2.08849 12.9389 1.20822 11.5821C0.32795 10.2253 -0.0901566 8.62034 0.0162576 7.00653C0.122672 5.39271 0.747905 3.85654 1.79871 2.6271C2.84951 1.39766 4.26959 0.540829 5.84714 0.184402C7.42469 -0.172025 9.0752 -0.00895441 10.5525 0.649293C10.8965 0.802552 11.0511 1.20563 10.8978 1.54958C10.7445 1.89354 10.3415 2.04814 9.9975 1.89488Z" fill="url(#paint0_linear_177_30421)"/>
<path fill-rule="evenodd" clip-rule="evenodd" d="M14.7998 1.56762C15.0662 1.83376 15.0664 2.26546 14.8003 2.53186L7.98209 9.35686C7.85425 9.48483 7.68079 9.55675 7.4999 9.5568C7.31902 9.55684 7.14552 9.48501 7.01762 9.3571L4.97216 7.31164C4.70589 7.04538 4.70589 6.61368 4.97216 6.34741C5.23843 6.08114 5.67013 6.08114 5.9364 6.34741L7.49949 7.9105L13.8356 1.5681C14.1017 1.30171 14.5334 1.30149 14.7998 1.56762Z" fill="url(#paint1_linear_177_30421)"/>
</g>
<defs>
<linearGradient id="paint0_linear_177_30421" x1="7.5" y1="0" x2="7.5" y2="15" gradientUnits="userSpaceOnUse">
<stop stop-color="#10808C"/>
<stop offset="1" stop-color="#1DF7EF"/>
</linearGradient>
<linearGradient id="paint1_linear_177_30421" x1="9.8861" y1="1.36816" x2="9.8861" y2="9.5568" gradientUnits="userSpaceOnUse">
<stop stop-color="#FE5468"/>
<stop offset="1" stop-color="#FFDF27"/>
</linearGradient>
<clipPath id="clip0_177_30421">
<rect width="15" height="15" fill="white"/>
</clipPath>
</defs>
</svg>
