<svg width="15" height="15" viewBox="0 0 15 15" fill="none" xmlns="http://www.w3.org/2000/svg">
<g clip-path="url(#clip0_177_30910)">
<path fill-rule="evenodd" clip-rule="evenodd" d="M1.60968 3.96193L1.80374 2.98094C1.86641 2.99334 1.93193 3 2 3H2.45833V4H2C1.86643 4 1.73592 3.98691 1.60968 3.96193ZM12.5417 4V3H13C13.0681 3 13.1336 2.99334 13.1963 2.98094L13.3903 3.96193C13.2641 3.98691 13.1336 4 13 4H12.5417ZM14.1112 3.66313L13.5549 2.83216C13.6644 2.75887 13.7589 2.66439 13.8322 2.55491L14.6631 3.11123C14.5171 3.32933 14.3293 3.51711 14.1112 3.66313ZM14.9619 2.39032L13.9809 2.19625C13.9933 2.13359 14 2.06807 14 2C14 1.93193 13.9933 1.86641 13.9809 1.80374L14.9619 1.60968C14.9869 1.73592 15 1.86643 15 2C15 2.13357 14.9869 2.26408 14.9619 2.39032ZM14.6631 0.888769L13.8322 1.44509C13.7589 1.33561 13.6644 1.24113 13.5549 1.16784L14.1112 0.336869C14.3293 0.482885 14.5171 0.670666 14.6631 0.888769ZM2.45833 0H2C1.86643 0 1.73592 0.0130939 1.60968 0.0380681L1.80375 1.01906C1.86642 1.00666 1.93193 1 2 1H2.45833V0ZM0.888769 0.336869L1.44509 1.16784C1.33561 1.24113 1.24113 1.33561 1.16784 1.44509L0.336869 0.888769C0.482886 0.670666 0.670666 0.482885 0.888769 0.336869ZM0.0380681 1.60968L1.01906 1.80374C1.00666 1.86641 1 1.93193 1 2C1 2.06807 1.00666 2.13359 1.01906 2.19625L0.0380681 2.39032C0.0130939 2.26408 0 2.13357 0 2C0 1.86643 0.0130939 1.73592 0.0380681 1.60968ZM0.888769 3.66313L1.44509 2.83216C1.33561 2.75887 1.24113 2.66439 1.16784 2.55491L0.336869 3.11123C0.482885 3.32933 0.670666 3.51711 0.888769 3.66313ZM3.375 0V1H4.29167V0H3.375ZM5.20833 0V1H6.125V0H5.20833ZM7.04167 0V1H7.95833V0H7.04167ZM8.875 0V1H9.79167V0H8.875ZM10.7083 0V1H11.625V0H10.7083ZM12.5417 0V1H13C13.0681 1 13.1336 1.00666 13.1963 1.01906L13.3903 0.0380682C13.2641 0.0130939 13.1336 0 13 0H12.5417ZM11.625 4V3H10.7083V4H11.625ZM9.79167 4V3H8.875V4H9.79167ZM7.95833 4V3H7.04167V4H7.95833ZM6.125 4V3H5.20833V4H6.125ZM4.29167 4V3H3.375V4H4.29167Z" fill="url(#paint0_linear_177_30910)"/>
<path d="M0 7C0 5.89543 0.895431 5 2 5H13C14.1046 5 15 5.89543 15 7V8C15 9.10457 14.1046 10 13 10H2C0.89543 10 0 9.10457 0 8V7Z" fill="url(#paint1_linear_177_30910)"/>
<path fill-rule="evenodd" clip-rule="evenodd" d="M13 6H2C1.44772 6 1 6.44772 1 7V8C1 8.55228 1.44772 9 2 9H13C13.5523 9 14 8.55228 14 8V7C14 6.44772 13.5523 6 13 6ZM2 5C0.895431 5 0 5.89543 0 7V8C0 9.10457 0.89543 10 2 10H13C14.1046 10 15 9.10457 15 8V7C15 5.89543 14.1046 5 13 5H2Z" fill="url(#paint2_linear_177_30910)"/>
<path fill-rule="evenodd" clip-rule="evenodd" d="M13 12H2C1.44772 12 1 12.4477 1 13C1 13.5523 1.44772 14 2 14H13C13.5523 14 14 13.5523 14 13C14 12.4477 13.5523 12 13 12ZM2 11C0.895431 11 0 11.8954 0 13C0 14.1046 0.89543 15 2 15H13C14.1046 15 15 14.1046 15 13C15 11.8954 14.1046 11 13 11H2Z" fill="url(#paint3_linear_177_30910)"/>
</g>
<defs>
<linearGradient id="paint0_linear_177_30910" x1="7.5" y1="0" x2="7.5" y2="4" gradientUnits="userSpaceOnUse">
<stop stop-color="#FE5468"/>
<stop offset="1" stop-color="#FFDF27"/>
</linearGradient>
<linearGradient id="paint1_linear_177_30910" x1="7.5" y1="5" x2="7.5" y2="10" gradientUnits="userSpaceOnUse">
<stop stop-color="#10808C"/>
<stop offset="1" stop-color="#1DF7EF"/>
</linearGradient>
<linearGradient id="paint2_linear_177_30910" x1="7.5" y1="5" x2="7.5" y2="10" gradientUnits="userSpaceOnUse">
<stop stop-color="#FE5468"/>
<stop offset="1" stop-color="#FFDF27"/>
</linearGradient>
<linearGradient id="paint3_linear_177_30910" x1="7.5" y1="11" x2="7.5" y2="15" gradientUnits="userSpaceOnUse">
<stop stop-color="#FE5468"/>
<stop offset="1" stop-color="#FFDF27"/>
</linearGradient>
<clipPath id="clip0_177_30910">
<rect width="15" height="15" fill="white"/>
</clipPath>
</defs>
</svg>
