<svg width="15" height="15" viewBox="0 0 15 15" fill="none" xmlns="http://www.w3.org/2000/svg">
<path fill-rule="evenodd" clip-rule="evenodd" d="M2.23619 0.5991C2.60084 0.215502 3.09542 0 3.61112 0H8.7963C8.9682 0 9.13306 0.0718342 9.25461 0.1997L13.1435 4.29061C13.2651 4.41847 13.3333 4.5919 13.3333 4.77273V12.9545C13.3333 13.497 13.1285 14.0173 12.7638 14.4009C12.3992 14.7845 11.9046 15 11.3889 15H3.61112C3.09542 15 2.60084 14.7845 2.23619 14.4009C1.87153 14.0173 1.66667 13.497 1.66667 12.9545V2.04545C1.66667 1.50297 1.87153 0.982697 2.23619 0.5991ZM3.61112 1.36364C3.43922 1.36364 3.27436 1.43547 3.15281 1.56334C3.03125 1.6912 2.96297 1.86462 2.96297 2.04545V12.9545C2.96297 13.1354 3.03125 13.3088 3.15281 13.4367C3.27436 13.5645 3.43922 13.6364 3.61112 13.6364H11.3889C11.5608 13.6364 11.7257 13.5645 11.8472 13.4367C11.9688 13.3088 12.037 13.1354 12.037 12.9545V5.05515L8.52783 1.36364H3.61112Z" fill="url(#paint0_linear_7416_31930)"/>
<path fill-rule="evenodd" clip-rule="evenodd" d="M8.95833 0C9.30351 0 9.58333 0.326459 9.58333 0.729167V4.16667H12.7083C13.0535 4.16667 13.3333 4.49313 13.3333 4.89583C13.3333 5.29854 13.0535 5.625 12.7083 5.625H8.95833C8.61315 5.625 8.33333 5.29854 8.33333 4.89583V0.729167C8.33333 0.326459 8.61315 0 8.95833 0Z" fill="url(#paint1_linear_7416_31930)"/>
<path fill-rule="evenodd" clip-rule="evenodd" d="M4.16667 8.33333C4.16667 7.8731 4.46515 7.5 4.83334 7.5H10.1667C10.5349 7.5 10.8333 7.8731 10.8333 8.33333C10.8333 8.79357 10.5349 9.16667 10.1667 9.16667H4.83334C4.46515 9.16667 4.16667 8.79357 4.16667 8.33333Z" fill="url(#paint2_linear_7416_31930)"/>
<path fill-rule="evenodd" clip-rule="evenodd" d="M4.16667 10.8333C4.16667 10.3731 4.46515 10 4.83334 10H10.1667C10.5349 10 10.8333 10.3731 10.8333 10.8333C10.8333 11.2936 10.5349 11.6667 10.1667 11.6667H4.83334C4.46515 11.6667 4.16667 11.2936 4.16667 10.8333Z" fill="url(#paint3_linear_7416_31930)"/>
<path fill-rule="evenodd" clip-rule="evenodd" d="M4.16667 5.83333C4.16667 5.3731 4.44649 5 4.79167 5H6.04167C6.38685 5 6.66667 5.3731 6.66667 5.83333C6.66667 6.29357 6.38685 6.66667 6.04167 6.66667H4.79167C4.44649 6.66667 4.16667 6.29357 4.16667 5.83333Z" fill="url(#paint4_linear_7416_31930)"/>
<defs>
<linearGradient id="paint0_linear_7416_31930" x1="7.50001" y1="0" x2="7.50001" y2="15" gradientUnits="userSpaceOnUse">
<stop stop-color="#10808C"/>
<stop offset="1" stop-color="#1DF7EF"/>
</linearGradient>
<linearGradient id="paint1_linear_7416_31930" x1="10.8333" y1="0" x2="14.7497" y2="4.89426" gradientUnits="userSpaceOnUse">
<stop stop-color="#FE5468"/>
<stop offset="1" stop-color="#FFDF27"/>
</linearGradient>
<linearGradient id="paint2_linear_7416_31930" x1="7.50001" y1="7.5" x2="7.91003" y2="9.8058" gradientUnits="userSpaceOnUse">
<stop stop-color="#FE5468"/>
<stop offset="1" stop-color="#FFDF27"/>
</linearGradient>
<linearGradient id="paint3_linear_7416_31930" x1="7.50001" y1="10" x2="7.91003" y2="12.3058" gradientUnits="userSpaceOnUse">
<stop stop-color="#FE5468"/>
<stop offset="1" stop-color="#FFDF27"/>
</linearGradient>
<linearGradient id="paint4_linear_7416_31930" x1="5.41667" y1="5" x2="6.33757" y2="6.94203" gradientUnits="userSpaceOnUse">
<stop stop-color="#FE5468"/>
<stop offset="1" stop-color="#FFDF27"/>
</linearGradient>
</defs>
</svg>
