<svg width="24" height="24" viewBox="0 0 24 24" fill="none" xmlns="http://www.w3.org/2000/svg">
<g clip-path="url(#clip0_3218_87612)">
<path fill-rule="evenodd" clip-rule="evenodd" d="M11.2002 10.1335C10.6111 10.1335 10.1335 10.6111 10.1335 11.2002L10.1335 20.8C10.1335 21.3891 10.6111 21.8667 11.2002 21.8667H20.8C21.3891 21.8667 21.8667 21.3891 21.8667 20.8V11.2002C21.8667 10.6111 21.3891 10.1335 20.8 10.1335L11.2002 10.1335ZM8.00021 11.2002C8.00021 9.4329 9.43288 8.00023 11.2002 8.00023L20.8 8.00023C22.5673 8.00023 24 9.4329 24 11.2002V20.8C24 22.5673 22.5673 24 20.8 24H11.2002C9.43288 24 8.00021 22.5673 8.00021 20.8L8.00021 11.2002Z" fill="url(#paint0_linear_3218_87612)"/>
<path fill-rule="evenodd" clip-rule="evenodd" d="M3.19995 2.1333C2.91706 2.1333 2.64575 2.24568 2.44572 2.44572C2.24568 2.64575 2.1333 2.91706 2.1333 3.19995L2.1333 12.7998C2.1333 13.0827 2.24568 13.354 2.44572 13.5541C2.64575 13.7541 2.91706 13.8665 3.19995 13.8665H4.26661C4.8557 13.8665 5.33326 14.344 5.33326 14.9331C5.33326 15.5222 4.8557 15.9998 4.26661 15.9998H3.19995C2.35127 15.9998 1.53735 15.6626 0.937245 15.0625C0.337137 14.4624 0 13.6485 0 12.7998L0 3.19995C0 2.35127 0.337137 1.53735 0.937245 0.937245C1.53735 0.337137 2.35127 0 3.19995 0L12.7998 0C13.6485 0 14.4624 0.337137 15.0625 0.937245C15.6626 1.53735 15.9998 2.35127 15.9998 3.19995V4.26661C15.9998 4.8557 15.5222 5.33326 14.9331 5.33326C14.344 5.33326 13.8665 4.8557 13.8665 4.26661V3.19995C13.8665 2.91706 13.7541 2.64575 13.5541 2.44572C13.354 2.24568 13.0827 2.1333 12.7998 2.1333L3.19995 2.1333Z" fill="url(#paint1_linear_3218_87612)"/>
</g>
<defs>
<linearGradient id="paint0_linear_3218_87612" x1="16.0001" y1="8.00023" x2="16.0001" y2="24" gradientUnits="userSpaceOnUse">
<stop stop-color="#10808C"/>
<stop offset="1" stop-color="#1DF7EF"/>
</linearGradient>
<linearGradient id="paint1_linear_3218_87612" x1="7.99989" y1="0" x2="7.99989" y2="15.9998" gradientUnits="userSpaceOnUse">
<stop stop-color="#FE5468"/>
<stop offset="1" stop-color="#FFDF27"/>
</linearGradient>
<clipPath id="clip0_3218_87612">
<rect width="24" height="24" fill="white"/>
</clipPath>
</defs>
</svg>
