<svg width="16" height="16" viewBox="0 0 16 16" fill="none" xmlns="http://www.w3.org/2000/svg">
<path fill-rule="evenodd" clip-rule="evenodd" d="M4.62449 2.36276C4.81259 2.03007 5.22952 1.9159 5.55571 2.10775L11.4085 5.45215C11.7347 5.644 11.8466 6.06923 11.6585 6.40192C11.4704 6.73461 11.0535 6.84879 10.7273 6.65693L4.87452 3.31254C4.54832 3.12068 4.43638 2.69546 4.62449 2.36276Z" fill="url(#paint0_linear_7416_31900)"/>
<path fill-rule="evenodd" clip-rule="evenodd" d="M6.97022 0.773247C7.2834 0.594235 7.63852 0.5 8 0.5C8.36149 0.5 8.71663 0.594242 9.02981 0.773269C9.03029 0.773543 9.03077 0.773816 9.03125 0.77409L13.8438 3.50187C14.157 3.68125 14.4171 3.93918 14.5981 4.24979C14.7792 4.5604 14.8746 4.91276 14.875 5.27152V10.7285C14.8746 11.0872 14.7792 11.4396 14.5981 11.7502C14.4171 12.0608 14.157 12.3187 13.8438 12.4981L13.8411 12.4996L9.03125 15.2259C9.03084 15.2261 9.03043 15.2264 9.03001 15.2266C8.71678 15.4057 8.36157 15.5 8 15.5C7.63844 15.5 7.28325 15.4057 6.97002 15.2266C6.9696 15.2264 6.96917 15.2262 6.96875 15.2259L2.1589 12.4996L2.15625 12.4981C1.84302 12.3187 1.58285 12.0608 1.40185 11.7502C1.22085 11.4396 1.12537 11.0872 1.125 10.7285V5.27152C1.12537 4.91276 1.22085 4.5604 1.40185 4.24979C1.58285 3.93918 1.84302 3.68125 2.15625 3.50187L2.1589 3.50035L6.97022 0.773247ZM8 1.86389C7.87932 1.86389 7.76076 1.8954 7.65625 1.95525L7.6536 1.95677L2.84375 4.68304C2.84339 4.68324 2.84303 4.68345 2.84267 4.68366C2.73874 4.74342 2.65241 4.82916 2.59228 4.93234C2.532 5.03579 2.50018 5.15314 2.5 5.27262V10.7274C2.50018 10.8469 2.532 10.9642 2.59228 11.0677C2.65241 11.1708 2.73874 11.2566 2.84267 11.3163C2.84303 11.3166 2.84339 11.3168 2.84375 11.317L7.65625 14.0447C7.76076 14.1046 7.87932 14.1361 8 14.1361C8.12068 14.1361 8.23924 14.1046 8.34375 14.0447L8.3464 14.0432L13.1562 11.317C13.1566 11.3168 13.157 11.3165 13.1573 11.3163C13.2613 11.2566 13.3476 11.1708 13.4077 11.0677C13.4681 10.9641 13.4999 10.8467 13.5 10.7271V5.27292C13.4999 5.15333 13.4681 5.03588 13.4077 4.93234C13.3476 4.82917 13.2613 4.74343 13.1573 4.68366C13.157 4.68345 13.1566 4.68324 13.1562 4.68304L8.34375 1.95526C8.23923 1.89541 8.12068 1.86389 8 1.86389Z" fill="url(#paint1_linear_7416_31900)"/>
<path fill-rule="evenodd" clip-rule="evenodd" d="M1.43785 4.25069C1.63324 3.91165 2.06547 3.79579 2.40325 3.99191L8.00007 7.09717L13.597 3.99215C13.9348 3.79603 14.367 3.91188 14.5624 4.25093C14.7578 4.58997 14.6423 5.02381 14.3046 5.21993L8.35386 8.53038C8.13499 8.65746 7.86515 8.65746 7.64627 8.53038L1.69566 5.2197C1.35788 5.02357 1.24245 4.58973 1.43785 4.25069Z" fill="url(#paint2_linear_7416_31900)"/>
<path fill-rule="evenodd" clip-rule="evenodd" d="M8 7.375C8.34518 7.375 8.625 7.67613 8.625 8.0476V14.8274C8.625 15.1989 8.34518 15.5 8 15.5C7.65482 15.5 7.375 15.1989 7.375 14.8274V8.0476C7.375 7.67613 7.65482 7.375 8 7.375Z" fill="url(#paint3_linear_7416_31900)"/>
<defs>
<linearGradient id="paint0_linear_7416_31900" x1="8.14151" y1="2.01465" x2="10.7317" y2="7.56421" gradientUnits="userSpaceOnUse">
<stop stop-color="#FE5468"/>
<stop offset="1" stop-color="#FFDF27"/>
</linearGradient>
<linearGradient id="paint1_linear_7416_31900" x1="8" y1="0.5" x2="8" y2="15.5" gradientUnits="userSpaceOnUse">
<stop stop-color="#10808C"/>
<stop offset="1" stop-color="#1DF7EF"/>
</linearGradient>
<linearGradient id="paint2_linear_7416_31900" x1="8.00011" y1="3.89648" x2="9.60304" y2="10.2412" gradientUnits="userSpaceOnUse">
<stop stop-color="#FE5468"/>
<stop offset="1" stop-color="#FFDF27"/>
</linearGradient>
<linearGradient id="paint3_linear_7416_31900" x1="8" y1="7.375" x2="10.3961" y2="7.89325" gradientUnits="userSpaceOnUse">
<stop stop-color="#FE5468"/>
<stop offset="1" stop-color="#FFDF27"/>
</linearGradient>
</defs>
</svg>
