<svg width="15" height="15" viewBox="0 0 15 15" fill="none" xmlns="http://www.w3.org/2000/svg">
<g clip-path="url(#clip0_10823_38614)">
<path fill-rule="evenodd" clip-rule="evenodd" d="M3.67816 7.09091C3.67816 7.94444 3.01945 8.63636 2.2069 8.63636V10.1818C3.01945 10.1818 3.67816 10.8737 3.67816 11.7273V13.2727C3.67816 14.1263 3.01945 14.8182 2.2069 14.8182V15H1.47126V14.8182C0.658707 14.8182 0 14.1263 0 13.2727V11.7273C0 10.8737 0.658708 10.1818 1.47126 10.1818L1.47126 8.63636C0.658707 8.63636 0 7.94444 0 7.09091V5.54545C0 4.69192 0.658708 4 1.47126 4H2.2069C3.01945 4 3.67816 4.69192 3.67816 5.54545V7.09091ZM1.47126 4.77273H2.2069C2.61318 4.77273 2.94253 5.11869 2.94253 5.54545V7.09091C2.94253 7.51767 2.61318 7.86364 2.2069 7.86364V7.09091H1.47126L1.47126 7.86364C1.06499 7.86364 0.735632 7.51767 0.735632 7.09091V5.54545C0.735632 5.11869 1.06499 4.77273 1.47126 4.77273ZM2.2069 14.0455C2.61318 14.0455 2.94253 13.6995 2.94253 13.2727V11.7273C2.94253 11.3005 2.61318 10.9545 2.2069 10.9545V11.7273H1.47126V10.9545C1.06499 10.9545 0.735632 11.3005 0.735632 11.7273V13.2727C0.735632 13.6995 1.06499 14.0455 1.47126 14.0455L1.47126 13.2727H2.2069V14.0455Z" fill="url(#paint0_linear_10823_38614)"/>
<path fill-rule="evenodd" clip-rule="evenodd" d="M7.61276 15C7.39185 14.4397 6.86619 14.0455 6.25287 14.0455V11.7273C7.06543 11.7273 7.72414 11.0353 7.72414 10.1818V8.63636C7.72414 7.78283 7.06543 7.09091 6.25287 7.09091H5.51724C4.70469 7.09091 4.04598 7.78283 4.04598 8.63636V10.1818C4.04598 11.0353 4.70468 11.7273 5.51724 11.7273V14.0455C4.90393 14.0455 4.37827 14.4397 4.15735 15H7.61276ZM6.25287 7.86364H5.51724C5.11096 7.86364 4.78161 8.2096 4.78161 8.63636V10.1818C4.78161 10.6086 5.11096 10.9545 5.51724 10.9545V10.1818H6.25287V10.9545C6.65915 10.9545 6.98851 10.6086 6.98851 10.1818V8.63636C6.98851 8.2096 6.65915 7.86364 6.25287 7.86364Z" fill="url(#paint1_linear_10823_38614)"/>
<path d="M14 14H8.68966V15H14V14Z" fill="url(#paint2_linear_10823_38614)"/>
<path d="M6.17222 2.09163C5.65206 2.60705 5.2722 3.4076 5.2722 4.55004H4C4 3.09243 4.49478 1.94295 5.28658 1.15836C6.0709 0.381177 7.10867 -6.97355e-06 8.13465 0C9.16063 7.01268e-06 10.1984 0.381204 10.9827 1.15839C11.7745 1.94298 12.2693 3.09245 12.2693 4.55004V10.7808L13.9141 9.1C14.1625 8.84616 14.5653 8.84616 14.8137 9.1C15.0621 9.35384 15.0621 9.7654 14.8137 10.0192L12.083 12.8096C11.8346 13.0635 11.4318 13.0635 11.1834 12.8096L8.4527 10.0192C8.20428 9.7654 8.20428 9.35384 8.4527 9.1C8.70111 8.84616 9.10386 8.84616 9.35228 9.1L10.9971 10.7808V4.55004C10.9971 3.40763 10.6172 2.60708 10.0971 2.09165C9.56945 1.56883 8.85794 1.3 8.13464 1.3C7.41135 1.29999 6.69984 1.56881 6.17222 2.09163Z" fill="url(#paint3_linear_10823_38614)"/>
</g>
<defs>
<linearGradient id="paint0_linear_10823_38614" x1="7" y1="4" x2="7" y2="15" gradientUnits="userSpaceOnUse">
<stop stop-color="#10808C"/>
<stop offset="1" stop-color="#1DF7EF"/>
</linearGradient>
<linearGradient id="paint1_linear_10823_38614" x1="7" y1="4" x2="7" y2="15" gradientUnits="userSpaceOnUse">
<stop stop-color="#10808C"/>
<stop offset="1" stop-color="#1DF7EF"/>
</linearGradient>
<linearGradient id="paint2_linear_10823_38614" x1="7" y1="4" x2="7" y2="15" gradientUnits="userSpaceOnUse">
<stop stop-color="#10808C"/>
<stop offset="1" stop-color="#1DF7EF"/>
</linearGradient>
<linearGradient id="paint3_linear_10823_38614" x1="9.5" y1="0" x2="18.6389" y2="10.8717" gradientUnits="userSpaceOnUse">
<stop stop-color="#FE5468"/>
<stop offset="1" stop-color="#FFDF27"/>
</linearGradient>
<clipPath id="clip0_10823_38614">
<rect width="15" height="15" fill="white"/>
</clipPath>
</defs>
</svg>
