<svg width="15" height="15" viewBox="0 0 15 15" fill="none" xmlns="http://www.w3.org/2000/svg">
<path d="M3.61144 0C3.09574 0 2.60116 0.215502 2.23651 0.5991C1.87185 0.982697 1.66699 1.50297 1.66699 2.04545V5.5H2.96329V2.04545C2.96329 1.86462 3.03158 1.6912 3.15313 1.56334C3.27468 1.43547 3.43954 1.36364 3.61144 1.36364H8.52815L12.0374 5.05515V5.5H12.6064C13.008 5.5 13.3337 5.17439 13.3337 4.77273C13.3337 4.5919 13.2654 4.41848 13.1438 4.29061L9.25493 0.1997C9.13338 0.0718342 8.96852 0 8.79662 0H3.61144Z" fill="url(#paint0_linear_177_30606)"/>
<path d="M13.3337 12.5H12.0374V12.9545C12.0374 13.1354 11.9691 13.3088 11.8475 13.4367C11.726 13.5645 11.5611 13.6364 11.3892 13.6364H3.61144C3.43954 13.6364 3.27468 13.5645 3.15313 13.4367C3.03158 13.3088 2.96329 13.1354 2.96329 12.9545V12.5H1.66699V12.9545C1.66699 13.497 1.87185 14.0173 2.23651 14.4009C2.60116 14.7845 3.09574 15 3.61144 15H11.3892C11.9049 15 12.3995 14.7845 12.7641 14.4009C13.1288 14.0173 13.3337 13.497 13.3337 12.9545V12.5Z" fill="url(#paint1_linear_177_30606)"/>
<path fill-rule="evenodd" clip-rule="evenodd" d="M8.95834 0C9.30352 0 9.58334 0.326459 9.58334 0.729167V4.16667H12.7083C13.0535 4.16667 13.3333 4.49313 13.3333 4.89583C13.3333 5.29854 13.0535 5.625 12.7083 5.625H8.95834C8.61317 5.625 8.33334 5.29854 8.33334 4.89583V0.729167C8.33334 0.326459 8.61317 0 8.95834 0Z" fill="url(#paint2_linear_177_30606)"/>
<path d="M0.5 11.505V6.535H2.607C2.83567 6.535 3.04567 6.58167 3.237 6.675C3.42833 6.76833 3.594 6.89433 3.734 7.053C3.87867 7.21167 3.99067 7.389 4.07 7.585C4.14933 7.781 4.189 7.98167 4.189 8.187C4.189 8.467 4.12367 8.733 3.993 8.985C3.86233 9.237 3.68267 9.44233 3.454 9.601C3.22533 9.75967 2.95467 9.839 2.642 9.839H1.466V11.505H0.5ZM1.466 8.992H2.586C2.70267 8.992 2.80767 8.95933 2.901 8.894C2.99433 8.82867 3.069 8.73533 3.125 8.614C3.181 8.488 3.209 8.34567 3.209 8.187C3.209 8.01433 3.17633 7.86733 3.111 7.746C3.05033 7.62467 2.96867 7.53367 2.866 7.473C2.768 7.41233 2.66067 7.382 2.544 7.382H1.466V8.992Z" fill="url(#paint3_linear_177_30606)"/>
<path d="M5.661 8.313V11.505H4.695V6.535H5.465L8.034 9.811V6.542H9V11.505H8.195L5.661 8.313Z" fill="url(#paint4_linear_177_30606)"/>
<path d="M11.859 11.54C11.537 11.54 11.2313 11.4747 10.942 11.344C10.6573 11.2133 10.4053 11.0337 10.186 10.805C9.97133 10.5717 9.80333 10.301 9.682 9.993C9.56067 9.685 9.5 9.35133 9.5 8.992C9.5 8.65133 9.56067 8.33167 9.682 8.033C9.80333 7.72967 9.97367 7.46367 10.193 7.235C10.4123 7.00633 10.669 6.82667 10.963 6.696C11.257 6.56533 11.5767 6.5 11.922 6.5C12.3887 6.5 12.7877 6.60033 13.119 6.801C13.455 6.997 13.707 7.25833 13.875 7.585L13.154 8.117C13.028 7.86967 12.8507 7.68067 12.622 7.55C12.398 7.41933 12.153 7.354 11.887 7.354C11.677 7.354 11.4857 7.39833 11.313 7.487C11.1403 7.57567 10.991 7.697 10.865 7.851C10.739 8.005 10.641 8.18233 10.571 8.383C10.5057 8.58367 10.473 8.796 10.473 9.02C10.473 9.258 10.508 9.47733 10.578 9.678C10.6527 9.87867 10.7553 10.0537 10.886 10.203C11.0213 10.3523 11.1777 10.4713 11.355 10.56C11.5323 10.644 11.7283 10.686 11.943 10.686C12.195 10.686 12.4353 10.6207 12.664 10.49C12.8973 10.3593 13.1143 10.168 13.315 9.916V10.868C12.8997 11.316 12.4143 11.54 11.859 11.54ZM13.245 9.657H12.244V8.95H14.043V11.505H13.245V9.657Z" fill="url(#paint5_linear_177_30606)"/>
<defs>
<linearGradient id="paint0_linear_177_30606" x1="7.50033" y1="0" x2="7.50033" y2="15" gradientUnits="userSpaceOnUse">
<stop stop-color="#10808C"/>
<stop offset="1" stop-color="#1DF7EF"/>
</linearGradient>
<linearGradient id="paint1_linear_177_30606" x1="7.50033" y1="0" x2="7.50033" y2="15" gradientUnits="userSpaceOnUse">
<stop stop-color="#10808C"/>
<stop offset="1" stop-color="#1DF7EF"/>
</linearGradient>
<linearGradient id="paint2_linear_177_30606" x1="10.8333" y1="0" x2="10.8333" y2="5.625" gradientUnits="userSpaceOnUse">
<stop stop-color="#FE5468"/>
<stop offset="1" stop-color="#FFDF27"/>
</linearGradient>
<linearGradient id="paint3_linear_177_30606" x1="7.2715" y1="6.5" x2="7.2715" y2="11.54" gradientUnits="userSpaceOnUse">
<stop stop-color="#FE5468"/>
<stop offset="1" stop-color="#FFDF27"/>
</linearGradient>
<linearGradient id="paint4_linear_177_30606" x1="7.2715" y1="6.5" x2="7.2715" y2="11.54" gradientUnits="userSpaceOnUse">
<stop stop-color="#FE5468"/>
<stop offset="1" stop-color="#FFDF27"/>
</linearGradient>
<linearGradient id="paint5_linear_177_30606" x1="7.2715" y1="6.5" x2="7.2715" y2="11.54" gradientUnits="userSpaceOnUse">
<stop stop-color="#FE5468"/>
<stop offset="1" stop-color="#FFDF27"/>
</linearGradient>
</defs>
</svg>
