<svg width="15" height="15" viewBox="0 0 15 15" fill="none" xmlns="http://www.w3.org/2000/svg">
<g clip-path="url(#clip0_177_29501)">
<path d="M7.56569 8.7171C7.39552 8.54693 7.25164 8.37173 7.13405 8.19152C7.01637 8.00076 6.94068 7.7946 6.907 7.57302C6.87332 7.35145 6.89208 7.10402 6.96327 6.83074C6.98848 6.70981 7.02659 6.56003 7.0776 6.38139C7.13383 6.19753 7.17686 6.01092 7.20669 5.82154C7.23121 5.62685 7.22417 5.43714 7.18556 5.25239C7.14686 5.05711 7.05305 4.88501 6.90415 4.73611C6.75525 4.58721 6.59375 4.49878 6.41964 4.47081C6.25075 4.43762 6.0823 4.45184 5.9143 4.51349C5.75151 4.56992 5.60488 4.66337 5.4744 4.79385C5.32304 4.94521 5.22191 5.11548 5.171 5.30465C5.11477 5.48851 5.09276 5.67005 5.10497 5.84928C5.11719 6.02851 5.14511 6.19736 5.18874 6.35581L4.02901 6.55831C3.90493 6.24633 3.84667 5.93233 3.85425 5.61632C3.86705 5.29508 3.94056 4.98758 4.07478 4.69382C4.21422 4.39485 4.40137 4.12792 4.63624 3.89306C4.83457 3.69473 5.0622 3.53091 5.31913 3.40161C5.57074 3.267 5.83865 3.18522 6.12285 3.15627C6.40706 3.12732 6.69452 3.16425 6.98523 3.26707C7.27594 3.36988 7.55956 3.55956 7.83609 3.83609C8.00626 4.00626 8.13694 4.1787 8.22814 4.3534C8.32455 4.52288 8.3894 4.69734 8.42269 4.87676C8.45588 5.04565 8.46282 5.22483 8.44352 5.41431C8.42422 5.60378 8.39444 5.79842 8.35416 5.99823C8.30355 6.21902 8.24767 6.43976 8.18651 6.66044C8.13058 6.87591 8.11148 7.08646 8.12921 7.29208C8.14684 7.48717 8.24606 7.67511 8.42687 7.85592L7.56569 8.7171ZM9.43995 10.56L8.33915 9.45924L9.20815 8.59024L10.309 9.69104L9.43995 10.56Z" fill="url(#paint0_linear_177_29501)"/>
<path fill-rule="evenodd" clip-rule="evenodd" d="M0 1.42365C0 0.637389 0.637411 0 1.4237 0H7.25385C7.63144 0 7.99356 0.149992 8.26056 0.416978L7.37669 1.30088C7.34412 1.26831 7.29993 1.25 7.25385 1.25H3.85462C3.94837 1.48161 4 1.73477 4 2C4 3.10457 3.10457 4 2 4C1.73477 4 1.48161 3.94837 1.25 3.85462V7.25463C1.25 7.30067 1.26829 7.34484 1.30086 7.3774L7.62279 13.6991C7.69063 13.767 7.80063 13.767 7.86847 13.6991L13.6991 7.86866C13.767 7.80085 13.767 7.69092 13.6991 7.62311L7.37669 1.30088L8.26056 0.416978L14.583 6.73921C15.139 7.29518 15.139 8.19658 14.583 8.75255L8.75234 14.583C8.19635 15.139 7.29491 15.139 6.73893 14.583L0.416991 8.2613C0.149996 7.99432 0 7.63221 0 7.25463V1.42365ZM2 1.25C1.58579 1.25 1.25 1.58579 1.25 2C1.25 2.41421 1.58579 2.75 2 2.75C2.41421 2.75 2.75 2.41421 2.75 2C2.75 1.58579 2.41421 1.25 2 1.25Z" fill="url(#paint1_linear_177_29501)"/>
</g>
<defs>
<linearGradient id="paint0_linear_177_29501" x1="4.63232" y1="3.89697" x2="10.3677" y2="9.63232" gradientUnits="userSpaceOnUse">
<stop stop-color="#FE5468"/>
<stop offset="1" stop-color="#FFDF27"/>
</linearGradient>
<linearGradient id="paint1_linear_177_29501" x1="7.5" y1="0" x2="7.5" y2="15" gradientUnits="userSpaceOnUse">
<stop stop-color="#10808C"/>
<stop offset="1" stop-color="#1DF7EF"/>
</linearGradient>
<clipPath id="clip0_177_29501">
<rect width="15" height="15" fill="white"/>
</clipPath>
</defs>
</svg>
