<svg width="15" height="15" viewBox="0 0 15 15" fill="none" xmlns="http://www.w3.org/2000/svg">
<g clip-path="url(#clip0_177_30114)">
<path d="M9.76924 1.85143C9.76924 2.87394 8.73191 3.70285 7.4523 3.70285C6.17269 3.70285 5.13536 2.87394 5.13536 1.85143C5.13536 0.828911 6.17269 0 7.4523 0C8.73191 0 9.76924 0.828911 9.76924 1.85143Z" fill="url(#paint0_linear_177_30114)"/>
<path d="M9.45928 3.70285C9.05867 4.25624 8.3099 4.62856 7.4523 4.62856C6.5947 4.62856 5.84593 4.25624 5.44532 3.70285C5.24818 3.97517 5.13536 4.29134 5.13536 4.62856C5.13536 5.65108 6.17269 6.47999 7.4523 6.47999C8.73191 6.47999 9.76924 5.65108 9.76924 4.62856C9.76924 4.29134 9.65641 3.97517 9.45928 3.70285Z" fill="url(#paint1_linear_177_30114)"/>
<path d="M7.4523 7.4057C8.3099 7.4057 9.05867 7.03338 9.45928 6.47999C9.65641 6.75231 9.76924 7.06847 9.76924 7.4057C9.76924 8.42821 8.73191 9.25713 7.4523 9.25713C6.17269 9.25713 5.13536 8.42821 5.13536 7.4057C5.13536 7.06847 5.24818 6.75231 5.44532 6.47999C5.84593 7.03338 6.5947 7.4057 7.4523 7.4057Z" fill="url(#paint2_linear_177_30114)"/>
<path d="M12 10.6277C11.715 10.4908 11.4627 10.2979 11.2578 10.0636L8.91997 12.2884C9.16105 12.4833 9.36155 12.7252 9.50709 13L12 10.6277Z" fill="url(#paint3_linear_177_30114)"/>
<path d="M6.01713 12.2626C5.77238 12.4533 5.56759 12.6918 5.41716 12.9637L3 10.5791C3.27563 10.4307 3.51733 10.2287 3.71069 9.98723L6.01713 12.2626Z" fill="url(#paint4_linear_177_30114)"/>
<path d="M3 8.33333C3 9.06971 2.32843 9.66667 1.5 9.66667C0.671573 9.66667 0 9.06971 0 8.33333C0 7.59695 0.671573 7 1.5 7C2.32843 7 3 7.59695 3 8.33333Z" fill="url(#paint5_linear_177_30114)"/>
<path d="M9 13.6667C9 14.403 8.32843 15 7.5 15C6.67157 15 6 14.403 6 13.6667C6 12.9303 6.67157 12.3333 7.5 12.3333C8.32843 12.3333 9 12.9303 9 13.6667Z" fill="url(#paint6_linear_177_30114)"/>
<path d="M13.5 9.66667C14.3284 9.66667 15 9.06971 15 8.33333C15 7.59695 14.3284 7 13.5 7C12.6716 7 12 7.59695 12 8.33333C12 9.06971 12.6716 9.66667 13.5 9.66667Z" fill="url(#paint7_linear_177_30114)"/>
</g>
<defs>
<linearGradient id="paint0_linear_177_30114" x1="7.5" y1="0" x2="7.5" y2="13" gradientUnits="userSpaceOnUse">
<stop stop-color="#10808C"/>
<stop offset="1" stop-color="#1DF7EF"/>
</linearGradient>
<linearGradient id="paint1_linear_177_30114" x1="7.5" y1="0" x2="7.5" y2="13" gradientUnits="userSpaceOnUse">
<stop stop-color="#10808C"/>
<stop offset="1" stop-color="#1DF7EF"/>
</linearGradient>
<linearGradient id="paint2_linear_177_30114" x1="7.5" y1="0" x2="7.5" y2="13" gradientUnits="userSpaceOnUse">
<stop stop-color="#10808C"/>
<stop offset="1" stop-color="#1DF7EF"/>
</linearGradient>
<linearGradient id="paint3_linear_177_30114" x1="7.5" y1="0" x2="7.5" y2="13" gradientUnits="userSpaceOnUse">
<stop stop-color="#10808C"/>
<stop offset="1" stop-color="#1DF7EF"/>
</linearGradient>
<linearGradient id="paint4_linear_177_30114" x1="7.5" y1="0" x2="7.5" y2="13" gradientUnits="userSpaceOnUse">
<stop stop-color="#10808C"/>
<stop offset="1" stop-color="#1DF7EF"/>
</linearGradient>
<linearGradient id="paint5_linear_177_30114" x1="7.5" y1="7" x2="7.5" y2="15" gradientUnits="userSpaceOnUse">
<stop stop-color="#FE5468"/>
<stop offset="1" stop-color="#FFDF27"/>
</linearGradient>
<linearGradient id="paint6_linear_177_30114" x1="7.5" y1="7" x2="7.5" y2="15" gradientUnits="userSpaceOnUse">
<stop stop-color="#FE5468"/>
<stop offset="1" stop-color="#FFDF27"/>
</linearGradient>
<linearGradient id="paint7_linear_177_30114" x1="7.5" y1="7" x2="7.5" y2="15" gradientUnits="userSpaceOnUse">
<stop stop-color="#FE5468"/>
<stop offset="1" stop-color="#FFDF27"/>
</linearGradient>
<clipPath id="clip0_177_30114">
<rect width="15" height="15" fill="white"/>
</clipPath>
</defs>
</svg>
