<svg width="24" height="24" viewBox="0 0 24 24" fill="none" xmlns="http://www.w3.org/2000/svg">
<path d="M8.92197 20C8.25839 20 7.78161 20.6889 8.10244 21.3105C8.939 22.9313 10.3723 24 12 24C13.6277 24 15.061 22.9313 15.8976 21.3105C16.2184 20.6889 15.7416 20 15.078 20C14.6848 20 14.339 20.2565 14.1205 20.6063C13.5524 21.5157 12.7228 22 12 22C11.2772 22 10.4476 21.5157 9.87953 20.6063C9.661 20.2565 9.3152 20 8.92197 20Z" fill="url(#paint0_linear_3218_88191)"/>
<path fill-rule="evenodd" clip-rule="evenodd" d="M12.0042 0C13.8607 0 15.6413 0.762683 16.9541 2.11979C18.2666 3.47684 19.0042 5.31726 19.0042 7.23633C19.0042 10.702 19.721 14.2798 20.3818 15.5326C20.7136 16.1614 21.0369 16.5741 21.2614 16.819C21.6538 17.2472 22.1675 17.5609 21.9612 18.2656C21.8335 18.7016 21.4448 19 21.0042 19H3.0042C2.56357 19 2.17486 18.7016 2.04717 18.2656C1.84089 17.5609 2.35461 17.2472 2.74704 16.819C2.97147 16.5741 3.29482 16.1614 3.6266 15.5326C4.28738 14.2798 5.0042 10.702 5.0042 7.23633C5.00425 5.31726 5.74176 3.47684 7.05433 2.11979C8.36708 0.762684 10.1477 0 12.0042 0ZM8.4684 3.58138C7.53081 4.55069 7.00425 5.86554 7.0042 7.23633C7.0042 11.0067 6.22158 14.9322 5.38246 16.5228C5.30636 16.667 5.22938 16.8034 5.15329 16.9323H18.8551C18.779 16.8034 18.702 16.667 18.6259 16.5228C17.7868 14.9322 17.0042 11.0067 17.0042 7.23633C17.0042 5.86554 16.4776 4.55069 15.54 3.58138C14.6023 2.61202 13.3303 2.06771 12.0042 2.06771C10.6665 2.10282 9.40671 2.61136 8.4684 3.58138Z" fill="url(#paint1_linear_3218_88191)"/>
<defs>
<linearGradient id="paint0_linear_3218_88191" x1="12" y1="20" x2="12" y2="24" gradientUnits="userSpaceOnUse">
<stop stop-color="#10808C"/>
<stop offset="1" stop-color="#1DF7EF"/>
</linearGradient>
<linearGradient id="paint1_linear_3218_88191" x1="12.0042" y1="0" x2="12.0042" y2="19" gradientUnits="userSpaceOnUse">
<stop stop-color="#FE5468"/>
<stop offset="1" stop-color="#FFDF27"/>
</linearGradient>
</defs>
</svg>
