<svg width="16" height="15" viewBox="0 0 16 15" fill="none" xmlns="http://www.w3.org/2000/svg">
<g clip-path="url(#clip0_7416_32378)">
<path fill-rule="evenodd" clip-rule="evenodd" d="M0.502749 3.91218C0.447046 2.9188 1.24506 2.08301 2.24925 2.08301H13.7507C14.7549 2.08301 15.553 2.9188 15.4973 3.91218L15.1653 9.83218C15.1256 10.5396 14.5097 11.0783 13.7963 11.0296L8.17812 10.6457C8.14588 10.6435 8.11416 10.6546 8.09053 10.6765L5.45427 13.1143C4.95253 13.5782 4.13198 13.2589 4.08308 12.5807L3.95549 10.8109C3.95063 10.7435 3.88879 10.6946 3.82144 10.7049L2.30593 10.9359C1.55713 11.05 0.872134 10.4997 0.83011 9.75027L0.502749 3.91218ZM2.24925 2.77623C1.64674 2.77623 1.16793 3.2777 1.20135 3.87373L1.52871 9.71182C1.54781 10.0525 1.85917 10.3026 2.19954 10.2507L3.71505 10.0197C4.18648 9.94788 4.6194 10.2901 4.65339 10.7615L4.78098 12.5313C4.78796 12.6282 4.90519 12.6738 4.97686 12.6075L7.61313 10.1697C7.77852 10.0168 8.00056 9.93869 8.22626 9.95411L13.8444 10.338C14.1687 10.3602 14.4487 10.1153 14.4667 9.79372L14.7987 3.87373C14.8321 3.2777 14.3533 2.77623 13.7507 2.77623H2.24925Z" fill="url(#paint0_linear_7416_32378)"/>
<path d="M3.83301 7.48264V5.01736H5.63119V5.51736H4.44484V6.04861H5.42227V6.51042H4.44484V7.48264H3.83301Z" fill="url(#paint1_linear_7416_32378)"/>
<path d="M7.47073 5.01736H8.13106L9.04134 7.48264H8.41459L8.2094 6.93056H7.38492L7.18347 7.48264H6.55671L7.47073 5.01736ZM8.10867 6.53819L7.79903 5.59028L7.48192 6.53819H8.10867Z" fill="url(#paint2_linear_7416_32378)"/>
<path d="M11.225 7.5C11.0261 7.5 10.8458 7.46528 10.6841 7.39583C10.5249 7.32639 10.3869 7.23264 10.27 7.11458C10.1556 6.99421 10.0673 6.85995 10.0051 6.71181C9.94294 6.56134 9.91185 6.40625 9.91185 6.24653C9.91185 6.08218 9.94418 5.92593 10.0088 5.77778C10.076 5.62731 10.168 5.49421 10.2849 5.37847C10.4043 5.26273 10.5448 5.1713 10.7065 5.10417C10.8681 5.03472 11.0447 5 11.2362 5C11.4327 5 11.6105 5.03588 11.7697 5.10764C11.9314 5.1794 12.0694 5.27546 12.1838 5.39583C12.3007 5.5162 12.3903 5.65162 12.4524 5.80208C12.5146 5.95023 12.5457 6.10185 12.5457 6.25694C12.5457 6.4213 12.5134 6.57755 12.4487 6.72569C12.384 6.87384 12.292 7.00694 12.1726 7.125C12.0533 7.24074 11.9127 7.33218 11.7511 7.39931C11.5919 7.46643 11.4166 7.5 11.225 7.5ZM11.2288 6.99306C11.3457 6.99306 11.4476 6.97222 11.5347 6.93056C11.6217 6.88657 11.6939 6.82986 11.7511 6.76042C11.8083 6.68866 11.8506 6.6088 11.8779 6.52083C11.9078 6.43056 11.9227 6.33912 11.9227 6.24653C11.9227 6.15162 11.9078 6.06019 11.8779 5.97222C11.8481 5.88194 11.8033 5.80208 11.7436 5.73264C11.6839 5.66319 11.6105 5.6088 11.5235 5.56944C11.4364 5.52778 11.3382 5.50694 11.2288 5.50694C11.1119 5.50694 11.0099 5.52894 10.9229 5.57292C10.8383 5.61458 10.7662 5.6713 10.7065 5.74306C10.6493 5.8125 10.6058 5.89236 10.5759 5.98264C10.5485 6.0706 10.5349 6.16088 10.5349 6.25347C10.5349 6.34838 10.5498 6.43981 10.5796 6.52778C10.6095 6.61574 10.653 6.6956 10.7102 6.76736C10.7699 6.83681 10.8433 6.89236 10.9303 6.93403C11.0174 6.97338 11.1169 6.99306 11.2288 6.99306ZM11.0646 6.51042H11.6391L12.583 7.48264H12.0085L11.0646 6.51042Z" fill="url(#paint3_linear_7416_32378)"/>
</g>
<defs>
<linearGradient id="paint0_linear_7416_32378" x1="8" y1="2.08301" x2="8" y2="13.333" gradientUnits="userSpaceOnUse">
<stop stop-color="#10808C"/>
<stop offset="1" stop-color="#1DF7EF"/>
</linearGradient>
<linearGradient id="paint1_linear_7416_32378" x1="8.20801" y1="5" x2="8.90437" y2="8.42655" gradientUnits="userSpaceOnUse">
<stop stop-color="#FE5468"/>
<stop offset="1" stop-color="#FFDF27"/>
</linearGradient>
<linearGradient id="paint2_linear_7416_32378" x1="8.20801" y1="5" x2="8.90437" y2="8.42655" gradientUnits="userSpaceOnUse">
<stop stop-color="#FE5468"/>
<stop offset="1" stop-color="#FFDF27"/>
</linearGradient>
<linearGradient id="paint3_linear_7416_32378" x1="8.20801" y1="5" x2="8.90437" y2="8.42655" gradientUnits="userSpaceOnUse">
<stop stop-color="#FE5468"/>
<stop offset="1" stop-color="#FFDF27"/>
</linearGradient>
<clipPath id="clip0_7416_32378">
<rect width="15" height="15" fill="white" transform="translate(0.5)"/>
</clipPath>
</defs>
</svg>
