<svg width="15" height="15" viewBox="0 0 15 15" fill="none" xmlns="http://www.w3.org/2000/svg">
<path fill-rule="evenodd" clip-rule="evenodd" d="M3.11626 14.999L0.707062 14.8553C0.413707 14.8379 0.161743 14.5859 0.144285 14.2926L0.000956356 11.8837C-0.0165019 11.5903 0.207157 11.3667 0.500512 11.3841C0.793867 11.4016 1.04583 11.6536 1.06329 11.9469L1.1303 13.0734L2.48773 11.716C2.55886 11.6448 2.67418 11.6448 2.74531 11.716L3.28362 12.2543C3.35475 12.3254 3.35475 12.4407 3.28362 12.5118L1.92619 13.8693L3.05303 13.9367C3.34639 13.9541 3.59835 14.2061 3.61581 14.4994C3.63327 14.7928 3.40961 15.0164 3.11626 14.999Z" fill="url(#paint0_linear_177_30482)"/>
<path fill-rule="evenodd" clip-rule="evenodd" d="M11.8837 0.00100946L14.2929 0.144664C14.5863 0.162122 14.8383 0.414086 14.8557 0.707441L14.999 3.11631C15.0165 3.40966 14.7928 3.63332 14.4995 3.61586C14.2061 3.59841 13.9542 3.34644 13.9367 3.05309L13.8697 1.92657L12.5123 3.28404C12.4411 3.35517 12.3258 3.35517 12.2547 3.28404L11.7164 2.74573C11.6453 2.6746 11.6453 2.55928 11.7164 2.48816L13.0738 1.13068L11.947 1.06334C11.6536 1.04588 11.4016 0.79392 11.3842 0.500565C11.3667 0.20721 11.5904 -0.0164487 11.8837 0.00100946Z" fill="url(#paint1_linear_177_30482)"/>
<path d="M7.59211 9.71947L5.07971 8.24048L7.59211 11.7617L10.1045 8.24048L7.59211 9.71947Z" fill="url(#paint2_linear_177_30482)"/>
<path d="M7.59213 3.60486L10.1045 7.76408L7.59213 9.24716L5.07971 7.76427L7.59213 3.60486Z" fill="url(#paint3_linear_177_30482)"/>
<circle cx="12.5437" cy="12.5435" r="0.781813" fill="url(#paint4_linear_177_30482)"/>
<circle cx="2.6407" cy="2.64058" r="0.781813" fill="url(#paint5_linear_177_30482)"/>
<path d="M10.7194 12.2829V13.3254H4.46493V12.2829H10.7194ZM12.2831 10.7193V4.46481C12.2831 3.62821 11.626 2.94508 10.7999 2.90322L10.7194 2.90118H4.46493C3.62834 2.90118 2.9452 3.55819 2.90334 4.38439L2.9013 4.46481V10.7193C2.9013 11.5829 3.60136 12.2829 4.46493 12.2829V13.3254L4.33107 13.3218C2.99834 13.2544 1.92989 12.1859 1.86245 10.8532L1.85889 10.7193V4.46481C1.85889 3.07043 2.954 1.93201 4.33107 1.86233L4.46493 1.85876H10.7194L10.8533 1.86233C12.2304 1.93201 13.3255 3.07043 13.3255 4.46481V10.7193L13.3219 10.8532C13.2545 12.1859 12.186 13.2544 10.8533 13.3218L10.7194 13.3254V12.2829C11.583 12.2829 12.2831 11.5829 12.2831 10.7193Z" fill="url(#paint6_linear_177_30482)"/>
<defs>
<linearGradient id="paint0_linear_177_30482" x1="1.80838" y1="11.3832" x2="1.80838" y2="14.9999" gradientUnits="userSpaceOnUse">
<stop stop-color="#FE5468"/>
<stop offset="1" stop-color="#FFDF27"/>
</linearGradient>
<linearGradient id="paint1_linear_177_30482" x1="13.1916" y1="3.61682" x2="13.1916" y2="5.34058e-05" gradientUnits="userSpaceOnUse">
<stop stop-color="#FE5468"/>
<stop offset="1" stop-color="#FFDF27"/>
</linearGradient>
<linearGradient id="paint2_linear_177_30482" x1="7.59213" y1="8.24048" x2="7.59213" y2="11.7617" gradientUnits="userSpaceOnUse">
<stop stop-color="#10808C"/>
<stop offset="1" stop-color="#1DF7EF"/>
</linearGradient>
<linearGradient id="paint3_linear_177_30482" x1="7.59209" y1="3.60486" x2="7.59209" y2="9.24716" gradientUnits="userSpaceOnUse">
<stop stop-color="#FE5468"/>
<stop offset="1" stop-color="#FFDF27"/>
</linearGradient>
<linearGradient id="paint4_linear_177_30482" x1="12.5437" y1="11.7617" x2="12.5437" y2="13.3253" gradientUnits="userSpaceOnUse">
<stop stop-color="#FE5468"/>
<stop offset="1" stop-color="#FFDF27"/>
</linearGradient>
<linearGradient id="paint5_linear_177_30482" x1="2.6407" y1="1.85876" x2="2.6407" y2="3.42239" gradientUnits="userSpaceOnUse">
<stop stop-color="#FE5468"/>
<stop offset="1" stop-color="#FFDF27"/>
</linearGradient>
<linearGradient id="paint6_linear_177_30482" x1="7.59218" y1="1.85876" x2="7.59218" y2="13.3254" gradientUnits="userSpaceOnUse">
<stop stop-color="#10808C"/>
<stop offset="1" stop-color="#1DF7EF"/>
</linearGradient>
</defs>
</svg>
