<svg width="15" height="15" viewBox="0 0 15 15" fill="none" xmlns="http://www.w3.org/2000/svg">
<g clip-path="url(#clip0_22419_49281)">
<path d="M11.3821 12.8682C11.7508 13.2668 11.7654 13.8877 11.3984 14.3037C11.0313 14.7197 10.4131 14.7828 9.97164 14.4665L9.88585 14.3983L4.42122 9.5765C3.01639 8.33693 2.97277 6.17618 4.28981 4.87903L4.42122 4.75598L9.88585 -0.0657922L9.97164 -0.134011C10.4131 -0.450356 11.0313 -0.387186 11.3984 0.0287934C11.7654 0.444741 11.7508 1.06573 11.3821 1.46432L11.3038 1.54133L5.83917 6.36268L5.79523 6.4037C5.35615 6.83608 5.37087 7.55659 5.83917 7.9698L11.3038 12.7912L11.3821 12.8682Z" fill="url(#paint0_linear_22419_49281)"/>
</g>
<defs>
<linearGradient id="paint0_linear_22419_49281" x1="11.6662" y1="7.16624" x2="3.33376" y2="7.16624" gradientUnits="userSpaceOnUse">
<stop stop-color="#FE5468"/>
<stop offset="1" stop-color="#FFDF27"/>
</linearGradient>
<clipPath id="clip0_22419_49281">
<rect width="15" height="15" fill="white"/>
</clipPath>
</defs>
</svg>
