<svg width="24" height="24" viewBox="0 0 24 24" fill="none" xmlns="http://www.w3.org/2000/svg">
<path fill-rule="evenodd" clip-rule="evenodd" d="M12 1C12.3806 1 12.7282 1.21587 12.8967 1.55685L15.7543 7.34043L22.1446 8.27359C22.5212 8.32857 22.8338 8.59233 22.9512 8.95399C23.0686 9.31565 22.9703 9.71253 22.6977 9.97781L18.0745 14.4765L19.1656 20.8321C19.2299 21.2069 19.0757 21.5857 18.7677 21.8092C18.4597 22.0327 18.0514 22.0622 17.7145 21.8852L12 18.8828L6.28547 21.8852C5.94855 22.0622 5.54026 22.0327 5.23228 21.8092C4.92431 21.5857 4.77006 21.2069 4.83441 20.8321L5.92549 14.4765L1.3023 9.97781C1.02968 9.71253 0.931406 9.31565 1.04878 8.95399C1.16616 8.59233 1.47884 8.32857 1.8554 8.27359L8.24575 7.34043L11.1033 1.55685C11.2718 1.21587 11.6194 1 12 1ZM12 4.25615L9.80671 8.69529C9.66117 8.98986 9.37999 9.19413 9.05464 9.24164L4.14843 9.95807L7.69774 13.4118C7.93362 13.6413 8.04128 13.9722 7.98562 14.2964L7.14819 19.1744L11.5345 16.8698C11.8259 16.7167 12.1741 16.7167 12.4655 16.8698L16.8518 19.1744L16.0144 14.2964C15.9587 13.9722 16.0664 13.6413 16.3023 13.4118L19.8516 9.95807L14.9454 9.24164C14.62 9.19413 14.3388 8.98986 14.1933 8.69529L12 4.25615Z" fill="url(#paint0_linear_3218_86688)"/>
<defs>
<linearGradient id="paint0_linear_3218_86688" x1="12" y1="1" x2="12" y2="22" gradientUnits="userSpaceOnUse">
<stop stop-color="#FE5468"/>
<stop offset="1" stop-color="#FFDF27"/>
</linearGradient>
</defs>
</svg>
