<svg width="15" height="15" viewBox="0 0 15 15" fill="none" xmlns="http://www.w3.org/2000/svg">
<path d="M6.5 10C6.5 9.44772 6.94772 9 7.5 9C8.05228 9 8.5 9.44772 8.5 10C8.5 10.5523 8.05228 11 7.5 11C6.94772 11 6.5 10.5523 6.5 10Z" fill="url(#paint0_linear_10670_38149)"/>
<path fill-rule="evenodd" clip-rule="evenodd" d="M8.25 4L8.25 8L6.75 8L6.75 4L8.25 4Z" fill="url(#paint1_linear_10670_38149)"/>
<path fill-rule="evenodd" clip-rule="evenodd" d="M7.5 1.37556L1.38005 11.75H13.6199L7.5 1.37556ZM8.45957 0.542017C8.03326 -0.180673 6.96675 -0.180672 6.54043 0.542018L0.149893 11.3751C-0.27619 12.0974 0.256828 13 1.10947 13H13.8905C14.7432 13 15.2762 12.0974 14.8501 11.3752L8.45957 0.542017Z" fill="url(#paint2_linear_10670_38149)"/>
<defs>
<linearGradient id="paint0_linear_10670_38149" x1="7.5" y1="9" x2="8.84823" y2="10.8955" gradientUnits="userSpaceOnUse">
<stop stop-color="#FE5468"/>
<stop offset="1" stop-color="#FFDF27"/>
</linearGradient>
<linearGradient id="paint1_linear_10670_38149" x1="6.75" y1="6" x2="8.74865" y2="5.46689" gradientUnits="userSpaceOnUse">
<stop stop-color="#FE5468"/>
<stop offset="1" stop-color="#FFDF27"/>
</linearGradient>
<linearGradient id="paint2_linear_10670_38149" x1="7.5" y1="0" x2="7.5" y2="13" gradientUnits="userSpaceOnUse">
<stop stop-color="#10808C"/>
<stop offset="1" stop-color="#1DF7EF"/>
</linearGradient>
</defs>
</svg>
