<svg width="15" height="15" viewBox="0 0 15 15" fill="none" xmlns="http://www.w3.org/2000/svg">
<g clip-path="url(#clip0_10569_38798)">
<path fill-rule="evenodd" clip-rule="evenodd" d="M7.5 13.65C10.8966 13.65 13.65 10.8966 13.65 7.5C13.65 4.10345 10.8966 1.35 7.5 1.35C4.10345 1.35 1.35 4.10345 1.35 7.5C1.35 10.8966 4.10345 13.65 7.5 13.65ZM7.5 15C11.6421 15 15 11.6421 15 7.5C15 3.35786 11.6421 0 7.5 0C3.35786 0 0 3.35786 0 7.5C0 11.6421 3.35786 15 7.5 15Z" fill="url(#paint0_linear_10569_38798)"/>
</g>
<defs>
<linearGradient id="paint0_linear_10569_38798" x1="7.5" y1="0" x2="7.5" y2="15" gradientUnits="userSpaceOnUse">
<stop stop-color="#10808C"/>
<stop offset="1" stop-color="#1DF7EF"/>
</linearGradient>
<clipPath id="clip0_10569_38798">
<rect width="15" height="15" fill="white"/>
</clipPath>
</defs>
</svg>
