<svg width="24" height="24" viewBox="0 0 24 24" fill="none" xmlns="http://www.w3.org/2000/svg">
<g clip-path="url(#clip0_3218_86366)">
<path fill-rule="evenodd" clip-rule="evenodd" d="M17.6002 3.2002C18.2314 3.2002 18.7431 3.71187 18.7431 4.34305V8.45734H22.8573C23.4885 8.45734 24.0002 8.96901 24.0002 9.60019C24.0002 10.2314 23.4885 10.7431 22.8573 10.7431H18.7431V14.8573C18.7431 15.4885 18.2314 16.0002 17.6002 16.0002C16.969 16.0002 16.4573 15.4885 16.4573 14.8573V10.7431H12.3431C11.7119 10.7431 11.2002 10.2314 11.2002 9.60019C11.2002 8.96901 11.7119 8.45734 12.3431 8.45734H16.4573V4.34305C16.4573 3.71187 16.969 3.2002 17.6002 3.2002Z" fill="url(#paint0_linear_3218_86366)"/>
<path fill-rule="evenodd" clip-rule="evenodd" d="M2.27792 0C1.01986 0 0 1.01982 0 2.27784V11.6074C0 12.2115 0.239994 12.7909 0.667186 13.2181L10.7823 23.3328C11.6719 24.2224 13.1142 24.2224 14.0037 23.3328L19.7368 17.6H16.9083L12.5896 21.9186C12.481 22.0271 12.305 22.0271 12.1965 21.9186L2.08138 11.8038C2.02926 11.7517 2 11.6811 2 11.6074V6.16739C2.37057 6.3174 2.77564 6.4 3.2 6.4C4.96731 6.4 6.4 4.96731 6.4 3.2C6.4 2.77564 6.3174 2.37057 6.16739 2H11.6062C11.6799 2 11.7506 2.02929 11.8027 2.0814L14.4 4.67861V1.85023L13.2169 0.667164C12.7897 0.239987 12.2103 0 11.6062 0H2.27792ZM2 3.2C2 2.53726 2.53726 2 3.2 2C3.86274 2 4.4 2.53726 4.4 3.2C4.4 3.86274 3.86274 4.4 3.2 4.4C2.53726 4.4 2 3.86274 2 3.2Z" fill="url(#paint1_linear_3218_86366)"/>
</g>
<defs>
<linearGradient id="paint0_linear_3218_86366" x1="17.6002" y1="3.2002" x2="17.6002" y2="16.0002" gradientUnits="userSpaceOnUse">
<stop stop-color="#FE5468"/>
<stop offset="1" stop-color="#FFDF27"/>
</linearGradient>
<linearGradient id="paint1_linear_3218_86366" x1="9.86839" y1="0" x2="9.86839" y2="24" gradientUnits="userSpaceOnUse">
<stop stop-color="#10808C"/>
<stop offset="1" stop-color="#1DF7EF"/>
</linearGradient>
<clipPath id="clip0_3218_86366">
<rect width="24" height="24" fill="white"/>
</clipPath>
</defs>
</svg>
