<svg width="24" height="24" viewBox="0 0 24 24" fill="none" xmlns="http://www.w3.org/2000/svg">
<path fill-rule="evenodd" clip-rule="evenodd" d="M13.0614 1.80393C14.2787 0.633334 15.9092 -0.0143988 17.6015 0.00024293C19.2939 0.0148847 20.9128 0.690729 22.1095 1.88221C23.3062 3.0737 23.9851 4.68549 23.9998 6.37044C24.0145 8.05538 23.3639 9.67868 22.1881 10.8907L22.175 10.904L18.9479 14.117C18.2935 14.7687 17.5061 15.2727 16.6389 15.5947C15.7717 15.9168 14.8451 16.0494 13.9219 15.9836C12.9987 15.9178 12.1005 15.655 11.2883 15.2132C10.4761 14.7714 9.76878 14.1608 9.21439 13.4229C8.85852 12.9493 8.95571 12.278 9.43147 11.9237C9.90722 11.5694 10.5814 11.6662 10.9373 12.1399C11.3068 12.6318 11.7784 13.0388 12.3199 13.3334C12.8614 13.6279 13.4601 13.8031 14.0756 13.847C14.6911 13.8908 15.3088 13.8024 15.8869 13.5877C16.465 13.373 16.99 13.037 17.4262 12.6025L17.4264 12.6024L20.6467 9.39622C21.4267 8.5889 21.8581 7.50942 21.8483 6.38905C21.8385 5.26575 21.386 4.19122 20.5881 3.3969C19.7903 2.60258 18.7111 2.15202 17.5828 2.14225C16.457 2.13251 15.3724 2.56244 14.5614 3.33962L12.7169 5.16536C12.2955 5.58241 11.6144 5.58043 11.1955 5.16094C10.7766 4.74146 10.7786 4.06331 11.1999 3.64626L13.0503 1.81477L13.0614 1.80393Z" fill="url(#paint0_linear_3218_88338)"/>
<path fill-rule="evenodd" clip-rule="evenodd" d="M7.36112 8.40527C8.2283 8.08321 9.15491 7.95059 10.0781 8.01642C11.0013 8.08225 11.8995 8.34498 12.7117 8.78679C13.5239 9.22861 14.2312 9.83917 14.7856 10.5771C15.1415 11.0507 15.0443 11.722 14.5685 12.0763C14.0928 12.4306 13.4186 12.3338 13.0627 11.8601C12.6932 11.3682 12.2216 10.9612 11.6801 10.6666C11.1386 10.3721 10.5399 10.1969 9.9244 10.153C9.30895 10.1092 8.69121 10.1976 8.11309 10.4123C7.53496 10.627 7.00998 10.963 6.57375 11.3975L3.35331 14.6038C2.57334 15.4111 2.14191 16.4906 2.15168 17.611C2.16149 18.7343 2.61404 19.8088 3.41185 20.6031C4.20967 21.3974 5.28893 21.848 6.41717 21.8577C7.54247 21.8675 8.62669 21.4379 9.43757 20.6614L11.2702 18.8368C11.6903 18.4186 12.3714 18.4186 12.7915 18.8368C13.2116 19.2551 13.2116 19.9333 12.7915 20.3515L10.952 22.183L10.9386 22.1961C9.72128 23.3667 8.09085 24.0144 6.39848 23.9998C4.70611 23.9851 3.08723 23.3093 1.8905 22.1178C0.69377 20.9263 0.0149502 19.3145 0.000243999 17.6296C-0.0144622 15.9446 0.636122 14.3213 1.81187 13.1093L1.82498 13.096L5.05212 9.88304C5.05208 9.88308 5.05217 9.88299 5.05212 9.88304C5.70644 9.23139 6.494 8.72732 7.36112 8.40527Z" fill="url(#paint1_linear_3218_88338)"/>
<defs>
<linearGradient id="paint0_linear_3218_88338" x1="16.5" y1="0" x2="16.5" y2="16" gradientUnits="userSpaceOnUse">
<stop stop-color="#FE5468"/>
<stop offset="1" stop-color="#FFDF27"/>
</linearGradient>
<linearGradient id="paint1_linear_3218_88338" x1="7.5" y1="8" x2="7.5" y2="24" gradientUnits="userSpaceOnUse">
<stop stop-color="#10808C"/>
<stop offset="1" stop-color="#1DF7EF"/>
</linearGradient>
</defs>
</svg>
