<svg width="15" height="15" viewBox="0 0 15 15" fill="none" xmlns="http://www.w3.org/2000/svg">
<path d="M3.43934 1.51922C3.72064 1.18677 4.10218 1 4.5 1H8.5C8.63261 1 8.90623 1.06226 9 1.17307L11.7291 4.06294C11.8229 4.17376 12 4.34328 12 4.5V7H11V4.5L8.43934 2H4.5C4.36739 2 4.24021 2.06226 4.14645 2.17307C4.05268 2.28389 4 2.43419 4 2.59091V4H3V2.77273C3 2.30257 3.15804 1.85167 3.43934 1.51922Z" fill="url(#paint0_linear_6499_28547)"/>
<path d="M3 9V12.2273C3 12.6974 3.15804 13.1483 3.43934 13.4808C3.72064 13.8132 4.10217 14 4.5 14H10.5C10.8978 14 11.2794 13.8132 11.5607 13.4808C11.842 13.1483 12 12.6974 12 12.2273V12H11V12.2273C11 12.384 10.9473 12.5343 10.8536 12.6451C10.7598 12.7559 10.6326 12.8182 10.5 12.8182H4.5C4.36739 12.8182 4.24021 12.7559 4.14645 12.6451C4.05268 12.5343 4 12.384 4 12.2273V9H3Z" fill="url(#paint1_linear_6499_28547)"/>
<path fill-rule="evenodd" clip-rule="evenodd" d="M8.5 1C8.77614 1 9 1.22386 9 1.5V4H11.5C11.7761 4 12 4.22386 12 4.5C12 4.77614 12 5 12 5H9C8.44772 5 8 4.55228 8 4V1.00032C8 1.00032 8.22386 1 8.5 1Z" fill="url(#paint2_linear_6499_28547)"/>
<path fill-rule="evenodd" clip-rule="evenodd" d="M2.09982 8.82595L0.175736 6.91994C-0.0585785 6.68788 -0.0585785 6.31163 0.175736 6.07957L2.09982 4.17405C2.33414 3.94198 2.71404 3.94198 2.94835 4.17405C3.18266 4.40611 3.18266 4.78235 2.94835 5.01441L2.04853 5.90553L6.5 5.9055C6.77614 5.9055 7 6.12936 7 6.4055V6.59395C7 6.8701 6.77615 7.09395 6.5 7.09395L2.04853 7.09398L2.94835 7.98559C3.18266 8.21765 3.18266 8.59389 2.94835 8.82595C2.71404 9.05802 2.33414 9.05802 2.09982 8.82595Z" fill="url(#paint3_linear_6499_28547)"/>
<path fill-rule="evenodd" clip-rule="evenodd" d="M12.9002 7.17405L14.8243 9.08006C15.0586 9.31212 15.0586 9.68837 14.8243 9.92043L12.9002 11.826C12.6659 12.058 12.286 12.058 12.0516 11.826C11.8173 11.5939 11.8173 11.2177 12.0516 10.9856L12.9515 10.0945L8.50001 10.0945C8.22386 10.0945 8 9.87066 8 9.59452V9.40606C8 9.12992 8.22385 8.90607 8.49999 8.90606L12.9515 8.90602L12.0516 8.01441C11.8173 7.78235 11.8173 7.40611 12.0516 7.17405C12.286 6.94198 12.6659 6.94198 12.9002 7.17405Z" fill="url(#paint4_linear_6499_28547)"/>
<defs>
<linearGradient id="paint0_linear_6499_28547" x1="7.5" y1="1" x2="7.5" y2="14" gradientUnits="userSpaceOnUse">
<stop stop-color="#10808C"/>
<stop offset="1" stop-color="#1DF7EF"/>
</linearGradient>
<linearGradient id="paint1_linear_6499_28547" x1="7.5" y1="1" x2="7.5" y2="14" gradientUnits="userSpaceOnUse">
<stop stop-color="#10808C"/>
<stop offset="1" stop-color="#1DF7EF"/>
</linearGradient>
<linearGradient id="paint2_linear_6499_28547" x1="10" y1="1" x2="12.6965" y2="4.79095" gradientUnits="userSpaceOnUse">
<stop stop-color="#FE5468"/>
<stop offset="1" stop-color="#FFDF27"/>
</linearGradient>
<linearGradient id="paint3_linear_6499_28547" x1="3.5" y1="9" x2="0.618248" y2="3.32797" gradientUnits="userSpaceOnUse">
<stop stop-color="#FE5468"/>
<stop offset="1" stop-color="#FFDF27"/>
</linearGradient>
<linearGradient id="paint4_linear_6499_28547" x1="11.5" y1="7" x2="14.3818" y2="12.672" gradientUnits="userSpaceOnUse">
<stop stop-color="#FE5468"/>
<stop offset="1" stop-color="#FFDF27"/>
</linearGradient>
</defs>
</svg>
