<svg width="15" height="15" viewBox="0 0 15 15" fill="none" xmlns="http://www.w3.org/2000/svg">
<path fill-rule="evenodd" clip-rule="evenodd" d="M0.00274869 3.82918C-0.0529535 2.83579 0.745065 2 1.74925 2H13.2507C14.2549 2 15.053 2.83579 14.9973 3.82918L14.6653 9.74917C14.6256 10.4566 14.0097 10.9953 13.2963 10.9466L7.67812 10.5627C7.64588 10.5605 7.61416 10.5716 7.59053 10.5935L4.95427 13.0313C4.45253 13.4952 3.63198 13.1759 3.58308 12.4977L3.45549 10.7278C3.45063 10.6605 3.38879 10.6116 3.32144 10.6219L1.80593 10.8529C1.05713 10.967 0.372134 10.4167 0.33011 9.66727L0.00274869 3.82918ZM1.74925 2.69322C1.14674 2.69322 0.667928 3.19469 0.701349 3.79072L1.02871 9.62881C1.04781 9.96948 1.35917 10.2196 1.69954 10.1677L3.21505 9.93673C3.68648 9.86487 4.1194 10.2071 4.15339 10.6785L4.28098 12.4483C4.28796 12.5452 4.40519 12.5908 4.47686 12.5245L7.11313 10.0867C7.27852 9.93375 7.50056 9.85568 7.72626 9.8711L13.3444 10.255C13.6687 10.2771 13.9487 10.0323 13.9667 9.71071L14.2987 3.79072C14.3321 3.19469 13.8533 2.69322 13.2507 2.69322H1.74925Z" fill="url(#paint0_linear_15032_54392)"/>
<path fill-rule="evenodd" clip-rule="evenodd" d="M11.369 3.97949C11.4597 3.97949 11.5424 4.03089 11.5825 4.11207L12.2629 5.48912L13.7844 5.7113C13.8741 5.72439 13.9485 5.78719 13.9765 5.8733C14.0044 5.95941 13.981 6.0539 13.9161 6.11707L12.8154 7.18819L13.0751 8.70141C13.0905 8.79066 13.0537 8.88085 12.9804 8.93407C12.9071 8.98729 12.8099 8.9943 12.7297 8.95215L11.369 8.23731L10.0084 8.95215C9.92823 8.9943 9.83101 8.98729 9.75769 8.93407C9.68436 8.88085 9.64763 8.79066 9.66295 8.70141L9.92274 7.18819L8.82198 6.11707C8.75707 6.0539 8.73367 5.95941 8.76161 5.8733C8.78956 5.78719 8.86401 5.72439 8.95367 5.7113L10.4752 5.48912L11.1555 4.11207C11.1957 4.03089 11.2784 3.97949 11.369 3.97949ZM11.369 4.75477L10.8468 5.8117C10.8122 5.88184 10.7452 5.93047 10.6678 5.94179L9.49963 6.11237L10.3447 6.93469C10.4009 6.98934 10.4265 7.0681 10.4132 7.1453L10.2139 8.30672L11.2582 7.75802C11.3276 7.72157 11.4105 7.72157 11.4799 7.75802L12.5242 8.30672L12.3249 7.1453C12.3116 7.0681 12.3372 6.98934 12.3934 6.93469L13.2385 6.11237L12.0703 5.94179C11.9929 5.93047 11.9259 5.88184 11.8913 5.8117L11.369 4.75477Z" fill="url(#paint1_linear_15032_54392)"/>
<path fill-rule="evenodd" clip-rule="evenodd" d="M6.6369 4.91699C6.69354 4.91699 6.74527 4.94912 6.77034 4.99986L7.19557 5.86051L8.14652 5.99937C8.20255 6.00755 8.24908 6.0468 8.26655 6.10062C8.28402 6.15444 8.26939 6.2135 8.22883 6.25298L7.54085 6.92243L7.70321 7.86819C7.71279 7.92397 7.68984 7.98034 7.64401 8.0136C7.59818 8.04687 7.53742 8.05125 7.48728 8.02491L6.6369 7.57813L5.78653 8.02491C5.73639 8.05125 5.67563 8.04687 5.6298 8.0136C5.58397 7.98034 5.56102 7.92397 5.5706 7.86819L5.73296 6.92243L5.04498 6.25298C5.00442 6.2135 4.98979 6.15444 5.00726 6.10062C5.02473 6.0468 5.07126 6.00755 5.12729 5.99937L6.07824 5.86051L6.50347 4.99986C6.52854 4.94912 6.58027 4.91699 6.6369 4.91699Z" fill="url(#paint2_linear_15032_54392)"/>
<path fill-rule="evenodd" clip-rule="evenodd" d="M2.8869 4.91699C2.94354 4.91699 2.99527 4.94912 3.02034 4.99986L3.44557 5.86051L4.39652 5.99937C4.45255 6.00755 4.49908 6.0468 4.51655 6.10062C4.53402 6.15444 4.51939 6.2135 4.47883 6.25298L3.79085 6.92243L3.95321 7.86819C3.96279 7.92397 3.93984 7.98034 3.89401 8.0136C3.84818 8.04687 3.78742 8.05125 3.73728 8.02491L2.8869 7.57813L2.03653 8.02491C1.98639 8.05125 1.92563 8.04687 1.8798 8.0136C1.83397 7.98034 1.81102 7.92397 1.8206 7.86819L1.98296 6.92243L1.29498 6.25298C1.25442 6.2135 1.23979 6.15444 1.25726 6.10062C1.27473 6.0468 1.32126 6.00755 1.37729 5.99937L2.32824 5.86051L2.75347 4.99986C2.77854 4.94912 2.83027 4.91699 2.8869 4.91699Z" fill="url(#paint3_linear_15032_54392)"/>
<defs>
<linearGradient id="paint0_linear_15032_54392" x1="7.5" y1="2" x2="7.5" y2="13.25" gradientUnits="userSpaceOnUse">
<stop stop-color="#10808C"/>
<stop offset="1" stop-color="#1DF7EF"/>
</linearGradient>
<linearGradient id="paint1_linear_15032_54392" x1="11.369" y1="3.97949" x2="14.6854" y2="8.86397" gradientUnits="userSpaceOnUse">
<stop stop-color="#FE5468"/>
<stop offset="1" stop-color="#FFDF27"/>
</linearGradient>
<linearGradient id="paint2_linear_15032_54392" x1="6.6369" y1="4.91699" x2="8.70963" y2="7.96979" gradientUnits="userSpaceOnUse">
<stop stop-color="#FE5468"/>
<stop offset="1" stop-color="#FFDF27"/>
</linearGradient>
<linearGradient id="paint3_linear_15032_54392" x1="2.8869" y1="4.91699" x2="4.95963" y2="7.96979" gradientUnits="userSpaceOnUse">
<stop stop-color="#FE5468"/>
<stop offset="1" stop-color="#FFDF27"/>
</linearGradient>
</defs>
</svg>
