<svg width="24" height="24" viewBox="0 0 24 24" fill="none" xmlns="http://www.w3.org/2000/svg">
<g clip-path="url(#clip0_3218_86832)">
<path fill-rule="evenodd" clip-rule="evenodd" d="M5.30771 12.4286C5.30771 12.113 5.58322 11.8571 5.92309 11.8571H12.0769C12.4168 11.8571 12.6923 12.113 12.6923 12.4286C12.6923 12.7442 12.4168 13 12.0769 13H5.92309C5.58322 13 5.30771 12.7442 5.30771 12.4286ZM5.92309 15C5.92309 14.6844 6.19861 14.4286 6.53848 14.4286H11.4616C11.8014 14.4286 12.0769 14.6844 12.0769 15C12.0769 15.3156 11.8014 15.5714 11.4616 15.5714H6.53848C6.19861 15.5714 5.92309 15.3156 5.92309 15ZM5 17.5712C5 17.2556 5.27552 16.9997 5.61538 16.9997H12.3846C12.7245 16.9997 13 17.2556 13 17.5712C13 17.8867 12.7245 18.1426 12.3846 18.1426H5.61538C5.27552 18.1426 5 17.8867 5 17.5712Z" fill="url(#paint0_linear_3218_86832)"/>
<path fill-rule="evenodd" clip-rule="evenodd" d="M9 22.3636C13.0668 22.3636 16.3636 19.0668 16.3636 15C16.3636 10.9332 13.0668 7.63636 9 7.63636C4.93318 7.63636 1.63636 10.9332 1.63636 15C1.63636 19.0668 4.93318 22.3636 9 22.3636ZM9 24C13.9706 24 18 19.9706 18 15C18 10.0294 13.9706 6 9 6C4.02944 6 0 10.0294 0 15C0 19.9706 4.02944 24 9 24Z" fill="url(#paint1_linear_3218_86832)"/>
<path d="M18.7938 0.316451C19.119 0.307767 19.4103 0.437211 19.618 0.654342L23.6756 4.89653C24.1239 5.36516 24.1045 6.14542 23.6327 6.63872C23.161 7.13168 22.4158 7.15182 21.9676 6.68364L19.869 4.4893L19.7596 18.7969C19.7554 19.358 19.3197 19.8113 18.7831 19.8116H17.9129C18.944 17.628 19.2526 15.0594 18.6024 12.5225C18.348 11.5299 17.9625 10.6107 17.4735 9.77739L17.5126 4.55278L15.3036 6.86235C14.8317 7.35552 14.0857 7.37488 13.6376 6.90629C13.1895 6.43764 13.2088 5.65831 13.6805 5.16508L17.952 0.699264C18.0678 0.578157 18.2003 0.485745 18.3407 0.42192C18.481 0.357986 18.6341 0.320733 18.7938 0.316451Z" fill="url(#paint2_linear_3218_86832)"/>
</g>
<defs>
<linearGradient id="paint0_linear_3218_86832" x1="9" y1="11.8571" x2="9" y2="18.1426" gradientUnits="userSpaceOnUse">
<stop stop-color="#10808C"/>
<stop offset="1" stop-color="#1DF7EF"/>
</linearGradient>
<linearGradient id="paint1_linear_3218_86832" x1="9" y1="6" x2="9" y2="24" gradientUnits="userSpaceOnUse">
<stop stop-color="#FE5468"/>
<stop offset="1" stop-color="#FFDF27"/>
</linearGradient>
<linearGradient id="paint2_linear_3218_86832" x1="18.6566" y1="0.31604" x2="18.6566" y2="19.8116" gradientUnits="userSpaceOnUse">
<stop stop-color="#10808C"/>
<stop offset="1" stop-color="#1DF7EF"/>
</linearGradient>
<clipPath id="clip0_3218_86832">
<rect width="24" height="24" fill="white"/>
</clipPath>
</defs>
</svg>
