<svg width="16" height="15" viewBox="0 0 16 15" fill="none" xmlns="http://www.w3.org/2000/svg">
<path fill-rule="evenodd" clip-rule="evenodd" d="M9.1313 1.46937C8.76073 1.35268 8.36516 1.44931 8.08077 1.69821L8.02546 1.74996L5.71296 4.51924C6.24622 4.91083 6.59261 5.5422 6.59264 6.25451L6.59041 6.36023C6.53794 7.44348 5.6839 8.31579 4.60891 8.39883C4.60891 10.3276 3.63887 11.5391 2.00244 11.5393V12.7209L2.00423 12.7878C2.04258 13.4514 2.64479 13.9416 3.30233 13.8446L3.36835 13.833L13.6773 11.7409L13.7509 11.7244C14.4564 11.5458 14.9686 10.938 15.0299 10.218L15.0361 10.0725V6.15012C15.0361 5.99655 15.0051 5.84172 14.9411 5.69913L14.9116 5.63891C13.4758 2.92627 11.3164 2.1926 9.32311 1.53182L9.1313 1.46937ZM14.0895 10.0725L14.0868 10.1372C14.0597 10.4564 13.8329 10.7258 13.5212 10.8059L13.4659 10.8184L13.4418 10.8246L3.1694 12.9065C3.0548 12.9258 2.94924 12.8384 2.94903 12.7209V12.3583C4.39945 11.9624 5.49281 10.6816 5.59341 9.12907L14.0895 6.6707V10.0725ZM8.8458 2.3718L9.02513 2.42979C10.9057 3.05321 12.6446 3.6621 13.883 5.74151L7.2689 7.52138C7.44256 7.13488 7.5392 6.70609 7.53923 6.25451L7.53343 6.06358C7.49933 5.50421 7.31599 4.98534 7.02445 4.54556L8.68477 2.4289L8.70573 2.40927C8.75662 2.36554 8.81042 2.36109 8.8458 2.3718Z" fill="url(#paint0_linear_177_30501)"/>
<path d="M1.98864 7.89341L2.03682 7.89564C2.27555 7.91977 2.46193 8.1216 2.46193 8.3667C2.46184 8.61172 2.27549 8.81318 2.03682 8.83732L1.98864 8.83955H0.94525C0.683973 8.83952 0.472051 8.62796 0.471956 8.3667C0.471956 8.10536 0.683915 7.89344 0.94525 7.89341H1.98864ZM2.74564 6.37895L2.79427 6.38118C3.03288 6.40544 3.21894 6.60724 3.21894 6.85225C3.21889 7.09721 3.03284 7.2986 2.79427 7.32287L2.74564 7.32554H0.473294C0.211961 7.32554 4.7372e-05 7.11357 0 6.85225C0 6.59089 0.211932 6.37895 0.473294 6.37895H2.74564ZM3.40629 4.8645L3.45447 4.86718C3.69313 4.89139 3.87959 5.09275 3.87959 5.3378C3.87959 5.58284 3.69313 5.7842 3.45447 5.80841L3.40629 5.81109H1.79727C1.53591 5.81109 1.32397 5.59916 1.32397 5.3378C1.32397 5.07643 1.53591 4.8645 1.79727 4.8645H3.40629Z" fill="url(#paint1_linear_177_30501)"/>
<path d="M3.19744 8.72854C3.19744 8.4672 3.4094 8.25528 3.67074 8.25525C3.9321 8.25525 4.14403 8.46718 4.14403 8.72854C4.14403 9.23378 4.05017 9.76159 3.79252 10.1797C3.51898 10.6235 3.06975 10.9219 2.45962 10.9219C2.19826 10.9219 1.98633 10.71 1.98633 10.4486C1.98644 10.1874 2.19833 9.97579 2.45962 9.97579C2.71439 9.97579 2.87108 9.87107 2.98689 9.68316C3.1186 9.46946 3.19744 9.13689 3.19744 8.72854Z" fill="url(#paint2_linear_177_30501)"/>
<path d="M4.97929 5.15764C5.17262 5.00727 5.44573 5.03029 5.61139 5.20358L5.64306 5.24061L5.7238 5.35213C6.09914 5.91758 6.07954 6.58337 5.78937 7.10747C5.48168 7.66319 4.87335 8.05986 4.12771 8.05986C3.86635 8.05986 3.65442 7.84792 3.65442 7.58656C3.65442 7.3252 3.86635 7.11327 4.12771 7.11327C4.52403 7.11327 4.818 6.90798 4.96144 6.64889C5.09414 6.40913 5.10132 6.12366 4.93245 5.87137L4.89631 5.82141L4.86821 5.78171C4.74097 5.57848 4.78593 5.30803 4.97929 5.15764Z" fill="url(#paint3_linear_177_30501)"/>
<defs>
<linearGradient id="paint0_linear_177_30501" x1="8.51927" y1="1.42017" x2="8.51927" y2="13.8569" gradientUnits="userSpaceOnUse">
<stop stop-color="#10808C"/>
<stop offset="1" stop-color="#1DF7EF"/>
</linearGradient>
<linearGradient id="paint1_linear_177_30501" x1="1.93979" y1="4.8645" x2="1.93979" y2="8.83955" gradientUnits="userSpaceOnUse">
<stop stop-color="#10808C"/>
<stop offset="1" stop-color="#1DF7EF"/>
</linearGradient>
<linearGradient id="paint2_linear_177_30501" x1="3.06518" y1="8.25525" x2="3.06518" y2="10.9219" gradientUnits="userSpaceOnUse">
<stop stop-color="#FE5468"/>
<stop offset="1" stop-color="#FFDF27"/>
</linearGradient>
<linearGradient id="paint3_linear_177_30501" x1="4.83043" y1="5.05786" x2="4.83043" y2="8.05986" gradientUnits="userSpaceOnUse">
<stop stop-color="#FE5468"/>
<stop offset="1" stop-color="#FFDF27"/>
</linearGradient>
</defs>
</svg>
