<svg width="15" height="15" viewBox="0 0 15 15" fill="none" xmlns="http://www.w3.org/2000/svg">
<g clip-path="url(#clip0_15032_54105)">
<path fill-rule="evenodd" clip-rule="evenodd" d="M6.25 0.927835C5.15036 0.927835 4.14169 1.03411 3.39613 1.21197C3.02647 1.30015 2.69868 1.4112 2.45353 1.54915C2.23599 1.67157 1.94805 1.89323 1.94805 2.24227C1.94805 2.59131 2.23599 2.81297 2.45353 2.93539C2.69868 3.07333 3.02647 3.18438 3.39613 3.27257C4.14169 3.45043 5.15036 3.5567 6.25 3.5567C7.34964 3.5567 8.35831 3.45043 9.10387 3.27257C9.47353 3.18438 9.80132 3.07333 10.0465 2.93539C10.264 2.81297 10.5519 2.59131 10.5519 2.24227C10.5519 1.89323 10.264 1.67157 10.0465 1.54915C9.80132 1.4112 9.47353 1.30015 9.10387 1.21197C8.35831 1.03411 7.34964 0.927835 6.25 0.927835ZM2.74606 2.30222C2.74601 2.30221 2.74638 2.30159 2.74734 2.30037L2.74606 2.30222ZM2.86637 2.21486C2.84875 2.22478 2.83358 2.23393 2.82055 2.24227C2.83358 2.25061 2.84875 2.25975 2.86637 2.26967C3.0154 2.35353 3.25803 2.44255 3.59332 2.52253C4.25766 2.68102 5.19704 2.7835 6.25 2.7835C7.30296 2.7835 8.24234 2.68102 8.90668 2.52253C9.24197 2.44255 9.4846 2.35353 9.63363 2.26967C9.65125 2.25975 9.66642 2.2506 9.67945 2.24227C9.66642 2.23393 9.65125 2.22478 9.63363 2.21486C9.4846 2.131 9.24197 2.04199 8.90668 1.962C8.24234 1.80352 7.30296 1.70103 6.25 1.70103C5.19704 1.70103 4.25766 1.80352 3.59332 1.962C3.25803 2.04199 3.0154 2.131 2.86637 2.21486ZM9.75394 2.30222C9.75397 2.30221 9.7542 2.3026 9.75394 2.30222V2.30222ZM9.75266 2.18416L9.75394 2.18232C9.75399 2.18233 9.75362 2.18295 9.75266 2.18416ZM2.74734 2.18417C2.74638 2.18295 2.74601 2.18233 2.74606 2.18232L2.74734 2.18417Z" fill="url(#paint0_linear_15032_54105)"/>
<path fill-rule="evenodd" clip-rule="evenodd" d="M6.25 0C4.60624 0 3.09987 0.212307 1.99044 0.564984C1.43785 0.740646 0.961377 0.958114 0.614695 1.21789C0.27295 1.47397 0 1.81723 0 2.24227V4.09794C0 4.52298 0.27295 4.86623 0.614695 5.12231C0.961377 5.38209 1.43785 5.59956 1.99044 5.77522C3.09987 6.1279 4.60624 6.34021 6.25 6.34021C7.89376 6.34021 9.40013 6.1279 10.5096 5.77522C11.0621 5.59956 11.5386 5.38209 11.8853 5.12231C12.227 4.86623 12.5 4.52298 12.5 4.09794V2.24227C12.5 1.81723 12.227 1.47397 11.8853 1.21789C11.5386 0.958114 11.0621 0.740646 10.5096 0.564984C9.40013 0.212307 7.89376 0 6.25 0ZM0.811688 2.24227C0.811688 2.157 0.866254 2.01314 1.11654 1.8256C1.36188 1.64176 1.74193 1.4591 2.24738 1.29842C3.25403 0.978415 4.66973 0.773196 6.25 0.773196C7.83027 0.773196 9.24597 0.978415 10.2526 1.29842C10.7581 1.4591 11.1381 1.64176 11.3835 1.8256C11.6337 2.01314 11.6883 2.157 11.6883 2.24227V4.09794C11.6883 4.18321 11.6337 4.32706 11.3835 4.51461C11.1381 4.69845 10.7581 4.88111 10.2526 5.04179C9.24597 5.36179 7.83027 5.56701 6.25 5.56701C4.66973 5.56701 3.25403 5.36179 2.24738 5.04179C1.74193 4.88111 1.36188 4.69845 1.11654 4.51461C0.866254 4.32706 0.811688 4.18321 0.811688 4.09794V2.24227Z" fill="url(#paint1_linear_15032_54105)"/>
<path d="M0.930543 5.87065L0.621026 5.4922L0.298611 5.86075C0.221411 5.949 0.166222 6.0436 0.130508 6.11164C0.0752951 6.21683 0 6.37663 0 6.57216V8.42783C0 8.85288 0.27295 9.19613 0.614695 9.45221C0.961377 9.71199 1.43785 9.92946 1.99044 10.1051C3.07853 10.451 4.54845 10.6619 6.15532 10.6699C6.05613 10.4808 6 10.2656 6 10.0372V9.89519C4.52072 9.87482 3.20064 9.67472 2.24738 9.37169C1.74193 9.21101 1.36188 9.02835 1.11654 8.8445C0.866254 8.65696 0.811688 8.5131 0.811688 8.42783V6.79171C0.932488 6.8687 1.06316 6.94036 1.20096 7.00703C1.58017 7.19049 2.0385 7.34817 2.55242 7.47718C3.58045 7.73527 4.86269 7.8866 6.25 7.8866C7.63731 7.8866 8.91955 7.73527 9.94758 7.47718C10.1168 7.4347 10.28 7.38912 10.4363 7.34052C10.4683 6.9798 10.6154 6.62741 10.8774 6.34329C10.5712 6.4857 10.1887 6.61706 9.74073 6.72952C8.79149 6.96782 7.58022 7.1134 6.25 7.1134C4.91978 7.1134 3.70851 6.96782 2.75927 6.72952C2.28455 6.61034 1.88331 6.46995 1.56852 6.31765C1.2492 6.16316 1.04281 6.00792 0.930543 5.87065Z" fill="url(#paint2_linear_15032_54105)"/>
<path d="M7.47776 11.4009C7.08359 11.4286 6.6728 11.4433 6.25 11.4433C4.91978 11.4433 3.70851 11.2977 2.75927 11.0594C2.28455 10.9402 1.88331 10.7998 1.56852 10.6475C1.2492 10.4931 1.04281 10.3378 0.930543 10.2006L0.60426 9.8016L0.285714 10.2062C0.155103 10.3721 0 10.6149 0 10.9021V12.7577C0 13.1828 0.27295 13.526 0.614695 13.7821C0.961377 14.0419 1.43785 14.2594 1.99044 14.435C3.09987 14.7877 4.60624 15 6.25 15C7.89376 15 9.40013 14.7877 10.5096 14.435C11.0621 14.2594 11.5386 14.0419 11.8853 13.7821C11.9537 13.7308 12.0194 13.676 12.0807 13.6178C11.7578 13.6112 11.4364 13.512 11.1595 13.3203C10.9273 13.4538 10.6237 13.5836 10.2526 13.7016C9.24597 14.0216 7.83027 14.2268 6.25 14.2268C4.66973 14.2268 3.25403 14.0216 2.24738 13.7016C1.74193 13.5409 1.36188 13.3582 1.11654 13.1744C0.866254 12.9869 0.811688 12.843 0.811688 12.7577V11.1216C0.932488 11.1986 1.06316 11.2703 1.20096 11.3369C1.58017 11.5204 2.0385 11.6781 2.55242 11.8071C3.58045 12.0652 4.86269 12.2165 6.25 12.2165C7.63731 12.2165 8.91955 12.0652 9.94758 11.8071C10.1216 11.7634 10.2892 11.7164 10.4496 11.6663C10.4635 11.5766 10.4845 11.4878 10.5128 11.4008L7.47776 11.4009Z" fill="url(#paint3_linear_15032_54105)"/>
<circle cx="2.83366" cy="4.16667" r="0.416667" fill="url(#paint4_linear_15032_54105)"/>
<circle cx="2.83366" cy="8.33366" r="0.416667" fill="url(#paint5_linear_15032_54105)"/>
<circle cx="2.83366" cy="12.4997" r="0.416667" fill="url(#paint6_linear_15032_54105)"/>
<path fill-rule="evenodd" clip-rule="evenodd" d="M12.6002 7.00251L14.7992 9.22042C15.0669 9.49046 15.0669 9.92827 14.7992 10.1983L12.6002 12.4156C12.3324 12.6857 11.8982 12.6857 11.6305 12.4156C11.3627 12.1456 11.3627 11.7078 11.6305 11.4378L12.6588 10.4008L7.36364 10.4009C7.16281 10.4009 7 10.2381 7 10.0372V9.38159C7 9.18076 7.1628 9.01796 7.36363 9.01796L12.6588 9.0179L11.6305 7.98039C11.3627 7.71036 11.3627 7.27255 11.6305 7.00251C11.8982 6.73248 12.3324 6.73248 12.6002 7.00251Z" fill="url(#paint7_linear_15032_54105)"/>
</g>
<defs>
<linearGradient id="paint0_linear_15032_54105" x1="6.25" y1="0" x2="6.25" y2="15" gradientUnits="userSpaceOnUse">
<stop stop-color="#10808C"/>
<stop offset="1" stop-color="#1DF7EF"/>
</linearGradient>
<linearGradient id="paint1_linear_15032_54105" x1="6.25" y1="0" x2="6.25" y2="15" gradientUnits="userSpaceOnUse">
<stop stop-color="#10808C"/>
<stop offset="1" stop-color="#1DF7EF"/>
</linearGradient>
<linearGradient id="paint2_linear_15032_54105" x1="6.25" y1="0" x2="6.25" y2="15" gradientUnits="userSpaceOnUse">
<stop stop-color="#10808C"/>
<stop offset="1" stop-color="#1DF7EF"/>
</linearGradient>
<linearGradient id="paint3_linear_15032_54105" x1="6.25" y1="0" x2="6.25" y2="15" gradientUnits="userSpaceOnUse">
<stop stop-color="#10808C"/>
<stop offset="1" stop-color="#1DF7EF"/>
</linearGradient>
<linearGradient id="paint4_linear_15032_54105" x1="2.83366" y1="3.75" x2="3.39542" y2="4.53978" gradientUnits="userSpaceOnUse">
<stop stop-color="#FE5468"/>
<stop offset="1" stop-color="#FFDF27"/>
</linearGradient>
<linearGradient id="paint5_linear_15032_54105" x1="2.83366" y1="7.91699" x2="3.39542" y2="8.70677" gradientUnits="userSpaceOnUse">
<stop stop-color="#FE5468"/>
<stop offset="1" stop-color="#FFDF27"/>
</linearGradient>
<linearGradient id="paint6_linear_15032_54105" x1="2.83366" y1="12.083" x2="3.39542" y2="12.8728" gradientUnits="userSpaceOnUse">
<stop stop-color="#FE5468"/>
<stop offset="1" stop-color="#FFDF27"/>
</linearGradient>
<linearGradient id="paint7_linear_15032_54105" x1="11" y1="6.79999" x2="14.3888" y2="13.3508" gradientUnits="userSpaceOnUse">
<stop stop-color="#FE5468"/>
<stop offset="1" stop-color="#FFDF27"/>
</linearGradient>
<clipPath id="clip0_15032_54105">
<rect width="15" height="15" fill="white"/>
</clipPath>
</defs>
</svg>
