<svg width="15" height="15" viewBox="0 0 15 15" fill="none" xmlns="http://www.w3.org/2000/svg">
<path d="M13.2019 3.28419C13.6005 2.91543 14.2215 2.90088 14.6374 3.26786C15.0534 3.6349 15.1166 4.25318 14.8003 4.6946L14.732 4.7804L9.91026 10.245C8.67068 11.6499 6.50993 11.6935 5.21278 10.3764L5.08974 10.245L0.267963 4.7804L0.199744 4.6946C-0.1166 4.25318 -0.053431 3.6349 0.362549 3.26786C0.778496 2.90088 1.39949 2.91543 1.79807 3.28419L1.87508 3.36245L6.69644 8.82707L6.73745 8.87102C7.16983 9.3101 7.89035 9.29538 8.30356 8.82707L13.1249 3.36245L13.2019 3.28419Z" fill="url(#paint0_linear_22400_47526)"/>
<defs>
<linearGradient id="paint0_linear_22400_47526" x1="7.5" y1="3" x2="7.5" y2="11.3325" gradientUnits="userSpaceOnUse">
<stop stop-color="#FE5468"/>
<stop offset="1" stop-color="#FFDF27"/>
</linearGradient>
</defs>
</svg>
