<svg width="16" height="15" viewBox="0 0 16 15" fill="none" xmlns="http://www.w3.org/2000/svg">
<g clip-path="url(#clip0_7416_32468)">
<path fill-rule="evenodd" clip-rule="evenodd" d="M6.49095 0.496905C7.25305 -0.165635 8.37763 -0.165635 9.13974 0.496905L9.76602 1.04136L10.3923 0.496905C11.1544 -0.165635 12.279 -0.165635 13.0411 0.496905C13.9411 1.27937 13.9939 2.67337 13.1557 3.52354L9.78578 6.94146L9.76602 6.92142L9.74626 6.94146L6.37634 3.52354C5.5381 2.67337 5.59089 1.27937 6.49095 0.496905ZM9.76602 5.56254L12.466 2.82406C12.9025 2.38134 12.8751 1.65543 12.4064 1.24797C12.0095 0.90296 11.4239 0.90296 11.027 1.24797L9.8164 2.30043L9.77373 2.35093L9.76602 2.34423L9.75832 2.35093L9.71564 2.30043L8.50501 1.24797C8.10815 0.90296 7.52254 0.90296 7.12568 1.24797C6.65698 1.65543 6.62949 2.38134 7.06599 2.82406L9.76602 5.56254Z" fill="url(#paint0_linear_7416_32468)"/>
<path fill-rule="evenodd" clip-rule="evenodd" d="M13.018 7.7608C13.6512 7.35025 14.4943 7.43144 15.0324 7.9548C15.6137 8.5202 15.6585 9.42253 15.1359 10.0398L12.892 12.6897C11.6534 14.1525 9.80698 15 7.8585 15H4.94505C3.57608 15 2.25042 14.5332 1.19874 13.6809L1.16176 13.6509C0.742445 13.311 0.5 12.8076 0.5 12.2767V10.8206C0.5 10.6283 0.531869 10.4373 0.59438 10.2549L0.672097 10.0282C0.8367 9.54792 1.20284 9.15799 1.67972 8.95507L3.8614 8.02677C5.59808 7.28781 7.6294 7.88991 8.64711 9.44531L8.71671 9.55168C8.96832 9.93623 9.49577 10.0445 9.88572 9.79168L13.018 7.7608ZM14.323 8.6447C14.1231 8.45021 13.8097 8.42004 13.5744 8.57261L10.4422 10.6035C10.3972 10.6327 10.3513 10.6597 10.3048 10.6845L10.3085 10.69L8.63911 11.7724C8.33699 11.9683 7.98201 12.0728 7.61892 12.0728H4.34555V11.0972H7.61892C7.78396 11.0972 7.94531 11.0496 8.08264 10.9606L8.52216 10.6756C8.2655 10.5359 8.03957 10.3341 7.87036 10.0755L7.80076 9.96912C7.04854 8.81948 5.54713 8.37445 4.26349 8.92064L2.08181 9.84894C1.86505 9.94117 1.69862 10.1184 1.6238 10.3367L1.54609 10.5635C1.51767 10.6464 1.50319 10.7332 1.50319 10.8206V12.2767C1.50319 12.518 1.61339 12.7469 1.80399 12.9013L1.84097 12.9313C2.71236 13.6376 3.81076 14.0243 4.94505 14.0243H7.8585C9.50721 14.0243 11.0695 13.3073 12.1176 12.0695L14.3615 9.41952C14.5557 9.19015 14.5391 8.85482 14.323 8.6447Z" fill="url(#paint1_linear_7416_32468)"/>
</g>
<defs>
<linearGradient id="paint0_linear_7416_32468" x1="9.76602" y1="0" x2="14.2009" y2="7.16018" gradientUnits="userSpaceOnUse">
<stop stop-color="#FE5468"/>
<stop offset="1" stop-color="#FFDF27"/>
</linearGradient>
<linearGradient id="paint1_linear_7416_32468" x1="8" y1="7.5" x2="8" y2="15" gradientUnits="userSpaceOnUse">
<stop stop-color="#10808C"/>
<stop offset="1" stop-color="#1DF7EF"/>
</linearGradient>
<clipPath id="clip0_7416_32468">
<rect width="15" height="15" fill="white" transform="translate(0.5)"/>
</clipPath>
</defs>
</svg>
