<svg width="24" height="24" viewBox="0 0 24 24" fill="none" xmlns="http://www.w3.org/2000/svg">
<g clip-path="url(#clip0_3218_86935)">
<path fill-rule="evenodd" clip-rule="evenodd" d="M6.5 1.95806L5.38812 4.25149C4.80331 5.45775 2.69668 5.45774 2.11188 4.25148L2 4.02072V20.3391L2.15005 20.0738C2.77747 18.9645 4.72253 18.9645 5.34995 20.0738L6.5 22.107L7.65005 20.0738C8.27747 18.9645 10.2225 18.9645 10.85 20.0738L12 22.107L13.15 20.0738C13.7775 18.9645 15.7225 18.9645 16.35 20.0738L17.5 22.107L18.65 20.0738C19.2775 18.9645 21.2225 18.9645 21.85 20.0738L22 20.3391V4.02072L21.8881 4.25149C21.3033 5.45775 19.1967 5.45774 18.6119 4.25148L17.5 1.95806L16.3881 4.25149C15.8033 5.45775 13.6967 5.45774 13.1119 4.25148L12 1.95806L10.8881 4.25149C10.3033 5.45775 8.19668 5.45774 7.61188 4.25148L6.5 1.95806ZM4.86188 0.904698C5.44668 -0.301561 7.55331 -0.301571 8.13812 0.904697L9.25 3.19813L10.3619 0.904698C10.9467 -0.301561 13.0533 -0.301571 13.6381 0.904697L14.75 3.19813L15.8619 0.904698C16.4467 -0.301561 18.5533 -0.301571 19.1381 0.904697L20.25 3.19813L21.4128 0.799676C21.954 -0.316599 24 -0.00263793 24 1.19672V22.7895C24 23.9554 22.0413 24.3018 21.4419 23.242L20.25 21.1348L19.1 23.168C18.4725 24.2773 16.5275 24.2773 15.9 23.168L14.75 21.1348L13.6 23.168C12.9725 24.2773 11.0275 24.2773 10.4 23.168L9.25 21.1348L8.09995 23.168C7.47253 24.2773 5.52747 24.2773 4.90005 23.168L3.75 21.1348L2.55815 23.242C1.95867 24.3018 0 23.9554 0 22.7895V1.19672C0 -0.00262769 2.04602 -0.31661 2.58721 0.799675L3.75 3.19813L4.86188 0.904698Z" fill="url(#paint0_linear_3218_86935)"/>
<path fill-rule="evenodd" clip-rule="evenodd" d="M7 12.8571C8.57796 12.8571 9.85714 11.578 9.85714 10C9.85714 8.42204 8.57796 7.14286 7 7.14286C5.42204 7.14286 4.14286 8.42204 4.14286 10C4.14286 11.578 5.42204 12.8571 7 12.8571ZM7 14C9.20914 14 11 12.2091 11 10C11 7.79086 9.20914 6 7 6C4.79086 6 3 7.79086 3 10C3 12.2091 4.79086 14 7 14Z" fill="url(#paint1_linear_3218_86935)"/>
<path fill-rule="evenodd" clip-rule="evenodd" d="M8.50059 8.83594C8.50059 8.9966 8.37034 9.12685 8.20968 9.12685H5.78544C5.62477 9.12685 5.49453 8.9966 5.49453 8.83594C5.49453 8.67527 5.62477 8.54503 5.78544 8.54503H8.20968C8.37034 8.54503 8.50059 8.67527 8.50059 8.83594ZM8.20968 9.99957C8.20968 10.1602 8.07943 10.2905 7.91877 10.2905H6.07635C5.91568 10.2905 5.78544 10.1602 5.78544 9.99957C5.78544 9.83891 5.91568 9.70867 6.07635 9.70867H7.91877C8.07943 9.70867 8.20968 9.83891 8.20968 9.99957ZM8.81623 11.1632C8.81623 11.3239 8.68599 11.4541 8.52532 11.4541H5.47078C5.31011 11.4541 5.17987 11.3239 5.17987 11.1632C5.17987 11.0025 5.31012 10.8723 5.47078 10.8723H8.52532C8.68599 10.8723 8.81623 11.0025 8.81623 11.1632Z" fill="url(#paint2_linear_3218_86935)"/>
<rect x="8.74706" y="17.638" width="12.3728" height="1.48242" transform="rotate(-65 8.74706 17.638)" fill="url(#paint3_linear_3218_86935)"/>
<path d="M21.4318 17.1613C21.4318 17.4013 21.3698 17.6033 21.2458 17.7673C21.1218 17.9273 20.9538 18.0493 20.7418 18.1333C20.5338 18.2173 20.3058 18.2593 20.0578 18.2593H17.9998V13.9994H20.2798C20.4798 13.9994 20.6518 14.0534 20.7958 14.1614C20.9438 14.2654 21.0558 14.4014 21.1318 14.5694C21.2118 14.7334 21.2518 14.9054 21.2518 15.0854C21.2518 15.2894 21.1998 15.4834 21.0958 15.6674C20.9918 15.8514 20.8398 15.9874 20.6398 16.0754C20.8838 16.1474 21.0758 16.2774 21.2158 16.4654C21.3598 16.6534 21.4318 16.8853 21.4318 17.1613ZM20.5978 17.0053C20.5978 16.8973 20.5758 16.8014 20.5318 16.7174C20.4878 16.6294 20.4278 16.5614 20.3518 16.5134C20.2798 16.4614 20.1958 16.4354 20.0998 16.4354H18.8278V17.5573H20.0578C20.1578 17.5573 20.2478 17.5333 20.3278 17.4853C20.4118 17.4333 20.4778 17.3653 20.5258 17.2813C20.5738 17.1973 20.5978 17.1053 20.5978 17.0053ZM18.8278 14.7074V15.7814H19.9318C20.0238 15.7814 20.1078 15.7594 20.1838 15.7154C20.2598 15.6714 20.3198 15.6094 20.3638 15.5294C20.4118 15.4494 20.4358 15.3534 20.4358 15.2414C20.4358 15.1334 20.4138 15.0394 20.3698 14.9594C20.3298 14.8794 20.2738 14.8174 20.2018 14.7734C20.1338 14.7294 20.0558 14.7074 19.9678 14.7074H18.8278Z" fill="url(#paint4_linear_3218_86935)"/>
<path d="M16.474 18.2593V15.4634L15.382 17.5453H14.92L13.828 15.4634V18.2593H13V13.9994H13.888L15.148 16.4234L16.42 13.9994H17.302V18.2593H16.474Z" fill="url(#paint5_linear_3218_86935)"/>
</g>
<defs>
<linearGradient id="paint0_linear_3218_86935" x1="12" y1="0" x2="12" y2="24" gradientUnits="userSpaceOnUse">
<stop stop-color="#10808C"/>
<stop offset="1" stop-color="#1DF7EF"/>
</linearGradient>
<linearGradient id="paint1_linear_3218_86935" x1="7" y1="6" x2="7" y2="14" gradientUnits="userSpaceOnUse">
<stop stop-color="#FE5468"/>
<stop offset="1" stop-color="#FFDF27"/>
</linearGradient>
<linearGradient id="paint2_linear_3218_86935" x1="6.99805" y1="8.54503" x2="6.99805" y2="11.4541" gradientUnits="userSpaceOnUse">
<stop stop-color="#10808C"/>
<stop offset="1" stop-color="#1DF7EF"/>
</linearGradient>
<linearGradient id="paint3_linear_3218_86935" x1="14.9334" y1="17.638" x2="14.9334" y2="19.1205" gradientUnits="userSpaceOnUse">
<stop stop-color="#10808C"/>
<stop offset="1" stop-color="#1DF7EF"/>
</linearGradient>
<linearGradient id="paint4_linear_3218_86935" x1="19.7158" y1="13.9994" x2="19.7158" y2="18.2593" gradientUnits="userSpaceOnUse">
<stop stop-color="#FE5468"/>
<stop offset="1" stop-color="#FFDF27"/>
</linearGradient>
<linearGradient id="paint5_linear_3218_86935" x1="15.151" y1="13.9994" x2="15.151" y2="18.2593" gradientUnits="userSpaceOnUse">
<stop stop-color="#FE5468"/>
<stop offset="1" stop-color="#FFDF27"/>
</linearGradient>
<clipPath id="clip0_3218_86935">
<rect width="24" height="24" fill="white"/>
</clipPath>
</defs>
</svg>
