<svg width="24" height="24" viewBox="0 0 24 24" fill="none" xmlns="http://www.w3.org/2000/svg">
<g clip-path="url(#clip0_3218_87519)">
<path fill-rule="evenodd" clip-rule="evenodd" d="M0 20V7H1.5V20C1.5 21.3807 2.61929 22.5 4 22.5H16V20C16 17.7909 17.7909 16 20 16H22.5V7H24V16L16 24H4C1.79086 24 0 22.2091 0 20ZM17 20C17 18.3431 18.3431 17 20 17H21.5858L17 21.5858V20Z" fill="url(#paint0_linear_3218_87519)"/>
<path d="M24 4C24 1.79086 22.2091 0 20 0H4C1.79086 0 0 1.79086 0 4V7H24V4Z" fill="url(#paint1_linear_3218_87519)"/>
</g>
<defs>
<linearGradient id="paint0_linear_3218_87519" x1="12" y1="7" x2="12" y2="24" gradientUnits="userSpaceOnUse">
<stop stop-color="#10808C"/>
<stop offset="1" stop-color="#1DF7EF"/>
</linearGradient>
<linearGradient id="paint1_linear_3218_87519" x1="12" y1="0" x2="12" y2="7" gradientUnits="userSpaceOnUse">
<stop stop-color="#FE5468"/>
<stop offset="1" stop-color="#FFDF27"/>
</linearGradient>
<clipPath id="clip0_3218_87519">
<rect width="24" height="24" fill="white"/>
</clipPath>
</defs>
</svg>
