<svg width="15" height="15" viewBox="0 0 15 15" fill="none" xmlns="http://www.w3.org/2000/svg">
<g clip-path="url(#clip0_20008_72160)">
<path fill-rule="evenodd" clip-rule="evenodd" d="M7.55699 3C7.91572 3 8.20653 3.29081 8.20653 3.64954V13.7012H13C13.3587 13.7012 13.6495 13.992 13.6495 14.3507C13.6495 14.7095 13.3587 15.0003 13 15.0003H2.00012C1.64139 15.0003 1.35059 14.7095 1.35059 14.3507C1.35059 13.992 1.64139 13.7012 2.00012 13.7012H6.90746V3.64954C6.90746 3.29081 7.19827 3 7.55699 3Z" fill="url(#paint0_linear_20008_72160)"/>
<path fill-rule="evenodd" clip-rule="evenodd" d="M7.45883 12.5991C5.43721 12.5468 3.81445 10.8916 3.81445 8.85738C3.81445 8.56239 3.84858 8.27535 3.91311 8C5.93473 8.05229 7.55749 9.7075 7.55749 11.7417C7.55749 12.0368 7.52336 12.3238 7.45883 12.5991Z" fill="url(#paint1_linear_20008_72160)"/>
<path fill-rule="evenodd" clip-rule="evenodd" d="M11.202 8C9.1804 8.05229 7.55762 9.7075 7.55762 11.7417C7.55762 12.0367 7.59174 12.3238 7.65626 12.5991C9.67791 12.5468 11.3006 10.8916 11.3006 8.85733C11.3006 8.56234 11.2665 8.2753 11.202 8Z" fill="url(#paint2_linear_20008_72160)"/>
</g>
<defs>
<linearGradient id="paint0_linear_20008_72160" x1="7.50006" y1="3" x2="7.50006" y2="15.0003" gradientUnits="userSpaceOnUse">
<stop stop-color="#10808C"/>
<stop offset="1" stop-color="#1DF7EF"/>
</linearGradient>
<linearGradient id="paint1_linear_20008_72160" x1="5.68597" y1="8" x2="8.93841" y2="11.7215" gradientUnits="userSpaceOnUse">
<stop stop-color="#FE5468"/>
<stop offset="1" stop-color="#FFDF27"/>
</linearGradient>
<linearGradient id="paint2_linear_20008_72160" x1="9.42913" y1="8" x2="12.6815" y2="11.7214" gradientUnits="userSpaceOnUse">
<stop stop-color="#FE5468"/>
<stop offset="1" stop-color="#FFDF27"/>
</linearGradient>
<clipPath id="clip0_20008_72160">
<rect width="15" height="15" fill="white"/>
</clipPath>
</defs>
</svg>
