<svg width="24" height="24" viewBox="0 0 24 24" fill="none" xmlns="http://www.w3.org/2000/svg">
<g clip-path="url(#clip0_3218_86537)">
<path fill-rule="evenodd" clip-rule="evenodd" d="M5.6 0C2.53957 0.000405855 0.0527212 2.45582 0.0015625 5.50415L0 5.50625V20C0 21.6 1.6 24 4 24H24V4.8H6.4V0H5.6C5.60025 0 5.59975 0 5.6 0ZM4.8 1.68017C4.52203 1.73665 4.25453 1.82196 4.00076 1.93283C2.58803 2.55008 1.60076 3.95974 1.60076 5.6L1.6 16.0816C2.44015 15.2239 3.55388 14.6352 4.8 14.4568V1.68017ZM5.60076 16C5.03188 16 4.49073 16.1188 4.00076 16.3328C2.58803 16.9501 1.60076 18.3597 1.60076 20C1.60076 20.3357 1.80375 20.9745 2.30412 21.5464C2.77801 22.088 3.36756 22.4 4 22.4H22.4V6.4H6.4V16H5.60076Z" fill="url(#paint0_linear_3218_86537)"/>
<path fill-rule="evenodd" clip-rule="evenodd" d="M9.66667 9C8.74619 9 8 9.74619 8 10.6667V17.3333C8 18.2538 8.74619 19 9.66667 19H16.3333C17.2538 19 18 18.2538 18 17.3333V10.6667C18 9.74619 17.2538 9 16.3333 9H9.66667ZM13.6808 11.1189C13.4123 10.5159 12.5877 10.5159 12.3192 11.1189L11.9032 12.053C11.7939 12.2985 11.5701 12.4675 11.3117 12.4997L10.3285 12.6222C9.69377 12.7013 9.43894 13.5165 9.90771 13.9682L10.6339 14.668C10.8247 14.8519 10.9102 15.1255 10.8598 15.3908L10.6681 16.4006C10.5443 17.0525 11.2115 17.5563 11.7697 17.2325L12.6344 16.7309C12.8616 16.5991 13.1384 16.5991 13.3656 16.7309L14.2303 17.2325C14.7885 17.5563 15.4557 17.0525 15.3319 16.4006L15.1402 15.3908C15.0898 15.1255 15.1753 14.8519 15.3661 14.668L16.0923 13.9682C16.5611 13.5165 16.3062 12.7013 15.6715 12.6222L14.6883 12.4997C14.4299 12.4675 14.2061 12.2985 14.0968 12.053L13.6808 11.1189Z" fill="url(#paint1_linear_3218_86537)"/>
</g>
<defs>
<linearGradient id="paint0_linear_3218_86537" x1="12" y1="0" x2="12" y2="24" gradientUnits="userSpaceOnUse">
<stop stop-color="#10808C"/>
<stop offset="1" stop-color="#1DF7EF"/>
</linearGradient>
<linearGradient id="paint1_linear_3218_86537" x1="13" y1="9" x2="13" y2="19" gradientUnits="userSpaceOnUse">
<stop stop-color="#FE5468"/>
<stop offset="1" stop-color="#FFDF27"/>
</linearGradient>
<clipPath id="clip0_3218_86537">
<rect width="24" height="24" fill="white"/>
</clipPath>
</defs>
</svg>
