<svg width="15" height="15" viewBox="0 0 15 15" fill="none" xmlns="http://www.w3.org/2000/svg">
<g clip-path="url(#clip0_15462_48482)">
<path fill-rule="evenodd" clip-rule="evenodd" d="M10.8456 0.0731385C10.5489 -0.0115573 10.2391 -0.0228406 9.9381 0.0400552L1.71113 1.62399L1.70151 1.62592C1.22267 1.72735 0.790697 2.01134 0.480077 2.42892C0.16953 2.84639 -0.000249036 3.37139 2.74181e-07 3.91309V6.25C2.74181e-07 6.25 0.3125 5.625 1.01498 5.3125L1.02744 5.02126C1.02744 4.4014 1.48744 3.89892 2.05488 3.89892H12.2075C12.7749 3.89892 13.2349 4.4014 13.2349 5.02126V5.9375H10.8456C10.5864 5.9375 10.3429 6.01048 10.1313 6.13866C10.2625 6.36773 10.3702 6.61197 10.4512 6.86811C10.5652 6.78914 10.7005 6.74342 10.8455 6.74342H13.2349V9.16078H10.8455C10.7106 9.16078 10.5842 9.12121 10.4754 9.05212C10.4 9.31029 10.2977 9.55694 10.1716 9.78881C10.3736 9.90234 10.6027 9.96642 10.8456 9.96642H13.2349V11.7553C13.2349 12.3752 12.7749 12.8777 12.2075 12.8777H11.875C11.875 12.8777 12.1875 13.4375 11.5625 14H12.2075C13.3424 14 14.2624 12.995 14.2624 11.7553V9.75082C14.7033 9.47218 15 8.95136 15 8.35485V7.54907C15 6.95256 14.7033 6.43175 14.2624 6.1531V5.02126C14.2624 3.85928 13.4541 2.90352 12.4182 2.78823V2.32619C12.4181 1.98376 12.35 1.64558 12.2188 1.33576C12.0876 1.02595 11.8965 0.752153 11.6591 0.533899C11.4217 0.315645 11.1439 0.158316 10.8456 0.0731385ZM11.4034 2.32627V2.77629H2.05498C1.91498 2.77629 1.77825 2.79158 1.64612 2.82072C1.72269 2.78192 1.80357 2.75296 1.88726 2.73484L10.1231 1.14912C10.279 1.1161 10.4395 1.12173 10.5932 1.16561C10.7469 1.20949 10.89 1.29053 11.0123 1.40297C11.1346 1.5154 11.233 1.65645 11.3006 1.81605C11.3006 1.81605 11.4034 2.05078 11.4034 2.32627Z" fill="url(#paint0_linear_15462_48482)"/>
<path fill-rule="evenodd" clip-rule="evenodd" d="M9.375 7.8941C9.375 6.64091 8.35948 5.625 7.10678 5.625C6.39095 5.625 5.75263 5.95684 5.33711 6.47461C4.77038 5.94757 4.01049 5.625 3.1755 5.625C1.42172 5.625 0 7.04728 0 8.80175C0 10.5562 1.42172 11.9785 3.1755 11.9785C3.46624 11.9785 3.74784 11.9394 4.01535 11.8662C3.77251 12.1934 3.62885 12.5986 3.62885 13.0374C3.62885 14.0812 4.44174 14.9351 5.46875 15V14.0889C4.9435 14.0266 4.53614 13.5796 4.53614 13.0374C4.53614 12.4526 5.01005 11.9785 5.59464 11.9785C5.67643 11.9785 5.75606 11.9878 5.83252 12.0053H7.26828C6.92199 11.4445 6.30194 11.0709 5.59464 11.0709C5.52441 11.0709 5.45504 11.0745 5.38672 11.0817C5.71307 10.7649 5.97161 10.3785 6.13849 9.94661C6.43227 10.0855 6.76063 10.1632 7.10678 10.1632C8.35948 10.1632 9.375 9.1473 9.375 7.8941ZM7.10678 6.53264C7.8584 6.53264 8.46771 7.14219 8.46771 7.8941C8.46771 8.64602 7.8584 9.25557 7.10678 9.25557C6.35516 9.25557 5.74585 8.64602 5.74585 7.8941C5.74585 7.14219 6.35516 6.53264 7.10678 6.53264ZM4.41126 6.89852C4.2966 7.20915 4.234 7.54477 4.234 7.8941C4.234 8.71093 4.57494 9.44777 5.12042 9.97032C4.72322 10.6303 4.00018 11.0709 3.1755 11.0709C1.9228 11.0709 0.907286 10.0549 0.907286 8.80175C0.907286 7.54856 1.9228 6.53264 3.1755 6.53264C3.63176 6.53264 4.05573 6.66686 4.41126 6.89852Z" fill="url(#paint1_linear_15462_48482)"/>
<path fill-rule="evenodd" clip-rule="evenodd" d="M8.75 10.8438C8.99656 10.8438 9.19643 11.0358 9.19643 11.2727V12.8168H10.8036C11.0501 12.8168 11.25 13.0088 11.25 13.2457C11.25 13.4826 11.0501 13.6746 10.8036 13.6746H9.19643V15.0002L8.30357 15.0002V13.6746H6.69643C6.44987 13.6746 6.25 13.4826 6.25 13.2457C6.25 13.0088 6.44987 12.8168 6.69643 12.8168H8.30357V11.2727C8.30357 11.0358 8.50344 10.8438 8.75 10.8438Z" fill="url(#paint2_linear_15462_48482)"/>
</g>
<defs>
<linearGradient id="paint0_linear_15462_48482" x1="7.5" y1="0" x2="7.5" y2="14" gradientUnits="userSpaceOnUse">
<stop stop-color="#10808C"/>
<stop offset="1" stop-color="#1DF7EF"/>
</linearGradient>
<linearGradient id="paint1_linear_15462_48482" x1="4.6875" y1="5.625" x2="11.0073" y2="14.51" gradientUnits="userSpaceOnUse">
<stop stop-color="#FE5468"/>
<stop offset="1" stop-color="#FFDF27"/>
</linearGradient>
<linearGradient id="paint2_linear_15462_48482" x1="8.75" y1="10.8438" x2="8.75" y2="15.0002" gradientUnits="userSpaceOnUse">
<stop stop-color="#10808C"/>
<stop offset="1" stop-color="#1DF7EF"/>
</linearGradient>
<clipPath id="clip0_15462_48482">
<rect width="15" height="15" fill="white"/>
</clipPath>
</defs>
</svg>
