<svg width="24" height="24" viewBox="0 0 24 24" fill="none" xmlns="http://www.w3.org/2000/svg">
<g clip-path="url(#clip0_3218_87085)">
<path d="M11.258 15.8399C10.8933 16.3021 10.8745 16.9771 11.2909 17.3934C11.691 17.7935 12.3428 17.8041 12.706 17.3702C13.285 16.6784 13.7607 15.904 14.1164 15.0709C14.6058 13.9251 14.858 12.692 14.858 11.446C14.858 10.2001 14.6058 8.967 14.1164 7.82114C13.7607 6.98811 13.285 6.21372 12.706 5.52192C12.3428 5.088 11.691 5.09856 11.2909 5.49868C10.8745 5.91503 10.8933 6.58995 11.258 7.05216C11.6357 7.53069 11.951 8.05709 12.1952 8.61891C12.5829 9.51101 12.783 10.4733 12.783 11.446C12.783 12.4188 12.5829 13.3811 12.1951 14.2732C11.951 14.835 11.6357 15.3614 11.258 15.8399Z" fill="url(#paint0_linear_3218_87085)"/>
<path d="M8.30682 8.48268C7.89769 8.89182 7.91642 9.54469 8.24089 10.0238C8.89675 10.9921 8.89675 11.8997 8.24088 12.8681C7.91641 13.3472 7.89768 14 8.30681 14.4092C8.71595 14.8183 9.38864 14.8232 9.74077 14.364C11.202 12.4589 11.202 10.433 9.74078 8.5278C9.38865 8.06868 8.71596 8.07354 8.30682 8.48268Z" fill="url(#paint1_linear_3218_87085)"/>
<path d="M24.0007 12.2378L16.6086 0L13.8379 4.58699C14.5064 5.38708 15.0558 6.28228 15.4669 7.24506C16.0341 8.57323 16.3265 10.0025 16.3265 11.4467C16.3265 12.5894 16.1434 13.7228 15.786 14.8041L16.8008 15.2004L24.0007 12.2378Z" fill="url(#paint2_linear_3218_87085)"/>
<path d="M13.0066 18.9513C13.3085 18.8121 13.5905 18.6019 13.832 18.3134C14.1948 17.8799 14.5226 17.4185 14.8124 16.9335L16.6088 17.991L24.0012 13.6393L16.6088 24L13.0066 18.9513Z" fill="url(#paint3_linear_3218_87085)"/>
<path d="M8.24913 6.37141C8.24914 7.00259 7.73748 7.51426 7.10631 7.51428L4.62236 7.51434C4.27762 7.51435 3.94582 7.66646 3.75365 7.95266C2.37883 10 2.37884 12.6964 3.75367 14.7438C3.94587 15.03 4.2777 15.1822 4.62246 15.1822L7.10633 15.1821C7.73753 15.1821 8.24924 15.6938 8.24924 16.325L8.24927 18.3513C8.24928 18.9825 7.73762 19.4941 7.10644 19.4942L4.27318 19.4942C4.1497 19.4942 4.02922 19.4546 3.93178 19.3788C3.60071 19.1211 3.2819 18.8401 2.97765 18.5358C-0.992477 14.5657 -0.992586 8.12882 2.97754 4.15869C3.28195 3.85428 3.60092 3.57326 3.93212 3.31552C4.02957 3.23969 4.15005 3.20011 4.27352 3.20011L7.10621 3.20009C7.73741 3.20008 8.2491 3.71177 8.24911 4.34297L8.24913 6.37141Z" fill="url(#paint4_linear_3218_87085)"/>
</g>
<defs>
<linearGradient id="paint0_linear_3218_87085" x1="15.3123" y1="8.12308" x2="8.66643" y2="14.769" gradientUnits="userSpaceOnUse">
<stop stop-color="#FE5468"/>
<stop offset="1" stop-color="#FFDF27"/>
</linearGradient>
<linearGradient id="paint1_linear_3218_87085" x1="15.3123" y1="8.12308" x2="8.66643" y2="14.769" gradientUnits="userSpaceOnUse">
<stop stop-color="#FE5468"/>
<stop offset="1" stop-color="#FFDF27"/>
</linearGradient>
<linearGradient id="paint2_linear_3218_87085" x1="18.5039" y1="0" x2="18.5039" y2="24" gradientUnits="userSpaceOnUse">
<stop stop-color="#10808C"/>
<stop offset="1" stop-color="#1DF7EF"/>
</linearGradient>
<linearGradient id="paint3_linear_3218_87085" x1="18.5039" y1="0" x2="18.5039" y2="24" gradientUnits="userSpaceOnUse">
<stop stop-color="#10808C"/>
<stop offset="1" stop-color="#1DF7EF"/>
</linearGradient>
<linearGradient id="paint4_linear_3218_87085" x1="4.12463" y1="3.20009" x2="4.12463" y2="19.4942" gradientUnits="userSpaceOnUse">
<stop stop-color="#10808C"/>
<stop offset="1" stop-color="#1DF7EF"/>
</linearGradient>
<clipPath id="clip0_3218_87085">
<rect width="24" height="24" fill="white"/>
</clipPath>
</defs>
</svg>
