<svg width="15" height="15" viewBox="0 0 15 15" fill="none" xmlns="http://www.w3.org/2000/svg">
<g clip-path="url(#clip0_177_30327)">
<path fill-rule="evenodd" clip-rule="evenodd" d="M2 2V13H1V2H2Z" fill="url(#paint0_linear_177_30327)"/>
<path d="M14 2V13H13V2H14Z" fill="url(#paint1_linear_177_30327)"/>
<path d="M0 1C0 0.447715 0.447715 0 1 0H14C14.5523 0 15 0.447715 15 1C15 1.55228 14.5523 2 14 2H1C0.447715 2 0 1.55228 0 1Z" fill="url(#paint2_linear_177_30327)"/>
<path d="M0 14C0 13.4477 0.447715 13 1 13H14C14.5523 13 15 13.4477 15 14C15 14.5523 14.5523 15 14 15H1C0.447715 15 0 14.5523 0 14Z" fill="url(#paint3_linear_177_30327)"/>
<circle cx="7.5" cy="7" r="1.5" fill="url(#paint4_linear_177_30327)"/>
<path fill-rule="evenodd" clip-rule="evenodd" d="M5.72364 6.38471C5.16855 6.66226 4.58791 7.11924 3.85359 7.85355L3.14648 7.14645C3.91217 6.38076 4.58153 5.83774 5.27643 5.49029C5.983 5.137 6.68724 5 7.50004 5C8.31284 5 9.01707 5.137 9.72364 5.49029C10.4185 5.83774 11.0879 6.38076 11.8536 7.14645L11.1465 7.85355C10.4122 7.11924 9.83153 6.66226 9.27643 6.38471C8.733 6.113 8.18724 6 7.50004 6C6.81284 6 6.26707 6.113 5.72364 6.38471Z" fill="url(#paint5_linear_177_30327)"/>
<path fill-rule="evenodd" clip-rule="evenodd" d="M5.72364 8.61529C5.16855 8.33774 4.58791 7.88076 3.85359 7.14645L3.14648 7.85355C3.91217 8.61924 4.58153 9.16226 5.27643 9.50971C5.983 9.863 6.68724 10 7.50004 10C8.31284 10 9.01707 9.863 9.72364 9.50971C10.4185 9.16226 11.0879 8.61924 11.8536 7.85355L11.1465 7.14645C10.4122 7.88076 9.83153 8.33774 9.27643 8.61529C8.733 8.887 8.18724 9 7.50004 9C6.81284 9 6.26707 8.887 5.72364 8.61529Z" fill="url(#paint6_linear_177_30327)"/>
<path fill-rule="evenodd" clip-rule="evenodd" d="M11.9998 4.00015L3.64344 10.7647L2.99958 9.99955L11.356 3.235L11.9998 4.00015Z" fill="url(#paint7_linear_177_30327)"/>
</g>
<defs>
<linearGradient id="paint0_linear_177_30327" x1="1.5" y1="2" x2="1.5" y2="13" gradientUnits="userSpaceOnUse">
<stop stop-color="#10808C"/>
<stop offset="1" stop-color="#1DF7EF"/>
</linearGradient>
<linearGradient id="paint1_linear_177_30327" x1="13.5" y1="2" x2="13.5" y2="13" gradientUnits="userSpaceOnUse">
<stop stop-color="#10808C"/>
<stop offset="1" stop-color="#1DF7EF"/>
</linearGradient>
<linearGradient id="paint2_linear_177_30327" x1="7.5" y1="0" x2="7.5" y2="2" gradientUnits="userSpaceOnUse">
<stop stop-color="#FE5468"/>
<stop offset="1" stop-color="#FFDF27"/>
</linearGradient>
<linearGradient id="paint3_linear_177_30327" x1="7.5" y1="13" x2="7.5" y2="15" gradientUnits="userSpaceOnUse">
<stop stop-color="#FE5468"/>
<stop offset="1" stop-color="#FFDF27"/>
</linearGradient>
<linearGradient id="paint4_linear_177_30327" x1="7.5" y1="5.5" x2="7.5" y2="8.5" gradientUnits="userSpaceOnUse">
<stop stop-color="#FE5468"/>
<stop offset="1" stop-color="#FFDF27"/>
</linearGradient>
<linearGradient id="paint5_linear_177_30327" x1="7.50004" y1="5" x2="7.50004" y2="7.85355" gradientUnits="userSpaceOnUse">
<stop stop-color="#FE5468"/>
<stop offset="1" stop-color="#FFDF27"/>
</linearGradient>
<linearGradient id="paint6_linear_177_30327" x1="7.50004" y1="10" x2="7.50004" y2="7.14645" gradientUnits="userSpaceOnUse">
<stop stop-color="#FE5468"/>
<stop offset="1" stop-color="#FFDF27"/>
</linearGradient>
<linearGradient id="paint7_linear_177_30327" x1="7.12872" y1="6.52286" x2="7.8707" y2="7.47684" gradientUnits="userSpaceOnUse">
<stop stop-color="#10808C"/>
<stop offset="1" stop-color="#1DF7EF"/>
</linearGradient>
<clipPath id="clip0_177_30327">
<rect width="15" height="15" fill="white"/>
</clipPath>
</defs>
</svg>
