<svg width="15" height="15" viewBox="0 0 15 15" fill="none" xmlns="http://www.w3.org/2000/svg">
<g clip-path="url(#clip0_3040_75250)">
<path d="M12.0833 12.3486C12.0833 12.8307 11.9222 13.293 11.6357 13.634C11.3492 13.9749 10.9606 14.1666 10.5554 14.1666H6.66707C6.93944 13.804 7.15302 13.3951 7.29614 12.9544H10.5554C10.6904 12.9544 10.82 12.8906 10.9155 12.777C11.011 12.6634 11.0648 12.5092 11.0649 12.3486V12.1154H12.0833V12.3486Z" fill="url(#paint0_linear_3040_75250)"/>
<path d="M8.51848 0.833252C8.65354 0.833252 8.93241 0.897002 9.02792 1.01066L11.8075 3.97493C11.903 4.08858 12.0833 4.26227 12.0833 4.42293V6.98722H11.0649V4.42293L8.45663 1.85905H4.44458C4.30953 1.85905 4.17998 1.92282 4.08447 2.03646C3.98897 2.15011 3.93515 2.3042 3.93514 2.46493V3.91024H2.91667V2.65129C2.9167 2.16913 3.07778 1.70683 3.36426 1.36589C3.65077 1.02491 4.03939 0.833252 4.44458 0.833252H8.51848Z" fill="url(#paint1_linear_3040_75250)"/>
<path fill-rule="evenodd" clip-rule="evenodd" d="M8.80208 0.833252C9.06097 0.833252 9.27083 1.04312 9.27083 1.302V3.64575H11.6146C11.8735 3.64575 12.0833 3.85562 12.0833 4.1145C12.0833 4.37339 12.0833 4.58325 12.0833 4.58325H9.27083C8.75307 4.58325 8.33333 4.16352 8.33333 3.64575V0.833549C8.33333 0.833549 8.5432 0.833252 8.80208 0.833252Z" fill="url(#paint2_linear_3040_75250)"/>
<path fill-rule="evenodd" clip-rule="evenodd" d="M13.0002 7.2718L14.8326 9.33665C15.0558 9.58805 15.0558 9.99565 14.8326 10.247L13.0002 12.3114C12.777 12.5628 12.4152 12.5628 12.192 12.3114C11.9689 12.06 11.9689 11.6524 12.192 11.401L13.049 10.4356L8.54167 10.4357C8.42661 10.4357 8.33333 10.3424 8.33333 10.2273V9.35649C8.33333 9.24143 8.4266 9.14816 8.54166 9.14816L13.049 9.1481L12.192 8.1822C11.9689 7.9308 11.9689 7.5232 12.192 7.2718C12.4152 7.0204 12.777 7.0204 13.0002 7.2718Z" fill="url(#paint3_linear_3040_75250)"/>
<path d="M2.12487 3.93879C2.36197 3.68739 2.74633 3.68739 2.98343 3.93879C3.22044 4.1902 3.2205 4.59766 2.98343 4.84903L2.07279 5.8142H6.87503C6.99003 5.81422 7.08329 5.90755 7.08337 6.02253V6.8933C7.08337 7.00835 6.99008 7.10162 6.87503 7.10163L2.07279 7.10204L2.52282 7.57934C2.0693 7.66876 1.64262 7.83217 1.25491 8.05582L0.177848 6.91324C-0.0592182 6.66185 -0.0592149 6.25439 0.177848 6.003L2.12487 3.93879Z" fill="url(#paint4_linear_3040_75250)"/>
<path fill-rule="evenodd" clip-rule="evenodd" d="M3.33333 8.93931C1.8271 8.93931 0.606061 10.1604 0.606061 11.6666C0.606061 13.1728 1.8271 14.3939 3.33333 14.3939C4.83956 14.3939 6.06061 13.1728 6.06061 11.6666C6.06061 10.1604 4.83956 8.93931 3.33333 8.93931ZM0 11.6666C0 9.82564 1.49238 8.33325 3.33333 8.33325C5.17428 8.33325 6.66667 9.82564 6.66667 11.6666C6.66667 13.5075 5.17428 14.9999 3.33333 14.9999C1.49238 14.9999 0 13.5075 0 11.6666Z" fill="url(#paint5_linear_3040_75250)"/>
<path d="M3.02083 9.58325C3.02083 9.41066 3.16074 9.27075 3.33333 9.27075C3.50592 9.27075 3.64583 9.41066 3.64583 9.58325V11.8273L2.05648 12.9626C1.91604 13.0628 1.72097 13.0301 1.62069 12.8897C1.52047 12.7493 1.55312 12.5542 1.69352 12.4539L3.02083 11.5059V9.58325Z" fill="url(#paint6_linear_3040_75250)"/>
<path d="M6.04167 10C6.38685 10 6.66667 10.2798 6.66667 10.625C6.66667 10.9702 6.38685 11.25 6.04167 11.25C5.86795 11.25 5.71102 11.1789 5.59774 11.0645L3.40455 11.8624C3.29643 11.9017 3.17696 11.846 3.13762 11.7379C3.0983 11.6298 3.15402 11.5103 3.26213 11.4709L5.41952 10.686C5.41758 10.666 5.41667 10.6456 5.41667 10.625C5.41667 10.2798 5.6965 10 6.04167 10Z" fill="url(#paint7_linear_3040_75250)"/>
</g>
<defs>
<linearGradient id="paint0_linear_3040_75250" x1="7.5" y1="0.833252" x2="7.5" y2="14.1666" gradientUnits="userSpaceOnUse">
<stop stop-color="#10808C"/>
<stop offset="1" stop-color="#1DF7EF"/>
</linearGradient>
<linearGradient id="paint1_linear_3040_75250" x1="7.5" y1="0.833252" x2="7.5" y2="14.1666" gradientUnits="userSpaceOnUse">
<stop stop-color="#10808C"/>
<stop offset="1" stop-color="#1DF7EF"/>
</linearGradient>
<linearGradient id="paint2_linear_3040_75250" x1="10.2083" y1="0.833252" x2="10.2083" y2="4.58325" gradientUnits="userSpaceOnUse">
<stop stop-color="#FE5468"/>
<stop offset="1" stop-color="#FFDF27"/>
</linearGradient>
<linearGradient id="paint3_linear_3040_75250" x1="11.6667" y1="7.08325" x2="11.6667" y2="12.4999" gradientUnits="userSpaceOnUse">
<stop stop-color="#FE5468"/>
<stop offset="1" stop-color="#FFDF27"/>
</linearGradient>
<linearGradient id="paint4_linear_3040_75250" x1="3.54171" y1="3.75024" x2="3.54171" y2="8.05582" gradientUnits="userSpaceOnUse">
<stop stop-color="#FE5468"/>
<stop offset="1" stop-color="#FFDF27"/>
</linearGradient>
<linearGradient id="paint5_linear_3040_75250" x1="3.33333" y1="8.33325" x2="3.33333" y2="14.9999" gradientUnits="userSpaceOnUse">
<stop stop-color="#FE5468"/>
<stop offset="1" stop-color="#FFDF27"/>
</linearGradient>
<linearGradient id="paint6_linear_3040_75250" x1="2.6042" y1="9.27075" x2="2.6042" y2="13.0207" gradientUnits="userSpaceOnUse">
<stop stop-color="#FE5468"/>
<stop offset="1" stop-color="#FFDF27"/>
</linearGradient>
<linearGradient id="paint7_linear_3040_75250" x1="4.89584" y1="10" x2="4.89584" y2="11.875" gradientUnits="userSpaceOnUse">
<stop stop-color="#10808C"/>
<stop offset="1" stop-color="#1DF7EF"/>
</linearGradient>
<clipPath id="clip0_3040_75250">
<rect width="15" height="15" fill="white"/>
</clipPath>
</defs>
</svg>
