<svg width="15" height="15" viewBox="0 0 15 15" fill="none" xmlns="http://www.w3.org/2000/svg">
<path fill-rule="evenodd" clip-rule="evenodd" d="M7.5 1.36364C4.11098 1.36364 1.36364 4.11098 1.36364 7.5C1.36364 10.889 4.11098 13.6364 7.5 13.6364C10.889 13.6364 13.6364 10.889 13.6364 7.5C13.6364 4.11098 10.889 1.36364 7.5 1.36364ZM0 7.5C0 3.35786 3.35786 0 7.5 0C11.6421 0 15 3.35786 15 7.5C15 11.6421 11.6421 15 7.5 15C3.35786 15 0 11.6421 0 7.5Z" fill="url(#paint0_linear_177_31298)"/>
<path fill-rule="evenodd" clip-rule="evenodd" d="M10.4503 4.54969C10.61 4.70942 10.6658 4.94568 10.5944 5.15998L9.33007 8.9529C9.27071 9.13098 9.13098 9.27071 8.9529 9.33007L5.15998 10.5944C4.94568 10.6658 4.70942 10.61 4.54969 10.4503C4.38996 10.2906 4.33419 10.0543 4.40562 9.84002L5.66993 6.0471C5.72929 5.86903 5.86903 5.72929 6.0471 5.66993L9.84002 4.40562C10.0543 4.33419 10.2906 4.38996 10.4503 4.54969ZM6.70717 6.70717L5.91433 9.08567L8.29283 8.29283L9.08567 5.91433L6.70717 6.70717Z" fill="url(#paint1_linear_177_31298)"/>
<defs>
<linearGradient id="paint0_linear_177_31298" x1="7.5" y1="0" x2="7.5" y2="15" gradientUnits="userSpaceOnUse">
<stop stop-color="#10808C"/>
<stop offset="1" stop-color="#1DF7EF"/>
</linearGradient>
<linearGradient id="paint1_linear_177_31298" x1="7.5" y1="4.375" x2="7.5" y2="10.625" gradientUnits="userSpaceOnUse">
<stop stop-color="#FE5468"/>
<stop offset="1" stop-color="#FFDF27"/>
</linearGradient>
</defs>
</svg>
