<svg width="24" height="24" viewBox="0 0 24 24" fill="none" xmlns="http://www.w3.org/2000/svg">
<g clip-path="url(#clip0_3218_87101)">
<path d="M7.50769 6.50962C8.14085 7.14277 8.14086 8.16929 7.50773 8.80246L5.01608 11.2942C4.67028 11.64 4.49003 12.1255 4.58434 12.6053C5.25902 16.0382 7.9638 18.743 11.3967 19.4177C11.8767 19.512 12.3621 19.3317 12.708 18.9859L15.1995 16.4942C15.8327 15.861 16.8593 15.861 17.4925 16.4942L19.5251 18.5268C20.1583 19.1599 20.1583 20.1865 19.5252 20.8196L16.6831 23.6618C16.5592 23.7856 16.3987 23.8668 16.2249 23.8885C15.6343 23.9621 15.0326 24 14.4222 24C6.45712 24 0 17.5431 0 9.57805C0 8.96733 0.0380734 8.36546 0.111759 7.77468C0.133439 7.60086 0.214591 7.4403 0.338454 7.31644L3.17997 4.47488C3.81313 3.84171 4.83971 3.8417 5.47288 4.47486L7.50769 6.50962Z" fill="url(#paint0_linear_3218_87101)"/>
<path d="M21.0821 11.5128C21.1774 12.3216 21.8192 13 22.6336 13C23.4163 13 24.0641 12.3728 23.9949 11.5932C23.8846 10.3503 23.5925 9.12766 23.1257 7.96498C22.4836 6.36569 21.5243 4.91296 20.3057 3.69434C19.0871 2.47572 17.6343 1.51645 16.035 0.874337C14.8724 0.407527 13.6497 0.115366 12.4068 0.00507339C11.6272 -0.064106 11.0001 0.583719 11.0001 1.36639C11.0001 2.1808 11.6785 2.82257 12.4873 2.91788C13.3247 3.01656 14.1479 3.22302 14.9362 3.53369C16.1879 4.027 17.3248 4.7725 18.2762 5.72386C19.2275 6.67522 19.973 7.8121 20.4663 9.06383C20.777 9.85214 20.9835 10.6754 21.0821 11.5128Z" fill="url(#paint1_linear_3218_87101)"/>
<path d="M11 7.20341C11 8.00373 11.6569 8.62394 12.4428 8.77516C14.0314 9.08081 14.919 9.96844 15.2246 11.557C15.3758 12.3429 15.996 12.9998 16.7964 12.9998C17.5967 12.9998 18.2593 12.3466 18.1547 11.5532C17.7205 8.26072 15.7391 6.27927 12.4466 5.84507C11.6532 5.74043 11 6.4031 11 7.20341Z" fill="url(#paint2_linear_3218_87101)"/>
</g>
<defs>
<linearGradient id="paint0_linear_3218_87101" x1="10" y1="4" x2="10" y2="24" gradientUnits="userSpaceOnUse">
<stop stop-color="#10808C"/>
<stop offset="1" stop-color="#1DF7EF"/>
</linearGradient>
<linearGradient id="paint1_linear_3218_87101" x1="17.5" y1="0" x2="17.5" y2="13" gradientUnits="userSpaceOnUse">
<stop stop-color="#FE5468"/>
<stop offset="1" stop-color="#FFDF27"/>
</linearGradient>
<linearGradient id="paint2_linear_3218_87101" x1="17.5" y1="0" x2="17.5" y2="13" gradientUnits="userSpaceOnUse">
<stop stop-color="#FE5468"/>
<stop offset="1" stop-color="#FFDF27"/>
</linearGradient>
<clipPath id="clip0_3218_87101">
<rect width="24" height="24" fill="white"/>
</clipPath>
</defs>
</svg>
