<svg width="15" height="15" viewBox="0 0 15 15" fill="none" xmlns="http://www.w3.org/2000/svg">
<path fill-rule="evenodd" clip-rule="evenodd" d="M2.18035 12.7803C1.88746 12.4874 1.88746 12.0126 2.18035 11.7197L11.7263 2.17373C12.0192 1.88084 12.4941 1.88084 12.787 2.17373C13.0798 2.46662 13.0798 2.9415 12.787 3.23439L3.24101 12.7803C2.94812 13.0732 2.47325 13.0732 2.18035 12.7803Z" fill="url(#paint0_linear_192_47430)"/>
<path fill-rule="evenodd" clip-rule="evenodd" d="M2.19672 2.20031C2.48961 1.90742 2.96449 1.90742 3.25738 2.20031L12.8033 11.7463C13.0962 12.0391 13.0962 12.514 12.8033 12.8069C12.5104 13.0998 12.0356 13.0998 11.7427 12.8069L2.19672 3.26097C1.90383 2.96808 1.90383 2.49321 2.19672 2.20031Z" fill="url(#paint1_linear_192_47430)"/>
<defs>
<linearGradient id="paint0_linear_192_47430" x1="6.95333" y1="6.9467" x2="8.01399" y2="8.00736" gradientUnits="userSpaceOnUse">
<stop stop-color="#FE5468"/>
<stop offset="1" stop-color="#FFDF27"/>
</linearGradient>
<linearGradient id="paint1_linear_192_47430" x1="8.03035" y1="6.97328" x2="6.96969" y2="8.03394" gradientUnits="userSpaceOnUse">
<stop stop-color="#10808C"/>
<stop offset="1" stop-color="#1DF7EF"/>
</linearGradient>
</defs>
</svg>
