<svg width="24" height="24" viewBox="0 0 24 24" fill="none" xmlns="http://www.w3.org/2000/svg">
<g clip-path="url(#clip0_3218_88279)">
<path d="M8.95508 9.62957H5.65885C5.40176 9.62962 5.1551 9.71574 4.97331 9.8685C4.79156 10.0213 4.68945 10.2286 4.68945 10.4447V20.8887C4.68945 21.1047 4.79155 21.3121 4.97331 21.4649C5.1551 21.6176 5.40176 21.7037 5.65885 21.7038H18.3796C18.6367 21.7037 18.8833 21.6176 19.0651 21.4649C19.2469 21.3121 19.349 21.1047 19.349 20.8887V10.4447C19.349 10.2286 19.2469 10.0213 19.0651 9.8685C18.8833 9.71573 18.6367 9.62961 18.3796 9.62957H15.0833V7.33334H18.3796C19.151 7.33339 19.8907 7.59112 20.4362 8.04949C20.9818 8.50791 21.2884 9.1297 21.2884 9.778V20.8887C21.2884 21.537 20.9818 22.8254 20.4362 23.2839C19.8907 23.7422 19.151 24 18.3796 24H5.65885C4.8874 24 4.14772 23.7422 3.60221 23.2839C3.05665 22.8254 2.75 21.537 2.75 20.8887V9.778C2.75 9.1297 3.05666 8.50791 3.60221 8.04949C4.14772 7.59111 4.8874 7.3334 5.65885 7.33334H8.95508V9.62957Z" fill="url(#paint0_linear_3218_88279)"/>
<path fill-rule="evenodd" clip-rule="evenodd" d="M8.05168 3.19973L11.3554 0.26779C11.7577 -0.0892612 12.4098 -0.0892613 12.8121 0.26779L16.115 3.19973C16.5172 3.55678 16.5172 4.13567 16.115 4.49272C15.7127 4.84977 15.0606 4.84977 14.6584 4.49272L13.1137 3.12157L13.1138 13.6667C13.1138 13.8508 12.9646 14 12.7805 14L11.3872 14C11.2031 14 11.0539 13.8508 11.0539 13.6667L11.0538 3.12157L9.50831 4.49272C9.10607 4.84978 8.45392 4.84978 8.05168 4.49272C7.64944 4.13567 7.64944 3.55678 8.05168 3.19973Z" fill="url(#paint1_linear_3218_88279)"/>
</g>
<defs>
<linearGradient id="paint0_linear_3218_88279" x1="12.0192" y1="7.33334" x2="12.0192" y2="24" gradientUnits="userSpaceOnUse">
<stop stop-color="#10808C"/>
<stop offset="1" stop-color="#1DF7EF"/>
</linearGradient>
<linearGradient id="paint1_linear_3218_88279" x1="7.75" y1="7" x2="16.4167" y2="7" gradientUnits="userSpaceOnUse">
<stop stop-color="#FE5468"/>
<stop offset="1" stop-color="#FFDF27"/>
</linearGradient>
<clipPath id="clip0_3218_88279">
<rect width="24" height="24" fill="white"/>
</clipPath>
</defs>
</svg>
