<svg width="15" height="15" viewBox="0 0 15 15" fill="none" xmlns="http://www.w3.org/2000/svg">
<g clip-path="url(#clip0_177_30365)">
<path d="M11.3821 13.2019C11.7508 13.6005 11.7654 14.2215 11.3984 14.6374C11.0313 15.0534 10.4131 15.1166 9.97164 14.8003L9.88585 14.732L4.42122 9.91026C3.01639 8.67068 2.97277 6.50993 4.28981 5.21278L4.42122 5.08974L9.88585 0.267963L9.97164 0.199744C10.4131 -0.1166 11.0313 -0.053431 11.3984 0.362549C11.7654 0.778496 11.7508 1.39949 11.3821 1.79807L11.3038 1.87508L5.83917 6.69644L5.79523 6.73745C5.35615 7.16983 5.37087 7.89035 5.83917 8.30356L11.3038 13.1249L11.3821 13.2019Z" fill="url(#paint0_linear_177_30365)"/>
</g>
<defs>
<linearGradient id="paint0_linear_177_30365" x1="11.6662" y1="7.5" x2="3.33376" y2="7.5" gradientUnits="userSpaceOnUse">
<stop stop-color="#FE5468"/>
<stop offset="1" stop-color="#FFDF27"/>
</linearGradient>
<clipPath id="clip0_177_30365">
<rect width="15" height="15" fill="white"/>
</clipPath>
</defs>
</svg>
