<svg width="24" height="24" viewBox="0 0 24 24" fill="none" xmlns="http://www.w3.org/2000/svg">
<g clip-path="url(#clip0_3218_87049)">
<path d="M16.0342 2.84835C16.0342 4.42144 14.1901 5.69669 11.9152 5.69669C9.64033 5.69669 7.79619 4.42144 7.79619 2.84835C7.79619 1.27525 9.64033 0 11.9152 0C14.1901 0 16.0342 1.27525 16.0342 2.84835Z" fill="url(#paint0_linear_3218_87049)"/>
<path d="M15.4832 5.69669C14.771 6.54806 13.4398 7.12087 11.9152 7.12087C10.3906 7.12087 9.05943 6.54806 8.34724 5.69669C7.99677 6.11565 7.79619 6.60206 7.79619 7.12087C7.79619 8.69396 9.64033 9.96921 11.9152 9.96921C14.1901 9.96921 16.0342 8.69396 16.0342 7.12087C16.0342 6.60206 15.8336 6.11565 15.4832 5.69669Z" fill="url(#paint1_linear_3218_87049)"/>
<path d="M11.9152 11.3934C13.4398 11.3934 14.771 10.8206 15.4832 9.96921C15.8336 10.3882 16.0342 10.8746 16.0342 11.3934C16.0342 12.9665 14.1901 14.2417 11.9152 14.2417C9.64033 14.2417 7.79619 12.9665 7.79619 11.3934C7.79619 10.8746 7.99677 10.3882 8.34724 9.96921C9.05943 10.8206 10.3906 11.3934 11.9152 11.3934Z" fill="url(#paint2_linear_3218_87049)"/>
<path d="M20 16.3503C19.4933 16.1397 19.0448 15.843 18.6806 15.4825L14.5244 18.9052C14.953 19.2051 15.3094 19.5773 15.5682 20L20 16.3503Z" fill="url(#paint3_linear_3218_87049)"/>
<path d="M9.36379 18.8655C8.92868 19.159 8.56461 19.5258 8.29717 19.9441L4 16.2756C4.49001 16.0473 4.9197 15.7364 5.26345 15.365L9.36379 18.8655Z" fill="url(#paint4_linear_3218_87049)"/>
<path d="M4.8 13.1667C4.8 14.3633 3.72548 15.3333 2.4 15.3333C1.07452 15.3333 0 14.3633 0 13.1667C0 11.9701 1.07452 11 2.4 11C3.72548 11 4.8 11.9701 4.8 13.1667Z" fill="url(#paint5_linear_3218_87049)"/>
<path d="M14.4 21.8333C14.4 23.03 13.3255 24 12 24C10.6745 24 9.6 23.03 9.6 21.8333C9.6 20.6367 10.6745 19.6667 12 19.6667C13.3255 19.6667 14.4 20.6367 14.4 21.8333Z" fill="url(#paint6_linear_3218_87049)"/>
<path d="M21.6 15.3333C22.9255 15.3333 24 14.3633 24 13.1667C24 11.9701 22.9255 11 21.6 11C20.2745 11 19.2 11.9701 19.2 13.1667C19.2 14.3633 20.2745 15.3333 21.6 15.3333Z" fill="url(#paint7_linear_3218_87049)"/>
</g>
<defs>
<linearGradient id="paint0_linear_3218_87049" x1="12" y1="0" x2="12" y2="20" gradientUnits="userSpaceOnUse">
<stop stop-color="#10808C"/>
<stop offset="1" stop-color="#1DF7EF"/>
</linearGradient>
<linearGradient id="paint1_linear_3218_87049" x1="12" y1="0" x2="12" y2="20" gradientUnits="userSpaceOnUse">
<stop stop-color="#10808C"/>
<stop offset="1" stop-color="#1DF7EF"/>
</linearGradient>
<linearGradient id="paint2_linear_3218_87049" x1="12" y1="0" x2="12" y2="20" gradientUnits="userSpaceOnUse">
<stop stop-color="#10808C"/>
<stop offset="1" stop-color="#1DF7EF"/>
</linearGradient>
<linearGradient id="paint3_linear_3218_87049" x1="12" y1="0" x2="12" y2="20" gradientUnits="userSpaceOnUse">
<stop stop-color="#10808C"/>
<stop offset="1" stop-color="#1DF7EF"/>
</linearGradient>
<linearGradient id="paint4_linear_3218_87049" x1="12" y1="0" x2="12" y2="20" gradientUnits="userSpaceOnUse">
<stop stop-color="#10808C"/>
<stop offset="1" stop-color="#1DF7EF"/>
</linearGradient>
<linearGradient id="paint5_linear_3218_87049" x1="12" y1="11" x2="12" y2="24" gradientUnits="userSpaceOnUse">
<stop stop-color="#FE5468"/>
<stop offset="1" stop-color="#FFDF27"/>
</linearGradient>
<linearGradient id="paint6_linear_3218_87049" x1="12" y1="11" x2="12" y2="24" gradientUnits="userSpaceOnUse">
<stop stop-color="#FE5468"/>
<stop offset="1" stop-color="#FFDF27"/>
</linearGradient>
<linearGradient id="paint7_linear_3218_87049" x1="12" y1="11" x2="12" y2="24" gradientUnits="userSpaceOnUse">
<stop stop-color="#FE5468"/>
<stop offset="1" stop-color="#FFDF27"/>
</linearGradient>
<clipPath id="clip0_3218_87049">
<rect width="24" height="24" fill="white"/>
</clipPath>
</defs>
</svg>
