<svg width="15" height="15" viewBox="0 0 15 15" fill="none" xmlns="http://www.w3.org/2000/svg">
<g clip-path="url(#clip0_10815_37705)">
<path fill-rule="evenodd" clip-rule="evenodd" d="M7.65 0.899999C7.76935 0.899999 7.88381 0.947409 7.9682 1.0318C8.05259 1.11619 8.1 1.23065 8.1 1.35V7.46359L7.0682 6.43179C6.98381 6.3474 6.86935 6.29999 6.75 6.29999H1.35C1.23065 6.29999 1.11619 6.25258 1.0318 6.16819C0.947411 6.0838 0.900001 5.96934 0.900001 5.84999V1.35C0.900001 1.23065 0.947411 1.11619 1.0318 1.0318C1.11619 0.947409 1.23065 0.899999 1.35 0.899999H7.65ZM8.60459 0.395405C8.35142 0.142231 8.00804 0 7.65 0H1.35C0.991958 0 0.648581 0.142232 0.395406 0.395405C0.142232 0.648579 0 0.991956 0 1.35V5.84999C0 6.20803 0.142232 6.55141 0.395406 6.80458C0.64858 7.05776 0.991958 7.19999 1.35 7.19999H6.5636L8.2318 8.86819C8.3605 8.99688 8.55405 9.03538 8.72221 8.96573C8.89036 8.89608 9 8.732 9 8.54999V1.35C9 0.991956 8.85777 0.648579 8.60459 0.395405Z" fill="url(#paint0_linear_10815_37705)"/>
<path d="M4 8V14.45C4 14.6724 4.134 14.873 4.33952 14.9581C4.54505 15.0432 4.78161 14.9962 4.93891 14.8389L6.97782 12.8H13.35C13.7876 12.8 14.2073 12.6261 14.5167 12.3167C14.8262 12.0073 15 11.5876 15 11.15V5.65C15 5.21239 14.8262 4.79271 14.5167 4.48327C14.2073 4.17384 13.7876 4 13.35 4H10V5.1H13.35C13.4959 5.1 13.6358 5.15794 13.7389 5.26109C13.8421 5.36423 13.9 5.50413 13.9 5.65V11.15C13.9 11.2959 13.8421 11.4358 13.7389 11.5389C13.6358 11.642 13.4959 11.7 13.35 11.7H6.75C6.60413 11.7 6.46424 11.7579 6.36109 11.8611L5.1 13.1222V8H4Z" fill="url(#paint1_linear_10815_37705)"/>
</g>
<defs>
<linearGradient id="paint0_linear_10815_37705" x1="4.5" y1="0" x2="4.5" y2="9" gradientUnits="userSpaceOnUse">
<stop stop-color="#10808C"/>
<stop offset="1" stop-color="#1DF7EF"/>
</linearGradient>
<linearGradient id="paint1_linear_10815_37705" x1="9.5" y1="4" x2="16.9153" y2="14.4251" gradientUnits="userSpaceOnUse">
<stop stop-color="#FE5468"/>
<stop offset="1" stop-color="#FFDF27"/>
</linearGradient>
<clipPath id="clip0_10815_37705">
<rect width="15" height="15" fill="white"/>
</clipPath>
</defs>
</svg>
