<svg width="24" height="24" viewBox="0 0 24 24" fill="none" xmlns="http://www.w3.org/2000/svg">
<g clip-path="url(#clip0_3218_87885)">
<path fill-rule="evenodd" clip-rule="evenodd" d="M2.41451 5.9429L2.70562 4.47142C2.79962 4.49001 2.8979 4.5 3 4.5H3.5V6H3C2.79964 6 2.60388 5.98036 2.41451 5.9429ZM20.5 6V4.5H21C21.1021 4.5 21.2004 4.49001 21.2944 4.47142L21.5855 5.9429C21.3961 5.98036 21.2004 6 21 6H20.5ZM22.6668 5.4947L21.8324 4.24824C21.9966 4.1383 22.1383 3.99659 22.2482 3.83237L23.4947 4.66685C23.2757 4.994 22.994 5.27567 22.6668 5.4947ZM23.9429 3.58549L22.4714 3.29438C22.49 3.20038 22.5 3.1021 22.5 3C22.5 2.8979 22.49 2.79962 22.4714 2.70562L23.9429 2.41451C23.9804 2.60388 24 2.79964 24 3C24 3.20036 23.9804 3.39612 23.9429 3.58549ZM23.4947 1.33315L22.2482 2.16763C22.1383 2.00341 21.9966 1.8617 21.8324 1.75176L22.6668 0.505304C22.994 0.724328 23.2757 1.006 23.4947 1.33315ZM3.5 0H3C2.79964 0 2.60388 0.0196408 2.41451 0.0571021L2.70562 1.52858C2.79962 1.50999 2.8979 1.5 3 1.5H3.5V0ZM1.33315 0.505304L2.16763 1.75176C2.00341 1.8617 1.8617 2.00341 1.75176 2.16763L0.505304 1.33315C0.724328 1.006 1.006 0.724328 1.33315 0.505304ZM0.0571021 2.41451L1.52858 2.70562C1.50999 2.79962 1.5 2.8979 1.5 3C1.5 3.1021 1.50999 3.20038 1.52858 3.29438L0.0571021 3.58549C0.0196408 3.39612 0 3.20036 0 3C0 2.79964 0.0196408 2.60388 0.0571021 2.41451ZM1.33315 5.4947L2.16763 4.24824C2.00341 4.1383 1.8617 3.99659 1.75176 3.83237L0.505304 4.66685C0.724328 4.994 1.006 5.27567 1.33315 5.4947ZM4.5 0V1.5H5.5V0H4.5ZM6.5 0V1.5H7.5V0H6.5ZM8.5 0V1.5H9.5V0H8.5ZM10.5 0V1.5H11.5V0H10.5ZM12.5 0V1.5H13.5V0H12.5ZM14.5 0V1.5H15.5V0H14.5ZM16.5 0V1.5H17.5V0H16.5ZM18.5 0V1.5H19.5V0H18.5ZM20.5 0V1.5H21C21.1021 1.5 21.2004 1.50999 21.2944 1.52858L21.5855 0.057102C21.3961 0.0196408 21.2004 0 21 0H20.5ZM19.5 6V4.5H18.5V6H19.5ZM17.5 6V4.5H16.5V6H17.5ZM15.5 6V4.5H14.5V6H15.5ZM13.5 6V4.5H12.5V6H13.5ZM11.5 6V4.5H10.5V6H11.5ZM9.5 6V4.5H8.5V6H9.5ZM7.5 6V4.5H6.5V6H7.5ZM5.5 6V4.5H4.5V6H5.5Z" fill="url(#paint0_linear_3218_87885)"/>
<path fill-rule="evenodd" clip-rule="evenodd" d="M22 9.5H2C1.72386 9.5 1.5 9.72386 1.5 10V14C1.5 14.2761 1.72386 14.5 2 14.5H22C22.2761 14.5 22.5 14.2761 22.5 14V10C22.5 9.72386 22.2761 9.5 22 9.5ZM2 8C0.895431 8 0 8.89543 0 10V14C0 15.1046 0.89543 16 2 16H22C23.1046 16 24 15.1046 24 14V10C24 8.89543 23.1046 8 22 8H2Z" fill="url(#paint1_linear_3218_87885)"/>
<path fill-rule="evenodd" clip-rule="evenodd" d="M21 19.5H3C2.17157 19.5 1.5 20.1716 1.5 21C1.5 21.8284 2.17157 22.5 3 22.5H21C21.8284 22.5 22.5 21.8284 22.5 21C22.5 20.1716 21.8284 19.5 21 19.5ZM3 18C1.34315 18 0 19.3431 0 21C0 22.6569 1.34315 24 3 24H21C22.6569 24 24 22.6569 24 21C24 19.3431 22.6569 18 21 18H3Z" fill="url(#paint2_linear_3218_87885)"/>
</g>
<defs>
<linearGradient id="paint0_linear_3218_87885" x1="12" y1="0" x2="12" y2="6" gradientUnits="userSpaceOnUse">
<stop stop-color="#FE5468"/>
<stop offset="1" stop-color="#FFDF27"/>
</linearGradient>
<linearGradient id="paint1_linear_3218_87885" x1="12" y1="8" x2="12" y2="16" gradientUnits="userSpaceOnUse">
<stop stop-color="#10808C"/>
<stop offset="1" stop-color="#1DF7EF"/>
</linearGradient>
<linearGradient id="paint2_linear_3218_87885" x1="12" y1="18" x2="12" y2="24" gradientUnits="userSpaceOnUse">
<stop stop-color="#FE5468"/>
<stop offset="1" stop-color="#FFDF27"/>
</linearGradient>
<clipPath id="clip0_3218_87885">
<rect width="24" height="24" fill="white"/>
</clipPath>
</defs>
</svg>
