<svg width="15" height="15" viewBox="0 0 15 15" fill="none" xmlns="http://www.w3.org/2000/svg">
<g clip-path="url(#clip0_10823_38559)">
<path fill-rule="evenodd" clip-rule="evenodd" d="M15 7.5C15 11.6421 11.6421 15 7.5 15C3.35786 15 0 11.6421 0 7.5C0 3.35786 3.35786 0 7.5 0C11.6421 0 15 3.35786 15 7.5ZM9.17977 13.5217C8.64527 13.6705 8.08192 13.75 7.5 13.75C6.66503 13.75 5.86831 13.5863 5.14018 13.2892C6.03689 13.1321 7.07451 12.8119 8.16507 12.3422C8.462 12.8364 8.80464 13.2377 9.17977 13.5217ZM1.25 7.50131C1.25028 8.89216 1.70488 10.1768 2.47347 11.215C2.68633 10.8292 3.00163 10.4147 3.40384 9.98886C2.45713 9.23202 1.71998 8.37337 1.25 7.50131ZM4.30582 2.12675C5.24058 1.56988 6.33293 1.25 7.5 1.25C8.08192 1.25 8.64527 1.32953 9.17977 1.47831C8.81891 1.75146 8.48812 2.13323 8.19916 2.60176C6.82304 2.15201 5.47401 1.99949 4.30582 2.12675ZM8.81597 4.17675C8.55208 4.86353 8.3609 5.69493 8.28548 6.61991C9.28319 6.14956 10.2504 5.79891 11.1225 5.57787C10.5294 5.09615 9.82913 4.65082 9.03656 4.27764C8.96299 4.243 8.88945 4.20938 8.81597 4.17675ZM9.38913 3.0638C9.44913 3.09087 9.50911 3.11851 9.56904 3.14673C10.6987 3.67864 11.6815 4.35279 12.4706 5.09762C12.3191 4.48261 12.1137 3.94108 11.8743 3.49643C11.3295 2.48466 10.7863 2.25 10.5 2.25C10.26 2.25 9.83967 2.41482 9.38913 3.0638ZM12.7493 7.37431C12.7498 7.41606 12.75 7.45796 12.75 7.5C12.75 7.60833 12.7484 7.7157 12.7453 7.82204C11.9465 8.67748 10.689 9.64092 9.12795 10.4861C9.00563 10.5523 8.88371 10.6166 8.76234 10.6789C8.49411 9.9317 8.31052 9.02675 8.26249 8.02437C9.73392 7.26876 11.1257 6.80129 12.2027 6.62735C12.3813 6.83812 12.5402 7.0508 12.6785 7.26294C12.7028 7.3003 12.7264 7.33742 12.7493 7.37431ZM12.1887 10.8112C11.832 10.9834 11.3844 11.1119 10.837 11.1741C10.6922 11.1906 10.5429 11.2018 10.3896 11.2078C11.1801 10.7397 11.8946 10.2415 12.509 9.73994C12.4217 10.1258 12.3134 10.4847 12.1887 10.8112ZM9.85031 12.4582C10.3345 12.4743 10.799 12.4486 11.2349 12.382C10.9345 12.666 10.6713 12.75 10.5 12.75C10.3451 12.75 10.1151 12.6813 9.85031 12.4582ZM7.64566 3.73742C6.46819 3.37473 5.34834 3.26631 4.4153 3.37228C3.09681 3.52203 2.35735 4.05679 2.07383 4.65894C1.79031 5.26109 1.84921 6.17176 2.57375 7.28345C2.98415 7.91314 3.57667 8.54758 4.32487 9.12268C5.07072 8.4912 5.9791 7.86031 7.0019 7.28368C7.02513 5.96436 7.26007 4.74448 7.64566 3.73742ZM4.43577 10.7195C4.34455 10.8121 4.25844 10.9036 4.17763 10.9938C3.77813 11.4396 3.55536 11.8002 3.45871 12.0479C3.45171 12.0659 3.44565 12.0824 3.4404 12.0976C3.45599 12.1015 3.47315 12.1055 3.49201 12.1094C3.75226 12.1639 4.17604 12.1745 4.7677 12.0837C5.24127 12.011 5.77781 11.8803 6.35667 11.6922C6.132 11.6027 5.90729 11.5052 5.68321 11.3997C5.2443 11.193 4.82758 10.9649 4.43577 10.7195ZM7.47355 10.767C7.0589 10.633 6.63775 10.4675 6.21569 10.2688C5.93566 10.1369 5.66716 9.99605 5.41084 9.84776C5.89225 9.46271 6.44577 9.07402 7.05943 8.6991C7.13387 9.44031 7.27603 10.1373 7.47355 10.767Z" fill="url(#paint0_linear_10823_38559)"/>
</g>
<defs>
<linearGradient id="paint0_linear_10823_38559" x1="7.5" y1="0" x2="7.5" y2="15" gradientUnits="userSpaceOnUse">
<stop stop-color="#10808C"/>
<stop offset="1" stop-color="#1DF7EF"/>
</linearGradient>
<clipPath id="clip0_10823_38559">
<rect width="15" height="15" fill="white"/>
</clipPath>
</defs>
</svg>
