<svg width="15" height="15" viewBox="0 0 15 15" fill="none" xmlns="http://www.w3.org/2000/svg">
<g clip-path="url(#clip0_20007_72079)">
<path fill-rule="evenodd" clip-rule="evenodd" d="M7.55699 2.37305C7.91572 2.37305 8.20653 2.66385 8.20653 3.02258V13.7012H13C13.3587 13.7012 13.6495 13.992 13.6495 14.3507C13.6495 14.7095 13.3587 15.0003 13 15.0003H2.00012C1.64139 15.0003 1.35059 14.7095 1.35059 14.3507C1.35059 13.992 1.64139 13.7012 2.00012 13.7012H6.90746V3.02258C6.90746 2.66385 7.19827 2.37305 7.55699 2.37305Z" fill="url(#paint0_linear_20007_72079)"/>
<path fill-rule="evenodd" clip-rule="evenodd" d="M7.41572 13.5991C4.51497 13.5241 2.18652 11.1491 2.18652 8.23023C2.18652 7.80696 2.23549 7.3951 2.32808 7C5.22884 7.07502 7.55728 9.45004 7.55728 12.3689C7.55728 12.7922 7.5083 13.2041 7.41572 13.5991Z" fill="url(#paint1_linear_20007_72079)"/>
<path fill-rule="evenodd" clip-rule="evenodd" d="M7.43833 8.06412C4.99253 8.00086 3.0293 5.99831 3.0293 3.53727C3.0293 3.18036 3.07058 2.8331 3.14864 2.5C5.59443 2.56328 7.55768 4.56579 7.55768 7.0268C7.55768 7.38377 7.51639 7.73099 7.43833 8.06412Z" fill="url(#paint2_linear_20007_72079)"/>
<path fill-rule="evenodd" clip-rule="evenodd" d="M4.68227 0C6.27645 0.0412383 7.55609 1.34647 7.55609 2.95059C7.55609 3.1832 7.52918 3.40953 7.47831 3.62662C5.88414 3.58538 4.60449 2.28015 4.60449 0.676029C4.60449 0.443422 4.6314 0.217097 4.68227 0Z" fill="url(#paint3_linear_20007_72079)"/>
<path fill-rule="evenodd" clip-rule="evenodd" d="M12.7868 7C9.88609 7.07502 7.55762 9.45004 7.55762 12.3689C7.55762 12.7922 7.60658 13.204 7.69916 13.599C10.6 13.524 12.9283 11.149 12.9283 8.23015C12.9283 7.80688 12.8794 7.39502 12.7868 7Z" fill="url(#paint4_linear_20007_72079)"/>
<path fill-rule="evenodd" clip-rule="evenodd" d="M11.9666 2.5C9.52085 2.56328 7.55762 4.56579 7.55762 7.02681C7.55762 7.3837 7.5989 7.731 7.67696 8.06413C10.1227 8.00078 12.086 5.9983 12.086 3.53726C12.086 3.18036 12.0447 2.8331 11.9666 2.5Z" fill="url(#paint5_linear_20007_72079)"/>
<path fill-rule="evenodd" clip-rule="evenodd" d="M10.4314 0C8.83726 0.0412383 7.55762 1.34648 7.55762 2.95059C7.55762 3.1832 7.58453 3.40952 7.6354 3.62662C9.22959 3.58538 10.5092 2.28014 10.5092 0.676033C10.5092 0.443422 10.4823 0.217097 10.4314 0Z" fill="url(#paint6_linear_20007_72079)"/>
</g>
<defs>
<linearGradient id="paint0_linear_20007_72079" x1="7.50006" y1="2.37305" x2="7.50006" y2="15.0003" gradientUnits="userSpaceOnUse">
<stop stop-color="#10808C"/>
<stop offset="1" stop-color="#1DF7EF"/>
</linearGradient>
<linearGradient id="paint1_linear_20007_72079" x1="4.8719" y1="7" x2="9.53872" y2="12.3398" gradientUnits="userSpaceOnUse">
<stop stop-color="#FE5468"/>
<stop offset="1" stop-color="#FFDF27"/>
</linearGradient>
<linearGradient id="paint2_linear_20007_72079" x1="5.29349" y1="2.5" x2="9.22837" y2="7.00227" gradientUnits="userSpaceOnUse">
<stop stop-color="#FE5468"/>
<stop offset="1" stop-color="#FFDF27"/>
</linearGradient>
<linearGradient id="paint3_linear_20007_72079" x1="6.08029" y1="0" x2="8.64499" y2="2.93457" gradientUnits="userSpaceOnUse">
<stop stop-color="#FE5468"/>
<stop offset="1" stop-color="#FFDF27"/>
</linearGradient>
<linearGradient id="paint4_linear_20007_72079" x1="10.243" y1="7" x2="14.9097" y2="12.3398" gradientUnits="userSpaceOnUse">
<stop stop-color="#FE5468"/>
<stop offset="1" stop-color="#FFDF27"/>
</linearGradient>
<linearGradient id="paint5_linear_20007_72079" x1="9.82183" y1="2.5" x2="13.7567" y2="7.00231" gradientUnits="userSpaceOnUse">
<stop stop-color="#FE5468"/>
<stop offset="1" stop-color="#FFDF27"/>
</linearGradient>
<linearGradient id="paint6_linear_20007_72079" x1="9.03343" y1="0" x2="11.5981" y2="2.93459" gradientUnits="userSpaceOnUse">
<stop stop-color="#FE5468"/>
<stop offset="1" stop-color="#FFDF27"/>
</linearGradient>
<clipPath id="clip0_20007_72079">
<rect width="15" height="15" fill="white"/>
</clipPath>
</defs>
</svg>
