<svg width="15" height="15" viewBox="0 0 15 15" fill="none" xmlns="http://www.w3.org/2000/svg">
<path fill-rule="evenodd" clip-rule="evenodd" d="M7.19481 0.0719787C7.38675 -0.0239929 7.61268 -0.0239929 7.80462 0.0719787L14.6225 3.48094C14.8535 3.59643 14.9994 3.83251 14.9994 4.09075C14.9994 4.349 14.8535 4.58508 14.6225 4.70057L7.80462 8.10953C7.61268 8.2055 7.38675 8.2055 7.19481 8.10953L0.376886 4.70057C0.145905 4.58508 0 4.349 0 4.09075C0 3.83251 0.145905 3.59643 0.376886 3.48094L7.19481 0.0719787ZM2.20633 4.09075L7.49971 6.73745L12.7931 4.09075L7.49971 1.44406L2.20633 4.09075Z" fill="url(#paint0_linear_177_30820)"/>
<path fill-rule="evenodd" clip-rule="evenodd" d="M0.0721281 10.6036C0.240523 10.2668 0.650058 10.1303 0.986848 10.2987L7.49986 13.5552L14.0129 10.2987C14.3497 10.1303 14.7592 10.2668 14.9276 10.6036C15.096 10.9404 14.9595 11.3499 14.6227 11.5183L7.80477 14.9273C7.61283 15.0233 7.3869 15.0233 7.19496 14.9273L0.377035 11.5183C0.0402441 11.3499 -0.0962673 10.9404 0.0721281 10.6036Z" fill="url(#paint1_linear_177_30820)"/>
<path fill-rule="evenodd" clip-rule="evenodd" d="M0.0721281 7.19539C0.240523 6.8586 0.650058 6.72209 0.986848 6.89049L7.49986 10.147L14.0129 6.89049C14.3497 6.72209 14.7592 6.8586 14.9276 7.19539C15.096 7.53218 14.9595 7.94172 14.6227 8.11011L7.80477 11.5191C7.61283 11.615 7.3869 11.615 7.19496 11.5191L0.377035 8.11011C0.0402441 7.94172 -0.0962673 7.53218 0.0721281 7.19539Z" fill="url(#paint2_linear_177_30820)"/>
<defs>
<linearGradient id="paint0_linear_177_30820" x1="7.49971" y1="0" x2="7.49971" y2="8.18151" gradientUnits="userSpaceOnUse">
<stop stop-color="#10808C"/>
<stop offset="1" stop-color="#1DF7EF"/>
</linearGradient>
<linearGradient id="paint1_linear_177_30820" x1="7.49986" y1="10.2266" x2="7.49986" y2="14.9993" gradientUnits="userSpaceOnUse">
<stop stop-color="#10808C"/>
<stop offset="1" stop-color="#1DF7EF"/>
</linearGradient>
<linearGradient id="paint2_linear_177_30820" x1="7.49986" y1="6.81836" x2="7.49986" y2="11.5911" gradientUnits="userSpaceOnUse">
<stop stop-color="#FE5468"/>
<stop offset="1" stop-color="#FFDF27"/>
</linearGradient>
</defs>
</svg>
