<svg width="15" height="15" viewBox="0 0 15 15" fill="none" xmlns="http://www.w3.org/2000/svg">
<path d="M5.82623 12.5C5.4115 12.5 5.11351 12.9306 5.31402 13.319C5.83688 14.332 6.73269 15 7.75 15C8.76731 15 9.66312 14.332 10.186 13.319C10.3865 12.9306 10.0885 12.5 9.67377 12.5C9.428 12.5 9.21188 12.6603 9.07529 12.8789C8.72023 13.4473 8.20176 13.75 7.75 13.75C7.29824 13.75 6.77977 13.4473 6.42471 12.8789C6.28812 12.6603 6.072 12.5 5.82623 12.5Z" fill="url(#paint0_linear_177_31190)"/>
<path fill-rule="evenodd" clip-rule="evenodd" d="M7.50263 0C8.66294 0 9.77583 0.476677 10.5963 1.32487C11.4167 2.17302 11.8776 3.32328 11.8776 4.52271C11.8776 6.68874 12.3256 8.92489 12.7386 9.70784C12.946 10.1009 13.1481 10.3588 13.2884 10.5119C13.5336 10.7795 13.8547 10.9756 13.7258 11.416C13.646 11.6885 13.403 11.875 13.1276 11.875H1.87763C1.60223 11.875 1.35929 11.6885 1.27948 11.416C1.15056 10.9756 1.47163 10.7795 1.7169 10.5119C1.85717 10.3588 2.05927 10.1009 2.26663 9.70784C2.67961 8.92489 3.12763 6.68874 3.12763 4.52271C3.12766 3.32328 3.5886 2.17302 4.40896 1.32487C5.22942 0.476677 6.34232 0 7.50263 0ZM5.29275 2.23836C4.70676 2.84418 4.37766 3.66596 4.37763 4.52271C4.37763 6.87921 3.88849 9.33262 3.36404 10.3267C3.31648 10.4169 3.26836 10.5021 3.22081 10.5827H11.7844C11.7369 10.5021 11.6888 10.4169 11.6412 10.3267C11.1168 9.33262 10.6276 6.87921 10.6276 4.52271C10.6276 3.66596 10.2985 2.84418 9.71251 2.23836C9.12646 1.63251 8.33142 1.29232 7.50263 1.29232C6.66655 1.31426 5.87919 1.6321 5.29275 2.23836Z" fill="url(#paint1_linear_177_31190)"/>
<defs>
<linearGradient id="paint0_linear_177_31190" x1="7.75" y1="12.5" x2="7.75" y2="15" gradientUnits="userSpaceOnUse">
<stop stop-color="#10808C"/>
<stop offset="1" stop-color="#1DF7EF"/>
</linearGradient>
<linearGradient id="paint1_linear_177_31190" x1="7.50263" y1="0" x2="7.50263" y2="11.875" gradientUnits="userSpaceOnUse">
<stop stop-color="#FE5468"/>
<stop offset="1" stop-color="#FFDF27"/>
</linearGradient>
</defs>
</svg>
