<svg width="12" height="12" viewBox="0 0 12 12" fill="none" xmlns="http://www.w3.org/2000/svg">
<path d="M9.04103 4.81825C9.25361 4.62158 9.5848 4.61382 9.80664 4.80955C10.0285 5.0053 10.0622 5.33505 9.89347 5.57047L9.85709 5.61623L7.28547 8.5307C6.62436 9.27994 5.47196 9.30321 4.78015 8.60079L4.71453 8.5307L2.14291 5.61623L2.10653 5.57047C1.93781 5.33505 1.9715 5.0053 2.19336 4.80955C2.4152 4.61382 2.74639 4.62158 2.95897 4.81825L3.00004 4.85999L5.57143 7.77446L5.59331 7.7979C5.82391 8.03207 6.20819 8.02422 6.42857 7.77446L8.99996 4.85999L9.04103 4.81825Z" fill="url(#paint0_linear_3220_91405)"/>
<defs>
<linearGradient id="paint0_linear_3220_91405" x1="6" y1="4.66669" x2="6" y2="9.11068" gradientUnits="userSpaceOnUse">
<stop stop-color="#CDD8D3"/>
<stop offset="1" stop-color="#CDD8D3"/>
</linearGradient>
</defs>
</svg>
