<svg width="12" height="12" viewBox="0 0 12 12" fill="none" xmlns="http://www.w3.org/2000/svg">
<path d="M2.95897 7.95909C2.74639 8.15576 2.4152 8.16352 2.19336 7.9678C1.9715 7.77204 1.93781 7.44229 2.10653 7.20687L2.14291 7.16111L4.71453 4.24665C5.37564 3.4974 6.52804 3.47413 7.21985 4.17656L7.28547 4.24665L9.85709 7.16111L9.89347 7.20687C10.0622 7.44229 10.0285 7.77204 9.80664 7.9678C9.5848 8.16352 9.25361 8.15576 9.04103 7.95909L8.99996 7.91735L6.42857 5.00288L6.40669 4.97945C6.17609 4.74527 5.79181 4.75312 5.57143 5.00288L3.00004 7.91735L2.95897 7.95909Z" fill="url(#paint0_linear_3351_83194)"/>
<defs>
<linearGradient id="paint0_linear_3351_83194" x1="6" y1="8.11066" x2="6" y2="3.66666" gradientUnits="userSpaceOnUse">
<stop stop-color="#CDD8D3"/>
<stop offset="1" stop-color="#CDD8D3"/>
</linearGradient>
</defs>
</svg>
