<svg width="12" height="12" viewBox="0 0 12 12" fill="none" xmlns="http://www.w3.org/2000/svg">
<path fill-rule="evenodd" clip-rule="evenodd" d="M10.2426 10.2426C11.3679 9.11742 12 7.5913 12 6C12 4.4087 11.3679 2.88258 10.2426 1.75736C9.11742 0.632141 7.5913 0 6 0C4.4087 0 2.88258 0.632141 1.75736 1.75736C0.632141 2.88258 0 4.4087 0 6C0 7.5913 0.632141 9.11742 1.75736 10.2426C2.88258 11.3679 4.4087 12 6 12C7.5913 12 9.11742 11.3679 10.2426 10.2426ZM4.93934 3.87868C4.79869 3.73803 4.60792 3.65901 4.40901 3.65901C4.2101 3.65901 4.01933 3.73803 3.87868 3.87868C3.73803 4.01933 3.65901 4.2101 3.65901 4.40901C3.65901 4.60792 3.73803 4.79869 3.87868 4.93934L4.93934 6L3.87868 7.06066C3.73803 7.20131 3.65901 7.39208 3.65901 7.59099C3.65901 7.7899 3.73803 7.98067 3.87868 8.12132C4.01933 8.26197 4.2101 8.34099 4.40901 8.34099C4.60792 8.34099 4.79869 8.26197 4.93934 8.12132L6 7.06066L7.06066 8.12132C7.20131 8.26197 7.39208 8.34099 7.59099 8.34099C7.7899 8.34099 7.98067 8.26197 8.12132 8.12132C8.26197 7.98067 8.34099 7.7899 8.34099 7.59099C8.34099 7.39208 8.26197 7.20131 8.12132 7.06066L7.06066 6L8.12132 4.93934C8.26197 4.79869 8.34099 4.60792 8.34099 4.40901C8.34099 4.2101 8.26197 4.01933 8.12132 3.87868C7.98067 3.73803 7.7899 3.65901 7.59099 3.65901C7.39208 3.65901 7.20131 3.73803 7.06066 3.87868L6 4.93934L4.93934 3.87868Z" fill="#FE5468"/>
</svg>
