<svg width="24" height="24" viewBox="0 0 24 24" fill="none" xmlns="http://www.w3.org/2000/svg">
<path fill-rule="evenodd" clip-rule="evenodd" d="M16.5209 8.40127C17.5048 7.58041 18.6025 7.2681 19.6552 7.34706C20.7782 7.43127 21.8173 7.95764 22.5935 8.72219C23.3694 9.48678 23.9026 10.5095 23.988 11.6132C24.0741 12.727 23.7012 13.8935 22.718 14.9172C22.6281 15.0115 22.5362 15.1045 22.4423 15.1964C17.9828 19.5894 12.059 19.601 11.9984 19.601C11.9681 19.601 6.02529 19.6008 1.55423 15.196C1.13181 14.7776 -0.116016 13.2333 0.00872015 11.615C0.0937843 10.5115 0.626592 9.48868 1.40245 8.72382C2.17825 7.959 3.2173 7.43221 4.34044 7.34764C5.39309 7.26836 6.49099 7.5803 7.47536 8.40076C7.58122 7.1353 8.13267 6.15041 8.93317 5.47332C9.78691 4.75116 10.8995 4.39899 11.9982 4.39899C13.0968 4.39899 14.2094 4.75116 15.0631 5.47332C15.8637 6.1505 16.4152 7.13557 16.5209 8.40127ZM15.3486 13.0557C15.2265 13.0557 15.1843 13.2293 15.2621 13.3213C15.3998 13.4841 15.4827 13.6937 15.4827 13.9223C15.4827 14.441 15.0559 14.8615 14.5295 14.8615C14.0029 14.8615 13.576 14.441 13.576 13.9223C13.576 13.8945 13.5393 13.8807 13.5227 13.9032C13.3723 14.1067 13.2708 14.3351 13.229 14.5749C13.2056 14.71 13.0942 14.822 12.9541 14.822H12.8768C12.6941 14.822 12.5433 14.6759 12.5703 14.4991C12.7552 13.2872 13.9676 12.4082 15.3486 12.4082C16.7295 12.4082 17.9419 13.2872 18.1268 14.4991C18.1536 14.6759 18.0029 14.822 17.8203 14.822C17.6374 14.822 17.4927 14.6752 17.4529 14.5006C17.2723 13.7063 16.4344 13.0557 15.3486 13.0557ZM6.88237 13.9223C6.88237 13.8857 6.83422 13.866 6.81155 13.8952C6.65081 14.1018 6.54129 14.3358 6.49492 14.5824C6.46756 14.7281 6.34726 14.8492 6.19587 14.8492H6.13913C5.95639 14.8492 5.80565 14.7033 5.83258 14.5264C6.01738 13.3139 7.22989 12.4355 8.61082 12.4355C9.99172 12.4355 11.2042 13.3139 11.389 14.5264C11.416 14.7033 11.2652 14.8492 11.0825 14.8492C10.8998 14.8492 10.7551 14.7026 10.7154 14.528C10.5347 13.7331 9.69684 13.0831 8.61082 13.0831C8.51209 13.0831 8.47597 13.2196 8.54205 13.2914C8.69559 13.4581 8.78915 13.6794 8.78915 13.9223C8.78915 14.441 8.36231 14.8615 7.83576 14.8615C7.30921 14.8615 6.88237 14.441 6.88237 13.9223ZM13.0588 16.1875C13.1879 16.0609 13.3875 15.9995 13.5479 16.0851C13.7082 16.1709 13.7691 16.3699 13.6535 16.5085C13.2771 16.9594 12.6677 17.2453 11.9956 17.2453C11.3239 17.2453 10.7131 16.9625 10.3362 16.508C10.2211 16.3692 10.2827 16.1703 10.4434 16.0851C10.604 15.9999 10.8033 16.0623 10.9323 16.1888C11.1807 16.4329 11.5577 16.5979 11.9956 16.5979C12.4324 16.5979 12.8098 16.4311 13.0588 16.1875Z" fill="#CDD8D3"/>
</svg>
