<svg width="15" height="15" viewBox="0 0 15 15" fill="none" xmlns="http://www.w3.org/2000/svg">
<path fill-rule="evenodd" clip-rule="evenodd" d="M10.3256 5.25045C10.9405 4.73741 11.6266 4.54222 12.2845 4.59157C12.9863 4.6442 13.6358 4.97318 14.1209 5.45102C14.6059 5.9289 14.9391 6.56808 14.9925 7.2579C15.0463 7.954 14.8132 8.68308 14.1987 9.32291C14.1426 9.38187 14.0851 9.44 14.0265 9.49742C11.2392 12.243 7.53689 12.2503 7.49902 12.2503C7.48008 12.2503 3.76581 12.2501 0.971392 9.49715C0.707383 9.23563 -0.0725098 8.27049 0.00545009 7.25904C0.0586152 6.56934 0.39162 5.93008 0.876533 5.45204C1.3614 4.97403 2.01081 4.64479 2.71278 4.59193C3.37068 4.54238 4.05687 4.73734 4.6721 5.25013C4.73826 4.45922 5.08292 3.84367 5.58323 3.42048C6.11682 2.96913 6.81219 2.74902 7.49885 2.74902C8.18552 2.74902 8.88087 2.96913 9.41444 3.42048C9.91479 3.84372 10.2595 4.45939 10.3256 5.25045ZM9.59287 8.15948C9.51658 8.15948 9.49017 8.26798 9.53879 8.32545C9.62486 8.42724 9.6767 8.5582 9.6767 8.70108C9.6767 9.0253 9.40997 9.28812 9.08092 9.28812C8.7518 9.28812 8.48501 9.0253 8.48501 8.70108C8.48501 8.68374 8.46204 8.67512 8.45166 8.68918C8.35768 8.81634 8.29423 8.9591 8.26816 9.10899C8.25348 9.19338 8.18385 9.26339 8.09634 9.26339H8.04801C7.9338 9.26339 7.83958 9.17211 7.85643 9.06158C7.97198 8.30414 8.72972 7.75478 9.59287 7.75478C10.4559 7.75478 11.2137 8.30414 11.3292 9.06158C11.346 9.17211 11.2518 9.26339 11.1377 9.26339C11.0234 9.26339 10.933 9.17164 10.9081 9.06256C10.7952 8.56608 10.2715 8.15948 9.59287 8.15948ZM4.30148 8.70108C4.30148 8.67821 4.27139 8.66593 4.25722 8.68413C4.15676 8.81328 4.0883 8.95954 4.05933 9.11369C4.04222 9.2047 3.96704 9.28043 3.87242 9.28043H3.83695C3.72274 9.28043 3.62853 9.18919 3.64536 9.07867C3.76086 8.32082 4.51868 7.77187 5.38176 7.77187C6.24482 7.77187 7.00265 8.32082 7.11814 9.07867C7.13499 9.18919 7.04076 9.28043 6.92655 9.28043C6.81236 9.28043 6.72191 9.18877 6.69711 9.07966C6.5842 8.58287 6.06053 8.17657 5.38176 8.17657C5.32006 8.17657 5.29748 8.26191 5.33878 8.30675C5.43474 8.41096 5.49322 8.5493 5.49322 8.70108C5.49322 9.0253 5.22644 9.28812 4.89735 9.28812C4.56826 9.28812 4.30148 9.0253 4.30148 8.70108ZM8.16173 10.1168C8.24245 10.0377 8.36719 9.99931 8.46741 10.0528C8.56764 10.1065 8.60566 10.2308 8.53343 10.3175C8.2982 10.5993 7.91732 10.778 7.49725 10.778C7.07741 10.778 6.6957 10.6012 6.46015 10.3172C6.38818 10.2304 6.42667 10.1061 6.52709 10.0528C6.62751 9.99959 6.75206 10.0386 6.83267 10.1177C6.98793 10.2702 7.22355 10.3734 7.49725 10.3734C7.77025 10.3734 8.00612 10.2691 8.16173 10.1168Z" fill="#CDD8D3"/>
</svg>
