<svg width="15" height="15" viewBox="0 0 15 15" fill="none" xmlns="http://www.w3.org/2000/svg">
<path d="M4.85002 8.25675C5.26827 8.25675 5.6073 7.91772 5.6073 7.49947C5.6073 7.08125 5.26827 6.74219 4.85002 6.74219C4.4318 6.74219 4.09277 7.08125 4.09277 7.49947C4.09277 7.91772 4.4318 8.25675 4.85002 8.25675Z" fill="#CDD8D3"/>
<path fill-rule="evenodd" clip-rule="evenodd" d="M15 7.5C15 1.96667 13.0425 0 7.5 0C1.97359 0 0 1.99207 0 7.5C0 12.9869 2.00632 15 7.5 15C13.0099 15 15 13.0124 15 7.5ZM4.84994 9.77175C5.79306 9.77175 6.60197 9.19706 6.94553 8.37875C7.30425 9.72637 8.46809 10.7457 9.89056 10.8901C10.1829 10.9197 10.2389 10.8691 10.2389 10.5527V9.1949C10.2389 8.92972 10.3285 8.63584 10.7532 8.63584H11.5678C11.7431 8.63584 11.7502 8.63206 11.8498 8.4914C11.8498 8.4914 12.2767 7.89519 12.3615 7.76853C12.4464 7.6419 12.4375 7.60862 12.3615 7.4999C12.2856 7.39122 11.8498 6.78984 11.8498 6.78984C11.7499 6.65125 11.7417 6.64797 11.5678 6.64797H10.4829C10.3054 6.64797 10.2389 6.74265 10.2389 6.93197V7.917C10.2389 8.15706 10.2389 8.35184 9.89056 8.35184C9.38431 8.35184 9.10962 7.97044 9.10962 7.4999C9.10962 7.08719 9.41544 6.66469 9.89056 6.66469C10.21 6.66469 10.2389 6.58831 10.2389 6.435V4.37615C10.2389 4.10656 10.1213 4.08634 9.89056 4.10975C8.46809 4.25419 7.30425 5.27347 6.94553 6.62106C6.60197 5.80278 5.79306 5.22809 4.84994 5.22809C3.59525 5.22809 2.57812 6.24522 2.57812 7.4999C2.57812 8.75462 3.59525 9.77175 4.84994 9.77175Z" fill="#CDD8D3"/>
</svg>
