<svg width="24" height="24" viewBox="0 0 24 24" fill="none" xmlns="http://www.w3.org/2000/svg">
<path d="M7.76004 13.2108C8.42924 13.2108 8.97169 12.6684 8.97169 11.9992C8.97169 11.33 8.42924 10.7875 7.76004 10.7875C7.09089 10.7875 6.54844 11.33 6.54844 11.9992C6.54844 12.6684 7.09089 13.2108 7.76004 13.2108Z" fill="#CDD8D3"/>
<path fill-rule="evenodd" clip-rule="evenodd" d="M24 12C24 3.14668 20.868 0 12 0C3.15775 0 0 3.18732 0 12C0 20.7791 3.21011 24 12 24C20.8159 24 24 20.8199 24 12ZM7.7599 15.6348C9.2689 15.6348 10.5632 14.7153 11.1129 13.406C11.6868 15.5622 13.549 17.193 15.8249 17.4241C16.2926 17.4716 16.3822 17.3906 16.3822 16.8843V14.7118C16.3822 14.2875 16.5256 13.8173 17.2051 13.8173H18.5085C18.789 13.8173 18.8003 13.8113 18.9596 13.5862C18.9596 13.5862 19.6427 12.6323 19.7785 12.4296C19.9142 12.227 19.9 12.1738 19.7785 11.9998C19.6569 11.8259 18.9596 10.8637 18.9596 10.8637C18.7998 10.642 18.7868 10.6367 18.5085 10.6367H16.7727C16.4887 10.6367 16.3822 10.7882 16.3822 11.0911V12.6672C16.3822 13.0513 16.3822 13.3629 15.8249 13.3629C15.0149 13.3629 14.5754 12.7527 14.5754 11.9998C14.5754 11.3395 15.0647 10.6635 15.8249 10.6635C16.3361 10.6635 16.3822 10.5413 16.3822 10.296V7.00185C16.3822 6.5705 16.1941 6.53815 15.8249 6.5756C13.549 6.8067 11.6868 8.43755 11.1129 10.5937C10.5632 9.28445 9.2689 8.36495 7.7599 8.36495C5.7524 8.36495 4.125 9.99235 4.125 11.9998C4.125 14.0074 5.7524 15.6348 7.7599 15.6348Z" fill="#CDD8D3"/>
</svg>
