<svg width="24" height="24" viewBox="0 0 24 24" fill="none" xmlns="http://www.w3.org/2000/svg">
<path d="M10.0082 1.15661C10.3276 1.15661 10.5865 0.897697 10.5865 0.578307C10.5865 0.258917 10.3276 0 10.0082 0C9.68883 0 9.42992 0.258917 9.42992 0.578307C9.42992 0.897697 9.68883 1.15661 10.0082 1.15661Z" fill="url(#paint0_linear_4159_67455)"/>
<path d="M8.56246 0.674691C8.56246 0.994081 8.30354 1.253 7.98415 1.253C7.66476 1.253 7.40584 0.994081 7.40584 0.674691C7.40584 0.355301 7.66476 0.0963844 7.98415 0.0963844C8.30354 0.0963844 8.56246 0.355301 8.56246 0.674691Z" fill="url(#paint1_linear_4159_67455)"/>
<path d="M6.63477 1.06023C6.63477 1.37962 6.37585 1.63854 6.05646 1.63854C5.73707 1.63854 5.47815 1.37962 5.47815 1.06023C5.47815 0.740839 5.73707 0.481922 6.05646 0.481922C6.37585 0.481922 6.63477 0.740839 6.63477 1.06023Z" fill="url(#paint2_linear_4159_67455)"/>
<path d="M12.6106 0.578307C12.6106 0.897697 12.3517 1.15661 12.0323 1.15661C11.7129 1.15661 11.454 0.897697 11.454 0.578307C11.454 0.258917 11.7129 0 12.0323 0C12.3517 0 12.6106 0.258917 12.6106 0.578307Z" fill="url(#paint3_linear_4159_67455)"/>
<path d="M17.4298 1.06023C17.4298 1.37962 17.6887 1.63854 18.0081 1.63854C18.3275 1.63854 18.5864 1.37962 18.5864 1.06023C18.5864 0.740839 18.3275 0.481922 18.0081 0.481922C17.6887 0.481922 17.4298 0.740839 17.4298 1.06023Z" fill="url(#paint4_linear_4159_67455)"/>
<path d="M19.3575 3.18069C19.0381 3.18069 18.7792 2.92177 18.7792 2.60238C18.7792 2.28299 19.0381 2.02407 19.3575 2.02407C19.6769 2.02407 19.9358 2.28299 19.9358 2.60238C19.9358 2.92177 19.6769 3.18069 19.3575 3.18069Z" fill="url(#paint5_linear_4159_67455)"/>
<path d="M19.2611 4.91561C19.2611 5.235 19.52 5.49391 19.8394 5.49391C20.1588 5.49391 20.4177 5.235 20.4177 4.91561C20.4177 4.59622 20.1588 4.3373 19.8394 4.3373C19.52 4.3373 19.2611 4.59622 19.2611 4.91561Z" fill="url(#paint6_linear_4159_67455)"/>
<path d="M19.9358 7.71076C19.6164 7.71076 19.3575 7.45184 19.3575 7.13245C19.3575 6.81306 19.6164 6.55414 19.9358 6.55414C20.2552 6.55414 20.5141 6.81306 20.5141 7.13245C20.5141 7.45184 20.2552 7.71076 19.9358 7.71076Z" fill="url(#paint7_linear_4159_67455)"/>
<path d="M19.3575 9.34929C19.3575 9.66868 19.6164 9.9276 19.9358 9.9276C20.2552 9.9276 20.5141 9.66868 20.5141 9.34929C20.5141 9.0299 20.2552 8.77098 19.9358 8.77098C19.6164 8.77098 19.3575 9.0299 19.3575 9.34929Z" fill="url(#paint8_linear_4159_67455)"/>
<path d="M19.9358 12.1444C19.6164 12.1444 19.3575 11.8855 19.3575 11.5661C19.3575 11.2467 19.6164 10.9878 19.9358 10.9878C20.2552 10.9878 20.5141 11.2467 20.5141 11.5661C20.5141 11.8855 20.2552 12.1444 19.9358 12.1444Z" fill="url(#paint9_linear_4159_67455)"/>
<path d="M19.3575 13.6866C19.3575 14.006 19.6164 14.2649 19.9358 14.2649C20.2552 14.2649 20.5141 14.006 20.5141 13.6866C20.5141 13.3672 20.2552 13.1083 19.9358 13.1083C19.6164 13.1083 19.3575 13.3672 19.3575 13.6866Z" fill="url(#paint10_linear_4159_67455)"/>
<path d="M19.9358 16.3854C19.6164 16.3854 19.3575 16.1264 19.3575 15.807C19.3575 15.4877 19.6164 15.2287 19.9358 15.2287C20.2552 15.2287 20.5141 15.4877 20.5141 15.807C20.5141 16.1264 20.2552 16.3854 19.9358 16.3854Z" fill="url(#paint11_linear_4159_67455)"/>
<path d="M19.3575 17.9275C19.3575 18.2469 19.6164 18.5058 19.9358 18.5058C20.2552 18.5058 20.5141 18.2469 20.5141 17.9275C20.5141 17.6081 20.2552 17.3492 19.9358 17.3492C19.6164 17.3492 19.3575 17.6081 19.3575 17.9275Z" fill="url(#paint12_linear_4159_67455)"/>
<path d="M19.7431 20.9154C19.4237 20.9154 19.1647 20.6565 19.1647 20.3371C19.1647 20.0177 19.4237 19.7588 19.7431 19.7588C20.0624 19.7588 20.3214 20.0177 20.3214 20.3371C20.3214 20.6565 20.0624 20.9154 19.7431 20.9154Z" fill="url(#paint13_linear_4159_67455)"/>
<path d="M15.5021 0.674691C15.5021 0.994081 15.7611 1.253 16.0804 1.253C16.3998 1.253 16.6588 0.994081 16.6588 0.674691C16.6588 0.355301 16.3998 0.0963844 16.0804 0.0963844C15.7611 0.0963844 15.5021 0.355301 15.5021 0.674691Z" fill="url(#paint14_linear_4159_67455)"/>
<path d="M14.0564 1.15661C13.737 1.15661 13.4781 0.897697 13.4781 0.578307C13.4781 0.258917 13.737 0 14.0564 0C14.3758 0 14.6347 0.258917 14.6347 0.578307C14.6347 0.897697 14.3758 1.15661 14.0564 1.15661Z" fill="url(#paint15_linear_4159_67455)"/>
<path d="M4.70708 2.84334C4.97324 2.84334 5.189 2.62758 5.189 2.36142C5.189 2.09526 4.97324 1.8795 4.70708 1.8795C4.44092 1.8795 4.22516 2.09526 4.22516 2.36142C4.22516 2.62758 4.44092 2.84334 4.70708 2.84334Z" fill="url(#paint16_linear_4159_67455)"/>
<path d="M4.71672 3.56622C4.71672 3.83238 4.50095 4.04815 4.2348 4.04815C3.96864 4.04815 3.75287 3.83238 3.75287 3.56622C3.75287 3.30007 3.96864 3.0843 4.2348 3.0843C4.50095 3.0843 4.71672 3.30007 4.71672 3.56622Z" fill="url(#paint17_linear_4159_67455)"/>
<path d="M4.61069 4.81922C4.61069 5.08538 4.39493 5.30114 4.12877 5.30114C3.86261 5.30114 3.64685 5.08538 3.64685 4.81922C3.64685 4.55306 3.86261 4.3373 4.12877 4.3373C4.39493 4.3373 4.61069 4.55306 4.61069 4.81922Z" fill="url(#paint18_linear_4159_67455)"/>
<path d="M4.51431 5.97584C4.51431 6.24199 4.29855 6.45776 4.03239 6.45776C3.76623 6.45776 3.55046 6.24199 3.55046 5.97584C3.55046 5.70968 3.76623 5.49391 4.03239 5.49391C4.29855 5.49391 4.51431 5.70968 4.51431 5.97584Z" fill="url(#paint19_linear_4159_67455)"/>
<path d="M4.51431 7.13245C4.51431 7.39861 4.29855 7.61437 4.03239 7.61437C3.76623 7.61437 3.55046 7.39861 3.55046 7.13245C3.55046 6.86629 3.76623 6.65053 4.03239 6.65053C4.29855 6.65053 4.51431 6.86629 4.51431 7.13245Z" fill="url(#paint20_linear_4159_67455)"/>
<path d="M4.51431 8.28906C4.51431 8.55522 4.29855 8.77098 4.03239 8.77098C3.76623 8.77098 3.55046 8.55522 3.55046 8.28906C3.55046 8.0229 3.76623 7.80714 4.03239 7.80714C4.29855 7.80714 4.51431 8.0229 4.51431 8.28906Z" fill="url(#paint21_linear_4159_67455)"/>
<path d="M4.51431 9.34929C4.51431 9.61545 4.29855 9.83121 4.03239 9.83121C3.76623 9.83121 3.55046 9.61545 3.55046 9.34929C3.55046 9.08313 3.76623 8.86737 4.03239 8.86737C4.29855 8.86737 4.51431 9.08313 4.51431 9.34929Z" fill="url(#paint22_linear_4159_67455)"/>
<path d="M4.51431 10.4095C4.51431 10.6757 4.29855 10.8914 4.03239 10.8914C3.76623 10.8914 3.55046 10.6757 3.55046 10.4095C3.55046 10.1434 3.76623 9.9276 4.03239 9.9276C4.29855 9.9276 4.51431 10.1434 4.51431 10.4095Z" fill="url(#paint23_linear_4159_67455)"/>
<path d="M4.51431 11.5661C4.51431 11.8323 4.29855 12.0481 4.03239 12.0481C3.76623 12.0481 3.55046 11.8323 3.55046 11.5661C3.55046 11.3 3.76623 11.0842 4.03239 11.0842C4.29855 11.0842 4.51431 11.3 4.51431 11.5661Z" fill="url(#paint24_linear_4159_67455)"/>
<path d="M4.51431 12.6264C4.51431 12.8925 4.29855 13.1083 4.03239 13.1083C3.76623 13.1083 3.55046 12.8925 3.55046 12.6264C3.55046 12.3602 3.76623 12.1444 4.03239 12.1444C4.29855 12.1444 4.51431 12.3602 4.51431 12.6264Z" fill="url(#paint25_linear_4159_67455)"/>
<path d="M4.51431 13.6866C4.51431 13.9528 4.29855 14.1685 4.03239 14.1685C3.76623 14.1685 3.55046 13.9528 3.55046 13.6866C3.55046 13.4204 3.76623 13.2047 4.03239 13.2047C4.29855 13.2047 4.51431 13.4204 4.51431 13.6866Z" fill="url(#paint26_linear_4159_67455)"/>
<path d="M4.51431 14.7468C4.51431 15.013 4.29855 15.2287 4.03239 15.2287C3.76623 15.2287 3.55046 15.013 3.55046 14.7468C3.55046 14.4807 3.76623 14.2649 4.03239 14.2649C4.29855 14.2649 4.51431 14.4807 4.51431 14.7468Z" fill="url(#paint27_linear_4159_67455)"/>
<path d="M4.51431 15.807C4.51431 16.0732 4.29855 16.289 4.03239 16.289C3.76623 16.289 3.55046 16.0732 3.55046 15.807C3.55046 15.5409 3.76623 15.3251 4.03239 15.3251C4.29855 15.3251 4.51431 15.5409 4.51431 15.807Z" fill="url(#paint28_linear_4159_67455)"/>
<path d="M4.51431 16.8673C4.51431 17.1334 4.29855 17.3492 4.03239 17.3492C3.76623 17.3492 3.55046 17.1334 3.55046 16.8673C3.55046 16.6011 3.76623 16.3854 4.03239 16.3854C4.29855 16.3854 4.51431 16.6011 4.51431 16.8673Z" fill="url(#paint29_linear_4159_67455)"/>
<path d="M4.51431 17.9275C4.51431 18.1937 4.29855 18.4094 4.03239 18.4094C3.76623 18.4094 3.55046 18.1937 3.55046 17.9275C3.55046 17.6613 3.76623 17.4456 4.03239 17.4456C4.29855 17.4456 4.51431 17.6613 4.51431 17.9275Z" fill="url(#paint30_linear_4159_67455)"/>
<path d="M4.51431 19.0841C4.51431 19.3503 4.29855 19.566 4.03239 19.566C3.76623 19.566 3.55046 19.3503 3.55046 19.0841C3.55046 18.818 3.76623 18.6022 4.03239 18.6022C4.29855 18.6022 4.51431 18.818 4.51431 19.0841Z" fill="url(#paint31_linear_4159_67455)"/>
<path d="M4.61069 20.2407C4.61069 20.5069 4.39493 20.7227 4.12877 20.7227C3.86261 20.7227 3.64685 20.5069 3.64685 20.2407C3.64685 19.9746 3.86261 19.7588 4.12877 19.7588C4.39493 19.7588 4.61069 19.9746 4.61069 20.2407Z" fill="url(#paint32_linear_4159_67455)"/>
<path d="M4.99623 21.3973C4.99623 21.6635 4.78047 21.8793 4.51431 21.8793C4.24815 21.8793 4.03239 21.6635 4.03239 21.3973C4.03239 21.1312 4.24815 20.9154 4.51431 20.9154C4.78047 20.9154 4.99623 21.1312 4.99623 21.3973Z" fill="url(#paint33_linear_4159_67455)"/>
<path d="M5.67092 22.3612C5.67092 22.6274 5.45516 22.8431 5.189 22.8431C4.92284 22.8431 4.70708 22.6274 4.70708 22.3612C4.70708 22.095 4.92284 21.8793 5.189 21.8793C5.45516 21.8793 5.67092 22.095 5.67092 22.3612Z" fill="url(#paint34_linear_4159_67455)"/>
<path d="M6.73115 22.9395C6.73115 23.2057 6.51539 23.4214 6.24923 23.4214C5.98307 23.4214 5.76731 23.2057 5.76731 22.9395C5.76731 22.6733 5.98307 22.4576 6.24923 22.4576C6.51539 22.4576 6.73115 22.6733 6.73115 22.9395Z" fill="url(#paint35_linear_4159_67455)"/>
<path d="M7.88777 23.325C7.88777 23.5912 7.672 23.807 7.40584 23.807C7.13968 23.807 6.92392 23.5912 6.92392 23.325C6.92392 23.0589 7.13968 22.8431 7.40584 22.8431C7.672 22.8431 7.88777 23.0589 7.88777 23.325Z" fill="url(#paint36_linear_4159_67455)"/>
<path d="M9.04438 23.4214C9.04438 23.6876 8.82861 23.9033 8.56246 23.9033C8.2963 23.9033 8.08053 23.6876 8.08053 23.4214C8.08053 23.1553 8.2963 22.9395 8.56246 22.9395C8.82861 22.9395 9.04438 23.1553 9.04438 23.4214Z" fill="url(#paint37_linear_4159_67455)"/>
<path d="M10.201 23.5178C10.201 23.784 9.98523 23.9997 9.71907 23.9997C9.45291 23.9997 9.23715 23.784 9.23715 23.5178C9.23715 23.2516 9.45291 23.0359 9.71907 23.0359C9.98523 23.0359 10.201 23.2516 10.201 23.5178Z" fill="url(#paint38_linear_4159_67455)"/>
<path d="M11.3576 23.5178C11.3576 23.784 11.1418 23.9997 10.8757 23.9997C10.6095 23.9997 10.3938 23.784 10.3938 23.5178C10.3938 23.2516 10.6095 23.0359 10.8757 23.0359C11.1418 23.0359 11.3576 23.2516 11.3576 23.5178Z" fill="url(#paint39_linear_4159_67455)"/>
<path d="M12.5142 23.5178C12.5142 23.784 12.2985 23.9997 12.0323 23.9997C11.7661 23.9997 11.5504 23.784 11.5504 23.5178C11.5504 23.2516 11.7661 23.0359 12.0323 23.0359C12.2985 23.0359 12.5142 23.2516 12.5142 23.5178Z" fill="url(#paint40_linear_4159_67455)"/>
<path d="M18.3937 22.2166C18.3937 22.4828 18.6094 22.6985 18.8756 22.6985C19.1418 22.6985 19.3575 22.4828 19.3575 22.2166C19.3575 21.9505 19.1418 21.7347 18.8756 21.7347C18.6094 21.7347 18.3937 21.9505 18.3937 22.2166Z" fill="url(#paint41_linear_4159_67455)"/>
<path d="M17.3334 22.9395C17.3334 23.2057 17.5492 23.4214 17.8154 23.4214C18.0815 23.4214 18.2973 23.2057 18.2973 22.9395C18.2973 22.6733 18.0815 22.4576 17.8154 22.4576C17.5492 22.4576 17.3334 22.6733 17.3334 22.9395Z" fill="url(#paint42_linear_4159_67455)"/>
<path d="M16.1768 23.325C16.1768 23.5912 16.3926 23.807 16.6588 23.807C16.9249 23.807 17.1407 23.5912 17.1407 23.325C17.1407 23.0589 16.9249 22.8431 16.6588 22.8431C16.3926 22.8431 16.1768 23.0589 16.1768 23.325Z" fill="url(#paint43_linear_4159_67455)"/>
<path d="M15.0202 23.4214C15.0202 23.6876 15.236 23.9033 15.5021 23.9033C15.7683 23.9033 15.9841 23.6876 15.9841 23.4214C15.9841 23.1553 15.7683 22.9395 15.5021 22.9395C15.236 22.9395 15.0202 23.1553 15.0202 23.4214Z" fill="url(#paint44_linear_4159_67455)"/>
<path d="M13.8636 23.5178C13.8636 23.784 14.0794 23.9997 14.3455 23.9997C14.6117 23.9997 14.8274 23.784 14.8274 23.5178C14.8274 23.2516 14.6117 23.0359 14.3455 23.0359C14.0794 23.0359 13.8636 23.2516 13.8636 23.5178Z" fill="url(#paint45_linear_4159_67455)"/>
<path d="M12.707 23.5178C12.707 23.784 12.9228 23.9997 13.1889 23.9997C13.4551 23.9997 13.6708 23.784 13.6708 23.5178C13.6708 23.2516 13.4551 23.0359 13.1889 23.0359C12.9228 23.0359 12.707 23.2516 12.707 23.5178Z" fill="url(#paint46_linear_4159_67455)"/>
<path d="M13.4566 3.53904C13.4566 4.3225 12.8189 4.95762 12.0323 4.95762C11.2457 4.95762 10.6079 4.3225 10.6079 3.53904C10.6079 2.75558 11.2457 2.12046 12.0323 2.12046C12.8189 2.12046 13.4566 2.75558 13.4566 3.53904Z" fill="url(#paint47_linear_4159_67455)"/>
<path d="M13.5584 4.34966C13.727 4.34966 13.8636 4.48575 13.8636 4.65364V12.1519C13.8636 13.1592 13.0437 13.9757 12.0323 13.9757C11.0209 13.9757 10.201 13.1592 10.201 12.1519V4.65364C10.201 4.48575 10.3376 4.34966 10.5062 4.34966C10.6748 4.34966 10.8114 4.48575 10.8114 4.65364V12.1519C10.8114 12.8234 11.358 13.3678 12.0323 13.3678C12.7066 13.3678 13.2532 12.8234 13.2532 12.1519V4.65364C13.2532 4.48575 13.3898 4.34966 13.5584 4.34966Z" fill="url(#paint48_linear_4159_67455)"/>
<defs>
<linearGradient id="paint0_linear_4159_67455" x1="1.43001" y1="27.6834" x2="24.0253" y2="3.24661" gradientUnits="userSpaceOnUse">
<stop stop-color="#5C44C2"/>
<stop offset="0.499384" stop-color="#69ADDA"/>
<stop offset="0.945" stop-color="#FF1684"/>
</linearGradient>
<linearGradient id="paint1_linear_4159_67455" x1="1.43001" y1="27.6834" x2="24.0253" y2="3.24661" gradientUnits="userSpaceOnUse">
<stop stop-color="#5C44C2"/>
<stop offset="0.499384" stop-color="#69ADDA"/>
<stop offset="0.945" stop-color="#FF1684"/>
</linearGradient>
<linearGradient id="paint2_linear_4159_67455" x1="1.43001" y1="27.6834" x2="24.0253" y2="3.24661" gradientUnits="userSpaceOnUse">
<stop stop-color="#5C44C2"/>
<stop offset="0.499384" stop-color="#69ADDA"/>
<stop offset="0.945" stop-color="#FF1684"/>
</linearGradient>
<linearGradient id="paint3_linear_4159_67455" x1="1.43001" y1="27.6834" x2="24.0253" y2="3.24661" gradientUnits="userSpaceOnUse">
<stop stop-color="#5C44C2"/>
<stop offset="0.499384" stop-color="#69ADDA"/>
<stop offset="0.945" stop-color="#FF1684"/>
</linearGradient>
<linearGradient id="paint4_linear_4159_67455" x1="1.43001" y1="27.6834" x2="24.0253" y2="3.24661" gradientUnits="userSpaceOnUse">
<stop stop-color="#5C44C2"/>
<stop offset="0.499384" stop-color="#69ADDA"/>
<stop offset="0.945" stop-color="#FF1684"/>
</linearGradient>
<linearGradient id="paint5_linear_4159_67455" x1="1.43001" y1="27.6834" x2="24.0253" y2="3.24661" gradientUnits="userSpaceOnUse">
<stop stop-color="#5C44C2"/>
<stop offset="0.499384" stop-color="#69ADDA"/>
<stop offset="0.945" stop-color="#FF1684"/>
</linearGradient>
<linearGradient id="paint6_linear_4159_67455" x1="1.43001" y1="27.6834" x2="24.0253" y2="3.24661" gradientUnits="userSpaceOnUse">
<stop stop-color="#5C44C2"/>
<stop offset="0.499384" stop-color="#69ADDA"/>
<stop offset="0.945" stop-color="#FF1684"/>
</linearGradient>
<linearGradient id="paint7_linear_4159_67455" x1="1.43001" y1="27.6834" x2="24.0253" y2="3.24661" gradientUnits="userSpaceOnUse">
<stop stop-color="#5C44C2"/>
<stop offset="0.499384" stop-color="#69ADDA"/>
<stop offset="0.945" stop-color="#FF1684"/>
</linearGradient>
<linearGradient id="paint8_linear_4159_67455" x1="1.43001" y1="27.6834" x2="24.0253" y2="3.24661" gradientUnits="userSpaceOnUse">
<stop stop-color="#5C44C2"/>
<stop offset="0.499384" stop-color="#69ADDA"/>
<stop offset="0.945" stop-color="#FF1684"/>
</linearGradient>
<linearGradient id="paint9_linear_4159_67455" x1="1.43001" y1="27.6834" x2="24.0253" y2="3.24661" gradientUnits="userSpaceOnUse">
<stop stop-color="#5C44C2"/>
<stop offset="0.499384" stop-color="#69ADDA"/>
<stop offset="0.945" stop-color="#FF1684"/>
</linearGradient>
<linearGradient id="paint10_linear_4159_67455" x1="1.43001" y1="27.6834" x2="24.0253" y2="3.24661" gradientUnits="userSpaceOnUse">
<stop stop-color="#5C44C2"/>
<stop offset="0.499384" stop-color="#69ADDA"/>
<stop offset="0.945" stop-color="#FF1684"/>
</linearGradient>
<linearGradient id="paint11_linear_4159_67455" x1="1.43001" y1="27.6834" x2="24.0253" y2="3.24661" gradientUnits="userSpaceOnUse">
<stop stop-color="#5C44C2"/>
<stop offset="0.499384" stop-color="#69ADDA"/>
<stop offset="0.945" stop-color="#FF1684"/>
</linearGradient>
<linearGradient id="paint12_linear_4159_67455" x1="1.43001" y1="27.6834" x2="24.0253" y2="3.24661" gradientUnits="userSpaceOnUse">
<stop stop-color="#5C44C2"/>
<stop offset="0.499384" stop-color="#69ADDA"/>
<stop offset="0.945" stop-color="#FF1684"/>
</linearGradient>
<linearGradient id="paint13_linear_4159_67455" x1="1.43001" y1="27.6834" x2="24.0253" y2="3.24661" gradientUnits="userSpaceOnUse">
<stop stop-color="#5C44C2"/>
<stop offset="0.499384" stop-color="#69ADDA"/>
<stop offset="0.945" stop-color="#FF1684"/>
</linearGradient>
<linearGradient id="paint14_linear_4159_67455" x1="1.43001" y1="27.6834" x2="24.0253" y2="3.24661" gradientUnits="userSpaceOnUse">
<stop stop-color="#5C44C2"/>
<stop offset="0.499384" stop-color="#69ADDA"/>
<stop offset="0.945" stop-color="#FF1684"/>
</linearGradient>
<linearGradient id="paint15_linear_4159_67455" x1="1.43001" y1="27.6834" x2="24.0253" y2="3.24661" gradientUnits="userSpaceOnUse">
<stop stop-color="#5C44C2"/>
<stop offset="0.499384" stop-color="#69ADDA"/>
<stop offset="0.945" stop-color="#FF1684"/>
</linearGradient>
<linearGradient id="paint16_linear_4159_67455" x1="1.43001" y1="27.6834" x2="24.0253" y2="3.24661" gradientUnits="userSpaceOnUse">
<stop stop-color="#5C44C2"/>
<stop offset="0.499384" stop-color="#69ADDA"/>
<stop offset="0.945" stop-color="#FF1684"/>
</linearGradient>
<linearGradient id="paint17_linear_4159_67455" x1="1.43001" y1="27.6834" x2="24.0253" y2="3.24661" gradientUnits="userSpaceOnUse">
<stop stop-color="#5C44C2"/>
<stop offset="0.499384" stop-color="#69ADDA"/>
<stop offset="0.945" stop-color="#FF1684"/>
</linearGradient>
<linearGradient id="paint18_linear_4159_67455" x1="1.43001" y1="27.6834" x2="24.0253" y2="3.24661" gradientUnits="userSpaceOnUse">
<stop stop-color="#5C44C2"/>
<stop offset="0.499384" stop-color="#69ADDA"/>
<stop offset="0.945" stop-color="#FF1684"/>
</linearGradient>
<linearGradient id="paint19_linear_4159_67455" x1="1.43001" y1="27.6834" x2="24.0253" y2="3.24661" gradientUnits="userSpaceOnUse">
<stop stop-color="#5C44C2"/>
<stop offset="0.499384" stop-color="#69ADDA"/>
<stop offset="0.945" stop-color="#FF1684"/>
</linearGradient>
<linearGradient id="paint20_linear_4159_67455" x1="1.43001" y1="27.6834" x2="24.0253" y2="3.24661" gradientUnits="userSpaceOnUse">
<stop stop-color="#5C44C2"/>
<stop offset="0.499384" stop-color="#69ADDA"/>
<stop offset="0.945" stop-color="#FF1684"/>
</linearGradient>
<linearGradient id="paint21_linear_4159_67455" x1="1.43001" y1="27.6834" x2="24.0253" y2="3.24661" gradientUnits="userSpaceOnUse">
<stop stop-color="#5C44C2"/>
<stop offset="0.499384" stop-color="#69ADDA"/>
<stop offset="0.945" stop-color="#FF1684"/>
</linearGradient>
<linearGradient id="paint22_linear_4159_67455" x1="1.43001" y1="27.6834" x2="24.0253" y2="3.24661" gradientUnits="userSpaceOnUse">
<stop stop-color="#5C44C2"/>
<stop offset="0.499384" stop-color="#69ADDA"/>
<stop offset="0.945" stop-color="#FF1684"/>
</linearGradient>
<linearGradient id="paint23_linear_4159_67455" x1="1.43001" y1="27.6834" x2="24.0253" y2="3.24661" gradientUnits="userSpaceOnUse">
<stop stop-color="#5C44C2"/>
<stop offset="0.499384" stop-color="#69ADDA"/>
<stop offset="0.945" stop-color="#FF1684"/>
</linearGradient>
<linearGradient id="paint24_linear_4159_67455" x1="1.43001" y1="27.6834" x2="24.0253" y2="3.24661" gradientUnits="userSpaceOnUse">
<stop stop-color="#5C44C2"/>
<stop offset="0.499384" stop-color="#69ADDA"/>
<stop offset="0.945" stop-color="#FF1684"/>
</linearGradient>
<linearGradient id="paint25_linear_4159_67455" x1="1.43001" y1="27.6834" x2="24.0253" y2="3.24661" gradientUnits="userSpaceOnUse">
<stop stop-color="#5C44C2"/>
<stop offset="0.499384" stop-color="#69ADDA"/>
<stop offset="0.945" stop-color="#FF1684"/>
</linearGradient>
<linearGradient id="paint26_linear_4159_67455" x1="1.43001" y1="27.6834" x2="24.0253" y2="3.24661" gradientUnits="userSpaceOnUse">
<stop stop-color="#5C44C2"/>
<stop offset="0.499384" stop-color="#69ADDA"/>
<stop offset="0.945" stop-color="#FF1684"/>
</linearGradient>
<linearGradient id="paint27_linear_4159_67455" x1="1.43001" y1="27.6834" x2="24.0253" y2="3.24661" gradientUnits="userSpaceOnUse">
<stop stop-color="#5C44C2"/>
<stop offset="0.499384" stop-color="#69ADDA"/>
<stop offset="0.945" stop-color="#FF1684"/>
</linearGradient>
<linearGradient id="paint28_linear_4159_67455" x1="1.43001" y1="27.6834" x2="24.0253" y2="3.24661" gradientUnits="userSpaceOnUse">
<stop stop-color="#5C44C2"/>
<stop offset="0.499384" stop-color="#69ADDA"/>
<stop offset="0.945" stop-color="#FF1684"/>
</linearGradient>
<linearGradient id="paint29_linear_4159_67455" x1="1.43001" y1="27.6834" x2="24.0253" y2="3.24661" gradientUnits="userSpaceOnUse">
<stop stop-color="#5C44C2"/>
<stop offset="0.499384" stop-color="#69ADDA"/>
<stop offset="0.945" stop-color="#FF1684"/>
</linearGradient>
<linearGradient id="paint30_linear_4159_67455" x1="1.43001" y1="27.6834" x2="24.0253" y2="3.24661" gradientUnits="userSpaceOnUse">
<stop stop-color="#5C44C2"/>
<stop offset="0.499384" stop-color="#69ADDA"/>
<stop offset="0.945" stop-color="#FF1684"/>
</linearGradient>
<linearGradient id="paint31_linear_4159_67455" x1="1.43001" y1="27.6834" x2="24.0253" y2="3.24661" gradientUnits="userSpaceOnUse">
<stop stop-color="#5C44C2"/>
<stop offset="0.499384" stop-color="#69ADDA"/>
<stop offset="0.945" stop-color="#FF1684"/>
</linearGradient>
<linearGradient id="paint32_linear_4159_67455" x1="1.43001" y1="27.6834" x2="24.0253" y2="3.24661" gradientUnits="userSpaceOnUse">
<stop stop-color="#5C44C2"/>
<stop offset="0.499384" stop-color="#69ADDA"/>
<stop offset="0.945" stop-color="#FF1684"/>
</linearGradient>
<linearGradient id="paint33_linear_4159_67455" x1="1.43001" y1="27.6834" x2="24.0253" y2="3.24661" gradientUnits="userSpaceOnUse">
<stop stop-color="#5C44C2"/>
<stop offset="0.499384" stop-color="#69ADDA"/>
<stop offset="0.945" stop-color="#FF1684"/>
</linearGradient>
<linearGradient id="paint34_linear_4159_67455" x1="1.43001" y1="27.6834" x2="24.0253" y2="3.24661" gradientUnits="userSpaceOnUse">
<stop stop-color="#5C44C2"/>
<stop offset="0.499384" stop-color="#69ADDA"/>
<stop offset="0.945" stop-color="#FF1684"/>
</linearGradient>
<linearGradient id="paint35_linear_4159_67455" x1="1.43001" y1="27.6834" x2="24.0253" y2="3.24661" gradientUnits="userSpaceOnUse">
<stop stop-color="#5C44C2"/>
<stop offset="0.499384" stop-color="#69ADDA"/>
<stop offset="0.945" stop-color="#FF1684"/>
</linearGradient>
<linearGradient id="paint36_linear_4159_67455" x1="1.43001" y1="27.6834" x2="24.0253" y2="3.24661" gradientUnits="userSpaceOnUse">
<stop stop-color="#5C44C2"/>
<stop offset="0.499384" stop-color="#69ADDA"/>
<stop offset="0.945" stop-color="#FF1684"/>
</linearGradient>
<linearGradient id="paint37_linear_4159_67455" x1="1.43001" y1="27.6834" x2="24.0253" y2="3.24661" gradientUnits="userSpaceOnUse">
<stop stop-color="#5C44C2"/>
<stop offset="0.499384" stop-color="#69ADDA"/>
<stop offset="0.945" stop-color="#FF1684"/>
</linearGradient>
<linearGradient id="paint38_linear_4159_67455" x1="1.43001" y1="27.6834" x2="24.0253" y2="3.24661" gradientUnits="userSpaceOnUse">
<stop stop-color="#5C44C2"/>
<stop offset="0.499384" stop-color="#69ADDA"/>
<stop offset="0.945" stop-color="#FF1684"/>
</linearGradient>
<linearGradient id="paint39_linear_4159_67455" x1="1.43001" y1="27.6834" x2="24.0253" y2="3.24661" gradientUnits="userSpaceOnUse">
<stop stop-color="#5C44C2"/>
<stop offset="0.499384" stop-color="#69ADDA"/>
<stop offset="0.945" stop-color="#FF1684"/>
</linearGradient>
<linearGradient id="paint40_linear_4159_67455" x1="1.43001" y1="27.6834" x2="24.0253" y2="3.24661" gradientUnits="userSpaceOnUse">
<stop stop-color="#5C44C2"/>
<stop offset="0.499384" stop-color="#69ADDA"/>
<stop offset="0.945" stop-color="#FF1684"/>
</linearGradient>
<linearGradient id="paint41_linear_4159_67455" x1="1.43001" y1="27.6834" x2="24.0253" y2="3.24661" gradientUnits="userSpaceOnUse">
<stop stop-color="#5C44C2"/>
<stop offset="0.499384" stop-color="#69ADDA"/>
<stop offset="0.945" stop-color="#FF1684"/>
</linearGradient>
<linearGradient id="paint42_linear_4159_67455" x1="1.43001" y1="27.6834" x2="24.0253" y2="3.24661" gradientUnits="userSpaceOnUse">
<stop stop-color="#5C44C2"/>
<stop offset="0.499384" stop-color="#69ADDA"/>
<stop offset="0.945" stop-color="#FF1684"/>
</linearGradient>
<linearGradient id="paint43_linear_4159_67455" x1="1.43001" y1="27.6834" x2="24.0253" y2="3.24661" gradientUnits="userSpaceOnUse">
<stop stop-color="#5C44C2"/>
<stop offset="0.499384" stop-color="#69ADDA"/>
<stop offset="0.945" stop-color="#FF1684"/>
</linearGradient>
<linearGradient id="paint44_linear_4159_67455" x1="1.43001" y1="27.6834" x2="24.0253" y2="3.24661" gradientUnits="userSpaceOnUse">
<stop stop-color="#5C44C2"/>
<stop offset="0.499384" stop-color="#69ADDA"/>
<stop offset="0.945" stop-color="#FF1684"/>
</linearGradient>
<linearGradient id="paint45_linear_4159_67455" x1="1.43001" y1="27.6834" x2="24.0253" y2="3.24661" gradientUnits="userSpaceOnUse">
<stop stop-color="#5C44C2"/>
<stop offset="0.499384" stop-color="#69ADDA"/>
<stop offset="0.945" stop-color="#FF1684"/>
</linearGradient>
<linearGradient id="paint46_linear_4159_67455" x1="1.43001" y1="27.6834" x2="24.0253" y2="3.24661" gradientUnits="userSpaceOnUse">
<stop stop-color="#5C44C2"/>
<stop offset="0.499384" stop-color="#69ADDA"/>
<stop offset="0.945" stop-color="#FF1684"/>
</linearGradient>
<linearGradient id="paint47_linear_4159_67455" x1="1.43001" y1="27.6834" x2="24.0253" y2="3.24661" gradientUnits="userSpaceOnUse">
<stop stop-color="#5C44C2"/>
<stop offset="0.499384" stop-color="#69ADDA"/>
<stop offset="0.945" stop-color="#FF1684"/>
</linearGradient>
<linearGradient id="paint48_linear_4159_67455" x1="1.43001" y1="27.6834" x2="24.0253" y2="3.24661" gradientUnits="userSpaceOnUse">
<stop stop-color="#5C44C2"/>
<stop offset="0.499384" stop-color="#69ADDA"/>
<stop offset="0.945" stop-color="#FF1684"/>
</linearGradient>
</defs>
</svg>
