<svg width="24" height="24" viewBox="0 0 24 24" fill="none" xmlns="http://www.w3.org/2000/svg">
<path d="M6 13.5C6 13.8978 6.15803 14.2794 6.43934 14.5607C6.72064 14.842 7.10218 15 7.5 15C7.89782 15 8.27936 14.842 8.56066 14.5607C8.84196 14.2794 9 13.8978 9 13.5C9 13.1022 8.84196 12.7206 8.56066 12.4393C8.27936 12.158 7.89782 12 7.5 12C7.10218 12 6.72064 12.158 6.43934 12.4393C6.15803 12.7206 6 13.1022 6 13.5ZM15.0723 16.7063C14.4536 17.1938 13.2268 17.7188 12 17.7188C10.7732 17.7188 9.54643 17.1938 8.92768 16.7063C8.54196 16.4036 7.98214 16.4679 7.67679 16.8536C7.37143 17.2393 7.43839 17.7991 7.82411 18.1045C8.90089 18.9536 10.5402 19.5 12 19.5C13.4598 19.5 15.0991 18.9536 16.1759 18.1045C16.3613 17.9581 16.481 17.7441 16.5086 17.5095C16.5363 17.2749 16.4696 17.039 16.3232 16.8536C16.1769 16.6682 15.9629 16.5485 15.7283 16.5208C15.4937 16.4932 15.2577 16.5599 15.0723 16.7063ZM24 10.5C24 8.84196 22.658 7.5 21 7.5C19.8723 7.5 18.892 8.12143 18.3777 9.04286C16.8348 8.19911 14.9571 7.65536 12.9107 7.52946L14.7027 3.50893L18.1286 4.49732C18.4366 5.37054 19.2696 6 20.25 6C21.4929 6 22.5 4.99286 22.5 3.75C22.5 2.50714 21.4929 1.5 20.25 1.5C19.3929 1.5 18.6482 1.97946 18.2679 2.68393L14.4509 1.58036C14.2444 1.52037 14.0231 1.53725 13.8281 1.62787C13.6331 1.71848 13.4775 1.8767 13.3902 2.07321L10.958 7.53482C8.9625 7.67411 7.13036 8.21518 5.62232 9.04018C5.36227 8.57295 4.982 8.18376 4.52092 7.91296C4.05984 7.64215 3.53473 7.49957 3 7.5C1.34196 7.5 0 8.84196 0 10.5C0 11.7268 0.736607 12.7795 1.78929 13.2455C1.59911 13.808 1.5 14.3973 1.5 15C1.5 19.1411 6.20089 22.5 12 22.5C17.7991 22.5 22.5 19.1411 22.5 15C22.5 14.3946 22.3982 13.808 22.2107 13.2455C23.2634 12.7795 24 11.7268 24 10.5ZM20.25 2.90625C20.3608 2.90625 20.4705 2.92807 20.5729 2.97048C20.6753 3.01288 20.7683 3.07503 20.8466 3.15338C20.925 3.23173 20.9871 3.32474 21.0295 3.42711C21.0719 3.52948 21.0938 3.6392 21.0938 3.75C21.0938 3.8608 21.0719 3.97052 21.0295 4.07289C20.9871 4.17526 20.925 4.26827 20.8466 4.34662C20.7683 4.42497 20.6753 4.48712 20.5729 4.52952C20.4705 4.57193 20.3608 4.59375 20.25 4.59375C20.0262 4.59375 19.8116 4.50486 19.6534 4.34662C19.4951 4.18839 19.4062 3.97378 19.4062 3.75C19.4062 3.52622 19.4951 3.31161 19.6534 3.15338C19.8116 2.99514 20.0262 2.90625 20.25 2.90625ZM1.5 10.5C1.5 9.67232 2.17232 9 3 9C3.28416 9.00022 3.56241 9.08115 3.80236 9.23337C4.04231 9.38559 4.23408 9.60284 4.35536 9.85982C3.57054 10.4545 2.92232 11.1402 2.44018 11.8929C2.16281 11.7804 1.92523 11.5878 1.75778 11.3397C1.59032 11.0917 1.50058 10.7993 1.5 10.5ZM12 20.7188C7.18393 20.7188 3.28125 18.158 3.28125 15C3.28125 11.842 7.18393 9.28125 12 9.28125C16.8161 9.28125 20.7188 11.842 20.7188 15C20.7188 18.158 16.8161 20.7188 12 20.7188ZM21.5571 11.8929C21.0777 11.1402 20.4268 10.4545 19.642 9.85982C19.883 9.35357 20.4 9 20.9973 9C21.825 9 22.4973 9.67232 22.4973 10.5C22.5 11.1295 22.1089 11.6705 21.5571 11.8929ZM15 13.5C15 13.8978 15.158 14.2794 15.4393 14.5607C15.7206 14.842 16.1022 15 16.5 15C16.8978 15 17.2794 14.842 17.5607 14.5607C17.842 14.2794 18 13.8978 18 13.5C18 13.1022 17.842 12.7206 17.5607 12.4393C17.2794 12.158 16.8978 12 16.5 12C16.1022 12 15.7206 12.158 15.4393 12.4393C15.158 12.7206 15 13.1022 15 13.5Z" fill="#CDD8D3"/>
</svg>
